<?xml version="1.0" encoding="UTF-8" standalone="no"?>
<svg width="325px" height="328px" viewBox="0 0 325 328" version="1.1" xmlns="http://www.w3.org/2000/svg" xmlns:xlink="http://www.w3.org/1999/xlink">
    <!-- Generator: Sketch 42 (36781) - http://www.bohemiancoding.com/sketch -->
    <title>Group 2</title>
    <desc>Created with Sketch.</desc>
    <defs>
        <polygon id="path-1" points="244.06793 97.5478512 241.579271 97.8029674 241.061669 95.4401715 240.041195 93.235046 242.209959 92.029874 244.06793 90.4119154 245.925901 92.029874 248.094664 93.235046 247.07419 95.4401715 246.556588 97.8029674"></polygon>
        <mask id="mask-2" maskContentUnits="userSpaceOnUse" maskUnits="objectBoundingBox" x="-1.28" y="-1.28" width="11.027918" height="10.5264734">
            <rect x="238.553971" y="89.2343517" width="11.027918" height="10.5264734" fill="white"></rect>
            <use xlink:href="#path-1" fill="black"></use>
        </mask>
        <polygon id="path-3" points="42.233959 154.033499 39.7453003 154.288616 39.2276985 151.92582 38.2072247 149.720694 40.3759878 148.515522 42.233959 146.897564 44.0919302 148.515522 46.2606933 149.720694 45.2402196 151.92582 44.7226177 154.288616"></polygon>
        <mask id="mask-4" maskContentUnits="userSpaceOnUse" maskUnits="objectBoundingBox" x="-1.28" y="-1.28" width="11.027918" height="10.5264734">
            <rect x="36.72" y="145.72" width="11.027918" height="10.5264734" fill="white"></rect>
            <use xlink:href="#path-3" fill="black"></use>
        </mask>
        <polygon id="path-5" points="121.753558 14.9264628 119.2649 15.181579 118.747298 12.8187831 117.726824 10.6136576 119.895587 9.40848563 121.753558 7.79052699 123.61153 9.40848563 125.780293 10.6136576 124.759819 12.8187831 124.242217 15.181579"></polygon>
        <mask id="mask-6" maskContentUnits="userSpaceOnUse" maskUnits="objectBoundingBox" x="-1.28" y="-1.28" width="11.027918" height="10.5264734">
            <rect x="116.239599" y="6.61296334" width="11.027918" height="10.5264734" fill="white"></rect>
            <use xlink:href="#path-5" fill="black"></use>
        </mask>
        <polygon id="path-7" points="74.233959 51.0334995 71.7453003 51.2886156 71.2276985 48.9258197 70.2072247 46.7206943 72.3759878 45.5155223 74.233959 43.8975636 76.0919302 45.5155223 78.2606933 46.7206943 77.2402196 48.9258197 76.7226177 51.2886156"></polygon>
        <mask id="mask-8" maskContentUnits="userSpaceOnUse" maskUnits="objectBoundingBox" x="-1.28" y="-1.28" width="11.027918" height="10.5264734">
            <rect x="68.72" y="42.72" width="11.027918" height="10.5264734" fill="white"></rect>
            <use xlink:href="#path-7" fill="black"></use>
        </mask>
        <polygon id="path-9" points="218.057842 57.6680005 215.063981 57.5067448 214.896873 54.6177377 215.063981 51.7287306 218.057842 51.5674749 221.051703 51.7287306 221.218812 54.6177377 221.051703 57.5067448"></polygon>
        <mask id="mask-10" maskContentUnits="userSpaceOnUse" maskUnits="objectBoundingBox" x="-1.28" y="-1.28" width="11.027918" height="10.5264734">
            <rect x="212.543883" y="49.354501" width="11.027918" height="10.5264734" fill="white"></rect>
            <use xlink:href="#path-9" fill="black"></use>
        </mask>
        <polygon id="path-11" points="275.233959 153.033499 272.240098 152.872244 272.07299 149.983237 272.240098 147.09423 275.233959 146.932974 278.22782 147.09423 278.394928 149.983237 278.22782 152.872244"></polygon>
        <mask id="mask-12" maskContentUnits="userSpaceOnUse" maskUnits="objectBoundingBox" x="-1.28" y="-1.28" width="11.027918" height="10.5264734">
            <rect x="269.72" y="144.72" width="11.027918" height="10.5264734" fill="white"></rect>
            <use xlink:href="#path-11" fill="black"></use>
        </mask>
        <polygon id="path-13" points="197.964821 18.5581722 194.970959 18.3969165 194.803851 15.5079094 194.970959 12.6189023 197.964821 12.4576467 200.958682 12.6189023 201.12579 15.5079094 200.958682 18.3969165"></polygon>
        <mask id="mask-14" maskContentUnits="userSpaceOnUse" maskUnits="objectBoundingBox" x="-1.28" y="-1.28" width="11.027918" height="10.5264734">
            <rect x="192.450862" y="10.2446727" width="11.027918" height="10.5264734" fill="white"></rect>
            <use xlink:href="#path-13" fill="black"></use>
        </mask>
        <polygon id="path-15" points="187.615143 84.8368684 184.621282 84.6756127 184.454174 81.7866056 184.621282 78.8975985 187.615143 78.7363428 190.609004 78.8975985 190.776112 81.7866056 190.609004 84.6756127"></polygon>
        <mask id="mask-16" maskContentUnits="userSpaceOnUse" maskUnits="objectBoundingBox" x="-1.28" y="-1.28" width="11.027918" height="10.5264734">
            <rect x="182.101184" y="76.5233689" width="11.027918" height="10.5264734" fill="white"></rect>
            <use xlink:href="#path-15" fill="black"></use>
        </mask>
        <polygon id="path-17" points="47.4240558 117.522253 44.4301947 117.360997 44.2630864 114.47199 44.4301947 111.582983 47.4240558 111.421727 50.417917 111.582983 50.5850252 114.47199 50.417917 117.360997"></polygon>
        <mask id="mask-18" maskContentUnits="userSpaceOnUse" maskUnits="objectBoundingBox" x="-1.28" y="-1.28" width="11.027918" height="10.5264734">
            <rect x="41.9100968" y="109.208753" width="11.027918" height="10.5264734" fill="white"></rect>
            <use xlink:href="#path-17" fill="black"></use>
        </mask>
        <ellipse id="path-19" cx="276.828927" cy="112.92104" rx="2.82263934" ry="2.72378203"></ellipse>
        <mask id="mask-20" maskContentUnits="userSpaceOnUse" maskUnits="objectBoundingBox" x="-1.28" y="-1.28" width="8.20527868" height="8.00756407">
            <rect x="272.726288" y="108.917258" width="8.20527868" height="8.00756407" fill="white"></rect>
            <use xlink:href="#path-19" fill="black"></use>
        </mask>
        <ellipse id="path-21" cx="4.61402585" cy="115.936317" rx="2.82263934" ry="2.72378203"></ellipse>
        <mask id="mask-22" maskContentUnits="userSpaceOnUse" maskUnits="objectBoundingBox" x="-1.28" y="-1.28" width="8.20527868" height="8.00756407">
            <rect x="0.511386511" y="111.932535" width="8.20527868" height="8.00756407" fill="white"></rect>
            <use xlink:href="#path-21" fill="black"></use>
        </mask>
        <ellipse id="path-23" cx="62.9485722" cy="82.3430056" rx="3.76351912" ry="3.63170938"></ellipse>
        <mask id="mask-24" maskContentUnits="userSpaceOnUse" maskUnits="objectBoundingBox" x="-1.28" y="-1.28" width="10.0870382" height="9.82341876">
            <rect x="57.9050531" y="77.4312962" width="10.0870382" height="9.82341876" fill="white"></rect>
            <use xlink:href="#path-23" fill="black"></use>
        </mask>
        <ellipse id="path-25" cx="255.828927" cy="56.92104" rx="2.82263934" ry="2.72378203"></ellipse>
        <mask id="mask-26" maskContentUnits="userSpaceOnUse" maskUnits="objectBoundingBox" x="-1.28" y="-1.28" width="8.20527868" height="8.00756407">
            <rect x="251.726288" y="52.9172579" width="8.20527868" height="8.00756407" fill="white"></rect>
            <use xlink:href="#path-25" fill="black"></use>
        </mask>
        <ellipse id="path-27" cx="26.8404192" cy="77.2765314" rx="3.76351912" ry="3.63170938"></ellipse>
        <mask id="mask-28" maskContentUnits="userSpaceOnUse" maskUnits="objectBoundingBox" x="-1.28" y="-1.28" width="10.0870382" height="9.82341876">
            <rect x="21.7969001" y="72.364822" width="10.0870382" height="9.82341876" fill="white"></rect>
            <use xlink:href="#path-27" fill="black"></use>
        </mask>
        <ellipse id="path-29" cx="128.810157" cy="72.3558048" rx="2.82263934" ry="2.72378203"></ellipse>
        <mask id="mask-30" maskContentUnits="userSpaceOnUse" maskUnits="objectBoundingBox" x="-1.28" y="-1.28" width="8.20527868" height="8.00756407">
            <rect x="124.707517" y="68.3520228" width="8.20527868" height="8.00756407" fill="white"></rect>
            <use xlink:href="#path-29" fill="black"></use>
        </mask>
        <polygon id="path-31" points="76.9796993 60.8527239 74.4910406 61.1078401 73.9734388 58.7450442 72.952965 56.5399187 75.1217281 55.3347467 76.9796993 53.7167881 78.8376705 55.3347467 81.0064336 56.5399187 79.9859599 58.7450442 79.468358 61.1078401"></polygon>
        <mask id="mask-32" maskContentUnits="userSpaceOnUse" maskUnits="objectBoundingBox" x="-1.28" y="-1.28" width="11.027918" height="10.5264734">
            <rect x="71.4657403" y="52.5392244" width="11.027918" height="10.5264734" fill="white"></rect>
            <use xlink:href="#path-31" fill="black"></use>
        </mask>
        <polygon id="path-33" points="285.81367 18.3670756 283.325011 18.6221918 282.80741 16.2593959 281.786936 14.0542704 283.955699 12.8490984 285.81367 11.2311398 287.671641 12.8490984 289.840404 14.0542704 288.819931 16.2593959 288.302329 18.6221918"></polygon>
        <mask id="mask-34" maskContentUnits="userSpaceOnUse" maskUnits="objectBoundingBox" x="-1.28" y="-1.28" width="11.027918" height="10.5264734">
            <rect x="280.299711" y="10.0535762" width="11.027918" height="10.5264734" fill="white"></rect>
            <use xlink:href="#path-33" fill="black"></use>
        </mask>
        <polygon id="path-35" points="197.294071 145.474112 194.805412 145.729228 194.28781 143.366433 193.267336 141.161307 195.436099 139.956135 197.294071 138.338176 199.152042 139.956135 201.320805 141.161307 200.300331 143.366433 199.782729 145.729228"></polygon>
        <mask id="mask-36" maskContentUnits="userSpaceOnUse" maskUnits="objectBoundingBox" x="-1.28" y="-1.28" width="11.027918" height="10.5264734">
            <rect x="191.780112" y="137.160613" width="11.027918" height="10.5264734" fill="white"></rect>
            <use xlink:href="#path-35" fill="black"></use>
        </mask>
        <polygon id="path-37" points="244.81367 109.367076 242.325011 109.622192 241.80741 107.259396 240.786936 105.05427 242.955699 103.849098 244.81367 102.23114 246.671641 103.849098 248.840404 105.05427 247.819931 107.259396 247.302329 109.622192"></polygon>
        <mask id="mask-38" maskContentUnits="userSpaceOnUse" maskUnits="objectBoundingBox" x="-1.28" y="-1.28" width="11.027918" height="10.5264734">
            <rect x="239.299711" y="101.053576" width="11.027918" height="10.5264734" fill="white"></rect>
            <use xlink:href="#path-37" fill="black"></use>
        </mask>
        <polygon id="path-39" points="100.989787 102.732575 97.9959257 102.571319 97.8288174 99.6823119 97.9959257 96.7933047 100.989787 96.6320491 103.983648 96.7933047 104.150756 99.6823119 103.983648 102.571319"></polygon>
        <mask id="mask-40" maskContentUnits="userSpaceOnUse" maskUnits="objectBoundingBox" x="-1.28" y="-1.28" width="11.027918" height="10.5264734">
            <rect x="95.4758278" y="94.4190752" width="11.027918" height="10.5264734" fill="white"></rect>
            <use xlink:href="#path-39" fill="black"></use>
        </mask>
        <polygon id="path-41" points="42.9897868 14.7325746 39.9959257 14.571319 39.8288174 11.6823119 39.9959257 8.79330473 42.9897868 8.63204909 45.9836479 8.79330473 46.1507562 11.6823119 45.9836479 14.571319"></polygon>
        <mask id="mask-42" maskContentUnits="userSpaceOnUse" maskUnits="objectBoundingBox" x="-1.28" y="-1.28" width="11.027918" height="10.5264734">
            <rect x="37.4758278" y="6.41907515" width="11.027918" height="10.5264734" fill="white"></rect>
            <use xlink:href="#path-41" fill="black"></use>
        </mask>
        <polygon id="path-43" points="121.082809 141.842403 118.088947 141.681147 117.921839 138.79214 118.088947 135.903133 121.082809 135.741877 124.07667 135.903133 124.243778 138.79214 124.07667 141.681147"></polygon>
        <mask id="mask-44" maskContentUnits="userSpaceOnUse" maskUnits="objectBoundingBox" x="-1.28" y="-1.28" width="11.027918" height="10.5264734">
            <rect x="115.56885" y="133.528903" width="11.027918" height="10.5264734" fill="white"></rect>
            <use xlink:href="#path-43" fill="black"></use>
        </mask>
        <polygon id="path-45" points="131.432486 83.5637067 128.438625 83.4024511 128.271517 80.513444 128.438625 77.6244368 131.432486 77.4631812 134.426347 77.6244368 134.593455 80.513444 134.426347 83.4024511"></polygon>
        <mask id="mask-46" maskContentUnits="userSpaceOnUse" maskUnits="objectBoundingBox" x="-1.28" y="-1.28" width="11.027918" height="10.5264734">
            <rect x="125.918527" y="75.2502073" width="11.027918" height="10.5264734" fill="white"></rect>
            <use xlink:href="#path-45" fill="black"></use>
        </mask>
        <polygon id="path-47" points="280.623573 61.8783223 277.629712 61.7170667 277.462604 58.8280595 277.629712 55.9390524 280.623573 55.7777968 283.617434 55.9390524 283.784543 58.8280595 283.617434 61.7170667"></polygon>
        <mask id="mask-48" maskContentUnits="userSpaceOnUse" maskUnits="objectBoundingBox" x="-1.28" y="-1.28" width="11.027918" height="10.5264734">
            <rect x="275.109614" y="53.5648228" width="11.027918" height="10.5264734" fill="white"></rect>
            <use xlink:href="#path-47" fill="black"></use>
        </mask>
        <ellipse id="path-49" cx="39.3960627" cy="38.8601003" rx="2.82263934" ry="2.72378203"></ellipse>
        <mask id="mask-50" maskContentUnits="userSpaceOnUse" maskUnits="objectBoundingBox" x="-1.28" y="-1.28" width="8.20527868" height="8.00756407">
            <rect x="35.2934234" y="34.8563182" width="8.20527868" height="8.00756407" fill="white"></rect>
            <use xlink:href="#path-49" fill="black"></use>
        </mask>
        <ellipse id="path-51" cx="311.610964" cy="35.8448228" rx="2.82263934" ry="2.72378203"></ellipse>
        <mask id="mask-52" maskContentUnits="userSpaceOnUse" maskUnits="objectBoundingBox" x="-1.28" y="-1.28" width="8.20527868" height="8.00756407">
            <rect x="307.508325" y="31.8410408" width="8.20527868" height="8.00756407" fill="white"></rect>
            <use xlink:href="#path-51" fill="black"></use>
        </mask>
        <ellipse id="path-53" cx="245.158177" cy="61.2539893" rx="3.76351912" ry="3.63170938"></ellipse>
        <mask id="mask-54" maskContentUnits="userSpaceOnUse" maskUnits="objectBoundingBox" x="-1.28" y="-1.28" width="10.0870382" height="9.82341876">
            <rect x="240.114658" y="56.3422799" width="10.0870382" height="9.82341876" fill="white"></rect>
            <use xlink:href="#path-53" fill="black"></use>
        </mask>
        <ellipse id="path-55" cx="60.3960627" cy="94.8601003" rx="2.82263934" ry="2.72378203"></ellipse>
        <mask id="mask-56" maskContentUnits="userSpaceOnUse" maskUnits="objectBoundingBox" x="-1.28" y="-1.28" width="8.20527868" height="8.00756407">
            <rect x="56.2934234" y="90.8563182" width="8.20527868" height="8.00756407" fill="white"></rect>
            <use xlink:href="#path-55" fill="black"></use>
        </mask>
        <ellipse id="path-57" cx="285.26633" cy="90.3204635" rx="3.76351912" ry="3.63170938"></ellipse>
        <mask id="mask-58" maskContentUnits="userSpaceOnUse" maskUnits="objectBoundingBox" x="-1.28" y="-1.28" width="10.0870382" height="9.82341876">
            <rect x="280.222811" y="85.4087542" width="10.0870382" height="9.82341876" fill="white"></rect>
            <use xlink:href="#path-57" fill="black"></use>
        </mask>
        <ellipse id="path-59" cx="181.414833" cy="79.4253354" rx="2.82263934" ry="2.72378203"></ellipse>
        <mask id="mask-60" maskContentUnits="userSpaceOnUse" maskUnits="objectBoundingBox" x="-1.28" y="-1.28" width="8.20527868" height="8.00756407">
            <rect x="177.312194" y="75.4215534" width="8.20527868" height="8.00756407" fill="white"></rect>
            <use xlink:href="#path-59" fill="black"></use>
        </mask>
    </defs>
    <g id="New-Prototype" stroke="none" stroke-width="1" fill="none" fill-rule="evenodd">
        <g id="12-spinner-active" transform="translate(-589.000000, -311.000000)">
            <g id="modal" transform="translate(552.000000, 283.000000)">
                <g id="Group-2" transform="translate(37.000000, 26.000000)">
                    <g id="stars-1" transform="translate(159.500000, 244.000000) rotate(-180.000000) translate(-159.500000, -244.000000) translate(0.000000, 156.000000)">
                        <use id="Star4" stroke="#CCCCCC" mask="url(#mask-2)" stroke-width="2.56" stroke-linecap="round" stroke-linejoin="round" xlink:href="#path-1"></use>
                        <use id="Star-3" stroke="#CCCCCC" mask="url(#mask-4)" stroke-width="2.56" stroke-linecap="round" stroke-linejoin="round" xlink:href="#path-3"></use>
                        <use id="Star-2" stroke="#CCCCCC" mask="url(#mask-6)" stroke-width="2.56" stroke-linecap="round" stroke-linejoin="round" xlink:href="#path-5"></use>
                        <use id="Star-1" stroke="#CCCCCC" mask="url(#mask-8)" stroke-width="2.56" stroke-linecap="round" stroke-linejoin="round" xlink:href="#path-7"></use>
                        <use id="square-5" stroke="#CCCCCC" mask="url(#mask-10)" stroke-width="2.56" stroke-linecap="round" stroke-linejoin="round" transform="translate(218.057842, 54.617738) rotate(-330.000000) translate(-218.057842, -54.617738) " xlink:href="#path-9"></use>
                        <use id="square-4" stroke="#CCCCCC" mask="url(#mask-12)" stroke-width="2.56" stroke-linecap="round" stroke-linejoin="round" xlink:href="#path-11"></use>
                        <use id="square-3" stroke="#CCCCCC" mask="url(#mask-14)" stroke-width="2.56" stroke-linecap="round" stroke-linejoin="round" xlink:href="#path-13"></use>
                        <use id="square-2" stroke="#CCCCCC" mask="url(#mask-16)" stroke-width="2.56" stroke-linecap="round" stroke-linejoin="round" xlink:href="#path-15"></use>
                        <use id="square-1" stroke="#CCCCCC" mask="url(#mask-18)" stroke-width="2.56" stroke-linecap="round" stroke-linejoin="round" xlink:href="#path-17"></use>
                        <use id="oval-6" stroke="#DCDCDC" mask="url(#mask-20)" stroke-width="2.56" xlink:href="#path-19"></use>
                        <use id="oval-5" stroke="#DCDCDC" mask="url(#mask-22)" stroke-width="2.56" xlink:href="#path-21"></use>
                        <use id="oval-4" stroke="#DCDCDC" mask="url(#mask-24)" stroke-width="2.56" xlink:href="#path-23"></use>
                        <use id="oval-3" stroke="#DCDCDC" mask="url(#mask-26)" stroke-width="2.56" xlink:href="#path-25"></use>
                        <use id="oval-2" stroke="#DCDCDC" mask="url(#mask-28)" stroke-width="2.56" xlink:href="#path-27"></use>
                        <use id="oval-1" stroke="#DCDCDC" mask="url(#mask-30)" stroke-width="2.56" xlink:href="#path-29"></use>
                        <path d="M313.404703,140.409347 L310.234139,140.409347 C309.880677,140.409347 309.594139,140.695885 309.594139,141.049347 L310.234139,141.689347 L313.404703,141.689347 L313.404703,144.027915 C313.404703,144.381378 313.69124,144.667915 314.044703,144.667915 C314.398165,144.667915 314.684703,144.381378 314.684703,144.027915 L314.684703,141.689347 L317.855266,141.689347 C318.208728,141.689347 318.495266,141.402809 318.495266,141.049347 C318.495266,140.695885 318.208728,140.409347 317.855266,140.409347 L314.684703,140.409347 L314.684703,138.070779 C314.684703,137.717316 314.398165,137.430779 314.044703,137.430779 C313.69124,137.430779 313.404703,138.070779 313.404703,138.070779 L313.404703,140.409347 Z" id="plus-9" fill="#D8D8D8"></path>
                        <path d="M301.173265,94.1050524 L298.002702,94.1050524 C297.64924,94.1050524 297.362702,94.3915901 297.362702,94.7450524 L298.002702,95.3850524 L301.173265,95.3850524 L301.173265,97.7236208 C301.173265,98.077083 301.459803,98.3636208 301.813265,98.3636208 C302.166728,98.3636208 302.453265,98.077083 302.453265,97.7236208 L302.453265,95.3850524 L305.623828,95.3850524 C305.977291,95.3850524 306.263828,95.0985146 306.263828,94.7450524 C306.263828,94.3915901 305.977291,94.1050524 305.623828,94.1050524 L302.453265,94.1050524 L302.453265,91.766484 C302.453265,91.4130218 302.166728,91.126484 301.813265,91.126484 L301.173265,91.766484 L301.173265,94.1050524 Z" id="plus-8" fill="#D8D8D8"></path>
                        <path d="M258.833675,171.278877 L255.663112,171.278877 C255.30965,171.278877 255.023112,171.565414 255.023112,171.918877 L255.663112,172.558877 L258.833675,172.558877 L258.833675,174.897445 C258.833675,175.250907 259.120213,175.537445 259.473675,175.537445 C259.827138,175.537445 260.113675,175.250907 260.113675,174.897445 L260.113675,172.558877 L263.284238,172.558877 C263.637701,172.558877 263.924238,172.272339 263.924238,171.918877 C263.924238,171.565414 263.637701,171.278877 263.284238,171.278877 L260.113675,171.278877 L260.113675,168.940308 C260.113675,168.586846 259.827138,168.300308 259.473675,168.300308 L258.833675,168.940308 L258.833675,171.278877 Z" id="plus-7" fill="#D8D8D8"></path>
                        <path d="M112.997309,45.9056297 L109.826746,45.9056297 C109.473284,45.9056297 109.186746,46.1921674 109.186746,46.5456297 C109.186746,46.8990919 109.473284,47.1856297 109.826746,47.1856297 L112.997309,47.1856297 L112.997309,49.524198 C112.997309,49.8776603 113.283847,50.164198 113.637309,50.164198 C113.990772,50.164198 114.277309,49.8776603 114.277309,49.524198 L114.277309,47.1856297 L117.447873,47.1856297 C117.801335,47.1856297 118.087873,46.8990919 118.087873,46.5456297 C118.087873,46.1921674 117.801335,45.9056297 117.447873,45.9056297 L114.277309,45.9056297 L114.277309,43.5670613 C114.277309,43.213599 113.990772,42.9270613 113.637309,42.9270613 C113.283847,42.9270613 112.997309,43.213599 112.997309,43.5670613 L112.997309,45.9056297 Z" id="plus-6" fill="#D8D8D8"></path>
                        <path d="M173.213615,39.6294117 L170.043052,39.6294117 C169.68959,39.6294117 169.403052,39.9159494 169.403052,40.2694117 L170.043052,40.9094117 L173.213615,40.9094117 L173.213615,43.2479801 C173.213615,43.6014423 173.500153,43.8879801 173.853615,43.8879801 C174.207078,43.8879801 174.493615,43.6014423 174.493615,43.2479801 L174.493615,40.9094117 L177.664178,40.9094117 C178.017641,40.9094117 178.304178,40.6228739 178.304178,40.2694117 C178.304178,39.9159494 178.017641,39.6294117 177.664178,39.6294117 L174.493615,39.6294117 L174.493615,37.2908433 C174.493615,36.9373811 174.207078,36.6508433 173.853615,36.6508433 L173.213615,37.2908433 L173.213615,39.6294117 L173.213615,39.6294117 Z" id="plus-5" fill="#D8D8D8" transform="translate(173.853615, 40.269412) rotate(28.000000) translate(-173.853615, -40.269412) "></path>
                        <path d="M4.79613478,148.580693 L1.62557167,148.580693 C1.27210943,148.580693 0.98557167,148.867231 0.98557167,149.220693 L1.62557167,149.860693 L4.79613478,149.860693 L4.79613478,152.199261 C4.79613478,152.552724 5.08267254,152.839261 5.43613478,152.839261 C5.78959702,152.839261 6.07613478,152.552724 6.07613478,152.199261 L6.07613478,149.860693 L9.24669789,149.860693 C9.60016013,149.860693 9.88669789,149.574155 9.88669789,149.220693 C9.88669789,148.867231 9.60016013,148.580693 9.24669789,148.580693 L6.07613478,148.580693 L6.07613478,146.242125 C6.07613478,145.888662 5.78959702,145.602125 5.43613478,145.602125 L4.79613478,146.242125 L4.79613478,148.580693 Z" id="plus-4" fill="#D8D8D8"></path>
                        <path d="M158.159539,5.12817258 L154.988976,5.12817258 C154.635514,5.12817258 154.348976,5.41471034 154.348976,5.76817258 L154.988976,6.40817258 L158.159539,6.40817258 L158.159539,8.74674096 C158.159539,9.1002032 158.446077,9.38674096 158.799539,9.38674096 C159.153001,9.38674096 159.439539,9.1002032 159.439539,8.74674096 L159.439539,6.40817258 L162.610102,6.40817258 C162.963564,6.40817258 163.250102,6.12163482 163.250102,5.76817258 C163.250102,5.41471034 162.963564,5.12817258 162.610102,5.12817258 L159.439539,5.12817258 L159.439539,2.7896042 C159.439539,2.43614196 159.153001,2.1496042 158.799539,2.1496042 L158.159539,2.7896042 L158.159539,5.12817258 L158.159539,5.12817258 Z" id="plus-3" fill="#D8D8D8" transform="translate(158.799539, 5.768173) rotate(52.000000) translate(-158.799539, -5.768173) "></path>
                        <path d="M248.483998,26.9184289 L245.313435,26.9184289 C244.959972,26.9184289 244.673435,27.2049666 244.673435,27.5584289 L245.313435,28.1984289 L248.483998,28.1984289 L248.483998,30.5369972 C248.483998,30.8904595 248.770535,31.1769972 249.123998,31.1769972 C249.47746,31.1769972 249.763998,30.8904595 249.763998,30.5369972 L249.763998,28.1984289 L252.934561,28.1984289 C253.288023,28.1984289 253.574561,27.9118911 253.574561,27.5584289 C253.574561,27.2049666 253.288023,26.9184289 252.934561,26.9184289 L249.763998,26.9184289 L249.763998,24.5798605 C249.763998,24.2263982 249.47746,23.9398605 249.123998,23.9398605 L248.483998,24.5798605 L248.483998,26.9184289 Z" id="plus-2" fill="#D8D8D8"></path>
                        <path d="M55.6036429,21.4708648 L52.4330798,21.4708648 C52.0796175,21.4708648 51.7930798,21.7574025 51.7930798,22.1108648 L52.4330798,22.7508648 L55.6036429,22.7508648 L55.6036429,25.0894332 C55.6036429,25.4428954 55.8901806,25.7294332 56.2436429,25.7294332 C56.5971051,25.7294332 56.8836429,25.4428954 56.8836429,25.0894332 L56.8836429,22.7508648 L60.054206,22.7508648 C60.4076682,22.7508648 60.694206,22.464327 60.694206,22.1108648 C60.694206,21.7574025 60.4076682,21.4708648 60.054206,21.4708648 L56.8836429,21.4708648 L56.8836429,19.1322964 C56.8836429,18.7788342 56.5971051,18.4922964 56.2436429,18.4922964 L55.6036429,19.1322964 L55.6036429,21.4708648 Z" id="plus-1" fill="#D8D8D8"></path>
                    </g>
                    <g id="stars-2" transform="translate(166.500000, 77.000000) rotate(-180.000000) translate(-166.500000, -77.000000) translate(7.000000, 0.000000)">
                        <use id="Star4-copy" stroke="#CCCCCC" mask="url(#mask-32)" stroke-width="2.56" stroke-linecap="round" stroke-linejoin="round" xlink:href="#path-31"></use>
                        <use id="Star-3-copy" stroke="#CCCCCC" mask="url(#mask-34)" stroke-width="2.56" stroke-linecap="round" stroke-linejoin="round" xlink:href="#path-33"></use>
                        <use id="Star-2-copy" stroke="#CCCCCC" mask="url(#mask-36)" stroke-width="2.56" stroke-linecap="round" stroke-linejoin="round" xlink:href="#path-35"></use>
                        <use id="Star-1-copy" stroke="#CCCCCC" mask="url(#mask-38)" stroke-width="2.56" stroke-linecap="round" stroke-linejoin="round" xlink:href="#path-37"></use>
                        <use id="square-5-copy" stroke="#CCCCCC" mask="url(#mask-40)" stroke-width="2.56" stroke-linecap="round" stroke-linejoin="round" transform="translate(100.989787, 99.682312) rotate(-330.000000) translate(-100.989787, -99.682312) " xlink:href="#path-39"></use>
                        <use id="square-4-copy" stroke="#CCCCCC" mask="url(#mask-42)" stroke-width="2.56" stroke-linecap="round" stroke-linejoin="round" xlink:href="#path-41"></use>
                        <use id="square-3-copy" stroke="#CCCCCC" mask="url(#mask-44)" stroke-width="2.56" stroke-linecap="round" stroke-linejoin="round" xlink:href="#path-43"></use>
                        <use id="square-2-copy" stroke="#CCCCCC" mask="url(#mask-46)" stroke-width="2.56" stroke-linecap="round" stroke-linejoin="round" xlink:href="#path-45"></use>
                        <use id="square-1-copy" stroke="#CCCCCC" mask="url(#mask-48)" stroke-width="2.56" stroke-linecap="round" stroke-linejoin="round" xlink:href="#path-47"></use>
                        <use id="oval-6-copy" stroke="#DCDCDC" mask="url(#mask-50)" stroke-width="2.56" xlink:href="#path-49"></use>
                        <use id="oval-5-copy" stroke="#DCDCDC" mask="url(#mask-52)" stroke-width="2.56" xlink:href="#path-51"></use>
                        <use id="oval-4-copy" stroke="#DCDCDC" mask="url(#mask-54)" stroke-width="2.56" xlink:href="#path-53"></use>
                        <use id="oval-3-copy" stroke="#DCDCDC" mask="url(#mask-56)" stroke-width="2.56" xlink:href="#path-55"></use>
                        <use id="oval-2-copy" stroke="#DCDCDC" mask="url(#mask-58)" stroke-width="2.56" xlink:href="#path-57"></use>
                        <use id="oval-1-copy" stroke="#DCDCDC" mask="url(#mask-60)" stroke-width="2.56" xlink:href="#path-59"></use>
                        <path d="M4.79613478,11.881366 L1.62557167,11.881366 C1.27210943,11.881366 0.98557167,12.1679037 0.98557167,12.521366 L1.62557167,13.161366 L4.79613478,13.161366 L4.79613478,15.4999343 C4.79613478,15.8533966 5.08267254,16.1399343 5.43613478,16.1399343 C5.78959702,16.1399343 6.07613478,15.8533966 6.07613478,15.4999343 L6.07613478,13.161366 L9.24669789,13.161366 C9.60016013,13.161366 9.88669789,12.8748282 9.88669789,12.521366 C9.88669789,12.1679037 9.60016013,11.881366 9.24669789,11.881366 L6.07613478,11.881366 L6.07613478,9.54279757 C6.07613478,9.18933533 5.78959702,8.90279757 5.43613478,8.90279757 C5.08267254,8.90279757 4.79613478,9.54279757 4.79613478,9.54279757 L4.79613478,11.881366 Z" id="plus-9-copy" fill="#D8D8D8"></path>
                        <path d="M17.0275719,58.1856605 L13.8570088,58.1856605 C13.5035466,58.1856605 13.2170088,58.4721983 13.2170088,58.8256605 L13.8570088,59.4656605 L17.0275719,59.4656605 L17.0275719,61.8042289 C17.0275719,62.1576912 17.3141097,62.4442289 17.6675719,62.4442289 C18.0210342,62.4442289 18.3075719,62.1576912 18.3075719,61.8042289 L18.3075719,59.4656605 L21.478135,59.4656605 C21.8315973,59.4656605 22.118135,59.1791228 22.118135,58.8256605 C22.118135,58.4721983 21.8315973,58.1856605 21.478135,58.1856605 L18.3075719,58.1856605 L18.3075719,55.8470922 C18.3075719,55.4936299 18.0210342,55.2070922 17.6675719,55.2070922 L17.0275719,55.8470922 L17.0275719,58.1856605 Z" id="plus-8-copy" fill="#D8D8D8"></path>
                        <path d="M67.367162,24.0118362 L64.1965989,24.0118362 C63.8431367,24.0118362 63.5565989,24.298374 63.5565989,24.6518362 L64.1965989,25.2918362 L67.367162,25.2918362 L67.367162,27.6304046 C67.367162,27.9838668 67.6536998,28.2704046 68.007162,28.2704046 C68.3606242,28.2704046 68.647162,27.9838668 68.647162,27.6304046 L68.647162,25.2918362 L71.8177251,25.2918362 C72.1711873,25.2918362 72.4577251,25.0052985 72.4577251,24.6518362 C72.4577251,24.298374 72.1711873,24.0118362 71.8177251,24.0118362 L68.647162,24.0118362 L68.647162,21.6732678 C68.647162,21.3198056 68.3606242,21.0332678 68.007162,21.0332678 L67.367162,21.6732678 L67.367162,24.0118362 Z" id="plus-7-copy" fill="#D8D8D8"></path>
                        <path d="M206.203528,106.385083 L203.032965,106.385083 C202.679502,106.385083 202.392965,106.671621 202.392965,107.025083 C202.392965,107.378546 202.679502,107.665083 203.032965,107.665083 L206.203528,107.665083 L206.203528,110.003652 C206.203528,110.357114 206.490066,110.643652 206.843528,110.643652 C207.19699,110.643652 207.483528,110.357114 207.483528,110.003652 L207.483528,107.665083 L210.654091,107.665083 C211.007553,107.665083 211.294091,107.378546 211.294091,107.025083 C211.294091,106.671621 211.007553,106.385083 210.654091,106.385083 L207.483528,106.385083 L207.483528,104.046515 C207.483528,103.693053 207.19699,103.406515 206.843528,103.406515 C206.490066,103.406515 206.203528,103.693053 206.203528,104.046515 L206.203528,106.385083 Z" id="plus-6-copy" fill="#D8D8D8"></path>
                        <path d="M144.987222,112.661301 L141.816659,112.661301 C141.463197,112.661301 141.176659,112.947839 141.176659,113.301301 L141.816659,113.941301 L144.987222,113.941301 L144.987222,116.27987 C144.987222,116.633332 145.27376,116.91987 145.627222,116.91987 C145.980684,116.91987 146.267222,116.633332 146.267222,116.27987 L146.267222,113.941301 L149.437785,113.941301 C149.791247,113.941301 150.077785,113.654763 150.077785,113.301301 C150.077785,112.947839 149.791247,112.661301 149.437785,112.661301 L146.267222,112.661301 L146.267222,110.322733 C146.267222,109.969271 145.980684,109.682733 145.627222,109.682733 L144.987222,110.322733 L144.987222,112.661301 L144.987222,112.661301 Z" id="plus-5-copy" fill="#D8D8D8" transform="translate(145.627222, 113.301301) rotate(28.000000) translate(-145.627222, -113.301301) "></path>
                        <path d="M313.404703,3.71001985 L310.234139,3.71001985 C309.880677,3.71001985 309.594139,3.99655761 309.594139,4.35001985 L310.234139,4.99001985 L313.404703,4.99001985 L313.404703,7.32858823 C313.404703,7.68205047 313.69124,7.96858823 314.044703,7.96858823 C314.398165,7.96858823 314.684703,7.68205047 314.684703,7.32858823 L314.684703,4.99001985 L317.855266,4.99001985 C318.208728,4.99001985 318.495266,4.70348209 318.495266,4.35001985 C318.495266,3.99655761 318.208728,3.71001985 317.855266,3.71001985 L314.684703,3.71001985 L314.684703,1.37145147 C314.684703,1.01798923 314.398165,0.731451466 314.044703,0.731451466 L313.404703,1.37145147 L313.404703,3.71001985 Z" id="plus-4-copy" fill="#D8D8D8"></path>
                        <path d="M160.041298,147.16254 L156.870735,147.16254 C156.517273,147.16254 156.230735,147.449078 156.230735,147.80254 L156.870735,148.44254 L160.041298,148.44254 L160.041298,150.781109 C160.041298,151.134571 160.327836,151.421109 160.681298,151.421109 C161.034761,151.421109 161.321298,151.134571 161.321298,150.781109 L161.321298,148.44254 L164.491862,148.44254 C164.845324,148.44254 165.131862,148.156003 165.131862,147.80254 C165.131862,147.449078 164.845324,147.16254 164.491862,147.16254 L161.321298,147.16254 L161.321298,144.823972 C161.321298,144.47051 161.034761,144.183972 160.681298,144.183972 L160.041298,144.823972 L160.041298,147.16254 L160.041298,147.16254 Z" id="plus-3-copy" fill="#D8D8D8" transform="translate(160.681298, 147.802540) rotate(52.000000) translate(-160.681298, -147.802540) "></path>
                        <path d="M69.7168396,125.372284 L66.5462765,125.372284 C66.1928142,125.372284 65.9062765,125.658822 65.9062765,126.012284 L66.5462765,126.652284 L69.7168396,126.652284 L69.7168396,128.990852 C69.7168396,129.344315 70.0033773,129.630852 70.3568396,129.630852 C70.7103018,129.630852 70.9968396,129.344315 70.9968396,128.990852 L70.9968396,126.652284 L74.1674027,126.652284 C74.5208649,126.652284 74.8074027,126.365746 74.8074027,126.012284 C74.8074027,125.658822 74.5208649,125.372284 74.1674027,125.372284 L70.9968396,125.372284 L70.9968396,123.033716 C70.9968396,122.680253 70.7103018,122.393716 70.3568396,122.393716 L69.7168396,123.033716 L69.7168396,125.372284 Z" id="plus-2-copy" fill="#D8D8D8"></path>
                        <path d="M262.597194,130.819848 L259.426631,130.819848 C259.073169,130.819848 258.786631,131.106386 258.786631,131.459848 L259.426631,132.099848 L262.597194,132.099848 L262.597194,134.438417 C262.597194,134.791879 262.883732,135.078417 263.237194,135.078417 C263.590657,135.078417 263.877194,134.791879 263.877194,134.438417 L263.877194,132.099848 L267.047758,132.099848 C267.40122,132.099848 267.687758,131.81331 267.687758,131.459848 C267.687758,131.106386 267.40122,130.819848 267.047758,130.819848 L263.877194,130.819848 L263.877194,128.48128 C263.877194,128.127818 263.590657,127.84128 263.237194,127.84128 L262.597194,128.48128 L262.597194,130.819848 Z" id="plus-1-copy" fill="#D8D8D8"></path>
                    </g>
                </g>
            </g>
        </g>
    </g>
</svg>