<?xml version="1.0" encoding="UTF-8" standalone="no"?>
<svg width="16px" height="20px" viewBox="0 0 16 20" version="1.1" xmlns="http://www.w3.org/2000/svg" xmlns:xlink="http://www.w3.org/1999/xlink">
    <!-- Generator: Sketch 40.3 (33839) - http://www.bohemiancoding.com/sketch -->
    <title>Combined Shape</title>
    <desc>Created with Sketch.</desc>
    <defs></defs>
    <g id="Builder" stroke="none" stroke-width="1" fill="none" fill-rule="evenodd" opacity="0.769999981">
        <g id="Preview-Desktop-Copy" transform="translate(-700.000000, -17.000000)" fill="#333333">
            <g id="modal-xlarge" transform="translate(-23.000000, 0.000000)">
                <g id="header" transform="translate(23.000000, 0.000000)">
                    <g id="utility-header">
                        <g id="Group-6" transform="translate(603.000000, 17.000000)">
                            <path d="M97,1.99079514 C97,0.891309342 97.8945138,0 98.9940603,0 L111.00594,0 C112.107229,0 113,0.898212381 113,1.99079514 L113,18.0092049 C113,19.1086907 112.105486,20 111.00594,20 L98.9940603,20 C97.8927712,20 97,19.1017876 97,18.0092049 L97,1.99079514 Z M99,2 L111,2 L111,16 L99,16 L99,2 Z M105,19 C105.552285,19 106,18.5522847 106,18 C106,17.4477153 105.552285,17 105,17 C104.447715,17 104,17.4477153 104,18 C104,18.5522847 104.447715,19 105,19 Z" id="Combined-Shape"></path>
                        </g>
                    </g>
                </g>
            </g>
        </g>
    </g>
</svg>