<?xml version="1.0" encoding="UTF-8" standalone="no"?>
<svg width="20px" height="20px" viewBox="0 0 20 20" version="1.1" xmlns="http://www.w3.org/2000/svg" xmlns:xlink="http://www.w3.org/1999/xlink">
    <!-- Generator: Sketch 42 (36781) - http://www.bohemiancoding.com/sketch -->
    <title>Help</title>
    <desc>Created with Sketch.</desc>
    <defs>
        <path d="M10,20 C15.5228475,20 20,15.5228475 20,10 C20,4.4771525 15.5228475,0 10,0 C4.4771525,0 -8.8817842e-14,4.4771525 -8.8817842e-14,10 C-8.88265156e-14,11.3401603 0.26362665,12.6187474 0.741850191,13.7867314 C0.741850191,13.7867314 1.84192071e-12,20 1.84192071e-12,20 C1.84192071e-12,20 6.28599277,19.2875914 6.28599277,19.2875914 C7.43424932,19.747182 8.68760025,20 10,20 Z" id="path-1"></path>
        <mask id="mask-2" maskContentUnits="userSpaceOnUse" maskUnits="objectBoundingBox" x="0" y="0" width="20" height="20" fill="white">
            <use xlink:href="#path-1"></use>
        </mask>
    </defs>
    <g id="Symbols" stroke="none" stroke-width="1" fill="none" fill-rule="evenodd">
        <g id="Header_Progress" transform="translate(-1435.000000, -16.000000)">
            <g id="Group-5" transform="translate(1435.000000, 16.000000)">
                <g id="Help">
                    <use id="Oval-2" stroke="#FFFFFF" mask="url(#mask-2)" stroke-width="4" xlink:href="#path-1"></use>
                    <path d="M9.20617864,13.2531901 L11.0073875,13.2531901 L11.0073875,15 L9.20617864,15 L9.20617864,13.2531901 Z M8.20282069,6.4593687 C8.67830997,6.15312137 9.26258888,6 9.95567495,6 C10.8663578,6 11.6228983,6.21759353 12.225319,6.65278711 C12.8277397,7.08798069 13.1289456,7.73270224 13.1289456,8.58697112 C13.1289456,9.11081525 12.9979865,9.55204656 12.7360645,9.91067831 C12.5829408,10.1282751 12.2887866,10.4063113 11.853593,10.7447952 L11.4244459,11.077233 C11.1907309,11.2585637 11.0355947,11.470113 10.9590329,11.7118872 C10.9106781,11.8650108 10.8844863,12.1027519 10.8804567,12.4251175 L9.24848892,12.4251175 C9.27266634,11.7441202 9.3371385,11.2736749 9.44190732,11.0137676 C9.54667615,10.7538604 9.8166533,10.4546693 10.2518469,10.1161854 L10.6930826,9.77165883 C10.8381471,9.66286044 10.9550029,9.5439899 11.0436535,9.41504365 C11.2048363,9.19341729 11.2854265,8.94963195 11.2854265,8.68368032 C11.2854265,8.37743299 11.1957699,8.09838944 11.016454,7.8465413 C10.8371381,7.59469317 10.5097405,7.46877099 10.0342512,7.46877099 C9.56682103,7.46877099 9.23539386,7.62390711 9.0399597,7.93418402 C8.84452555,8.24446092 8.74680994,8.5668217 8.74680994,8.90127602 L7,8.90127602 C7.04835484,7.75284852 7.44929106,6.93888756 8.20282069,6.4593687 Z" id="?" fill="#FFFFFF"></path>
                </g>
            </g>
        </g>
    </g>
</svg>