<?xml version="1.0" encoding="UTF-8"?>
<svg width="32px" height="34px" viewBox="0 0 32 34" version="1.1" xmlns="http://www.w3.org/2000/svg" xmlns:xlink="http://www.w3.org/1999/xlink">
    <!-- Generator: Sketch 50.2 (55047) - http://www.bohemiancoding.com/sketch -->
    <title>Shape</title>
    <desc>Created with Sketch.</desc>
    <defs>
        <path d="M26.4577416,20.4577416 C28.4140769,22.4140769 27.7625407,24 25,24 L3,24 C0.238576251,24 -0.423570633,22.4235706 1.54225835,20.4577416 L4,18 L4,10.004 C4.00330721,4.48187535 8.47787711,0.00551561868 14,0 C19.522,0 24,4.458 24,10.004 L24,18 L26.4577416,20.4577416 Z M18,24 L18,25.99 C18,28.199139 16.209139,29.99 14,29.99 C11.790861,29.99 10,28.199139 10,25.99 L10,24 L18,24 Z" id="path-1"></path>
    </defs>
    <g id="Page-1" stroke="none" stroke-width="1" fill="none" fill-rule="evenodd">
        <g id="DISCARD---Nav-8-Copy-11" transform="translate(-688.000000, -65.000000)">
            <g id="icon-#7/notification" transform="translate(690.000000, 67.000000)">
                <mask id="mask-2" fill="white">
                    <use xlink:href="#path-1"></use>
                </mask>
                <use id="Shape" stroke="#333333" stroke-width="3" fill-rule="nonzero" xlink:href="#path-1"></use>
            </g>
        </g>
    </g>
</svg>