<?xml version="1.0" encoding="UTF-8"?>
<svg width="32px" height="32px" viewBox="0 0 32 32" version="1.1" xmlns="http://www.w3.org/2000/svg" xmlns:xlink="http://www.w3.org/1999/xlink">
    <!-- Generator: Sketch 50.2 (55047) - http://www.bohemiancoding.com/sketch -->
    <title>search</title>
    <desc>Created with Sketch.</desc>
    <defs>
        <path d="M23.4904022,20.6632003 L32,29.1727981 L29.1727981,32 L20.6632003,23.4904022 C15.1814931,27.4952788 7.54086646,26.6063084 3.12505757,21.4498773 C-1.29075131,16.2934462 -0.993838019,8.60701091 3.80658644,3.80658644 C8.60701091,-0.993838019 16.2934462,-1.29075131 21.4498773,3.12505757 C26.6063084,7.54086646 27.4952788,15.1814931 23.4904022,20.6632003 L23.4904022,20.6632003 Z M12.9953649,21.992825 C16.2098479,21.992825 19.1801526,20.2779189 20.787394,17.494095 C22.3946355,14.7102712 22.3946355,11.2804587 20.787394,8.49663489 C19.1801526,5.71281104 16.2098479,3.99790486 12.9953649,3.9979049 C8.02620498,3.9979049 3.9979049,8.02620498 3.9979049,12.9953649 C3.9979049,17.9645249 8.02620498,21.992825 12.9953649,21.992825 L12.9953649,21.992825 Z" id="path-1"></path>
    </defs>
    <g id="Page-1" stroke="none" stroke-width="1" fill="none" fill-rule="evenodd">
        <g id="DISCARD---Nav-8-Copy-11" transform="translate(-610.000000, -66.000000)">
            <g id="search" transform="translate(610.000000, 66.000000)">
                <mask id="mask-2" fill="white">
                    <use xlink:href="#path-1"></use>
                </mask>
                <use id="Shape" fill="#333333" fill-rule="nonzero" xlink:href="#path-1"></use>
            </g>
        </g>
    </g>
</svg>