<svg width="56" height="23" viewBox="0 0 56 23" fill="none" xmlns="http://www.w3.org/2000/svg">
<mask id="mask0_2551_1488" style="mask-type:alpha" maskUnits="userSpaceOnUse" x="0" y="0" width="56" height="23">
<path fill-rule="evenodd" clip-rule="evenodd" d="M56 22.3428H0V0.351562L56 0.351563V22.3428Z" fill="white"/>
</mask>
<g mask="url(#mask0_2551_1488)">
<path fill-rule="evenodd" clip-rule="evenodd" d="M15.5121 12.784V9.09341H14.7323V10.5974H13.1167V9.09341H12.3382V12.7818H13.1167V11.2183H14.7323V12.784H15.5121ZM18.5866 9.70094V9.09341H16.1043V12.784H18.6576V12.1756H16.8925V11.2181H18.4425V10.5976H16.8925V9.70094H18.5866ZM10.791 12.784V9.70094H11.9225V9.09341H8.87687V9.70094H10.0092V12.784H10.791ZM10.6716 22.3429C4.78658 22.3429 0 17.4091 0 11.366C0 5.28565 4.78658 0.351562 10.6716 0.351562H19.4173V6.1988H10.6716C8.07755 6.1988 5.96722 8.51739 5.96722 11.366C5.96722 14.1945 8.07755 16.496 10.6716 16.496H19.4026C21.9004 16.4233 23.9391 14.155 23.981 11.4203V0.354808H29.9497V13.3819C29.9497 15.2909 31.509 16.8544 33.4584 16.8544C35.4096 16.8544 37.0045 15.2909 37.0045 13.3819V0.354808H42.9738V13.3819C42.9738 15.2909 44.5699 16.8544 46.5212 16.8544C48.4716 16.8544 50.0292 15.2909 50.0292 13.3819V0.354808H56V13.3819C56 18.3123 51.8867 22.3429 46.8539 22.3429C44.1246 22.3429 41.6684 21.1586 39.9897 19.2868C38.3106 21.1586 35.8556 22.3429 33.1277 22.3429C30.4116 22.3429 27.966 21.1718 26.2866 19.3133C24.4423 21.1236 21.9708 22.2647 19.2481 22.3429H10.6716Z" fill="white"/>
</g>
</svg>
