<svg width="59" height="15" viewBox="0 0 59 15" fill="none" xmlns="http://www.w3.org/2000/svg">
<path fill-rule="evenodd" clip-rule="evenodd" d="M1.29639 4.14314H13.8526L14.3172 0.0289599L1.81004 0.0258789L1.29639 4.14314Z" fill="white"/>
<path fill-rule="evenodd" clip-rule="evenodd" d="M18.6508 0.0749842C20.9822 0.0749842 39.6787 0.0521333 41.0758 0.0753693C42.493 0.0983485 43.609 1.23755 43.6441 2.70771C43.661 3.40274 43.5153 4.15283 43.5153 4.15283L14.8629 4.14308C14.8629 4.14308 14.9683 3.43496 15.0601 2.80605C15.2267 1.65734 16.7599 0.0719032 18.6508 0.0749842Z" fill="white"/>
<path fill-rule="evenodd" clip-rule="evenodd" d="M45.0703 0.0098058C45.0703 0.0098058 53.094 -0.00726815 55.6859 0.00364377C57.3607 0.0105761 59.0399 0.799059 58.7865 3.51035C58.7115 4.3145 58.7336 4.1548 58.7336 4.1548L44.5811 4.14311L45.0703 0.0098058Z" fill="white"/>
<path fill-rule="evenodd" clip-rule="evenodd" d="M13.7865 14.6654L14.2513 10.7942L23.4894 10.7857L23.6607 9.07011C23.6607 9.07011 17.8529 9.08423 16.9174 9.04892C15.5965 8.99976 14.3078 8.05453 14.6671 5.7109C17.1267 5.68625 24.5815 5.68921 25.4147 5.69691C27.0993 5.71077 28.5188 6.6311 28.4062 8.96112C28.3559 9.99967 28.0984 12.0326 27.6476 12.82C26.4368 14.9222 24.6159 14.6398 24.2723 14.6654C23.9933 14.6778 13.7865 14.6654 13.7865 14.6654Z" fill="white"/>
<path fill-rule="evenodd" clip-rule="evenodd" d="M43.3263 5.7666C43.3263 5.7666 43.1903 6.53981 43.0922 7.04124C42.8874 8.07916 42.2546 9.05417 40.7824 9.05571H34.2346L33.4463 14.6651L28.7068 14.6653L29.8319 5.7666H43.3263Z" fill="white"/>
<path fill-rule="evenodd" clip-rule="evenodd" d="M44.3611 5.7666L49.2479 5.76853L47.9809 14.6376L43.1495 14.6408L44.3611 5.7666Z" fill="white"/>
<path fill-rule="evenodd" clip-rule="evenodd" d="M53.7373 5.7666L58.4825 5.76853L57.3573 14.6642L52.6122 14.6653L53.7373 5.7666Z" fill="white"/>
<mask id="mask0_2551_1588" style="mask-type:alpha" maskUnits="userSpaceOnUse" x="0" y="5" width="14" height="10">
<path fill-rule="evenodd" clip-rule="evenodd" d="M0 14.6901H13.6633V5.71094H0V14.6901H0Z" fill="white"/>
</mask>
<g mask="url(#mask0_2551_1588)">
<path fill-rule="evenodd" clip-rule="evenodd" d="M1.07626 5.71107L13.6633 5.71094L13.2166 9.11405L5.42986 9.12149L5.20991 10.786L12.9964 10.7944L12.5317 14.6902H0L1.07626 5.71107Z" fill="white"/>
</g>
</svg>
