<?xml version="1.0" encoding="utf-8"?>
<!-- Generator: Adobe Illustrator 17.1.0, SVG Export Plug-In . SVG Version: 6.00 Build 0)  -->
<!DOCTYPE svg PUBLIC "-//W3C//DTD SVG 1.1//EN" "http://www.w3.org/Graphics/SVG/1.1/DTD/svg11.dtd">
<svg version="1.1" id="Layer_1" xmlns="http://www.w3.org/2000/svg" xmlns:xlink="http://www.w3.org/1999/xlink" x="0px" y="0px"
	 width="142px" height="160px" viewBox="0 0 142 160" enable-background="new 0 0 142 160" xml:space="preserve">
<g>
	<g>
		<path fill="#333333" d="M30,41.4V20h3.8v21.3H30z"/>
		<path fill="#333333" d="M53.1,31.8v9.6h-3.8v-9.9c0-1.4-0.3-2.9-3.8-2.9c-1.1,0-2.1,0.1-3,0.3v12.5h-3.8V26.9
			c0.1-0.1,3.3-1.8,7.3-1.8C50.5,25.2,53.1,27.6,53.1,31.8z"/>
		<path fill="#333333" d="M58.1,23.2v-3.5H62v3.5H58.1z M58.1,41.4v-16H62v16H58.1z"/>
		<path fill="#333333" d="M72,28.7v7.9c0,1.4,0.5,1.8,2,1.8c0.7,0,1.3-0.1,1.8-0.4v3.2c-0.8,0.3-1.6,0.5-2.5,0.5
			c-3.2,0-5.1-2-5.1-5.3v-7.6h-2.7v-3.3h2.7v-4.7H72v4.7h3.8v3.3H72z"/>
		<path fill="#333333" d="M79.7,23.2v-3.5h3.9v3.5H79.7z M79.8,41.4v-16h3.8v16H79.8z"/>
		<path fill="#333333" d="M101.2,31.9v4.3c0,2.6-1.8,5.4-6.7,5.4c-5.1,0-6.8-2.8-6.8-5.5c0-1.2,0.5-5,6.9-5c1,0,2,0.1,2.8,0.2
			c0-1.7-0.9-3-3.4-3c-1.9,0-3.5,0.3-4.7,0.8v-3.1c1.3-0.5,3-0.9,4.9-0.9C98.7,25.2,101.2,27.6,101.2,31.9z M97.4,33.8
			c-0.7-0.1-1.4-0.2-2.3-0.2c-2.6,0-3.6,0.8-3.6,2.1c0,1.7,1,2.6,3,2.6c2.1,0,2.9-1,2.9-2.4V33.8z"/>
		<path fill="#333333" d="M105.7,41.4v-22h3.8v22H105.7z"/>
	</g>
</g>
<g>
	<rect x="24" y="125" fill="#333333" width="92" height="4"/>
	<g>
		<polygon fill="#333333" points="79,94 79,57.4 61,57.4 61,94 49,94 70,118 91,94 		"/>
	</g>
</g>
</svg>
