<?xml version="1.0" encoding="UTF-8" standalone="no"?>
<svg width="19px" height="20px" viewBox="0 0 19 20" version="1.1" xmlns="http://www.w3.org/2000/svg" xmlns:xlink="http://www.w3.org/1999/xlink">
    <!-- Generator: Sketch 42 (36781) - http://www.bohemiancoding.com/sketch -->
    <title>Page 1 Copy</title>
    <desc>Created with Sketch.</desc>
    <defs>
        <polygon id="path-1" points="0 19.0909091 18.9936364 19.0909091 18.9936364 0.0972727273 0 0.0972727273"></polygon>
    </defs>
    <g id="Symbols" stroke="none" stroke-width="1" fill="none" fill-rule="evenodd">
        <g id="Header_Progress_Prepare" transform="translate(-563.000000, -12.000000)">
            <g id="Header">
                <g id="progerss" transform="translate(563.000000, 12.000000)">
                    <g id="Group-2">
                        <g id="Page-1-Copy">
                            <g id="Group-3" transform="translate(0.000000, 0.811818)">
                                <mask id="mask-2" fill="white">
                                    <use xlink:href="#path-1"></use>
                                </mask>
                                <g id="Clip-2"></g>
                                <path d="M18.9936364,9.59409091 C18.9936364,14.8386364 14.7418182,19.0913636 9.49636364,19.0913636 C4.25181818,19.0913636 0,14.8386364 0,9.59409091 C0,4.34954545 4.25181818,0.0968181818 9.49636364,0.0968181818 C14.7418182,0.0968181818 18.9936364,4.34954545 18.9936364,9.59409091" id="Fill-1" fill="#6CC8C4" mask="url(#mask-2)"></path>
                            </g>
                            <path d="M13.1014545,6.78381818 L8.89418182,11.8410909 C8.65054545,12.1338182 8.216,12.1738182 7.92327273,11.9301818 L6.37690909,10.6438182 C6.08418182,10.4001818 5.64963636,10.4401818 5.406,10.7329091 L4.80509091,11.4547273 C4.56236364,11.7474545 4.60145455,12.1829091 4.89418182,12.4256364 L6.97054545,14.1529091 L8.22327273,15.1947273 C8.516,15.4383636 8.95054545,15.3983636 9.19418182,15.1056364 L10.236,13.8538182 L14.8832727,8.26654545 C15.1269091,7.97381818 15.0869091,7.53927273 14.7941818,7.29563636 L14.0723636,6.69472727 C13.7796364,6.45109091 13.3450909,6.49109091 13.1014545,6.78381818" id="Fill-4" fill="#FEFEFE"></path>
                        </g>
                    </g>
                </g>
            </g>
        </g>
    </g>
</svg>