<svg width="20" height="20" viewBox="0 0 20 20" fill="none" xmlns="http://www.w3.org/2000/svg">
<path d="M9.99984 18.3333C5.40844 18.3333 1.6665 14.5914 1.6665 9.99996C1.6665 5.40856 5.40844 1.66663 9.99984 1.66663C14.5912 1.66663 18.3332 5.40856 18.3332 9.99996C18.3332 14.5914 14.5912 18.3333 9.99984 18.3333ZM9.99984 3.27953C6.29016 3.27953 3.27941 6.29028 3.27941 9.99996C3.27941 13.7096 6.29016 16.7204 9.99984 16.7204C13.7095 16.7204 16.7203 13.7096 16.7203 9.99996C16.7203 6.29028 13.7095 3.27953 9.99984 3.27953Z" fill="#2666B4"/>
<path d="M9.07513 11.7634C9.04287 11.7311 9.03212 11.6989 9.03212 11.6559V11.129C9.03212 10.7204 9.13965 10.3871 9.34395 10.129C9.54825 9.87093 9.84933 9.60211 10.2472 9.32254C10.5913 9.07523 10.8493 8.84942 11.0214 8.64512C11.1934 8.44082 11.2794 8.19351 11.2794 7.89243C11.2794 7.5591 11.1612 7.29028 10.9353 7.08598C10.6988 6.88168 10.387 6.78491 10.0106 6.78491C9.61277 6.78491 9.30094 6.89243 9.05363 7.10749C8.81707 7.32254 8.68804 7.60211 8.68804 7.93544V8.20426C8.68804 8.30103 8.63427 8.34405 8.5375 8.34405L7.3547 8.29028C7.31169 8.29028 7.27943 8.26878 7.24718 8.23652C7.21492 8.20426 7.20416 8.16125 7.20416 8.11824V7.92469C7.20416 7.43007 7.32244 6.99996 7.56976 6.61286C7.80631 6.22577 8.1504 5.93544 8.58051 5.72039C9.01062 5.50534 9.50524 5.40856 10.0644 5.40856C10.9031 5.40856 11.5698 5.63437 12.0644 6.07523C12.559 6.51609 12.8171 7.10749 12.8171 7.83867C12.8171 8.21501 12.7526 8.54835 12.6128 8.81716C12.4622 9.09673 12.3117 9.32254 12.1396 9.49458C11.9569 9.66663 11.7203 9.86017 11.4192 10.0752C11.1181 10.2903 10.8923 10.4731 10.7526 10.6344C10.602 10.7957 10.5375 10.9892 10.5375 11.2258V11.6666C10.5375 11.7096 10.5267 11.7419 10.4945 11.7742C10.4515 11.7957 10.4192 11.8172 10.3762 11.8172H9.19341C9.13965 11.8172 9.10739 11.7957 9.07513 11.7634ZM9.08589 14.3333C8.91384 14.1612 8.82782 13.9462 8.82782 13.6774C8.82782 13.4086 8.91384 13.1935 9.08589 13.0215C9.25793 12.8494 9.47298 12.7742 9.7418 12.7742C10.0106 12.7742 10.2257 12.8602 10.3977 13.0215C10.5698 13.1935 10.645 13.4086 10.645 13.6774C10.645 13.9462 10.559 14.1612 10.387 14.3333C10.2149 14.5053 9.99986 14.5914 9.7418 14.5914C9.47298 14.5914 9.25793 14.5053 9.08589 14.3333Z" fill="#2666B4"/>
</svg>
