<svg xmlns="http://www.w3.org/2000/svg" width="75" height="75" viewBox="0 0 75 75" xmlns:xlink="http://www.w3.org/1999/xlink">
  <defs>
    <circle id="a" cx="37.5" cy="37.5" r="37.5"/>
    <mask id="c" width="75" height="75" x="0" y="0" fill="white">
      <use xlink:href="#a"/>
    </mask>
    <path id="b" d="M0,12.0805839 L12.1256902,0 L34.1993036,0 C34.641516,0 35,0.358865084 35,0.797448888 L35,31 L28.1332321,42 L0.796655199,42 C0.356674682,42 0,41.6431477 0,41.1997279 L0,12.0805839 Z"/>
    <mask id="d" width="35" height="42" x="0" y="0" fill="white">
      <use xlink:href="#b"/>
    </mask>
  </defs>
  <g fill="none" fill-rule="evenodd">
    <use stroke="#4A90E2" stroke-width="3.2" mask="url(#c)" xlink:href="#a"/>
    <g transform="translate(15 14)">
      <path stroke="#4990E2" stroke-width="1.6" d="M17.6195652 10.5978261L27.6694405 10.5978261M7.83695652 17.1195652L27.8868318 17.1195652M7.83695652 24.4565217L27.8868318 24.4565217M7.33695652 31.7934783L27.3868318 31.7934783" stroke-linecap="round"/>
      <use stroke="#4990E2" stroke-width="3.2" mask="url(#d)" xlink:href="#b"/>
      <path fill="#4990E2" d="M12.4347452,0.596781685 C12.7463349,0.284413458 12.9989283,0.391584829 12.9989283,0.822923847 L12.9989279,12.2082651 C12.9989279,12.6455282 12.6394303,13 12.1896926,13 L0.871674298,12.9999999 C0.424745972,12.9999999 0.309310929,12.7525111 0.626622086,12.4344072 L12.4347452,0.596781685 Z"/>
    </g>
    <g transform="translate(33 38)">
      <polygon fill="#F9F9F9" points="1 14 8 23 23 10 16 1 10 5 4 11"/>
      <path fill="#4990E2" d="M18.5941176,1.04 L25.4176471,9.88 C25.7588235,10.2266667 25.5882353,10.92 25.2470588,11.0933333 C23.7117647,12.1333333 20.3,14.56 17.7411765,17.5066667 C14.1588235,21.6666667 10.7470588,23.5733333 10.5764706,23.7466667 C10.5764706,23.7466667 11.4294118,24.7866667 12.6235294,24.0933333 C12.6235294,24.0933333 15.8647059,22.0133333 18.9352941,18.5466667 C22.0058824,14.9066667 26.9529412,11.96 26.9529412,11.96 C27.4647059,11.44 27.6352941,10.5733333 27.1235294,10.0533333 L20.6411765,1.73333333 C19.7882353,0.346666667 18.5941176,1.04 18.5941176,1.04 L18.5941176,1.04 Z"/>
      <path fill="#4990E2" d="M22.8588235,9.18666667 L16.5470588,0.693333333 C16.2058824,0.173333333 15.5235294,-3.3223424e-14 15.0117647,0.346666667 C14.1588235,0.693333333 11.0882353,2.77333333 7.50588235,6.41333333 C4.09411765,10.0533333 0.341176471,12.6533333 0.341176471,12.6533333 C7.89614901e-13,13.1733333 -0.170588235,14.04 0.341176471,14.56 L6.82352941,23.0533333 C7.16470588,23.5733333 7.84705882,23.7466667 8.52941176,23.4 C8.52941176,23.4 12.7941176,20.6266667 16.0352941,17.16 C19.1058824,13.52 23.2,11.0933333 23.2,10.92 C23.2,10.7466667 23.3705882,9.88 22.8588235,9.18666667 L22.8588235,9.18666667 Z M15.5235294,1.56 L17.0588235,3.64 C15.8647059,4.16 14.5,3.98666667 13.6470588,2.94666667 C14.8411765,2.08 15.5235294,1.56 15.5235294,1.56 L15.5235294,1.56 Z M3.24117647,12.48 C3.92352941,13.52 3.75294118,14.9066667 2.72941176,15.7733333 L1.36470588,13.6933333 C1.70588235,13.52 2.38823529,13 3.24117647,12.48 L3.24117647,12.48 Z M7.67647059,22.1866667 L6.14117647,20.1066667 C7.33529412,19.4133333 8.7,19.5866667 9.55294118,20.8 C8.52941176,21.6666667 7.67647059,22.1866667 7.67647059,22.1866667 L7.67647059,22.1866667 Z M14.6705882,16.4666667 C13.3058824,18.0266667 11.9411765,19.24 10.7470588,20.1066667 C9.38235294,18.3733333 6.99411765,18.0266667 5.28823529,19.24 L3.58235294,16.8133333 C5.11764706,15.4266667 5.28823529,13.1733333 4.26470588,11.44 C5.45882353,10.4 6.99411765,9.01333333 8.52941176,7.28 C9.89411765,5.72 11.2588235,4.50666667 12.4529412,3.64 C13.8176471,5.37333333 16.2058824,5.72 17.9117647,4.50666667 L19.6176471,6.76 C18.0823529,8.14666667 17.9117647,10.4 18.9352941,12.1333333 C17.7411765,13.3466667 16.2058824,14.9066667 14.6705882,16.4666667 L14.6705882,16.4666667 Z M20.1294118,11.44 C19.4470588,10.4 19.6176471,8.84 20.4705882,7.97333333 L22.0058824,10.0533333 C22.0058824,10.0533333 21.3235294,10.5733333 20.1294118,11.44 L20.1294118,11.44 Z"/>
      <path fill="#4990E2" d="M13.6470588,10.7466667 C14.6705882,12.1333333 15.0117647,13.8666667 14.1588235,14.56 C13.3058824,15.2533333 11.6,14.56 10.5764706,13.1733333 C9.55294118,11.7866667 9.04117647,9.88 10.0647059,9.18666667 C11.0882353,8.49333333 12.4529412,9.18666667 13.6470588,10.7466667 L13.6470588,10.7466667 Z"/>
    </g>
  </g>
</svg>
