<svg width="42" height="42" viewBox="0 0 42 42" fill="none" xmlns="http://www.w3.org/2000/svg">
<path d="M17.5 34.9996H24.5C24.5 36.9246 22.925 38.4996 21 38.4996C19.075 38.4996 17.5 36.9246 17.5 34.9996ZM35 30.3621V33.2496H7V30.3621L10.5 27.0721V18.0596C10.5 12.9496 13.23 8.92461 17.5 7.59461V6.92961C17.5 4.44461 20.1075 2.55461 22.7325 3.84961C23.87 4.40961 24.5 5.65211 24.5 6.92961V7.61211C28.77 8.92461 31.5 12.9671 31.5 18.0771V27.0896L35 30.3621ZM33.25 31.0971L29.75 27.8071V18.2346C29.75 13.9121 27.6675 10.6046 24.2725 9.30961C22.0675 8.38211 19.6525 8.43461 17.5525 9.36211C14.2625 10.6921 12.25 13.9821 12.25 18.2346V27.8071L8.75 31.0971V31.4996H33.25V31.0971Z" fill="#0F0F0F"/>
</svg>
