<svg width="24" height="24" viewBox="0 0 24 24" fill="none" xmlns="http://www.w3.org/2000/svg">
<path d="M11.66 9C13.31 9 14.66 10.35 14.66 12C14.66 13.65 13.31 15 11.66 15C10.01 15 8.66 13.65 8.66 12C8.66 10.35 10.01 9 11.66 9ZM11.66 8C9.45 8 7.66 9.79 7.66 12C7.66 14.21 9.45 16 11.66 16C13.87 16 15.66 14.21 15.66 12C15.66 9.79 13.87 8 11.66 8ZM12.88 3L13.43 5.2L13.56 5.71L14.06 5.89C14.67 6.12 15.25 6.45 15.78 6.87L16.18 7.19L16.68 7.05L18.85 6.43L20.07 8.54L18.44 10.13L18.07 10.49L18.15 11C18.2 11.32 18.23 11.64 18.23 11.98C18.23 12.32 18.2 12.64 18.15 12.96L18.07 13.47L18.44 13.83L20.07 15.42L18.85 17.53L16.68 16.91L16.18 16.77L15.78 17.09C15.25 17.52 14.67 17.85 14.06 18.07L13.56 18.25L13.43 18.76L12.88 21H10.44L9.89 18.8L9.76 18.29L9.26 18.11C8.66 17.88 8.08 17.55 7.54 17.12L7.14 16.8L6.64 16.94L4.47 17.56L3.26 15.44L4.89 13.85L5.26 13.49L5.18 12.98C5.13 12.66 5.1 12.33 5.1 12C5.1 11.67 5.13 11.34 5.18 11.02L5.26 10.51L4.89 10.15L3.26 8.56L4.48 6.45L6.65 7.07L7.15 7.21L7.55 6.89C8.08 6.45 8.66 6.12 9.27 5.9L9.77 5.72L9.9 5.21L10.44 3H12.88ZM13.66 2H9.66L8.92 4.96C8.19 5.23 7.52 5.62 6.92 6.1L4 5.27L2 8.73L4.19 10.86C4.13 11.23 4.1 11.61 4.1 12C4.1 12.39 4.13 12.77 4.19 13.14L2 15.27L4 18.73L6.92 17.9C7.52 18.38 8.19 18.77 8.92 19.04L9.66 22H13.66L14.4 19.04C15.13 18.77 15.8 18.38 16.4 17.9L19.32 18.73L21.32 15.27L19.13 13.14C19.19 12.77 19.22 12.39 19.22 12C19.22 11.61 19.19 11.23 19.13 10.86L21.32 8.73L19.32 5.27L16.4 6.1C15.8 5.62 15.13 5.23 14.4 4.96L13.66 2Z" fill="#AAAAAA"/>
</svg>
