<svg width="48" height="48" viewBox="0 0 48 48" fill="none" xmlns="http://www.w3.org/2000/svg">
<path fill-rule="evenodd" clip-rule="evenodd" d="M8.43994 6.44C12.4199 2.46 17.9199 0 23.9999 0C30.0799 0 35.5799 2.46 39.5399 6.46L36.7199 9.28C33.4799 6.02 28.9799 4 23.9999 4C19.0199 4 14.5199 6.02 11.2599 9.26L8.43994 6.44ZM14.0999 12.1L16.9199 14.92C18.7399 13.12 21.2399 12 23.9999 12C26.7599 12 29.2599 13.12 31.0799 14.92L33.8999 12.1C31.3599 9.56 27.8599 8 23.9999 8C20.1399 8 16.6399 9.56 14.0999 12.1ZM17.9999 18C16.8999 18 15.9999 18.9 15.9999 20V44C15.9999 45.1 16.8999 46 17.9999 46H29.9999C31.0999 46 31.9999 45.1 31.9999 44V20C31.9999 18.9 31.0999 18 29.9999 18H17.9999ZM27.9999 22V42H19.9999V22H27.9999ZM25.9999 26C25.9999 27.1046 25.1045 28 23.9999 28C22.8954 28 21.9999 27.1046 21.9999 26C21.9999 24.8954 22.8954 24 23.9999 24C25.1045 24 25.9999 24.8954 25.9999 26Z" fill="#E9E9E9"/>
</svg>
