<svg width="24" height="24" viewBox="0 0 24 24" fill="none" xmlns="http://www.w3.org/2000/svg">
<path d="M10 14.95V9.05L15 12L10 14.95ZM12 3C16.96 3 21 7.04 21 12C21 16.96 16.96 21 12 21C7.04 21 3 16.96 3 12C3 7.04 7.04 3 12 3ZM12 2C6.48 2 2 6.48 2 12C2 17.52 6.48 22 12 22C17.52 22 22 17.52 22 12C22 6.48 17.52 2 12 2ZM12 7C14.76 7 17 9.24 17 12C17 14.76 14.76 17 12 17C9.24 17 7 14.76 7 12C7 9.24 9.24 7 12 7ZM12 6C8.69 6 6 8.69 6 12C6 15.31 8.69 18 12 18C15.31 18 18 15.31 18 12C18 8.69 15.31 6 12 6Z" fill="#AAAAAA"/>
</svg>
