<?xml version="1.0" encoding="UTF-8" standalone="no"?>
<svg width="30px" height="30px" viewBox="0 0 30 30" version="1.1" xmlns="http://www.w3.org/2000/svg" xmlns:xlink="http://www.w3.org/1999/xlink">
    <!-- Generator: Sketch 42 (36781) - http://www.bohemiancoding.com/sketch -->
    <title>Page 1</title>
    <desc>Created with Sketch.</desc>
    <defs></defs>
    <g id="Version-4" stroke="none" stroke-width="1" fill="none" fill-rule="evenodd">
        <g id="1.4-add-documents-progress" transform="translate(-617.000000, -370.000000)" fill="#999999">
            <g id="Group-8" transform="translate(275.000000, 345.000000)">
                <g id="Group-5" transform="translate(342.000000, 25.000000)">
                    <path d="M20.920141,13.8146249 L16.1834508,13.8146249 L16.1834508,9.07793466 L13.8146246,9.07793466 L13.8146246,13.8146249 L9.07793341,13.8146249 L9.07793341,16.1834511 L13.8146246,16.1834511 L13.8146246,20.9201423 L16.1834508,20.9201423 L16.1834508,16.1834511 L20.920141,16.1834511 L20.920141,13.8146249 Z M14.9990377,29.9980767 C6.72835128,29.9980767 0,23.2697254 0,14.999038 C0,6.72835157 6.72835128,0 14.9990377,0 C23.2697241,0 30,6.72835157 30,14.999038 C30,23.2697254 23.268762,29.9980767 14.9990377,29.9980767 Z M14.9990377,2.36882619 C8.03592025,2.36882619 2.3688259,8.03592054 2.3688259,14.999038 C2.3688259,21.9621554 8.03592025,27.6292488 14.9990377,27.6292488 C21.9640795,27.6292488 27.632136,21.9621554 27.632136,14.999038 C27.632136,8.03592054 21.9650416,2.36882619 14.9990377,2.36882619 Z" id="Page-1"></path>
                </g>
            </g>
        </g>
    </g>
</svg>