<svg width="40" height="40" viewBox="0 0 40 40" fill="none" xmlns="http://www.w3.org/2000/svg">
<path d="M26.5659 11.492L33.111 4.93752C25.6494 -1.60346 14.486 -1.64558 6.97675 4.81123L13.5304 11.3743C17.3886 8.47755 22.7484 8.51679 26.5659 11.492Z" fill="#EDEDED"/>
<path d="M28.4669 26.6041L35.012 33.1586C41.5436 25.6863 41.5857 14.5068 35.1381 6.98682L28.5845 13.5499C31.4771 17.4136 31.4379 22.7811 28.4669 26.6041Z" fill="#E9E9E9"/>
<path d="M13.3766 28.5081L6.83148 35.0626C14.2931 41.6036 25.4565 41.6457 32.9657 35.1889L26.4121 28.6259C22.5539 31.5226 17.1941 31.4834 13.3766 28.5081Z" fill="#E9E9E9"/>
<path d="M11.4756 13.396L4.93043 6.84143C-1.60116 14.3137 -1.64321 25.4932 4.80433 33.0132L11.3579 26.4502C8.46538 22.5864 8.50457 17.2189 11.4756 13.396Z" fill="#E9E9E9"/>
<circle r="7.68679" transform="matrix(0.706599 0.707614 -0.706599 0.707614 19.9712 20.0002)" fill="#E9E9E9"/>
<path d="M5.81919 17.6885V21.9808L3.67612 19.8347L5.81919 17.6885Z" fill="#212121"/>
<path d="M34.6232 22.427V18.1347L36.7663 20.2809L34.6232 22.427Z" fill="#212121"/>
<path d="M22.587 5.63474H18.3009L20.4439 3.48859L22.587 5.63474Z" fill="#212121"/>
<path d="M17.8554 34.4807H22.1416L19.9985 36.6269L17.8554 34.4807Z" fill="#212121"/>
</svg>
