<svg width="162" height="57" viewBox="0 0 162 57" fill="none" xmlns="http://www.w3.org/2000/svg">
<path d="M56.6605 18.5287C56.1831 16.7452 54.7815 15.3436 52.998 14.8662C49.7686 14 36.8134 14 36.8134 14C36.8134 14 23.8582 14 20.6288 14.8662C18.8453 15.3436 17.4437 16.7452 16.9663 18.5287C16.1001 21.7581 16.1001 28.5 16.1001 28.5C16.1001 28.5 16.1001 35.2419 16.9663 38.4713C17.4437 40.2548 18.8453 41.6564 20.6288 42.1338C23.8582 43 36.8134 43 36.8134 43C36.8134 43 49.7686 43 52.998 42.1338C54.7815 41.6564 56.1831 40.2548 56.6605 38.4713C57.5267 35.2419 57.5267 28.5 57.5267 28.5C57.5267 28.5 57.5233 21.7581 56.6605 18.5287Z" fill="#FF0000"/>
<path d="M32.667 34.7139L43.4295 28.5005L32.667 22.2872V34.7139Z" fill="white"/>
<path d="M76.2317 40.3804C75.4132 39.8279 74.8301 38.9686 74.4823 37.8023C74.1378 36.636 73.9639 35.0878 73.9639 33.1509V30.5148C73.9639 28.5608 74.1617 26.9887 74.5573 25.8054C74.9529 24.622 75.5701 23.7559 76.409 23.2136C77.2479 22.6714 78.3494 22.3986 79.7135 22.3986C81.0571 22.3986 82.1313 22.6748 82.9429 23.2273C83.7511 23.7797 84.3444 24.6459 84.7196 25.819C85.0947 26.9955 85.2822 28.5608 85.2822 30.5148V33.1509C85.2822 35.0878 85.0981 36.6429 84.7332 37.816C84.3683 38.9925 83.7749 39.8518 82.9565 40.394C82.1381 40.9362 81.0264 41.2091 79.6248 41.2091C78.1789 41.2125 77.0501 40.9328 76.2317 40.3804ZM80.8218 37.5363C81.0468 36.9429 81.1628 35.9779 81.1628 34.6343V28.9768C81.1628 27.6741 81.0502 26.7193 80.8218 26.1191C80.5933 25.5155 80.1943 25.2154 79.6214 25.2154C79.0689 25.2154 78.6768 25.5155 78.4517 26.1191C78.2232 26.7227 78.1107 27.6741 78.1107 28.9768V34.6343C78.1107 35.9779 78.2198 36.9464 78.438 37.5363C78.6563 38.1297 79.0485 38.4264 79.6214 38.4264C80.1943 38.4264 80.5933 38.1297 80.8218 37.5363Z" fill="white"/>
<path d="M139.156 34.1125C139.156 35.2788 139.19 36.1518 139.258 36.7349C139.326 37.3181 139.47 37.7409 139.688 38.0103C139.906 38.2763 140.24 38.4093 140.694 38.4093C141.304 38.4093 141.727 38.1706 141.952 37.6966C142.181 37.2226 142.303 36.4314 142.324 35.3265L145.85 35.5345C145.871 35.6914 145.881 35.9097 145.881 36.1859C145.881 37.8637 145.42 39.1186 144.503 39.9473C143.586 40.776 142.286 41.192 140.609 41.192C138.593 41.192 137.181 40.5611 136.373 39.2959C135.562 38.0308 135.159 36.0768 135.159 33.4305V30.259C135.159 27.5343 135.579 25.5428 136.418 24.2878C137.256 23.0329 138.692 22.4054 140.728 22.4054C142.13 22.4054 143.207 22.6612 143.957 23.1761C144.708 23.691 145.236 24.489 145.543 25.5769C145.85 26.6647 146.004 28.1652 146.004 30.0817V33.1918H139.156V34.1125ZM139.674 25.553C139.466 25.8088 139.33 26.2282 139.258 26.8113C139.19 27.3945 139.156 28.2777 139.156 29.4644V30.7671H142.147V29.4644C142.147 28.2982 142.106 27.4149 142.027 26.8113C141.949 26.2077 141.806 25.7849 141.598 25.5359C141.39 25.2904 141.069 25.1642 140.636 25.1642C140.199 25.1676 139.879 25.2972 139.674 25.553Z" fill="white"/>
<path d="M66.274 32.8543L61.6226 16.0558H65.6806L67.3107 23.6707C67.7267 25.5463 68.0302 27.1457 68.228 28.4688H68.3474C68.4838 27.5208 68.7907 25.9317 69.2647 23.698L70.9528 16.0558H75.0108L70.3014 32.8543V40.9125H66.2706V32.8543H66.274Z" fill="white"/>
<path d="M98.483 40.916H95.2843L94.9296 38.6926H94.8409C93.9713 40.3704 92.6687 41.2093 90.9295 41.2093C89.7257 41.2093 88.8357 40.8137 88.2628 40.026C87.6899 39.2348 87.4034 38.0003 87.4034 36.3225V22.7535H91.4922V36.0838C91.4922 36.8954 91.5808 37.4718 91.7582 37.8162C91.9355 38.1606 92.2322 38.3345 92.6482 38.3345C93.0029 38.3345 93.3439 38.2254 93.6713 38.0072C93.9986 37.7889 94.2373 37.5127 94.3976 37.1785V22.7501H98.483V40.916Z" fill="white"/>
<path d="M119.452 40.916H116.253L115.899 38.6926H115.81C114.94 40.3704 113.638 41.2093 111.899 41.2093C110.695 41.2093 109.805 40.8137 109.232 40.026C108.659 39.2348 108.372 38.0003 108.372 36.3225V22.7535H112.461V36.0838C112.461 36.8954 112.55 37.4718 112.727 37.8162C112.905 38.1606 113.201 38.3345 113.617 38.3345C113.972 38.3345 114.313 38.2254 114.64 38.0072C114.968 37.7889 115.206 37.5127 115.367 37.1785V22.7501H119.452V40.916Z" fill="white"/>
<path d="M109.59 19.3464H105.532V40.9156H101.532V19.3464H97.4735V16.059H109.59V19.3464Z" fill="white"/>
<path d="M132.984 25.6554C132.735 24.5095 132.336 23.6809 131.783 23.1659C131.231 22.651 130.47 22.3952 129.502 22.3952C128.752 22.3952 128.049 22.6067 127.398 23.0329C126.746 23.4592 126.242 24.0151 125.887 24.7073H125.856V15.1384H121.918V40.9124H125.294L125.71 39.1937H125.798C126.115 39.8075 126.589 40.2884 127.22 40.6464C127.851 41.0011 128.554 41.1784 129.324 41.1784C130.706 41.1784 131.725 40.5407 132.377 39.2687C133.028 37.9933 133.355 36.0052 133.355 33.2975V30.4228C133.355 28.3937 133.229 26.8012 132.984 25.6554ZM129.236 33.0656C129.236 34.3888 129.181 35.4255 129.072 36.1757C128.963 36.9259 128.782 37.4613 128.523 37.7751C128.267 38.0922 127.919 38.2491 127.486 38.2491C127.149 38.2491 126.838 38.1706 126.552 38.0104C126.266 37.8535 126.034 37.6148 125.856 37.3011V26.9921C125.993 26.4977 126.231 26.0953 126.569 25.7781C126.903 25.461 127.272 25.3041 127.664 25.3041C128.08 25.3041 128.4 25.4678 128.625 25.7918C128.854 26.1191 129.011 26.6648 129.099 27.4355C129.188 28.2062 129.232 29.3008 129.232 30.7229V33.0656H129.236Z" fill="white"/>
</svg>
