<?xml version="1.0" encoding="UTF-8" standalone="no"?>
<svg width="86px" height="168px" viewBox="0 0 86 168" version="1.1" xmlns="http://www.w3.org/2000/svg" xmlns:xlink="http://www.w3.org/1999/xlink">
    <!-- Generator: Sketch 42 (36781) - http://www.bohemiancoding.com/sketch -->
    <title>Illustration 3 phone</title>
    <desc>Created with Sketch.</desc>
    <defs>
        <path d="M8.8584217,151 C7.75849886,151 6.86683522,150.102561 6.86683522,148.990376 L6.86683522,61.7876535 C6.86683522,60.2507272 7.46960816,59 8.21031132,59 L79.2685536,59 C80.0092567,59 80.6120297,60.2507272 80.6120297,61.7876535 L80.6120297,148.990376 C80.6120297,150.100261 79.7193889,151 78.6204432,151 L8.8584217,151 Z" id="path-1"></path>
        <mask id="mask-2" maskContentUnits="userSpaceOnUse" maskUnits="objectBoundingBox" x="0" y="0" width="73.7451945" height="92" fill="white">
            <use xlink:href="#path-1"></use>
        </mask>
        <polygon id="path-3" points="15 58 71 58 71 0 15 0"></polygon>
        <filter x="-50%" y="-50%" width="200%" height="200%" filterUnits="objectBoundingBox" id="filter-4">
            <feOffset dx="0" dy="0" in="SourceAlpha" result="shadowOffsetOuter1"></feOffset>
            <feGaussianBlur stdDeviation="1" in="shadowOffsetOuter1" result="shadowBlurOuter1"></feGaussianBlur>
            <feColorMatrix values="0 0 0 0 0   0 0 0 0 0   0 0 0 0 0  0 0 0 0.25 0" type="matrix" in="shadowBlurOuter1"></feColorMatrix>
        </filter>
        <polygon id="path-5" points="15 121 71 121 71 63 15 63"></polygon>
        <filter x="-50%" y="-50%" width="200%" height="200%" filterUnits="objectBoundingBox" id="filter-6">
            <feOffset dx="0" dy="0" in="SourceAlpha" result="shadowOffsetOuter1"></feOffset>
            <feGaussianBlur stdDeviation="2" in="shadowOffsetOuter1" result="shadowBlurOuter1"></feGaussianBlur>
            <feColorMatrix values="0 0 0 0 0   0 0 0 0 0   0 0 0 0 0  0 0 0 0.25 0" type="matrix" in="shadowBlurOuter1"></feColorMatrix>
        </filter>
        <polygon id="path-7" points="15 149.947484 71 149.947484 71 127 15 127"></polygon>
        <filter x="-50%" y="-50%" width="200%" height="200%" filterUnits="objectBoundingBox" id="filter-8">
            <feOffset dx="0" dy="0" in="SourceAlpha" result="shadowOffsetOuter1"></feOffset>
            <feGaussianBlur stdDeviation="2" in="shadowOffsetOuter1" result="shadowBlurOuter1"></feGaussianBlur>
            <feColorMatrix values="0 0 0 0 0   0 0 0 0 0   0 0 0 0 0  0 0 0 0.25 0" type="matrix" in="shadowBlurOuter1"></feColorMatrix>
        </filter>
        <linearGradient x1="50%" y1="-3.05553374%" x2="50%" y2="103.796507%" id="linearGradient-9">
            <stop stop-color="#85D8EB" offset="0%"></stop>
            <stop stop-color="#FFFFFF" stop-opacity="0" offset="100%"></stop>
        </linearGradient>
        <path d="M24.5623018,25 L24.5548705,25 L24.5548705,25 L6.53221099,24.9465821 C5.8596821,24.9465821 5.22430951,24.7108064 4.74685115,24.2889889 C4.26381935,23.8598035 3.99815186,23.2887843 4.00000968,22.6809251 L4.03345034,9.25460499 C4.03716597,8.00941465 5.17414851,7 6.5712251,7 L6.57679854,7 L24.6013159,7.05157593 C25.2589823,7.05341793 25.883208,7.27814163 26.3569507,7.68522309 L33.2327226,14.3864102 C33.7231856,14.8082276 33.9981422,15.3866148 34,16.007368 C34,16.6262792 33.7250434,17.2028244 33.2252913,17.6338518 L26.3346569,24.3571429 C25.8497673,24.7752763 25.2236838,25 24.5623018,25 Z" id="path-10"></path>
        <mask id="mask-11" maskContentUnits="userSpaceOnUse" maskUnits="objectBoundingBox" x="0" y="0" width="30" height="18" fill="white">
            <use xlink:href="#path-10"></use>
        </mask>
        <path d="M8,25 L24.4700012,25 L24.2493863,23.6868623 C23.4821522,20.8835591 21.2398967,19 18.6706842,19 L13.7310343,19 C11.1618218,19 8.92142399,20.8835591 8.1541899,23.6868623 L8,25 Z" id="path-12"></path>
        <mask id="mask-13" maskContentUnits="userSpaceOnUse" maskUnits="objectBoundingBox" x="0" y="0" width="16.4700012" height="6" fill="white">
            <use xlink:href="#path-12"></use>
        </mask>
    </defs>
    <g id="intro---animation" stroke="none" stroke-width="1" fill="none" fill-rule="evenodd">
        <g id="illutration-3" transform="translate(-164.000000, -44.000000)">
            <g id="Illustration-3-phone" transform="translate(164.000000, 46.000000)">
                <path d="M1.12045643,161.001781 C1.12045643,163.762221 3.36572443,166 6.12170611,166 L80.8782939,166 C83.6404078,166 85.8795436,163.753767 85.8795436,161.001781 L85.8795436,50.9677921 C85.8795436,48.2255709 84.8764085,46 83.6384018,46 L3.36159825,46 C2.1235915,46 1.12045643,48.2255709 1.12045643,50.9677921 L1.12045643,161.001781 Z" id="Fill-1" fill="#666666"></path>
                <circle id="Oval" stroke="#555555" fill="#999999" cx="44" cy="158" r="5"></circle>
                <use id="Fill-5" stroke="#777777" mask="url(#mask-2)" stroke-width="2" fill="#F5F5F5" xlink:href="#path-1"></use>
                <path d="M49.9856108,160 L49.0143892,160 C49.0064409,160 49,159.871685 49,159.713339 L49,159.286661 C49,159.128315 49.0064409,159 49.0143892,159 L49.9856108,159 C49.9935591,159 50,159.128315 50,159.286661 L50,159.713339 C50,159.871685 49.9935591,160 49.9856108,160" id="Fill-9" fill="#F5F5F5" opacity="0"></path>
                <path d="M49.8957547,160 L49.1042453,160 C49.0646816,160 49.0289505,159.740039 49.0132075,159.338341 L49,159 L50,159 L49.9867925,159.338341 C49.9710495,159.740039 49.9353184,160 49.8957547,160" id="Fill-13" fill="#777777" opacity="0"></path>
                <polygon id="Fill-16" fill="#333333" opacity="0.1" points="9 150 15 150 15 46 9 46"></polygon>
                <polyline id="Fill-16-Copy" fill="#E3E3E3" style="mix-blend-mode: multiply;" opacity="0.9" points="71 127 71 121 15 121 15 127"></polyline>
                <g id="Fill-18">
                    <use fill="black" fill-opacity="1" filter="url(#filter-4)" xlink:href="#path-3"></use>
                    <use fill="#FEFEFE" fill-rule="evenodd" xlink:href="#path-3"></use>
                </g>
                <g id="Fill-18-Copy">
                    <use fill="black" fill-opacity="1" filter="url(#filter-6)" xlink:href="#path-5"></use>
                    <use fill="#FEFEFE" fill-rule="evenodd" xlink:href="#path-5"></use>
                </g>
                <g id="Fill-18-Copy-2">
                    <use fill="black" fill-opacity="1" filter="url(#filter-8)" xlink:href="#path-7"></use>
                    <use fill="#FEFEFE" fill-rule="evenodd" xlink:href="#path-7"></use>
                </g>
                <path d="M14.1799188,148 L72.8200812,148" id="Line" stroke="#85D8EB" stroke-width="4" stroke-linecap="round" opacity="0"></path>
                <rect id="Rectangle" fill-opacity="0.5" fill="url(#linearGradient-9)" opacity="0" x="14.1799188" y="148" width="58.6401623" height="3"></rect>
                <polygon id="Fill-21" fill="#BFBEBD" points="22.512403 140 64.487597 140 64.487597 134 22.512403 134"></polygon>
                <polygon id="Fill-28" fill="#BFBEBD" points="22.512403 19 64.487597 19 64.487597 13 22.512403 13"></polygon>
                <polygon id="Fill-21" fill="#BFBEBD" points="23 109.661 64 109.661 64 109 23 109"></polygon>
                <polygon id="Fill-29" fill="#BFBEBD" points="23 15 63 15 63 14 23 14"></polygon>
                <polygon id="Fill-29-Copy" fill="#BFBEBD" points="24 72 64 72 64 71 24 71"></polygon>
                <polygon id="Fill-28-Copy" fill="#BFBEBD" points="22.512403 32 64.487597 32 64.487597 26 22.512403 26"></polygon>
                <polygon id="Fill-28-Copy-2" fill="#BFBEBD" points="22.512403 44 64.487597 44 64.487597 38 22.512403 38"></polygon>
                <polygon id="Fill-28-Copy-3" fill="#BFBEBD" points="22.512403 76 64.487597 76 64.487597 70 22.512403 70"></polygon>
                <polygon id="Fill-28-Copy-4" fill="#BFBEBD" points="22.512403 88 64.487597 88 64.487597 82 22.512403 82"></polygon>
                <polygon id="Fill-28-Copy-5" fill="#BFBEBD" points="22.512403 100 64.487597 100 64.487597 94 22.512403 94"></polygon>
                <polygon id="Fill-28-Copy-6" fill="#BFBEBD" points="22.512403 112 64.487597 112 64.487597 106 22.512403 106"></polygon>
                <g id="person" transform="translate(0.000000, 121.000000)">
                    <path d="M14.954181,28 L2.22223154,27.9474507 C0.992755534,27.945574 -0.00380731302,26.9959338 1.09354406e-05,25.8285896 L0.0343751716,12.1094801 C0.0362842958,10.9421359 1.03666539,9.99812603 2.26614139,10.0000028 L15,10.0525521 L14.954181,28 Z" id="Fill-78" fill="#E3E3E3" style="mix-blend-mode: multiply;" opacity="0.9"></path>
                    <use id="Stroke-84" stroke="#FFC820" mask="url(#mask-11)" fill="#FFE490" xlink:href="#path-10"></use>
                    <path d="M22.6736376,10.3155484 C22.6736376,15.4607097 19.6132405,19.6310968 15.8368188,19.6310968 C12.0603972,19.6310968 9,15.4607097 9,10.3155484 C9,5.1703871 12.0603972,1 15.8368188,1 C19.6132405,1 22.6736376,5.1703871 22.6736376,10.3155484" id="Fill-86" stroke="#FFC820" stroke-width="0.5" fill="#FFF0C3"></path>
                    <use id="Fill-92" stroke="#FFC820" mask="url(#mask-13)" fill="#FFF1C4" xlink:href="#path-12"></use>
                    <path d="M15.3221293,22.3247097 C13.490004,22.3247097 12,20.8335484 12,19 L12.7777185,19 C12.7777185,20.4050968 13.9181231,21.5463871 15.3221293,21.5463871 C16.7261356,21.5463871 17.8665402,20.4050968 17.8665402,19 L18.6442587,19 C18.6442587,20.8335484 17.1542547,22.3247097 15.3221293,22.3247097" id="Fill-94" fill="#FFC820"></path>
                    <path d="M12.5290729,10.9327097 L12.4860741,10.9327097 C12.2187333,10.9327097 12,10.7156774 12,10.4462581 L12,9.48458065 C12,9.21703226 12.2187333,9 12.4860741,9 L12.5290729,9 C12.7964137,9 13.015147,9.21703226 13.015147,9.48458065 L13.015147,10.4462581 C13.015147,10.7156774 12.7964137,10.9327097 12.5290729,10.9327097" id="Fill-96" fill="#FFC820"></path>
                    <path d="M18.5290729,10.9327097 L18.4860741,10.9327097 C18.2187333,10.9327097 18,10.7156774 18,10.4462581 L18,9.48458065 C18,9.21703226 18.2187333,9 18.4860741,9 L18.5290729,9 C18.7964137,9 19.015147,9.21703226 19.015147,9.48458065 L19.015147,10.4462581 C19.015147,10.7156774 18.7964137,10.9327097 18.5290729,10.9327097" id="Fill-98" fill="#FFC820"></path>
                    <path d="M21.2071313,16.624129 C21.5099928,16.1507742 21.771725,15.6362581 21.9867193,15.0880645 C22.3512749,14.1245161 22.6896572,12.738129 22.6167461,11 L22.6148766,11 L21.9325034,11 C21.9325034,11 21.652076,12.9383226 21.0800042,13.9130968 C20.934182,14.1600645 20.5976692,14.2648387 20.3060247,14.1581935 C19.4460475,13.843871 17.4774475,13.1534839 15.8135786,13.1534839 C14.1478401,13.1534839 12.1811096,13.843871 11.3211324,14.1581935 C11.029488,14.2648387 10.6929752,14.1600645 10.547153,13.9130968 C9.97321164,12.9383226 9.69278429,11 9.69278429,11 L9.01041107,11 L9.01041107,11 C8.93563045,12.738129 9.2758823,14.1263871 9.64043785,15.0899355 C9.85356264,15.6362581 10.1152948,16.1507742 10.4181564,16.624129 C10.4200259,16.624129 10.4256344,16.6147742 10.4368515,16.5998065 C10.438721,16.6222581 10.4443296,16.6428387 10.4461991,16.6652903 C11.6950356,18.5905161 13.6337233,19.8272258 15.8135786,19.8272258 C17.9915644,19.8272258 19.9321216,18.5905161 21.1809581,16.6652903 C21.1828276,16.6428387 21.1865666,16.6222581 21.1884361,16.5998065 C21.1996532,16.6147742 21.2071313,16.624129 21.2071313,16.624129" id="Fill-100" fill="#FFC820"></path>
                    <path d="M17.333414,18.3546452 L14.5328796,18.3546452 C13.9178089,18.3546452 13.3793884,17.9411613 13.21861,17.3480645 L13.0484841,16.7212903 C12.8129251,15.8531613 13.4653861,15 14.3627536,15 L17.50354,15 C18.4009075,15 19.0533684,15.8531613 18.8178095,16.7212903 L18.6476835,17.3480645 C18.4869052,17.9411613 17.9484847,18.3546452 17.333414,18.3546452" id="Fill-102" fill="#FFF0C3"></path>
                    <path d="M9.23407123,13.0525161 L8.73117151,13.0525161 C7.775849,13.0525161 7,12.2741935 7,11.318129 L7,10.7325161 C7,9.77832258 7.775849,9 8.73117151,9 L9.16863818,9 L9.14620399,9.21516129 C9.08637949,9.76896774 9.088249,10.3414839 9.09198803,10.9458065 L9.09198803,11.2863226 C9.09198803,11.7989677 9.12937835,12.3190968 9.20228946,12.829871 L9.23407123,13.0525161 Z" id="Fill-104" fill="#FFF0C3"></path>
                    <path d="M8.73117151,9.38916129 C7.9908433,9.38916129 7.38885926,9.9916129 7.38885926,10.7325161 L7.38885926,11.318129 C7.38885926,12.0609032 7.9908433,12.6633548 8.73117151,12.6633548 L8.7891265,12.6633548 C8.73117151,12.2068387 8.70312877,11.7447097 8.70312877,11.2863226 L8.70312877,10.9476774 C8.70125926,10.4069677 8.69938974,9.89432258 8.74051909,9.38916129 L8.73117151,9.38916129 Z M9.23407123,13.0525161 L8.73117151,13.0525161 C7.775849,13.0525161 7,12.2741935 7,11.318129 L7,10.7325161 C7,9.77832258 7.775849,9 8.73117151,9 L9.16863818,9 L9.14620399,9.21516129 C9.08637949,9.76896774 9.088249,10.3414839 9.09198803,10.9458065 L9.09198803,11.2863226 C9.09198803,11.7989677 9.12937835,12.3190968 9.20228946,12.829871 L9.23407123,13.0525161 Z" id="Fill-104" fill="#FFC820"></path>
                    <path d="M22.5047692,13.0525161 L22,13.0525161 L22.0317818,12.829871 C22.1065624,12.3190968 22.1439527,11.8008387 22.1439527,11.2863226 C22.1439527,11.1010968 22.1458222,10.9196129 22.1476917,10.741871 C22.1533003,10.2292258 22.1589088,9.74277419 22.1140405,9.21141935 L22.0972148,9 L22.5047692,9 C23.4582222,9 24.2359407,9.77832258 24.2359407,10.7343871 L24.2359407,11.32 C24.2359407,12.2741935 23.4582222,13.0525161 22.5047692,13.0525161" id="Path" fill="#FFF0C3"></path>
                    <path d="M22.4468142,12.6633548 L22.5047692,12.6633548 C23.2450974,12.6633548 23.8470815,12.0609032 23.8470815,11.32 L23.8470815,10.7343871 C23.8470815,9.99722581 23.250706,9.39664516 22.5178558,9.38916129 C22.5458986,9.85690323 22.54029,10.2909677 22.536551,10.7456129 C22.532812,10.9233548 22.5309425,11.1010968 22.5309425,11.2863226 C22.5309425,11.7447097 22.5028997,12.2068387 22.4468142,12.6633548 M22.5047692,13.0525161 L22,13.0525161 L22.0317818,12.829871 C22.1065624,12.3190968 22.1439527,11.8008387 22.1439527,11.2863226 C22.1439527,11.1010968 22.1458222,10.9196129 22.1476917,10.741871 C22.1533003,10.2292258 22.1589088,9.74277419 22.1140405,9.21141935 L22.0972148,9 L22.5047692,9 C23.4582222,9 24.2359407,9.77832258 24.2359407,10.7343871 L24.2359407,11.32 C24.2359407,12.2741935 23.4582222,13.0525161 22.5047692,13.0525161" id="Fill-106" fill="#FFC820"></path>
                    <path d="M15.6300292,0.584667599 C12.0502458,0.899947025 10.5937041,4.19937059 10.1220364,5.65557401 C10.0188505,5.68341255 9.93071851,5.70830108 9.858543,5.72927742 C9.71272078,5.77230968 9.59868032,5.89579355 9.55942049,6.05482581 L9.01539143,8.25134194 C8.93313274,8.58437419 9.19299542,8.89495484 9.49959599,8.8276 C10.6829994,8.56566452 13.2909738,8.0736 16.1419852,8.0736 C18.9929966,8.0736 21.6009709,8.56566452 22.7843743,8.8276 C23.0909749,8.89495484 23.3527071,8.58437419 23.2704484,8.25134194 L22.7245498,6.05482581 C22.68529,5.89579355 22.5712496,5.77230968 22.4254273,5.72927742 C22.3626624,5.71103607 22.2878307,5.6898362 22.2015257,5.66631057 C21.7509094,4.21542284 20.3356017,0.899652553 16.7507917,0.584514564 C16.7511031,0.576812719 16.7512603,0.569070305 16.7512603,0.561290323 C16.7512603,0.250709677 16.5007452,0 16.1904056,0 C15.8819355,0 15.6295509,0.250709677 15.6295509,0.561290323 C15.6295509,0.569121836 15.6297114,0.576915281 15.6300292,0.584667599 L15.6300292,0.584667599 Z" id="Combined-Shape" fill="#FFC820"></path>
                    <polygon id="Fill-112" fill="#FFC820" points="9 11.406 9.68798177 11.406 9.68798177 11 9 11"></polygon>
                    <polygon id="Fill-114" fill="#FFC820" points="22 11.406 22.6879818 11.406 22.6879818 11 22 11"></polygon>
                    <path d="M15.6934591,16.3891313 C15.1905594,16.3891313 15.0335201,16.175841 15.0166945,16.1515184 C14.9867822,16.1066152 14.9979993,16.0467442 15.0428677,16.0168087 C15.0877361,15.9868732 15.1475606,15.998099 15.1774728,16.0411313 C15.1812118,16.0467442 15.3008608,16.1945506 15.6934591,16.1945506 C16.0897965,16.1945506 16.2094455,16.0430022 16.2094455,16.0411313 C16.2412272,15.998099 16.3029212,15.9887442 16.3440506,16.0186797 C16.3870494,16.0504861 16.4001361,16.1084861 16.3702238,16.1515184 C16.3533982,16.175841 16.1963588,16.3891313 15.6934591,16.3891313" id="Fill-115" fill="#FFC820"></path>
                </g>
            </g>
        </g>
    </g>
</svg>