<?xml version="1.0" encoding="UTF-8" standalone="no"?>
<svg width="91px" height="103px" viewBox="0 0 91 103" version="1.1" xmlns="http://www.w3.org/2000/svg" xmlns:xlink="http://www.w3.org/1999/xlink">
    <!-- Generator: Sketch 42 (36781) - http://www.bohemiancoding.com/sketch -->
    <title>Group 24</title>
    <desc>Created with Sketch.</desc>
    <defs>
        <path d="M86,100 L6,100 L6,2.22630074e-13 C6,2.22630074e-13 64,2.27373675e-13 64,0 L86,23 L86,100 Z" id="path-1"></path>
        <mask id="mask-2" maskContentUnits="userSpaceOnUse" maskUnits="objectBoundingBox" x="0" y="0" width="80" height="100" fill="white">
            <use xlink:href="#path-1"></use>
        </mask>
    </defs>
    <g id="Version-4" stroke="none" stroke-width="1" fill="none" fill-rule="evenodd">
        <g id="7-Homepage-on-Return" transform="translate(-971.000000, -224.000000)">
            <g id="Group-23" transform="translate(597.000000, 162.000000)">
                <g id="Group-20" transform="translate(355.000000, 62.000000)">
                    <g id="Group-24" transform="translate(19.000000, 0.000000)">
                        <g id="Group-21">
                            <path d="M2.32060909,103 C1.03963287,103 0,101.88125 0,100.5 C0,99.11875 1.03963287,98 2.32060909,98 L86.6793909,98 C87.9615274,98 89,99.11875 89,100.5 C89,101.88125 87.9615274,103 86.6793909,103 L2.32060909,103 Z" id="Fill-7" fill="#D9D9D9"></path>
                            <use id="Fill-9" stroke="#EEEEEE" mask="url(#mask-2)" stroke-width="4" fill="#FFFFFF" xlink:href="#path-1"></use>
                            <path d="M31.5,47 L31.5,47 C30.1194985,47 29,45.942101 29,44.6375605 L29,40.3624395 C29,39.05669 30.1194985,38 31.5,38 L31.5,38 C32.8805015,38 34,39.05669 34,40.3624395 L34,44.6375605 C34,45.942101 32.8805015,47 31.5,47" id="Fill-15" fill="#555555"></path>
                            <path d="M60.5,47 L60.5,47 C59.1194985,47 58,45.942101 58,44.6375605 L58,40.3624395 C58,39.05669 59.1194985,38 60.5,38 L60.5,38 C61.8805015,38 63,39.05669 63,40.3624395 L63,44.6375605 C63,45.942101 61.8805015,47 60.5,47" id="Fill-17" fill="#555555"></path>
                            <path d="M41,67 C41,67 43.6470588,69 46,69 C48.3529412,69 51,67 51,67" id="Stroke-19" stroke="#555555" stroke-linecap="round"></path>
                            <polygon id="Path-2" fill-opacity="0.6" fill="#F2F2F2" style="mix-blend-mode: multiply;" points="64 22 86 41 86 23 76 13"></polygon>
                            <path d="M64,0 C66.804878,2.24390244 64,22 64,22 C64,22 82.0731707,20.195122 86,23" id="Stroke-13" fill="#D7E5FB"></path>
                        </g>
                        <g id="Group-2" transform="translate(64.000000, 65.000000)">
                            <path d="M10.4,11.4 L2.00522461,11.4 C0.897769638,11.4 0,12.2939119 0,13.3955841 L0,14.6044159 C0,15.7065466 0.886698151,16.6 2.00522461,16.6 L10.4,16.6 L10.4,24.9947754 C10.4,26.1022304 11.2939119,27 12.3955841,27 L13.6044159,27 C14.7065466,27 15.6,26.1133018 15.6,24.9947754 L15.6,16.6 L23.9947754,16.6 C25.1022304,16.6 26,15.7060881 26,14.6044159 L26,13.3955841 C26,12.2934534 25.1133018,11.4 23.9947754,11.4 L15.6,11.4 L15.6,3.00522461 C15.6,1.89776964 14.7060881,1 13.6044159,1 L12.3955841,1 C11.2934534,1 10.4,1.88669815 10.4,3.00522461 L10.4,11.4 Z" id="Combined-Shape-Copy" fill="#CCCCCC" style="mix-blend-mode: multiply;" opacity="0.5"></path>
                            <path d="M11.4,10.4 L3.00522461,10.4 C1.89776964,10.4 1,11.2939119 1,12.3955841 L1,13.6044159 C1,14.7065466 1.88669815,15.6 3.00522461,15.6 L11.4,15.6 L11.4,23.9947754 C11.4,25.1022304 12.2939119,26 13.3955841,26 L14.6044159,26 C15.7065466,26 16.6,25.1133018 16.6,23.9947754 L16.6,15.6 L24.9947754,15.6 C26.1022304,15.6 27,14.7060881 27,13.6044159 L27,12.3955841 C27,11.2934534 26.1133018,10.4 24.9947754,10.4 L16.6,10.4 L16.6,2.00522461 C16.6,0.897769638 15.7060881,0 14.6044159,0 L13.3955841,0 C12.2934534,0 11.4,0.886698151 11.4,2.00522461 L11.4,10.4 Z" id="Combined-Shape" fill="#4186EC"></path>
                        </g>
                    </g>
                </g>
            </g>
        </g>
    </g>
</svg>