<?xml version="1.0" encoding="UTF-8" standalone="no"?>
<svg width="150px" height="150px" viewBox="0 0 150 150" version="1.1" xmlns="http://www.w3.org/2000/svg" xmlns:xlink="http://www.w3.org/1999/xlink">
    <!-- Generator: Sketch 43.2 (39069) - http://www.bohemiancoding.com/sketch -->
    <title>Page 1</title>
    <desc>Created with Sketch.</desc>
    <defs>
        <rect id="path-1" x="0" y="0" width="150" height="150"></rect>
    </defs>
    <g id="Page-1" stroke="none" stroke-width="1" fill="none" fill-rule="evenodd">
        <g id="New-NDSE_v9_Homepage_2_Homepage_Empty_VD" transform="translate(-168.000000, -529.000000)">
            <g id="Group-19-Copy" transform="translate(168.000000, 529.000000)">
                <g id="Page-1">
                    <rect id="Rectangle-5-Copy-4" fill="#E1F4F8" x="0" y="0" width="150" height="150"></rect>
                    <mask id="mask-2" fill="white">
                        <use xlink:href="#path-1"></use>
                    </mask>
                    <g id="Mask"></g>
                    <path d="M91,-4 L20.3632234,-4 C17.6065354,-4 15.3717982,-1.75458933 15.3717982,0.99928665 L15.3717982,9.16414599 C15.3717982,11.9251758 17.6099212,14.1634326 20.3815446,14.1634326 L72.2205979,14.1634326 C74.9874045,14.1634326 77.2303444,16.3991988 77.2303444,19.1693731 L77.2303444,25.9940596 C77.2303444,28.7587641 74.9880455,31 72.2297127,31 L-104,31" id="Path-3" stroke="#85D8EB" opacity="0.2" mask="url(#mask-2)"></path>
                    <path d="M234.993829,77 L101.760146,77 C98.9978769,77 96.7586153,79.2343502 96.7586153,81.9935732 L96.7586153,97.4352325 C96.7586153,100.193107 98.9921328,102.428806 101.766079,102.428806 L139.383458,102.428806 C142.149004,102.428806 144.390921,104.667577 144.390921,107.42765 L144.390921,121.001156 C144.390921,123.761941 142.142386,126 139.383084,126 L4.83996582,126" id="Path-3" stroke="#85D8EB" opacity="0.2" mask="url(#mask-2)" transform="translate(119.916897, 101.500000) scale(-1, 1) translate(-119.916897, -101.500000) "></path>
                    <g mask="url(#mask-2)">
                        <g transform="translate(116.500000, 83.000000) scale(-1, 1) translate(-116.500000, -83.000000) translate(5.000000, 10.000000)">
                            <path d="M156.863128,79.9073662 L140.738575,104.287065 C140.012285,105.384264 138.481151,105.583755 137.497954,104.709213 L111.766148,82.975019 C111.445499,82.7040977 111.259419,82.3102644 111.255556,81.8906903 C111.240103,80.2973384 111.095875,76.286931 110.052798,75.591931 C109.030325,74.9104449 108.954991,77.710394 108.741869,78.8024449 C108.125681,81.9569727 102.14151,78.2458014 100.054712,77.9768106 C96.5320741,77.5224866 95.2031168,79.0862366 99.2588832,80.4749495 C103.118268,81.7973801 107.110934,85.6958153 107.110934,85.6958153 L137.691117,120.375028 C138.528798,121.324862 140.000695,121.35382 140.875721,120.438093 L172.656085,87.1746208 L156.863128,79.9073662 Z" id="Fill-7" fill="#85D8EB"></path>
                            <path d="M152.577692,74.1916991 L171.21078,74.1916991 L169.769789,60.3348148 L155.905236,60.3348148 C155.905236,60.3348148 157.209726,64.1843426 155.905236,68.7037731 C154.72437,72.7933333 152.577692,74.1916991 152.577692,74.1916991" id="Fill-8" fill="#85D8EB"></path>
                            <polygon id="Fill-9" fill="#EEEEEE" style="mix-blend-mode: multiply;" points="171.210716 74.1916991 169.769724 60.3348148 155.905172 60.3348148"></polygon>
                            <path d="M149.34821,60.3347505 L169.74809,60.3347505 L169.769982,24.4984912 L138.25103,24.4984912 L138.685002,37.2504542 L136.208016,44.7403662 C136.003264,45.3575005 136.463634,45.9926532 137.113948,45.9926532 L138.685002,45.9926532 L138.685002,49.6767968 C138.685002,55.5630606 143.459332,60.3347505 149.34821,60.3347505" id="Fill-10" fill="#85D8EB"></path>
                            <path d="M134.331636,13.0876208 C135.005773,11.1924588 136.330867,9.60747269 138.104098,8.6557088 C141.114212,7.04112083 144.11338,6.97419491 146.61934,7.9156625 C146.620628,7.9156625 146.621916,7.9156625 146.623203,7.91630602 C146.652178,7.92660231 146.678577,7.93882917 146.707551,7.94976898 C146.804776,7.98709306 146.902645,8.02506065 146.998582,8.0649588 C153.381312,10.6422505 153.269921,16.5053477 163.480485,17.8509449 C168.823357,18.5555977 169.630776,22.3060236 169.735084,23.8408153 C169.738947,23.8800699 169.738947,23.9193245 169.74281,23.9585792 L169.74281,23.9637273 C169.753756,24.0930745 169.759551,24.2230653 169.76277,24.3536995 L169.769853,24.3536995 L169.769853,52.7689032 L162.229437,51.5578014 C159.800742,51.1678292 157.941876,49.1259449 157.873625,46.6689912 C157.824691,44.9334218 158.18848,43.1592412 159.070588,41.9468523 C159.864485,40.8560884 161.234651,40.215144 161.337027,37.7433894 C161.423306,35.6841301 159.73893,33.9794495 157.677243,33.9794495 L157.597403,33.9794495 C155.757209,33.9794495 154.238309,35.3797458 154.091505,37.1970421 L153.558377,43.7905329 C153.516525,44.3085653 153.083842,44.7075468 152.563591,44.7075468 L151.825067,44.7075468 C150.79036,44.7075468 149.951391,43.8690421 149.951391,42.8349079 L149.951391,29.3885884 C149.951391,28.5584495 149.362246,27.8435005 148.547101,27.6871255 C146.111323,27.218644 144.056719,26.7006116 143.238998,26.5217134 C136.788662,25.1072597 131.704628,20.4745699 134.331636,13.0876208" id="Fill-11" fill="#4B9AAF"></path>
                            <path d="M145.21241,52.6087315 L145.21241,52.6087315 C145.08943,52.2374213 145.290319,51.844875 145.656039,51.7078056 C152.127623,49.2875324 155.247196,43.923162 155.27939,43.8671759 L156.531082,44.5801944 C156.390074,44.826662 153.105025,50.473537 146.142165,53.0636991 C145.762923,53.2046296 145.339253,52.992912 145.21241,52.6087315" id="Fill-12" fill="#4B9AAF"></path>
                            <path d="M159.438949,46.5418319 L154.980117,46.5418319 C153.202379,46.5418319 151.760744,45.1016375 151.760744,43.3242394 L151.760744,36.0595588 C151.760744,34.2821606 153.202379,32.8419662 154.980117,32.8419662 L159.438949,32.8419662 C161.216687,32.8419662 162.658322,34.2821606 162.658322,36.0595588 L162.658322,43.3242394 C162.658322,45.1016375 161.216687,46.5418319 159.438949,46.5418319" id="Fill-13" fill="#52B4CD"></path>
                            <path d="M158.365932,44.2241356 L156.053134,44.2241356 C154.925066,44.2241356 154.010764,43.3096958 154.010764,42.1822514 L154.010764,37.3494273 C154.010764,36.2219829 154.925066,35.3088301 156.053134,35.3088301 L158.365932,35.3088301 C159.494,35.3088301 160.408302,36.2219829 160.408302,37.3494273 L160.408302,42.1822514 C160.408302,43.3096958 159.494,44.2241356 158.365932,44.2241356" id="Fill-14" fill="#4B9AAF"></path>
                            <path d="M155.897316,14.3746579 L158.963447,15.2942458 C159.289248,15.3914171 159.511385,15.6906532 159.511385,16.0297875 L159.511385,32.8577968 L154.907681,32.8577968 L154.907681,15.1108431 C154.907681,14.5960282 155.404108,14.2272921 155.897316,14.3746579" id="Fill-15" fill="#52B4CD"></path>
                            <path d="M142.391949,143.291752 L181.536933,143.291752 C181.536933,143.291752 177.742205,129.172956 183.026079,102.827951 C186.327752,86.3654606 174.693952,72.4486387 170.681641,69.4614258 C169.429696,70.5879825 165.270106,76.4829468 154.463482,72.6791088 C154.463482,72.6791088 134.251549,89.3906412 142.391949,143.291752 Z" id="Fill-16" fill="#6AC6DC"></path>
                            <polygon id="Fill-17" fill="#ECECEC" style="mix-blend-mode: multiply;" points="154.338882 92.7488426 154.033685 143.291431 161.696438 143.291431"></polygon>
                            <path d="M169.261836,143.291431 C169.261836,143.291431 170.282377,133.074287 170.894058,121.106773 C171.505739,109.139259 171.429762,100.879699 171.429762,100.879699 L154.934337,100.879699 C154.934337,100.879699 155.191887,107.68362 156.101682,116.271375 C157.010833,124.858486 158.713881,143.291431 158.713881,143.291431 L169.261836,143.291431 Z" id="Fill-18" fill="#85D8EB"></path>
                            <path d="M162.100213,78 L162.100213,78 C156.806919,78 152.628173,82.4930463 153.014498,87.7692546 L153.852179,99.2129444 L170.348247,99.2129444 L171.185928,87.7692546 C171.572253,82.4930463 167.393506,78 162.100213,78" id="Fill-19" fill="#6AC6DC"></path>
                            <path d="M177.634717,28.306512 C177.634717,28.306512 169.65196,35.8183037 174.531885,53.0060398 C177.424814,63.195512 183.653014,47.8630398 183.653014,47.8630398 L177.634717,28.306512 Z" id="Fill-20" fill="#4B9AAF"></path>
                            <path d="M183.653078,66.926375 C183.653078,66.926375 186.300691,71.6613843 186.464235,75.7631713 C186.574981,78.5463889 185.61432,79.3585093 181.763306,84.8708889 C178.491135,89.5557037 175.02387,92.5647963 178.30248,110.082657 C179.679084,117.438718 178.876816,145.712347 178.876816,145.712347 L205.362599,145.712347 C205.362599,145.712347 210.218702,89.9488935 200.595995,77.5560139 C200.16975,77.0064491 200.130474,66.3459213 200.130474,66.3459213 L183.653078,66.926375 Z" id="Fill-21" fill="#52B4CD"></path>
                            <path d="M183.653078,66.926375 C183.653078,66.926375 186.154531,71.2463148 186.318075,75.3481019 C186.428822,78.1306759 185.639431,79.3803889 184.472087,81.0355185 C181.178668,85.7055324 200.595995,79.9196574 200.595995,77.5560139 C200.595995,76.8610139 200.130474,66.3459213 200.130474,66.3459213 L183.653078,66.926375 Z" id="Fill-22" fill="#85D8EB"></path>
                            <polygon id="Fill-23" fill="#EEEEEE" style="mix-blend-mode: multiply;" points="183.653078 66.926375 200.595995 77.5560139 200.130474 66.3459213"></polygon>
                            <path d="M176.977965,39.2016667 C176.727498,39.2737407 176.587777,51.9407593 176.587777,51.9407593 L174.437236,56.2208009 C173.980729,56.7349722 174.060569,57.5284306 174.609794,57.9441435 L176.46866,59.3515185 L176.351475,64.3272037 C176.317994,65.7532407 177.464734,66.926375 178.890917,66.926375 L198.237418,66.926375 C203.633088,66.926375 203.745766,57.7446528 200.333874,49.4194537 C195.652905,37.995713 183.000769,37.4532269 176.977965,39.2016667" id="Fill-24" fill="#85D8EB"></path>
                            <path d="M175.865929,30.7787171 C175.865929,30.7787171 179.748493,22.3788699 191.454134,24.3216523 C206.552995,26.8262264 225.323228,38.6380088 219.579223,60.2731014 C217.596733,67.7398468 211.705924,73.9304949 216.102944,79.9197218 C221.549479,87.3394903 226.451941,104.787208 217.379747,113.442532 C213.237701,117.395023 206.587764,117.290129 206.587764,117.290129 C206.587764,117.290129 206.587764,89.1246106 201.708482,81.1559208 C198.048699,75.1789208 200.141291,67.7707356 200.141291,67.7707356 C200.141291,67.7707356 191.472163,69.328694 192.592505,55.4936894 C192.592505,55.4936894 196.189189,57.1063468 196.442875,52.2908977 C196.641189,48.5372542 191.894545,47.4458468 191.43675,50.1145181 C191.43675,50.1145181 188.675172,46.3904764 181.805673,44.2527079 C174.97867,42.1284532 173.978733,35.8888977 175.865929,30.7787171" id="Fill-25" fill="#4B9AAF"></path>
                            <path d="M180.860658,62.3803028 L180.860658,62.3803028 C180.720293,61.9555806 180.950157,61.5057611 181.369319,61.3487426 C188.777097,58.5783954 192.348026,52.4372981 192.384726,52.3735898 L193.817991,53.1902148 C193.657023,53.4720759 189.896151,59.9355759 181.925627,62.9009093 C181.491011,63.0624324 181.006174,62.8198259 180.860658,62.3803028" id="Fill-26" fill="#4B9AAF"></path>
                            <path d="M196.683684,60.2768981 L190.64736,60.2768981 C188.869622,60.2768981 187.427986,58.8367037 187.427986,57.0593056 L187.427986,47.8113009 C187.427986,46.0339028 188.869622,44.5937083 190.64736,44.5937083 L196.683684,44.5937083 C198.461422,44.5937083 199.903058,46.0339028 199.903058,47.8113009 L199.903058,57.0593056 C199.903058,58.8367037 198.461422,60.2768981 196.683684,60.2768981" id="Fill-27" fill="#52B4CD"></path>
                            <path d="M195.284995,57.6236713 L192.046306,57.6236713 C190.918238,57.6236713 190.003936,56.7092315 190.003936,55.581787 L190.003936,49.4587083 C190.003936,48.3319074 190.918238,47.4174676 192.046306,47.4174676 L195.284995,47.4174676 C196.413064,47.4174676 197.327366,48.3319074 197.327366,49.4587083 L197.327366,55.581787 C197.327366,56.7092315 196.413064,57.6236713 195.284995,57.6236713" id="Fill-28" fill="#4B9AAF"></path>
                            <path d="M192.163362,23.4530954 L195.673767,24.5058917 C196.045926,24.6172204 196.300901,24.9595722 196.300901,25.3476139 L196.300901,44.6119843 L191.030143,44.6119843 L191.030143,24.2961046 C191.030143,23.7066417 191.598684,23.28385 192.163362,23.4530954" id="Fill-29" fill="#52B4CD"></path>
                            <polygon id="Fill-30" fill="#ECECEC" style="mix-blend-mode: multiply;" points="187.455029 99.0068028 187.208425 145.71209 193.407006 145.71209"></polygon>
                            <path d="M199.527099,145.712154 C199.527099,145.712154 200.352546,136.271094 200.847686,125.212228 C201.342826,114.152719 201.281658,106.519946 201.281658,106.519946 L187.936712,106.519946 C187.936712,106.519946 188.145327,112.807122 188.880632,120.742992 C189.616581,128.678863 190.993828,145.712154 190.993828,145.712154 L199.527099,145.712154 Z" id="Fill-31" fill="#85D8EB"></path>
                            <path d="M194.608734,86.9175352 L194.608734,86.9175352 C190.326968,86.9175352 186.946626,91.0695167 187.258905,95.944813 L187.936261,106.519753 L201.281207,106.519753 L201.959207,95.944813 C202.271486,91.0695167 198.891144,86.9175352 194.608734,86.9175352" id="Fill-32" fill="#52B4CD"></path>
                            <path d="M4.24249003,28.312213 L98.8540741,28.312213 C98.8540741,28.312213 99.5262792,31.598662 102.920142,34.8497176 C104.58649,36.4456435 107.726667,37.6387269 109.609356,38.4347593 C110.403897,38.7713194 111.150792,37.8575231 110.63698,37.1650972 C109.929362,36.2101157 109.187618,34.9764907 108.608775,33.4584306 C107.657772,30.9628657 108.188325,28.312213 108.188325,28.312213 L122.189379,28.312213 C124.532439,28.312213 126.431869,26.4138333 126.431869,24.0720694 L126.431869,5.2395 C126.431869,2.89837963 124.532439,1 122.189379,1 L4.24249003,1 C1.8994302,1 0,2.89837963 0,5.2395 L0,24.0720694 C0,26.4138333 1.8994302,28.312213 4.24249003,28.312213" id="Fill-34" fill="#E1F4F8"></path>
                            <path d="M6.24249003,27.312213 L100.854074,27.312213 C100.854074,27.312213 101.526279,30.598662 104.920142,33.8497176 C106.58649,35.4456435 109.726667,36.6387269 111.609356,37.4347593 C112.403897,37.7713194 113.150792,36.8575231 112.63698,36.1650972 C111.929362,35.2101157 111.187618,33.9764907 110.608775,32.4584306 C109.657772,29.9628657 110.188325,27.312213 110.188325,27.312213 L124.189379,27.312213 C126.532439,27.312213 128.431869,25.4138333 128.431869,23.0720694 L128.431869,4.2395 C128.431869,1.89837963 126.532439,0 124.189379,0 L6.24249003,0 C3.8994302,0 2,1.89837963 2,4.2395 L2,23.0720694 C2,25.4138333 3.8994302,27.312213 6.24249003,27.312213" id="Fill-36" fill="#4B9AAF"></path>
                        </g>
                    </g>
                </g>
            </g>
        </g>
    </g>
</svg>