<svg xmlns="http://www.w3.org/2000/svg" width="52" height="49" viewBox="0 0 52 49">
  <g fill="none" fill-rule="evenodd" transform="translate(2 2)">
    <path stroke="#777" stroke-linecap="round" stroke-linejoin="round" stroke-width="4" d="M17.6842105,16.25 L48,27.4288307 C39.5673652,28.9920697 34.5147336,30.4067542 32.8421053,31.6728844 C31.1694769,32.9390146 29.3149417,37.3813864 27.2784995,45 L17.6842105,16.25 Z"/>
    <path fill="#777" fill-rule="nonzero" d="M-2.21052632,0.0757575758 C-2.21052632,-1.3049543 -1.07945621,-2.42424242 0.315789474,-2.42424242 C1.71103516,-2.42424242 2.84210526,-1.3049543 2.84210526,0.0757575758 L2.84210526,6.29526538 C2.84210526,7.67597725 1.71103516,8.79526538 0.315789474,8.79526538 C-1.07945621,8.79526538 -2.21052632,7.67597725 -2.21052632,6.29526538 L-2.21052632,0.0757575758 Z" transform="translate(18.823)"/>
    <g fill="#777" fill-rule="nonzero" transform="rotate(45 11.154 40.998)">
      <path d="M-2.21052632 1.02245672C-2.21052632-.358255158-1.07945621-1.47754328.315789474-1.47754328 1.71103516-1.47754328 2.84210526-.358255158 2.84210526 1.02245672L2.84210526 7.24196452C2.84210526 8.6226764 1.71103516 9.74196452.315789474 9.74196452-1.07945621 9.74196452-2.21052632 8.6226764-2.21052632 7.24196452L-2.21052632 1.02245672zM-2.21052632 30.5684524C-2.21052632 29.1877405-1.07945621 28.0684524.315789474 28.0684524 1.71103516 28.0684524 2.84210526 29.1877405 2.84210526 30.5684524L2.84210526 36.7879602C2.84210526 38.1686721 1.71103516 39.2879602.315789474 39.2879602-1.07945621 39.2879602-2.21052632 38.1686721-2.21052632 36.7879602L-2.21052632 30.5684524z"/>
    </g>
    <path fill="#777" fill-rule="nonzero" d="M-2.21052632,0.896825388 C-2.21052632,-0.483886487 -1.07945621,-1.60317461 0.315789474,-1.60317461 C1.71103516,-1.60317461 2.84210526,-0.483886487 2.84210526,0.896825388 L2.84210526,7.11633319 C2.84210526,8.49704507 1.71103516,9.61633319 0.315789474,9.61633319 C-1.07945621,9.61633319 -2.21052632,8.49704507 -2.21052632,7.11633319 L-2.21052632,0.896825388 Z" transform="rotate(135 3.34 6.434)"/>
    <path fill="#777" fill-rule="nonzero" d="M-2.21052632,0.0757575758 C-2.21052632,-1.3049543 -1.07945621,-2.42424242 0.315789474,-2.42424242 C1.71103516,-2.42424242 2.84210526,-1.3049543 2.84210526,0.0757575758 L2.84210526,6.29526538 C2.84210526,7.67597725 1.71103516,8.79526538 0.315789474,8.79526538 C-1.07945621,8.79526538 -2.21052632,7.67597725 -2.21052632,6.29526538 L-2.21052632,0.0757575758 Z" transform="rotate(90 -4.263 11.905)"/>
  </g>
</svg>
