<?xml version="1.0" encoding="UTF-8"?>
<svg width="548px" height="294px" viewBox="0 0 548 294" version="1.1" xmlns="http://www.w3.org/2000/svg" xmlns:xlink="http://www.w3.org/1999/xlink">
    <!-- Generator: Sketch 50.2 (55047) - http://www.bohemiancoding.com/sketch -->
    <title>Group 14</title>
    <desc>Created with Sketch.</desc>
    <defs>
        <path d="M378.168949,217.034016 C377.55771,216.422777 376.57925,216.425548 375.974045,217.030752 L373.769349,219.235448 C373.164145,219.840653 372.335725,219.993659 371.574445,219.232184 C370.110568,217.767931 371.663598,214.736633 373.772613,212.637681 C378.640257,207.793261 386.501898,207.781622 391.357956,212.637681 C396.214015,217.493739 396.214015,225.366965 391.357956,230.223024 C386.501898,235.079082 378.528714,234.983954 373.772613,230.223024 C371.938075,228.386622 371.827763,227.664326 371.827763,227.664326 C371.415411,226.893027 371.627117,225.774016 372.234406,225.166727 L378.172213,219.22892 C378.770108,218.631025 378.775956,217.641024 378.168949,217.034016 Z M380.916659,227.475314 C381.82717,226.564803 381.82717,225.088573 380.916659,224.178062 C380.006148,223.267551 378.529918,223.267551 377.619407,224.178062 C376.708896,225.088573 376.708896,226.564803 377.619407,227.475314 C378.529918,228.385825 380.006148,228.385825 380.916659,227.475314 Z M389.159788,228.024856 C389.766796,227.417848 389.766796,226.433695 389.159788,225.826688 C388.552781,225.219681 387.568628,225.219681 386.96162,225.826688 C386.354613,226.433695 386.354613,227.417848 386.96162,228.024856 C387.568628,228.631863 388.552781,228.631863 389.159788,228.024856 Z M391.357956,222.529436 C391.964964,221.922429 391.964964,220.938275 391.357956,220.331268 C390.750949,219.724261 389.766796,219.724261 389.159788,220.331268 C388.552781,220.938275 388.552781,221.922429 389.159788,222.529436 C389.766796,223.136443 390.750949,223.136443 391.357956,222.529436 Z M389.159788,217.034016 C389.766796,216.427009 389.766796,215.442856 389.159788,214.835848 C388.552781,214.228841 387.568628,214.228841 386.96162,214.835848 C386.354613,215.442856 386.354613,216.427009 386.96162,217.034016 C387.568628,217.641024 388.552781,217.641024 389.159788,217.034016 Z M384.213911,214.286307 C384.820918,213.679299 384.820918,212.695146 384.213911,212.088139 C383.606903,211.481131 382.62275,211.481131 382.015743,212.088139 C381.408735,212.695146 381.408735,213.679299 382.015743,214.286307 C382.62275,214.893314 383.606903,214.893314 384.213911,214.286307 Z" id="path-1"></path>
        <linearGradient x1="20.9111133%" y1="-6.39264333%" x2="64.3379437%" y2="98.2477086%" id="linearGradient-3">
            <stop stop-color="#FFFFFF" stop-opacity="0" offset="0%"></stop>
            <stop stop-color="#F6CA46" offset="100%"></stop>
        </linearGradient>
        <path d="M1.50344828,1.5 L76.6758621,1.5 L76.6758621,28.5 L1.50344828,28.5 L1.50344828,1.5 Z" id="path-4"></path>
        <mask id="mask-5" maskContentUnits="userSpaceOnUse" maskUnits="objectBoundingBox" x="0" y="0" width="75.1724138" height="27" fill="white">
            <use xlink:href="#path-4"></use>
        </mask>
        <path d="M456,131.5 L459,131.5 L459,136 L459,139 L435,139 L435,136 L435,131.5 L438,131.5 L438,136 L456,136 L456,131.5 Z M456,124 L447,133 L438,124 L440.1,121.9 L445.5,127.3 L445.5,115 L448.5,115 L448.5,127.3 L453.9,121.9 L456,124 Z" id="path-6"></path>
    </defs>
    <g id="All-in-One" stroke="none" stroke-width="1" fill="none" fill-rule="evenodd">
        <g id="1-Empty-State" transform="translate(-461.000000, -227.000000)">
            <g id="Welcome-Modal-Large" transform="translate(458.000000, 227.000000)">
                <g id="Group-5">
                    <g id="Group-14" transform="translate(5.000000, 0.000000)">
                        <g id="Group-13" transform="translate(0.000000, 290.000000)" stroke="#DCE9FC" stroke-linecap="round" stroke-linejoin="round" stroke-width="5">
                            <path d="M0.5,1.5 L522.5,1.5" id="Line-3"></path>
                            <path d="M531.5,1.5 L543.5,1.5" id="Line-4"></path>
                        </g>
                        <g id="Group-6" transform="translate(63.000000, 30.000000)">
                            <g id="Group-4">
                                <g id="Page-1" transform="translate(60.000000, 234.500000) scale(-1, 1) translate(-60.000000, -234.500000) translate(32.000000, 208.000000)" fill="#FFFFFF" stroke="#DCE9FC" stroke-width="2">
                                    <path d="M42.6086957,2.88021051 L42.6086957,49.4691809 C42.6086957,51.0564274 41.29011,52.3478261 39.6678502,52.3478261 L2.94084549,52.3478261 C1.31858562,52.3478261 3.55271368e-14,51.0564274 3.55271368e-14,49.4691809 L3.55271368e-14,2.88021051 C3.55271368e-14,1.29139874 1.31858562,-8.52651283e-14 2.94084549,-8.52651283e-14 L39.6678502,-8.52651283e-14 C41.29011,-8.52651283e-14 42.6086957,1.29139874 42.6086957,2.88021051 Z" id="Fill-1"></path>
                                    <path d="M42.6086957,12.173913 L42.6086957,17.7744677 C46.9109953,17.7744677 50.3994454,21.2629177 50.3994454,25.5664376 C50.3994454,29.8687372 46.9109953,33.3559671 42.6086957,33.3559671 L42.6086957,38.9565217 C50.0041121,38.9565217 56,32.9606339 56,25.5664376 C56,18.1698009 50.0041121,12.173913 42.6086957,12.173913" id="Fill-1"></path>
                                </g>
                                <path d="M332.46818,198.445715 C378.669709,198.445715 416.123449,160.991975 416.123449,114.790445 C416.123449,68.5889154 378.669709,31.1351754 332.46818,31.1351754 C286.26665,31.1351754 248.81291,68.5889154 248.81291,114.790445 C248.81291,160.991975 286.26665,198.445715 332.46818,198.445715 Z" id="Oval" stroke="#DCE9FC" stroke-width="2" stroke-linecap="round" stroke-dasharray="2,8"></path>
                                <circle id="Oval" stroke="#DCE9FC" stroke-linecap="round" cx="332.524975" cy="114.845048" r="62.8981302"></circle>
                                <path d="M94,246 L352,246 L352,74.4516882 C352,70.8723615 349.350763,68 346.125258,68 L99.8747422,68 C96.6492372,68 94,70.8723615 94,74.4516882 L94,246 Z" id="Fill-1" stroke="#D7E5FB" stroke-width="2" fill="#FFFFFF"></path>
                                <path d="M107.5,232.5 L338.5,232.5 L338.5,81.5 L107.5,81.5 L107.5,232.5 Z" id="Fill-5" stroke="#D7E5FB" fill="#FFFFFF"></path>
                                <path d="M115.4,91 L329.6,91 C329.820914,91 330,91.1790861 330,91.4 L330,115 L115,115 L115,91.4 C115,91.1790861 115.179086,91 115.4,91 Z" id="Rectangle-23" fill="#D7E5FB"></path>
                                <path d="M115.4,169 L218.6,169 C218.820914,169 219,169.179086 219,169.4 L219,193 L115,193 L115,169.4 C115,169.179086 115.179086,169 115.4,169 Z" id="Rectangle-23-Copy-8" fill="#D7E5FB"></path>
                                <path d="M226.4,169 L329.6,169 C329.820914,169 330,169.179086 330,169.4 L330,193 L226,193 L226,169.4 C226,169.179086 226.179086,169 226.4,169 Z" id="Rectangle-23-Copy-10" fill="#D7E5FB"></path>
                                <path d="M115.4,123 L329.6,123 C329.820914,123 330,123.179086 330,123.4 L330,138 L115,138 L115,123.4 C115,123.179086 115.179086,123 115.4,123 Z" id="Rectangle-23-Copy-4" fill="#D7E5FB"></path>
                                <path d="M115.4,201 L329.6,201 C329.820914,201 330,201.179086 330,201.4 L330,209 L115,209 L115,201.4 C115,201.179086 115.179086,201 115.4,201 Z" id="Rectangle-23-Copy-9" fill="#D7E5FB"></path>
                                <path d="M115.4,217 L329.6,217 C329.820914,217 330,217.179086 330,217.4 L330,225 L115,225 L115,217.4 C115,217.179086 115.179086,217 115.4,217 Z" id="Rectangle-23-Copy-11" fill="#D7E5FB"></path>
                                <path d="M115.4,146 L329.6,146 C329.820914,146 330,146.179086 330,146.4 L330,161 L115,161 L115,146.4 C115,146.179086 115.179086,146 115.4,146 Z" id="Rectangle-23-Copy-6" fill="#D7E5FB"></path>
                                <path d="M87.0289742,261 C84.8034456,261 83,259.075273 83,256.700078 L83,250.299922 C83,247.924727 84.8034456,246 87.0289742,246 L358.971026,246 C361.196554,246 363,247.924727 363,250.299922 L363,256.700078 C363,259.075273 361.196554,261 358.971026,261 L87.0289742,261 Z" id="Fill-9" stroke="#D7E5FB" stroke-width="2" fill="#FFFFFF"></path>
                                <path d="M203.212264,251 C201.23408,251 199.447524,249.960157 198.660377,248.353364 L198,247 L248,247 L247.339623,248.353364 C246.552476,249.960157 244.76592,251 242.787736,251 L203.212264,251 Z" id="Fill-13" fill="#DCE9FC"></path>
                                <path d="M87.5068406,155.520522 C88.2499535,155.747249 88.9624549,156.044154 89.6366221,156.403514 L93.8994949,154.272078 L96.7279221,157.100505 L94.5964857,161.363378 C94.9558459,162.037545 95.252751,162.750046 95.4794783,163.493159 L100,165 L100,169 L95.4794783,170.506841 C95.252751,171.249954 94.9558459,171.962455 94.5964857,172.636622 L96.7279221,176.899495 L93.8994949,179.727922 L89.6366221,177.596486 C88.9624549,177.955846 88.2499535,178.252751 87.5068406,178.479478 L86,183 L82,183 L80.4931594,178.479478 C79.7500465,178.252751 79.0375451,177.955846 78.3633779,177.596486 L74.1005051,179.727922 L71.2720779,176.899495 L73.4035143,172.636622 C73.0441541,171.962455 72.747249,171.249954 72.5205217,170.506841 L68,169 L68,165 L72.5205217,163.493159 C72.747249,162.750046 73.0441541,162.037545 73.4035143,161.363378 L71.2720779,157.100505 L74.1005051,154.272078 L78.3633779,156.403514 C79.0375451,156.044154 79.7500465,155.747249 80.4931594,155.520522 L82,151 L86,151 L87.5068406,155.520522 L87.5068406,155.520522 Z M84.4444444,172.333333 C87.1445032,172.333333 89.3333333,170.144503 89.3333333,167.444444 C89.3333333,164.744386 87.1445032,162.555556 84.4444444,162.555556 C81.7443857,162.555556 79.5555556,164.744386 79.5555556,167.444444 C79.5555556,170.144503 81.7443857,172.333333 84.4444444,172.333333 Z" id="Combined-Shape" fill="#F6CA46"></path>
                                <path d="M19.3738216,151.845493 L25.509023,153.387774 C27.4321945,153.872768 27.4321945,156.672154 25.509023,157.157148 L19.3738216,158.699429 C18.7239223,158.862386 18.2085502,159.3629 18.0133909,160.018612 L15.28874,169.171419 C14.7449467,171.002756 12.2097708,171.002756 11.6640827,169.171419 L8.93943182,160.018612 C8.74616729,159.3629 8.22890046,158.862386 7.57900112,158.699429 L1.44379971,157.157148 C-0.481266571,156.672154 -0.481266571,153.872768 1.44379971,153.387774 L7.57900112,151.845493 C8.22890046,151.682535 8.74616729,151.182022 8.93943182,150.52631 L11.6640827,141.373503 C12.2097708,139.542166 14.7449467,139.542166 15.28874,141.373503 L18.0133909,150.52631 C18.2085502,151.182022 18.7239223,151.682535 19.3738216,151.845493" id="Fill-1" stroke="#D7E5FB" stroke-width="2" fill="#FFFFFF"></path>
                                <path d="M435.373822,180.845493 L441.509023,182.387774 C443.432195,182.872768 443.432195,185.672154 441.509023,186.157148 L435.373822,187.699429 C434.723922,187.862386 434.20855,188.3629 434.013391,189.018612 L431.28874,198.171419 C430.744947,200.002756 428.209771,200.002756 427.664083,198.171419 L424.939432,189.018612 C424.746167,188.3629 424.2289,187.862386 423.579001,187.699429 L417.4438,186.157148 C415.518733,185.672154 415.518733,182.872768 417.4438,182.387774 L423.579001,180.845493 C424.2289,180.682535 424.746167,180.182022 424.939432,179.52631 L427.664083,170.373503 C428.209771,168.542166 430.744947,168.542166 431.28874,170.373503 L434.013391,179.52631 C434.20855,180.182022 434.723922,180.682535 435.373822,180.845493" id="Fill-1-Copy-3" stroke="#D7E5FB" stroke-width="2" fill="#FFFFFF"></path>
                                <path d="M89.3378249,26.9330618 C93.256186,27.908756 93.256186,33.5404627 89.3378249,34.5161569 L76.8376737,37.6188644 C75.5135378,37.9466976 74.4634943,38.953614 74.0658675,40.2727525 L68.5145341,58.6860529 C67.4065837,62.370274 62.2412958,62.370274 61.1294849,58.6860529 L55.5781516,40.2727525 C55.1843852,38.953614 54.1304812,37.9466976 52.8063453,37.6188644 L40.3061941,34.5161569 C36.3839725,33.5404627 36.3839725,27.908756 40.3061941,26.9330618 L52.8063453,23.8303544 C54.1304812,23.5025211 55.1843852,22.4956048 55.5781516,21.1764662 L61.1294849,2.76316589 C62.2412958,-0.921055295 67.4065837,-0.921055295 68.5145341,2.76316589 L74.0658675,21.1764662 C74.4634943,22.4956048 75.5135378,23.5025211 76.8376737,23.8303544 L89.3378249,26.9330618 Z" id="Fill-1-Copy" stroke="#D7E5FB" stroke-width="2" fill="#FFFFFF"></path>
                            </g>
                            <path d="M45.3856059,99.6143941 C45.1348368,98.7870253 45,97.9092591 45,97 C45,92.0294373 49.0294373,88 54,88 C55.4539504,88 56.8273749,88.3447724 58.0429782,88.9570218 L52,95 L56,99 L62.0429782,92.9570218 C62.6552276,94.1726251 63,95.5460496 63,97 C63,101.970563 58.9705627,106 54,106 C53.0907409,106 52.2129747,105.865163 51.3856059,105.614394 L37,120 L31,114 L45.3856059,99.6143941 L45.3856059,99.6143941 Z" id="Combined-Shape" fill="#F6CA46"></path>
                            <mask id="mask-2" fill="white">
                                <use xlink:href="#path-1"></use>
                            </mask>
                            <use id="Combined-Shape" fill="#F6B610" xlink:href="#path-1"></use>
                        </g>
                        <g id="illustration-modal" transform="translate(126.000000, 0.000000)">
                            <g id="Group-6">
                                <polygon id="Path-2-Copy" fill="url(#linearGradient-3)" opacity="0.350000024" points="170 34.5358126 326.434986 4 247.150323 227.484375 200.546394 227.484375"></polygon>
                                <polygon id="Fill-16" fill="#E3E3E3" style="mix-blend-mode: multiply;" opacity="0.9" points="76 234 251 234 251 99 76 99"></polygon>
                                <polygon id="Path-2-Copy" fill="url(#linearGradient-3)" opacity="0.350000024" transform="translate(78.217493, 111.742188) scale(-1, 1) translate(-78.217493, -111.742188) " points="0 30.5358126 156.434986 0 77.1503233 223.484375 30.5463944 223.484375"></polygon>
                                <rect id="Rectangle-28" fill="#E3E3E3" style="mix-blend-mode: multiply;" opacity="0.9" x="87.1310345" y="121" width="121.77931" height="103.5"></rect>
                                <rect id="Rectangle-16" stroke="#777777" stroke-width="2" fill="#FFFFFF" x="80.6137931" y="77" width="166.386207" height="151" rx="3.6"></rect>
                                <rect id="Rectangle-23-Copy" fill="#777777" x="94" y="128.5" width="139.82069" height="8"></rect>
                                <rect id="Rectangle-23-Copy-2" fill="#777777" x="94" y="112" width="66.1517241" height="8"></rect>
                                <rect id="Rectangle-23-Copy-3" fill="#777777" x="94" y="146.5" width="139.82069" height="8"></rect>
                                <rect id="Rectangle-17-Copy-3" fill="#D13239" x="93.1448276" y="197.5" width="66.1517241" height="18"></rect>
                                <rect id="Rectangle-23-Copy-5" fill="#777777" x="94" y="164.5" width="139.82069" height="8"></rect>
                                <rect id="Rectangle-23-Copy-7" fill="#777777" x="94" y="181" width="139.82069" height="8"></rect>
                                <path d="M83.2137931,76 L244.4,76 C246.388225,76 248,77.6117749 248,79.6 L248,97 L79.6137931,97 L79.6137931,79.6 C79.6137931,77.6117749 81.225568,76 83.2137931,76 Z" id="Rectangle-17" fill="#777777"></path>
                                <rect id="Rectangle-17-Copy-2" fill="#D9D9D9" x="166.813793" y="197.5" width="66.1517241" height="18"></rect>
                                <g id="Group-15" transform="translate(199.000000, 177.000000)">
                                    <g id="Resize-Button">
                                        <rect id="Rectangle-17-Copy" fill="#39A364" x="6" y="6" width="66.1517241" height="18"></rect>
                                        <g id="Group-3" stroke="#39A364">
                                            <use id="Rectangle-2" mask="url(#mask-5)" stroke-width="3" stroke-dasharray="1.5,3" xlink:href="#path-4"></use>
                                            <ellipse id="Oval" stroke-width="1.5" fill="#FFFFFF" cx="2.25517241" cy="29.25" rx="2.25517241" ry="2.25"></ellipse>
                                            <ellipse id="Oval-Copy-2" stroke-width="1.5" fill="#FFFFFF" cx="75.9241379" cy="29.25" rx="2.25517241" ry="2.25"></ellipse>
                                            <ellipse id="Oval-Copy" stroke-width="1.5" fill="#FFFFFF" cx="2.25517241" cy="2.25" rx="2.25517241" ry="2.25"></ellipse>
                                            <ellipse id="Oval-Copy-3" stroke-width="1.5" fill="#FFFFFF" cx="75.9241379" cy="2.25" rx="2.25517241" ry="2.25"></ellipse>
                                        </g>
                                    </g>
                                </g>
                            </g>
                        </g>
                        <mask id="mask-7" fill="white">
                            <use xlink:href="#path-6"></use>
                        </mask>
                        <use id="Combined-Shape" fill="#F6B610" xlink:href="#path-6"></use>
                        <path d="M139.5,237.5 L139.5,249.5" id="Line-2" stroke="#DCE9FC" stroke-linecap="square" mask="url(#mask-7)"></path>
                        <path d="M139.496332,250.040388 L136.693554,252.214355 C136.571451,252.309064 136.5,252.45491 136.5,252.609439 L136.5,257.918359 C136.5,258.194502 136.723858,258.418359 137,258.418359 L141.798828,258.418359 C142.07497,258.418359 142.298828,258.194502 142.298828,257.918359 L142.298828,252.590582 C142.298828,252.441425 142.232236,252.300056 142.117233,252.205072 L139.496332,250.040388 Z" id="Rectangle-2" stroke="#DCE9FC" mask="url(#mask-7)"></path>
                    </g>
                </g>
            </g>
        </g>
    </g>
</svg>