<svg xmlns="http://www.w3.org/2000/svg" xmlns:xlink="http://www.w3.org/1999/xlink" width="36" height="36" viewBox="0 0 36 36">
  <defs>
    <circle id="profile_icon_no_circle-a" cx="18" cy="18" r="18"/>
    <polygon id="profile_icon_no_circle-c" points="1.5 1.958 1.5 .458 .078 .458 .078 1.958 1.5 1.958"/>
    <polygon id="profile_icon_no_circle-d" points="1.5 1.958 1.5 .458 .078 .458 .078 1.958 1.5 1.958"/>
    <polygon id="profile_icon_no_circle-e" points="1.5 1.958 1.5 .458 .078 .458 .078 1.958 1.5 1.958"/>
    <polygon id="profile_icon_no_circle-f" points="24 10.5 24 0 .001 0 .001 10.5 24 10.5"/>
  </defs>
  <g fill="none" fill-rule="evenodd">
    <mask id="profile_icon_no_circle-b" fill="#fff">
      <use xlink:href="#profile_icon_no_circle-a"/>
    </mask>
    <use fill="#D8D8D8" xlink:href="#profile_icon_no_circle-a"/>
    <g mask="url(#profile_icon_no_circle-b)">
      <g transform="translate(6 7.5)">
        <g transform="translate(22.5 16.5)"/>
        <g transform="translate(22.5 16.5)"/>
        <g transform="translate(22.5 16.5)"/>
        <path fill="#999" d="M18,6 C18,9.3135 15.3135,12 12,12 C8.6865,12 6,9.3135 6,6 C6,2.6865 8.6865,0 12,0 C15.3135,0 18,2.6865 18,6"/>
        <g transform="translate(0 13.5)">
          <mask id="profile_icon_no_circle-g" fill="#fff">
            <use xlink:href="#profile_icon_no_circle-f"/>
          </mask>
          <path fill="#999" d="M22.9416,3.73035 C22.8216,3.63735 22.7001,3.54735 22.5786,3.45885 C19.6056,1.29285 15.9576,-0.00015 12.0006,-0.00015 C8.0421,-0.00015 4.3941,1.29285 1.4226,3.45885 C1.2996,3.54735 1.1781,3.63735 1.0581,3.73035 C0.4161,4.28085 0.000599999999,5.08785 0.000599999999,5.99985 L0.000599999999,10.49985 L24.0006,10.49985 L24.0006,5.99985 C24.0006,5.08785 23.5836,4.28085 22.9416,3.73035" mask="url(#profile_icon_no_circle-g)"/>
        </g>
        <rect width="24" height="7" y="23" fill="#999"/>
      </g>
    </g>
  </g>
</svg>
