<?xml version="1.0" encoding="UTF-8" standalone="no"?>
<svg width="122px" height="168px" viewBox="0 0 122 168" version="1.1" xmlns="http://www.w3.org/2000/svg" xmlns:xlink="http://www.w3.org/1999/xlink">
    <!-- Generator: Sketch 41.2 (35397) - http://www.bohemiancoding.com/sketch -->
    <title>clipboard</title>
    <desc>Created with Sketch.</desc>
    <defs>
        <rect id="path-1" x="0" y="15" width="122" height="153" rx="6"></rect>
        <mask id="mask-2" maskContentUnits="userSpaceOnUse" maskUnits="objectBoundingBox" x="0" y="0" width="122" height="153" fill="white">
            <use xlink:href="#path-1"></use>
        </mask>
        <rect id="path-3" x="12.0493827" y="24.75" width="97.9012346" height="133.5" rx="1.5"></rect>
        <mask id="mask-4" maskContentUnits="userSpaceOnUse" maskUnits="objectBoundingBox" x="0" y="0" width="97.9012346" height="133.5" fill="white">
            <use xlink:href="#path-3"></use>
        </mask>
        <path d="M42.9259259,20.1160695 C42.9259259,17.8122275 42.9259259,15.8373002 42.9259259,15 C42.9259259,6.71572875 36.1825604,0 27.8641975,0 C19.5458346,0 12.8024691,6.71572875 12.8024691,15 L12.8024691,20.25 L7.12882345,20.25 C3.1963598,20.25 0,23.4399712 0,27.375 L0,33.0019336 C0,33.831806 0.667364328,34.5 1.49059995,34.5 L54.2377951,34.5 C55.0637162,34.5 55.7283951,33.8292928 55.7283951,33.0019336 L55.7283951,27.375 C55.7283951,23.4479782 52.5367121,20.25 48.5995716,20.25 L42.9259259,20.25 Z" id="path-5"></path>
        <mask id="mask-6" maskContentUnits="userSpaceOnUse" maskUnits="objectBoundingBox" x="0" y="0" width="55.7283951" height="34.5" fill="white">
            <use xlink:href="#path-5"></use>
        </mask>
    </defs>
    <g id="test-flow" stroke="none" stroke-width="1" fill="none" fill-rule="evenodd">
        <g id="marketing-post-signing-page" transform="translate(-127.000000, -145.000000)" stroke="#2C6EE1">
            <g id="clipboard" transform="translate(127.000000, 145.000000)">
                <use id="Rectangle-7" mask="url(#mask-2)" stroke-width="6" fill="#D7E5FB" xlink:href="#path-1"></use>
                <use id="Rectangle-7" mask="url(#mask-4)" stroke-width="6" fill="#FFFFFF" xlink:href="#path-3"></use>
                <g id="clip" transform="translate(33.888889, 0.000000)">
                    <use id="Combined-Shape" mask="url(#mask-6)" stroke-width="6" fill="#D7E5FB" xlink:href="#path-5"></use>
                    <ellipse id="Oval-9" stroke-width="1.5" fill="#FFFFFF" cx="27.8641975" cy="14.25" rx="3.7654321" ry="3.75"></ellipse>
                </g>
                <g id="Group-8" transform="translate(25.604938, 45.000000)">
                    <ellipse id="Oval-10" stroke-width="1.5" fill="#D7E5FB" cx="6.02469136" cy="6" rx="6.02469136" ry="6"></ellipse>
                    <polyline id="Path-2" stroke-linecap="round" stroke-linejoin="round" points="3 6 5.57142857 8 9 4"></polyline>
                    <path d="M22.5925926,6.375 L70.7901235,6.375" id="Line" stroke-width="2.25" stroke-linecap="round"></path>
                </g>
                <g id="Group-5" transform="translate(25.604938, 72.000000)">
                    <ellipse id="Oval-10-Copy" stroke-width="1.5" fill="#D7E5FB" cx="6.02469136" cy="6" rx="6.02469136" ry="6"></ellipse>
                    <polyline id="Path-2" stroke-linecap="round" stroke-linejoin="round" points="3 6 5.57142857 8 9 4"></polyline>
                    <path d="M22.5925926,6.375 L70.7901235,6.375" id="Line-Copy-4" stroke-width="2.25" stroke-linecap="round"></path>
                </g>
                <g id="Group-4" transform="translate(25.604938, 126.000000)">
                    <ellipse id="Oval-10-Copy-2" stroke-width="1.5" fill="#D7E5FB" cx="6.02469136" cy="6" rx="6.02469136" ry="6"></ellipse>
                    <polyline id="Path-2" stroke-linecap="round" stroke-linejoin="round" points="3 6 5.57142857 8 9 4"></polyline>
                    <path d="M22.5925926,6.375 L70.7901235,6.375" id="Line-Copy-5" stroke-width="2.25" stroke-linecap="round"></path>
                </g>
                <g id="Group-3" transform="translate(25.604938, 99.000000)">
                    <ellipse id="Oval-10-Copy-3" stroke-width="1.5" fill="#D7E5FB" cx="6.02469136" cy="6" rx="6.02469136" ry="6"></ellipse>
                    <polyline id="Path-2" stroke-linecap="round" stroke-linejoin="round" points="3 6 5.57142857 8 9 4"></polyline>
                    <path d="M22.5925926,6.375 L70.7901235,6.375" id="Line-Copy-6" stroke-width="2.25" stroke-linecap="round"></path>
                </g>
            </g>
        </g>
    </g>
</svg>