<?xml version="1.0" encoding="UTF-8" standalone="no"?>
<svg width="46px" height="28px" viewBox="0 0 46 28" version="1.1" xmlns="http://www.w3.org/2000/svg" xmlns:xlink="http://www.w3.org/1999/xlink">
    <!-- Generator: Sketch 43.1 (39012) - http://www.bohemiancoding.com/sketch -->
    <title>Stroke 118</title>
    <desc>Created with Sketch.</desc>
    <defs>
        <path d="M11.9985993,26.2877074 L1.66300446,16.1802413 C0.914338197,15.5326169 0.5,14.6644042 0.5,13.7339744 C0.502857505,12.8035445 0.914338197,11.9325038 1.65157444,11.2990196 L11.9643093,1.2254902 C12.675828,0.614630468 13.610232,0.275263952 14.5989287,0.275263952 L41.6337817,0.196078431 L41.6423542,0.196078431 C43.7369052,0.196078431 45.4428356,1.71191554 45.4485506,3.58408748 L45.4999857,23.765083 C45.5057007,25.640083 43.7997703,27.1700603 41.6995043,27.1728884 L14.6675088,27.254902 L14.6675088,27.254902 L14.6589363,27.254902 C13.6645246,27.254902 12.7244056,26.9155354 11.9985993,26.2877074 Z" id="path-1"></path>
    </defs>
    <g id="Main-Desktop-Flow" stroke="none" stroke-width="1" fill="none" fill-rule="evenodd">
        <g id="2.1-Question-for-me-and-others-selected" transform="translate(-1163.000000, -371.000000)">
            <g id="Group-7-Copy" transform="translate(841.000000, 193.000000)">
                <g id="Group-2" transform="translate(119.000000, 50.000000)">
                    <g id="person" transform="translate(203.000000, 128.000000)">
                        <g id="Stroke-118">
                            <use fill="#AAF3F5" fill-rule="evenodd" xlink:href="#path-1"></use>
                            <path stroke="#55DCE1" stroke-width="1.5" d="M12.5057057,25.7346009 L2.18738382,15.6440266 C1.56564237,15.1043476 1.25,14.4410864 1.25,13.7339744 C1.25217786,13.0259944 1.56666561,12.3608259 2.14036477,11.8678641 L12.4883806,1.76200606 C13.0284841,1.30035021 13.7898015,1.02526395 14.5989287,1.02526395 L41.6359784,0.946075214 L41.6423542,0.946078431 C43.34242,0.946078431 44.6941653,2.14865431 44.6985541,3.58637693 L44.7499881,23.7669945 C44.754379,25.2076062 43.4017032,26.4205957 41.6984944,26.4228891 L14.6652334,26.5049054 L14.6589363,26.504902 C13.8476944,26.504902 13.0895279,26.2325189 12.5057057,25.7346009 Z"></path>
                        </g>
                    </g>
                </g>
            </g>
        </g>
    </g>
</svg>