<?xml version="1.0" encoding="utf-8"?>
<!-- Generator: Adobe Illustrator 17.1.0, SVG Export Plug-In . SVG Version: 6.00 Build 0)  -->
<!DOCTYPE svg PUBLIC "-//W3C//DTD SVG 1.1//EN" "http://www.w3.org/Graphics/SVG/1.1/DTD/svg11.dtd">
<svg version="1.1" id="Layer_1" xmlns="http://www.w3.org/2000/svg" xmlns:xlink="http://www.w3.org/1999/xlink" x="0px" y="0px"
	 width="212px" height="142px" viewBox="0 0 212 142" enable-background="new 0 0 212 142" xml:space="preserve">
<g>
	<g>
		<path fill="#333333" d="M90.6,35.7c0,3.6-3.4,5.9-7.4,5.9c-3,0-5.3-0.8-7-1.8v-3.9c1.5,1.1,3.5,2,6.1,2c2.2,0,4.4-0.5,4.4-2.5
			c0-4.7-10.8-2-10.8-9.5c0-4.4,3.6-6.2,7.6-6.2c2.1,0,4.1,0.6,5.7,1.5V25c-1.3-0.9-3.1-1.6-5.3-1.6c-2,0-4.2,0.6-4.2,2.5
			C79.7,29.8,90.6,27,90.6,35.7z"/>
		<path fill="#333333" d="M94.9,23.2v-3.5h3.9v3.5H94.9z M94.9,41.4v-16h3.8v16H94.9z"/>
		<path fill="#333333" d="M116.4,30.4v11.4c0,2.2-0.9,5.9-7.2,5.9c-1.9,0-3.5-0.3-4.6-0.6v-3.4c1,0.3,2.4,0.6,4.2,0.6
			c3.8,0,3.8-1.4,3.8-2.4v-0.9c-0.8,0.2-1.6,0.3-2.4,0.3c-4.6,0-7.2-2.8-7.2-7.8c0-7.4,4.9-8.2,6.9-8.2
			C114.7,25.1,116.4,27.9,116.4,30.4z M112.5,30.4c0-1.4-1.2-1.8-2.7-1.8c-1.9,0-3.1,1.2-3.1,4.8c0,3.8,1.3,4.6,3.5,4.6
			c0.9,0,1.7-0.1,2.3-0.2V30.4z"/>
		<path fill="#333333" d="M135.2,31.8v9.6h-3.8v-9.9c0-1.4-0.3-2.9-3.8-2.9c-1.1,0-2.1,0.1-3,0.3v12.5h-3.8V26.9
			c0.1-0.1,3.3-1.8,7.3-1.8C132.6,25.1,135.2,27.6,135.2,31.8z"/>
	</g>
</g>
<rect x="60" y="107" fill="#333333" width="92" height="4"/>
<g>
	<polygon fill="#333333" points="115,76.4 115,57.3 97,57.3 97,76.4 85,76.4 106,100.5 127,76.4 	"/>
</g>
</svg>
