<svg width="49" height="76" viewBox="0 0 49 76" fill="none" xmlns="http://www.w3.org/2000/svg">
<path d="M37.4401 62.61C34.1201 65.57 29.9801 67.45 25.0001 68.25C24.7001 68.37 24.5201 68.53 24.4901 68.76L23.6001 74.31C23.5501 74.6 23.4001 74.84 23.1701 75.04C22.9301 75.24 22.6701 75.34 22.3901 75.34H13.8401C13.5601 75.34 13.3301 75.24 13.1701 75.04C13.0001 74.84 12.9501 74.6 13.0001 74.31L14.0801 68.68C14.1201 68.45 14.0101 68.28 13.7401 68.17C9.07007 67.2 5.62007 65.21 3.39007 62.19C1.16007 59.17 0.450068 55.39 1.25007 50.83L1.58007 48.95C1.63007 48.67 1.77006 48.43 2.01006 48.23C2.24006 48.03 2.50006 47.93 2.79006 47.93H12.0201C12.3001 47.93 12.5301 48.03 12.6901 48.23C12.8601 48.43 12.9101 48.67 12.8601 48.95L12.6301 50.23C12.2301 52.51 12.8901 54.43 14.6101 55.99C16.3301 57.56 18.9201 58.34 22.4001 58.34C25.3001 58.34 27.5701 57.7 29.1901 56.42C30.8101 55.14 31.7901 53.56 32.1201 51.68C32.3601 50.31 32.1401 49.16 31.4501 48.22C30.7701 47.28 29.7301 46.45 28.3501 45.74C26.9601 45.03 24.7601 44.05 21.7401 42.79C18.2701 41.48 15.4001 40.14 13.1401 38.78C10.8701 37.41 9.08006 35.54 7.76006 33.18C6.44006 30.82 6.09007 27.9 6.70007 24.42C7.47007 20.04 9.44007 16.41 12.6001 13.53C15.7501 10.65 19.6501 8.78999 24.3101 7.92999C24.6101 7.81999 24.7801 7.65 24.8201 7.42L25.7501 1.19C25.8001 0.910002 25.9401 0.660007 26.1801 0.460007C26.4101 0.260007 26.6701 0.160004 26.9601 0.160004H35.5001C35.7801 0.160004 36.0101 0.260007 36.1701 0.460007C36.3301 0.660007 36.3901 0.900002 36.3401 1.19L35.1201 7.60001C35.0801 7.83001 35.1901 8 35.4601 8.11C40.0101 9.08 43.4101 11.14 45.6401 14.3C47.8701 17.46 48.5901 21.32 47.7801 25.87L47.5501 27.15C47.5001 27.43 47.3601 27.68 47.1201 27.88C46.8801 28.08 46.6301 28.18 46.3401 28.18H37.0301C36.7501 28.18 36.5201 28.08 36.3601 27.88C36.1901 27.68 36.1401 27.44 36.1901 27.15L36.3101 26.47C36.7301 24.08 36.1501 22.04 34.5701 20.36C32.9801 18.68 30.5701 17.84 27.3301 17.84C24.7701 17.84 22.6701 18.41 21.0501 19.55C19.4301 20.69 18.4401 22.26 18.0901 24.25C17.8401 25.67 18.0401 26.87 18.7001 27.83C19.3501 28.8 20.4401 29.68 21.9501 30.48C23.4601 31.28 25.8401 32.3 29.1001 33.55C32.6601 34.98 35.4601 36.26 37.4801 37.4C39.5001 38.54 41.1901 40.25 42.5601 42.53C43.9301 44.81 44.2901 47.74 43.6601 51.33C42.8101 55.9 40.7501 59.65 37.4401 62.61Z" fill="url(#paint0_linear)"/>
<defs>
<linearGradient id="paint0_linear" x1="62.3554" y1="37.7558" x2="-42.6876" y2="37.7558" gradientUnits="userSpaceOnUse">
<stop stop-color="#36A457"/>
<stop offset="1" stop-color="white"/>
</linearGradient>
</defs>
</svg>
