<svg width="49" height="76" viewBox="0 0 49 76" fill="none" xmlns="http://www.w3.org/2000/svg">
<path d="M37.4 63.04C34.08 66 29.94 67.88 24.96 68.68C24.66 68.8 24.48 68.96 24.44 69.19L23.55 74.74C23.5 75.03 23.35 75.27 23.12 75.47C22.88 75.67 22.62 75.77 22.34 75.77H13.8C13.52 75.77 13.29 75.67 13.13 75.47C12.96 75.27 12.91 75.03 12.96 74.74L14.04 69.11C14.08 68.88 13.97 68.71 13.7 68.59C9.03003 67.62 5.58003 65.63 3.35003 62.61C1.12003 59.59 0.410029 55.81 1.21003 51.25L1.54003 49.37C1.59003 49.09 1.73003 48.85 1.97003 48.65C2.20003 48.45 2.46003 48.35 2.75003 48.35H11.98C12.26 48.35 12.49 48.45 12.65 48.65C12.82 48.85 12.87 49.09 12.82 49.37L12.59 50.65C12.19 52.93 12.85 54.85 14.57 56.41C16.29 57.98 18.88 58.76 22.36 58.76C25.26 58.76 27.53 58.12 29.15 56.84C30.77 55.56 31.75 53.98 32.08 52.1C32.32 50.73 32.1 49.58 31.41 48.64C30.73 47.7 29.69 46.87 28.31 46.16C26.92 45.45 24.72 44.47 21.7 43.21C18.23 41.9 15.36 40.56 13.1 39.2C10.83 37.83 9.04003 35.96 7.72003 33.6C6.40003 31.24 6.05003 28.32 6.66003 24.84C7.43003 20.46 9.40003 16.83 12.56 13.95C15.71 11.07 19.61 9.21 24.27 8.35C24.57 8.24 24.74 8.07 24.79 7.84L25.72 1.61C25.77 1.33 25.91 1.08 26.15 0.880001C26.38 0.680001 26.64 0.580002 26.93 0.580002H35.47C35.75 0.580002 35.98 0.680001 36.14 0.880001C36.3 1.08 36.36 1.32 36.31 1.61L35.09 8.02C35.05 8.25 35.16 8.42 35.43 8.53C39.98 9.5 43.38 11.56 45.61 14.72C47.84 17.88 48.56 21.74 47.75 26.29L47.52 27.57C47.47 27.85 47.33 28.1 47.09 28.3C46.85 28.5 46.6 28.6 46.31 28.6H37C36.72 28.6 36.49 28.5 36.33 28.3C36.16 28.1 36.11 27.86 36.16 27.57L36.28 26.89C36.7 24.5 36.12 22.46 34.54 20.78C32.95 19.1 30.54 18.26 27.3 18.26C24.74 18.26 22.64 18.83 21.02 19.97C19.4 21.11 18.41 22.68 18.06 24.67C17.81 26.09 18.01 27.29 18.67 28.25C19.32 29.22 20.41 30.1 21.92 30.9C23.43 31.7 25.81 32.72 29.07 33.97C32.63 35.4 35.43 36.68 37.45 37.82C39.47 38.96 41.16 40.67 42.53 42.95C43.9 45.23 44.26 48.16 43.63 51.75C42.77 56.32 40.71 60.08 37.4 63.04Z" fill="url(#paint0_linear)"/>
<defs>
<linearGradient id="paint0_linear" x1="64.0157" y1="38.1845" x2="-79.7264" y2="38.1845" gradientUnits="userSpaceOnUse">
<stop stop-color="#36A457"/>
<stop offset="1" stop-color="white"/>
</linearGradient>
</defs>
</svg>
