<?xml version="1.0" encoding="UTF-8"?>
<svg width="48px" height="59px" viewBox="0 0 48 59" version="1.1" xmlns="http://www.w3.org/2000/svg" xmlns:xlink="http://www.w3.org/1999/xlink">
    <!-- Generator: Sketch 50.2 (55047) - http://www.bohemiancoding.com/sketch -->
    <title>Passport</title>
    <desc>Created with Sketch.</desc>
    <defs></defs>
    <g id="Signing" stroke="none" stroke-width="1" fill="none" fill-rule="evenodd">
        <g id="2---ID-Checklist" transform="translate(-638.000000, -342.000000)">
            <g id="Group-4" transform="translate(635.000000, 342.000000)">
                <g id="Group-3">
                    <g id="Passport" transform="translate(3.000000, 0.000000)">
                        <g id="passport">
                            <path d="M39.1578947,0 L1.26315789,0 C0.565894737,0 0,0.564856801 0,1.26366175 L0,56.8647786 C0,57.5635836 0.565894737,58.1284404 1.26315789,58.1284404 L39.1578947,58.1284404 C44.0336842,58.1284404 48,54.1592788 48,49.2828081 L48,8.84563223 C48,3.96916155 44.0336842,0 39.1578947,0 Z" id="Shape" fill="#2E2F4E" fill-rule="nonzero"></path>
                            <path d="M32.6697248,42.7155963 L15.3302752,42.7155963 C14.6466055,42.7155963 14.0917431,42.1250642 14.0917431,41.3944954 C14.0917431,40.6639266 14.6466055,40.0733945 15.3302752,40.0733945 L32.6697248,40.0733945 C33.3533945,40.0733945 33.9082569,40.6639266 33.9082569,41.3944954 C33.9082569,42.1250642 33.3533945,42.7155963 32.6697248,42.7155963 Z" id="Shape" fill="#68688B" fill-rule="nonzero"></path>
                            <path d="M24.2201835,7.48623853 C17.1784514,7.48623853 11.4495413,13.1163743 11.4495413,20.0366972 C11.4495413,26.9570202 17.1784514,32.587156 24.2201835,32.587156 C31.2619156,32.587156 36.9908257,26.9570202 36.9908257,20.0366972 C36.9908257,13.1163743 31.2619156,7.48623853 24.2201835,7.48623853 Z M34.3485798,18.7816514 L30.3935119,18.7816514 C30.2543119,15.6716477 29.599178,12.9620037 28.5915743,10.9752661 C31.6731303,12.4173138 33.9067156,15.325255 34.3485798,18.7816514 Z M24.2201835,30.0770642 C22.8371229,30.0770642 20.8742752,26.6934606 20.6048147,21.2917431 L27.8342752,21.2917431 C27.5660917,26.6934606 25.603244,30.0770642 24.2201835,30.0770642 Z M20.6048147,18.7816514 C20.8742752,13.3799339 22.8371229,9.99633028 24.2201835,9.99633028 C25.603244,9.99633028 27.5660917,13.3799339 27.8355523,18.7816514 L20.6048147,18.7816514 Z M19.8487927,10.9752661 C18.841189,12.9620037 18.186055,15.6703927 18.046855,18.7816514 L14.0917872,18.7816514 C14.5336514,15.325255 16.7672367,12.4173138 19.8487927,10.9752661 Z M14.0917872,21.2917431 L18.046855,21.2917431 C18.186055,24.4017468 18.841189,27.1113908 19.8487927,29.0981284 C16.7672367,27.6560807 14.5336514,24.7481394 14.0917872,21.2917431 Z M28.5915743,29.0981284 C29.599178,27.1113908 30.2543119,24.4030018 30.3935119,21.2917431 L34.3485798,21.2917431 C33.9067156,24.7481394 31.6731303,27.6560807 28.5915743,29.0981284 Z" id="Shape" fill="#EFD358" fill-rule="nonzero"></path>
                            <path d="M21.5045872,46.2385321 L26.4954128,46.2385321 C27.1841468,46.2385321 27.7431193,46.8303853 27.7431193,47.559633 L27.7431193,50.2018349 C27.7431193,50.9310826 27.1841468,51.5229358 26.4954128,51.5229358 L21.5045872,51.5229358 C20.8158532,51.5229358 20.2568807,50.9310826 20.2568807,50.2018349 L20.2568807,47.559633 C20.2568807,46.8303853 20.8158532,46.2385321 21.5045872,46.2385321 Z" id="Shape" fill="#EFD358" fill-rule="nonzero"></path>
                        </g>
                    </g>
                </g>
            </g>
        </g>
    </g>
</svg>