<?xml version="1.0" encoding="UTF-8" standalone="no"?>
<svg width="45px" height="28px" viewBox="0 0 45 28" version="1.1" xmlns="http://www.w3.org/2000/svg" xmlns:xlink="http://www.w3.org/1999/xlink">
    <!-- Generator: Sketch 43.1 (39012) - http://www.bohemiancoding.com/sketch -->
    <title>Stroke 32</title>
    <desc>Created with Sketch.</desc>
    <defs>
        <path d="M36.84344,27.0980392 L36.8324745,27.0980392 L36.8324745,27.0980392 L9.79958563,27.0190473 C7.69967763,27.0135996 5.9945304,25.4855142 6.00001319,23.6114986 L6.05209968,3.42769731 C6.05484107,1.55912947 7.7627297,0.0392156863 9.85715491,0.0392156863 L9.86537909,0.0392156863 L36.9010093,0.118207621 C37.8879112,0.120931481 38.8254681,0.46141396 39.5354892,1.07155856 L49.845873,11.1443922 C50.5860495,11.7790515 50.9972586,12.6479628 51,13.5795229 C51,14.511083 50.5860495,15.3772704 49.8376488,16.0228252 L39.4998511,26.131069 C38.776123,26.7602806 37.8358248,27.0980392 36.84344,27.0980392 Z" id="path-1"></path>
    </defs>
    <g id="Main-Desktop-Flow" stroke="none" stroke-width="1" fill="none" fill-rule="evenodd">
        <g id="2.1-Question-for-me-and-others-selected" transform="translate(-1155.000000, -262.000000)">
            <g id="Group-7-Copy" transform="translate(841.000000, 193.000000)">
                <g id="Group-2" transform="translate(119.000000, 50.000000)">
                    <g id="person" transform="translate(220.500000, 34.500000) scale(-1, 1) translate(-220.500000, -34.500000) translate(195.000000, 19.000000)">
                        <g id="Stroke-32">
                            <use fill="#FFDDD7" fill-rule="evenodd" xlink:href="#path-1"></use>
                            <path stroke="#FCA192" stroke-width="1.5" d="M36.84344,26.3480392 L36.8324745,26.3480392 L9.80177717,26.2690505 C8.09755052,26.2646292 6.74580011,25.0526247 6.75000998,23.6136929 L6.80209718,3.42963276 C6.8042028,1.99473044 8.15819623,0.789215686 9.85715491,0.789215686 L9.86537909,0.789215686 L36.898818,0.86820442 C37.7082453,0.870438458 38.4730742,1.14746841 39.0466779,1.64038497 L49.3217591,11.6808664 C49.9339142,12.2078375 50.2479106,12.8706071 50.2500032,13.58173 C50.25,14.2872674 49.9351886,14.9482228 49.3477779,15.454911 L38.9755082,25.5948185 C38.4258438,26.0709974 37.6621303,26.3480392 36.84344,26.3480392 Z"></path>
                        </g>
                    </g>
                </g>
            </g>
        </g>
    </g>
</svg>