<?xml version="1.0" encoding="UTF-8" standalone="no"?>
<svg width="199px" height="173px" viewBox="0 0 199 173" version="1.1" xmlns="http://www.w3.org/2000/svg" xmlns:xlink="http://www.w3.org/1999/xlink">
    <!-- Generator: Sketch 43.2 (39069) - http://www.bohemiancoding.com/sketch -->
    <title>Page 1</title>
    <desc>Created with Sketch.</desc>
    <defs>
        <path d="M165.539823,155.346939 L37.8628319,155.346939 L37.8628319,0 L128.813596,0 C129.323889,0 129.815625,0.2040763 130.177469,0.565847924 L164.977573,35.5055658 C165.337562,35.8673374 165.539823,36.3571205 165.539823,36.8691665 L165.539823,155.346939 Z" id="path-1"></path>
    </defs>
    <g id="Page-1" stroke="none" stroke-width="1" fill="none" fill-rule="evenodd">
        <g id="New-NDSE_v9_Homepage_2_Homepage_Empty_VD" transform="translate(-917.000000, -366.000000)">
            <g id="Group-20" transform="translate(869.000000, 366.000000)">
                <g id="Group-21">
                    <g id="Group-22">
                        <g id="Page-1" transform="translate(48.000000, 0.000000)">
                            <path d="M13.9524062,113.862245 C13.3934674,113.788586 12.8458695,113.693704 12.3274336,113.578847 L12.549389,112.979592 C13.0419031,113.088207 13.5587189,113.178095 14.0884956,113.248008 L13.9524062,113.862245 Z" id="Fill-1" fill="#BFBEBD"></path>
                            <path d="M14.6472599,73.7129863 L14.4415607,72.7989717 C15.6535177,72.5198976 16.8988313,72.377551 18.1441449,72.377551 L18.1830609,73.3140414 C16.9673977,73.3140414 15.7906505,73.447023 14.6472599,73.7129863 L14.6472599,73.7129863 Z M28.9776319,75.0240728 L25.3621456,74.3685295 L25.5252223,73.44515 L29.1407087,74.1025663 L28.9776319,75.0240728 Z M39.8240909,76.9925756 L36.2104577,76.3370323 L36.3735345,75.4155258 L39.9871677,76.071069 L39.8240909,76.9925756 Z M50.6705499,78.9610783 L47.0550636,78.305535 L47.2181403,77.3840285 L50.8336267,78.0395718 L50.6705499,78.9610783 Z M5.75586907,79.3675151 L5.03314243,78.7850181 C5.81146343,77.7923383 6.71023886,76.8839427 7.69611212,76.0897988 L8.27614658,76.8202613 C7.34216138,77.5731996 6.49527401,78.4310248 5.75586907,79.3675151 L5.75586907,79.3675151 Z M61.5170089,80.931454 L57.9015226,80.2740378 L58.0645993,79.3525313 L61.6800857,80.0080745 L61.5170089,80.931454 Z M72.3634679,82.8980838 L68.7461284,82.2425406 L68.9092052,81.321034 L72.5246915,81.9765773 L72.3634679,82.8980838 Z M198.084546,83.4225184 C197.919616,82.2781272 197.626819,81.133736 197.215421,80.0193124 L198.049336,79.6016377 C198.520035,80.8677727 198.829511,82.0777183 199,83.2857908 L198.084546,83.4225184 Z M83.2080738,84.8665866 L79.5944406,84.2091703 L79.7575173,83.2876638 L83.3711505,83.94508 L83.2080738,84.8665866 Z M94.0563859,86.8350893 L90.4390464,86.1776731 L90.6021232,85.2561666 L94.2176095,85.9135828 L94.0563859,86.8350893 Z M104.900992,88.8035921 L101.285505,88.1461758 L101.448582,87.2246693 L105.064069,87.8802126 L104.900992,88.8035921 Z M2.07552265,89.4478974 L1.1637752,89.294313 L1.62335522,86.5279205 C1.67339014,86.2188787 1.73269079,85.9135828 1.79940401,85.6120329 L2.70559203,85.8161878 C2.64073195,86.1027539 2.58513759,86.3911929 2.53510267,86.6833779 L2.07552265,89.4478974 Z M115.747451,90.7702218 L112.131964,90.1146786 L112.295041,89.1931721 L115.910528,89.8487153 L115.747451,90.7702218 Z M126.59391,92.7387246 L122.978423,92.0831813 L123.1415,91.1598018 L126.756987,91.8172181 L126.59391,92.7387246 Z M196.805876,94.2951716 L196.009024,93.8156885 C196.618708,92.7855491 197.117204,91.6823635 197.48598,90.5398452 L198.366224,90.8301572 C197.977064,92.0382298 197.450771,93.2050968 196.805876,94.2951716 L196.805876,94.2951716 Z M137.440369,94.7072274 L133.824882,94.0516841 L133.986106,93.1301776 L137.603446,93.7857208 L137.440369,94.7072274 Z M148.284975,96.6757301 L144.669488,96.0201868 L144.832565,95.0986803 L148.448051,95.7542236 L148.284975,96.6757301 Z M159.131434,98.6461058 L155.5178,97.9886896 L155.679024,97.0671831 L159.29451,97.7227263 L159.131434,98.6461058 Z M0.224230572,100.481627 C0.0759789542,99.5751043 0,98.6479788 0,97.7208534 C0,97.3762249 0.0111188714,97.0278505 0.0296503236,96.6794761 L0.956222936,96.7337925 C0.937691484,97.0653101 0.926572613,97.3949547 0.926572613,97.7208534 C0.926572613,98.5955354 0.998845276,99.4720903 1.13968431,100.328043 L0.224230572,100.481627 Z M169.977893,100.612736 L166.362406,99.9571924 L166.525483,99.0356858 L170.140969,99.6912291 L169.977893,100.612736 Z M188.296233,101.530496 L187.966373,100.655814 C189.076407,100.230648 190.140113,99.6743723 191.131545,99.0057181 L191.64672,99.7848781 C190.595986,100.494738 189.469274,101.080981 188.296233,101.530496 L188.296233,101.530496 Z M180.872533,102.526922 C180.453723,102.487589 180.027499,102.433273 179.601276,102.358354 L177.208865,101.925695 L177.371942,101.002316 L179.760646,101.436847 C180.157219,101.504274 180.557499,101.558591 180.955925,101.594178 L180.872533,102.526922 Z M5.57796713,110.331633 C4.64583508,109.485045 3.80080086,108.526079 3.07436793,107.484702 L3.83045118,106.943411 C4.51796806,107.928598 5.31482051,108.833248 6.19691763,109.633011 L5.57796713,110.331633 Z" id="Fill-3" fill="#C3C3C3"></path>
                            <polygon id="Fill-5" fill="#C3C3C3" points="194.470635 72.377551 193.716814 70.8900584 194.724056 70.6122449 195.477876 72.0981501"></polygon>
                            <path d="M32.850462,159.760204 C30.8227061,159.760204 29.1769912,158.180255 29.1769912,156.229592 C29.1769912,154.278929 30.8227061,152.69898 32.850462,152.69898 L166.388476,152.69898 C168.418069,152.69898 170.061947,154.278929 170.061947,156.229592 C170.061947,158.180255 168.418069,159.760204 166.388476,159.760204 L32.850462,159.760204 Z" id="Fill-7" fill="#CCCCCC"></path>
                            <g id="Fill-9">
                                <use fill="#FFFFFF" fill-rule="evenodd" xlink:href="#path-1"></use>
                                <path stroke="#999999" stroke-width="2" d="M164.539823,154.346939 L38.8628319,154.346939 L38.8628319,1 L128.813596,1 C129.058417,1 129.295915,1.09854211 129.470433,1.27302532 L164.269052,36.2112556 C164.442377,36.3854393 164.539823,36.6216743 164.539823,36.8691665 L164.539823,154.346939 Z"></path>
                            </g>
                            <polygon id="Fill-21" fill="#BFBEBD" points="178.525648 173 177.867257 172.864462 178.089397 171.234694 178.747788 171.370232"></polygon>
                            <path d="M26.4746648,116.263004 L22.8938053,115.659106 L23.0454739,114.744898 L26.6263335,115.348796 L26.4746648,116.263004 Z M37.2172434,118.074698 L33.6363839,117.468942 L33.7880525,116.554733 L37.3689121,117.158631 L37.2172434,118.074698 Z M47.9579724,119.884533 L44.3789625,119.280635 L44.5306311,118.366427 L48.109641,118.970325 L47.9579724,119.884533 Z M58.700551,121.696226 L55.1196914,121.092329 L55.2713601,120.176262 L58.8522196,120.782018 L58.700551,121.696226 Z M69.4412799,123.506062 L65.8604204,122.902164 L66.012089,121.987955 L69.5929485,122.591853 L69.4412799,123.506062 Z M80.1838585,125.317755 L76.602999,124.713857 L76.7546676,123.799649 L80.3355271,124.403547 L80.1838585,125.317755 Z M90.9264371,127.12759 L87.3437279,126.523693 L87.4953966,125.609484 L91.0781057,126.211524 L90.9264371,127.12759 Z M101.667166,128.937426 L98.0863065,128.335386 L98.2379751,127.421178 L101.818835,128.023217 L101.667166,128.937426 Z M112.409745,130.749119 L108.827035,130.147079 L108.978704,129.231013 L112.561413,129.834911 L112.409745,130.749119 Z M123.150474,132.560813 L119.569614,131.956915 L119.721283,131.042706 L123.302142,131.644746 L123.150474,132.560813 Z M133.891203,134.370648 L130.312193,133.768608 L130.463861,132.8544 L134.042871,133.456439 L133.891203,134.370648 Z M144.633781,136.182341 L141.052922,135.580302 L141.20459,134.664235 L144.78545,135.268133 L144.633781,136.182341 Z M155.37451,137.992177 L151.7955,137.390137 L151.947169,136.475928 L155.526179,137.077968 L155.37451,137.992177 Z M166.117089,139.80387 L162.538079,139.20183 L162.689747,138.287622 L166.268757,138.889662 L166.117089,139.80387 Z M175.63707,144.094332 C174.778848,143.286038 173.829994,142.574367 172.818253,141.97976 L173.284357,141.177041 C174.357135,141.808811 175.359627,142.56136 176.26779,143.41425 L175.63707,144.094332 Z M180.475669,153.325607 C180.299956,152.164265 179.994769,151.01593 179.565658,149.910332 L180.42388,149.574007 C180.878886,150.742782 181.204419,151.95801 181.389381,153.188104 L180.475669,153.325607 Z M180.390587,164.173469 L179.480575,164.021101 L180.079851,160.425587 L180.989863,160.577955 L180.390587,164.173469 Z" id="Fill-23" fill="#C3C3C3"></path>
                            <polygon id="Fill-25" fill="#BFBEBD" points="15.7143449 113.862245 14.0884956 113.640574 14.2237082 112.979592 15.8495575 113.201263"></polygon>
                            <path d="M193.181801,69.0192421 C192.350622,69.3431735 191.272287,68.6101631 190.56194,67.3366501 C190.856698,66.0594351 190.981191,64.5193729 191.032453,63.3754324 C191.827016,64.1898884 192.941968,65.2449791 194.007488,65.9946488 C194.326045,67.4199467 194.01298,68.6953107 193.181801,69.0192421 M190.741358,62.0075166 C190.664465,62.0223249 190.605879,62.0704519 190.560109,62.1352381 C190.481385,62.1185788 190.406323,62.1241319 190.340415,62.1648547 C188.663411,63.2180944 184.873675,66.0760944 187.672953,68.9711152 C189.077169,70.4223276 189.897363,69.5634468 190.380692,68.0122784 C191.239333,69.3061527 192.447654,70.0039934 193.414312,69.628233 C194.380969,69.2524727 194.811205,67.9141734 194.59151,66.3722602 C195.979249,67.1959714 197.158278,67.2774169 197.235171,65.2468301 C197.390788,61.2004648 192.683826,61.6521177 190.741358,62.0075166" id="Fill-27" fill="#C3C3C3"></path>
                            <polygon id="Path-2" fill="#F2F2F2" style="mix-blend-mode: multiply;" opacity="0.8" points="131.199115 33.5408163 165.539823 62.6683673 165.539823 36.1887755 148.809735 19.4183673"></polygon>
                            <path d="M129.438053,0 C133.840708,3.53061224 131.199115,33.5408163 131.199115,33.5408163 C131.199115,33.5408163 157.870361,33.5408163 165.539823,36.1887755 C165.539823,36.1887755 129.438053,0 129.438053,0 Z" id="Stroke-13" fill="#609AFF"></path>
                        </g>
                    </g>
                </g>
            </g>
        </g>
    </g>
</svg>