<?xml version="1.0" encoding="UTF-8" standalone="no"?>
<svg width="16px" height="16px" viewBox="0 0 16 16" version="1.1" xmlns="http://www.w3.org/2000/svg" xmlns:xlink="http://www.w3.org/1999/xlink">
    <!-- Generator: Sketch 44 (41411) - http://www.bohemiancoding.com/sketch -->
    <title>draft</title>
    <desc>Created with Sketch.</desc>
    <defs></defs>
    <g id="Page-1" stroke="none" stroke-width="1" fill="none" fill-rule="evenodd">
        <g id="New-NDSE_v9_Homepage_2.1_Homepage_Full_VD" transform="translate(-624.000000, -536.000000)" fill-rule="nonzero" fill="#777777">
            <g id="Group-23" transform="translate(597.000000, 172.000000)">
                <g id="Group-22" transform="translate(16.000000, 306.000000)">
                    <g id="Group-15" transform="translate(11.000000, 48.000000)">
                        <g id="draft" transform="translate(0.000000, 10.000000)">
                            <path d="M11.9937963,4.00620371 L9.99670763,6.00329237 L9.99375023,2 L2,2 L2,12 L4.28571429,12 L3.42857143,14 L2.00881582,14 C0.899377479,14 0,13.1029399 0,11.9941413 L0,2.00585866 C0,0.898053512 0.901245736,0 2.00696109,0 L9.98366425,0 C11.0920783,0 11.9913354,0.897060126 11.992213,2.00585866 L11.9937963,4.00620371 Z M13.6303586,5.29288318 C14.0199984,4.90318809 14.6510682,4.90252311 15.03849,5.28999542 L15.7086092,5.96020196 C16.0966588,6.34830219 16.098582,6.97561707 15.7056673,7.36858753 L14.2923205,8.78213468 L12.2171371,6.70630502 L13.6303586,5.29288318 Z M5,16 L6.38027421,12.5439047 L11.5110219,7.41255159 L13.5862053,9.48838126 L8.45564545,14.6195464 L5,16 Z" id="Shape"></path>
                        </g>
                    </g>
                </g>
            </g>
        </g>
    </g>
</svg>