<?xml version="1.0" encoding="UTF-8"?>
<svg width="64px" height="64px" viewBox="0 0 64 64" version="1.1" xmlns="http://www.w3.org/2000/svg" xmlns:xlink="http://www.w3.org/1999/xlink">
    <!-- Generator: Sketch 50.2 (55047) - http://www.bohemiancoding.com/sketch -->
    <title>camera-square-57</title>
    <desc>Created with Sketch.</desc>
    <defs></defs>
    <g id="Signing" stroke="none" stroke-width="1" fill="none" fill-rule="evenodd">
        <g id="4---Webcam-or-Upload" transform="translate(-598.000000, -326.000000)" fill-rule="nonzero">
            <g id="Group-2" transform="translate(550.000000, 278.000000)">
                <g id="camera-square-57" transform="translate(48.000000, 48.000000)">
                    <path d="M51.4782609,64 L12.5217391,64 C5.6168487,64 0,58.3831513 0,51.4782609 L0,12.5217391 C0,5.6168487 5.6168487,0 12.5217391,0 L51.4782609,0 C58.3831513,0 64,5.6168487 64,12.5217391 L64,51.4782609 C64,58.3831513 58.3831513,64 51.4782609,64 Z" id="Shape" fill="#666666"></path>
                    <path d="M12.5217391,58.4347826 C8.68613565,58.4347826 5.56521739,55.3138643 5.56521739,51.4782609 L5.56521739,12.5217391 C5.56521739,8.68613565 8.68613565,5.56521739 12.5217391,5.56521739 L51.4782609,5.56521739 C55.3138643,5.56521739 58.4347826,8.68613565 58.4347826,12.5217391 L58.4347826,51.4782609 C58.4347826,55.3138643 55.3138643,58.4347826 51.4782609,58.4347826 L12.5217391,58.4347826 Z" id="Shape" fill="#444444"></path>
                    <path d="M32,41.7391304 C26.6304278,41.7391304 22.2608696,37.3695722 22.2608696,32 L22.2608696,30.6086957 L23.6521739,30.6086957 C27.4877774,30.6086957 30.6086957,27.4877774 30.6086957,23.6521739 L30.6086957,22.2608696 L32,22.2608696 C37.3695722,22.2608696 41.7391304,26.6304278 41.7391304,32 C41.7391304,37.3695722 37.3695722,41.7391304 32,41.7391304 Z" id="Shape" fill="#BADEFC"></path>
                    <path d="M18.0869565,13.9130435 L12.5217391,13.9130435 C11.7533496,13.9130435 11.1304348,13.2901426 11.1304348,12.5217391 C11.1304348,11.7533496 11.7533357,11.1304348 12.5217391,11.1304348 L18.0869565,11.1304348 C18.8553461,11.1304348 19.4782609,11.7533357 19.4782609,12.5217391 C19.4782609,13.2901426 18.85536,13.9130435 18.0869565,13.9130435 Z" id="Shape" fill="#EFD358"></path>
                    <path d="M32,48.6956522 C22.7934748,48.6956522 15.3043478,41.2058435 15.3043478,32 C15.3043478,22.7941565 22.7934748,15.3043478 32,15.3043478 C41.2065252,15.3043478 48.6956522,22.7941565 48.6956522,32 C48.6956522,41.2058435 41.2065252,48.6956522 32,48.6956522 Z" id="Shape" fill="#C6C6C6"></path>
                    <circle id="Oval" fill="#666666" cx="32" cy="32" r="13.9130435"></circle>
                    <circle id="Oval" fill="#444444" cx="32" cy="32" r="5.56521739"></circle>
                </g>
            </g>
        </g>
    </g>
</svg>