<?xml version="1.0" encoding="UTF-8"?>
<svg width="24px" height="24px" viewBox="0 0 24 24" version="1.1" xmlns="http://www.w3.org/2000/svg" xmlns:xlink="http://www.w3.org/1999/xlink">
    <!-- Generator: Sketch 50.2 (55047) - http://www.bohemiancoding.com/sketch -->
    <title>Group 2</title>
    <desc>Created with Sketch.</desc>
    <defs></defs>
    <g id="Signing---DocuSign-Verify" stroke="none" stroke-width="1" fill="none" fill-rule="evenodd">
        <g id="2---ID-Checklist" transform="translate(-638.000000, -342.000000)" fill="#008938" fill-rule="nonzero">
            <g id="Group-2" transform="translate(638.000000, 342.000000)">
                <path d="M22.1385996,9.56748477 C22.0897666,9.31585935 22.2563734,9.06995268 22.5120287,9.02134323 C22.767684,8.97273377 23.0147217,9.1385778 23.0635548,9.3930626 C23.8017953,13.2332097 22.5637343,17.090513 19.8635548,19.77833 C15.3192101,24.3018688 7.95116697,24.3018688 3.40682226,19.77833 C-1.13464991,15.2547912 -1.13464991,7.92048201 3.40682226,3.39694319 C7.08366248,-0.260203561 12.751167,-1.05225176 17.2868941,1.46114307 C17.5138241,1.58695578 17.5971275,1.87289376 17.4707361,2.09878476 C17.3443447,2.32467577 17.0570916,2.4047384 16.8301616,2.27892569 C12.664991,-0.0257344181 7.4513465,0.700548048 4.07612208,4.0603193 C-0.1005386,8.21785751 -0.1005386,14.9574157 4.07612208,19.1120945 C8.24991023,23.2696327 15.0204668,23.2696327 19.1971275,19.1120945 C21.6789946,16.6415904 22.8165171,13.0902407 22.1385996,9.56748477 Z" id="Shape"></path>
                <path d="M4.42944345,9.05565579 C5.36301616,8.12921673 6.88545781,8.12921673 7.81903052,9.05565579 L11.0247756,12.249583 L19.8405745,2.54484801 C20.7253142,1.57265888 22.2448833,1.49831501 23.221544,2.3761446 C24.2154399,3.1681928 24.2412926,4.80661742 23.3910233,5.74163461 C20.0244165,9.44739082 16.3533214,13.6621166 12.848833,17.3449978 C11.9037702,18.3543589 10.4157989,18.3000306 9.41615799,17.3907479 L4.42944345,12.4297239 C3.49874327,11.5004255 3.49874327,9.98495422 4.42944345,9.05565579 Z" id="Shape"></path>
            </g>
        </g>
    </g>
</svg>