<?xml version="1.0" encoding="UTF-8" standalone="no"?>
<svg width="193px" height="187px" viewBox="0 0 193 187" version="1.1" xmlns="http://www.w3.org/2000/svg" xmlns:xlink="http://www.w3.org/1999/xlink">
    <!-- Generator: Sketch 42 (36781) - http://www.bohemiancoding.com/sketch -->
    <title>Page 1</title>
    <desc>Created with Sketch.</desc>
    <defs>
        <polygon id="path-1" points="142.735169 173 18 136.869296 64.2648307 0 189 36.1289946"></polygon>
        <filter x="-50%" y="-50%" width="200%" height="200%" filterUnits="objectBoundingBox" id="filter-2">
            <feOffset dx="0" dy="0" in="SourceAlpha" result="shadowOffsetOuter1"></feOffset>
            <feGaussianBlur stdDeviation="0.5" in="shadowOffsetOuter1" result="shadowBlurOuter1"></feGaussianBlur>
            <feColorMatrix values="0 0 0 0 0   0 0 0 0 0   0 0 0 0 0  0 0 0 0.2 0" type="matrix" in="shadowBlurOuter1"></feColorMatrix>
        </filter>
        <polygon id="path-3" points="167.730836 171 35 162.224697 46.2691637 17 179 25.7753028"></polygon>
        <filter x="-50%" y="-50%" width="200%" height="200%" filterUnits="objectBoundingBox" id="filter-4">
            <feOffset dx="0" dy="0" in="SourceAlpha" result="shadowOffsetOuter1"></feOffset>
            <feGaussianBlur stdDeviation="0.5" in="shadowOffsetOuter1" result="shadowBlurOuter1"></feGaussianBlur>
            <feColorMatrix values="0 0 0 0 0   0 0 0 0 0   0 0 0 0 0  0 0 0 0.2 0" type="matrix" in="shadowBlurOuter1"></feColorMatrix>
        </filter>
        <polygon id="path-5" points="164.327761 170 41 148.38067 68.6722386 13 192 34.6193296"></polygon>
        <filter x="-50%" y="-50%" width="200%" height="200%" filterUnits="objectBoundingBox" id="filter-6">
            <feOffset dx="0" dy="0" in="SourceAlpha" result="shadowOffsetOuter1"></feOffset>
            <feGaussianBlur stdDeviation="0.5" in="shadowOffsetOuter1" result="shadowBlurOuter1"></feGaussianBlur>
            <feColorMatrix values="0 0 0 0 0   0 0 0 0 0   0 0 0 0 0  0 0 0 0.2 0" type="matrix" in="shadowBlurOuter1"></feColorMatrix>
        </filter>
    </defs>
    <g id="Version-4" stroke="none" stroke-width="1" fill="none" fill-rule="evenodd">
        <g id="6-options" transform="translate(-1113.000000, -589.000000)">
            <g id="Page-1" transform="translate(1113.000000, 590.000000)">
                <path d="M12.8409264,78.8849232 L2.01235436,181.581715 C1.8439387,183.420364 3.41890277,185 5.42323425,185 L170.748194,185 C172.526737,185 174.009165,183.745834 174.159074,182.115077 L184.987646,79.4182847 C185.156061,77.5796361 183.581097,76 181.576766,76 L16.2518063,76 C14.4732628,76 12.9908348,77.2541663 12.8409264,78.8849232" id="Fill-1" fill="#FEFEFE"></path>
                <path d="M12.8409264,79.8849232 L2.01235436,182.581715 C1.8439387,184.420364 3.41890277,186 5.42323425,186 L170.748194,186 C172.526737,186 174.009165,184.745834 174.159074,183.115077 L184.987646,80.4182847 C185.156061,78.5796361 183.581097,77 181.576766,77 L16.2518063,77 C14.4732628,77 12.9908348,78.2541663 12.8409264,79.8849232 Z" id="Stroke-3" fill="#E8E8E8"></path>
                <g id="Fill-5">
                    <use fill="black" fill-opacity="1" filter="url(#filter-2)" xlink:href="#path-1"></use>
                    <use fill="#F7F7F7" fill-rule="evenodd" xlink:href="#path-1"></use>
                </g>
                <g id="Fill-9">
                    <use fill="black" fill-opacity="1" filter="url(#filter-4)" xlink:href="#path-3"></use>
                    <use fill="#F3F3F3" fill-rule="evenodd" xlink:href="#path-3"></use>
                </g>
                <g id="Fill-13">
                    <use fill="black" fill-opacity="1" filter="url(#filter-6)" xlink:href="#path-5"></use>
                    <use fill="#FEFEFE" fill-rule="evenodd" xlink:href="#path-5"></use>
                </g>
                <polygon id="Fill-17" fill="#BFBEBD" points="121.774509 149 59 138.092133 59.2254911 137 122 147.907867"></polygon>
                <polygon id="Fill-19" fill="#BFBEBD" points="168.352948 72 76 55.9763314 77.6488963 48 170 64.0236686"></polygon>
                <polygon id="Fill-21" fill="#BFBEBD" points="164.352948 86 72 69.9763314 73.6488963 62 166 78.0236686"></polygon>
                <polygon id="Fill-23" fill="#BFBEBD" points="121.33037 94 70 85.0893596 71.6696299 77 123 85.9106404"></polygon>
                <polygon id="Fill-25" fill="#BFBEBD" points="159.352948 116 67 99.9763314 68.6488963 92 161 108.023669"></polygon>
                <polygon id="Fill-27" fill="#BFBEBD" points="125.363851 125 64 114.106529 65.6361495 106 127 116.893471"></polygon>
                <polygon id="Fill-29" fill="#BFBEBD" points="162.771103 101 124 94.1304159 124.228897 93 163 99.8695841"></polygon>
                <polygon id="Fill-31" fill="#BFBEBD" points="120 49.0893596 171.328559 58 173 49.9089259 121.669571 41"></polygon>
                <polygon id="Fill-33" fill="#BFBEBD" points="79 41.1304159 117.771103 48 118 46.8678424 79.2288973 40"></polygon>
                <path d="M54.6244219,52.3435114 C53.6982043,49.7524352 51.0733035,48 48.1149644,48 L44,48 L30,186 L172.250356,185.803577 L174.49736,183.108311 L177,63.9597995 C177,62.2159044 175.466184,60.8016585 173.572995,60.8016585 L59.2944112,60.8016585 C58.3089156,60.8016585 57.4327138,60.2175135 57.1252095,59.3532521 L54.6244219,52.3435114 Z" id="Fill-35" fill="#DCDCDC" style="mix-blend-mode: multiply;" opacity="0.9"></path>
                <path d="M52.3716171,64.3887407 L49.87597,57.3570886 C48.9516562,54.757913 46.3321511,53 43.379893,53 L17.9612648,53 C15.0090067,53 12.3895015,54.757913 11.4651878,57.3570886 L8.96954064,64.3887407 C8.66266847,65.2557037 7.78826766,65.8416747 6.80479783,65.8416747 L3.41811225,65.8416747 C1.53066357,65.8416747 0,67.2603414 0,69.0096876 L0,182.831987 C0,184.581333 1.53066357,186 3.41811225,186 L168.580039,186 C170.469336,186 172,184.581333 172,182.831987 L172,69.0096876 C172,67.2603414 170.469336,65.8416747 168.580039,65.8416747 L54.5363599,65.8416747 C53.5528901,65.8416747 52.6784893,65.2557037 52.3716171,64.3887407" id="Fill-37" fill="#E8E8E8"></path>
                <path d="M49.87597,57.3570886 C48.9516562,54.757913 46.3321511,53 43.379893,53 L17.9612648,53 C15.0090067,53 12.3895015,54.757913 11.4651878,57.3570886 L8.96954064,64.3887407 C8.66266847,65.2557037 7.78826766,65.8416747 6.80479783,65.8416747 L3.41811225,65.8416747 C1.53066357,65.8416747 0,67.2603414 0,69.0096876 L0,92 L172,92 L172,69.0096876 C172,67.2603414 170.469336,65.8416747 168.580039,65.8416747 L54.5363599,65.8416747 C53.5528901,65.8416747 52.6784893,65.2557037 52.3716171,64.3887407 L49.87597,57.3570886 Z" id="Fill-37" fill="#FFA479"></path>
                <path d="M6,82 L166,82" id="Stroke-41" stroke="#FE6F2C"></path>
                <path d="M6,87 L166,87" id="Stroke-43" stroke="#FE6F2C"></path>
            </g>
        </g>
    </g>
</svg>