<?xml version="1.0" encoding="UTF-8" standalone="no"?>
<svg width="994px" height="493px" viewBox="0 0 994 493" version="1.1" xmlns="http://www.w3.org/2000/svg" xmlns:xlink="http://www.w3.org/1999/xlink">
    <!-- Generator: Sketch 45.1 (43504) - http://www.bohemiancoding.com/sketch -->
    <title>Group 7</title>
    <desc>Created with Sketch.</desc>
    <defs></defs>
    <g id="final" stroke="none" stroke-width="1" fill="none" fill-rule="evenodd">
        <g id="Artboard-2-Copy-22" transform="translate(-752.000000, -575.000000)">
            <g id="Group-6" transform="translate(160.000000, -65.000000)">
                <g id="Group-7" transform="translate(592.000000, 640.000000)">
                    <path d="M664.997289,123.043756 C664.995933,122.643867 664.974244,122.268378 664.937644,121.9078 C664.375089,112.619533 657.381778,105.089422 648.340222,103.701333 C647.211044,89.3202444 635.191333,78 620.520156,78 C610.7832,78 602.214733,82.9884444 597.218156,90.5456667 C595.089933,90.1105333 592.866822,89.8746667 590.578644,89.8746667 C579.269244,89.8746667 569.533644,95.5164889 565.148422,103.624067 C564.332378,103.519689 563.505489,103.4492 562.662333,103.4492 C551.802978,103.4492 543,112.250822 543,123.108822 C543,132.592289 549.381956,141.235311 558.460111,142.167933 C559.8726,142.311622 564.335089,142.356356 564.335089,142.356356 L642.973578,142.356356 C642.973578,142.356356 647.728867,142.365844 649.305378,142.205889 C657.644756,141.358667 663.857267,133.871933 664.850889,125.426822 C664.850889,125.410556 664.854956,125.395644 664.857667,125.380733 C664.880711,125.181467 664.896978,124.9822 664.9146,124.781578 C664.964756,124.238 665,123.687644 665,123.123733 L665,123.108822 C665,123.085778 664.997289,123.0668 664.997289,123.043756 Z" id="cloud_04" fill="#FFDA3E" fill-rule="nonzero"></path>
                    <path d="M275.7,247.7 L229.5,247.7 C218.7,247.7 210,238.9 210,228.2 C210,220.6 214.3,213.9 221,210.7 C223.1,197.2 235,187 249.1,187 C262.6,187 273.9,196.1 276.8,208.8 C287.1,209.4 295.2,217.9 295.2,228.3 C295.2,238.9 286.4,247.7 275.7,247.7 Z" id="cloud_02" fill="#FFDA3E" fill-rule="nonzero"></path>
                    <rect id="Rectangle-23" stroke-opacity="0.0263813406" stroke="#979797" x="0.5" y="1.36121217" width="993" height="491.138788"></rect>
                </g>
            </g>
        </g>
    </g>
</svg>
