<?xml version="1.0" encoding="UTF-8" standalone="no"?>
<svg width="292px" height="223px" viewBox="0 0 292 223" version="1.1" xmlns="http://www.w3.org/2000/svg" xmlns:xlink="http://www.w3.org/1999/xlink">
    <!-- Generator: Sketch 45.1 (43504) - http://www.bohemiancoding.com/sketch -->
    <title>Group 7</title>
    <desc>Created with Sketch.</desc>
    <defs></defs>
    <g id="final" stroke="none" stroke-width="1" fill="none" fill-rule="evenodd">
        <g id="Artboard-2-Copy-34" transform="translate(-1103.000000, -452.000000)">
            <g id="Group-7" transform="translate(1103.000000, 452.000000)">
                <circle id="Oval-2" stroke="#CCCCCC" stroke-width="3" cx="259" cy="126" r="5"></circle>
                <g id="Group-13" transform="translate(0.000000, 98.000000)" fill="#39A364">
                    <rect id="Rectangle-27" x="14" y="10" width="9" height="4" rx="2"></rect>
                    <rect id="Rectangle-27-Copy" x="0" y="10" width="9" height="4" rx="2"></rect>
                    <rect id="Rectangle-27-Copy-2" transform="translate(11.500000, 5.000000) rotate(-270.000000) translate(-11.500000, -5.000000) " x="7" y="3" width="9" height="4" rx="2"></rect>
                    <rect id="Rectangle-27-Copy-3" transform="translate(11.500000, 19.000000) rotate(-270.000000) translate(-11.500000, -19.000000) " x="7" y="17" width="9" height="4" rx="2"></rect>
                </g>
                <g id="Group-13-Copy" transform="translate(282.909903, 86.617009) rotate(-315.000000) translate(-282.909903, -86.617009) translate(271.409903, 74.617009)" fill="#39A364">
                    <rect id="Rectangle-27" x="14" y="10" width="9" height="4" rx="2"></rect>
                    <rect id="Rectangle-27-Copy" x="0" y="10" width="9" height="4" rx="2"></rect>
                    <rect id="Rectangle-27-Copy-2" transform="translate(11.500000, 5.000000) rotate(-270.000000) translate(-11.500000, -5.000000) " x="7" y="3" width="9" height="4" rx="2"></rect>
                    <rect id="Rectangle-27-Copy-3" transform="translate(11.500000, 19.000000) rotate(-270.000000) translate(-11.500000, -19.000000) " x="7" y="17" width="9" height="4" rx="2"></rect>
                </g>
                <circle id="Oval-2-Copy" stroke="#CCCCCC" stroke-width="3" cx="38" cy="58" r="4"></circle>
                <circle id="Oval-2-Copy-2" fill="#D8D8D8" cx="41" cy="136" r="3"></circle>
                <circle id="Oval-2-Copy-3" fill="#D8D8D8" cx="256" cy="60" r="3"></circle>
                <circle id="Oval-14" fill="#C6E5D3" cx="145" cy="95" r="95"></circle>
                <g id="Group-14" transform="translate(77.000000, 28.000000)">
                    <g id="Group-16" transform="translate(141.000000, 0.000000)">
                        <path d="M13.7773307,12 C13.7773307,26.4506284 6.88866537,32.8233721 0,32.8233721" id="Shape" stroke="#5FA80F" stroke-width="3" stroke-linecap="round" stroke-linejoin="round"></path>
                        <path d="M16.8875525,13.4931553 C40.3261138,13.4671551 13.4657079,-13.3265547 13.4939689,10.113137 C13.4657079,-13.3254243 -13.3257411,13.5327207 10.1128202,13.5067206 C-13.3246106,13.5327207 13.5324039,40.3264306 13.5064038,16.8867388 C13.5324039,40.3264306 40.3261138,13.4671551 16.8875525,13.4931553 Z" id="Shape" fill="#7ED321" fill-rule="nonzero"></path>
                    </g>
                    <path d="M57.7414172,165.533295 C55.8310053,155.54526 54.3966388,143.320344 54.0595149,141.469404 C53.7223911,139.618464 54.902545,137.853039 56.8904411,139.951148 C58.8783373,142.049258 60.2763292,155.773562 61.4295196,162.987848 C62.5827101,170.202133 64.4459823,181.636124 65.3855254,192.071778 C63.5921238,193.796296 54.7788707,196.592345 54.0595149,193.804073 C53.3401592,191.015801 59.3160124,190.642538 62.5827101,190.451285 C60.5414022,180.513668 59.651829,175.52133 57.7414172,165.533295 Z" id="Path-3-Copy-3" fill="#666666"></path>
                    <path d="M78.7414172,165.533295 C76.8310053,155.54526 75.3966388,143.320344 75.0595149,141.469404 C74.7223911,139.618464 75.902545,137.853039 77.8904411,139.951148 C79.8783373,142.049258 81.2763292,155.773562 82.4295196,162.987848 C83.5827101,170.202133 85.4459823,181.636124 86.3855254,192.071778 C84.5921238,193.796296 75.7788707,196.592345 75.0595149,193.804073 C74.3401592,191.015801 80.3160124,190.642538 83.5827101,190.451285 C81.5414022,180.513668 80.651829,175.52133 78.7414172,165.533295 Z" id="Path-3-Copy-4" fill="#666666" transform="translate(80.692763, 166.992871) scale(-1, 1) translate(-80.692763, -166.992871) "></path>
                    <g id="doc-copy-2" transform="translate(16.000000, 2.000000)">
                        <path d="M89.6923077,0 L0,0 L0,138 L106,138 L106,16.2352941 L89.6923077,2.72004641e-15 Z" id="Combined-Shape" fill="#FFFFFF"></path>
                        <ellipse id="Oval-8" fill="#666666" cx="38.0566038" cy="39.057377" rx="4.05660377" ry="4.05737705"></ellipse>
                        <ellipse id="Oval-8-Copy" fill="#666666" cx="70.0566038" cy="39.057377" rx="4.05660377" ry="4.05737705"></ellipse>
                        <g id="Group-10" transform="translate(55.045712, 47.967577) rotate(13.000000) translate(-55.045712, -47.967577) translate(48.545712, 43.967577)" fill="#666666">
                            <path d="M0.202253197,4.29647707 C1.3545065,6.10426434 3.37688018,7.30327869 5.67924528,7.30327869 C9.18391307,7.30327869 12.0398119,4.52503905 12.165497,1.05040133 L9.71568135,1.21860217 C9.51150854,3.26825986 7.7822605,4.86885246 5.67924528,4.86885246 C4.2395596,4.86885246 2.97504068,4.11873142 2.2550634,2.98793464 L0.202253197,4.29647707 Z" id="Combined-Shape"></path>
                            <ellipse id="Oval-10" cx="1.21698113" cy="3.65163934" rx="1.21698113" ry="1.21721311"></ellipse>
                            <ellipse id="Oval-10-Copy" cx="10.9528302" cy="1.21721311" rx="1.21698113" ry="1.21721311"></ellipse>
                        </g>
                        <g id="Group-2" transform="translate(16.415094, 65.483607)" fill="#CCCCCC">
                            <rect id="Rectangle-19-Copy" x="0" y="17" width="74.6415094" height="6.49180328"></rect>
                            <rect id="Rectangle-19-Copy-4" x="0" y="0.770491803" width="74.6415094" height="6.49180328"></rect>
                            <rect id="Rectangle-19-Copy-2" x="0" y="33.4590164" width="74.6415094" height="6.49180328"></rect>
                            <rect id="Rectangle-19-Copy-3" x="0" y="49.6885246" width="74.6415094" height="6.49180328"></rect>
                        </g>
                    </g>
                    <path d="M39.6145673,90.7728806 C38.8262171,91.913113 40.9725389,88.8958828 42.260332,90.1706041 C43.5481251,91.4453253 42.8689542,92.2206833 42.1534612,93.3609156 C41.4379682,94.5011479 36.4642409,104.844541 20.6967533,108.721767 C4.92926561,112.598993 -8.84207478,106.535665 -10.4230519,105.136839 C-12.0040291,103.738012 -12.1456919,102.973017 -11.542718,102.545817 C-10.939744,102.118617 -9.26956851,102.624587 -8.83851466,102.849598 C0.74252026,108.662281 12.638613,106.259886 19.2390382,104.420794 C32.7418993,100.018002 40.4029176,89.6326483 39.6145673,90.7728806 Z" id="Path-14-Copy-4" fill="#666666" transform="translate(15.556514, 99.924010) scale(-1, 1) rotate(-78.000000) translate(-15.556514, -99.924010) "></path>
                    <path d="M153.45252,38.6990762 C152.810274,39.5371733 154.55882,37.3194396 155.607948,38.2563891 C156.657076,39.1933386 156.103775,39.7632446 155.520884,40.6013416 C154.937992,41.4394386 150.88604,49.0420711 138.040723,51.8919214 C125.195406,54.7417717 113.976293,50.2850858 112.688317,49.2569164 C111.40034,48.2287469 111.284932,47.6664573 111.776157,47.3524556 C112.267383,47.0384539 113.628026,47.4103533 113.979193,47.5757416 C121.784586,51.8481976 131.475989,50.0823822 136.853165,48.7306068 C147.853556,45.4944534 154.094766,37.8609792 153.45252,38.6990762 Z" id="Path-14-Copy-5" fill="#666666" transform="translate(133.853119, 45.425367) scale(-1, 1) rotate(66.000000) translate(-133.853119, -45.425367) "></path>
                </g>
            </g>
        </g>
    </g>
</svg>