<?xml version="1.0" encoding="UTF-8" standalone="no"?>
<svg width="292px" height="223px" viewBox="0 0 292 223" version="1.1" xmlns="http://www.w3.org/2000/svg" xmlns:xlink="http://www.w3.org/1999/xlink">
    <!-- Generator: Sketch 45.1 (43504) - http://www.bohemiancoding.com/sketch -->
    <title>Group 7</title>
    <desc>Created with Sketch.</desc>
    <defs></defs>
    <g id="final" stroke="none" stroke-width="1" fill="none" fill-rule="evenodd">
        <g id="Artboard-2-Copy-30" transform="translate(-1103.000000, -418.000000)">
            <g id="Group-7" transform="translate(1103.000000, 418.000000)">
                <circle id="Oval-2" stroke="#CCCCCC" stroke-width="3" cx="259" cy="126" r="5"></circle>
                <g id="Group-13" transform="translate(0.000000, 98.000000)" fill="#E04F55">
                    <rect id="Rectangle-27" x="14" y="10" width="9" height="4" rx="2"></rect>
                    <rect id="Rectangle-27-Copy" x="0" y="10" width="9" height="4" rx="2"></rect>
                    <rect id="Rectangle-27-Copy-2" transform="translate(11.500000, 5.000000) rotate(-270.000000) translate(-11.500000, -5.000000) " x="7" y="3" width="9" height="4" rx="2"></rect>
                    <rect id="Rectangle-27-Copy-3" transform="translate(11.500000, 19.000000) rotate(-270.000000) translate(-11.500000, -19.000000) " x="7" y="17" width="9" height="4" rx="2"></rect>
                </g>
                <g id="Group-13-Copy" transform="translate(282.909903, 86.617009) rotate(-315.000000) translate(-282.909903, -86.617009) translate(271.409903, 74.617009)" fill="#E04F55">
                    <rect id="Rectangle-27" x="14" y="10" width="9" height="4" rx="2"></rect>
                    <rect id="Rectangle-27-Copy" x="0" y="10" width="9" height="4" rx="2"></rect>
                    <rect id="Rectangle-27-Copy-2" transform="translate(11.500000, 5.000000) rotate(-270.000000) translate(-11.500000, -5.000000) " x="7" y="3" width="9" height="4" rx="2"></rect>
                    <rect id="Rectangle-27-Copy-3" transform="translate(11.500000, 19.000000) rotate(-270.000000) translate(-11.500000, -19.000000) " x="7" y="17" width="9" height="4" rx="2"></rect>
                </g>
                <circle id="Oval-2-Copy" stroke="#CCCCCC" stroke-width="3" cx="38" cy="58" r="4"></circle>
                <circle id="Oval-2-Copy-2" fill="#D8D8D8" cx="41" cy="136" r="3"></circle>
                <circle id="Oval-2-Copy-3" fill="#D8D8D8" cx="256" cy="60" r="3"></circle>
                <circle id="Oval-14" fill="#FAE6E7" cx="145" cy="95" r="95"></circle>
                <g id="Group-14" transform="translate(81.000000, 30.000000)">
                    <path d="M53.7414172,163.533295 C51.8310053,153.54526 50.3966388,141.320344 50.0595149,139.469404 C49.7223911,137.618464 50.902545,135.853039 52.8904411,137.951148 C54.8783373,140.049258 56.2763292,153.773562 57.4295196,160.987848 C58.5827101,168.202133 60.4459823,179.636124 61.3855254,190.071778 C59.5921238,191.796296 50.7788707,194.592345 50.0595149,191.804073 C49.3401592,189.015801 55.3160124,188.642538 58.5827101,188.451285 C56.5414022,178.513668 55.651829,173.52133 53.7414172,163.533295 Z" id="Path-3-Copy-3" fill="#666666"></path>
                    <path d="M74.7414172,163.533295 C72.8310053,153.54526 71.3966388,141.320344 71.0595149,139.469404 C70.7223911,137.618464 71.902545,135.853039 73.8904411,137.951148 C75.8783373,140.049258 77.2763292,153.773562 78.4295196,160.987848 C79.5827101,168.202133 81.4459823,179.636124 82.3855254,190.071778 C80.5921238,191.796296 71.7788707,194.592345 71.0595149,191.804073 C70.3401592,189.015801 76.3160124,188.642538 79.5827101,188.451285 C77.5414022,178.513668 76.651829,173.52133 74.7414172,163.533295 Z" id="Path-3-Copy-4" fill="#666666" transform="translate(76.692763, 164.992871) scale(-1, 1) translate(-76.692763, -164.992871) "></path>
                    <g id="doc-copy-2" transform="translate(12.000000, 0.000000)">
                        <path d="M89.6923077,0 L0,0 L0,138 L106,138 L106,16.2352941 L89.6923077,2.72004641e-15 Z" id="Combined-Shape" fill="#FFFFFF"></path>
                        <ellipse id="Oval-8" fill="#666666" cx="38.0566038" cy="39.057377" rx="4.05660377" ry="4.05737705"></ellipse>
                        <ellipse id="Oval-8-Copy" fill="#666666" cx="70.0566038" cy="39.057377" rx="4.05660377" ry="4.05737705"></ellipse>
                        <g id="Group-10" transform="translate(55.045712, 47.967577) rotate(13.000000) translate(-55.045712, -47.967577) translate(48.545712, 43.967577)" fill="#666666">
                            <path d="M0.202253197,4.29647707 C1.3545065,6.10426434 3.37688018,7.30327869 5.67924528,7.30327869 C9.18391307,7.30327869 12.0398119,4.52503905 12.165497,1.05040133 L9.71568135,1.21860217 C9.51150854,3.26825986 7.7822605,4.86885246 5.67924528,4.86885246 C4.2395596,4.86885246 2.97504068,4.11873142 2.2550634,2.98793464 L0.202253197,4.29647707 Z" id="Combined-Shape"></path>
                            <ellipse id="Oval-10" cx="1.21698113" cy="3.65163934" rx="1.21698113" ry="1.21721311"></ellipse>
                            <ellipse id="Oval-10-Copy" cx="10.9528302" cy="1.21721311" rx="1.21698113" ry="1.21721311"></ellipse>
                        </g>
                        <g id="Group-2" transform="translate(16.415094, 65.483607)" fill="#CCCCCC">
                            <rect id="Rectangle-19-Copy" x="0" y="17" width="74.6415094" height="6.49180328"></rect>
                            <rect id="Rectangle-19-Copy-4" x="0" y="0.770491803" width="74.6415094" height="6.49180328"></rect>
                            <rect id="Rectangle-19-Copy-2" x="0" y="33.4590164" width="74.6415094" height="6.49180328"></rect>
                            <rect id="Rectangle-19-Copy-3" x="0" y="49.6885246" width="74.6415094" height="6.49180328"></rect>
                        </g>
                    </g>
                    <path d="M51.8004047,85.5398692 C51.0120544,86.6801015 53.1583763,83.6628713 54.4461694,84.9375926 C55.7339625,86.2123139 55.0547916,86.9876718 54.3392986,88.1279041 C53.6238056,89.2681365 48.6500783,99.6115297 32.8825906,103.488755 C17.115103,107.365981 3.34376257,101.302653 1.76278541,99.9038271 C0.181808242,98.505001 0.0401454573,97.740005 0.643119395,97.3128053 C1.24609333,96.8856055 2.91626884,97.3915751 3.34732269,97.6165861 C12.9283576,103.429269 24.8244503,101.026875 31.4248756,99.187782 C44.9277367,94.7849903 52.5887549,84.3996368 51.8004047,85.5398692 Z" id="Path-14-Copy-4" fill="#666666" transform="translate(27.742352, 94.690999) scale(-1, 1) rotate(-43.000000) translate(-27.742352, -94.690999) "></path>
                    <path d="M128.078354,84.0848106 C127.290004,85.225043 129.436326,82.2078128 130.724119,83.4825341 C132.011912,84.7572553 131.332741,85.5326133 130.617248,86.6728456 C129.901755,87.8130779 124.928028,98.1564712 109.16054,102.033697 C93.3930524,105.910923 79.621712,99.8475946 78.0407349,98.4487685 C76.4597577,97.0499424 76.3180949,96.2849465 76.9210689,95.8577467 C77.5240428,95.430547 79.1942183,95.9365166 79.6252722,96.1615276 C89.2063071,101.974211 101.1024,99.571816 107.702825,97.7327235 C121.205686,93.3299318 128.866704,82.9445783 128.078354,84.0848106 Z" id="Path-14-Copy-5" fill="#666666" transform="translate(104.020301, 93.235940) rotate(-46.000000) translate(-104.020301, -93.235940) "></path>
                </g>
                <path d="M169.797945,111.390355 C163.884815,107.764622 154.751732,111.466133 147.500264,119.74977 C140.249409,111.466133 131.115714,107.764622 125.202584,111.390355 C118.020173,115.794036 118.310451,129.332022 125.850364,141.628227 C131.825216,151.372424 140.558021,157.406554 147.500264,157.302665 C154.442508,157.406554 163.175313,151.372424 169.150165,141.628227 C176.690078,129.332022 176.979745,115.794036 169.797945,111.390355 Z" id="Shape" fill="#E04F55" fill-rule="nonzero"></path>
            </g>
        </g>
    </g>
</svg>