<?xml version="1.0" encoding="UTF-8" standalone="no"?>
<svg width="262px" height="267px" viewBox="0 0 262 267" version="1.1" xmlns="http://www.w3.org/2000/svg" xmlns:xlink="http://www.w3.org/1999/xlink">
    <!-- Generator: Sketch 44.1 (41455) - http://www.bohemiancoding.com/sketch -->
    <title>DOCKY</title>
    <desc>Created with Sketch.</desc>
    <defs></defs>
    <g id="final" stroke="none" stroke-width="1" fill="none" fill-rule="evenodd">
        <g id="Artboard-2-Copy-22" transform="translate(-1100.000000, -801.000000)">
            <g id="Group-6" transform="translate(160.000000, 104.000000)">
                <g id="DOCKY" transform="translate(940.000000, 697.000000)">
                    <g id="doc2" transform="translate(99.000000, 40.000000)" fill="#666666">
                        <path d="M0.100105806,97.6999892 C0.971560274,101.755319 5.20283499,127.79064 5.20283499,143.448744 C5.20283499,159.106848 4.30082896,186.107374 4.30082896,188.779787 C4.30082896,191.452199 5.39845076,191.452199 8.23487935,191.452199 C11.0713079,191.452199 16.9514469,190.987907 14.7557277,188.779787 C12.5600084,186.571666 8.23487935,187.995311 6.96003302,188.236231 C5.68518669,188.477151 8.83895473,155.026109 9.07135295,140.926875 C9.30375117,126.827641 6.66660937,98.2674079 5.48371917,96.3549616 C4.30082896,94.4425153 -0.771348662,93.6446597 0.100105806,97.6999892 Z" id="leg"></path>
                        <path d="M74.0265615,12.6241457 C73.2432624,13.6646022 75.3758323,10.9113941 76.6553742,12.0745712 C77.9349162,13.2377483 77.2600968,13.9452587 76.5491882,14.9857153 C75.8382795,16.0261719 70.8964199,25.4644692 55.2299579,29.0024193 C39.5634959,32.5403694 25.8803915,27.0076113 24.309544,25.7311891 C22.7386965,24.4547669 22.5979413,23.7567118 23.1970519,23.366894 C23.7961625,22.9770762 25.4556368,23.4387711 25.8839288,23.6440926 C35.403576,28.9481384 47.2234479,26.7559646 53.7815828,25.0778014 C67.1979281,21.0602749 74.8098606,11.5836891 74.0265615,12.6241457 Z" id="arm" transform="translate(50.122654, 20.974508) scale(-1, -1) rotate(28.000000) translate(-50.122654, -20.974508) "></path>
                    </g>
                    <g id="bike" transform="translate(0.000000, 65.000000)">
                        <path d="M50.5841584,202 C22.6472991,202 0,179.335899 0,151.378313 C0,123.420728 22.6472991,100.756627 50.5841584,100.756627 C78.5210177,100.756627 101.168317,123.420728 101.168317,151.378313 C101.168317,179.335899 78.5210177,202 50.5841584,202 Z M50.5841584,192.914056 C73.5067096,192.914056 92.0891089,174.317871 92.0891089,151.378313 C92.0891089,128.438756 73.5067096,109.84257 50.5841584,109.84257 C27.6616072,109.84257 9.07920792,128.438756 9.07920792,151.378313 C9.07920792,174.317871 27.6616072,192.914056 50.5841584,192.914056 Z" id="Combined-Shape" fill="#4F5E84"></path>
                        <path d="M211.415842,202 C183.478982,202 160.831683,179.335899 160.831683,151.378313 C160.831683,123.420728 183.478982,100.756627 211.415842,100.756627 C239.352701,100.756627 262,123.420728 262,151.378313 C262,179.335899 239.352701,202 211.415842,202 Z M211.415842,192.914056 C234.338393,192.914056 252.920792,174.317871 252.920792,151.378313 C252.920792,128.438756 234.338393,109.84257 211.415842,109.84257 C188.49329,109.84257 169.910891,128.438756 169.910891,151.378313 C169.910891,174.317871 188.49329,192.914056 211.415842,192.914056 Z" id="Combined-Shape-Copy" fill="#4F5E84"></path>
                        <rect id="Rectangle-3" fill="#88D6FF" x="168.718266" y="15.4136546" width="8.92260062" height="60.8433735"></rect>
                        <path d="M211.415802,152.515062 C185.742255,136.771558 168.613861,108.434928 168.613861,76.0947791 C168.613861,75.6613893 168.616937,75.2287184 168.623069,74.7967871 L177.703318,74.7967871 C177.696494,75.2286336 177.693069,75.6613061 177.693069,76.0947791 C177.693069,103.116378 191.001048,127.027425 211.415842,141.622159 L211.415842,152.515086 Z" id="Combined-Shape" fill="#88D6FF"></path>
                        <path d="M93.3860993,152.515062 C67.7125519,136.771558 50.5841584,108.434928 50.5841584,76.0947791 C50.5841584,75.6613893 50.5872344,75.2287184 50.5933658,74.7967871 L59.6736146,74.7967871 C59.666791,75.2286336 59.6633663,75.6613061 59.6633663,76.0947791 C59.6633663,103.116378 72.9713446,127.027425 93.3861386,141.622159 L93.3861386,152.515086 Z" id="Combined-Shape" fill="#88D6FF" transform="translate(71.985149, 113.655937) scale(-1, 1) translate(-71.985149, -113.655937) "></path>
                        <path d="M56.7826339,155.046761 L126.570796,155.046761 C130.151218,155.046761 134.829683,152.756974 137.018791,149.932379 L178.034056,97.0105931 C180.219713,94.190451 179.094683,91.896211 175.513523,91.896211 L96.5290482,91.896211 C92.9486269,91.896211 88.2701618,94.1859979 86.0810535,97.0105931 L82.7528668,101.304935 L84.714034,113.717384 L84.2395411,114.497087 L91.549373,105.065249 C93.7436275,102.234013 98.4233576,99.9388433 102.00055,99.9388433 L157.575674,99.9388433 C161.153445,99.9388433 162.282143,102.224805 160.080752,105.065249 L131.550472,141.877723 C129.356217,144.708959 124.676487,147.004129 121.099295,147.004129 L65.5241705,147.004129 C64.9910963,147.004129 64.5123911,146.953381 64.0909692,146.857612 L56.7826339,155.046761 Z" id="Combined-Shape" fill="#88D6FF"></path>
                        <path d="M97.5295813,91.6706827 L91.4349127,91.6706827 L84.1742331,96.8565129 L125.134124,149.70685 C126.654365,151.668409 129.375148,153.372046 132.094996,154.229991 L138.81036,151.388394 L134.155022,144.653876 C132.729661,143.810145 131.471232,142.773188 130.602444,141.652195 L102.072163,104.83972 C100.188382,102.409087 100.743099,100.384479 103.184259,99.8508671 L97.5295813,91.6706827 Z" id="Combined-Shape" fill="#88D6FF"></path>
                        <ellipse id="Oval-11-Copy" fill="#4F5E84" cx="178.452012" cy="7.30120482" rx="7.3003096" ry="7.30120482"></ellipse>
                        <rect id="Rectangle-5" fill="#88D6FF" transform="translate(171.382575, 18.526125) rotate(34.000000) translate(-171.382575, -18.526125) " x="167.73242" y="5.46118581" width="7.3003096" height="26.1298777" rx="3.6501548"></rect>
                        <ellipse id="Oval-11" fill="#4F5E84" cx="163.040248" cy="30.0160643" rx="7.3003096" ry="7.30120482"></ellipse>
                        <ellipse id="Oval-5" fill="#45A1D2" cx="50.9914249" cy="151.785882" rx="13.8012064" ry="13.8114455"></ellipse>
                        <ellipse id="Oval-5-Copy" fill="#45A1D2" cx="211.414838" cy="151.702811" rx="13.7809406" ry="13.7911647"></ellipse>
                        <rect id="Rectangle-17" fill="#88D6FF" transform="translate(131.405573, 151.702811) rotate(55.000000) translate(-131.405573, -151.702811) " x="129.783282" y="119.253012" width="3.24458204" height="64.8995984"></rect>
                        <rect id="Rectangle-4" fill="#4F5E84" x="146.817337" y="127.365462" width="17.8452012" height="8.92369478" rx="4.05"></rect>
                        <rect id="Rectangle-4-Copy" fill="#4F5E84" x="99.7708978" y="165.493976" width="17.8452012" height="8.92369478" rx="4.05"></rect>
                        <ellipse id="Oval-5-Copy-2" fill="#45A1D1" cx="131" cy="151.378313" rx="15.8886139" ry="15.9004016"></ellipse>
                        <g id="Group-9" transform="translate(53.954628, 171.754770) rotate(122.000000) translate(-53.954628, -171.754770) translate(32.864845, 149.445533)" fill="#C7D1E2">
                            <ellipse id="Oval-6" cx="3.89108911" cy="3.8939759" rx="3.89108911" ry="3.8939759"></ellipse>
                            <ellipse id="Oval-6-Copy" cx="37.4841505" cy="40.237751" rx="3.89108911" ry="3.8939759"></ellipse>
                            <path d="M3.89108911,0 C24.6646511,0 41.5049505,16.8527932 41.5049505,37.6417671 C41.5049505,38.514348 41.475282,39.3799944 41.4168995,40.237751 L33.5301802,40.237751 C33.6040199,39.3822572 33.6417079,38.5164166 33.6417079,37.6417671 C33.6417079,21.198764 20.3219022,7.86907631 3.89108911,7.86907631 L3.89108911,-3.77475828e-15 Z" id="Combined-Shape"></path>
                        </g>
                        <g id="Group-9-Copy" transform="translate(223.289495, 132.785471) rotate(-15.000000) translate(-223.289495, -132.785471) translate(202.199712, 110.476234)" fill="#C7D1E2">
                            <ellipse id="Oval-6" cx="3.89108911" cy="3.8939759" rx="3.89108911" ry="3.8939759"></ellipse>
                            <ellipse id="Oval-6-Copy" cx="37.4841505" cy="40.237751" rx="3.89108911" ry="3.8939759"></ellipse>
                            <path d="M3.89108911,0 C24.6646511,0 41.5049505,16.8527932 41.5049505,37.6417671 C41.5049505,38.514348 41.475282,39.3799944 41.4168995,40.237751 L33.5301802,40.237751 C33.6040199,39.3822572 33.6417079,38.5164166 33.6417079,37.6417671 C33.6417079,21.198764 20.3219022,7.86907631 3.89108911,7.86907631 L3.89108911,-4.4408921e-16 Z" id="Combined-Shape"></path>
                        </g>
                        <rect id="Rectangle-14" fill="#4F5E84" x="68.9686818" y="72.8200368" width="38.4586759" height="15.6354284" rx="7.776"></rect>
                    </g>
                    <g id="doc" transform="translate(41.000000, 0.000000)">
                        <path d="M89.245283,0 L0,0 L0,137.95082 L105.471698,137.95082 L105.471698,16.2295082 L89.245283,1.01585407e-14 Z" id="Combined-Shape" fill="#FFFFFF"></path>
                        <ellipse id="Oval-8" fill="#666666" cx="72.2075472" cy="33.2704918" rx="4.05660377" ry="4.05737705"></ellipse>
                        <ellipse id="Oval-8-Copy" fill="#666666" cx="91.6792453" cy="31.647541" rx="4.05660377" ry="4.05737705"></ellipse>
                        <g id="Group-10" transform="translate(83.200763, 43.107103) rotate(9.000000) translate(-83.200763, -43.107103) translate(76.700763, 39.107103)" fill="#666666">
                            <path d="M0.202253197,4.29647707 C1.3545065,6.10426434 3.37688018,7.30327869 5.67924528,7.30327869 C9.18391307,7.30327869 12.0398119,4.52503905 12.165497,1.05040133 L9.71568135,1.21860217 C9.51150854,3.26825986 7.7822605,4.86885246 5.67924528,4.86885246 C4.2395596,4.86885246 2.97504068,4.11873142 2.2550634,2.98793464 L0.202253197,4.29647707 Z" id="Combined-Shape"></path>
                            <ellipse id="Oval-10" cx="1.21698113" cy="3.65163934" rx="1.21698113" ry="1.21721311"></ellipse>
                            <ellipse id="Oval-10-Copy" cx="10.9528302" cy="1.21721311" rx="1.21698113" ry="1.21721311"></ellipse>
                        </g>
                        <g id="Group-2" transform="translate(15.415094, 62.483607)" fill="#CCCCCC">
                            <rect id="Rectangle-19" x="0" y="0" width="74.6415094" height="6.49180328"></rect>
                            <rect id="Rectangle-19-Copy" x="0" y="16.2295082" width="74.6415094" height="6.49180328"></rect>
                            <rect id="Rectangle-19-Copy-2" x="0" y="32.4590164" width="74.6415094" height="6.49180328"></rect>
                            <rect id="Rectangle-19-Copy-3" x="0" y="48.6885246" width="74.6415094" height="6.49180328"></rect>
                        </g>
                        <path d="M112.263841,139.671726 C113.367486,135.780633 115.582531,137.916779 115.582531,140.655 C115.582531,142.519358 116.914886,158.792292 109.13409,169.237854 C101.353294,179.683415 87.6281515,183.687971 78.9957276,183.687971 C70.1612871,183.687971 74.7189963,189.205922 74.7189963,191.345953 C74.7189963,193.485983 73.4051134,195.41511 71.7323955,192.837697 C70.7101028,191.262493 71.0049666,187.413216 71.0236921,186.072392 C71.0424175,184.731567 71.1859888,182.231317 73.3274551,181.951478 C76.7226652,181.507804 96.6397001,180.577419 105.411405,167.021311 C109.122513,161.286031 109.749651,153.37475 110.588466,149.350039 C111.427281,145.325328 111.748598,141.488306 112.263841,139.671726 Z" id="Path-12" fill="#666666" transform="translate(93.319692, 165.810083) rotate(-66.000000) translate(-93.319692, -165.810083) "></path>
                        <path d="M121.140233,73.7883851 C120.351883,74.830574 122.498205,72.0727819 123.785998,73.2378956 C125.073791,74.4030093 124.39462,75.1116978 123.679127,76.1538867 C122.963634,77.1960756 117.989907,86.6500873 102.222419,90.1939279 C86.4549316,93.7377686 72.6835912,88.1957986 71.1026141,86.9172513 C69.5216369,85.6387039 69.3799741,84.9394865 69.9829481,84.5490197 C70.585922,84.1585529 72.2560975,84.6210165 72.6871513,84.8266798 C82.2681863,90.1395566 94.164279,87.943733 100.764704,86.2627757 C114.267565,82.2385601 121.928584,72.7461962 121.140233,73.7883851 Z" id="Path-14" fill="#666666" transform="translate(97.082180, 82.152651) scale(-1, 1) rotate(-18.000000) translate(-97.082180, -82.152651) "></path>
                    </g>
                </g>
            </g>
        </g>
    </g>
</svg>