<?xml version="1.0" encoding="UTF-8" standalone="no"?>
<svg width="994px" height="493px" viewBox="0 0 994 493" version="1.1" xmlns="http://www.w3.org/2000/svg" xmlns:xlink="http://www.w3.org/1999/xlink">
    <!-- Generator: Sketch 45.1 (43504) - http://www.bohemiancoding.com/sketch -->
    <title>Group 7</title>
    <desc>Created with Sketch.</desc>
    <defs></defs>
    <g id="final" stroke="none" stroke-width="1" fill="none" fill-rule="evenodd">
        <g id="Artboard-2-Copy-22" transform="translate(-752.000000, -575.000000)">
            <g id="Group-6" transform="translate(160.000000, -65.000000)">
                <g id="Group-7" transform="translate(592.000000, 640.000000)">
                    <path d="M859.261066,293.523826 C864.847011,296.995214 871.439384,299 878.5,299 C898.658393,299 915,282.658393 915,262.5 C915,242.341607 898.658393,226 878.5,226 C868.241267,226 858.971028,230.23224 852.340044,237.045958 C848.525119,234.490472 843.936619,233 839,233 C826.346629,233 815.980332,242.792127 815.065605,255.211883 C814.063761,255.072207 813.040313,255 812,255 C799.849736,255 790,264.849736 790,277 C790,289.150264 799.849736,299 812,299 C818.094716,299 823.610585,296.521665 827.594803,292.517801 C831.88615,296.53823 837.655586,299 844,299 C849.796585,299 855.113202,296.945014 859.261066,293.523826 Z" id="cloud_01" fill="#FFDA3E"></path>
                    <path d="M442.995778,80.1501111 C442.993667,79.5273333 442.959889,78.9425556 442.902889,78.381 C442.026778,63.9156667 431.135556,52.1884444 417.054444,50.0266667 C415.295889,27.6298889 396.576667,10 373.728111,10 C358.564,10 345.219667,17.7688889 337.438111,29.5383333 C334.123667,28.8606667 330.661444,28.4933333 327.097889,28.4933333 C309.484889,28.4933333 294.322889,37.2797778 287.493444,49.9063333 C286.222556,49.7437778 284.934778,49.634 283.621667,49.634 C266.709556,49.634 253,63.3414444 253,80.2514444 C253,95.0207778 262.939111,108.481222 277.077222,109.933667 C279.277,110.157444 286.226778,110.227111 286.226778,110.227111 L408.696556,110.227111 C408.696556,110.227111 416.102333,110.241889 418.557556,109.992778 C431.545111,108.673333 441.220333,97.0136667 442.767778,83.8614444 C442.767778,83.8361111 442.774111,83.8128889 442.778333,83.7896667 C442.814222,83.4793333 442.839556,83.169 442.867,82.8565556 C442.945111,82.01 443,81.1528889 443,80.2746667 L443,80.2514444 C443,80.2155556 442.995778,80.186 442.995778,80.1501111 Z" id="cloud_03" fill="#FFDA3E" fill-rule="nonzero"></path>
                    <rect id="Rectangle-23" stroke-opacity="0.0263813406" stroke="#979797" x="0.5" y="1.36121217" width="993" height="491.138788"></rect>
                </g>
            </g>
        </g>
    </g>
</svg>
