<?xml version="1.0" encoding="UTF-8" standalone="no"?>
<svg width="88px" height="160px" viewBox="0 0 88 160" version="1.1" xmlns="http://www.w3.org/2000/svg" xmlns:xlink="http://www.w3.org/1999/xlink">
    <!-- Generator: Sketch 45.1 (43504) - http://www.bohemiancoding.com/sketch -->
    <title>Group 7</title>
    <desc>Created with Sketch.</desc>
    <defs></defs>
    <g id="final" stroke="none" stroke-width="1" fill="none" fill-rule="evenodd">
        <g id="Artboard-2-Copy-22" transform="translate(-1373.000000, -831.000000)">
            <g id="Group-6" transform="translate(160.000000, -65.000000)">
                <g id="Group-7" transform="translate(592.000000, 640.000000)">
                    <g id="thee" transform="translate(621.000000, 256.000000)">
                        <rect id="Rectangle-22" fill="#FFDA3E" x="38" y="131" width="12" height="29"></rect>
                        <path d="M43.7137323,140 C66.357407,140 96.7137323,123.88379 84.7137323,75.5 C72.7137323,27.1162099 66.357407,0 43.7137323,0 C21.0700576,0 14.7137323,28.1162099 2.7137323,75.5 C-9.2862677,122.88379 21.0700576,140 43.7137323,140 Z" id="Oval-30" fill="#FFDA3E"></path>
                        <path d="M44,29 C47,29 47.0557281,99.7468756 48,125.114595 C47.0557281,128.804173 40.9700061,128.422531 40,125.114595 C40.9700061,100.365233 41,29 44,29 Z" id="Rectangle-22" fill="#F4C84F"></path>
                    </g>
                    <rect id="Rectangle-23" x="0" y="0.861212174" width="994" height="492.138788"></rect>
                </g>
            </g>
        </g>
    </g>
</svg>