<?xml version="1.0" encoding="UTF-8" standalone="no"?>
<svg width="295px" height="173px" viewBox="0 0 295 173" version="1.1" xmlns="http://www.w3.org/2000/svg" xmlns:xlink="http://www.w3.org/1999/xlink">
    <!-- Generator: Sketch 45.1 (43504) - http://www.bohemiancoding.com/sketch -->
    <title>Group 8</title>
    <desc>Created with Sketch.</desc>
    <defs></defs>
    <g id="final" stroke="none" stroke-width="1" fill="none" fill-rule="evenodd">
        <g id="Artboard-2-Copy-28" transform="translate(-1103.000000, -559.000000)">
            <g id="Group-8" transform="translate(1103.000000, 559.000000)">
                <circle id="Oval-14" fill="#C0E1E9" cx="145.295721" cy="86.295721" r="86.295721"></circle>
                <g id="Group-7" transform="translate(94.000000, 37.000000)">
                    <rect id="Rectangle-24" fill="#FFFFFF" x="0" y="28" width="102" height="20"></rect>
                    <rect id="Rectangle-27" fill="#E04F55" x="43" y="28" width="16" height="20"></rect>
                    <path d="M54,25 L65,25 C71.0751322,25 76,20.0751322 76,14 C76,7.92486775 71.0751322,3 65,3 C58.9248678,3 54,7.92486775 54,14 L54,25 Z" id="Combined-Shape" stroke="#E04F55" stroke-width="6"></path>
                    <path d="M26,25 L37,25 C43.0751322,25 48,20.0751322 48,14 C48,7.92486775 43.0751322,3 37,3 C30.9248678,3 26,7.92486775 26,14 L26,25 Z" id="Combined-Shape-Copy-2" stroke="#E04F55" stroke-width="6" transform="translate(37.000000, 14.000000) scale(-1, 1) translate(-37.000000, -14.000000) "></path>
                    <rect id="Rectangle-26" fill="#F9F9F9" x="12" y="48" width="77" height="48"></rect>
                    <rect id="Rectangle-27-Copy" fill="#E04F55" x="45" y="48" width="12" height="48"></rect>
                    <rect id="Rectangle-28" fill="#333333" opacity="0.200000003" x="12" y="48" width="77" height="8"></rect>
                </g>
                <circle id="Oval-2" stroke="#CCCCCC" stroke-width="3" cx="259" cy="115" r="5"></circle>
                <rect id="Rectangle-27" fill="#85D8EB" x="14" y="97" width="9" height="4" rx="2"></rect>
                <rect id="Rectangle-27-Copy" fill="#85D8EB" x="0" y="97" width="9" height="4" rx="2"></rect>
                <rect id="Rectangle-27-Copy-2" fill="#85D8EB" transform="translate(11.500000, 92.000000) rotate(-270.000000) translate(-11.500000, -92.000000) " x="7" y="90" width="9" height="4" rx="2"></rect>
                <rect id="Rectangle-27-Copy-3" fill="#85D8EB" transform="translate(11.500000, 106.000000) rotate(-270.000000) translate(-11.500000, -106.000000) " x="7" y="104" width="9" height="4" rx="2"></rect>
                <rect id="Rectangle-27" fill="#6AC6DC" x="285.79899" y="75.9705627" width="9" height="4" rx="2"></rect>
                <rect id="Rectangle-27-Copy" fill="#6AC6DC" x="275.899495" y="66.0710678" width="9" height="4" rx="2"></rect>
                <rect id="Rectangle-27-Copy-2" fill="#6AC6DC" transform="translate(290.298990, 68.071068) rotate(-270.000000) translate(-290.298990, -68.071068) " x="285.79899" y="66.0710678" width="9" height="4" rx="2"></rect>
                <rect id="Rectangle-27-Copy-3" fill="#6AC6DC" transform="translate(280.399495, 77.970563) rotate(-270.000000) translate(-280.399495, -77.970563) " x="275.899495" y="75.9705627" width="9" height="4" rx="2"></rect>
                <circle id="Oval-2-Copy" stroke="#CCCCCC" stroke-width="3" cx="38" cy="47" r="4"></circle>
                <circle id="Oval-2-Copy-2" fill="#D8D8D8" cx="41" cy="125" r="3"></circle>
                <circle id="Oval-2-Copy-3" fill="#D8D8D8" cx="256" cy="49" r="3"></circle>
            </g>
        </g>
    </g>
</svg>