<?xml version="1.0" encoding="UTF-8" standalone="no"?>
<svg width="293px" height="173px" viewBox="0 0 293 173" version="1.1" xmlns="http://www.w3.org/2000/svg" xmlns:xlink="http://www.w3.org/1999/xlink">
    <!-- Generator: Sketch 45.1 (43504) - http://www.bohemiancoding.com/sketch -->
    <title>Group</title>
    <desc>Created with Sketch.</desc>
    <defs></defs>
    <g id="final" stroke="none" stroke-width="1" fill="none" fill-rule="evenodd">
        <g id="Artboard-2" transform="translate(-1113.000000, -204.000000)">
            <g id="Group" transform="translate(1113.000000, 204.000000)">
                <circle id="Oval-14-Copy-2" fill="#FFEEBC" cx="146.061702" cy="86.295721" r="86.295721"></circle>
                <g id="Group-7-Copy-2" transform="translate(94.765981, 37.000000)">
                    <rect id="Rectangle-24" fill="#FFFFFF" x="0" y="28" width="102" height="20"></rect>
                    <rect id="Rectangle-27" fill="#FFC820" x="43" y="28" width="16" height="20"></rect>
                    <path d="M54,25 L65,25 C71.0751322,25 76,20.0751322 76,14 C76,7.92486775 71.0751322,3 65,3 C58.9248678,3 54,7.92486775 54,14 L54,25 Z" id="Combined-Shape" stroke="#FFC820" stroke-width="6"></path>
                    <path d="M26,25 L37,25 C43.0751322,25 48,20.0751322 48,14 C48,7.92486775 43.0751322,3 37,3 C30.9248678,3 26,7.92486775 26,14 L26,25 Z" id="Combined-Shape-Copy-2" stroke="#FFC820" stroke-width="6" transform="translate(37.000000, 14.000000) scale(-1, 1) translate(-37.000000, -14.000000) "></path>
                    <rect id="Rectangle-26" fill="#F9F9F9" x="12" y="48" width="77" height="48"></rect>
                    <rect id="Rectangle-27-Copy" fill="#FFC820" x="45" y="48" width="12" height="48"></rect>
                    <rect id="Rectangle-28-Copy" fill="#333333" opacity="0.199999988" x="12" y="48" width="77" height="8"></rect>
                </g>
                <circle id="Oval-2-Copy-8" stroke="#CCCCCC" stroke-width="3" cx="259.765981" cy="115" r="5"></circle>
                <g id="Group-13-Copy-4" transform="translate(0.765981, 87.000000)" fill="#FFDA3E">
                    <rect id="Rectangle-27" x="14" y="10" width="9" height="4" rx="2"></rect>
                    <rect id="Rectangle-27-Copy" x="0" y="10" width="9" height="4" rx="2"></rect>
                    <rect id="Rectangle-27-Copy-2" transform="translate(11.500000, 5.000000) rotate(-270.000000) translate(-11.500000, -5.000000) " x="7" y="3" width="9" height="4" rx="2"></rect>
                    <rect id="Rectangle-27-Copy-3" transform="translate(11.500000, 19.000000) rotate(-270.000000) translate(-11.500000, -19.000000) " x="7" y="17" width="9" height="4" rx="2"></rect>
                </g>
                <g id="Group-13-Copy-5" transform="translate(283.382991, 75.617009) rotate(-315.000000) translate(-283.382991, -75.617009) translate(271.882991, 63.617009)" fill="#FFDA3E">
                    <rect id="Rectangle-27" x="14" y="10" width="9" height="4" rx="2"></rect>
                    <rect id="Rectangle-27-Copy" x="0" y="10" width="9" height="4" rx="2"></rect>
                    <rect id="Rectangle-27-Copy-2" transform="translate(11.500000, 5.000000) rotate(-270.000000) translate(-11.500000, -5.000000) " x="7" y="3" width="9" height="4" rx="2"></rect>
                    <rect id="Rectangle-27-Copy-3" transform="translate(11.500000, 19.000000) rotate(-270.000000) translate(-11.500000, -19.000000) " x="7" y="17" width="9" height="4" rx="2"></rect>
                </g>
                <circle id="Oval-2-Copy-9" stroke="#CCCCCC" stroke-width="3" cx="38.7659813" cy="47" r="4"></circle>
                <circle id="Oval-2-Copy-10" fill="#D8D8D8" cx="41.7659813" cy="125" r="3"></circle>
            </g>
        </g>
    </g>
</svg>