<?xml version="1.0" encoding="UTF-8" standalone="no"?>
<svg width="35px" height="40px" viewBox="0 0 35 40" version="1.1" xmlns="http://www.w3.org/2000/svg" xmlns:xlink="http://www.w3.org/1999/xlink">
    <!-- Generator: Sketch 44.1 (41455) - http://www.bohemiancoding.com/sketch -->
    <title>noun_16311</title>
    <desc>Created with Sketch.</desc>
    <defs></defs>
    <g id="final" stroke="none" stroke-width="1" fill="none" fill-rule="evenodd">
        <g id="Artboard-2-Copy-24" transform="translate(-1338.000000, -1305.000000)" fill-rule="nonzero" fill="#FFFFFF">
            <g id="Group-2" transform="translate(1272.000000, 1281.000000)">
                <g id="noun_16311" transform="translate(66.000000, 24.000000)">
                    <path d="M32.1232877,25.946506 C32.1232877,25.1908434 31.5139041,24.5783133 30.7621233,24.5783133 L15.744726,24.5783133 C14.9929452,24.5783133 14.3835616,25.1908434 14.3835616,25.946506 L14.3835616,38.1498795 C14.3835616,38.9055422 14.9929452,39.5180723 15.744726,39.5180723 L30.7621233,39.5180723 C31.5139041,39.5180723 32.1232877,38.9055422 32.1232877,38.1498795 L32.1232877,25.946506 Z" id="Shape"></path>
                    <path d="M35,14.8621687 C35,14.106506 34.3906164,13.4939759 33.6388356,13.4939759 L15.744726,13.4939759 C14.9929452,13.4939759 14.3835616,14.106506 14.3835616,14.8621687 L14.3835616,20.8004819 C14.3835616,21.5561446 14.9929452,22.1686747 15.744726,22.1686747 L33.6388356,22.1686747 C34.3906164,22.1686747 35,21.5561446 35,20.8004819 L35,14.8621687 Z" id="Shape"></path>
                    <path d="M11.0273973,38.1498795 C11.0273973,38.9055422 10.4180137,39.5180723 9.66623288,39.5180723 L4.23787671,39.5180723 C3.48609589,39.5180723 2.87671233,38.9055422 2.87671233,38.1498795 L2.87671233,25.946506 C2.87671233,25.1908434 3.48609589,24.5783133 4.23787671,24.5783133 L9.66623288,24.5783133 C10.4180137,24.5783133 11.0273973,25.1908434 11.0273973,25.946506 L11.0273973,38.1498795 Z" id="Shape"></path>
                    <path d="M11.0273973,20.8 C11.0273973,21.5556627 10.4180137,22.1686747 9.66623288,22.1686747 L1.36116438,22.1686747 C0.609383562,22.1686747 0,21.5561446 0,20.8 L0,14.8621687 C0,14.106506 0.609383562,13.4939759 1.36116438,13.4939759 L9.66623288,13.4939759 C10.4180137,13.4939759 11.0273973,14.106506 11.0273973,14.8621687 L11.0273973,20.8 Z" id="Shape"></path>
                    <path d="M30.7908904,2.46216867 C29.9973973,1.08048193 28.3466438,0.255903614 26.3775342,0.255903614 C21.8936986,0.255903614 18.7163699,4.36771084 17.1557534,6.96337349 C15.5922603,4.37060241 12.4158904,0.281927711 7.94212329,0.281927711 C5.10472603,0.281927711 3.0459589,1.99807229 3.0459589,4.32626506 C3.0459589,8.45542169 7.68465753,11.1493976 17.0095205,11.1493976 C26.3343836,11.1493976 31.275137,7.68626506 31.275137,4.36048193 C31.2741781,3.69927711 31.129863,3.05204819 30.7908904,2.46216867 Z M7.89321918,6.57445783 C6.32589041,5.76481928 5.76780822,4.85590361 5.76780822,4.2746988 C5.76780822,3.53156627 6.68164384,2.99228916 7.94164384,2.99228916 C10.9765753,2.99228916 13.3781507,6.02361446 14.6832192,8.1339759 C11.1870548,7.90891566 9.0889726,7.19277108 7.89321918,6.57445783 Z M28.3408904,4.96626506 C27.5512329,6.34024096 24.8610274,7.79662651 19.6493836,8.13349398 C20.965,6.02361446 23.3776027,2.99277108 26.3770548,2.99277108 C27.5378082,2.99277108 28.1999315,3.42554217 28.4329452,3.83084337 C28.6184932,4.15373494 28.5873288,4.53590361 28.3408904,4.96626506 Z" id="Shape"></path>
                </g>
            </g>
        </g>
    </g>
</svg>