<?xml version="1.0" encoding="UTF-8" standalone="no"?>
<svg width="39px" height="30px" viewBox="0 0 39 30" version="1.1" xmlns="http://www.w3.org/2000/svg" xmlns:xlink="http://www.w3.org/1999/xlink">
    <!-- Generator: Sketch 44.1 (41455) - http://www.bohemiancoding.com/sketch -->
    <title>Shape</title>
    <desc>Created with Sketch.</desc>
    <defs></defs>
    <g id="final" stroke="none" stroke-width="1" fill="none" fill-rule="evenodd">
        <g id="Artboard-2-Copy-24" transform="translate(-916.000000, -1312.000000)" fill-rule="nonzero" fill="#FFFFFF">
            <g id="Group" transform="translate(864.000000, 1281.000000)">
                <path d="M89.7242817,31.6816828 L59.595831,39.7135152 L53.800338,37.7823476 C53.4890141,37.6789465 53.1503099,37.7296333 52.8866479,37.9212295 C52.6209577,38.1118119 52.4647887,38.4179602 52.4647887,38.7433696 L52.4647887,50.9082048 C52.4647887,51.2336141 52.6209577,51.5397624 52.8866479,51.7313586 C53.1513239,51.921941 53.4900282,51.9746553 53.800338,51.8702405 L59.595831,49.9390729 L62.6380845,50.7500619 C62.6289577,50.8027762 62.6056338,50.8514355 62.6056338,50.9082048 L62.6056338,56.9906223 C62.6056338,57.4741745 62.9463662,57.8898064 63.4209577,57.9840839 L73.5618028,60.0115564 C73.6277183,60.024735 73.6946479,60.0318311 73.7605634,60.0318311 C73.9927887,60.0318311 74.2209577,59.951746 74.403493,59.801713 C74.6387606,59.6091031 74.7746479,59.3222157 74.7746479,59.0180949 L74.7746479,53.9838806 L89.7242817,57.9698916 C89.8104789,57.9932075 89.8987042,58.0043586 89.9859155,58.0043586 C90.2069859,58.0043586 90.4250141,57.9323833 90.603493,57.7945152 C90.8529577,57.602919 91,57.3058943 91,56.9906223 L91,32.660952 C91,32.34568 90.8529577,32.0486553 90.603493,31.8570591 C90.3540282,31.665463 90.0295211,31.6026113 89.7242817,31.6816828 Z M72.7464789,57.7813366 L64.6338028,56.1593586 L64.6338028,51.2812597 L72.7464789,53.4435591 L72.7464789,57.7813366 Z" id="Shape" transform="translate(71.732394, 45.840091) scale(-1, 1) translate(-71.732394, -45.840091) "></path>
            </g>
        </g>
    </g>
</svg>