<?xml version="1.0" encoding="UTF-8" standalone="no"?>
<svg width="986px" height="517px" viewBox="0 0 986 517" version="1.1" xmlns="http://www.w3.org/2000/svg" xmlns:xlink="http://www.w3.org/1999/xlink">
    <!-- Generator: Sketch 44.1 (41455) - http://www.bohemiancoding.com/sketch -->
    <title>Group 7</title>
    <desc>Created with Sketch.</desc>
    <defs></defs>
    <g id="final" stroke="none" stroke-width="1" fill="none" fill-rule="evenodd">
        <g id="Artboard-2-Copy-22" transform="translate(-629.000000, -442.000000)">
            <g id="Group-6" transform="translate(51.000000, 106.000000)">
                <g id="Group-7" transform="translate(578.000000, 336.000000)">
                    <path d="M828,508 L828,477 L819,477 L819,508 L828,508 Z M833,508 L846.049759,508 L805.899941,126 L783.891311,126 L743.741493,508 L757,508 L757,472 L833,472 L833,508 Z M762,508 L772,508 L772,477 L762,477 L762,508 Z M777,508 L786,508 L786,477 L777,477 L777,508 Z M791,508 L800,508 L800,477 L791,477 L791,508 Z M805,508 L814,508 L814,477 L805,477 L805,508 Z M734.691919,508 L753.965893,324.620383 L753.965893,117 L775.787675,117 L787.965893,1.13199169 L787.965893,0 L801.965893,0 L801.965893,2.46908616 L814.003577,117 L835.965893,117 L835.965893,325 L835.865258,325 L855.099333,508 L875,508 L875,517 L714,517 L714,508 L734.691919,508 Z M804.954003,117 L794.895626,21.3009378 L784.837249,117 L804.954003,117 Z M826.965893,240.328198 L826.965893,126 L814.949515,126 L826.965893,240.328198 Z M762.965893,238.991103 L774.841737,126 L762.965893,126 L762.965893,238.991103 Z M789,134 L801,134 L801,139 L789,139 L789,134 Z M787,147 L803,147 L803,152 L787,152 L787,147 Z M785,160 L805,160 L805,165 L785,165 L785,160 Z M784,173 L806,173 L806,178 L784,178 L784,173 Z M782,186 L808,186 L808,191 L782,191 L782,186 Z M781,199 L809,199 L809,204 L781,204 L781,199 Z M780,212 L810,212 L810,217 L780,217 L780,212 Z M779,225 L811,225 L811,230 L779,230 L779,225 Z M777,238 L813,238 L813,243 L777,243 L777,238 Z M775,251 L815,251 L815,256 L775,256 L775,251 Z M774,264 L816,264 L816,269 L774,269 L774,264 Z M773,277 L817,277 L817,282 L773,282 L773,277 Z M772,290 L818,290 L818,295 L772,295 L772,290 Z M771,303 L819,303 L819,308 L771,308 L771,303 Z M770,316 L820,316 L820,321 L770,321 L770,316 Z M769,329 L821,329 L821,334 L769,334 L769,329 Z M768,342 L822,342 L822,347 L768,347 L768,342 Z M767,355 L823,355 L823,360 L767,360 L767,355 Z M766,368 L824,368 L824,373 L766,373 L766,368 Z M765,381 L825,381 L825,386 L765,386 L765,381 Z M764,394 L826,394 L826,399 L764,399 L764,394 Z M763,407 L827,407 L827,412 L763,412 L763,407 Z M762,420 L828,420 L828,425 L762,425 L762,420 Z M761,433 L829,433 L829,438 L761,438 L761,433 Z M760,446 L830,446 L830,451 L760,451 L760,446 Z M759,459 L831,459 L831,464 L759,464 L759,459 Z" id="Combined-Shape" fill="#FFDA3E"></path>
                    <path d="M490,481 L440,481 L440,517 L430,517 L430,481 L210,481 L210,517 L200,517 L200,481 L150,481 L150,517 L140,517 L140,481 L0,481 L0,476 L0,471 C77.3198649,471 140,372.95036 140,252 L140,222 L150,222 L150,247 L200,247 L200,222 L210,222 L210,252 C210,372.95036 272.680135,471 350,471 C351.673689,471 353.340518,470.954058 355,470.862935 L355,448 L360,448 L360,470.449934 C366.812807,469.697804 373.491029,468.183148 380,465.960192 L380,425 L385,425 L385,464.100543 C391.88596,461.328122 398.566889,457.756789 405,453.453473 L405,382 L410,382 L410,449.924968 C417.006622,444.718268 423.692902,438.62798 430,431.74615 L430,222 L440,222 L440,247 L490,247 L490,222 L500,222 L500,252 C500,372.95036 562.680135,471 640,471 C640.333607,471 640.666942,470.998175 641,470.99453 L641,480.995018 C640.666923,480.998338 640.333589,481 640,481 L500,481 L500,517 L490,517 L490,481 Z M490,407 L480,407 L480,471 L490,471 L490,407 Z M490,397 L490,334.385152 C487.198613,345.473187 483.848331,356.14472 480,366.322124 L480,397 L490,397 Z M500,334.385152 L500,471 L520,471 L520,389.422325 C511.772354,372.703901 505.008808,354.210274 500,334.385152 Z M200,435.216771 C196.548134,431.258434 193.211768,427.078034 190,422.689463 L190,471 L200,471 L200,435.216771 Z M210,445.747408 L210,471 L230,471 L230,461.945199 C223.042229,457.304164 216.359652,451.880611 210,445.747408 Z M200,332 L159.634959,332 C165.665676,356.028923 174.332927,377.986037 185.07969,397 L200,397 L200,332 Z M200,322 L200,257 L150.035769,257 C150.360655,279.685906 152.890822,301.520543 157.304132,322 L200,322 Z M210,334.385152 L210,431.74615 C216.307098,438.62798 222.993378,444.718268 229.999992,449.924962 L230,389.422325 C221.772354,372.703901 215.008808,354.210274 210,334.385152 Z M200,419.757562 L200,407 L191.096944,407 C193.945596,411.447895 196.916117,415.704852 200,419.757562 Z M440,257 L440,322 L482.695868,322 C487.109179,301.520542 489.639346,279.685903 489.964231,257 L440,257 Z M440,332 L440,397 L454.92031,397 C465.667073,377.986037 474.334324,356.028923 480.365041,332 L440,332 Z M440,407 L440,419.757562 C443.083883,415.704853 446.054404,411.447895 448.903052,407.000006 L440,407 Z M430,445.747408 C423.640348,451.880611 416.957771,457.304164 410,461.945199 L410,471 L430,471 L430,445.747408 Z M440,435.216771 L440,471 L450,471 L450,422.689463 C446.788232,427.078034 443.451866,431.258434 440,435.216771 Z M140,334.385152 C134.991192,354.210274 128.227646,372.703901 120,389.422325 L120,471 L140,471 L140,334.385152 Z M150,334.385152 L150,397 L160,397 L160,366.322124 C156.151669,356.14472 152.801387,345.473187 150,334.385152 Z M150,407 L150,471 L160,471 L160,407 L150,407 Z M43.9784683,471 L65,471 L65,458.441061 C58.2575654,463.398011 51.2350278,467.607775 43.9784683,471 Z M70,471 L90,471 L90,435.216771 C83.6996581,442.441524 77.0145477,448.926505 70,454.587244 L70,471 Z M95,471 L115,471 L115,399.036814 C108.965261,410.025829 102.267244,420.137141 95,429.227164 L95,471 Z M165,471 L185,471 L185,415.538811 C183.146218,412.764407 181.339408,409.917124 179.581557,407 L165,407 L165,471 Z M235,471 L246.021532,471 C242.283489,469.252576 238.607545,467.288215 234.999999,465.116533 L235,471 Z M393.978468,471 L405,471 L405,465.116538 C401.392455,467.288215 397.716511,469.252576 393.978468,471 Z M455,471 L475,471 L475,407 L460.418443,407 C458.660592,409.917124 456.853782,412.764407 455,415.538811 L455,471 Z M525,471 L545,471 L545,429.227162 C537.732756,420.137141 531.034739,410.025829 525,399.036814 L525,471 Z M550,471 L570,471 L570,454.587244 C562.985452,448.926505 556.300342,442.441524 550,435.216771 L550,471 Z M575,471 L596.021532,471 C588.764972,467.607775 581.742435,463.398011 575,458.441061 L575,471 Z M475,397 L475,378.629181 C472.232811,384.982994 469.263314,391.113745 466.105548,397 L475,397 Z M165,397 L173.894452,397 C170.736686,391.113745 167.767189,384.982994 165,378.629181 L165,397 Z M280,470.449934 L280,454.587244 C272.985452,448.926505 266.300342,442.441524 260,435.216771 L260,465.960192 C266.508971,468.183148 273.187193,469.697804 280,470.449934 Z M285,470.862935 C286.659482,470.954058 288.326311,471 290,471 C294.665646,471 299.277987,470.642984 303.826466,469.945464 C297.346998,466.748384 291.06035,462.896552 285,458.441061 L285,470.862935 Z M255,464.100543 L255,429.227164 C247.732756,420.137141 241.034739,410.025829 235,399.036814 L235,453.453473 C241.433111,457.756789 248.11404,461.328122 255,464.100543 Z" id="Combined-Shape" fill="#FFDA3E"></path>
                    <path d="M290,481 C372.842712,481 440,378.473208 440,252 L430,252 C430,372.95036 367.319865,471 290,471 L290,481 Z" id="Combined-Shape" fill="#FFDA3E"></path>
                    <path d="M873.261066,318.523826 C878.847011,321.995214 885.439384,324 892.5,324 C912.658393,324 929,307.658393 929,287.5 C929,267.341607 912.658393,251 892.5,251 C882.241267,251 872.971028,255.23224 866.340044,262.045958 C862.525119,259.490472 857.936619,258 853,258 C840.346629,258 829.980332,267.792127 829.065605,280.211883 C828.063761,280.072207 827.040313,280 826,280 C813.849736,280 804,289.849736 804,302 C804,314.150264 813.849736,324 826,324 C832.094716,324 837.610585,321.521665 841.594803,317.517801 C845.88615,321.53823 851.655586,324 858,324 C863.796585,324 869.113202,321.945014 873.261066,318.523826 Z" id="cloud_01" fill="#FFDA3E"></path>
                    <path d="M456.995778,105.150111 C456.993667,104.527333 456.959889,103.942556 456.902889,103.381 C456.026778,88.9156667 445.135556,77.1884444 431.054444,75.0266667 C429.295889,52.6298889 410.576667,35 387.728111,35 C372.564,35 359.219667,42.7688889 351.438111,54.5383333 C348.123667,53.8606667 344.661444,53.4933333 341.097889,53.4933333 C323.484889,53.4933333 308.322889,62.2797778 301.493444,74.9063333 C300.222556,74.7437778 298.934778,74.634 297.621667,74.634 C280.709556,74.634 267,88.3414444 267,105.251444 C267,120.020778 276.939111,133.481222 291.077222,134.933667 C293.277,135.157444 300.226778,135.227111 300.226778,135.227111 L422.696556,135.227111 C422.696556,135.227111 430.102333,135.241889 432.557556,134.992778 C445.545111,133.673333 455.220333,122.013667 456.767778,108.861444 C456.767778,108.836111 456.774111,108.812889 456.778333,108.789667 C456.814222,108.479333 456.839556,108.169 456.867,107.856556 C456.945111,107.01 457,106.152889 457,105.274667 L457,105.251444 C457,105.215556 456.995778,105.186 456.995778,105.150111 Z" id="cloud_03" fill="#FFDA3E" fill-rule="nonzero"></path>
                    <path d="M678.997289,148.043756 C678.995933,147.643867 678.974244,147.268378 678.937644,146.9078 C678.375089,137.619533 671.381778,130.089422 662.340222,128.701333 C661.211044,114.320244 649.191333,103 634.520156,103 C624.7832,103 616.214733,107.988444 611.218156,115.545667 C609.089933,115.110533 606.866822,114.874667 604.578644,114.874667 C593.269244,114.874667 583.533644,120.516489 579.148422,128.624067 C578.332378,128.519689 577.505489,128.4492 576.662333,128.4492 C565.802978,128.4492 557,137.250822 557,148.108822 C557,157.592289 563.381956,166.235311 572.460111,167.167933 C573.8726,167.311622 578.335089,167.356356 578.335089,167.356356 L656.973578,167.356356 C656.973578,167.356356 661.728867,167.365844 663.305378,167.205889 C671.644756,166.358667 677.857267,158.871933 678.850889,150.426822 C678.850889,150.410556 678.854956,150.395644 678.857667,150.380733 C678.880711,150.181467 678.896978,149.9822 678.9146,149.781578 C678.964756,149.238 679,148.687644 679,148.123733 L679,148.108822 C679,148.085778 678.997289,148.0668 678.997289,148.043756 Z" id="cloud_04" fill="#FFDA3E" fill-rule="nonzero"></path>
                    <path d="M289.7,272.7 L243.5,272.7 C232.7,272.7 224,263.9 224,253.2 C224,245.6 228.3,238.9 235,235.7 C237.1,222.2 249,212 263.1,212 C276.6,212 287.9,221.1 290.8,233.8 C301.1,234.4 309.2,242.9 309.2,253.3 C309.2,263.9 300.4,272.7 289.7,272.7 Z" id="cloud_02" fill="#FFDA3E" fill-rule="nonzero"></path>
                    <path d="M984.832009,517 C985.593972,514.128228 986,511.111531 986,508 C986,494.688301 978.568531,483.112316 967.628009,477.19446 C967.873127,475.498357 968,473.763995 968,472 C968,452.117749 951.882251,436 932,436 C929.820427,436 927.686094,436.193694 925.613275,436.564808 C922.437661,410.328667 900.092838,390 873,390 C861.80613,390 851.422779,393.470248 842.867083,399.393608 L855.228021,517 L886.198006,517 L984.832009,517 Z" id="Combined-Shape" fill="#FFDA3E"></path>
                    <path d="M913.743572,429.217157 C907.998817,412.229136 891.927543,400 873,400 C865.413651,400 858.286158,401.964595 852.098527,405.412777 L854.916495,410.712604 C860.263543,407.711402 866.431912,406 873,406 C889.408589,406 903.322471,416.681114 908.168098,431.469795 L913.743572,429.217157 Z" id="Combined-Shape" fill="#F4C84F"></path>
                    <path d="M906.072952,471 C907.096402,457.022257 918.761008,446 933,446 C947.238992,446 958.903598,457.022257 959.927048,471 L953.906,471 C952.898881,460.340135 943.923412,452 933,452 C922.076588,452 913.101119,460.340135 912.094,471 L906.072952,471 Z" id="Combined-Shape" fill="#F4C84F"></path>
                    <path d="M924,508 C924,493.088312 936.088312,481 951,481 C965.911688,481 978,493.088312 978,508 L973,508 C973,495.849736 963.150264,486 951,486 C938.849736,486 929,495.849736 929,508 L924,508 Z" id="Combined-Shape" fill="#F4C84F"></path>
                    <path d="M619.968016,517 C619.331129,513.094254 619,509.085797 619,505 C619,464.130929 652.130929,431 693,431 C733.869071,431 767,464.130929 767,505 C767,509.085797 766.668871,513.094254 766.031984,517 L619.968016,517 Z" id="Combined-Shape" fill="#FFDA3E"></path>
                    <path d="M629.055952,508.211258 C629.018773,507.312134 629,506.40826 629,505.5 C629,469.877634 657.877634,441 693.5,441 C699.304085,441 704.929114,441.766626 710.279353,443.204143 L708.796679,449.020175 C703.920759,447.702804 698.792454,447 693.5,447 C661.191342,447 635,473.191342 635,505.5 C635,506.40149 635.020391,507.298217 635.060737,508.189745 L629.055952,508.211258 Z" id="Combined-Shape" fill="#F4C84F"></path>
                    <rect id="Rectangle-22" fill="#FFDA3E" x="673" y="412" width="12" height="29"></rect>
                    <path d="M678.713732,421 C701.357407,421 731.713732,404.88379 719.713732,356.5 C707.713732,308.11621 701.357407,281 678.713732,281 C656.070058,281 649.713732,309.11621 637.713732,356.5 C625.713732,403.88379 656.070058,421 678.713732,421 Z" id="Oval-30" fill="#FFDA3E"></path>
                    <path d="M679,310 C682,310 682.055728,380.746876 683,406.114595 C682.055728,409.804173 675.970006,409.422531 675,406.114595 C675.970006,381.365233 676,310 679,310 Z" id="Rectangle-22" fill="#F4C84F"></path>
                </g>
            </g>
        </g>
    </g>
</svg>