<?xml version="1.0" encoding="UTF-8" standalone="no"?>
<svg width="986px" height="517px" viewBox="0 0 986 517" version="1.1" xmlns="http://www.w3.org/2000/svg" xmlns:xlink="http://www.w3.org/1999/xlink">
    <!-- Generator: Sketch 45.1 (43504) - http://www.bohemiancoding.com/sketch -->
    <title>Group 8</title>
    <desc>Created with Sketch.</desc>
    <defs></defs>
    <g id="final" stroke="none" stroke-width="1" fill="none" fill-rule="evenodd">
        <g id="Artboard-2-Copy-22" transform="translate(-738.000000, -550.000000)">
            <g id="Group-6" transform="translate(160.000000, -65.000000)">
                <g id="Group-8" transform="translate(578.000000, 615.000000)">
                    <g id="thee" transform="translate(635.000000, 281.000000)">
                        <rect id="Rectangle-22" fill="#FFDA3E" x="38" y="131" width="12" height="29"></rect>
                        <path d="M43.7137323,140 C66.357407,140 96.7137323,123.88379 84.7137323,75.5 C72.7137323,27.1162099 66.357407,0 43.7137323,0 C21.0700576,0 14.7137323,28.1162099 2.7137323,75.5 C-9.2862677,122.88379 21.0700576,140 43.7137323,140 Z" id="Oval-30" fill="#FFDA3E"></path>
                        <path d="M44,29 C47,29 47.0557281,99.7468756 48,125.114595 C47.0557281,128.804173 40.9700061,128.422531 40,125.114595 C40.9700061,100.365233 41,29 44,29 Z" id="Rectangle-22" fill="#F4C84F"></path>
                    </g>
                    <g id="Group-7">
                        <path d="M828,508 L828,477 L819,477 L819,508 L828,508 Z M833,508 L846.049759,508 L805.899941,126 L783.891311,126 L743.741493,508 L757,508 L757,472 L833,472 L833,508 Z M762,508 L772,508 L772,477 L762,477 L762,508 Z M777,508 L786,508 L786,477 L777,477 L777,508 Z M791,508 L800,508 L800,477 L791,477 L791,508 Z M805,508 L814,508 L814,477 L805,477 L805,508 Z M734.691919,508 L753.965893,324.620383 L753.965893,117 L775.787675,117 L787.965893,1.13199169 L787.965893,0 L801.965893,0 L801.965893,2.46908616 L814.003577,117 L835.965893,117 L835.965893,325 L835.865258,325 L855.099333,508 L875,508 L875,517 L714,517 L714,508 L734.691919,508 Z M804.954003,117 L794.895626,21.3009378 L784.837249,117 L804.954003,117 Z M826.965893,240.328198 L826.965893,126 L814.949515,126 L826.965893,240.328198 Z M762.965893,238.991103 L774.841737,126 L762.965893,126 L762.965893,238.991103 Z M789,134 L801,134 L801,139 L789,139 L789,134 Z M787,147 L803,147 L803,152 L787,152 L787,147 Z M785,160 L805,160 L805,165 L785,165 L785,160 Z M784,173 L806,173 L806,178 L784,178 L784,173 Z M782,186 L808,186 L808,191 L782,191 L782,186 Z M781,199 L809,199 L809,204 L781,204 L781,199 Z M780,212 L810,212 L810,217 L780,217 L780,212 Z M779,225 L811,225 L811,230 L779,230 L779,225 Z M777,238 L813,238 L813,243 L777,243 L777,238 Z M775,251 L815,251 L815,256 L775,256 L775,251 Z M774,264 L816,264 L816,269 L774,269 L774,264 Z M773,277 L817,277 L817,282 L773,282 L773,277 Z M772,290 L818,290 L818,295 L772,295 L772,290 Z M771,303 L819,303 L819,308 L771,308 L771,303 Z M770,316 L820,316 L820,321 L770,321 L770,316 Z M769,329 L821,329 L821,334 L769,334 L769,329 Z M768,342 L822,342 L822,347 L768,347 L768,342 Z M767,355 L823,355 L823,360 L767,360 L767,355 Z M766,368 L824,368 L824,373 L766,373 L766,368 Z M765,381 L825,381 L825,386 L765,386 L765,381 Z M764,394 L826,394 L826,399 L764,399 L764,394 Z M763,407 L827,407 L827,412 L763,412 L763,407 Z M762,420 L828,420 L828,425 L762,425 L762,420 Z M761,433 L829,433 L829,438 L761,438 L761,433 Z M760,446 L830,446 L830,451 L760,451 L760,446 Z M759,459 L831,459 L831,464 L759,464 L759,459 Z" id="Combined-Shape" fill="#FFDA3E"></path>
                        <g id="golden-gate" transform="translate(0.000000, 222.000000)" fill="#FFDA3E">
                            <path d="M490,259 L440,259 L440,295 L430,295 L430,259 L210,259 L210,295 L200,295 L200,259 L150,259 L150,295 L140,295 L140,259 L0,259 L0,254 L0,249 C77.3198649,249 140,150.95036 140,30.0000001 L140,0 L150,0 L150,25 L200,25 L200,0 L210,0 L210,30 C210,150.95036 272.680135,249 350,249 C351.673689,249 353.340518,248.954058 355,248.862935 L355,226 L360,226 L360,248.449934 C366.812807,247.697804 373.491029,246.183148 380,243.960192 L380,203 L385,203 L385,242.100543 C391.88596,239.328122 398.566889,235.756789 405,231.453473 L405,160 L410,160 L410,227.924968 C417.006622,222.718268 423.692902,216.62798 430,209.74615 L430,0 L440,0 L440,25 L490,25 L490,0 L500,0 L500,30 C500,150.95036 562.680135,249 640,249 C640.333607,249 640.666942,248.998175 641,248.99453 L641,258.995018 C640.666923,258.998338 640.333589,259 640,259 L500,259 L500,295 L490,295 L490,259 Z M490,185 L480,185 L480,249 L490,249 L490,185 Z M490,175 L490,112.385152 C487.198613,123.473187 483.848331,134.14472 480,144.322124 L480,175 L490,175 Z M500,112.385152 L500,249 L520,249 L520,167.422325 C511.772354,150.703901 505.008808,132.210274 500,112.385152 Z M200,213.216771 C196.548134,209.258434 193.211768,205.078034 190,200.689463 L190,249 L200,249 L200,213.216771 Z M210,223.747408 L210,249 L230,249 L230,239.945199 C223.042229,235.304164 216.359652,229.880611 210,223.747408 Z M200,110 L159.634959,110 C165.665676,134.028923 174.332927,155.986037 185.07969,175 L200,175 L200,110 Z M200,100 L200,35 L150.035769,35 C150.360655,57.6859063 152.890822,79.5205434 157.304132,100 L200,100 Z M210,112.385152 L210,209.74615 C216.307098,216.62798 222.993378,222.718268 229.999992,227.924962 L230,167.422325 C221.772354,150.703901 215.008808,132.210274 210,112.385152 Z M200,197.757562 L200,185 L191.096944,185 C193.945596,189.447895 196.916117,193.704852 200,197.757562 Z M440,35 L440,100 L482.695868,100 C487.109179,79.5205417 489.639346,57.6859026 489.964231,35 L440,35 Z M440,110 L440,175 L454.92031,175 C465.667073,155.986037 474.334324,134.028923 480.365041,110 L440,110 Z M440,185 L440,197.757562 C443.083883,193.704853 446.054404,189.447895 448.903052,185.000006 L440,185 Z M430,223.747408 C423.640348,229.880611 416.957771,235.304164 410,239.945199 L410,249 L430,249 L430,223.747408 Z M440,213.216771 L440,249 L450,249 L450,200.689463 C446.788232,205.078034 443.451866,209.258434 440,213.216771 Z M140,112.385152 C134.991192,132.210274 128.227646,150.703901 120,167.422325 L120,249 L140,249 L140,112.385152 Z M150,112.385152 L150,175 L160,175 L160,144.322124 C156.151669,134.14472 152.801387,123.473187 150,112.385152 Z M150,185 L150,249 L160,249 L160,185 L150,185 Z M43.9784683,249 L65,249 L65,236.441061 C58.2575654,241.398011 51.2350278,245.607775 43.9784683,249 Z M70,249 L90,249 L90,213.216771 C83.6996581,220.441524 77.0145477,226.926505 70,232.587244 L70,249 Z M95,249 L115,249 L115,177.036814 C108.965261,188.025829 102.267244,198.137141 95,207.227164 L95,249 Z M165,249 L185,249 L185,193.538811 C183.146218,190.764407 181.339408,187.917124 179.581557,185 L165,185 L165,249 Z M235,249 L246.021532,249 C242.283489,247.252576 238.607545,245.288215 234.999999,243.116533 L235,249 Z M393.978468,249 L405,249 L405,243.116538 C401.392455,245.288215 397.716511,247.252576 393.978468,249 Z M455,249 L475,249 L475,185 L460.418443,185 C458.660592,187.917124 456.853782,190.764407 455,193.538811 L455,249 Z M525,249 L545,249 L545,207.227162 C537.732756,198.137141 531.034739,188.025829 525,177.036814 L525,249 Z M550,249 L570,249 L570,232.587244 C562.985452,226.926505 556.300342,220.441524 550,213.216771 L550,249 Z M575,249 L596.021532,249 C588.764972,245.607775 581.742435,241.398011 575,236.441061 L575,249 Z M475,175 L475,156.629181 C472.232811,162.982994 469.263314,169.113745 466.105548,175 L475,175 Z M165,175 L173.894452,175 C170.736686,169.113745 167.767189,162.982994 165,156.629181 L165,175 Z M280,248.449934 L280,232.587244 C272.985452,226.926505 266.300342,220.441524 260,213.216771 L260,243.960192 C266.508971,246.183148 273.187193,247.697804 280,248.449934 Z M285,248.862935 C286.659482,248.954058 288.326311,249 290,249 C294.665646,249 299.277987,248.642984 303.826466,247.945464 C297.346998,244.748384 291.06035,240.896552 285,236.441061 L285,248.862935 Z M255,242.100543 L255,207.227164 C247.732756,198.137141 241.034739,188.025829 235,177.036814 L235,231.453473 C241.433111,235.756789 248.11404,239.328122 255,242.100543 Z" id="Combined-Shape"></path>
                            <path d="M290,259 C372.842712,259 440,156.473208 440,30 L430,30 C430,150.95036 367.319865,249 290,249 L290,259 Z" id="Combined-Shape"></path>
                        </g>
                        <g id="bush_right" transform="translate(842.000000, 390.000000)">
                            <path d="M142.832009,127 C143.593972,124.128228 144,121.111531 144,118 C144,104.688301 136.568531,93.1123155 125.628009,87.1944597 C125.873127,85.4983574 126,83.763995 126,82 C126,62.117749 109.882251,46 90,46 C87.8204274,46 85.6860944,46.1936939 83.6132752,46.5648076 C80.4376607,20.3286672 58.0928377,0 31,0 C19.8061297,0 9.42277918,3.47024754 0.867083247,9.39360776 L13.2280207,127 L44.1980058,127 L142.832009,127 Z" id="Combined-Shape" fill="#FFDA3E"></path>
                            <path d="M71.743572,39.2171574 C65.9988172,22.2291365 49.9275425,10 31,10 C23.4136514,10 16.2861583,11.9645945 10.0985275,15.412777 L12.9164953,20.7126037 C18.2635426,17.711402 24.4319116,16 31,16 C47.4085893,16 61.3224707,26.681114 66.1680976,41.4697953 L71.743572,39.2171574 Z" id="Combined-Shape" fill="#F4C84F"></path>
                            <path d="M64.0729519,81 C65.0964016,67.0222568 76.7610078,56 91,56 C105.238992,56 116.903598,67.0222568 117.927048,81 L111.906,81 C110.898881,70.3401354 101.923412,62 91,62 C80.0765882,62 71.1011194,70.3401354 70.0939999,81 L64.0729519,81 Z" id="Combined-Shape" fill="#F4C84F"></path>
                            <path d="M82,118 C82,103.088312 94.0883118,91 109,91 C123.911688,91 136,103.088312 136,118 L131,118 C131,105.849736 121.150264,96 109,96 C96.8497355,96 87,105.849736 87,118 L82,118 Z" id="Combined-Shape" fill="#F4C84F"></path>
                        </g>
                        <g id="bush_left" transform="translate(619.000000, 431.000000)">
                            <path d="M0.968015742,86 C0.331129279,82.0942541 0,78.0857968 0,74 C0,33.1309285 33.1309285,0 74,0 C114.869071,0 148,33.1309285 148,74 C148,78.0857968 147.668871,82.0942541 147.031984,86 L0.968015742,86 Z" id="Combined-Shape" fill="#FFDA3E"></path>
                            <path d="M10.0559524,77.2112578 C10.0187731,76.3121344 10,75.4082596 10,74.5 C10,38.8776336 38.8776336,10 74.5,10 C80.3040846,10 85.9291141,10.766626 91.2793534,12.2041429 L89.7966794,18.0201748 C84.9207594,16.7028038 79.792454,16 74.5,16 C42.1913421,16 16,42.1913421 16,74.5 C16,75.4014898 16.0203911,76.298217 16.0607374,77.1897455 L10.0559524,77.2112578 Z" id="Combined-Shape" fill="#F4C84F"></path>
                        </g>
                        <rect id="Rectangle-23" x="14" y="25.8612122" width="994" height="492.138788"></rect>
                    </g>
                </g>
            </g>
        </g>
    </g>
</svg>
