<?xml version="1.0" encoding="UTF-8" standalone="no"?>
<svg width="600px" height="55px" viewBox="0 0 600 55" version="1.1" xmlns="http://www.w3.org/2000/svg" xmlns:xlink="http://www.w3.org/1999/xlink">
    <!-- Generator: Sketch 45.1 (43504) - http://www.bohemiancoding.com/sketch -->
    <title>Combined Shape</title>
    <desc>Created with Sketch.</desc>
    <defs></defs>
    <g id="final" stroke="none" stroke-width="1" fill="none" fill-rule="evenodd">
        <path d="M550,0 L530,0 C530,11.045695 521.045695,20 510,20 C498.954305,20 490,11.045695 490,0 L470,0 C470,11.045695 461.045695,20 450,20 C438.954305,20 430,11.045695 430,0 L410,0 C410,11.045695 401.045695,20 390,20 C378.954305,20 370,11.045695 370,0 L350,0 C350,11.045695 341.045695,20 330,20 C318.954305,20 310,11.045695 310,0 L290,0 C290,11.045695 281.045695,20 270,20 C258.954305,20 250,11.045695 250,0 L230,0 C230,11.045695 221.045695,20 210,20 C198.954305,20 190,11.045695 190,0 L170,0 C170,11.045695 161.045695,20 150,20 C138.954305,20 130,11.045695 130,0 L110,0 C110,11.045695 101.045695,20 90,20 C78.954305,20 70,11.045695 70,0 L50,0 C50,27.6142375 27.6142375,50 7.10542736e-15,50 L0,55 L600,55 L600,50 C572.385763,50 550,27.6142375 550,0 Z" id="Combined-Shape" fill="#FFFFFF"></path>
    </g>
</svg>