<svg xmlns="http://www.w3.org/2000/svg" width="65" height="44" viewBox="0 0 65 44">
  <g fill="none" fill-rule="evenodd" transform="rotate(-19 1.766 40.226)">
    <rect width="3.209" height="24.8" x="60.967" y="28" fill="#61B2E7" rx="1.604"/>
    <path stroke="#61B2E7" stroke-width="3.2" d="M55.0099574,33.0390401 L36.907016,41.7465851 L17.6051499,33.6325553 L16.0395604,34.3690119 L16.0395604,45.177002 L36.2483935,53.7551426 C36.6745918,53.9360531 37.1582613,53.9234688 37.5744754,53.7206402 L56.9604396,44.2735107 L56.9604396,33.8669706 L55.0099574,33.0390401 Z"/>
    <path stroke="#61B2E7" stroke-width="3.2" d="M31.084706,13.3263772 C30.6293799,13.3263772 30.1956208,13.5203725 29.8920861,13.8597669 L9.14334831,37.0597669 C8.88100359,37.3531051 8.73596829,37.7328393 8.73596829,38.1263772 C8.73596829,39.0100328 9.45231269,39.7263772 10.3359683,39.7263772 L41.8332176,39.7263772 C42.2962226,39.7263772 42.7365256,39.5258086 43.0404013,39.1764761 L63.2215011,15.9764761 C63.4748073,15.6852777 63.6143175,15.3123312 63.6143175,14.9263772 C63.6143175,14.0427216 62.8979731,13.3263772 62.0143175,13.3263772 L31.084706,13.3263772 Z" transform="rotate(23 36.11 26.526)"/>
  </g>
</svg>
