<svg xmlns="http://www.w3.org/2000/svg" width="59" height="56" viewBox="0 0 59 56">
  <g fill="none" fill-rule="evenodd">
    <g transform="translate(0 15)">
      <rect width="13" height="23" y="16" fill="#2C6EE1"/>
      <path fill="#FFD5B1" d="M25.8038476,18 L31,9 L31,2 C31,0.8954305 31.8954305,2.02906125e-16 33,0 L35.5,0 C37.9852814,-4.56538782e-16 40,2.01471863 40,4.5 L40,15 L49.5,15 C51.9852814,15 54,17.0147186 54,19.5 C54,20.6525317 53.5667196,21.7038653 52.8541598,22.5 C53.5667196,23.2961347 54,24.3474683 54,25.5 C54,27.2514796 52.9993702,28.7692496 51.5385906,29.5128299 C51.8340264,30.1121138 52,30.7866743 52,31.5 C52,33.4816006 50.7191581,35.1640445 48.9402059,35.7646003 C48.979542,36.003902 49,36.2495619 49,36.5 C49,38.9852814 46.9852814,41 44.5,41 L28.5,41 C26.5406718,41 24.8738132,39.7477886 24.2560586,38 L11,38 L11,18 L25.8038476,18 Z"/>
      <path fill="#FFE7CF" d="M31,3 L32,3 C32.5522847,3 33,3.44771525 33,4 L33,8 L31,8 L31,3 Z"/>
      <path fill="#4186EC" d="M10.8843284,14 L18.6360726,14 C21.0824555,14 22.5426875,15.790861 21.8975921,18 L16.349361,37 C15.7042656,39.209139 13.1981272,41 10.7517442,41 L3,41 L10.8843284,14 Z"/>
      <circle cx="10" cy="36" r="2" fill="#FFF"/>
    </g>
    <polygon fill="#FFDA3E" points="49.5 14.25 43.916 17.186 44.982 10.968 40.465 6.564 46.708 5.657 49.5 0 52.292 5.657 58.535 6.564 54.018 10.968 55.084 17.186"/>
    <polygon fill="#FFEEBC" points="20.804 21 18.453 22.236 18.902 19.618 17 17.764 19.629 17.382 20.804 15 21.98 17.382 24.608 17.764 22.706 19.618 23.155 22.236"/>
    <polygon fill="#FFEEBC" points="52.753 25.342 51.051 26.236 51.376 24.342 50 23 51.902 22.724 52.753 21 53.603 22.724 55.506 23 54.129 24.342 54.454 26.236"/>
  </g>
</svg>
