<svg width="207" height="92" viewBox="0 0 207 92" fill="none" xmlns="http://www.w3.org/2000/svg">
<path d="M16.0999 91.14H206.77L197.78 40.16C193.71 17.07 173.65 0.239998 150.21 0.239998H0.0699463L16.0999 91.14Z" fill="url(#paint0_linear)"/>
<path opacity="0.9" d="M71.0199 54.81C73.8599 70.38 89.3399 83.12 105.43 83.12H115.05C131.14 83.12 141.98 70.38 139.14 54.81L135.82 36.57C132.98 21 117.5 8.26 101.41 8.26H91.7899C75.6999 8.26 64.8599 21 67.6999 36.57L71.0199 54.81Z" fill="white"/>
<path d="M119.84 63.72C118.1 65.99 115.43 67.43 111.83 68.04C111.63 68.13 111.54 68.26 111.57 68.43L112.38 72.68C112.42 72.9 112.37 73.08 112.25 73.24C112.12 73.39 111.95 73.47 111.73 73.47H105.19C104.97 73.47 104.77 73.39 104.59 73.24C104.41 73.08 104.3 72.9 104.26 72.68L103.56 68.36C103.53 68.19 103.4 68.06 103.16 67.97C99.32 67.23 96.14 65.7 93.61 63.39C91.09 61.08 89.52 58.18 88.9 54.68L88.65 53.24C88.61 53.02 88.66 52.84 88.78 52.69C88.91 52.54 89.08 52.46 89.3 52.46H96.37C96.59 52.46 96.79 52.54 96.97 52.69C97.15 52.84 97.26 53.03 97.3 53.24L97.47 54.22C97.78 55.97 98.8 57.44 100.54 58.64C102.28 59.84 104.48 60.44 107.14 60.44C109.37 60.44 110.93 59.95 111.82 58.97C112.72 57.99 113.04 56.78 112.78 55.34C112.6 54.29 112.11 53.41 111.33 52.69C110.55 51.97 109.53 51.34 108.28 50.79C107.03 50.24 105.07 49.49 102.42 48.53C99.41 47.53 96.85 46.5 94.74 45.45C92.64 44.4 90.76 42.97 89.11 41.16C87.46 39.35 86.4 37.11 85.93 34.45C85.34 31.09 85.86 28.31 87.5 26.11C89.14 23.91 91.63 22.48 94.96 21.82C95.16 21.73 95.25 21.6 95.22 21.43L94.25 16.65C94.21 16.43 94.26 16.25 94.38 16.09C94.51 15.94 94.68 15.86 94.9 15.86H101.44C101.66 15.86 101.86 15.94 102.04 16.09C102.22 16.25 102.33 16.43 102.37 16.65L103.17 21.56C103.2 21.74 103.33 21.87 103.57 21.95C107.32 22.69 110.48 24.28 113.05 26.7C115.61 29.12 117.21 32.08 117.82 35.57L117.99 36.55C118.03 36.77 117.98 36.95 117.86 37.1C117.74 37.26 117.56 37.33 117.35 37.33H110.21C109.99 37.33 109.79 37.26 109.61 37.1C109.43 36.95 109.32 36.76 109.29 36.55L109.2 36.03C108.88 34.2 107.88 32.64 106.21 31.35C104.54 30.06 102.47 29.42 99.98 29.42C98.02 29.42 96.57 29.86 95.63 30.73C94.69 31.6 94.36 32.8 94.63 34.33C94.82 35.42 95.3 36.34 96.06 37.08C96.82 37.82 97.89 38.5 99.27 39.11C100.64 39.72 102.74 40.51 105.57 41.47C108.69 42.56 111.17 43.54 113.03 44.42C114.89 45.29 116.64 46.6 118.31 48.35C119.97 50.09 121.04 52.34 121.53 55.09C122.14 58.57 121.57 61.45 119.84 63.72Z" fill="#36A457"/>
<path opacity="0.9" d="M30.97 49.89C31.6 53.47 35.04 56.39 38.62 56.39H38.71C42.29 56.39 44.7 53.46 44.06 49.89L42.58 41.5C41.95 37.92 38.51 35 34.93 35H34.84C31.26 35 28.85 37.93 29.49 41.5L30.97 49.89Z" fill="white"/>
<path opacity="0.9" d="M163.85 49.89C164.48 53.47 167.92 56.39 171.5 56.39H171.59C175.17 56.39 177.58 53.46 176.94 49.89L175.46 41.5C174.83 37.92 171.39 35 167.81 35H167.72C164.14 35 161.73 37.93 162.37 41.5L163.85 49.89Z" fill="white"/>
<defs>
<linearGradient id="paint0_linear" x1="237.049" y1="45.6934" x2="-64.0581" y2="45.6934" gradientUnits="userSpaceOnUse">
<stop stop-color="#32A546"/>
<stop offset="0.139" stop-color="#36A74A"/>
<stop offset="0.2789" stop-color="#42AC55"/>
<stop offset="0.4193" stop-color="#56B567"/>
<stop offset="0.5601" stop-color="#73C180"/>
<stop offset="0.7012" stop-color="#97D1A1"/>
<stop offset="0.8428" stop-color="#C4E5CA"/>
<stop offset="0.982" stop-color="#F8FCF8"/>
<stop offset="1" stop-color="white"/>
</linearGradient>
</defs>
</svg>
