<?xml version="1.0" encoding="UTF-8" standalone="no"?>
<svg width="14px" height="16px" viewBox="0 0 14 16" version="1.1" xmlns="http://www.w3.org/2000/svg" xmlns:xlink="http://www.w3.org/1999/xlink">
    <!-- Generator: Sketch 42 (36781) - http://www.bohemiancoding.com/sketch -->
    <title>gear copy 4</title>
    <desc>Created with Sketch.</desc>
    <defs>
        <path d="M1,1.00087166 C1,0.448105505 1.45420985,0 1.99222012,0 L9.97585849,0 C10.5238465,0 11.2844567,0.318724879 11.6703857,0.707516549 L14.2976929,3.35431206 C14.6855664,3.74506266 15,4.51524131 15,5.05913678 L15,15.0026918 C15,15.5534899 14.5500512,16 13.9931545,16 L2.00684547,16 C1.45078007,16 1,15.5553691 1,14.9991283 L1,1.00087166 Z" id="path-1"></path>
        <mask id="mask-2" maskContentUnits="userSpaceOnUse" maskUnits="objectBoundingBox" x="0" y="0" width="14" height="16" fill="white">
            <use xlink:href="#path-1"></use>
        </mask>
        <path d="M10,8.8817842e-16 L14.0001925,8.8817842e-16 C14.5523709,8.8817842e-16 15,0.443716645 15,0.999807492 L15,5" id="path-3"></path>
        <mask id="mask-4" maskContentUnits="userSpaceOnUse" maskUnits="objectBoundingBox" x="0" y="0" width="5" height="5" fill="white">
            <use xlink:href="#path-3"></use>
        </mask>
    </defs>
    <g id="Prototype-Flow" stroke="none" stroke-width="1" fill="none" fill-rule="evenodd">
        <g id="learn-about-guided-forms-modal-copy-3" transform="translate(-1284.000000, -564.000000)" stroke="#777777">
            <g id="Group-2" transform="translate(241.000000, 112.000000)">
                <g id="employee-info" transform="translate(0.000000, 200.000000)">
                    <g id="document">
                        <g id="Group-3" transform="translate(30.000000, 207.000000)">
                            <g id="preview" transform="translate(1012.000000, 45.000000)">
                                <use id="Rectangle-3" mask="url(#mask-2)" stroke-width="2" xlink:href="#path-1"></use>
                                <use id="Rectangle-4" mask="url(#mask-4)" stroke-width="2" transform="translate(12.500000, 2.500000) rotate(-180.000000) translate(-12.500000, -2.500000) " xlink:href="#path-3"></use>
                                <g id="Group-2" stroke-width="1" fill-rule="evenodd" transform="translate(6.949747, 9.949747) rotate(-315.000000) translate(-6.949747, -9.949747) translate(4.449747, 5.449747)">
                                    <circle id="Oval-3" cx="2.5" cy="2.5" r="2.5"></circle>
                                    <path d="M2.5,5.5 L2.5,8.5" id="Line" stroke-linecap="round"></path>
                                </g>
                            </g>
                        </g>
                    </g>
                </g>
            </g>
        </g>
    </g>
</svg>