<svg xmlns="http://www.w3.org/2000/svg" width="452" height="188" viewBox="0 0 452 188" xmlns:xlink="http://www.w3.org/1999/xlink">
  <defs>
    <polygon id="a" points=".06 188 451.683 188 451.683 .667 .06 .667"/>
  </defs>
  <g fill="none" fill-rule="evenodd">
    <mask id="b" fill="white">
      <use xlink:href="#a"/>
    </mask>
    <path fill="#1A1918" d="M47.2,84.934 C37.467,81.334 32.133,78.534 32.133,74.134 C32.133,70.4 35.2,68.267 40.667,68.267 C50.667,68.267 60.933,72.134 68,75.6 L72,50.934 C66.4,48.267 54.933,43.867 39.067,43.867 C27.867,43.867 18.533,46.8 11.867,52.267 C4.933,58 1.333,66.267 1.333,76.267 C1.333,94.4 12.4,102.134 30.4,108.667 C42,112.8 45.867,115.734 45.867,120.267 C45.867,124.667 42.133,127.2 35.333,127.2 C26.933,127.2 13.067,123.067 4,117.734 L0,142.667 C7.733,147.067 22.133,151.6 37.067,151.6 C48.933,151.6 58.8,148.8 65.467,143.467 C72.933,137.6 76.8,128.934 76.8,117.734 C76.8,99.2 65.467,91.467 47.2,84.934 L47.2,84.934 Z M141.917,70.4 L145.917,45.867 L124.8,45.867 L124.8,16.085 L96.408,20.757 L92.308,45.867 L82.322,47.487 L78.584,70.4 L92.267,70.4 L92.267,118.534 C92.267,131.067 95.467,139.734 102,145.067 C107.467,149.467 115.333,151.6 126.4,151.6 C134.933,151.6 140.133,150.134 143.733,149.2 L143.733,123.2 C141.733,123.734 137.2,124.667 134.133,124.667 C127.6,124.667 124.8,121.334 124.8,113.734 L124.8,70.4 L141.917,70.4 L141.917,70.4 Z M205.333,44.434 C196,44.434 188.533,49.334 185.6,58.134 L183.6,45.867 L154.667,45.867 L154.667,149.6 L187.733,149.6 L187.733,82.267 C191.867,77.2 197.733,75.368 205.733,75.368 C207.467,75.368 209.333,75.368 211.6,75.768 L211.6,45.234 C209.333,44.701 207.333,44.434 205.333,44.434 L205.333,44.434 Z M236.267,35.6 C245.867,35.6 253.6,27.734 253.6,18.134 C253.6,8.4 245.867,0.667 236.267,0.667 C226.533,0.667 218.8,8.4 218.8,18.134 C218.8,27.734 226.533,35.6 236.267,35.6 L236.267,35.6 Z M219.6,149.6 L252.8,149.6 L252.8,45.867 L219.6,45.867 L219.6,149.6 Z M346.883,55.2 C341.016,47.6 332.883,43.867 322.483,43.867 C312.883,43.867 304.483,47.867 296.616,56.267 L294.883,45.867 L265.816,45.867 L265.816,188 L298.883,182.534 L298.883,149.2 C303.949,150.8 309.149,151.6 313.816,151.6 C322.083,151.6 334.083,149.467 343.416,139.334 C352.349,129.6 356.883,114.534 356.883,94.667 C356.883,77.067 353.549,63.734 346.883,55.2 L346.883,55.2 Z M319.416,119.2 C316.749,124.267 312.616,126.934 307.816,126.934 C304.483,126.934 301.549,126.267 298.883,124.934 L298.883,75.6 C304.483,69.734 309.549,69.067 311.416,69.067 C319.816,69.067 323.949,78.134 323.949,95.867 C323.949,106 322.483,113.867 319.416,119.2 L319.416,119.2 Z M451.683,96.8 C451.683,80.267 448.083,67.2 441.016,58 C433.816,48.667 423.016,43.867 409.283,43.867 C381.149,43.867 363.683,64.667 363.683,98 C363.683,116.667 368.349,130.667 377.549,139.6 C385.816,147.6 397.683,151.6 413.016,151.6 C427.149,151.6 440.216,148.267 448.483,142.8 L444.883,120.134 C436.749,124.534 427.283,126.934 416.616,126.934 C410.216,126.934 405.816,125.6 402.616,122.8 C399.149,119.867 397.149,115.067 396.483,108.267 L451.283,108.267 C451.416,106.667 451.683,99.2 451.683,96.8 L451.683,96.8 Z M396.216,88 C397.149,73.2 401.149,66.267 408.749,66.267 C416.216,66.267 420.083,73.334 420.616,88 L396.216,88 L396.216,88 Z" mask="url(#b)"/>
  </g>
</svg>
