<?xml version="1.0" encoding="utf-8"?>
<!-- Generated by IcoMoon.io -->
<!DOCTYPE svg PUBLIC "-//W3C//DTD SVG 1.1//EN" "http://www.w3.org/Graphics/SVG/1.1/DTD/svg11.dtd">
<svg version="1.1" xmlns="http://www.w3.org/2000/svg" xmlns:xlink="http://www.w3.org/1999/xlink" width="32" height="32" viewBox="0 0 32 32">
	<path d="M18.338 11.938c0-0.615-0.492-1.108-1.108-1.108h-3.2l1.231-5.169c0.738-2.585 1.969-3.569 3.569-3.569 0.369 0 0.615 0.123 0.985 0.123 0 0 0 0 0 0v0c0 0 0 0 0.123 0v0h0.123c0.492 0.123 1.108-0.123 1.231-0.738 0.123-0.492-0.123-0.985-0.615-1.231-0.246-0.123-0.492-0.123-0.738-0.246-0.369 0.123-0.738 0-1.108 0-2.462 0-5.169 1.477-6.277 5.662l-1.231 5.169h-3.2c-0.615 0-1.108 0.492-1.108 1.108s0.492 1.108 1.108 1.108h2.708l-3.692 13.785c-0.615 2.462-1.477 3.077-2.954 3.077-0.369 0-0.615-0.123-0.862-0.246-0.615-0.246-0.615-0.615-1.231-0.615-0.123 0-0.369 0.123-0.492 0.246-0.246 0.369-0.246 0.738-0.123 1.108 0 0 0.123 0.123 0.123 0.123s0.246 0.492 1.231 0.862c0.246 0.492 0.862 0.615 1.477 0.615 3.077 0 4.8-2.215 5.538-5.046l3.692-14.031h3.692c0.615 0.123 1.108-0.369 1.108-0.985z" fill="#000000"></path>
	<path d="M25.477 24.369l3.815-4.554c0.492-0.615 0.492-1.6-0.123-2.092s-1.6-0.492-2.092 0.123l-3.569 4.308-3.569-4.185c-0.492-0.615-1.477-0.738-2.092-0.246s-0.738 1.477-0.123 2.092l3.815 4.554-3.815 4.554c-0.492 0.615-0.492 1.6 0.123 2.092s1.6 0.369 2.092-0.246l3.569-4.185 3.569 4.185c0.492 0.615 1.477 0.738 2.092 0.246s0.738-1.477 0.123-2.092l-3.815-4.554z" fill="#000000"></path>
</svg>
