<?xml version="1.0" encoding="utf-8"?>
<!-- Generator: Adobe Illustrator 17.1.0, SVG Export Plug-In . SVG Version: 6.00 Build 0)  -->
<!DOCTYPE svg PUBLIC "-//W3C//DTD SVG 1.1//EN" "http://www.w3.org/Graphics/SVG/1.1/DTD/svg11.dtd">
<svg version="1.1" id="Layer_1" xmlns="http://www.w3.org/2000/svg" xmlns:xlink="http://www.w3.org/1999/xlink" x="0px" y="0px"
	 width="142px" height="142px" viewBox="0 0 142 142" enable-background="new 0 0 142 142" xml:space="preserve">
<path opacity="0.75" fill="#FFD65B" d="M142,136c0,3.3-2.7,6-6,6H6c-3.3,0-6-2.7-6-6V6c0-3.3,2.7-6,6-6h130c3.3,0,6,2.7,6,6V136z"/>
<g>
	<rect x="47" y="95" fill="#333333" width="48" height="8"/>
	<path fill="#333333" d="M79,75V64.5c3.6-2.5,6-6.7,6-11.5c0-7.7-6.3-14-14-14c-7.7,0-14,6.3-14,14c0,4.8,2.4,8.9,6,11.5V75H39v16
		h64V75H79z"/>
</g>
</svg>
