<?xml version="1.0" encoding="utf-8"?>
<!-- Generator: Adobe Illustrator 17.1.0, SVG Export Plug-In . SVG Version: 6.00 Build 0)  -->
<!DOCTYPE svg PUBLIC "-//W3C//DTD SVG 1.1//EN" "http://www.w3.org/Graphics/SVG/1.1/DTD/svg11.dtd">
<svg version="1.1" id="Layer_1" xmlns="http://www.w3.org/2000/svg" xmlns:xlink="http://www.w3.org/1999/xlink" x="0px" y="0px"
	 width="36px" height="36px" viewBox="0 0 36 36" style="enable-background:new 0 0 36 36;" xml:space="preserve">
<style type="text/css">
	.st0{fill:#525252;}
	.st1{fill:#565756;}
</style>
<path class="st0" d="M31.8,2C33.2,2,34,2.8,34,4.2v27.6c0,1.4-0.8,2.2-2.2,2.2H4.2C2.8,34,2,33.2,2,31.8V4.2C2,2.8,2.8,2,4.2,2H31.8
	 M31.8,0H4.2C1.7,0,0,1.7,0,4.2v27.6C0,34.3,1.7,36,4.2,36h27.6c2.5,0,4.2-1.7,4.2-4.2V4.2C36,1.7,34.3,0,31.8,0L31.8,0z"/>
<g>
	<path class="st1" d="M19.9,14.7c0-0.5-0.4-0.9-0.9-0.9h-2.6l1-4.2c0.6-2.1,1.6-2.9,2.9-2.9c0.3,0,0.5,0.1,0.8,0.1c0,0,0,0,0,0l0,0
		c0,0,0,0,0.1,0l0,0l0.1,0c0.4,0.1,0.9-0.1,1-0.6c0.1-0.4-0.1-0.8-0.5-1c-0.2-0.1-0.4-0.1-0.6-0.2C20.9,5.1,20.6,5,20.3,5
		c-2,0-4.2,1.2-5.1,4.6l-1,4.2h-2.6c-0.5,0-0.9,0.4-0.9,0.9s0.4,0.9,0.9,0.9h2.2l-2.9,11.2c-0.5,2-1.2,2.5-2.4,2.5
		c-0.3,0-0.5-0.1-0.7-0.2c-0.5-0.2-0.5-0.5-1-0.5c-0.1,0-0.3,0.1-0.4,0.2c-0.2,0.3-0.2,0.6-0.1,0.9c0,0,0.1,0.1,0.1,0.1
		c0,0,0.2,0.4,1,0.7C7.5,30.9,8,31,8.5,31c2.5,0,3.9-1.8,4.5-4.1l3-11.4h3C19.5,15.6,19.9,15.2,19.9,14.7z"/>
	<path class="st1" d="M25.7,24.8l3.1-3.7c0.4-0.5,0.4-1.3-0.1-1.7C28.2,19,27.4,19,27,19.5L24.1,23l-2.9-3.4
		c-0.4-0.5-1.2-0.6-1.7-0.2c-0.5,0.4-0.6,1.2-0.1,1.7l3.1,3.7l-3.1,3.7c-0.4,0.5-0.4,1.3,0.1,1.7c0.5,0.4,1.3,0.3,1.7-0.2l2.9-3.4
		l2.9,3.4c0.4,0.5,1.2,0.6,1.7,0.2c0.5-0.4,0.6-1.2,0.1-1.7L25.7,24.8z"/>
</g>
</svg>
