<?xml version="1.0" encoding="UTF-8" standalone="no"?>
<svg width="16px" height="16px" viewBox="0 0 16 16" version="1.1" xmlns="http://www.w3.org/2000/svg" xmlns:xlink="http://www.w3.org/1999/xlink">
    <!-- Generator: Sketch 40 (33762) - http://www.bohemiancoding.com/sketch -->
    <title>Shape Copy 8</title>
    <desc>Created with Sketch.</desc>
    <defs></defs>
    <g id="Sending" stroke="none" stroke-width="1" fill="none" fill-rule="evenodd">
        <g id="1.2-hover-docu" transform="translate(-253.000000, -327.000000)" fill="#999999">
            <polygon id="Shape-Copy-8" points="269 335.003375 266.591123 337.412231 265.827406 336.648655 266.935924 335.540146 261.539949 335.540146 261.539949 340.932566 262.645226 339.827433 263.408944 340.591144 260.999932 343 258.591056 340.591144 259.354774 339.827433 260.459916 340.932566 260.459916 335.540146 255.064076 335.540146 256.172594 336.648655 255.408877 337.412231 253 335.003375 255.408877 332.594384 256.172594 333.35796 255.070556 334.460124 260.459916 334.460124 260.459916 329.067434 259.354774 330.172702 258.591056 329.409126 260.999932 327 263.408944 329.409126 262.645226 330.172702 261.539949 329.067434 261.539949 334.460124 266.929309 334.460124 265.827406 333.35796 266.591123 332.594384"></polygon>
        </g>
    </g>
</svg>