<svg xmlns="http://www.w3.org/2000/svg" width="16" height="14" viewBox="0 0 16 14">
  <g fill="#A9A9A9" fill-rule="evenodd">
    <path d="M11.3300526,8.4536296 C11.4075428,7.6426296 11.8506277,6.9286296 12.519229,6.4906296 L13.0070199,8.1226296 C12.5818173,8.1856296 11.9897127,8.2906296 11.3300526,8.4536296 M7.79530746,9.8776296 C7.1972421,10.2576296 6.42730746,10.5916296 5.5113336,10.8706296 C4.93810484,9.5266296 3.58997412,8.7036296 2.16534667,8.8006296 L1.46296759,6.4546296 C2.50511138,5.8626296 3.16973883,4.7576296 3.18563426,3.5266296 C3.21841857,3.5176296 3.24921595,3.5096296 3.2810068,3.5006296 C4.34202641,3.1796296 5.24508524,2.7856296 5.96534667,2.3276296 C6.58626171,1.9336296 7.35420942,1.5956296 8.24435321,1.3196296 C8.81559504,2.6676296 10.1667062,3.4946296 11.5933205,3.3966296 L12.2947062,5.7416296 C11.2505754,6.3316296 10.5929022,7.4296296 10.5740264,8.6586296 C10.5611114,8.6626296 10.5491898,8.6656296 10.5362748,8.6696296 C9.47624863,8.9896296 8.55332053,9.3966296 7.79530746,9.8776296 M2.95316367,11.4356296 L2.39185648,9.5596296 C3.40220942,9.5586296 4.33904602,10.1376296 4.78113752,11.0736296 C4.06584341,11.2536296 3.41611792,11.3676296 2.95316367,11.4356296 M2.42464079,3.7326296 C2.34913752,4.5456296 1.90704602,5.2666296 1.23943818,5.7056296 L0.750653863,4.0716296 C1.17983033,4.0036296 1.77193491,3.8936296 2.42464079,3.7326296 M10.8055035,0.760629603 L11.3668107,2.6376296 C10.3524839,2.6386296 9.4136604,2.0556296 8.97355582,1.1146296 C9.69679765,0.931629603 10.3475166,0.821629603 10.8055035,0.760629603 M13.7243009,7.9056296 L13.2047192,6.1626296 L12.9881441,5.4346296 L12.3404055,3.2656296 L12.189399,2.7586296 L11.5277519,0.542629603 C11.4214512,0.184629603 11.0757258,-0.0423703974 10.7071506,0.00662960258 C10.1061048,0.0876296026 9.1484055,0.250629603 8.11818328,0.561629603 C7.2608238,0.820629603 6.35379112,1.1826296 5.56200027,1.6856296 C4.81392184,2.1606296 3.92079765,2.5136296 3.06443164,2.7726296 C2.13653622,3.0526296 1.25135975,3.2236296 0.633425105,3.3206296 C0.598653863,3.3266296 0.564876086,3.3336296 0.533085236,3.3436296 C0.141660399,3.4616296 -0.0888232607,3.8826296 0.0323793537,4.2886296 L2.22992184,11.6546296 C2.33721595,12.0156296 2.68989569,12.2426296 3.06045779,12.1876296 C3.67739896,12.0976296 4.6629153,11.9216296 5.70009177,11.6076296 C6.55645779,11.3486296 7.44958197,10.9966296 8.19865386,10.5206296 C8.99044471,10.0176296 9.89648393,9.6566296 10.7538434,9.3976296 C11.662863,9.1226296 12.5162486,8.9636296 13.1172944,8.8746296 C13.1540526,8.8686296 13.1898173,8.8606296 13.2245885,8.8506296 C13.6150199,8.7326296 13.8455035,8.3116296 13.7243009,7.9056296"/>
    <path d="M8.66541157,5.89785502 C9.22266091,7.15269697 8.90869848,8.35450334 7.96409289,8.58265642 C7.01948731,8.80980883 5.80169364,7.97725021 5.24308516,6.72240826 C4.68583583,5.46756631 4.99979826,4.26475927 5.94440384,4.03760686 C6.88900942,3.80945378 8.10816223,4.64301307 8.66541157,5.89785502" transform="rotate(17 6.954 6.31)"/>
    <path d="M15.7662745,9.59647288 C15.7921046,9.56547288 15.822902,9.53847288 15.8437647,9.50447288 C15.8785359,9.44547288 15.8974118,9.38047288 15.9152941,9.31447288 C15.9252288,9.28147288 15.9421176,9.25147288 15.947085,9.21747288 C15.9609935,9.11347288 15.9570196,9.00647288 15.9252288,8.90047288 L13.7286797,1.53747288 C13.6750327,1.35847288 13.5607843,1.21247288 13.4117647,1.11847288 C13.2617516,1.02447288 13.0789542,0.981472875 12.8901961,1.00747288 C12.7441569,1.02747288 12.573281,1.05347288 12.3904837,1.08447288 C12.3835294,1.08547288 12.3755817,1.08647288 12.3686275,1.08747288 L12.5842092,1.82347288 C12.7262745,1.80047288 12.8663529,1.77847288 12.9845752,1.76247288 L15.187085,9.12347288 C14.579085,9.21647288 13.6452288,9.38947288 12.6458039,9.69147288 C11.5539869,10.0214729 10.6032418,10.4364729 9.82138562,10.9254729 C9.19649673,11.3154729 8.39477124,11.6594729 7.43806536,11.9494729 C6.42671895,12.2544729 5.46405229,12.4324729 4.83618301,12.5264729 L4.73783007,12.1994729 L3.97385621,12.3584729 L4.09108497,12.7514729 C4.19937255,13.1134729 4.55900654,13.3374729 4.94049673,13.2794729 C5.09150327,13.2574729 5.26635294,13.2284729 5.45610458,13.1954729 C5.51372549,13.1854729 5.57929412,13.1714729 5.63989542,13.1604729 C5.77898039,13.1344729 5.92005229,13.1074729 6.07205229,13.0764729 C6.15649673,13.0584729 6.24789542,13.0364729 6.33631373,13.0174729 C6.47837908,12.9864729 6.62044444,12.9534729 6.76946405,12.9174729 C6.86881046,12.8934729 6.97113725,12.8644729 7.07147712,12.8384729 C7.2185098,12.7994729 7.36653595,12.7594729 7.51654902,12.7154729 C7.64569935,12.6774729 7.77484967,12.6374729 7.90499346,12.5954729 C8.00334641,12.5634729 8.10169935,12.5324729 8.20005229,12.4984729 C8.34112418,12.4494729 8.48219608,12.3964729 8.62227451,12.3424729 C8.71665359,12.3064729 8.81202614,12.2714729 8.90541176,12.2334729 C9.05840523,12.1704729 9.20643137,12.1004729 9.35545098,12.0314729 C9.43294118,11.9954729 9.51142484,11.9614729 9.58792157,11.9234729 C9.80946405,11.8124729 10.0250458,11.6944729 10.2296993,11.5664729 C10.6280784,11.3174729 11.055268,11.1044729 11.4904052,10.9184729 C11.5063007,10.9114729 11.5212026,10.9034729 11.537098,10.8964729 C11.9613072,10.7164729 12.3904837,10.5674729 12.8097255,10.4384729 C12.8276078,10.4334729 12.8454902,10.4254729 12.8623791,10.4194729 C12.8762876,10.4154729 12.8901961,10.4124729 12.9041046,10.4084729 C13.0402092,10.3674729 13.1713464,10.3334729 13.3044706,10.2974729 C13.3968627,10.2724729 13.4902484,10.2444729 13.5806536,10.2214729 C13.7167582,10.1874729 13.8459085,10.1584729 13.9760523,10.1294729 C14.0555294,10.1114729 14.1389804,10.0904729 14.2154771,10.0734729 C14.3694641,10.0404729 14.5105359,10.0144729 14.6516078,9.98747288 C14.6973072,9.97947288 14.7469804,9.96847288 14.7906928,9.96047288 C14.9724967,9.92747288 15.1413856,9.89947288 15.2933856,9.87647288 C15.3778301,9.86347288 15.4493595,9.82547288 15.5208889,9.78947288 C15.559634,9.77047288 15.6013595,9.75347288 15.6351373,9.72847288 C15.6858039,9.69147288 15.7265359,9.64447288 15.7662745,9.59647288"/>
  </g>
</svg>
