<!--
	Avatar: Legend of Korra
	by Samrat Ambadekar <http://samratambadekar.com>
-->

<svg id="svg" width="100%" height="100%"  xmlns="http://www.w3.org/2000/svg" version="1.1" xmlns:xlink="http://www.w3.org/1999/xlink">
	<defs>
		<linearGradient id="linearGradientSky"
			x1="0%" y1="0%"
			x2="0%" y2="100%"
			spreadMethod="pad">
			<stop offset="0%" stop-color="#002F73" stop-opacity="1"/>
			<stop offset="60%" stop-color="#8ABAE8" stop-opacity="1"/>
		</linearGradient>
		<linearGradient id="linearGradientSky3"
			x1="0%" y1="0%"
			x2="0%" y2="100%"
			spreadMethod="pad">
			<stop offset="0%" stop-color="#222" stop-opacity="1"/>
			<stop offset="80%" stop-color="#DC883F" stop-opacity="1"/>
		</linearGradient>
		<linearGradient id="linearGradientSky2"
			x1="0%" y1="0%"
			x2="0%" y2="100%"
			spreadMethod="pad">
			<stop offset="0%" stop-color="#222" stop-opacity="1"/>
			<stop offset="60%" stop-color="#AAA" stop-opacity="1"/>
		</linearGradient>
		<linearGradient id="linearGradientSea2"
			x1="0%" y1="0%"
			x2="0%" y2="100%"
			spreadMethod="pad">
			<stop offset="0%" stop-color="#555" stop-opacity="1"/>
			<stop offset="50%" stop-color="#04587B" stop-opacity="1"/>
		</linearGradient>
		<linearGradient id="linearGradientSea3"
			x1="0%" y1="0%"
			x2="0%" y2="100%"
			spreadMethod="pad">
			<stop offset="0%" stop-color="#683712" stop-opacity="1"/>
			<stop offset="15%" stop-color="#555" stop-opacity="1"/>
		</linearGradient>
		<linearGradient id="linearGradientSea"
			x1="0%" y1="0%"
			x2="0%" y2="100%"
			spreadMethod="pad">
			<stop offset="0%" stop-color="#34587B" stop-opacity="1"/>
			<stop offset="30%" stop-color="#04587B" stop-opacity="1"/>
		</linearGradient>
		<linearGradient id="linearGradientSnow"
			x1="0%" y1="0%"
			x2="0%" y2="100%"
			spreadMethod="pad">
			<stop offset="0%" stop-color="#FFF" stop-opacity="1"/>
			<stop offset="60%" stop-color="#DDD" stop-opacity="1"/>
		</linearGradient>
		<linearGradient id="linearGradientPedestal"
			x1="0%" y1="0%"
			x2="100%" y2="0%"
			spreadMethod="pad">
			<stop offset="0%" stop-color="#353843" stop-opacity="1"/>
			<stop offset="80%" stop-color="#666" stop-opacity="1"/>
		</linearGradient>
		<linearGradient id="linearGradientStatue"
			x1="0%" y1="0%"
			x2="100%" y2="0%"
			spreadMethod="pad">
			<stop offset="0%" stop-color="#233937" stop-opacity="1"/>
			<stop offset="75%" stop-color="#567674" stop-opacity="1"/>
		</linearGradient>
		<linearGradient id="linearGradientRock"
			x1="0%" y1="0%"
			x2="0%" y2="100%"
			spreadMethod="pad">
			<stop offset="0%" stop-color="#BBB" stop-opacity="1"/>
			<stop offset="50%" stop-color="#888" stop-opacity="1"/>
		</linearGradient>
		<linearGradient id="linearGradientRock2"
			x1="0%" y1="0%"
			x2="100%" y2="0%"
			spreadMethod="pad">
			<stop offset="0%" stop-color="#777" stop-opacity="1"/>
			<stop offset="40%" stop-color="#454545" stop-opacity="1"/>
			<stop offset="80%" stop-color="#222" stop-opacity="1"/>
		</linearGradient>
		<filter id="glow" x="-50%" y="-50%" width="200%" height="200%">
			<feGaussianBlur in="SourceGraphic" stdDeviation="8" />
		</filter>
		<filter id="glow1" x="-50%" y="-50%" width="200%" height="200%">
			<feGaussianBlur in="SourceGraphic" stdDeviation="0.8" />
		</filter>
		<filter id="glow2" x="-50%" y="-50%" width="200%" height="200%">
			<feGaussianBlur in="SourceGraphic" stdDeviation="4" />
		</filter>
	</defs>
	
	<rect id="sky" rx="0" ry="0" width="100%" height="550" style="fill:url(#linearGradientSky)">

		<animate id="ani7"
			    attributeName="opacity"
			    attributeType="CSS"
			    to="0"
			    dur="3s"
			    begin="ani6.end"
			    fill="freeze"/>
	</rect>
	<rect id="sky2" rx="0" ry="0" width="100%" height="550" style="fill:url(#linearGradientSky2);opacity:0;">

		<animate id=""
			    attributeName="opacity"
			    attributeType="CSS"
			    to="1"
			    dur="3s"
			    begin="ani6.end"
			    fill="freeze"/>

		<animate id=""
			    attributeName="opacity"
			    attributeType="CSS"
			    to="0"
			    dur="3s"
			    begin="ani8.end+4"
			    fill="freeze"/>
	</rect>

	<rect id="sky3" rx="0" ry="0" width="100%" height="550" style="fill:url(#linearGradientSky3);opacity:0;">

		<animate id=""
			    attributeName="opacity"
			    attributeType="CSS"
			    to="1"
			    dur="1.5s"
			    begin="ani8.end+4"
			    fill="freeze"/>
	</rect>

	<g transform="scale(1),translate(0,0)">
		<g id="republicCity" style="opacity:1" transform="translate(0,0),scale(1)">
			<path d="m40,550
					l1200,0
					l0,-2
					l-15,0
					l0,-50
					l-5,-5
					l0,-40
					l-25,0
					l0,90
					l-1,0
					l0,-35
					l-2,-1
					l0,-15
					l-10,0
					l0,30
					l-1,-3
					l0,-90
					l-5,0
					l0,-3
					l-8,0
					l0,2
					l-7,0
					l0,70
					l-2,0
					l0,-30
					l-5,0
					l0,40
					l-3,-2
					l0,-45
					l-7,2
					l0,50
					l-5,0
					l0,-40
					l-1,-1
					l0,-40
					l3,-3
					l0,-15
					l-2,0
					l0,-2
					l-10,0
					l0,3
					l-15,0
					l0,20
					l-2,0
					l0,40
					l-2,2
					l0,20
					l-1,0
					l0,-35
					l-15,0
					l0,-4
					l-5,-6
					l0,-3
					l-5,-6
					l0,-4
					l-4,-6
					l-8,0
					l-4,6
					l0,4
					l-5,6
					l0,3
					l-5,6
					l0,10
					l4,5
					l0,10
					l-3,0
					l0,-2
					l-12,0
					l0,-35
					l3,-5
					l0,-8
					l-8,0
					l-3,3
					l-7,0
					l0,40
					l-10,0
					l0,4
					l-3,0
					l-3,3
					l0,40
					l-10,0
					l0,-20
					l-4,-4
					l0,-15
					l-5,-15
					l-1,0
					l-1,-10
					l-1,10
					l-1,0
					l-5,15
					l0,15
					l-4,4
					l0,15
					l-3,0
					l0,-60
					l-8,-15
					l0,-100
					l-12,-50
					l-15,0
					l-12,50
					l0,100
					l-8,15
					l0,50
					l0,-48
					l-3,-14
					l-1,-40
					l-14,0
					l-1,40
					l-3,14
					l-3,-14
					l0,-23
					l-1,-10
					l-15,0
					l0,33
					l0,-120
					l1,-10
					l0,-15
					l3,-3
					l-30,0
					l3,3
					l0,15
					l1,10
					l0,130
					l0,-45
					l-18,4
					l0,30
					l-18,0
					l0,22
					l-10,0
					l0,-20
					l-1,-10
					l0,-15
					l4,-3
					l-5,-7
					l-12,0
					l-3,-8
					l0,-35
					l2,0
					l-4,-6
					l0,-25
					l4,0
					l-5,-4
					l0,-20
					l3,0
					l-4,-3
					l-2,-15
					l2,0
					l-2,-3
					l-4,-20
					l2,0
					l-4,-2
					l-4,-8
					l-4,8
					l-4,2
					l2,0
					l-4,20
					l-2,3
					l2,0
					l-2,15
					l-4,3
					l3,0
					l0,20
					l-5,4
					l4,0
					l0,25
					l-4,6
					l2,0
					l0,35
					l-3,8
					l0,30
					l-2,0
					l0,-15
					l-1,-5
					l0,-10
					l-2,0
					l-2,-6
					l-10,0
					l-1,6
					l-2,0
					l0,30
					l-10,0
					l0,-40
					l2,-10
					l0,-10
					l-2,0
					l0,-25
					l-15,0
					l-5,20
					l-2,0
					l0,35
					l-10,12
					l0,60
					l-10,0
					l0,-5
					l3,-2
					l-3,-2
					l0,-50
					l2,-10
					l0,-10
					l-10,0
					l0,-80
					l-3,-45
					l0,-20
					l-7,-10
					l0,-2
					l3,-2
					l0,-1
					l-4,-3
					l0,-1
					l3,-2
					l0,-1
					l-4,-2
					l0,-1
					l2,-1
					q-4,-3 -8,-15
					l0,-4
					l0,4
					q-4,12 -8,15
					l2,1
					l0,1
					l-4,2
					l0,1
					l3,2
					l0,1
					l-4,3
					l0,1
					l3,2
					l0,2
					l-7,10
					l0,20
					l-3,45
					l-2,2
					l1,1
					l0,77
					l-5,0
					l0,10
					l-8,0
					l0,16
					l-4,0
					l0,55
					l-3,0
					l0,-5
					l-2,0
					l0,-2
					l-5,0
					l0,-12
					l-5,0
					l0,-70
					l2,-1
					l-2,-1
					l0,-55
					l2,-1
					l-3,-2
					l1,-10
					l-10,0
					l-1,-18
					l-1,0
					l-1,18
					l-10,0
					l1,10
					l-3,2
					l2,1
					l0,55
					l-2,1
					l2,1
					l0,40
					l-5,0
					l-3,-4
					l-3,5
					l-3,0
					l0,-4
					l-5,0
					l0,4
					l-10,0
					l0,15
					l-20,0
					l0,-100
					l4,0
					l0,-1
					l-3,0
					l0,-2
					l-3,0
					l0,-40
					l3,-2
					l-4,-1
					l-2,-10
					q12,-4 16,-15
					q-15,3 -30,2
					q-18,2 -30,-2
					q4,11 16,15
					l-2,10
					l-4,1
					l3,2
					l0,40
					l-3,0
					l0,2
					l-3,0
					l0,1
					l1,0
					l0,100
					l-20,0
					l0,4
					l10,3
					l0,15
					l4,8
					l0,30
					l-10,0
					l0,-10
					l-30,0
					l0,5
					l-3,0
					l0,-10
					l-5,0
					l0,30
					l0,-60
					l-8,0
					l0,-8
					l-3,0
					l0,10
					l-10,0
					l0,40
					l5,30
					l0,-5
					l-5,0
					l0,-10
					l-1,-10
					l0,-5
					l-5,0
					l-5,-20
					l0,-100
					l-3,-8
					l0,-15
					l-15,0
					l0,15
					l-3,8
					l0,80
					l-10,0
					l0,25
					l-2,0
					l-15,-15
					l0,-20
					l-5,-4
					l-7,0
					l0,-120
					l-3,-2
					l0,-4
					l-1,-3
					l-18,0
					l-1,3
					l0,4
					l-3,2
					l0,120
					l-5,15
					l-10,3
					l0,-35
					l-2,0
					l-8,-20
					l0,-15
					l-24,0
					l0,-5
					l-10,0
					l0,12
					l3,5
					l0,50
					l-10,2
					l-5,0
					l0,-12
					l-30,0
					l0,-25
					l-10,0
					l0,-7
					l-12,0
					l0,40
					l-5,0
					l0,40
					l-10,0
					l0,-30
					l-4,-6
					l0,-14
					l-6,0
					l0,14
					l-4,6
					l0,30
					l-5,0
					l0,3
					l-10,0
					l0,-40
					l-15,0
					l0,40
					l-10,0
					l0,15
					l-5,0
					l0,-45
					l-4,0
					l0,-10
					l-10,0
					l0,10
					l-4,0
					l0,45
					l-5,0
					l-10,0
					l0,15
					l-22,0
					l0,-30
					l5,-6
					q-6,-6 -12,0
					l5,6
					l0,30
					l-15,0
					l0,-25
					l-5,0
					l0,30
					l-10,0
					l0,-55
					l-7,0
					l0,63"
				style="stroke: #838787; stroke-width: 1;fill:#838787;opacity: 1">
			</path>
			<g id="facades">
				<path d="m40,545
						 l1185,0"
					style="stroke: #20231B; stroke-width: 10;fill:#20231B;opacity: 0.8;filter:url(#glow);">
				</path>
				<path d="m48,550
						 l0,-63"
					style="stroke: #20231B; stroke-width: 3;fill:#20231B;opacity: 0.5;filter:url(#glow1);">
				</path>
				<path d="m63,550
						 l0,-38"
					style="stroke: #20231B; stroke-width: 2;fill:none;opacity: 0.5;filter:url(#glow1);">
				</path>
				<path d="m80,548
						 l0,-42
						 l5,-5
						 q-7,-7 -14,0"
					style="stroke: #20231B; stroke-width: 2;fill:none;opacity: 0.5;filter:url(#glow1);">
				</path>
				<path d="m100,550
						 l0,-28
						 l16,0"
					style="stroke: #20231B; stroke-width: 2;fill:none;opacity: 0.5;filter:url(#glow1);">
				</path>
				<path d="m132,550
						 l0,-72
						 l-5,0
						 l0,-10"
					style="stroke: #20231B; stroke-width: 4;fill:none;opacity: 0.5;filter:url(#glow1);">
				</path>
				<path d="m140,550
						 l0,-43"
					style="stroke: #20231B; stroke-width: 2;fill:none;opacity: 0.5;filter:url(#glow1);">
				</path>
				<path d="m162,550
						 l0,-82"
					style="stroke: #20231B; stroke-width: 4;fill:none;opacity: 0.5;filter:url(#glow1);">
				</path>
				<path d="m192,550
						 l0,-75
						 l-5,-8
						 l0,-13"
					style="stroke: #20231B; stroke-width: 4;fill:none;opacity: 0.5;filter:url(#glow1);">
				</path>
				<path d="m228,550
						 l0,-118
						 l-10,0
						 l0,-8"
					style="stroke: #20231B; stroke-width: 6;fill:none;opacity: 0.5;filter:url(#glow1);">
				</path>
				<path d="m258,550
						 l0,-94"
					style="stroke: #20231B; stroke-width: 6;fill:none;opacity: 0.5;filter:url(#glow1);">
				</path>
				<path d="m268,550
						 l0,-82"
					style="stroke: #20231B; stroke-width: 13;fill:none;opacity: 0.25;filter:url(#glow1);">
				</path>
				<path d="m310,550
						 l0,-110
						 l-10,-20
						 l0,-15"
					style="stroke: #20231B; stroke-width: 10;fill:none;opacity: 0.50;filter:url(#glow1);">
				</path>
				<path d="m320,550
						 l0,-77"
					style="stroke: #20231B; stroke-width: 13;fill:none;opacity: 0.25;filter:url(#glow1);">
				</path>
				<path d="m342,550
						 l0,-210"
					style="stroke: #20231B; stroke-width: 15;fill:none;opacity: 0.20;filter:url(#glow1);">
				</path>
				<path d="m355,550
						 l0,-213
						 l-24,0
						 m2,-5
						 l20,0"
					style="stroke: #20231B; stroke-width: 3;fill:none;opacity: 0.5;filter:url(#glow1);">
				</path>
				<path d="m362,550
						 l0,-93"
					style="stroke: #20231B; stroke-width: 10;fill:none;opacity: 0.5;filter:url(#glow1);">
				</path>
				<path d="m372,550
						 l0,-65"
					style="stroke: #20231B; stroke-width: 10;fill:none;opacity: 0.5;filter:url(#glow1);">
				</path>
				<path d="m380,550
						 l0,-56"
					style="stroke: #20231B; stroke-width: 7;fill:none;opacity: 0.6;filter:url(#glow1);">
				</path>
				<path d="m392,550
						 l0,-80"
					style="stroke: #20231B; stroke-width: 11;fill:none;opacity: 0.6;filter:url(#glow1);">
				</path>
				<path d="m385,550
						 l0,-53
						 l-18,-16
						 l0,-20"
					style="stroke: #20231B; stroke-width: 3;fill:none;opacity: 0.8;filter:url(#glow1);">
				</path>
				<path d="m420,550
						 l0,-40
						 l-5,-20
						 l0,-100
						 l-2,-10
						 l0,-12
						 l-13,0
						 m-3,20
						 l15,0
						 m2,60
						 l-20,0"
					style="stroke: #20231B; stroke-width: 3;fill:none;opacity: 0.50;filter:url(#glow1);">
				</path>
				<path d="m420,550
						 l0,-40
						 l-5,-20
						 l-5,20
						 l0,40"
					style="stroke: #20231B; stroke-width: 3;fill:#20231B;opacity: 0.50;filter:url(#glow1);">
				</path>
				<path d="m427,550
						 l0,-40"
					style="stroke: #20231B; stroke-width: 13;fill:none;opacity: 0.50;filter:url(#glow1);">
				</path>
				<path d="m445,550
						 l0,-82"
					style="stroke: #20231B; stroke-width: 8;fill:none;opacity: 0.50;filter:url(#glow1);">
				</path>
				<path d="m451,550
						 l0,-53"
					style="stroke: #20231B; stroke-width: 5;fill:none;opacity: 0.50;filter:url(#glow1);">
				</path>
				<path d="m470,550
						 l0,-48"
					style="stroke: #20231B; stroke-width: 34;fill:none;opacity: 0.25;filter:url(#glow1);">
				</path>
				<path d="m492,550
						 l0,-38"
					style="stroke: #20231B; stroke-width: 10;fill:none;opacity: 0.65;filter:url(#glow1);">
				</path>
				<path d="m501,550
						 l0,-70
						 l-5,-5
						 l0,-18
						 l-5,0"
					style="stroke: #20231B; stroke-width: 9;fill:none;opacity: 0.65;filter:url(#glow1);">
				</path>
				<path d="m525,550
						 l0,-230"
					style="stroke: #20231B; stroke-width: 27;fill:none;opacity: 0.20;filter:url(#glow1);">
				</path>
				<path d="m508,550
						 l0,-198"
					style="stroke: #20231B; stroke-width: 7;fill:none;opacity: 0.35;filter:url(#glow1);">
				</path>
				<path d="m503,352
						 l43,0
						 m-3,-43
						 l-35,0"
					style="stroke: #20231B; stroke-width: 3;fill:none;opacity: 0.35;filter:url(#glow1);">
				</path>
				<path d="m510,301
						 l30,0"
					style="stroke: #20231B; stroke-width: 8;fill:none;opacity: 0.5;filter:url(#glow1);">
				</path>
				<path d="m554,550
						 l0,-97"
					style="stroke: #20231B; stroke-width: 20;fill:none;opacity: 0.35;filter:url(#glow1);">
				</path>
				<path d="m580,550
						 l0,-108"
					style="stroke: #20231B; stroke-width: 25;fill:none;opacity: 0.35;filter:url(#glow1);">
				</path>
				<path d="m614,550
						 l0,-212
						 m4,1
						 l-26,0
						 m8,4
						 l0,40
						 m5,5
						 l0,30
						 m-5,0
						 l0,10
						 m5,0
						 l0,25
						 m-5,7
						 l0,55"
					style="stroke: #20231B; stroke-width: 3;fill:none;opacity: 0.35;filter:url(#glow1);">
				</path>
				<path d="m618,550
						 l0,-83"
					style="stroke: #20231B; stroke-width: 7;fill:none;opacity: 0.6;filter:url(#glow1);">
				</path>
				<path d="m625,550
						 l0,-70"
					style="stroke: #20231B; stroke-width: 10;fill:none;opacity: 0.25;filter:url(#glow1);">
				</path>
				<path d="m665,510
						 l0,-80"
					style="stroke: #20231B; stroke-width: 40;fill:none;opacity: 0.25;filter:url(#glow1);">
				</path>
				<path d="m666,550
						 l0,-30"
					style="stroke: #20231B; stroke-width: 60;fill:none;opacity: 0.5;filter:url(#glow1);">
				</path>
				<path d="m667,550
						 m0,-130
						 l0,-30
						 m0,-10
						 l0,-120"
					style="stroke: #20231B; stroke-width: 25;fill:none;opacity: 0.25;filter:url(#glow1);">
				</path>
				<path d="m660,250
						 l14,0
						 m-1,-6
						 l-12,0
						 m1,-4
						 l10,0
						 m-1,-4
						 l-8,0
						 m4,-3
						 l0,-11"
					style="stroke: #20231B; stroke-width: 2;fill:none;opacity: 0.25;filter:url(#glow1);">
				</path>
				<path d="m719,550
						 l0,-120"
					style="stroke: #20231B; stroke-width: 17;fill:none;opacity: 0.25;filter:url(#glow1);">
				</path>
				<path d="m733,550
						 l0,-145
						 l4,-21
						 l-4,0
						 l0,-27"
					style="stroke: #20231B; stroke-width: 3;fill:none;opacity: 0.5;filter:url(#glow1);">
				</path>
				<path d="m740,550
						 l0,-110"
					style="stroke: #20231B; stroke-width: 10;fill:none;opacity: 0.35;filter:url(#glow1);">
				</path>
				<path d="m754,550
						 l0,-137"
					style="stroke: #20231B; stroke-width: 14;fill:none;opacity: 0.35;filter:url(#glow1);">
				</path>
				<path d="m802,550
						 l0,-138
						 l-4,-6
						 l0,-70
						 l-2,0
						 l0,-25
						 l-2,0
						 l-1,-16
						 l-2,0
						 l-2,-22
						 l-5,-8
						 m-6,8
						 l10,0
						 m-15,22
						 l20,0
						 m-23,18
						 l24,0
						 m0,23
						 l-24,0
						 m-2,31
						 l30,0"
					style="stroke: #20231B; stroke-width: 4;fill:none;opacity: 0.5;filter:url(#glow1);">
				</path>
				<path d="m810,550
						 l0,-137"
					style="stroke: #20231B; stroke-width: 14;fill:none;opacity: 0.45;filter:url(#glow1);">
				</path>
				<path d="m822,550
						 l0,-82"
					style="stroke: #20231B; stroke-width: 10;fill:none;opacity: 0.8;filter:url(#glow1);">
				</path>
				<path d="m835,550
						 l0,-105"
					style="stroke: #20231B; stroke-width: 17;fill:none;opacity: 0.55;filter:url(#glow1);">
				</path>
				<path d="m854,550
						 l0,-135"
					style="stroke: #20231B; stroke-width: 20;fill:none;opacity: 0.35;filter:url(#glow1);">
				</path>
				<path d="m866,550
						 l0,-228
						 l-3,-10
						 l0,-10
						 m-2,-1
						 l25,0
						 m0,5
						 l-25,0"
					style="stroke: #20231B; stroke-width: 5;fill:none;opacity: 0.35;filter:url(#glow1);">
				</path>
				<path d="m892,550
						 l0,-135"
					style="stroke: #20231B; stroke-width: 15;fill:none;opacity: 0.65;filter:url(#glow1);">
				</path>
				<path d="m945,550
						 l0,-205"
					style="stroke: #20231B; stroke-width: 20;fill:none;opacity: 0.5;filter:url(#glow1);">
				</path>
				<path d="m970,550
						 l0,-205
						 m-0,-20
						 l-34,0
						 m9,-30
						 l17,0"
					style="stroke: #20231B; stroke-width: 5;fill:none;opacity: 0.5;filter:url(#glow1);">
				</path>
				<path d="m992,550
						 l0,-65
						 m7,0
						 l0,65"
					style="stroke: #20231B; stroke-width: 7;fill:none;opacity: 0.25;filter:url(#glow1);">
				</path>
				<path d="m1012,550
						 l0,-27"
					style="stroke: #20231B; stroke-width: 11;fill:none;opacity: 0.8;filter:url(#glow1);">
				</path>
				<path d="m1025,550
						 l0,-73"
					style="stroke: #20231B; stroke-width: 15;fill:none;opacity: 0.55;filter:url(#glow1);">
				</path>
				<path d="m1040,550
						 l0,-115"
					style="stroke: #20231B; stroke-width: 14;fill:none;opacity: 0.20;filter:url(#glow1);">
				</path>
				<path d="m1054,550
						 l0,-70"
					style="stroke: #20231B; stroke-width: 14;fill:none;opacity: 0.55;filter:url(#glow1);">
				</path>
				<path d="m1085,550
						 l0,-75"
					style="stroke: #20231B; stroke-width: 15;fill:none;opacity: 0.25;filter:url(#glow1);">
				</path>
				<path d="m1092,463
						 l-32,0
						 m5,-11
						 l22,0
						 m-5,-11
						 l-12,0"
					style="stroke: #20231B; stroke-width: 8;fill:none;opacity: 0.25;filter:url(#glow1);">
				</path>
				<path d="m1101,550
						 l0,-87"
					style="stroke: #20231B; stroke-width: 14;fill:none;opacity: 0.60;filter:url(#glow1);">
				</path>
				<path d="m1126,550
						 l0,-138"
					style="stroke: #20231B; stroke-width: 29;fill:none;opacity: 0.25;filter:url(#glow1);">
				</path>
				<path d="m1148,550
						 l0,-88"
					style="stroke: #20231B; stroke-width: 8;fill:none;opacity: 0.6;filter:url(#glow1);">
				</path>
				<path d="m1156,550
						 l0,-84"
					style="stroke: #20231B; stroke-width: 6;fill:none;opacity: 0.6;filter:url(#glow1);">
				</path>
				<path d="m1177,550
						 l0,-122"
					style="stroke: #20231B; stroke-width: 8;fill:none;opacity: 0.5;filter:url(#glow1);">
				</path>
				<path d="m1186,550
						 l0,-58"
					style="stroke: #20231B; stroke-width: 10;fill:none;opacity: 0.75;filter:url(#glow1);">
				</path>
				<path d="m1200,550
						 l0,-96"
					style="stroke: #20231B; stroke-width: 8;fill:none;opacity: 0.6;filter:url(#glow1);">
				</path>
				<path d="m1223,550
						 l0,-54"
					style="stroke: #20231B; stroke-width: 4;fill:none;opacity: 0.8;filter:url(#glow1);">
				</path>
			</g>
			<g id="smoke" style="opacity:0;">
				<path d="m0,150
						 q50,30 70,140
						 l20,40
						 l50,50
						 l0,100"
					style="stroke: #FFF; stroke-width: 0;fill:#000;opacity: 0.8;filter: url(#glow);">
				</path>
				<path d="m200,250
						 q50,30 70,140
						 l20,40
						 l50,50
						 l0,100"
					style="stroke: #FFF; stroke-width: 0;fill:#000;opacity: 0.60;filter: url(#glow);">
				</path>
				<path d="m450,100
						 q50,30 70,40
						 l20,50
						 q0,200 50,150
						 l0,90"
					style="stroke: #FFF; stroke-width: 0;fill:#000;opacity: 0.30;filter: url(#glow);">
				</path>
				<path d="m550,150
						 q50,30 70,140
						 l20,40
						 l50,50
						 l0,100"
					style="stroke: #FFF; stroke-width: 0;fill:#000;opacity:.75;filter: url(#glow);">
				</path>
				<path d="m800,150
						 q50,30 70,140
						 l20,40
						 l50,50
						 l0,100"
					style="stroke: #FFF; stroke-width: 0;fill:#000;opacity: 0.40;filter: url(#glow);">
				</path>
				<path d="m1000,150
						 q50,30 30,140
						 l20,40
						 l50,50
						 l0,100"
					style="stroke: #FFF; stroke-width: 0;fill:#000;opacity: 0.60;filter: url(#glow);">
				</path>

				<animate id="ani6"
					    attributeName="opacity"
					    attributeType="CSS"
					    to="1"
					    dur="2.5s"
					    begin="ani5.end;"
					    fill="freeze"/>
			</g>

			<animateTransform id="ani1"
			  attributeName="transform" 
			  attributeType="XML"
			  type="translate"
			  to="330,220"
			  dur="3s"
			  begin="5s"
			  fill="freeze"
			  additive="sum"/> 

			<animateTransform id=""
			  attributeName="transform" 
			  attributeType="XML"
			  type="scale"
			  from="1"
			  to="0.6"
			  dur="3s"
			  begin="5s"
			  fill="freeze"
			  additive="sum"/> 

			<animateTransform id=""
			  attributeName="transform" 
			  attributeType="XML"
			  type="scale"
			  from="1"
			  to="1"
			  dur="3s"
			  begin="ani7.end + 15"
			  fill="freeze"
			  additive="sum"/> 

			<animateTransform id=""
			  attributeName="transform" 
			  attributeType="XML"
			  type="translate"
			  from="0,0"
			  to="700,0"
			  dur="2.5s"
			  begin="ani7.end + 15"
			  fill="freeze"
			  additive="sum"/>

		</g>

		<rect x="0" y="550" width="2200" height="500" style="fill:url(#linearGradientSea);">
			<animate id=""
			    attributeName="opacity"
			    attributeType="CSS"
			    to="0"
			    dur="3s"
			    begin="ani6.end"
			    fill="freeze"/>
		</rect>

		<rect x="0" y="550" width="2200" height="500" style="fill:url(#linearGradientSea2);opacity:0;">
			<animate id=""
			    attributeName="opacity"
			    attributeType="CSS"
			    to="1"
			    dur="3s"
			    begin="ani6.end"
			    fill="freeze"/>

			<animate id=""
			    attributeName="opacity"
			    attributeType="CSS"
			    to="0"
			    dur="1.5s"
			    begin="ani8.end+4"
			    fill="freeze"/>
		</rect>

		<rect x="0" y="550" width="2200" height="500" style="fill:url(#linearGradientSea3);opacity:0;">
			<animate id="ani10"
			    attributeName="opacity"
			    attributeType="CSS"
			    to="1"
			    dur="1.5s"
			    begin="ani8.end+4"
			    fill="freeze"/>
		</rect>

		<g id="angStatue" transform="translate(200,0),scale(1)">

			<g id="stick" transform="translate(0,0)" style="opacity:0;">
				<path d="m320,400
						 l65,-250"
					style="stroke: #567674; stroke-width: 5;fill:none;">

					<animate
					    attributeName="d"
					    attributeType="XML"
					    to="m340,530
						 l40,-380"
					    dur="2s"
					    begin="ani7.end + 15"
					    fill="freeze" />
				</path>
				<path d="m388,150
						 q12,-5 15,-25
						 c15,0 25,-20 25,-30
						 c0,-18 -20,-10 -30,0
						 c-25,-10 -35,30 -22,30
						 q-5,25 7,25"
					style="stroke: #567674; stroke-width: 1;fill:#567674;">

					<animate
					    attributeName="d"
					    attributeType="XML"
					    to="m378,150
						 q-6,-10 0,-25
						 c-5,0 -5,-20 5,-35
						 c2,0 10,0 10,5
						 c8,0 6,30 -2,30
						 q-5,25 -12,25"
					    dur="2s"
					    begin="ani7.end + 15"
					    fill="freeze" />

				</path>
				<path d="m384,148
						 q12,-5 15,-25
						 c15,0 25,-20 25,-30
						 c0,-18 -20,-10 -30,0
						 c-25,-10 -35,30 -22,30
						 q-5,25 7,25"
					style="stroke: #405956; stroke-width: 1;fill:#405956;filter:url(#glow1);">

					<animate
					    attributeName="d"
					    attributeType="XML"
					    to="m380,150
						 q-6,-10 0,-25
						 c-5,0 -5,-20 5,-35
						 c0,0 0,0 0,0
						 c0,0 0,0 0,0
						 q0,0 0,0"
					    dur="2s"
					    begin="ani7.end + 15"
					    fill="freeze" />

				</path>


				<animate id="ani5"
					    attributeName="opacity"
					    attributeType="CSS"
					    from="0"
					    to="1"
					    dur="2.5s"
					    begin="ani4.end;"
					    fill="freeze"/>
			</g>

			<g id="ang" style="opacity:0;">
				<path d="m335,510
						 l-10,-18
						 l5,-10
						 l-5,-10
						 c10,-90 10,-70 -30,-120
						 c5,-60 0,-120 -20,-180
						 l0,-6
						 c7,2 7,2 7,-2
						 c0,-10 8,-20 4,-35
						 l2,-2
						 c0,-28 -28,-33 -30,-33
						 c-5,-1 -25,0 -28,20
						 q-2,10 0,20
						 q0,1 4,4
						 l-5,7
						 c-30,-10 -30 60 -35,90
						 l-5,10
						 l-3,15
						 c-20,10 -40,40 -60,45
						 q-5,25 15,50
						 q25,-25 30,-20
						 q5,10 10,6
						 c10,-25 10,-25 20,-35
						 l2,20
						 q-7,10 -8,30
						 q-20,10 -20,15
						 q2,4 8,5
						 c5,4 20,0 25,4
						 l-1,15
						 l-40,130
						 l-5,10
						 q-5,10 -1,15
						 l0,10
						 l55,0
						 l0,-15
						 c0,-4 10,-8 10,-12
						 q0,-3 -2,-8
						 q4,-6 6,-8
						 c3,-5 -3,-15 0,-20
						 q20,-40 35,-95
						 q20,15 20,20
						 c0,5 -10,45 -10,50
						 q0,5 8,10
						 q0,4 -2,10
						 q-2,8 2,25
						 l52,0
						 l0,-8"
					style="stroke: #567674; stroke-width: 0;fill: url(#linearGradientStatue);">

					  <animate
					    attributeName="d"
					    attributeType="XML"
					    to="m335,510
						 l-5,-12
						 l5,-7
						 l-5,-7
						 c10,-120 10,-70 -60,-120
						 c0,-130 1,-120 -25,-120
						 l0,-5
						 c0,2 2,2 10,0
						 c3,-20 3,-20 0,-25
						 l4,-5
						 c0,-20 -10,-25 -25,-25
						 c-5,-1 -20,0 -23,18
						 q-2,10 3,20
						 q0,1 5,5
						 l0,12
						 c-40,0 -30 -10 -45,50
						 l-5,10
						 l-5,10
						 c-20,10 -40,40 -40,45
						 q-5,25 15,30
						 q5,15 0,20
						 q-5,10 0,26
						 
						 c10,-25 10,-25 20,-15
						 l2,1
						 q-7,10 -18,20
						 q20,10 10,15
						 q2,4 8,-5
						 c5,4 20,0 25,-10
						 
						 l-1,20
						 l-20,70
						 l-5,5
						 q-5,7 -1,10
						 l-5,10
						 l45,0
						 l0,-10
						 c0,-4 10,-8 10,-8
						 q0,-3 -2,-5
						 q4,-4 6,-4
						 c3,-5 -3,-15 0,-10
						 q12,-40 35,-105
						 q20,10 50,20
						 c-8,25 8,25 -8,55
						 q0,5 3,10
						 q0,4 -5,8
						 q-2,8 2,25
						 l42,0
						 l0,-8"
					    dur="2s"
					    begin="ani7.end + 15"
					    fill="freeze" />
				</path>

				<path d="m288,235
						 q10,0 18,8
						 l20,0
						 q30,-3 30,3
						 l5,5
						 q5,0 12,-4
						 q0,-7 3,-14
						 l-5,-10
						 l-7,-2
						 l-10,2
						 q-38,-10 -27,-7
						 l-8,0
						 q-22,-12 -38,-20"
					style="stroke: #567674; stroke-width: 1;fill: #567674;">

					<animate
					    attributeName="d"
					    attributeType="XML"
					    to="m270,275
						 q10,-5 50,0
						 l15,-1
						 q10,-4 30,-3
						 l10,1
						 q2,0 3,-2
						 q5,-12 -3,-20
						 l0,0
						 l-14,0
						 l-10,4
						 q-30,3 -42,-2
						 l0,0
						 q-32,-6 -45,-5"
					    dur="2s"
					    begin="ani7.end + 15"
					    fill="freeze" />
				</path>

				<g id="statueShadows1">
					<path d="m333,512
							 l-10,-18
							 l5,-10
							 l-5,-10
							 c10,-90 10,-70 -30,-120
							 c5,-60 0,-120 -20,-180
							 l0,-6
							 c7,2 7,2 7,-2
							 c0,-10 8,-20 4,-35
							 l2,-2
							 c0,-28 -28,-33 -30,-33"
						style="stroke: #7EA9A6; stroke-width: 5;fill: none;filter:url(#glow2);">
					</path>

					<path d="m268,122
							 q0,-8 -6,-8
							 q-3,10 4,15"
						style="stroke: #7EA9A6; stroke-width: 1;fill: none;filter:url(#glow1);">
					</path>
					<path d="m260,117
							 q-3,10 6,15"
						style="stroke: #233937; stroke-width: 1;fill: none;filter:url(#glow1);">
					</path>

					<path d="m234,140
							 q0,-8 16,-8
							 c5,-5 10,15 15,10
							 l12,3
							 q0,15 1,18"
						style="stroke: #7EA9A6; stroke-width: 1;fill: none;filter:url(#glow1);">
					</path>
					<path d="m230,143
							 q25,-20 46,25"
						style="stroke: #233937; stroke-width: 6;fill: none;filter:url(#glow);">
					</path><path d="m235,123
							 q25,-20 46,25"
						style="stroke: #233937; stroke-width: 6;fill: none;filter:url(#glow);">
					</path>

					<path d="m234,155
							 q16,0 40,35
							 m0,10
							 q-20,-20 -30,-20
							 m5,25
							 q15,0 30,5
							 m0,5
							 q-22,20 -45,20"
						style="stroke: #7EA9A6; stroke-width: 2;fill: none;filter:url(#glow2);">
					</path>

					<path d="m202,250
							 q30,0 75,-25
							 l10,60
							 q-15,80 -50,90
							 l-55,0
							 q-10,-10 10,-10
							 l10,-10z"
						style="stroke: #405956; stroke-width: 1;fill: #405956;filter:url(#glow);">
					</path><path d="m202,250
							 q30,0 75,-25
							 l10,60
							 q-15,80 -50,90
							 l-55,0
							 q-10,-10 10,-10
							 l10,-10z"
						style="stroke: #405956; stroke-width: 1;fill: #405956;filter:url(#glow);">
					</path>

					<path d="m270,400
							 l20,-30
							 l30,30
							 l-5,50
							 q-20,20 -40,20
							 l12,-50
							 m0,50
							 l38,10
							 l0,30
							 l-45,10
							 m-5,-50"
						style="stroke: #405956; stroke-width: 1;fill: #405956;filter:url(#glow);">
					</path>

					<path d="m250,410
							 q-30,60 -50,60
							 m20,10
							 q-20,20 -40,20
							 m-5,30
							 l50,-15
							 m0,15
							 l-50,10"
						style="stroke: #233937; stroke-width: 3;fill: none;filter:url(#glow2);">
					</path>

					<path d="m230,250
							 l2,30
							 q0,-10 -5,-30
							 m2,30
							 c4,5 0,25 4,40
							 m-2,6
							 c0,8 10,25 6,30"
						style="stroke: #7EA9A6; stroke-width: 1;fill: none;filter:url(#glow1);">
					</path>
					<path d="m202,250
							 q20,0 60,-18
							 q-40,22 -60,22
							 l2,30
							 q0,-10 -5,-30
							 m2,30
							 c4,5 0,25 4,40
							 m-2,4
							 l25,-5
							 m0,2
							 l-25,5
							 q-5,25 0,30
							 q15,10 30,8"
						style="stroke: #233937; stroke-width: 0.5;fill: none;filter:url(#glow1);">
					</path>

					<path d="m295,280
							 q-16,40 -60,55
							 m0,20
							 q45,-30 60,-65
							 m0,20
							 q-30,60 -60,70
							 m60,-70
							 q-35,120 -75,200"
						style="stroke: #7EA9A6; stroke-width: 3;fill: none;filter:url(#glow2);">
					</path>

					<path d="m288,231
							 q10,0 18,8
							 l20,0
							 q30,-3 30,3
							 l5,5"
						style="stroke: #405956; stroke-width: 6;fill: none;filter:url(#glow2);">
					</path>
					<path d="m356,226
							 q-38,-10 -27,-7
							 l-8,0
							 q-22,-12 -38,-20"
						style="stroke: #7EA9A6; stroke-width: 4;fill: none;filter: url(#glow2);">
					</path>

					<animate
					    attributeName="opacity"
					    attributeType="CSS"
					    to="0"
					    dur="1.5s"
					    begin="ani7.end + 15"
					    fill="freeze" />
				</g>

				<g id="statueShadows2" style="opacity:0;">
					<path d="m270,277
							 q10,-5 50,0
							 l15,-1
							 q10,-4 30,-3
							 l10,1
							 q2,0 3,-2
							 q5,-12 -3,-10
							 l0,0
							 l-14,0
							 l-10,4
							 q-30,3 -42,-2
							 l0,0
							 q-32,-6 -45,-5"
						style="stroke: #7EA9A6;stroke-width: 2;fill: #567674; filter: url(#glow2);">
					</path>

					<path d="m270,262
							 q10,-5 50,0
							 l15,-1
							 q10,-4 20,-3
							 l10,1
							 q2,0 3,-2
							 q5,-12 -3,-5
							 l0,0
							 l-14,0
							 l-10,2
							 q-30,3 -32,-2
							 l0,0
							 q-32,-6 -45,-5"
						style="stroke: #405956;stroke-width: 3;fill: #405956; filter: url(#glow2);">
					</path>
					
					<path d="m215,220
							 c-20,-50 50,-40 40,-20
							 l2,4
							 l-4,32
							 l-25,0"
						style="stroke: #405956;stroke-width: 3;fill: #405956; filter: none;">
					</path>

					<path d="m259,208
							 q-5,-5 -14,-2
							 q6,7 12,7"
						style="stroke: #7EA9A6;stroke-width: 3;fill: #7EA9A6; filter: url(#glow1); opacity: 0.6;">
					</path>

					<path d="m255,225
							 q-10,-9 -28,-7
							 q-4,5 5,12
							 l22,6"
						style="stroke: #7EA9A6;stroke-width: 3;fill: #7EA9A6; filter: url(#glow); opacity: 0.6">
					</path>

					<path d="m251,208
							 q-2,3 2,6"
						style="stroke: #405956;stroke-width: 3;fill: none; filter: url(#glow1);">
					</path>

					<path d="m255,213
							 l5,10
							 l-5,1"
						style="stroke: #405956;stroke-width: 3;fill: none; filter: url(#glow1);">
					</path>
					<path d="m260,223
							 l-5,1"
						style="stroke: #7EA9A6;stroke-width: 3;fill: none; filter: url(#glow1);">
					</path>
					<path d="m260,223
							 l-5,1"
						style="stroke: #7EA9A6;stroke-width: 3;fill: none; filter: url(#glow1);">
					</path>

					<path d="m225,218
							 c-15,-12 -5,-18 -2,-10"
						style="stroke: #7EA9A6;stroke-width: 2;fill:none; filter: url(#glow1);">
					</path><path d="m227,218
							 c-15,-12 -5,-18 -2,-10"
						style="stroke: #405956;stroke-width: 2;fill:none; filter: url(#glow1);">
					</path>
					
					<path d="m215,238
							 l-5,-10
							 c7,-5 20,7 25,1
							 l2,15"
						style="stroke: #233937;stroke-width: 3;fill: none; filter: url(#glow1);">
					</path>
					<path d="m210,230
							 c7,-5 20,7 25,1
							 l2,15
							 q-20,-10 -30,-8
							 l8,-2z"
						style="stroke: #567674;stroke-width: 2;fill: #567674; filter: url(#glow1);">
					</path><path d="m239,245
							 q-20,-10 -30,-8
							 l8,-2z"
						style="stroke: #233937;stroke-width: 4;fill: none; filter: url(#glow2);">
					</path>

					<path d="m190,240
							 q22,-4 45,8
							 q12,-4 35,-2
							 l0,12
							 q-52,35 -105,50
							 l12,-20
							 q0,-30 12,-48"
						style="stroke: #233937;stroke-width: 2;fill: #233937; filter: url(#glow1);opacity:0.3">
					</path>

					<path d="m270,365
							 l60,33
							 l0,50
							 l-35,30
							 l5,-50"
						style="stroke: #233937;stroke-width: 4;fill: #233937; filter: url(#glow2);opacity:0.4">
					</path>

					<!-- folds -->

					<path d="m335,488
							 q-10,20 -40,30"
						style="stroke: #233937;stroke-width: 0;fill:#233937;filter: url(#glow1);">
					</path><path d="m330,478
							 q-10,0 -45,30"
						style="stroke: #233937;stroke-width: 0;fill:#233937;filter: url(#glow1);">
					</path>

					<path d="m205,438
							 q0,20 -30,70"
						style="stroke: #233937;stroke-width: 0;fill:#233937;filter: url(#glow1);">
					</path><path d="m200,478
							 q10,-10 -25,50"
						style="stroke: #233937;stroke-width: 0;fill:#233937;filter: url(#glow1);">
					</path>

					<path d="m300,388
							 q-10,0 -45,20"
						style="stroke: #233937;stroke-width: 0;fill:#7EA9A6;filter: url(#glow1);">
					</path><path d="m330,398
							 q-10,0 -45,20"
						style="stroke: #233937;stroke-width: 0;fill:#567674;filter: url(#glow1);">
					</path>

					<path d="m265,250
							 q-40,30 -60,30"
						style="stroke: #233937;stroke-width: 0;fill:#233937;filter: url(#glow1);">
					</path><path d="m265,253
							 q-40,30 -60,30"
						style="stroke: #233937;stroke-width: 0;fill:#567674;filter: url(#glow1);">
					</path>

					<path d="m240,310
							 q-10,12 -30,20"
						style="stroke: #567674;stroke-width: 3;fill:#233937;filter: url(#glow1);">
					</path><path d="m270,320
							 q-10,10 -40,20"
						style="stroke: #567674;stroke-width: 3;fill:#233937;filter: url(#glow1);">
					</path>

					<path d="m235,250
							 q-40,10 -60,30"
						style="stroke: #233937;stroke-width: 0;fill:#233937;filter: url(#glow1);">
					</path><path d="m235,254
							 q-40,10 -60,30"
						style="stroke: #233937;stroke-width: 0;fill:#567674;filter: url(#glow1);">
					</path>

					<path d="m305,253
							 q-40,10 -60,30"
						style="stroke: #233937;stroke-width: 0;fill:#233937;filter: url(#glow1);">
					</path><path d="m310,252
							 q-40,10 -60,30"
						style="stroke: #233937;stroke-width: 0;fill:#567674;filter: url(#glow1);">
					</path>

					<path d="m235,340
							 q-40,40 -90,70"
						style="stroke: #233937;stroke-width: 0;fill:#233937;filter: url(#glow1);">
					</path><path d="m245,338
							 q-40,40 -90,70"
						style="stroke: #233937;stroke-width: 0;fill:#567674;filter: url(#glow1);">
					</path><path d="m245,341
							 q-40,40 -90,70"
						style="stroke: #233937;stroke-width: 0;fill:#567674;filter: url(#glow1);">
					</path><path d="m245,361
							 q-40,40 -90,80"
						style="stroke: #233937;stroke-width: 0;fill:#567674;filter: url(#glow1);">
					</path><path d="m245,354
							 q-40,40 -90,70
							 l0,15"
						style="stroke: #233937;stroke-width: 0;fill:#233937;filter: url(#glow2);">
					</path><path d="m255,365
							 q-40,40 -90,70
							 l10,10"
						style="stroke: #233937;stroke-width: 1;fill:#233937;filter: url(#glow2);">
					</path>

	<!-- padar -->
					<path d="m200,300
							 q8,30 -5,70
							 l-50,30
							 l-6,-16
							 c-20,5 -25,-30 -5,-50
							 q15,-20 30,-25"
						style="stroke: #233937;stroke-width: 1;fill:#567674;filter: url(#glow1);">
					</path>
					<path d="m125,350
							 q-8,30 3,30
							 c10,10 60,-50 70,-50
							 c-20,10 -50 0 -70,20"
						style="stroke: #405956;stroke-width: 1;fill:#405956;filter: url(#glow1);">
					</path>
					<path d="m140,392
							 l5,10
							 q30,-25 50,-35
							 l0,-10
							 q-40,10 -50,35"
						style="stroke: #405956;stroke-width: 1;fill:#405956;filter: url(#glow1);">
					</path>
					<path d="m155,312
							 l-8,10
							 l50,-10
							 l0,-10"
						style="stroke: #405956;stroke-width: 1;fill:#405956;filter: url(#glow1);">
					</path>


	<!-- Hand -->
					<path d="m175,302
							 c-5,30 -5,30 3,75
							 l3,-3
							 q-8,-47 0,-74"
						style="stroke: #233937;stroke-width: 2;fill:#233937; filter: url(#glow1);">
					</path><path d="m189,302
							 c-5,30 -5,30 3,75
							 l3,-3
							 q-8,-47 0,-74"
						style="stroke: #233937;stroke-width: 2;fill:#233937; filter: url(#glow1);">
					</path><path d="m175,302
							 c-5,30 -5,30 3,75
							 l7,-3
							 q-8,-47 0,-74"
						style="stroke: #233937;stroke-width: 2;fill:#233937; filter: url(#glow2);">
					</path>
					<path d="m185,302
							 c-5,30 -5,30 3,75
							 l5,-3
							 q-8,-47 0,-74"
						style="stroke: #7EA9A6;stroke-width: 2;fill:#405956; filter: url(#glow2);">
					</path>

					<animate id="ani8"
					    attributeName="opacity"
					    attributeType="CSS"
					    to="1"
					    dur="1.5s"
					    begin="ani7.end+16.5s"
					    fill="freeze" />
				</g>

				<animate id="ani4"
					    attributeName="opacity"
					    attributeType="CSS"
					    to="1"
					    dur="2.5s"
					    begin="ani3.end;"
					    fill="freeze"/>
			</g>


			<g id="lotus" style="opacity:0;">
				<path d="m360,555
						 q-5,-15 -20,-20
						 l0,-7
						 l-7,0
						 q22,-5 30,-25
						 q-10,12 -25,10
						 q5,-10 5,-20
						 q-5,10 -20,20
						 q-5,-10 -20,-20
						 q-15,10 -20,20
						 q-15,-10 -20,-20
						 q-3,10 5,20
						 q-15,-3 -25,-20
						 q5,25 25,30
						 l-7,0
						 l0,7
						 q-15,5 -20,20z"
					style="stroke: #405956; stroke-width: 1;fill:#405956;">
				</path>
				<path d="m362,555
						 q-5,-15 -20,-20
						 l-12,0
						 l20,20"
					style="stroke: #7EA9A6; stroke-width: 1;fill: #7EA9A6;filter: url(#glow1);">
				</path>
				<path d="m338,527
						 q15,-5 25,-22
						 l0,-1
						 q-12,17 -25,22
						 l0,9
						 l3,0
						 l0,-9"
					style="stroke: #7EA9A6; stroke-width: 1;fill: #7EA9A6;filter: url(#glow1);">
				</path>
				<path d="m342,527
						 q-20,1 -40,0
						 l0,6
						 q20,1 40,1"
					style="stroke: #567674; stroke-width: 1;fill: #567674;filter: url(#glow1);">
				</path>

				<animate id="ani3"
					    attributeName="opacity"
					    attributeType="CSS"
					    to="1"
					    dur="2.5s"
					    begin="ani2.end;"
					    fill="freeze" />
			</g>
			<g id="pedestal" transform="translate(-20,0)" style="opacity:0;">
				<path d="m150,600
						 l0,-30
						 q-8,-4 -8,-7
						 q5,2 10,2
						 l10,0
						 l5,-5
						 q-8,-3 -8,-5
						 q5,2 11,2
						 l2,-1
						 q-4,-3 -4,-5
						 q5,3 11,3
						 l70,-3
						 q-3,-4 -1,-8
						 q2,5 10,8
						 l80,3
						 q8,-3 8,-7
						 q0,5 5,5
						 l25,3
						 q8,-3 8,-6
						 q-2,9 -10,10
						 l15,8
						 q6,0 6,-1
						 q0,2 -6,4
						 l0,33z"
					style="stroke: #888; stroke-width: 1;fill:url(#linearGradientPedestal);">
				</path>
				<path d="m174,600
						 l0,-35"
					style="stroke: #555959; stroke-width: 8;fill:#353843;">
				</path>
				<path d="m254,601
						 l0,-40"
					style="stroke: #656969; stroke-width: 8;fill:#353843;">
				</path>
				<path d="m344,601
						 l0,-38"
					style="stroke: #555959; stroke-width: 10;fill:#353843;">
				</path>
				<path d="m378,602
						 l0,-35"
					style="stroke: #555; stroke-width: 8;fill:#353843;">
				</path>
				<path d="m170,560
						 l82,-3"
					style="stroke: #656969; stroke-width: 6;fill:#353843;">
				</path>
				<path d="m252,557
						 l95,3"
					style="stroke: #959999; stroke-width: 6;fill:#353843;">
				</path>
				<path d="m346,560
						 l30,3"
					style="stroke: #B5B9B9; stroke-width: 6;fill:#353843;">
				</path>
				<path d="m375,563
						 l12,6"
					style="stroke: #D5D9D9; stroke-width: 5;fill:#353843;">
				</path>

				<animate id="ani2"
					    attributeName="opacity"
					    attributeType="CSS"
					    to="1"
					    dur="2.5s"
					    begin="ani1.end+5;"
					    fill="freeze" />
			</g>
			<g id="rock" transform="scale(2)">
				<path d="m0,680
						 l250,0
						 q120,0 250,-10
						 q-20,-10 -40,-20
						 q-30,-15 -5,-25
						 c20,-20 -270,-40 -350,-25
						 q-70,30 -110,80"
					style="stroke: #BBB; stroke-width: 0;fill:url(#linearGradientRock2);">
				</path>
				
				<path d="m50,640
						 q200,10 420,-15
						 q-130,-30 -360,-15
						 q-40,10 -60,30"
					style="stroke: #FFF; stroke-width: 0;fill:url(#linearGradientSnow);filter:url(#glow);opacity:0.5;">

					<!-- <animate id=""
					    attributeName="opacity"
					    attributeType="CSS"
					    to="0"
					    dur="1.5s"
					    begin="ani8.end"
					    fill="freeze"/> -->
				</path>

				<animateTransform id=""
				  attributeName="transform" 
				  attributeType="XML"
				  type="scale"
				  from="1"
				  to="0.5"
				  dur="3s"
				  begin="5s"
				  fill="freeze"
				  additive="sum"/>
			</g>

			<animateTransform id="ani9"
			  attributeName="transform" 
			  attributeType="XML"
			  type="translate"
			  from="0 0"
			  to="0 15"
			  dur="3s"
			  begin="ani8.end+4"
			  fill="freeze"
			  additive="sum"/>

			<animateTransform id=""
			  attributeName="transform" 
			  attributeType="XML"
			  type="scale"
			  from="1"
			  to="0.8"
			  dur="3s"
			  begin="ani8.end+4"
			  fill="freeze"
			  additive="sum"/>
		</g>


		<g id="rock2" transform="translate(0,200)">
			<path d="m10,720
					 q-5,-20 0,-40
					 q0,-20 30,-30
					 q80,0 100,-20
					 c10,0 45,-40 50,-35
					 c10,-10 100,-10 100,0
					 q50,20 50,80
					 q0,30 10,30
					 q10,0 0,20"
				style="stroke: #BBB; stroke-width: 0;fill:url(#linearGradientRock2);">
			</path>

			<animateTransform id="ani11"
			  attributeName="transform" 
			  attributeType="XML"
			  type="translate"
			  from="0 0"
			  to="0 -200"
			  dur="3s"
			  begin="ani8.end+4"
			  fill="freeze"
			  additive="sum"/>

		</g>

<!-- Korra -->
		<g id="korra" transform="translate(0,0)" style="opacity:0;">
			<path d="m50,650
					 q0,-20 5,-30
					 q-5,-18 0,-35
					 q-5,-5 -3,-10

					 l-8,-8
					 c-5,-5 10,-40 10,-50
					 q5,-50 5,-60
					 q0,-80 15,-100
					 q0,-10 5,-10
					 l2,0
					 
					 c0,-5 8,-18 10,-25
					 c-12,-30 -20,-90 -5,-80
					 
					 q-4,-5 -8,20
					 q0,30 -10,60
					 c5,10 0,90 5,80
					 l-1,3
					 c0,5 10,10 10,15
					 q0,3 1,8
					 q-1,3 -1,7
					 q-2,4 -6,1
					 q-2,3 -6,-2
					 q-2,3 -7,-2
					 q-2,3 -6,-2
					 q-4,-10 -2,-27
					 q-2,-2 0,-7
					 q-9,-55 -8,-80
					 q-1,-3 1,-6
					 q-1,-33 4,-65
					 c3,-25 3,-29 28,-32
					 l10,-5

					 l2,-10
					 l4,1
					 l0,-8
					 c-20,-10 -10,-65 35,-45
					 q8,8 5,20
					 c-1,4 2,8 1,14
					 c-1,5 -5,10 -6,17
					 q-1,3 -3,2
					 q-3,6 -4,12
					 l2,-6
					 l4,2
					 l-2,8
					 q6,1 12,4

					 c10,5 10,5 10,22
					 l3,5
					 c12,10 15,20 2,35
					 l1,-1
					 l15,80
					 l-15,-80
					 c4,25 -3,35 -3,45
					 q4,15 4,30

					 q45,20 90,55
					 q10,8 5,20
					 q-4,20 0,50
					 q5,10 -1,10
					 c-3,2 -8,18 -3,20
					 l3,5
					 q0,5 -10,12
					 q3,10 -3,25
					 q0,10 5,10
					 q3,0 0,10
					 q15,15 30,15
					 q10,2 0,10
					 l-3,2
					 q-30,2 -72,0
					 q-3,0 -2,-5
					 q-3,-8 -2,-15
					 l-2,-3
					 l4,-6
					 q-2,-20 0,-40
					 q-1,0 -1,-10
					 l-5,-8
					 q3,-10 10,-12
					 q-10,-20 -5,-50
					 l-5,-5
					 q-20,-5 -55,-20
					 c-10,60 -30,110 -30,120
					 q0,15 5,30

					 q0,10 -10,20
					 q0,15 -5,30
					 l0,10
					 l5,5
					 q15,0 20,10
					 q0,3 -3,5
					 q-10,3 -20,2
					 q-42,0 -47,-7"

				style="stroke: #222; stroke-width: 1.5;fill:none;">
			</path>


			<!-- shoe 1 -->
			<path d="m50,650
					 q0,-20 5,-30
					 q-5,-18 0,-35
					 q-5,-5 -3,-10
					 l58,0

					 q0,10 -10,20
					 q0,15 -5,30
					 l0,10
					 l5,5
					 q15,0 20,10
					 q0,3 -3,5
					 q-10,3 -20,2
					 q-42,0 -47,-7"
				style="stroke: #222; stroke-width: 1;fill:#452E20;">
			</path>
			<path d="m51,650
					 q0,-20 5,-30
					 q-5,-18 0,-35
					 l15,15
					 l5,20
					 l-24,10
					 l0,5
					 l10,5
					 l5,5
					 q13,0 25,12
					 q-12,0 -40,-7"
				style="stroke: #222; stroke-width: 0;fill:#E9C385;opacity: 0.7;filter:url(#glow1);">
			</path>
			<path d="m52,631
					 l10,0
					 q29,-20 33,0
					 l0,5
					 q-6,-20 -33,0
					 l-12,0"
				style="stroke: #222; stroke-width: 2;fill:#261C14;">
			</path><path d="m82,640
					 q10,-4 30,2"
				style="stroke: #222; stroke-width: 2;fill:#261C14;">
			</path>
			<path d="m52,575
					 q20,0 30,10
					 q15,0 29,-10
					 q0,18 -18,20
					 l-2,15
					 l-5,5
					 l-8,-6
					 l-2,-15
					 q-10,0 -21,-8
					 q-5,-5 -3,-10"
				style="stroke: #222; stroke-width: 1.5;fill:#907962;">
			</path>

			<!-- legs -->

			<path d="m52,575
					 l-8,-8
					 c-5,-5 10,-40 10,-50
					 q5,-50 5,-60
					 q0,-80 15,-100
					 q0,-10 5,-10
					 l2,0
					 l77,8

					 q45,20 90,55
					 q10,8 5,20
					 q-4,20 0,50
					 q5,10 -1,10
					 c-3,2 -8,18 -3,20
					 l3,5
					 q0,5 -10,12

					 q3,10 -3,25
					 q0,10 5,10
					 q3,0 0,10
					 q15,15 30,15
					 q10,2 0,10
					 l-3,2
					 q-30,2 -73,0
					 q-3,0 -2,-5
					 q-3,-8 -2,-15
					 l-2,-3
					 l4,-6
					 q-2,-20 0,-40
					 q-1,0 -1,-10

					 l-5,-8
					 q3,-10 10,-12
					 q-10,-20 -5,-50
					 l-5,-5
					 q-20,-5 -55,-20
					 c-10,60 -30,110 -30,120
					 q0,15 5,30

					 q-15,10 -29,10
					 q-10,-10 -30,-10"
				style="stroke: #222; stroke-width:1.5;fill:#43464B;">
			</path>
			<path d="m45,567
					 c-5,-5 10,-40 10,-50
					 q5,-50 5,-60
					 q0,-80 15,-100
					 q0,-10 5,-10
					 l2,0
					 l7,10
					 q-15,20 -15,100
					 l-5,40
					 q20,-15 30,-50
					 q-10,75 -35,110
					 c18,3 18,0 35,-10
					 l-10,15
					 l-15,12
					 c-16,-15 -16,-15 -31,-10"
				style="stroke: #222; stroke-width: 0;fill:#E9C385;">
			</path>
			<path d="m191,510
					 q5,-8 10,-8
					 l15,5
					 q-10,-25 -20,-25
					 q-5,-10 -1,-15
					 c20,10 20,10 40,50
					 q-30,10 -40,0"
				style="stroke: #222; stroke-width:0;fill:#E9C385;opacity:0.8;">
			</path>


			<!-- shoe 2 -->
			<path d="m242,527
					 q3,10 -3,25
					 q0,10 5,10
					 q3,0 0,10
					 q15,15 30,15
					 q10,2 0,10
					 l-3,2
					 q-30,2 -73,0
					 q-3,0 -2,-5
					 q-3,-8 -2,-15
					 l-2,-3
					 l4,-6
					 q-2,-20 0,-40
					 q35,10 45,-3"
				style="stroke: #222; stroke-width: 1;fill:#452E20;">
			</path>
			<path d="m199,599
					 q-3,0 -2,-5
					 q-3,-8 -2,-15
					 l-2,-3
					 l4,-6
					 q-2,-20 0,-30
					 l20,5
					 q0,20 5,25
					 l-10,10
					 l-17,-2
					 l0,6
					 l20,5
					 l10,-4
					 l25,10
					 l20,3
					 q-70,-4 -75,-2"
				style="stroke: #222; stroke-width: 0;fill:#E9C385;opacity: 0.8;filter:url(#glow1);">
			</path>
			<path d="m193,579
					 l20,3
					 c5,2 29,-15 33,-10
					 c-5,0 -30,18 -35,15
					 l-18,-3
					 l0,-5"
				style="stroke: #222; stroke-width: 1.5;fill:#261C14;">
			</path><path d="m248,587
					 q10,-4 20,-1"
				style="stroke: #261C14; stroke-width: 2;fill:none;">
			</path>
			<path d="m195,530
					 q30,10 47,-3
					 q3,10 -1,20
					 l0,5
					 l-2,4
					 l-6,-5
					 q-3,-5 -2,-10
					 q-18,4 -36,-4
					 q0,-2 1,-7"
				style="stroke: #222; stroke-width: 1.5;fill:#907962;">
			</path> 


			<!-- top -->
			<path d="m81,346
					 c0,-5 8,-18 10,-25
					 c-11,-30 -18,-60 -12,-68
					 c18,-10 22,-20 11,-44
					 l2,-10
					 l4,1

					 q10,5 15,5
					 c1,0 1,0 2,2
					 l1,10
					 q20,30 10,1
					 l2,-12
					 l4,1

					 l-2,8
					 q6,1 6,2
					 c4,1 10,22 16,24
					 l3,5
					 c12,10 15,20 2,35
					 l1,-1
					 l15,80
					 l-15,-80
					 c4,25 -3,35 -3,45
					 q4,15 4,30"
				style="stroke: #222; stroke-width: 1.5;fill:#708090;opacity:1;">
			</path>
			<path d="m82,346
					 c0,-5 8,-18 10,-25
					 c-11,-30 -18,-60 -12,-68
					 l10,10
					 q4,20 12,40
					 l2,15
					 c0,10 -12,20 -10,30"
				style="stroke: #222; stroke-width:0;fill:#E7C2AA;">
			</path>
			<path d="m80,253
					 c18,-10 22,-20 11,-44
					 l0,-2
					 c20,10 22,42 -13,52"
				style="stroke: #222; stroke-width:0.5;fill:#F5DEB3;opacity:0.7;">
			</path>
			<path d="m92,201
					 q10,5 20,6
					 l1,10
					 q22,33 12,1
					 l2,-12"
				style="stroke: #F5DEB3; stroke-width:2;fill:none;opacity:0.5;">
			</path>
			<path d="m90,320
					 q4,5 8,5"
				style="stroke: #222; stroke-width:1;fill:none;opacity:1;">
			</path><path d="m105,275
					 q12,8 25,5"
				style="stroke: #222; stroke-width:1;fill:none;opacity:1;">
			</path>

			<!-- shawl -->
			<path d="m80,345
					 q20,-2 60,10
					 c-20,5 -30,90 -90,95
					 q0,-45 22,-90
					 q0,-20 10,-15"
				style="stroke: #222; stroke-width:1.5;fill:#452E20;opacity:1;">
			</path>
			<path d="m51,451
					 q0,-45 22,-90
					 q0,-20 10,-15
					 l5,0
					 q-4,0 -10,18
					 q-19,45 -23,84
					 l-5,2"
				style="stroke: #222; stroke-width:0;fill:#E1AB6A;opacity:1;">
			</path>
			<path d="m140,355
					 c-20,5 -30,90 -90,95
					 q-5,5 -5,10
					 l4,-3
					 q-4,0 -12,16
					 q8,-6 15,-8
					 l0,-2
					 l-1,8
					 q10,-3 20,-12
					 l5,-5
					 l-5,5
					 q10,-4 15,-10
					 l8,-10
					 l-4,5
					 q10,0 20,-15
					 l3,-5
					 l-3,5
					 q15,-5 20,-32
					 l3,-10
					 l0,5
					 q-2,-10 0,-20
					 q8,-17 12,-17
					 m10,1
					 q35,30 70,40
					 q20,5 20,10
					 l0,-5
					 l-5,-5
					 l5,3
					 q-10,-12 -20,-15
					 l-10,-2
					 l10,2
					 q-15,-10 -30,-10
					 c-5,0 -10,-8 -37,-20"
				style="stroke: #222; stroke-width:1.5;fill:#C0C0C0;opacity:1;">
			</path>
			<path d="m51,450
					 q-5,5 -5,9
					 l4,-3
					 q-4,0 -12,16
					 q8,-6 15,-8
					 l0,-2
					 l0,5
					 q10,-5 20,-22
					 q-10,2 -20,12
					 l2,-7"
				style="stroke: #222; stroke-width:0;fill:#FFF;opacity:1;">
			</path>
			<path d="m145,355
					 l12,2
					 l4,4
					 l-5,0
					 q0,40 -10,80
					 q-5,0 -10,-10
					 l17,-70"
				style="stroke: #222; stroke-width:1.5;fill:#5F5F5F;">
			</path>
			<path d="m154,361
					 l-2,-1
					 c-10,20 -10,20 0,80
					 q-9 -10 -18,0
					 c0,-60 0,-60 15,-80
					 l-8,-2
					 l2,-4"
				style="stroke: #222; stroke-width:1.5;fill:#5F5F5F;">
			</path>
			<path d="m154,365
					 l2,-9
					 l-5,-2
					 q-10,6 0,12
					 l2,0
					 q-3,-5 0,-12"
				style="stroke: #222; stroke-width:1.5;fill:#5F5F5F;">
			</path>

			<!-- hands -->
			<path d="m86,242
					 q-4,-5 -8,20
					 q0,30 -10,60
					 c5,10 0,90 5,80
					 l-1,3
					 c0,5 10,10 10,15
					 q0,3 1,8
					 q-1,3 -1,7
					 q-2,4 -6,1
					 q-2,3 -6,-2
					 q-2,3 -7,-2
					 q-2,3 -6,-2
					 q-4,-10 -2,-27
					 q-2,-2 0,-7
					 q-9,-55 -8,-80
					 q-1,-3 1,-6
					 q-1,-33 4,-65
					 c3,-25 3,-29 28,-32
					 l10,-5
					 q20,30 -9,44
					 q0,-10 5,-10
					 l2,1
					 l-8,-4"
				style="stroke: #222; stroke-width:1.5;fill:#87715A;">
			</path>
			<path d="m90,213
					 l-10,5
					 c-20,10 -20,5 -23,32
					 q-5,33 -1,65
					 l-5,-5
					 q-2,40 8,80
					 q0,20 4,42
					 q-3,2 -5,-1

					 q-4,-10 -2,-27
					 q-2,-2 0,-7
					 q-9,-55 -8,-80
					 q-1,-3 1,-6
					 q-1,-33 4,-65
					 c3,-25 3,-29 28,-32
					 l10,-5"
				style="stroke: #222; stroke-width:0;fill:#F5DEB3;">
			</path>
			<path d="m68,333
					 c5,10 0,90 5,60
					 q-12,-6 -18,1
					 q-2,-2 0,-7
					 q-9,-35 -8,-55
					 q11,-6 22,0"
				style="stroke: #291914; stroke-width:1.5;fill:#291914;">
			</path>
			<path d="m58,392
					 l-3,0
					 q-2,-2 -1,-5
					 q-8,-35 -7,-55
					 q11,-6 5,0"
				style="stroke: #222; stroke-width:1.5;fill:#6A4B28;">
			</path>
			<path d="m80,255
					 q-2,30 -8,50
					 q-13,-6 -24,-3
					 q0,-26 3,-50
					 q15,-2 28,4"
				style="stroke: #291914; stroke-width:1.5;fill:#CCC;opacity:0.8;">
			</path><path d="m80,258
					 l-10,46
					 l0,-50
					 l-12,46
					 l0,-47
					 l-10,48
					 q0,-26 3,-48
					 q15,-2 28,4"
				style="stroke: #291914; stroke-width:0;fill:#535350;opacity:0.8;">
			</path>

			<path d="m135,217
					 c14,6 14,6 15,24
					 l3,5
					 m3,34
					 c4,25 -3,35 -3,45
					 q4,15 4,28
					 l13,6"
				style="stroke: #222; stroke-width:1;fill:#87715A;">
			</path>
			<path d="m136,218
					 q14,5 12,12
					 q0,-4 -10,-10"
				style="stroke: #222; stroke-width:0;fill:#F5DEB3;">
			</path>
			<path d="m153,325
					 q4,15 4,28
					 l13,6
					 l-5,-30
					 q-5,-3 -10,1"
				style="stroke: #291914; stroke-width:1.5;fill:#291914;">
			</path>

			<!-- face -->
			<path d="m96,200
					 l0,-8
					 c-20,-10 -10,-65 35,-45
					 q8,8 5,20
					 c-1,4 2,8 1,14
					 c-1,5 -5,10 -6,17
					 q-1,3 -3,2
					 q-3,6 -4,12
					 q4,30 -10,2
					 l0,-9
					 q-9,0 -18,-4"
				style="stroke: #222; stroke-width:1;fill:#87715A;">
			</path>

			<!-- eyes -->
			<path d="m111,160
					 c7,0 7,-1 12,3"
				style="stroke: #291914; stroke-width:1;fill:#291914;opacity:1">
			</path>
			<path d="m112,165
					 c7,-2 8,-1 10,4
					 c-1,-4 -1,-5 -10,-4
					 c2,5 4,6 10,4
					 c-1,-4 -1,-5 -10,-4"
				style="stroke: #291914; stroke-width:1;fill:#AAA;opacity:1">
			</path>
			<path d="m115,165.2
					 c-1,5 7,5 5,1
					 q-2,-2 -5,-1"
				style="stroke: #291914; stroke-width:0.2;fill:#105D50;">
			</path>
			<path d="m117.3,166.7
					 q1,2 2,0
					 q-1,-2 -2,0"
				style="stroke: #291914; stroke-width:0;fill:#032620;">
			</path>
			<path d="m115.5,166
					 q1,2 2,0
					 q-1,-2 -2,0"
				style="stroke: #291914; stroke-width:0;fill:#CCC;">
			</path>

			<path d="m130,166
					 q7,-4 6,-1"
				style="stroke: #291914; stroke-width:1;fill:#291914;opacity:1">
			</path>
			<path d="m130,171
					 c2,-3 7,-6 6,0
					 c1,-5 -4,-2 -6,0
					 q3,4 6,2
					 l0,-2
					 c1,-5 -4,-2 -6,0"
				style="stroke: #291914; stroke-width:1;fill:#AAA;opacity:1">
			</path>
			<path d="m133,170
					 c-1,4 5,3 2,-1
					 q-2,0 -2,1"
				style="stroke: #291914; stroke-width:0.2;fill:#105D50;">
			</path>
			<path d="m133.5,170.3
					 q1,1 1,0
					 q-1,-1 -1,0"
				style="stroke: #032620; stroke-width:0.6;fill:#032620;">
			</path>
			<path d="m132.7,170
					 q1,2 1,0
					 q-1,-1 -1,0"
				style="stroke: #291914; stroke-width:0;fill:#BBB;">
			</path>



			<path d="m129,175
					 c4,1 4,6 1,7
					 m-3,-1
					 l-2,0"
				style="stroke: #291914; stroke-width:1;fill:none;opacity:1">
			</path><path d="m127,175
					 l2,4
					 l-3,0"
				style="stroke: #291914; stroke-width:0;fill:#F5DEB3;filter:url(#glow1);">
			</path>
			<path d="m122,188
					 q7,-1 8,1"
				style="stroke: #291914; stroke-width:1;fill:none;opacity:1">
			</path>

			<path d="m130,200
					 q-14,2 -27,-11"
				style="stroke: #291914; stroke-width:1;fill:none;opacity:1">
			</path><path d="m120,198
					 q-24,-5 -17,-31
					 l2,-3
					 c10,4 0,30 15,34"
				style="stroke: #291914; stroke-width:0;fill:#F5DEB3;filter:url(#glow1);">
			</path>

			<!-- hair -->
			<path d="m100,139
					 q0,-8 -5,-10
					 l-5,-5
					 c-5,-5 -20,23 -35,25
					 q-15,5 -20,30
					 q-5,10 -5,20
					 q5,-15 10,-18
					 q-8,10 -5,35
					 q10,-30 20,-30
					 q20,-5 30,-25"
				style="stroke: #291914; stroke-width:0;fill:#291914;opacity:1">
			</path><path d="m90,124
					 c-5,-5 -20,23 -35,25
					 q-15,5 -20,30
					 q-5,10 -5,20
					 q5,-15 10,-18
					 q-8,10 -5,35
					 q1,-20 12,-40
					 q5,-10 10,-10
					 q-3,-3 -15,0
					 q20,-5 50,-40"
				style="stroke: #291914; stroke-width:0;fill:#552E20;opacity:1">
			</path>
			<path d="m95,193
					 l-6,-3
					 q1,-5 -5,-10
					 c-10,-20 0,-25 5,-35
					 q5,-12 30,-10
					 c15,0 15,0 20,10
					 q6,10 -2,25
					 l-1,0
					 q2,-11 -2,-20
					 q-28,0 -30,15
					 q-1,5 0,15
					 l-3,-12
					 q-3,4 -7,0
					 q-2,10 2,20"
				style="stroke: #291914; stroke-width:0;fill:#291914;opacity:1">
			</path><path d="m95,193
					 l-6,-3
					 q1,-5 -5,-10
					 c-10,-20 0,-25 5,-35
					 q5,-12 30,-10
					 c15,0 15,0 10,0
					 q-20,-5 -30,25
					 q-2,-5 0,-10
					 q-5,0 -10,15
					 l-5,0
					 q3,15 10,30"
				style="stroke: #291914; stroke-width:0;fill:#552E20;opacity:1">
			</path>
			<path d="m101,170
					 l0,22
					 q0,3 -5,5
					 q-5,10 -10,20
					 q-3,5 -5,5
					 q-10,10 -5,20
					 q-15,-15 0,-30
					 q5,-10 10,-12
					 q5,-8 11,-14
					 l0,-16"
				style="stroke: #291914; stroke-width:0;fill:#291914;opacity:1">
			</path><path d="m95,192
					 q0,3 -5,5
					 q-5,10 -12,20
					 q-3,2 -5,5
					 q-10,10 5,20
					 q-15,-15 0,-30
					 q5,-10 10,-12
					 q5,-8 11,-14"
				style="stroke: #291914; stroke-width:0;fill:#714115;opacity:1">
			</path>
			<path d="m135,188
					 c10,10 0,40 -15,45
					 q-5,2 -10,10
					 q5,-13 7,-13
					 q-5,0 -10,15
					 q3,-15 7,-20
					 l-8,8
					 q5,-12 8,-13
					 q20,-15 19,-30"
				style="stroke: #291914; stroke-width:0;fill:#291914;opacity:1">
			</path>
			<path d="m91,136
					 l3,3"
				style="stroke: #A59F73; stroke-width:2;fill:none;">
			</path><path d="m92,135
					 l3,3"
				style="stroke: #444; stroke-width:3;fill:none;">
			</path>

			<!-- ear -->
			<path d="m94,170
					 c-3,2 -3,5 3,11"
				style="stroke: #E5AEA3; stroke-width:2;fill:none;">
			</path>
			<path d="m99,170
					 l0,15"
				style="stroke: #F5EFB3; stroke-width:3;fill:none;">
			</path><path d="m101,170
					 l0,15"
				style="stroke: #444; stroke-width:2;fill:none;">
			</path>

			<animate id="ani12"
			    attributeName="opacity"
			    attributeType="CSS"
			    to="1"
			    dur="3s"
			    begin="ani11.end+4.9"
			    fill="freeze"/>
		</g>

		<g id="signature" transform="scale(0.7),translate(700,350)">
			<path d="M810,515
					  q-35,25 -50,50
					  c50,-10 50,25 0,35
					  
					  M828,550
					  c-35,-20 -25,59 5,15
					  c3,-13 -20,-35 2,3
					  q2,5 5,2
					  
					  M848,565
					  c-15,-30 10,-30 12,-10
					  c-10,-30 12,-27 15,-2
					  
					  M875,530
					  c20,-15 -15,-15 15,-3
					  c-11,6 3,27 14,5
					  
					  M927,503
					  c-35,-20 -25,59 5,15
					  c3,-13 -20,-35 2,3
					  q2,5 5,2
					  
					  M947,518
					  c10,-65 -30,-65 10,-4
					  
					  M935,500
					  l28,-25"
			style="stroke: #DCDCDC; stroke-width:2;fill:none;stroke-dasharray:1000;stroke-dashoffset: 1000;">
				
				<animate id=""
					  attributeName="stroke-dashoffset" 
					  attributeType="CSS"
				  to="0"
				  dur="12s"
				  fill="freeze"
				  begin="ani12.end+3"/> 
			</path>
		</g>
	</g>
</svg>