<?xml version="1.0" encoding="UTF-8" standalone="no"?>
<svg width="194px" height="229px" viewBox="0 0 194 229" version="1.1" xmlns="http://www.w3.org/2000/svg" xmlns:xlink="http://www.w3.org/1999/xlink">
    <!-- Generator: Sketch 42 (36781) - http://www.bohemiancoding.com/sketch -->
    <title>Group 3</title>
    <desc>Created with Sketch.</desc>
    <defs></defs>
    <g id="Version-4" stroke="none" stroke-width="1" fill="none" fill-rule="evenodd">
        <g id="2.2-Question" transform="translate(-276.000000, -213.000000)">
            <g id="For-me" transform="translate(169.000000, 171.000000)">
                <g id="Group-2" transform="translate(77.000000, 44.000000)">
                    <g id="Group-3" transform="translate(31.000000, 0.000000)">
                        <polygon id="Fill-18" stroke="#F4F4F4" stroke-width="3" stroke-linejoin="round" fill="#FEFEFE" points="0.5 225.490196 191 225.490196 191 0 0.5 0"></polygon>
                        <polygon id="Fill-21" fill="#BFBEBD" points="24.5 203.934837 123.5 203.934837 123.5 202.941176 24.5 202.941176"></polygon>
                        <polygon id="Fill-28" fill="#BFBEBD" points="87.5 42.0915033 167 42.0915033 167 33.0718954 87.5 33.0718954"></polygon>
                        <polygon id="Fill-28-Copy" fill="#BFBEBD" points="24.5 60.130719 167 60.130719 167 51.1111111 24.5 51.1111111"></polygon>
                        <polygon id="Fill-28-Copy-2" fill="#BFBEBD" points="24.5 78.1699346 167 78.1699346 167 69.1503268 24.5 69.1503268"></polygon>
                        <polygon id="Fill-28-Copy-3" fill="#BFBEBD" points="24.5 96.2091503 167 96.2091503 167 87.1895425 24.5 87.1895425"></polygon>
                        <polygon id="Fill-28-Copy-4" fill="#BFBEBD" points="24.5 114.248366 104 114.248366 104 105.228758 24.5 105.228758"></polygon>
                        <polygon id="Fill-28-Copy-5" fill="#BFBEBD" points="24.5 132.287582 167 132.287582 167 123.267974 24.5 123.267974"></polygon>
                        <polygon id="Fill-28-Copy-6" fill="#BFBEBD" points="24.5 150.326797 167 150.326797 167 141.30719 24.5 141.30719"></polygon>
                        <polygon id="Fill-29" fill="#BFBEBD" points="24.5 42.0915033 84.5 42.0915033 84.5 40.5882353 24.5 40.5882353"></polygon>
                        <polygon id="Fill-29-Copy" fill="#BFBEBD" points="107 114.248366 167 114.248366 167 112.745098 107 112.745098"></polygon>
                    </g>
                </g>
            </g>
        </g>
    </g>
</svg>