<svg width="80" height="80" viewBox="0 0 80 80" fill="none" xmlns="http://www.w3.org/2000/svg">
<mask id="mask0" mask-type="alpha" maskUnits="userSpaceOnUse" x="0" y="0" width="80" height="80">
<path d="M40 80C62.0914 80 80 62.0914 80 40C80 17.9086 62.0914 0 40 0C17.9086 0 0 17.9086 0 40C0 62.0914 17.9086 80 40 80Z" fill="white"/>
</mask>
<g mask="url(#mask0)">
<path d="M42.8503 60.4978H40.4898L41.9591 52.1718H30.3493L28.88 60.4978H26.5195C25.5962 60.4978 24.713 61.2525 24.5444 62.1758L24.2634 63.7816H43.9503L44.2313 62.1758C44.3919 61.2444 43.7737 60.4978 42.8503 60.4978Z" fill="url(#paint0_linear)"/>
<path d="M63.9422 54.1629C63.7736 55.1184 62.8503 55.8892 61.8788 55.8892H10.1646C9.20113 55.8892 8.54276 55.1104 8.71136 54.1629L14.6367 20.57C14.8053 19.6146 15.7286 18.8438 16.7001 18.8438H68.4143C69.3778 18.8438 70.0361 19.6226 69.8675 20.57L63.9422 54.1629Z" fill="url(#paint1_linear)"/>
<path d="M60.8911 52.5652H12.3243L17.6876 22.1597H66.2464L60.8911 52.5652Z" fill="url(#paint2_linear)"/>
<path d="M-11.2645 64.159C-8.76754 57.9045 -3.66919 49.3296 6.6881 41.9992L16.3308 48.4143C15.8812 51.4171 17.7519 76.8607 18.1534 81.3087C4.09476 79.6307 -6.39902 70.3573 -11.2645 64.159Z" fill="url(#paint3_linear)"/>
<path d="M5.96539 42.762C5.96539 42.762 9.85941 37.0454 13.1673 33.1353C16.9329 28.6793 19.3014 36.0739 19.3014 36.0739L15.4074 48.3581C15.4074 48.3662 11.3046 50.9113 5.96539 42.762Z" fill="#EF7E19"/>
<path d="M6.08585 42.5211L8.08504 39.6708C8.08504 39.6708 11.6178 44.3677 16.684 45.3071L16.3307 48.4143C16.3307 48.4143 14.2914 50.4537 9.95578 47.4508C5.62017 44.448 6.08585 42.5211 6.08585 42.5211Z" fill="url(#paint4_linear)"/>
<path d="M17.5754 49.8916C17.5754 49.8916 21.927 57.8483 18.1133 75.6644C18.1133 75.6644 14.6127 62.4408 16.0419 49.0807L17.5754 49.8916Z" fill="url(#paint5_linear)"/>
<path d="M16.5075 45.002C16.5075 45.002 17.6556 47.0494 17.7921 48.9683C17.9286 50.8872 16.0418 49.0727 16.0418 49.0727L16.5075 45.002Z" fill="url(#paint6_linear)"/>
<path d="M19.8492 39.5481C24.9967 39.3141 28.9538 34.3771 28.6876 28.5209C28.4215 22.6647 24.0329 18.1069 18.8855 18.3409C13.738 18.5748 9.78097 23.5118 10.0471 29.368C10.3132 35.2242 14.7018 39.782 19.8492 39.5481Z" fill="#EF7E19"/>
<path d="M28.0128 21.951C28.1815 25.2027 19.4781 22.778 16.8768 25.1786C15.1345 26.7925 13.7375 30.6544 11.6098 33.8177C11.385 34.1469 10.8952 34.1469 10.6704 33.8177C9.73907 32.4609 7.96468 28.9603 8.20555 25.5159C8.67122 18.6431 15.8491 14.0345 22.1116 17.3585C24.4239 18.5869 26.0538 19.6467 27.1859 20.4978C27.6515 20.843 27.9807 21.3649 28.0128 21.951Z" fill="#2B59A4"/>
<path d="M-0.891243 59.165C-2.64154 52.8141 5.94135 46.7764 10.8631 55.5118C14.9819 62.8181 18.4504 67.3866 20.5138 67.3866C22.5772 67.3866 34.4681 59.4861 34.4681 59.4861L41.5335 60.3292C41.5335 60.3292 33.2477 81.943 20.7868 81.6138C7.8442 81.2766 0.859058 65.5158 -0.891243 59.165Z" fill="url(#paint7_linear)"/>
<path d="M33.8096 59.0044C33.8096 59.0044 37.6394 48.4866 50.309 49.0647C50.8791 49.0888 51.0718 49.8354 50.582 50.1245L46.5354 52.493C46.5354 52.493 49.2091 56.1381 46.2625 58.7716C43.3158 61.4051 43.902 61.108 39.8634 62.5131C35.8249 63.9181 33.2476 60.6022 33.8096 59.0044Z" fill="#EF7E19"/>
</g>
<defs>
<linearGradient id="paint0_linear" x1="-8.89875" y1="57.9773" x2="46.0657" y2="57.9773" gradientUnits="userSpaceOnUse">
<stop stop-color="#7EC2E4"/>
<stop offset="0.00174134" stop-color="#7EC2E4"/>
<stop offset="1" stop-color="white"/>
</linearGradient>
<linearGradient id="paint1_linear" x1="-5.36796" y1="37.3643" x2="49.1004" y2="37.3643" gradientUnits="userSpaceOnUse">
<stop stop-color="#7EC2E4"/>
<stop offset="0.00174134" stop-color="#7EC2E4"/>
<stop offset="1" stop-color="white"/>
</linearGradient>
<linearGradient id="paint2_linear" x1="13.8734" y1="37.3643" x2="93.7514" y2="37.3643" gradientUnits="userSpaceOnUse">
<stop stop-color="#7EC2E4"/>
<stop offset="0.00174134" stop-color="#7EC2E4"/>
<stop offset="1" stop-color="white"/>
</linearGradient>
<linearGradient id="paint3_linear" x1="12.4828" y1="38.3704" x2="2.06063" y2="77.9808" gradientUnits="userSpaceOnUse">
<stop offset="0.000376506" stop-color="#3757A6"/>
<stop offset="0.998" stop-color="#7EC2E4"/>
</linearGradient>
<linearGradient id="paint4_linear" x1="12.9367" y1="50.2061" x2="10.5058" y2="40.9575" gradientUnits="userSpaceOnUse">
<stop offset="0.000376506" stop-color="#3757A6"/>
<stop offset="0.998" stop-color="#7EC2E4"/>
</linearGradient>
<linearGradient id="paint5_linear" x1="17.8615" y1="47.2215" x2="17.3805" y2="82.2218" gradientUnits="userSpaceOnUse">
<stop offset="0.00545934" stop-color="#ED7E23"/>
<stop offset="0.1001" stop-color="#EE832B"/>
<stop offset="0.2463" stop-color="#EF8F41"/>
<stop offset="0.4258" stop-color="#F2A464"/>
<stop offset="0.6315" stop-color="#F6C195"/>
<stop offset="0.8565" stop-color="#FBE5D3"/>
<stop offset="1" stop-color="white"/>
</linearGradient>
<linearGradient id="paint6_linear" x1="16.5314" y1="38.927" x2="17.2649" y2="57.969" gradientUnits="userSpaceOnUse">
<stop offset="0.00545934" stop-color="#ED7E23"/>
<stop offset="0.1001" stop-color="#EE832B"/>
<stop offset="0.2463" stop-color="#EF8F41"/>
<stop offset="0.4258" stop-color="#F2A464"/>
<stop offset="0.6315" stop-color="#F6C195"/>
<stop offset="0.8565" stop-color="#FBE5D3"/>
<stop offset="1" stop-color="white"/>
</linearGradient>
<linearGradient id="paint7_linear" x1="21.5259" y1="52.8615" x2="13.5421" y2="87.2163" gradientUnits="userSpaceOnUse">
<stop offset="0.000376506" stop-color="#3757A6"/>
<stop offset="0.998" stop-color="#7EC2E4"/>
</linearGradient>
</defs>
</svg>
