<svg width="80" height="80" viewBox="0 0 80 80" fill="none" xmlns="http://www.w3.org/2000/svg">
<mask id="mask0" mask-type="alpha" maskUnits="userSpaceOnUse" x="0" y="0" width="80" height="80">
<path d="M39.9119 79.712C61.9238 79.712 79.7679 61.8679 79.7679 39.856C79.7679 17.8441 61.9238 0 39.9119 0C17.9001 0 0.0559368 17.8441 0.0559368 39.856C0.0559368 61.8679 17.9001 79.712 39.9119 79.712Z" fill="white"/>
</mask>
<g mask="url(#mask0)">
<path d="M30.0238 36.904C30.2558 34.888 31.8158 29.904 32.1118 28.112C32.8158 23.936 29.7358 21.072 26.3118 18.184C25.8318 18.496 22.3678 22.68 22.3678 22.68L24.7358 27.144C24.7358 27.144 23.8398 33.688 25.7198 36.432C27.5998 39.176 29.6318 40.264 30.0238 36.904Z" fill="#1955AA"/>
<path d="M59.0557 49.096C59.0557 49.096 44.3677 59.4 39.7517 56.864C35.1357 54.328 33.1517 45.504 30.1917 35.528C29.3997 32.856 25.1357 32.144 25.2477 35.512C25.6077 46.64 25.1197 61.856 35.7437 67.76C46.3677 73.664 62.5597 64.52 62.5597 64.52L59.0557 49.096Z" fill="#1955AA"/>
<path d="M59.7759 49.896C55.3359 50.76 42.3519 55.672 40.3199 55.216C38.2879 54.76 35.4079 51.816 34.2159 47.304L22.9119 55.216C22.9119 55.216 25.3679 67.8 34.0879 71.568C42.8079 75.336 58.5999 67.432 63.3359 62.168C66.0239 60.024 66.9759 48.504 59.7759 49.896Z" fill="url(#paint0_linear)"/>
<path d="M48.6639 20.904C48.6639 20.904 40.0159 22.848 41.1359 27.168C42.0959 30.888 40.9279 32.072 39.8079 33.344C38.1359 35.24 38.1439 36.928 38.4959 38.056C38.7679 38.944 39.5519 39.56 40.4639 39.696L53.1359 41.216C54.5519 41.384 55.9999 40.728 56.7039 39.464C58.2479 36.68 53.9279 35.168 55.9919 34.08C58.4879 32.76 58.8319 30.328 56.5999 27.488C54.3679 24.648 53.5999 24.872 53.5439 22.584C53.4479 18.488 48.6639 20.904 48.6639 20.904Z" fill="#0B2D4C"/>
<path d="M65.2959 45.824C65.2959 45.824 62.4719 42.288 59.5599 37.344C56.6479 32.4 52.6559 37.992 52.6559 37.992L55.7759 51.656C55.7839 51.656 61.4399 54.6 65.2959 45.824Z" fill="#1955AA"/>
<path d="M53.9197 82.152C53.1517 75.96 52.5197 64.384 54.6717 51.216C54.6717 51.216 60.4877 49.944 64.9917 44.72C64.9917 44.72 77.3197 53.496 83.8397 66.96C77.7757 76.64 63.2717 82.792 53.9197 82.152Z" fill="url(#paint1_linear)"/>
<path d="M75.4157 54.592C68.6077 45.768 60.6397 54.464 62.5917 61.88C64.1757 67.872 66.2957 73.72 69.3997 80.672C74.5757 78.712 81.0317 71.632 83.6877 66.936C80.2797 61.24 77.0397 56.704 75.4157 54.592Z" fill="url(#paint2_linear)"/>
<path d="M62.5276 41.808C62.5276 41.808 58.8956 47.76 54.6716 51.208L56.3836 58.056C56.3836 58.056 62.8076 50.136 66.0156 45.424L62.5276 41.808Z" fill="#EF7E19"/>
<path d="M61.8679 32.4074C64.171 27.0442 62.2169 21.0556 57.5033 19.0314C52.7897 17.0073 47.1015 19.7141 44.7984 25.0773C42.4953 30.4405 44.4494 36.4291 49.163 38.4533C53.8766 40.4774 59.5648 37.7706 61.8679 32.4074Z" fill="#1955AA"/>
<path d="M47.144 23.576L56.464 24.632C56.464 24.632 52.944 28.32 56.12 30.96C59.296 33.6 58.504 35.216 57.648 36.496C56.36 38.424 56.616 40.128 57.104 41.264C57.488 42.16 58.312 42.776 59.176 42.912L70.08 44.44C71.432 44.608 72.688 43.936 73.152 42.648C74.184 39.824 69.944 38.32 71.704 37.208C73.84 35.856 73.816 33.4 71.312 30.544C68.816 27.688 68.136 27.92 67.752 25.6C67.064 21.48 62.088 16.992 56.536 15.952C51.904 15.08 48.52 16.344 45.896 18.264C43.928 19.696 45.064 23.32 47.144 23.576Z" fill="#0B2D4C"/>
<path d="M25.28 37.592C22.704 34.888 23.392 32.384 23.064 29.632C22.816 27.544 22.368 25.424 21.84 24.592C21.632 24.272 22.016 24.152 22.392 24.08C23.088 23.936 24.416 24.336 24.968 25.384C25.872 27.088 25.856 28.936 27.272 30.08C28.672 31.208 30.792 32.72 30.16 35.68C29.528 38.64 26.68 39.064 25.28 37.592Z" fill="#1955AA"/>
</g>
<defs>
<linearGradient id="paint0_linear" x1="64.7899" y1="54.9856" x2="21.2376" y2="62.9703" gradientUnits="userSpaceOnUse">
<stop stop-color="#EF7E19"/>
<stop offset="1" stop-color="white"/>
</linearGradient>
<linearGradient id="paint1_linear" x1="50.5313" y1="46.3828" x2="73.3926" y2="80.9953" gradientUnits="userSpaceOnUse">
<stop stop-color="#EF7E19"/>
<stop offset="1" stop-color="white"/>
</linearGradient>
<linearGradient id="paint2_linear" x1="86.3359" y1="34.6996" x2="61.9626" y2="84.7123" gradientUnits="userSpaceOnUse">
<stop stop-color="#EF7E19"/>
<stop offset="1" stop-color="white"/>
</linearGradient>
</defs>
</svg>
