<svg width="30" height="25" viewBox="0 0 30 25" fill="none" xmlns="http://www.w3.org/2000/svg">
<path d="M10.0242 0.604149H13.3723L12.8424 3.60696C15.508 4.07264 16.8889 5.58207 17.5232 7.92651L12.746 8.96224C12.3767 7.78199 11.6782 6.79443 10.0001 6.79443C8.65128 6.79443 7.94474 7.37252 7.80825 8.16738C7.59147 9.40383 9.36585 9.65272 11.8307 10.56C14.9781 11.7162 16.3189 13.1453 15.8612 15.7226C15.3795 18.4444 13.3241 20.5881 9.52643 21.11L8.9885 24.1369H5.62439L6.15429 21.1341C2.95076 20.7728 1.31286 19.1509 0.823101 16.6298L5.6565 15.3934C5.99371 16.7904 7.02945 17.6174 8.70749 17.6174C10.1607 17.6174 10.7468 17.0955 10.8913 16.3007C11.0921 15.1766 9.58264 14.7109 7.02945 13.884C4.48428 13.057 2.44494 11.8446 2.97485 8.84983C3.50475 5.85505 6.03386 3.96023 9.5184 3.55076L10.0242 0.604149Z" fill="url(#paint0_linear)"/>
<path d="M27.6235 14.0284C24.1951 15.297 19.9719 16.8466 19.0245 17.1999L19.5464 14.2452C20.4296 13.9321 24.2915 12.4949 25.1747 12.1818C24.4119 11.8366 20.9916 10.7446 20.2208 10.3914L20.7347 7.47686C21.5536 7.83013 25.2228 9.36365 28.2096 10.6081C29.6628 11.2103 29.2855 13.4102 27.6235 14.0284Z" fill="url(#paint1_linear)"/>
<path d="M28.2176 10.6082C27.6797 10.3833 27.5191 10.3271 27.5191 10.3271C27.8563 10.6162 27.4067 11.2585 26.7724 11.5395L25.1747 12.1818C24.2915 12.4949 20.4296 13.9321 19.5464 14.2452L19.0245 17.1999C19.9639 16.8466 24.1871 15.289 27.6235 14.0285C29.2855 13.4102 29.6628 11.2103 28.2176 10.6082Z" fill="url(#paint2_linear)"/>
<defs>
<linearGradient id="paint0_linear" x1="9.17075" y1="30.0063" x2="9.17075" y2="-3.49581" gradientUnits="userSpaceOnUse">
<stop stop-color="#1955AA"/>
<stop offset="1" stop-color="#7DC3E6"/>
</linearGradient>
<linearGradient id="paint1_linear" x1="14.4889" y1="12.338" x2="32.7011" y2="12.338" gradientUnits="userSpaceOnUse">
<stop stop-color="#1955AA"/>
<stop offset="1" stop-color="#7DC3E6"/>
</linearGradient>
<linearGradient id="paint2_linear" x1="14.4889" y1="13.7613" x2="32.701" y2="13.7613" gradientUnits="userSpaceOnUse">
<stop stop-color="#1955AA"/>
<stop offset="1" stop-color="#7DC3E6"/>
</linearGradient>
</defs>
</svg>
