<svg width="38" height="17" viewBox="0 0 38 17" fill="none" xmlns="http://www.w3.org/2000/svg">
<path d="M34.864 16.928H0L1.64 7.62402C2.384 3.39202 6.064 0.304016 10.36 0.304016H37.792L34.864 16.928Z" fill="url(#paint0_linear)"/>
<path d="M25.1601 10.44C24.6081 13.552 21.6161 16.096 18.5041 16.096H16.6401C13.5281 16.096 11.4321 13.552 11.9841 10.44L12.6241 6.792C13.1761 3.68 16.1681 1.136 19.2801 1.136H21.1441C24.2561 1.136 26.3521 3.68 25.8001 6.792L25.1601 10.44Z" fill="white"/>
<path d="M20.6719 12.112C20.2079 12.528 19.6239 12.792 18.9279 12.904C18.8879 12.92 18.8639 12.944 18.8559 12.976L18.7279 13.752C18.7199 13.792 18.7039 13.824 18.6719 13.856C18.6399 13.88 18.5999 13.896 18.5599 13.896H17.3599C17.3199 13.896 17.2879 13.88 17.2639 13.856C17.2399 13.824 17.2319 13.792 17.2399 13.752L17.3919 12.96C17.3999 12.928 17.3839 12.904 17.3439 12.888C16.6879 12.752 16.1999 12.472 15.8879 12.048C15.5759 11.624 15.4719 11.096 15.5839 10.456L15.6319 10.192C15.6399 10.152 15.6559 10.12 15.6879 10.088C15.7199 10.064 15.7599 10.048 15.7999 10.048H17.0959C17.1359 10.048 17.1679 10.064 17.1919 10.088C17.2159 10.112 17.2239 10.152 17.2159 10.192L17.1839 10.376C17.1279 10.696 17.2159 10.968 17.4639 11.184C17.7039 11.408 18.0719 11.512 18.5599 11.512C18.9679 11.512 19.2879 11.424 19.5119 11.24C19.7359 11.064 19.8799 10.84 19.9199 10.576C19.9519 10.384 19.9199 10.224 19.8239 10.088C19.7279 9.96001 19.5839 9.84 19.3839 9.744C19.1919 9.648 18.8799 9.504 18.4559 9.328C17.9679 9.144 17.5679 8.96 17.2479 8.768C16.9279 8.576 16.6799 8.312 16.4959 7.984C16.3119 7.656 16.2639 7.24001 16.3439 6.75201C16.4559 6.13601 16.7279 5.62401 17.1679 5.22401C17.6079 4.81601 18.1599 4.56 18.8159 4.44C18.8559 4.424 18.8799 4.4 18.8879 4.368L19.0159 3.49601C19.0239 3.45601 19.0399 3.424 19.0719 3.392C19.1039 3.368 19.1439 3.35201 19.1839 3.35201H20.3839C20.4239 3.35201 20.4559 3.368 20.4799 3.392C20.5039 3.424 20.5119 3.45601 20.5039 3.49601L20.3359 4.392C20.3279 4.424 20.3439 4.448 20.3839 4.464C21.0239 4.6 21.5039 4.888 21.8159 5.336C22.1279 5.776 22.2319 6.32001 22.1199 6.96001L22.0879 7.136C22.0799 7.176 22.0639 7.208 22.0239 7.24C21.9919 7.272 21.9519 7.28 21.9119 7.28H20.6079C20.5679 7.28 20.5359 7.264 20.5119 7.24C20.4879 7.216 20.4799 7.176 20.4879 7.136L20.5039 7.04C20.5599 6.704 20.4799 6.416 20.2559 6.184C20.0319 5.952 19.6959 5.83201 19.2399 5.83201C18.8799 5.83201 18.5839 5.912 18.3599 6.072C18.1279 6.232 17.9919 6.456 17.9439 6.728C17.9119 6.928 17.9359 7.09601 18.0319 7.23201C18.1279 7.36801 18.2799 7.488 18.4879 7.608C18.6959 7.72 19.0319 7.864 19.4879 8.04C19.9919 8.24 20.3839 8.424 20.6639 8.576C20.9439 8.736 21.1839 8.976 21.3759 9.296C21.5679 9.616 21.6159 10.024 21.5279 10.528C21.4319 11.168 21.1439 11.696 20.6719 12.112Z" fill="#36A457"/>
<path d="M32.1681 9.36803C32.0561 10.016 31.4321 10.544 30.7841 10.544H30.7681C30.1201 10.544 29.6801 10.016 29.8001 9.36803L30.0721 7.84803C30.1841 7.20003 30.8081 6.67203 31.4561 6.67203H31.4721C32.1201 6.67203 32.5601 7.20003 32.4401 7.84803L32.1681 9.36803Z" fill="white"/>
<path d="M7.80799 9.36803C7.69599 10.016 7.07199 10.544 6.42399 10.544H6.40799C5.75999 10.544 5.31999 10.016 5.43999 9.36803L5.71199 7.84803C5.82399 7.20003 6.44799 6.67203 7.09599 6.67203H7.11199C7.75999 6.67203 8.19999 7.20003 8.07999 7.84803L7.80799 9.36803Z" fill="white"/>
<defs>
<linearGradient id="paint0_linear" x1="-5.53632" y1="8.61658" x2="49.5193" y2="8.61658" gradientUnits="userSpaceOnUse">
<stop stop-color="#32A546"/>
<stop offset="0.139" stop-color="#36A74A"/>
<stop offset="0.2789" stop-color="#42AC55"/>
<stop offset="0.4193" stop-color="#56B567"/>
<stop offset="0.5601" stop-color="#73C180"/>
<stop offset="0.7012" stop-color="#97D1A1"/>
<stop offset="0.8428" stop-color="#C4E5CA"/>
<stop offset="0.982" stop-color="#F8FCF8"/>
<stop offset="1" stop-color="white"/>
</linearGradient>
</defs>
</svg>
