<?xml version="1.0" encoding="UTF-8" standalone="no"?>
<svg width="183px" height="167px" viewBox="0 0 183 167" version="1.1" xmlns="http://www.w3.org/2000/svg" xmlns:xlink="http://www.w3.org/1999/xlink">
    <!-- Generator: Sketch 42 (36781) - http://www.bohemiancoding.com/sketch -->
    <title>Group 2</title>
    <desc>Created with Sketch.</desc>
    <defs>
        <polygon id="path-1" points="22.75 162.745098 160.333333 162.745098 160.333333 0 22.75 0"></polygon>
        <filter x="-50%" y="-50%" width="200%" height="200%" filterUnits="objectBoundingBox" id="filter-2">
            <feOffset dx="0" dy="0" in="SourceAlpha" result="shadowOffsetOuter1"></feOffset>
            <feGaussianBlur stdDeviation="0.5" in="shadowOffsetOuter1" result="shadowBlurOuter1"></feGaussianBlur>
            <feColorMatrix values="0 0 0 0 0   0 0 0 0 0   0 0 0 0 0  0 0 0 0.25 0" type="matrix" in="shadowBlurOuter1"></feColorMatrix>
        </filter>
        <path d="M26.6091511,32.5490196 L26.6012315,32.5490196 L26.6012315,32.5490196 L7.07747851,32.492008 C5.56087829,32.4880762 4.32938306,31.3851972 4.33334286,30.0326468 L4.37096088,15.4652076 C4.37294077,14.1165891 5.60641589,13.0196078 7.11905633,13.0196078 L7.12499601,13.0196078 L26.6507289,13.0766194 C27.3634915,13.0785853 28.0406158,13.3243249 28.5534089,13.7646901 L35.9997972,21.0346483 C36.5343691,21.4927068 36.8313534,22.119834 36.8333333,22.7921774 C36.8333333,23.4645207 36.5343691,24.0896821 35.9938575,24.5556042 L28.5276702,31.8511193 C28.0049777,32.305246 27.3258734,32.5490196 26.6091511,32.5490196 Z" id="path-3"></path>
        <mask id="mask-4" maskContentUnits="userSpaceOnUse" maskUnits="objectBoundingBox" x="0" y="0" width="32.5" height="19.5294118" fill="white">
            <use xlink:href="#path-3"></use>
        </mask>
        <path d="M14.2162191,26.0392157 C11.2896481,26.0392157 8.7013037,28.2962198 7.82839568,31.6103018 L7.58333333,32.5490196 L26.3255395,32.5490196 L26.0784519,31.6103018 C25.2075691,28.2962198 22.6192247,26.0392157 19.6906284,26.0392157 L14.2162191,26.0392157 Z" id="path-5"></path>
        <mask id="mask-6" maskContentUnits="userSpaceOnUse" maskUnits="objectBoundingBox" x="0" y="0" width="18.7422062" height="6.50980392" fill="white">
            <use xlink:href="#path-5"></use>
        </mask>
        <path d="M27,149 L7,149 C6.04565031,148.940647 5,148 5,148 C5,148 3.99796705,147.098649 4,146 L4,132 C4.04088257,130.121572 5.29156336,129 7,129 L27,129 C27.3848805,129.059353 28.0715288,129.309046 29,130 L36,137 C36.6955042,137.675808 36.9979564,138.318461 37,139 C37,139.695866 36.6975478,140.336472 36,141 L29,148 C28.034744,148.750307 27.3460522,149 27,149 Z" id="path-7"></path>
        <mask id="mask-8" maskContentUnits="userSpaceOnUse" maskUnits="objectBoundingBox" x="0" y="0" width="33.0000031" height="20" fill="white">
            <use xlink:href="#path-7"></use>
        </mask>
        <path d="M9,149 L27,149 L27,147 C25.9203837,144.197486 22.4698313,142 20,142 L14,142 C11.4555427,142 10.0070207,144.197486 9,147 L9,149 Z" id="path-9"></path>
        <mask id="mask-10" maskContentUnits="userSpaceOnUse" maskUnits="objectBoundingBox" x="0" y="0" width="18" height="7" fill="white">
            <use xlink:href="#path-9"></use>
        </mask>
        <path d="M154,84 L147,77 C146.29464,76.3357023 146,75.6939799 146,75 C146.002032,74.3185619 146.29464,73.6747492 147,73 L154,66 C154.658367,65.3093645 155.322832,65.0585284 156,65 L175,65 L175,65 C176.746244,65 177.95935,66.1204013 178,68 L178,82 C178.004054,83.8064381 176.790948,84.937291 175,85 L156,85 L156,85 L156,85 C155.36144,85 154.692911,84.7491639 154,84 Z" id="path-11"></path>
        <mask id="mask-12" maskContentUnits="userSpaceOnUse" maskUnits="objectBoundingBox" x="0" y="0" width="32.0000101" height="20" fill="white">
            <use xlink:href="#path-11"></use>
        </mask>
        <path d="M165.20276,79.1176471 C161.879602,79.1176471 159.392257,81.2385319 158.166667,85.0978469 L175.413333,85.0978469 C174.187743,81.2385319 171.700398,79.1176471 168.37724,79.1176471 L165.20276,79.1176471 Z" id="path-13"></path>
        <mask id="mask-14" maskContentUnits="userSpaceOnUse" maskUnits="objectBoundingBox" x="0" y="0" width="17.2466667" height="5.98019987" fill="white">
            <use xlink:href="#path-13"></use>
        </mask>
    </defs>
    <g id="Version-4" stroke="none" stroke-width="1" fill="none" fill-rule="evenodd">
        <g id="6-options" transform="translate(-709.000000, -609.000000)">
            <g id="Group-2" transform="translate(709.000000, 610.000000)">
                <path d="M16.2003628,34.7189542 L2.4074175,34.66194 C1.07548516,34.6599038 -0.0041245891,33.6295753 1.18467273e-05,32.363045 L0.0372397692,17.4782595 C0.0393079871,16.2117291 1.12305417,15.1875093 2.45498651,15.1895455 L16.25,15.2465597 L16.2003628,34.7189542 Z" id="Fill-78-Copy" fill="#E3E3E3" style="mix-blend-mode: multiply;" opacity="0.9"></path>
                <polygon id="Fill-16" fill="#E3E3E3" style="mix-blend-mode: multiply;" opacity="0.9" points="16.25 166 22.75 166 22.75 0 16.25 0"></polygon>
                <polygon id="Fill-16" fill="#E3E3E3" style="mix-blend-mode: multiply;" opacity="0.9" transform="translate(91.541667, 162.745098) rotate(-270.000000) translate(-91.541667, -162.745098) " points="88.2916667 231.640523 94.7916667 231.640523 94.7916667 93.8496732 88.2916667 93.8496732"></polygon>
                <g id="Fill-18">
                    <use fill="black" fill-opacity="1" filter="url(#filter-2)" xlink:href="#path-1"></use>
                    <use fill="#FEFEFE" fill-rule="evenodd" xlink:href="#path-1"></use>
                </g>
                <polygon id="Fill-21" fill="#BFBEBD" points="40.0833333 147.187752 111.583333 147.187752 111.583333 146.470588 40.0833333 146.470588"></polygon>
                <polygon id="Fill-28" fill="#BFBEBD" points="85.5833333 30.379085 143 30.379085 143 23.869281 85.5833333 23.869281"></polygon>
                <polygon id="Fill-28-Copy" fill="#BFBEBD" points="40.0833333 43.3986928 143 43.3986928 143 36.8888889 40.0833333 36.8888889"></polygon>
                <polygon id="Fill-28-Copy-2" fill="#BFBEBD" points="40.0833333 56.4183007 143 56.4183007 143 49.9084967 40.0833333 49.9084967"></polygon>
                <polygon id="Fill-28-Copy-3" fill="#BFBEBD" points="40.0833333 69.4379085 143 69.4379085 143 62.9281046 40.0833333 62.9281046"></polygon>
                <polygon id="Fill-28-Copy-4" fill="#BFBEBD" points="40.0833333 82.4575163 97.5 82.4575163 97.5 75.9477124 40.0833333 75.9477124"></polygon>
                <polygon id="Fill-28-Copy-5" fill="#BFBEBD" points="40.0833333 95.4771242 143 95.4771242 143 88.9673203 40.0833333 88.9673203"></polygon>
                <polygon id="Fill-28-Copy-6" fill="#BFBEBD" points="40.0833333 108.496732 143 108.496732 143 101.986928 40.0833333 101.986928"></polygon>
                <polygon id="Fill-29" fill="#BFBEBD" points="40.0833333 30.379085 83.4166667 30.379085 83.4166667 29.2941176 40.0833333 29.2941176"></polygon>
                <polygon id="Fill-29-Copy" fill="#BFBEBD" points="99.6666667 82.4575163 143 82.4575163 143 81.372549 99.6666667 81.372549"></polygon>
                <use id="Stroke-32" stroke="#FCA192" mask="url(#mask-4)" stroke-width="1.08" fill="#FFDDD7" xlink:href="#path-3"></use>
                <use id="Fill-36" stroke="#FCA192" mask="url(#mask-6)" stroke-width="1.08" fill="#FEFEFE" xlink:href="#path-5"></use>
                <path d="M17.3463123,29.6585967 C14.9503722,29.6585967 13,28.0346456 13,26.0392157 L13.4293654,26.0392157 C13.4293654,27.7991727 15.185308,29.2302796 17.3463123,29.2302796 C19.5073167,29.2302796 21.2632593,27.7991727 21.2632593,26.0392157 L21.6926247,26.0392157 C21.6926247,28.0346456 19.7422525,29.6585967 17.3463123,29.6585967" id="Fill-40" fill="#FCA192"></path>
                <path d="M24.2023957,18.5493013 C24.2023957,23.9996871 21.2089895,28.418864 17.5168519,28.418864 C13.8247142,28.418864 10.8333333,23.9996871 10.8333333,18.5493013 C10.8333333,13.0989155 13.8247142,8.67973856 17.5168519,8.67973856 C21.2089895,8.67973856 24.2023957,13.0989155 24.2023957,18.5493013" id="Fill-56" stroke="#FCA192" stroke-width="0.54" stroke-linecap="round" stroke-dasharray="2,2" fill="#FEFEFE"></path>
                <path d="M16.2003628,151.895425 L2.4074175,151.838411 C1.07548516,151.836374 -0.0041245891,150.806046 1.18467273e-05,149.539516 L0.0372397692,134.65473 C0.0393079871,133.3882 1.12305417,132.36398 2.45498651,132.366016 L16.25,132.42303 L16.2003628,151.895425 Z" id="Fill-78" fill="#E3E3E3" style="mix-blend-mode: multiply;" opacity="0.9"></path>
                <path d="M161.383814,69.4379085 L180.522236,69.4898376 C181.893624,69.4936842 183.004195,70.4668732 182.999988,71.6631649 L182.962128,85.7224772 C182.960024,86.9187689 181.845246,87.8861881 180.473859,87.8823415 L161.333333,87.8304124 L161.383814,69.4379085 Z" id="Fill-80" fill="#E3E3E3" style="mix-blend-mode: multiply;" opacity="0.9"></path>
                <use id="Stroke-84" stroke="#FFC820" mask="url(#mask-8)" stroke-width="1.08" fill="#FFE490" xlink:href="#path-7"></use>
                <path d="M24.5631074,132.708373 C24.5631074,138.290705 21.2476772,142.815438 17.1565537,142.815438 C13.0654302,142.815438 9.75,138.290705 9.75,132.708373 C9.75,127.126041 13.0654302,122.601307 17.1565537,122.601307 C21.2476772,122.601307 24.5631074,127.126041 24.5631074,132.708373" id="Fill-86" stroke="#FFC820" stroke-width="0.54" fill="#FFF0C3"></path>
                <use id="Fill-92" stroke="#FFC820" mask="url(#mask-10)" stroke-width="1.08" fill="#FFF1C4" xlink:href="#path-9"></use>
                <path d="M17.5,145.607201 C15.5697805,145.607201 14,143.98934 14,142 L14.8193585,142 C14.8193585,143.524484 16.0208216,144.762747 17.5,144.762747 C18.9791784,144.762747 20.1806415,143.524484 20.1806415,142 L21,142 C21,143.98934 19.4302195,145.607201 17.5,145.607201" id="Fill-94" fill="#FFC820"></path>
                <path d="M13.5731623,133.377973 L13.5265802,133.377973 C13.2369611,133.377973 13,133.1425 13,132.850188 L13,131.8068 C13,131.516519 13.2369611,131.281046 13.5265802,131.281046 L13.5731623,131.281046 C13.8627815,131.281046 14.0997426,131.516519 14.0997426,131.8068 L14.0997426,132.850188 C14.0997426,133.1425 13.8627815,133.377973 13.5731623,133.377973" id="Fill-96" fill="#FFC820"></path>
                <path d="M20.0731623,133.377973 L20.0265802,133.377973 C19.7369611,133.377973 19.5,133.1425 19.5,132.850188 L19.5,131.8068 C19.5,131.516519 19.7369611,131.281046 20.0265802,131.281046 L20.0731623,131.281046 C20.3627815,131.281046 20.5997426,131.516519 20.5997426,131.8068 L20.5997426,132.850188 C20.5997426,133.1425 20.3627815,133.377973 20.0731623,133.377973" id="Fill-98" fill="#FFC820"></path>
                <path d="M22.9743922,139.552977 C23.3024922,139.039402 23.5860355,138.481169 23.8189459,137.886397 C24.2138811,136.840978 24.580462,135.336794 24.501475,133.45098 L24.4994497,133.45098 L23.760212,133.45098 C23.760212,133.45098 23.4564157,135.553997 22.8366713,136.611595 C22.6786972,136.879547 22.3141416,136.993224 21.9981935,136.877517 C21.0665515,136.536487 18.9339015,135.78744 17.1313768,135.78744 C15.3268268,135.78744 13.1962021,136.536487 12.2645601,136.877517 C11.948612,136.993224 11.5840564,136.879547 11.4260824,136.611595 C10.8043126,135.553997 10.5005163,133.45098 10.5005163,133.45098 L9.76127866,133.45098 L9.76127866,133.45098 C9.68026632,135.336794 10.0488725,136.843008 10.4438077,137.888427 C10.6746929,138.481169 10.9582361,139.039402 11.2863361,139.552977 C11.2883614,139.552977 11.2944373,139.542827 11.3065892,139.526587 C11.3086145,139.550947 11.3146904,139.573276 11.3167157,139.597635 C12.6696219,141.686442 14.7698669,143.028232 17.1313768,143.028232 C19.4908614,143.028232 21.5931317,141.686442 22.9460379,139.597635 C22.9480632,139.573276 22.9521138,139.550947 22.9541392,139.526587 C22.966291,139.542827 22.9743922,139.552977 22.9743922,139.552977" id="Fill-100" fill="#FFC820"></path>
                <path d="M18.7778652,141.43053 L15.7439529,141.43053 C15.0776263,141.43053 14.4943374,140.981914 14.3201609,140.338423 L14.1358578,139.658393 C13.8806689,138.716502 14.5875016,137.79085 15.5596498,137.79085 L18.9621683,137.79085 C19.9343164,137.79085 20.6411492,138.716502 20.3859603,139.658393 L20.2016572,140.338423 C20.0274806,140.981914 19.4441917,141.43053 18.7778652,141.43053" id="Fill-102" fill="#FFF0C3"></path>
                <path d="M10.0035772,135.677893 L9.45876914,135.677893 C8.42383642,135.677893 7.58333333,134.833439 7.58333333,133.79614 L7.58333333,133.160769 C7.58333333,132.1255 8.42383642,131.281046 9.45876914,131.281046 L9.93269136,131.281046 L9.90838765,131.514489 C9.84357778,132.115351 9.84560309,132.736512 9.8496537,133.392182 L9.8496537,133.761631 C9.8496537,134.317834 9.89015988,134.882157 9.96914691,135.436331 L10.0035772,135.677893 Z" id="Fill-104" fill="#FFF0C3"></path>
                <path d="M9.45876914,131.703273 C8.65674691,131.703273 8.00459753,132.356913 8.00459753,133.160769 L8.00459753,133.79614 C8.00459753,134.602026 8.65674691,135.255666 9.45876914,135.255666 L9.5215537,135.255666 C9.45876914,134.760361 9.42838951,134.258966 9.42838951,133.761631 L9.42838951,133.394212 C9.4263642,132.80756 9.42433889,132.251357 9.46889568,131.703273 L9.45876914,131.703273 Z M10.0035772,135.677893 L9.45876914,135.677893 C8.42383642,135.677893 7.58333333,134.833439 7.58333333,133.79614 L7.58333333,133.160769 C7.58333333,132.1255 8.42383642,131.281046 9.45876914,131.281046 L9.93269136,131.281046 L9.90838765,131.514489 C9.84357778,132.115351 9.84560309,132.736512 9.8496537,133.392182 L9.8496537,133.761631 C9.8496537,134.317834 9.89015988,134.882157 9.96914691,135.436331 L10.0035772,135.677893 Z" id="Fill-104" fill="#FFC820"></path>
                <path d="M24.5468333,135.396848 L24,135.396848 L24.0344302,135.155285 C24.1154426,134.601112 24.1559488,134.038818 24.1559488,133.480585 C24.1559488,133.279621 24.1579741,133.082717 24.1599994,132.889873 C24.1660753,132.33367 24.1721512,131.805886 24.1235438,131.229383 L24.105316,131 L24.5468333,131 C25.5797407,131 26.4222691,131.844455 26.4222691,132.881753 L26.4222691,133.517124 C26.4222691,134.552393 25.5797407,135.396848 24.5468333,135.396848" id="Path" fill="#FFF0C3"></path>
                <path d="M24.4840488,134.97462 L24.5468333,134.97462 C25.3488556,134.97462 26.0010049,134.32098 26.0010049,133.517124 L26.0010049,132.881753 C26.0010049,132.081957 25.3549315,131.430347 24.5610105,131.422227 C24.5913901,131.929712 24.5853142,132.400658 24.5812636,132.893933 C24.577213,133.086777 24.5751877,133.279621 24.5751877,133.480585 C24.5751877,133.97792 24.544808,134.479315 24.4840488,134.97462 M24.5468333,135.396848 L24,135.396848 L24.0344302,135.155285 C24.1154426,134.601112 24.1559488,134.038818 24.1559488,133.480585 C24.1559488,133.279621 24.1579741,133.082717 24.1599994,132.889873 C24.1660753,132.33367 24.1721512,131.805886 24.1235438,131.229383 L24.105316,131 L24.5468333,131 C25.5797407,131 26.4222691,131.844455 26.4222691,132.881753 L26.4222691,133.517124 C26.4222691,134.552393 25.5797407,135.396848 24.5468333,135.396848" id="Fill-106" fill="#FFC820"></path>
                <path d="M16.5306071,122.181426 C12.4645704,122.540071 10.8101819,126.293319 10.2744461,127.949817 C10.1572442,127.981485 10.057141,128.009797 9.97516162,128.033658 C9.8095319,128.08261 9.68000097,128.223078 9.63540835,128.403985 L9.0174821,130.902624 C8.92404995,131.281463 9.2192106,131.634763 9.5674577,131.558144 C10.9116066,131.26018 13.8738304,130.700434 17.1121037,130.700434 C20.350377,130.700434 23.3126008,131.26018 24.6567497,131.558144 C25.0049968,131.634763 25.3022809,131.281463 25.2088487,130.902624 L24.588799,128.403985 C24.5442064,128.223078 24.4146755,128.08261 24.2490458,128.033658 C24.1777553,128.012908 24.0927589,127.988792 23.9947309,127.962031 C23.4829059,126.311579 21.8753525,122.539736 17.8036064,122.181252 C17.8039601,122.172491 17.8041386,122.163684 17.8041386,122.154834 C17.8041386,121.801534 17.5195953,121.51634 17.1671012,121.51634 C16.8167307,121.51634 16.5300639,121.801534 16.5300639,122.154834 C16.5300639,122.163742 16.5302461,122.172608 16.5306071,122.181426 L16.5306071,122.181426 Z" id="Combined-Shape" fill="#FFC820"></path>
                <polygon id="Fill-112" fill="#FFC820" points="9.75 133.891477 10.4953136 133.891477 10.4953136 133.45098 9.75 133.45098"></polygon>
                <path d="M17.0012474,139.298012 C16.4564394,139.298012 16.2863134,139.066599 16.2680857,139.040209 C16.2356807,138.991491 16.2478326,138.926533 16.29644,138.894054 C16.3450474,138.861575 16.4098573,138.873754 16.4422622,138.920443 C16.4463128,138.926533 16.5759326,139.086898 17.0012474,139.086898 C17.4306128,139.086898 17.5602326,138.922473 17.5602326,138.920443 C17.5946628,138.873754 17.661498,138.863605 17.7060548,138.896084 C17.7526369,138.930593 17.7668141,138.993521 17.7344091,139.040209 C17.7161813,139.066599 17.5460554,139.298012 17.0012474,139.298012" id="Fill-115" fill="#FFC820"></path>
                <use id="Stroke-118" stroke="#55DCE1" mask="url(#mask-12)" stroke-width="1.08" fill="#AAF3F5" xlink:href="#path-11"></use>
                <use id="Fill-119" stroke="#55DCE1" mask="url(#mask-14)" stroke-width="1.08" fill="#C3FDFF" xlink:href="#path-13"></use>
                <path d="M165.694325,80.2600826 L167.314572,80.2600826 C170.275573,79.6632806 172.264427,76.0093907 172.264427,71.1659566 C172.264427,65.607984 169.680133,61.0852802 166.504449,61.0852802 C163.328765,61.0852802 160.744471,65.607984 160.744471,71.1659566 C160.744471,76.0093907 162.733324,79.6632806 165.694325,80.2600826 Z" id="Fill-125" stroke="#55DCE1" stroke-width="0.54" stroke-linecap="round" stroke-dasharray="2,2" fill="#C3FDFF"></path>
            </g>
        </g>
    </g>
</svg>