<?xml version="1.0" encoding="UTF-8" standalone="no"?>
<svg width="46px" height="37px" viewBox="0 0 46 37" version="1.1" xmlns="http://www.w3.org/2000/svg" xmlns:xlink="http://www.w3.org/1999/xlink">
    <!-- Generator: Sketch 42 (36781) - http://www.bohemiancoding.com/sketch -->
    <title>Group 6</title>
    <desc>Created with Sketch.</desc>
    <defs>
        <path d="M11.9985993,35.2877074 L1.66300446,25.1802413 C0.914338197,24.5326169 0.5,23.6644042 0.5,22.7339744 C0.502857505,21.8035445 0.914338197,20.9325038 1.65157444,20.2990196 L11.9643093,10.2254902 C12.675828,9.61463047 13.610232,9.27526395 14.5989287,9.27526395 L41.6337817,9.19607843 L41.6423542,9.19607843 C43.7369052,9.19607843 45.4428356,10.7119155 45.4485506,12.5840875 L45.4999857,32.765083 C45.5057007,34.640083 43.7997703,36.1700603 41.6995043,36.1728884 L14.6675088,36.254902 L14.6675088,36.254902 L14.6589363,36.254902 C13.6645246,36.254902 12.7244056,35.9155354 11.9985993,35.2877074 Z" id="path-1"></path>
        <mask id="mask-2" maskContentUnits="userSpaceOnUse" maskUnits="objectBoundingBox" x="0" y="0" width="45" height="27.0588235" fill="white">
            <use xlink:href="#path-1"></use>
        </mask>
        <path d="M26.7422834,27.2352941 C22.1409879,27.2352941 18.6969711,30.1738695 17,35.5211132 L40.8800001,35.5211132 C39.183029,30.1738695 35.7390122,27.2352941 31.1377167,27.2352941 L26.7422834,27.2352941 Z" id="path-3"></path>
        <mask id="mask-4" maskContentUnits="userSpaceOnUse" maskUnits="objectBoundingBox" x="0" y="0" width="23.8800001" height="8.2858191" fill="white">
            <use xlink:href="#path-3"></use>
        </mask>
    </defs>
    <g id="Version-4" stroke="none" stroke-width="1" fill="none" fill-rule="evenodd">
        <g id="2.2-Question" transform="translate(-1310.000000, -296.000000)">
            <g id="For-Them" transform="translate(1031.000000, 171.000000)">
                <g id="Group-2" transform="translate(77.000000, 44.000000)">
                    <g id="Group-6" transform="translate(202.000000, 81.000000)">
                        <use id="Stroke-118" stroke="#55DCE1" mask="url(#mask-2)" stroke-width="1.5" fill="#AAF3F5" xlink:href="#path-1"></use>
                        <use id="Fill-119" stroke="#55DCE1" mask="url(#mask-4)" stroke-width="1.5" fill="#C3FDFF" xlink:href="#path-3"></use>
                        <g id="Group-4" transform="translate(21.500000, 27.235294)" fill="#55DCE1">
                            <path d="M10.8812503,1.69521446 C10.1829862,2.56850434 9.01079983,3.88566496 7.08706821,4.50295497 L9.48472205,6.14630897 L11.4561263,2.32282705 L10.8812503,1.69521446 Z M6.01583573,4.34192279 L6.47012803,4.22837446 C8.66306991,3.68127797 9.91938444,2.08540781 10.6176485,1.19560182 L10.8447947,0.906569705 L12.0926964,2.26708514 L9.71747675,6.87714731 L6.01583573,4.34192279 Z" id="Fill-121"></path>
                            <path d="M1.6610794,2.32282705 L3.63248368,6.14630897 L6.03294179,4.50295497 C4.12323154,3.89185851 2.95665376,2.58914949 2.23875974,1.69521446 L1.6610794,2.32282705 Z M1.02450932,2.26708514 L2.02002641,1.18321473 L2.29764949,0.935472916 L2.52479564,1.22450503 C3.19782128,2.0833433 4.45413581,3.68127797 6.64988197,4.22837446 L7.10417427,4.34192279 L3.40253325,6.87714731 L1.02450932,2.26708514 Z" id="Fill-123"></path>
                        </g>
                        <path d="M20,15.9338225 C20,8.06145056 23.6988368,1.67973856 28.2585855,1.67973856 C32.8211385,1.67973856 36.5199752,8.06145056 36.5199752,15.9338225 C36.5199752,23.1143032 33.4380786,28.0081678 29.4363803,28.8153742 C29.3746863,29.3047607 28.8755256,29.6872697 28.2585855,29.6872697 C27.6444496,29.6872697 27.1452889,29.3047607 27.0807906,28.8153742 C23.0790923,28.0081678 20,23.1143032 20,15.9338225" id="Fill-124" fill="#C3FDFF"></path>
                        <path d="M20.5692675,16.2178916 C20.5692675,22.9286738 23.3230641,27.9912924 27.422912,28.8181868 L27.6220154,28.8575627 L27.6500581,29.06288 C27.6921222,29.4116382 28.0875248,29.6844571 28.5446214,29.6844571 C29.0017179,29.6844571 29.3971205,29.4116382 29.4391846,29.06288 L29.4672274,28.8575627 L29.6663308,28.8181868 C33.7661786,27.9912924 36.5199752,22.9286738 36.5199752,16.2178916 C36.5199752,8.51708623 32.9417222,2.25068944 28.5446214,2.25068944 C24.1475205,2.25068944 20.5692675,8.51708623 20.5692675,16.2178916 M27.1312675,29.3385115 C22.8575547,28.3513009 20,23.1114906 20,16.2178916 C20,8.20207885 23.8334419,1.67973856 28.5446214,1.67973856 C33.2558009,1.67973856 37.0892427,8.20207885 37.0892427,16.2178916 C37.0892427,23.1114906 34.231688,28.3513009 29.9579752,29.3385115 C29.7841103,29.8757116 29.2120385,30.2582205 28.5446214,30.2582205 C27.8772043,30.2582205 27.3051325,29.8757116 27.1312675,29.3385115" id="Fill-125" fill="#55DCE1"></path>
                        <path d="M30.374094,12.7763778 C29.9282145,12.7763778 29.5664632,13.1420114 29.5664632,13.5892094 L29.5664632,15.7745731 C29.5664632,16.221771 29.9282145,16.5874046 30.374094,16.5874046 L35.4470248,16.5874046 C35.8929043,16.5874046 36.2546556,16.221771 36.2546556,15.7745731 L36.2546556,13.5892094 C36.2546556,13.1420114 35.8929043,12.7763778 35.4470248,12.7763778 L30.374094,12.7763778 Z M29,15.7745731 L29,13.5892094 C29,12.8241914 29.6169402,12.2026144 30.374094,12.2026144 L35.4470248,12.2026144 C36.2069829,12.2026144 36.8239231,12.8241914 36.8239231,13.5892094 L36.8239231,15.7745731 C36.8239231,16.5367784 36.2069829,17.1583555 35.4470248,17.1583555 L30.374094,17.1583555 C29.6169402,17.1583555 29,16.5367784 29,15.7745731 L29,15.7745731 Z" id="Fill-126" fill="#55DCE1"></path>
                        <path d="M21.374094,12.7763778 C20.9282145,12.7763778 20.5664632,13.1420114 20.5664632,13.5892094 L20.5664632,15.7745731 C20.5664632,16.221771 20.9282145,16.5874046 21.374094,16.5874046 L26.4498291,16.5874046 C26.8929043,16.5874046 27.2546556,16.221771 27.2546556,15.7745731 L27.2546556,13.5892094 C27.2546556,13.1420114 26.8929043,12.7763778 26.4498291,12.7763778 L21.374094,12.7763778 Z M20,15.7745731 L20,13.5892094 C20,12.8241914 20.6169402,12.2026144 21.374094,12.2026144 L26.4498291,12.2026144 C27.2069829,12.2026144 27.8239231,12.8241914 27.8239231,13.5892094 L27.8239231,15.7745731 C27.8239231,16.5367784 27.2069829,17.1583555 26.4498291,17.1583555 L21.374094,17.1583555 C20.6169402,17.1583555 20,16.5367784 20,15.7745731 L20,15.7745731 Z" id="Fill-127" fill="#55DCE1"></path>
                        <path d="M27.5,14.6762176 L28.0692675,14.6762176 C28.0692675,14.4877757 28.3496949,14.2796458 28.7535103,14.2796458 C29.1489128,14.2796458 29.4405573,14.4877757 29.4405573,14.6762176 L30.0098248,14.6762176 C30.0098248,14.1333924 29.4573829,13.7058824 28.7535103,13.7058824 C28.0524419,13.7058824 27.5,14.1333924 27.5,14.6762176" id="Fill-128" fill="#55DCE1"></path>
                        <path d="M27.6430179,29.0254438 L28.4057803,29.0254438 C28.4843,29.0254438 28.545994,28.9607548 28.545994,28.882003 C28.545994,28.8032511 28.4843,28.7385621 28.4057803,28.7385621 L27.6430179,28.7385621 C27.5644983,28.7385621 27.5,28.8032511 27.5,28.882003 C27.5,28.9607548 27.5644983,29.0254438 27.6430179,29.0254438" id="Fill-129" fill="#55DCE1"></path>
                        <path d="M32.7291111,16.552199 L32.7515453,16.552199 C33.1553607,16.552199 33.4834607,16.2231288 33.4834607,15.8209319 L33.4834607,14.439962 C33.4834607,14.0349526 33.1553607,13.7058824 32.7515453,13.7058824 L32.7291111,13.7058824 C32.3252957,13.7058824 32,14.0349526 32,14.439962 L32,15.8209319 C32,16.2231288 32.3252957,16.552199 32.7291111,16.552199" id="Fill-130" fill="#55DCE1"></path>
                        <path d="M23.7291111,16.552199 L23.7515453,16.552199 C24.1553607,16.552199 24.4834607,16.2231288 24.4834607,15.8209319 L24.4834607,14.439962 C24.4834607,14.0349526 24.1553607,13.7058824 23.7515453,13.7058824 L23.7291111,13.7058824 C23.3252957,13.7058824 23,14.0349526 23,14.439962 L23,15.8209319 C23,16.2231288 23.3252957,16.552199 23.7291111,16.552199" id="Fill-131" fill="#55DCE1"></path>
                        <path d="M28.3440863,21.9844276 C28.8180085,21.9844276 29.1881726,21.7116087 29.1881726,21.3656631 C29.1881726,21.2869112 29.1236744,21.2222222 29.0451547,21.2222222 C28.966635,21.2222222 28.9021368,21.2869112 28.9021368,21.3656631 C28.9021368,21.5428547 28.6413393,21.6975459 28.3440863,21.6975459 C28.0468333,21.6975459 27.7860359,21.5428547 27.7860359,21.3656631 C27.7860359,21.2869112 27.7215376,21.2222222 27.6430179,21.2222222 C27.5644983,21.2222222 27.5,21.2869112 27.5,21.3656631 C27.5,21.7116087 27.8729684,21.9844276 28.3440863,21.9844276" id="Fill-132" fill="#55DCE1"></path>
                        <path d="M27.8949077,26.8298734 C28.9100547,26.8298734 29.5774718,26.5064283 29.7821838,25.9214146 C29.8074222,25.8482879 29.7681624,25.7667235 29.692447,25.7385978 C29.6195359,25.7160973 29.538212,25.7526607 29.5129735,25.8286 C29.2886316,26.4726775 28.3071359,26.5429917 27.8949077,26.5429917 C27.4826795,26.5429917 26.5011838,26.4726775 26.2768419,25.8286 C26.2516034,25.7526607 26.1702795,25.7160973 26.0973684,25.7385978 C26.021653,25.7667235 25.9823932,25.8482879 26.0076316,25.9214146 C26.2824504,26.7117456 27.3088145,26.8298734 27.8949077,26.8298734" id="Fill-133" fill="#55DCE1"></path>
                        <path d="M28.0205085,0.176470588 C29.1029581,0.176470588 30.137735,0.367725069 31.1052094,0.702420409 C31.0883838,0.691170145 31.0687538,0.679919882 31.0519282,0.671482184 C31.0519282,0.671482184 34.6806581,1.4533755 36.4753932,0.190533418 C36.4753932,0.190533418 36.5735427,1.42806241 36.3323752,2.19870546 C36.2286171,2.5334008 36.0379265,2.85122075 35.8528444,3.10716424 C36.8231231,3.4812355 37.8550957,3.70905334 38.6543137,3.45873498 C38.6543137,3.45873498 38.3766906,4.78064094 37.919594,5.49222011 C37.6503838,5.90847987 37.2409598,6.24036264 36.9437068,6.44567995 C37.325088,7.4807042 37.5410171,8.59448029 37.5410171,9.7645077 L37.5410171,17.86751 L36.2706812,17.86751 C36.2762897,17.6678178 36.279094,17.4653131 36.279094,17.2628083 C36.279094,9.39043643 32.9139658,6.71849884 32.9139658,6.71849884 C30.0536068,8.4116635 26.7277385,9.1626186 25.7518513,9.19636939 C25.7518513,9.19636939 25.9649761,9.04449083 26.1949265,8.81104786 C23.2027667,9.17386886 21.3042735,9.1457432 20.4321444,13.0439595 C20.4321444,13.0439595 19.7647274,17.6678178 19.7703359,17.86751 L18.5,17.86751 L18.5,9.7645077 C18.5,4.46844613 22.7624957,0.176470588 28.0205085,0.176470588" id="Fill-134" fill="#55DCE1"></path>
                        <path d="M36.7748188,15.2091503 C38.3199735,15.4032174 39.4360744,16.8038752 39.2706222,18.3676618 C39.1191915,19.8245709 37.9133538,20.8989711 36.5,20.938347 C36.7159291,19.6614421 36.8365128,18.3114105 36.8365128,16.9163778 C36.8365128,16.3369892 36.8140786,15.7688509 36.7748188,15.2091503" id="Fill-135" fill="#C3FDFF"></path>
                        <path d="M36.9590615,17.2426355 C36.9590615,18.4914147 36.8665205,19.7373814 36.6786342,20.9439722 C37.8087564,20.7583428 38.7061239,19.8330086 38.8267077,18.6657938 C38.9613128,17.3888889 38.1256393,16.2104238 36.9198017,15.8869787 C36.9450402,16.3538646 36.9590615,16.7982501 36.9590615,17.2426355 L36.9590615,17.2426355 Z M36.0588897,21.2167911 C36.2776231,19.9230108 36.389794,18.587042 36.389794,17.2426355 C36.389794,16.6969977 36.3701641,16.1457348 36.3309043,15.5550959 L36.3084701,15.2091503 L36.6505915,15.2513388 C38.3415684,15.4650938 39.5698402,17.0232553 39.3931709,18.7248577 C39.2305231,20.2942694 37.9209274,21.5092979 36.3477299,21.5514864 L36,21.5599241 L36.0588897,21.2167911 Z" id="Fill-136" fill="#55DCE1"></path>
                        <path d="M19.5120607,15.2091503 C17.966906,15.4032174 16.8508051,16.8038752 17.0162573,18.3676618 C17.167688,19.8245709 18.3735257,20.8989711 19.7868795,20.938347 C19.5709504,19.6614421 19.4503667,18.3114105 19.4503667,16.9163778 C19.4503667,16.3369892 19.4728009,15.7688509 19.5120607,15.2091503" id="Fill-137" fill="#C3FDFF"></path>
                        <path d="M17.5833339,18.6657938 C17.7067219,19.8330086 18.6012852,20.7583428 19.7314074,20.9439722 C19.5463254,19.7373814 19.4509801,18.4914147 19.4509801,17.2426355 C19.4509801,16.7982501 19.4650014,16.3510521 19.4902399,15.8869787 C18.2844023,16.2104238 17.4487288,17.3888889 17.5833339,18.6657938 L17.5833339,18.6657938 Z M20.065116,21.5514864 C18.4919185,21.5092979 17.1823228,20.2942694 17.0168707,18.7248577 C16.8402014,17.0232553 18.0712775,15.4650938 19.7622544,15.2513388 L20.1043758,15.2091503 L20.0819416,15.5550959 C20.0398775,16.1429222 20.0202476,16.6941851 20.0202476,17.2426355 C20.0202476,18.587042 20.1324185,19.9230108 20.3511519,21.2167911 L20.4100416,21.5599241 L20.065116,21.5514864 Z" id="Fill-138" fill="#55DCE1"></path>
                    </g>
                </g>
            </g>
        </g>
    </g>
</svg>