<?xml version="1.0" encoding="UTF-8" standalone="no"?>
<svg width="45px" height="39px" viewBox="0 0 45 39" version="1.1" xmlns="http://www.w3.org/2000/svg" xmlns:xlink="http://www.w3.org/1999/xlink">
    <!-- Generator: Sketch 42 (36781) - http://www.bohemiancoding.com/sketch -->
    <title>Group 5</title>
    <desc>Created with Sketch.</desc>
    <defs>
        <path d="M30.84344,38.0980392 L30.8324745,38.0980392 L30.8324745,38.0980392 L3.79958563,38.0190473 C1.69967763,38.0135996 -0.00546960332,36.4855142 1.31852009e-05,34.6114986 L0.0520996762,14.4276973 C0.0548410704,12.5591295 1.7627297,11.0392157 3.85715491,11.0392157 L3.86537909,11.0392157 L30.9010093,11.1182076 C31.8879112,11.1209315 32.8254681,11.461414 33.5354892,12.0715586 L43.845873,22.1443922 C44.5860495,22.7790515 44.9972586,23.6479628 45,24.5795229 C45,25.511083 44.5860495,26.3772704 43.8376488,27.0228252 L33.4998511,37.131069 C32.776123,37.7602806 31.8358248,38.0980392 30.84344,38.0980392 Z" id="path-1"></path>
        <mask id="mask-2" maskContentUnits="userSpaceOnUse" maskUnits="objectBoundingBox" x="0" y="0" width="45" height="27.0588235" fill="white">
            <use xlink:href="#path-1"></use>
        </mask>
        <path d="M13.6839957,29.0784314 C9.63182051,29.0784314 6.04795897,32.2056058 4.83931709,36.7974061 L4.5,38.0980392 L30.450747,38.0980392 L30.1086256,36.7974061 C28.902788,32.2056058 25.3189265,29.0784314 21.263947,29.0784314 L13.6839957,29.0784314 Z" id="path-3"></path>
        <mask id="mask-4" maskContentUnits="userSpaceOnUse" maskUnits="objectBoundingBox" x="0" y="0" width="25.950747" height="9.01960784" fill="white">
            <use xlink:href="#path-3"></use>
        </mask>
    </defs>
    <g id="Version-4" stroke="none" stroke-width="1" fill="none" fill-rule="evenodd">
        <g id="2.2-Question" transform="translate(-683.000000, -222.000000)">
            <g id="For-Us" transform="translate(600.000000, 171.000000)">
                <g id="Group-2" transform="translate(77.000000, 44.000000)">
                    <g id="Group-5" transform="translate(6.000000, 7.000000)">
                        <use id="Stroke-32" stroke="#FCA192" mask="url(#mask-2)" stroke-width="1.5" fill="#FFDDD7" xlink:href="#path-1"></use>
                        <path d="M32.5497049,25.621303 C32.2075835,21.183074 29.5940006,19.9399199 29.044363,14.5932321 C27.8413297,2.92670883 22.6029468,0.516339869 18.4862733,0.516339869 C14.3724041,0.516339869 9.25180064,2.92670883 8.05157158,14.5932321 C7.4991297,19.9399199 4.88554679,21.183074 4.54342543,25.621303 C3.70494765,36.5424963 15.2865972,35.2824668 15.2865972,35.2824668 L15.2136861,35.0855872 C14.5434647,33.2714822 14.2349947,31.342062 14.3022972,29.4098292 L22.7908331,29.4098292 L22.7936374,29.4126418 C22.8581357,31.3476871 22.5496656,33.2742948 21.8794442,35.0883997 L21.8093374,35.2824668 C21.8093374,35.2824668 33.3881827,36.5424963 32.5497049,25.621303" id="Fill-34" fill="#FCA192"></path>
                        <use id="Fill-36" stroke="#FCA192" mask="url(#mask-4)" stroke-width="1.5" fill="#FEFEFE" xlink:href="#path-3"></use>
                        <path d="M18.0179709,34.0932363 C14.7005154,34.0932363 12,31.8431836 12,29.0784314 L12.594506,29.0784314 C12.594506,31.516926 15.0258111,33.4997849 18.0179709,33.4997849 C21.0101308,33.4997849 23.4414359,31.516926 23.4414359,29.0784314 L24.0359419,29.0784314 C24.0359419,31.8431836 21.3354265,34.0932363 18.0179709,34.0932363" id="Fill-40" fill="#FCA192"></path>
                        <path d="M18.9814957,35.5837023 C18.9814957,35.8565212 18.7627624,36.0759013 18.4907479,36.0759013 C18.2187333,36.0759013 18,35.8565212 18,35.5837023 C18,35.3108834 18.2187333,35.0915033 18.4907479,35.0915033 C18.7627624,35.0915033 18.9814957,35.3108834 18.9814957,35.5837023" id="Fill-42" fill="#FCA192"></path>
                        <path d="M18.9814957,37.0869703 C18.9814957,37.3597892 18.7627624,37.5791693 18.4907479,37.5791693 C18.2187333,37.5791693 18,37.3597892 18,37.0869703 C18,36.8141514 18.2187333,36.5947712 18.4907479,36.5947712 C18.7627624,36.5947712 18.9814957,36.8141514 18.9814957,37.0869703" id="Fill-44" fill="#FCA192"></path>
                        <path d="M19.3404427,37.8323972 L18.748741,37.8323972 L18.748741,34.9326418 C18.748741,34.5191946 18.4122282,34.1816867 18,34.1816867 L18,33.5882353 C18.7403282,33.5882353 19.3404427,34.1901244 19.3404427,34.9326418 L19.3404427,37.8323972 Z" id="Fill-46" fill="#FCA192"></path>
                        <path d="M27.1374094,15.5490196 L27.4570966,15.5490196 C28.8396034,15.5490196 29.9613128,16.6009192 29.9613128,17.9003247 L29.9613128,18.7947206 C29.9613128,20.0941261 28.8396034,21.1460257 27.4570966,21.1460257 L27,21.1460257 C27.1205838,20.3697575 27.1850821,19.5653637 27.1850821,18.7440945 C27.1850821,17.6387561 27.235559,16.6599831 27.1374094,15.5490196" id="Fill-48" fill="#FEFEFE"></path>
                        <path d="M27.687047,21.1460257 L27.7992179,21.1460257 C29.0162726,21.1460257 30.0061812,20.2263167 30.0061812,19.0928526 L30.0061812,18.1956441 C30.0061812,17.0649926 29.0190769,16.1452836 27.8020222,16.142471 C27.8468906,16.8596753 27.8384778,17.5234409 27.8328692,18.2209572 C27.830065,18.488151 27.8244564,18.7609699 27.8244564,19.0422264 C27.8244564,19.7425553 27.779588,20.4485094 27.687047,21.1460257 M27.7992179,21.7394771 L27,21.7394771 L27.0532812,21.3991567 C27.1710607,20.6200759 27.2327547,19.8269323 27.2327547,19.0422264 C27.2327547,18.7581573 27.235559,18.4825258 27.2383632,18.2125195 C27.2495803,17.4278136 27.2579932,16.6852962 27.1850821,15.8724647 L27.1570393,15.5490196 L27.7992179,15.5490196 C29.3443726,15.5490196 30.6006872,16.7359224 30.6006872,18.1956441 L30.6006872,19.0928526 C30.6006872,20.5525743 29.3443726,21.7394771 27.7992179,21.7394771" id="Fill-50" fill="#FCA192"></path>
                        <path d="M8.82390342,15.5490196 L8.50421624,15.5490196 C7.1217094,15.5490196 6,16.6009192 6,17.9003247 L6,18.7947206 C6,20.0941261 7.1217094,21.1460257 8.50421624,21.1460257 L8.96131282,21.1460257 C8.84072906,20.3697575 8.77623077,19.5653637 8.77623077,18.7440945 C8.77623077,17.6387561 8.72575385,16.6599831 8.82390342,15.5490196" id="Fill-52" fill="#FEFEFE"></path>
                        <path d="M8.79866496,16.142471 C7.58161026,16.142471 6.59170171,17.0649926 6.59170171,18.1956441 L6.59170171,19.0928526 C6.59170171,20.2235041 7.58161026,21.1460257 8.79866496,21.1460257 L8.91364017,21.1460257 C8.82109915,20.4485094 8.77623077,19.7397428 8.77623077,19.0394139 C8.77623077,18.7581573 8.77062222,18.4825258 8.76781795,18.2153321 C8.75940513,17.5178157 8.75099231,16.8568627 8.79866496,16.142471 L8.79866496,16.142471 Z M9.60068718,21.7394771 L8.79866496,21.7394771 C7.25631453,21.7394771 6,20.5525743 6,19.0928526 L6,18.1956441 C6,16.7359224 7.25631453,15.5490196 8.79866496,15.5490196 L9.44084359,15.5490196 L9.41280085,15.8724647 C9.34269402,16.6824837 9.35110684,17.4221885 9.36232393,18.2068944 C9.36512821,18.4797133 9.36793248,18.7553447 9.36793248,19.0394139 C9.36793248,19.8269323 9.4296265,20.6172633 9.54740598,21.3963441 L9.60068718,21.7394771 Z" id="Fill-54" fill="#FCA192"></path>
                        <path d="M27.5110094,18.7008391 C27.5110094,26.2525785 23.3662932,32.3755345 18.2541026,32.3755345 C13.141912,32.3755345 9,26.2525785 9,18.7008391 C9,11.1490997 13.141912,5.02614379 18.2541026,5.02614379 C23.3662932,5.02614379 27.5110094,11.1490997 27.5110094,18.7008391" id="Fill-56" stroke="#FCA192" stroke-width="0.75" fill="#FEFEFE"></path>
                        <path d="M18.4084277,3.52287582 C7.26424477,3.52287582 9.11506528,20.3026439 9.11506528,20.3026439 C13.3719525,19.3098081 16.6529525,10.6302298 22.1857841,9.42645161 C23.363579,14.2303141 27.2615191,16.0022307 27.2615191,16.0022307 C28.0354986,8.43361585 21.9894849,3.52287582 18.4084277,3.52287582" id="Fill-60" fill="#FCA192"></path>
                        <path d="M14.2739795,20.0054818 L14.2739795,20.0054818 C13.8477299,20.0054818 13.5,19.6595362 13.5,19.2292136 L13.5,17.8257432 C13.5,17.3982332 13.8477299,17.0522876 14.2739795,17.0522876 L14.2739795,17.0522876 C14.7002291,17.0522876 15.047959,17.3982332 15.047959,17.8257432 L15.047959,19.2292136 C15.047959,19.6595362 14.7002291,20.0054818 14.2739795,20.0054818" id="Fill-62" fill="#FCA192"></path>
                        <path d="M21.7739795,20.0054818 L21.7739795,20.0054818 C21.3477299,20.0054818 21,19.6595362 21,19.2292136 L21,17.8257432 C21,17.3982332 21.3477299,17.0522876 21.7739795,17.0522876 C22.2002291,17.0522876 22.547959,17.3982332 22.547959,17.8257432 L22.547959,19.2292136 C22.547959,19.6595362 22.2002291,20.0054818 21.7739795,20.0054818" id="Fill-64" fill="#FCA192"></path>
                        <path d="M27.6536821,21.1388488 C27.6536821,21.7351128 27.171347,22.2188741 26.576841,22.2188741 C25.982335,22.2188741 25.5,21.7351128 25.5,21.1388488 C25.5,20.5425849 25.982335,20.0588235 26.576841,20.0588235 C27.171347,20.0588235 27.6536821,20.5425849 27.6536821,21.1388488" id="Fill-66" fill="#FCA192"></path>
                        <path d="M9.65368205,21.1388488 C9.65368205,21.7351128 9.17134701,22.2188741 8.57684103,22.2188741 C7.98233504,22.2188741 7.5,21.7351128 7.5,21.1388488 C7.5,20.5425849 7.98233504,20.0588235 8.57684103,20.0588235 C9.17134701,20.0588235 9.65368205,20.5425849 9.65368205,21.1388488" id="Fill-70" fill="#FCA192"></path>
                        <path d="M18.75,22.4087116 C18.3282748,22.4087116 18,22.1074233 18,21.7217743 C18,21.6344007 18.0551118,21.5620915 18.1269968,21.5620915 C18.1964856,21.5620915 18.2515974,21.6344007 18.2515974,21.7217743 C18.2515974,21.9176117 18.4840256,22.089346 18.75,22.089346 C19.0159744,22.089346 19.2484026,21.9176117 19.2484026,21.7217743 C19.2484026,21.6344007 19.3035144,21.5620915 19.3730032,21.5620915 C19.4448882,21.5620915 19.5,21.6344007 19.5,21.7217743 C19.5,22.1074233 19.1717252,22.4087116 18.75,22.4087116" id="Fill-74" fill="#FCA192"></path>
                        <path d="M18.4734035,27.2102011 C17.8620718,27.2102011 16.7936436,27.0864482 16.5076077,26.2679915 C16.4823693,26.1892397 16.5216291,26.1048627 16.6001488,26.0795496 C16.6758641,26.0542365 16.7599923,26.0936125 16.7880351,26.1695517 C17.0207898,26.841755 18.0443496,26.9120691 18.4734035,26.9120691 C18.9024573,26.9120691 19.9260171,26.841755 20.1587718,26.1695517 C20.1868146,26.0936125 20.2709428,26.0542365 20.3466582,26.0795496 C20.4251778,26.1048627 20.4672419,26.1892397 20.4391992,26.2679915 C20.1531633,27.0864482 19.0847351,27.2102011 18.4734035,27.2102011" id="Fill-76" fill="#FCA192"></path>
                    </g>
                </g>
            </g>
        </g>
    </g>
</svg>