<?xml version="1.0" encoding="UTF-8" standalone="no"?>
<svg width="191px" height="44px" viewBox="0 0 191 44" version="1.1" xmlns="http://www.w3.org/2000/svg" xmlns:xlink="http://www.w3.org/1999/xlink">
    <!-- Generator: Sketch 41.2 (35397) - http://www.bohemiancoding.com/sketch -->
    <title>Acme Inc.</title>
    <desc>Created with Sketch.</desc>
    <defs></defs>
    <g id="test-flow" stroke="none" stroke-width="1" fill="none" fill-rule="evenodd">
        <g id="e-sig-disclosure" transform="translate(-91.000000, -105.000000)" fill="#BF1F24">
            <path d="M110.790527,142.90001 L114.623535,124.760361 C113.353998,124.174421 112.194341,123.751248 111.144531,123.49083 C110.094721,123.230412 109.024582,123.051378 107.934082,122.953721 C106.990067,124.988236 106.123376,127.079687 105.333984,129.228135 C104.544592,131.376583 103.861005,133.463965 103.283203,135.490342 C102.705401,137.516719 102.253745,139.416928 101.928223,141.191026 C101.6027,142.965123 101.439941,144.503194 101.439941,145.805283 C101.439941,146.602813 101.509114,147.20909 101.647461,147.624131 C101.785808,148.039172 101.944498,148.360621 102.123535,148.588486 C101.456214,148.588486 100.736006,148.555935 99.9628906,148.49083 C99.1897748,148.425726 98.4654982,148.226346 97.7900391,147.892686 C97.11458,147.559025 96.5530621,147.034128 96.1054688,146.317979 C95.6578754,145.601829 95.434082,144.592725 95.434082,143.290635 C95.434082,142.183859 95.6090477,140.857374 95.9589844,139.311143 C96.308921,137.764911 96.8094043,136.100702 97.4604492,134.318467 C98.1114941,132.536231 98.8845984,130.672643 99.7797852,128.727647 C100.674972,126.78265 101.675938,124.858027 102.782715,122.953721 C101.203931,123.051378 99.9140675,123.291447 98.9130859,123.673936 C97.9121044,124.056425 97.2488623,124.678977 96.9233398,125.541611 C97.0535488,125.541611 97.1959628,125.708439 97.3505859,126.0421 C97.5052091,126.37576 97.5825195,126.729761 97.5825195,127.104111 C97.5825195,127.706328 97.3098986,128.182398 96.7646484,128.532334 C96.2193983,128.882271 95.5561563,129.057236 94.7749023,129.057236 C94.335447,129.057236 93.92855,128.996202 93.5541992,128.874131 C93.1798484,128.75206 92.8543308,128.573025 92.5776367,128.337022 C92.3009426,128.101018 92.0812183,127.799914 91.918457,127.433701 C91.7556958,127.067489 91.6743164,126.640247 91.6743164,126.151963 C91.6743164,125.305605 91.9306615,124.508087 92.4433594,123.759385 C92.9560573,123.010683 93.668127,122.359648 94.5795898,121.80626 C95.4910527,121.252872 96.5693297,120.813423 97.8144531,120.487901 C99.0595765,120.162378 100.414543,119.999619 101.879395,119.999619 C102.562992,119.999619 103.433751,120.048447 104.491699,120.146104 C105.761237,118.144141 107.103997,116.25207 108.52002,114.469834 C109.936042,112.687599 111.392733,111.125114 112.890137,109.782334 C114.38754,108.439554 115.893059,107.373484 117.406738,106.584092 C118.920418,105.7947 120.409661,105.40001 121.874512,105.40001 C122.460452,105.40001 123.115556,105.448838 123.839844,105.546494 C124.564131,105.644151 125.227373,105.831324 125.82959,106.108018 L117.992676,142.90001 L110.790527,142.90001 Z M117.992676,108.940049 C117.243974,109.346952 116.483077,109.928815 115.709961,110.685654 C114.936845,111.442494 114.171879,112.337668 113.415039,113.371201 C112.658199,114.404735 111.90544,115.552185 111.156738,116.813584 C110.408037,118.074984 109.68376,119.405537 108.983887,120.805283 C109.993006,121.000597 111.018387,121.240666 112.060059,121.525498 C113.10173,121.81033 114.110835,122.148055 115.087402,122.538682 L117.992676,108.940049 Z M180.715163,135.553184 C180.685808,135.614253 180.656405,135.674686 180.626953,135.734483 C180.358397,136.279733 180.061362,136.747664 179.73584,137.138291 C179.410317,137.528918 179.04411,137.830022 178.637207,138.041611 C178.230304,138.253201 177.758303,138.358994 177.221191,138.358994 C176.456214,138.358994 175.931317,138.163684 175.646484,137.773057 C175.361652,137.38243 175.219238,136.877878 175.219238,136.259385 C175.219238,135.787377 175.280273,135.238066 175.402344,134.611436 C175.524415,133.984805 175.670898,133.305287 175.841797,132.572861 C176.012696,131.840436 176.203938,131.07547 176.415527,130.27794 C176.627117,129.48041 176.818359,128.678823 176.989258,127.873154 C177.160157,127.067486 177.30664,126.278106 177.428711,125.50499 C177.550782,124.731875 177.611816,124.011667 177.611816,123.344346 C177.611816,122.351502 177.473471,121.497019 177.196777,120.780869 C176.920083,120.06472 176.533531,119.478788 176.037109,119.023057 C175.540688,118.567325 174.954756,118.23367 174.279297,118.02208 C173.603838,117.810491 172.867354,117.704697 172.069824,117.704697 C171.614093,117.704697 171.109541,117.753525 170.556152,117.851182 C170.002764,117.948839 169.42497,118.144149 168.822754,118.437119 C168.220537,118.73009 167.602054,119.157331 166.967285,119.718858 C166.332516,120.280384 165.714033,121.025005 165.111816,121.952744 C164.981607,121.17149 164.761883,120.508248 164.452637,119.962998 C164.14339,119.417748 163.769045,118.97423 163.32959,118.632432 C162.890135,118.290633 162.385582,118.042426 161.815918,117.887803 C161.246254,117.73318 160.635908,117.655869 159.984863,117.655869 C159.545408,117.655869 159.081545,117.69249 158.593262,117.765733 C158.104978,117.838975 157.600426,117.97732 157.07959,118.180772 C156.558754,118.384223 156.029788,118.669051 155.492676,119.035264 C154.955564,119.401477 154.41846,119.885684 153.881348,120.487901 L154.418457,117.90001 L147.216309,117.90001 L143.815506,133.948039 C143.183184,134.64494 142.55491,135.30145 141.930664,135.917588 C141.304033,136.536081 140.640791,137.073185 139.940918,137.528916 C139.241045,137.984648 138.488285,138.342717 137.682617,138.603135 C136.876949,138.863553 135.977707,138.99376 134.984863,138.99376 C134.382647,138.99376 133.85775,138.932725 133.410156,138.810654 C132.962563,138.688584 132.588218,138.472928 132.287109,138.163682 C131.986001,137.854435 131.758139,137.427194 131.603516,136.881944 C131.448892,136.336693 131.371582,135.6409 131.371582,134.794541 C131.371582,133.866802 131.45703,132.861767 131.62793,131.779404 C131.798829,130.697042 132.034829,129.610627 132.335938,128.520127 C132.637046,127.429627 132.991046,126.379833 133.397949,125.370713 C133.804852,124.361593 134.24837,123.46642 134.728516,122.685166 C135.208661,121.903912 135.709145,121.277291 136.22998,120.805283 C136.750816,120.333276 137.271645,120.097276 137.79248,120.097276 C138.264488,120.097276 138.614419,120.284448 138.842285,120.658799 C139.070151,121.03315 139.184082,121.529564 139.184082,122.148057 C139.184082,123.043244 138.980634,124.027934 138.57373,125.102158 C139.175947,125.492785 139.761879,125.688096 140.331543,125.688096 C140.689618,125.688096 141.031411,125.614854 141.356934,125.468369 C141.682456,125.321884 141.967284,125.094022 142.211426,124.784776 C142.455568,124.475529 142.646809,124.097115 142.785156,123.649522 C142.923503,123.201928 142.992676,122.668893 142.992676,122.050401 C142.992676,121.497012 142.911296,120.943632 142.748535,120.390244 C142.585774,119.836856 142.292808,119.344511 141.869629,118.913194 C141.44645,118.481876 140.876794,118.131945 140.160645,117.863389 C139.444495,117.594833 138.533046,117.460557 137.42627,117.460557 C135.733553,117.460557 134.228034,117.76573 132.909668,118.376084 C131.591302,118.986439 130.431646,119.788026 129.430664,120.780869 C128.429682,121.773713 127.583337,122.904886 126.891602,124.174424 C126.199866,125.443962 125.638349,126.737894 125.207031,128.05626 C124.775714,129.374626 124.462403,130.664489 124.26709,131.925889 C124.071776,133.187288 123.974121,134.298117 123.974121,135.258408 C123.974121,136.674431 124.157225,137.882915 124.523438,138.883897 C124.88965,139.884878 125.414547,140.702741 126.098145,141.33751 C126.781742,141.972279 127.603674,142.44021 128.563965,142.741319 C129.524256,143.042427 130.598464,143.192979 131.786621,143.192979 C133.43051,143.192979 134.940097,142.928496 136.31543,142.399522 C137.690762,141.870548 138.944005,141.174754 140.075195,140.312119 C141.187245,139.464082 142.18917,138.498084 143.080999,137.414097 L141.918457,142.90001 L149.120605,142.90001 L152.51416,126.859971 C152.709474,126.225202 152.937336,125.622995 153.197754,125.05333 C153.458172,124.483666 153.755207,123.987252 154.088867,123.564072 C154.422528,123.140893 154.796873,122.807238 155.211914,122.563096 C155.626955,122.318954 156.078611,122.196885 156.566895,122.196885 C156.859865,122.196885 157.099934,122.257919 157.287109,122.37999 C157.474285,122.502061 157.628906,122.66482 157.750977,122.868272 C157.873047,123.071723 157.958496,123.303654 158.007324,123.564072 C158.056153,123.82449 158.080566,124.10118 158.080566,124.394151 C158.080566,124.833606 158.031739,125.248641 157.934082,125.639268 L154.271973,142.90001 L161.474121,142.90001 L164.867676,126.859971 C165.062989,126.225202 165.290852,125.627064 165.55127,125.065537 C165.811688,124.504011 166.104653,124.015735 166.430176,123.600694 C166.755698,123.185652 167.113768,122.856066 167.504395,122.611924 C167.895021,122.367782 168.318194,122.245713 168.773926,122.245713 C169.978359,122.245713 170.580566,123.100197 170.580566,124.80919 C170.580566,125.60672 170.462566,126.558859 170.226562,127.665635 C169.990559,128.772411 169.734214,129.919861 169.45752,131.108018 C169.180825,132.296175 168.92448,133.455831 168.688477,134.587022 C168.452473,135.718212 168.334473,136.706972 168.334473,137.55333 C168.334473,138.26948 168.436197,138.965273 168.639648,139.640733 C168.8431,140.316192 169.172687,140.918399 169.628418,141.447373 C170.084149,141.976347 170.686357,142.39952 171.435059,142.716904 C172.18376,143.034289 173.111485,143.192979 174.218262,143.192979 C174.885583,143.192979 175.613928,143.095323 176.40332,142.90001 C177.192712,142.704696 177.998368,142.285593 178.820312,141.642686 C179.641957,141.000013 180.455458,140.068664 181.260838,138.84861 C181.265175,138.8604 181.269538,138.872163 181.273926,138.883897 C181.648277,139.884878 182.173174,140.702741 182.848633,141.33751 C183.524092,141.972279 184.337886,142.44021 185.290039,142.741319 C186.242192,143.042427 187.304193,143.192979 188.476074,143.192979 C189.485194,143.192979 190.453609,143.079048 191.381348,142.851182 C192.309087,142.623316 193.155432,142.224557 193.92041,141.654893 C194.685388,141.085228 195.344561,140.3284 195.897949,139.384385 C196.451337,138.44037 196.858234,137.244093 197.118652,135.795518 C196.728025,136.153592 196.288577,136.491317 195.800293,136.808701 C195.312009,137.126086 194.811526,137.406845 194.298828,137.650986 C193.78613,137.895128 193.265302,138.090439 192.736328,138.236924 C192.207354,138.383409 191.698733,138.456651 191.210449,138.456651 C190.770994,138.456651 190.364097,138.391547 189.989746,138.261338 C189.615395,138.131129 189.289878,137.907336 189.013184,137.589951 C188.73649,137.272567 188.516765,136.845325 188.354004,136.308213 C188.191243,135.771101 188.109863,135.10379 188.109863,134.30626 C188.109863,134.078394 188.12207,133.838325 188.146484,133.586045 C188.170899,133.333765 188.199381,133.069282 188.231934,132.792588 C189.729337,132.694931 191.169752,132.361276 192.553223,131.791611 C193.936693,131.221947 195.161453,130.473257 196.227539,129.545518 C197.293625,128.617779 198.14404,127.531364 198.778809,126.28624 C199.413577,125.041117 199.730957,123.694288 199.730957,122.245713 C199.730957,121.62722 199.653647,121.029082 199.499023,120.451279 C199.3444,119.873477 199.059572,119.364856 198.644531,118.925401 C198.22949,118.485945 197.667972,118.131945 196.959961,117.863389 C196.25195,117.594833 195.336431,117.460557 194.213379,117.460557 C192.504386,117.460557 190.982591,117.76573 189.647949,118.376084 C188.313307,118.986439 187.149582,119.792095 186.156738,120.793076 C185.163895,121.794058 184.317549,122.9293 183.617676,124.198838 C182.917802,125.468376 182.356285,126.762308 181.933105,128.080674 C181.509926,129.39904 181.200685,130.684834 181.005371,131.938096 C180.810058,133.191357 180.712402,134.298117 180.712402,135.258408 C180.712402,135.357687 180.713322,135.455946 180.715163,135.553184 Z M188.57373,130.40001 C189.534022,130.367458 190.453609,130.111113 191.33252,129.630967 C192.21143,129.150821 192.988603,128.532338 193.664062,127.775498 C194.339522,127.018658 194.876626,126.151968 195.275391,125.175401 C195.674156,124.198833 195.873535,123.189729 195.873535,122.148057 C195.873535,121.529564 195.784018,121.03315 195.60498,120.658799 C195.425943,120.284448 195.100426,120.097276 194.628418,120.097276 C193.993649,120.097276 193.371097,120.410586 192.760742,121.037217 C192.150388,121.663848 191.580732,122.473573 191.051758,123.466416 C190.522784,124.45926 190.042645,125.566019 189.611328,126.786729 C189.180011,128.007438 188.834148,129.211853 188.57373,130.40001 Z M215.282715,142.90001 L222.509277,108.940049 C220.295725,109.851512 218.578619,111.218686 217.35791,113.041611 C216.137201,114.864537 215.526855,117.135022 215.526855,119.853135 C215.526855,120.487904 215.563476,121.004663 215.636719,121.403428 C215.709961,121.802193 215.787272,122.119573 215.868652,122.355576 C215.950033,122.59158 216.027343,122.774684 216.100586,122.904893 C216.173828,123.035102 216.210449,123.149033 216.210449,123.24669 C215.347815,123.24669 214.582848,123.161241 213.915527,122.990342 C213.248206,122.819443 212.690757,122.546822 212.243164,122.172471 C211.795571,121.79812 211.453777,121.301706 211.217773,120.683213 C210.98177,120.06472 210.86377,119.299754 210.86377,118.388291 C210.86377,117.281515 211.103839,116.191031 211.583984,115.116807 C212.06413,114.042583 212.723303,113.02534 213.561523,112.065049 C214.399744,111.104758 215.384434,110.217722 216.515625,109.403916 C217.646816,108.59011 218.859369,107.886178 220.15332,107.2921 C221.447272,106.698021 222.79817,106.234159 224.206055,105.900498 C225.613939,105.566838 227.017734,105.40001 228.41748,105.40001 C228.791831,105.40001 229.137694,105.408148 229.455078,105.424424 C229.772463,105.4407 230.093911,105.465114 230.419434,105.497666 L222.460449,142.90001 L215.282715,142.90001 Z M254.219786,139.124426 C253.475068,140.209926 252.723427,141.049338 251.964844,141.642686 C251.1429,142.285593 250.337244,142.704696 249.547852,142.90001 C248.75846,143.095323 248.030114,143.192979 247.362793,143.192979 C246.256017,143.192979 245.328292,143.034289 244.57959,142.716904 C243.830888,142.39952 243.228681,141.976347 242.772949,141.447373 C242.317218,140.918399 241.987631,140.316192 241.78418,139.640733 C241.580728,138.965273 241.479004,138.26948 241.479004,137.55333 C241.479004,136.706972 241.597004,135.718212 241.833008,134.587022 C242.069012,133.455831 242.325357,132.296175 242.602051,131.108018 C242.878745,129.919861 243.13509,128.772411 243.371094,127.665635 C243.607098,126.558859 243.725098,125.60672 243.725098,124.80919 C243.725098,123.100197 243.12289,122.245713 241.918457,122.245713 C241.462726,122.245713 241.039553,122.367782 240.648926,122.611924 C240.258299,122.856066 239.900229,123.185652 239.574707,123.600694 C239.249185,124.015735 238.956219,124.504011 238.695801,125.065537 C238.435383,125.627064 238.207521,126.225202 238.012207,126.859971 L234.618652,142.90001 L227.416504,142.90001 L232.714355,117.90001 L239.916504,117.90001 L239.379395,120.487901 C239.916507,119.885684 240.449542,119.401477 240.978516,119.035264 C241.50749,118.669051 242.024249,118.388292 242.528809,118.192979 C243.033368,117.997665 243.509438,117.867458 243.957031,117.802354 C244.404625,117.737249 244.823729,117.704697 245.214355,117.704697 C246.011885,117.704697 246.752438,117.810491 247.436035,118.02208 C248.119632,118.23367 248.709633,118.567325 249.206055,119.023057 C249.702476,119.478788 250.089029,120.06472 250.365723,120.780869 C250.642417,121.497019 250.780762,122.351502 250.780762,123.344346 C250.780762,124.011667 250.719727,124.731875 250.597656,125.50499 C250.475585,126.278106 250.325033,127.067486 250.145996,127.873154 C249.966959,128.678823 249.775717,129.48041 249.572266,130.27794 C249.368814,131.07547 249.177573,131.840436 248.998535,132.572861 C248.819498,133.305287 248.668946,133.984805 248.546875,134.611436 C248.424804,135.238066 248.36377,135.787377 248.36377,136.259385 C248.36377,136.877878 248.506183,137.38243 248.791016,137.773057 C249.075848,138.163684 249.600745,138.358994 250.365723,138.358994 C250.902835,138.358994 251.374835,138.253201 251.781738,138.041611 C252.188641,137.830022 252.554849,137.528918 252.880371,137.138291 C253.132992,136.835146 253.368456,136.485445 253.586767,136.08918 C253.571566,135.820684 253.563965,135.54376 253.563965,135.258408 C253.563965,134.298117 253.66162,133.187288 253.856934,131.925889 C254.052247,130.664489 254.365558,129.374626 254.796875,128.05626 C255.228192,126.737894 255.78971,125.443962 256.481445,124.174424 C257.173181,122.904886 258.015457,121.773713 259.008301,120.780869 C260.001144,119.788026 261.160801,118.986439 262.487305,118.376084 C263.813809,117.76573 265.323396,117.460557 267.016113,117.460557 C268.106614,117.460557 269.009925,117.590764 269.726074,117.851182 C270.442224,118.1116 271.011879,118.461531 271.435059,118.900986 C271.858238,119.340442 272.151204,119.836856 272.313965,120.390244 C272.476726,120.943632 272.558105,121.513288 272.558105,122.099229 C272.558105,122.733997 272.484864,123.279239 272.338379,123.734971 C272.191894,124.190702 271.996583,124.560979 271.752441,124.845811 C271.5083,125.130643 271.227541,125.342229 270.910156,125.480576 C270.592772,125.618923 270.263185,125.688096 269.921387,125.688096 C269.302894,125.688096 268.716962,125.492785 268.163574,125.102158 C268.358888,124.581322 268.50944,124.07677 268.615234,123.588486 C268.721029,123.100203 268.773926,122.620064 268.773926,122.148057 C268.773926,121.54584 268.664064,121.053495 268.444336,120.671006 C268.224608,120.288517 267.878746,120.097276 267.406738,120.097276 C266.869626,120.097276 266.34066,120.337345 265.819824,120.81749 C265.298988,121.297636 264.798505,121.928326 264.318359,122.70958 C263.838214,123.490834 263.394696,124.386007 262.987793,125.395127 C262.58089,126.404247 262.22689,127.437765 261.925781,128.495713 C261.624673,129.553661 261.388673,130.595317 261.217773,131.620713 C261.046874,132.646109 260.961426,133.573834 260.961426,134.403916 C260.961426,135.18517 261.034667,135.844343 261.181152,136.381455 C261.327637,136.918567 261.535155,137.345809 261.803711,137.663194 C262.072267,137.980578 262.389647,138.20844 262.755859,138.346787 C263.122072,138.485134 263.5249,138.554307 263.964355,138.554307 C264.452639,138.554307 264.965329,138.472927 265.502441,138.310166 C266.039553,138.147405 266.576657,137.93175 267.11377,137.663194 C267.650882,137.394637 268.163572,137.097603 268.651855,136.77208 C269.140139,136.446558 269.579588,136.12104 269.970215,135.795518 C269.709797,137.244093 269.3029,138.44037 268.749512,139.384385 C268.196124,140.3284 267.53695,141.085228 266.771973,141.654893 C266.006995,142.224557 265.15658,142.623316 264.220703,142.851182 C263.284826,143.079048 262.312342,143.192979 261.303223,143.192979 C260.147618,143.192979 259.093755,143.042427 258.141602,142.741319 C257.189448,142.44021 256.375654,141.972279 255.700195,141.33751 C255.079656,140.754352 254.58619,140.016664 254.219786,139.124426 Z M281.103027,139.140244 C281.103027,139.693632 280.997234,140.210392 280.785645,140.690537 C280.574055,141.170683 280.285158,141.589787 279.918945,141.947861 C279.552733,142.305936 279.12956,142.586695 278.649414,142.790147 C278.169268,142.993598 277.652509,143.095322 277.099121,143.095322 C276.545733,143.095322 276.028974,142.993598 275.548828,142.790147 C275.068682,142.586695 274.649579,142.305936 274.291504,141.947861 C273.933429,141.589787 273.65267,141.170683 273.449219,140.690537 C273.245767,140.210392 273.144043,139.693632 273.144043,139.140244 C273.144043,138.586856 273.245767,138.070097 273.449219,137.589951 C273.65267,137.109806 273.933429,136.690702 274.291504,136.332627 C274.649579,135.974552 275.068682,135.689725 275.548828,135.478135 C276.028974,135.266545 276.545733,135.160752 277.099121,135.160752 C277.652509,135.160752 278.169268,135.266545 278.649414,135.478135 C279.12956,135.689725 279.552733,135.974552 279.918945,136.332627 C280.285158,136.690702 280.574055,137.109806 280.785645,137.589951 C280.997234,138.070097 281.103027,138.586856 281.103027,139.140244 Z" id="Acme-Inc."></path>
        </g>
    </g>
</svg>