<svg xmlns="http://www.w3.org/2000/svg" width="91" height="26" viewBox="0 0 91 26">
  <g fill="none">
    <polygon fill="#005CB9" points="49 19 53 19 53 18 49 18"/>
    <polygon fill="#005CB9" points="55 19 59 19 59 18 55 18"/>
    <polygon fill="#005CB9" points="43 19 47 19 47 18 43 18"/>
    <polygon fill="#005CB9" points="68 19 72 19 72 18 68 18"/>
    <polygon fill="#005CB9" points="74 19 78 19 78 18 74 18"/>
    <polygon fill="#005CB9" points="61 19 65 19 65 18 61 18"/>
    <polygon fill="#005CB9" points="87 19 91 19 91 18 87 18"/>
    <polygon fill="#005CB9" points="81 19 85 19 85 18 81 18"/>
    <path fill="#005CB9" d="M2.8680947,8.64229998 L4.55951039,8.64229998 C6.98534386,8.64229998 9.02689644,9.83468291 9.02689644,12.3913528 C9.02689644,15.3449471 7.02238686,16.3577 4.35915606,16.3577 L2.8680947,16.3577 L2.8680947,8.64229998 Z M0,19 L4.6854566,19 C8.56595265,19 12,16.7398163 12,12.53525 C12,7.78149221 8.49186665,6 4.3008536,6 L0,6 L0,19 Z M15.7751802,13.9984537 C15.7751802,12.5699804 16.6109488,11.5882272 17.9970777,11.5882272 C19.3890512,11.5882272 20.220274,12.5699804 20.220274,13.9984537 C20.220274,15.4317377 19.3890512,16.4128037 17.9970777,16.4128037 C16.6109488,16.4128037 15.7751802,15.4317377 15.7751802,13.9984537 Z M13,13.9984537 C13,17.0395863 15.2205987,19 17.9970777,19 C20.7768037,19 23,17.0395863 23,13.9984537 C23,10.961101 20.7768037,9 17.9970777,9 C15.2205987,9 13,10.961101 13,13.9984537 Z M32,10.2748703 C31.1519614,9.33538366 29.9046036,9 28.8763805,9 C26.1656969,9 24,10.961101 24,13.9977664 C24,17.0402735 26.1656969,19 28.8763805,19 C29.9046036,19 31.1519614,18.6656472 32,17.7251297 L30.2117722,15.6853373 C29.9046036,16.0767328 29.4726675,16.4114292 28.8763805,16.4114292 C27.5213553,16.4114292 26.7094169,15.4317377 26.7094169,13.9977664 C26.7094169,12.5699804 27.5213553,11.5889145 28.8763805,11.5889145 C29.4353006,11.5889145 29.9416538,11.9019621 30.2117722,12.3122573 L32,10.2748703 Z M42,9 L39.1128005,9 L39.1128005,13.8570724 C39.1128005,15.1254665 38.8836042,16.3495036 37.380009,16.3495036 C35.9013557,16.3495036 35.8838289,14.9015701 35.8838289,13.7778638 L35.8838289,9 L33,9 L33,14.3819616 C33,16.9919735 33.5335555,19 36.4612014,19 C37.8646918,19 38.8074302,18.1987608 39.1909969,17.4327255 L39.2277358,17.4327255 L39.2277358,18.7577976 L42,18.7577976 L42,9 Z M75.9476281,13.6398012 C75.4089816,14.3632259 74.0175834,16.0501236 74.0175834,16.6902528 C74.0175834,17.3310378 74.3269583,17.7307906 74.7905474,17.7307906 C75.9476281,17.7307906 79.7295064,13.0003279 81.5040752,13.0003279 C82.8153703,13.0003279 80.6573155,17.8937743 83.5120155,17.8937743 C84.5435802,17.8937743 88,15.518213 88,14.1425256 C88,13.9011654 87.7552754,13.4807527 87.4474774,13.4807527 C87.2626725,13.4807527 84.8980524,16.4492205 83.8955015,16.4492205 C83.045588,16.4492205 83.8955015,14.6039302 83.8955015,13.4000807 C83.8955015,12.1486807 83.7081736,11.0733818 82.5053647,11.0733818 C80.8862717,11.0733818 78.5721104,13.2403764 78.0306256,13.5604409 C78.2643124,13.0793603 78.3412619,12.8380001 78.3412619,12.5162958 C78.3412619,11.8741991 77.5676672,11.1517582 76.9489176,11.1517582 C76.4140555,11.1517582 73.5615631,12.6746885 73.5615631,14.6236063 C73.5615631,15.1027193 75.2544519,13.4000807 75.9476281,13.6398012 Z M62.9825847,5.89627163 C62.9825847,5.29910196 63.4133758,4.81605368 63.9510761,4.81605368 C64.4834152,4.81605368 64.9142062,5.29910196 64.9142062,5.89627163 C64.9142062,6.49475304 64.4834152,6.98108067 63.9510761,6.98108067 C63.4133758,6.98108067 62.9825847,6.49475304 62.9825847,5.89627163 Z M64.3304623,24.0878109 C64.0589315,24.0878109 63.8823261,23.966475 63.8823261,23.3217547 C63.8823261,21.2596993 68.0136309,18.3410776 69.4517033,18.3410776 C68.615666,20.23687 65.1015341,24.0878109 64.3304623,24.0878109 Z M71.432522,17.5881388 C72.0569482,16.7309167 73.8504391,12.1896726 73.8504391,11.5393774 C73.8504391,10.4434186 72.8910933,9.86625296 71.8566903,9.86625296 C68.46429,9.86625296 62.9825847,15.8871399 61.824558,15.8871399 C60.5179934,15.8871399 62.5218339,13.0003279 62.5218339,11.8741991 C62.5218339,11.1258514 61.8794318,10.3525806 61.3625456,10.3525806 C60.36031,10.3525806 57.1962352,13.4807527 55.1135531,14.2022098 C55.5774576,13.4000807 55.8092522,12.5162958 55.8092522,12.0378387 C55.8092522,8.18460219 45.313846,9.62784421 45.313846,7.46380102 C45.313846,5.52176984 51.8823051,2.16797841 55.7316719,2.16797841 C56.2718952,2.16797841 59.819456,2.40901065 59.819456,3.6905807 C59.819456,4.17133343 59.0486996,4.3330054 59.0486996,4.81605368 C59.0486996,5.29680642 59.4347086,5.37649463 59.8986131,5.37649463 C60.5930507,5.37649463 61.0556938,4.73243025 61.0556938,3.931285 C61.0556938,0.662100802 58.3217792,0 56.116104,0 C50.4398175,0 43.6919147,5.13611826 43.6919147,7.46380102 C43.6919147,10.5109732 53.2610886,9.94987639 53.2610886,12.6792796 C53.2610886,15.9665002 43,18.9366076 43,19.7384088 C43,20.5431613 43.5392772,20.4634731 44.1542424,20.4634731 C48.322445,20.4634731 59.2779713,13.2403764 60.2057803,12.2769033 C60.2820991,13.9595379 59.59933,15.5588769 59.59933,16.2783664 C59.59933,17.0008072 60.1294616,17.9754301 60.8999026,17.9754301 C61.6722358,17.9754301 62.8302626,16.769613 64.5278819,15.8074517 C64.4515632,16.3692044 64.9142062,17.2516775 65.5291714,17.2516775 C66.8401511,17.2516775 70.8541394,13.8795217 71.6274187,13.3197366 C71.4441906,14.8347964 70.5066052,16.6079411 69.9742661,17.3005398 C69.6093867,17.1811715 69.0568641,17.1224711 68.6721167,17.1224711 C67.0757301,17.1224711 62.6757329,21.9755815 62.6757329,24.2327582 C62.6757329,25.1155593 63.139322,26 63.9863972,26 C65.1649228,26 69.413544,22.341229 70.9727173,18.6424499 C71.664632,18.722794 72.7844994,19.2586398 72.7844994,18.6939357 C72.7844994,18.1364462 72.0531638,17.7478432 71.432522,17.5881388 Z M65.9164418,15.9665002 C65.4541141,15.4864033 70.1423566,11.5852883 71.5498385,11.793855 C71.0099305,13.4807527 66.3781388,16.4492205 65.9164418,15.9665002 Z M87.2665406,22.4965696 C87.2665406,21.819131 87.818426,21.2648901 88.4983584,21.2648901 C89.1818725,21.2648901 89.7331609,21.819131 89.7331609,22.4965696 C89.7331609,23.180869 89.1818725,23.7324252 88.4983584,23.7324252 C87.818426,23.7324252 87.2665406,23.180869 87.2665406,22.4965696 Z M87,22.4965696 C87,23.3255444 87.6727689,24 88.4983584,24 C89.3266342,24 90,23.3255444 90,22.4965696 C90,21.6714726 89.3266342,21 88.4983584,21 C87.6727689,21 87,21.6714726 87,22.4965696 Z M88.2395782,21.898777 L88.4682121,21.898777 C88.6610288,21.8937059 88.8747388,21.9068311 88.8747388,22.1353286 C88.8747388,22.3668092 88.6610288,22.3769514 88.4682121,22.3769514 L88.2395782,22.3769514 L88.2395782,21.898777 Z M87.9234902,23.3446356 L88.2395782,23.3446356 L88.2395782,22.643333 L88.4682121,22.643333 L88.8953338,23.3446356 L89.227838,23.3446356 L88.7795244,22.619469 C89.0120386,22.5914289 89.1893344,22.4461569 89.1893344,22.1493487 C89.1893344,21.819131 88.9962193,21.6312021 88.5840215,21.6312021 L87.9234902,21.6312021 L87.9234902,23.3446356 Z"/>
    <path fill="#8A8B8A" d="M53,18 L53,19 M49,19 L49,18"/>
  </g>
</svg>
