<?xml version="1.0" encoding="UTF-8"?>
<svg width="16px" height="16px" viewBox="0 0 16 16" version="1.1" xmlns="http://www.w3.org/2000/svg" xmlns:xlink="http://www.w3.org/1999/xlink">
    <!-- Generator: Sketch 58 (84663) - https://sketch.com -->
    <title>Icons/Info/16/Chart</title>
    <desc>Created with Sketch.</desc>
    <defs>
        <path d="M15.5792,2.6 L15.5792,15.6 L13,15.6 L13,2.6 L15.5792,2.6 Z M11.2458667,0 L11.2458667,15.6 L8.66666667,15.6 L8.66666667,0 L11.2458667,0 Z M6.91253333,5.2 L6.91253333,15.6 L4.33333333,15.6 L4.33333333,5.2 L6.91253333,5.2 Z M2.5792,9.1 L2.5792,15.6 L0,15.6 L0,9.1 L2.5792,9.1 Z" id="path-1"></path>
    </defs>
    <g id="Symbols" stroke="none" stroke-width="1" fill="none" fill-rule="evenodd">
        <g id="Mobile-App-Footer" transform="translate(-227.000000, -11.000000)">
            <g id="UI-Bars-/-Tab-Bars-/-Base-/-Light-/-4-Text-Icons">
                <g id="#3" transform="translate(188.000000, 0.000000)">
                    <g id="Text-3" transform="translate(7.000000, 6.000000)">
                        <g id="Icons/Info/20-Search/Chart" transform="translate(27.000000, 0.000000)">
                            <g id="Chart" transform="translate(5.200000, 5.200000)">
                                <mask id="mask-2" fill="white">
                                    <use xlink:href="#path-1"></use>
                                </mask>
                                <g id="Combined-Shape"></g>
                                <g id="Colors/Basic/Toned-Gray/Shade-2" mask="url(#mask-2)">
                                    <g transform="translate(-5.200000, -5.200000)">
                                        <g id="Colors/Basic/Black">
                                            <rect id="Color" fill="#000000" x="0" y="0" width="26" height="26"></rect>
                                        </g>
                                        <g id="Colors/Basic/White" opacity="0.5">
                                            <rect id="Color" fill="#FFFFFF" x="0" y="0" width="26" height="26"></rect>
                                        </g>
                                        <g id="Colors/Accent/Default" opacity="0.1">
                                            <rect id="teenage-blue" fill="#0D74FF" x="0" y="0" width="26" height="26"></rect>
                                        </g>
                                    </g>
                                </g>
                            </g>
                        </g>
                    </g>
                </g>
            </g>
        </g>
    </g>
</svg>