<svg width="50" height="50" xmlns="http://www.w3.org/2000/svg"><g fill="none" fill-rule="evenodd"><circle fill-opacity=".2" fill="#000" cx="25" cy="25" r="25"/><path d="M27.667 16.667c2 0 1.333 3 3.333 3h2.436c.892 0 1.215.092 1.54.267.327.174.583.43.757.756.174.326.267.649.267 1.54v8.54c0 .891-.093 1.214-.267 1.54-.174.326-.43.582-.756.756-.326.175-.65.267-1.54.267H16.563c-.892 0-1.215-.092-1.54-.267a1.817 1.817 0 01-.757-.756c-.174-.326-.267-.649-.267-1.54v-8.54c0-.891.093-1.214.267-1.54.174-.326.43-.582.756-.756.326-.175.65-.267 1.54-.267H19c2 0 1.333-3 3.333-3h5.334zm-2.667 5a5 5 0 100 10 5 5 0 000-10zm0 1a4 4 0 110 8 4 4 0 010-8zM31.333 21a.667.667 0 100 1.333.667.667 0 000-1.333zM18 18c.184 0 .333.15.333.333V19H16v-.667c0-.184.15-.333.333-.333H18z" fill="#FFF"/></g></svg>
