<svg width="16" height="16" xmlns="http://www.w3.org/2000/svg"><g fill="#000" fill-rule="nonzero"><path d="M8.007 16A7.997 7.997 0 01.06 8.97 8 8 0 014.57.772a7.989 7.989 0 019.197 1.694 8.004 8.004 0 011.296 9.268c-.142.266-.165.58-.063.864l.97 2.666a.534.534 0 01-.683.683l-2.664-.97a1.065 1.065 0 00-.863.063 7.898 7.898 0 01-3.752.96zm0-14.932a6.928 6.928 0 00-6.481 4.485 6.936 6.936 0 001.905 7.653 6.923 6.923 0 007.827.917A2.13 2.13 0 0112.984 14l1.599.576-.576-1.6a2.135 2.135 0 01.123-1.728 6.937 6.937 0 00.009-6.474 6.927 6.927 0 00-6.132-3.706z"/><path d="M11.438 7H3.561C3.252 7 3 6.776 3 6.5s.252-.5.563-.5h7.874c.311 0 .563.224.563.5s-.252.5-.563.5zM10.5 10h-5a.5.5 0 010-1h5a.5.5 0 110 1z"/></g></svg>
