<svg width="16" height="12" xmlns="http://www.w3.org/2000/svg" xmlns:xlink="http://www.w3.org/1999/xlink"><defs><path d="M8 0c4.02 0 6.742 2.78 8 6-1.258 3.22-4.029 6-8 6S1.258 9.22 0 6c1.258-3.22 3.984-6 8-6zm0 2C5.792 2 4 3.792 4 6s1.792 4 4 4 4-1.792 4-4-1.792-4-4-4zm0 1.5c1.383 0 2.5 1.117 2.5 2.5S9.383 8.5 8 8.5A2.497 2.497 0 015.5 6c0-1.383 1.117-2.5 2.5-2.5z" id="a"/></defs><g fill="none" fill-rule="evenodd"><mask id="b" fill="#fff"><use xlink:href="#a"/></mask><use fill="#A2ACBA" xlink:href="#a"/><g mask="url(#b)"><path d="M-2-4h20v20H-2z" fill="#000"/><path d="M-2-4h20v20H-2z" opacity=".2" fill="#FFF"/><path d="M-2-4h20v20H-2z" opacity=".1" fill="#2E75F0"/></g></g></svg>
