<svg width="50" height="50" xmlns="http://www.w3.org/2000/svg"><g fill="none" fill-rule="evenodd"><circle fill-opacity=".2" fill="#000" cx="25" cy="25" r="25"/><path d="M30 15.667c0 4-2.333 4-2.333 7.333v14c0 .92-.747 1.667-1.667 1.667h-2c-.92 0-1.667-.747-1.667-1.667V23c0-3.333-2.333-3.333-2.333-7.333h10zM25 23c-.872 0-1.588.67-1.66 1.523l-.007.144v2.666a1.667 1.667 0 003.328.144l.006-.144v-2.666c0-.92-.747-1.667-1.667-1.667zm0 3.333a1 1 0 110 2 1 1 0 010-2zM29.333 13c.369 0 .667.298.667.667v1H20v-1c0-.369.298-.667.667-.667h8.666z" fill="#FFF"/></g></svg>
