<svg width="16" height="14" xmlns="http://www.w3.org/2000/svg" xmlns:xlink="http://www.w3.org/1999/xlink"><defs><path d="M0 6h3v8H0V6zm13.987-2a2 2 0 011.988 2.218l-.656 6A2 2 0 0113.33 14H4V6.012l2.165-1.691L8.271.942A2 2 0 019.968 0h.238C11.197 0 12 .803 12 1.794V4h1.987zm-.656 8l.656-6H10V2h-.032L7.676 5.68 6 6.987V12h7.33z" id="a"/></defs><g fill="none" fill-rule="evenodd"><mask id="b" fill="#fff"><use xlink:href="#a"/></mask><use fill="#2F3947" xlink:href="#a"/><g mask="url(#b)"><path d="M-4-4h24v24H-4z" fill="#000"/><path d="M-4-4h24v24H-4z" opacity=".2" fill="#FFF"/><path d="M-4-4h24v24H-4z" opacity=".1" fill="#2E75F0"/></g></g></svg>
