<svg xmlns="http://www.w3.org/2000/svg" xmlns:xlink="http://www.w3.org/1999/xlink" version="1.1" x="0px" y="0px" viewBox="0 0 100 100" enable-background="new 0 0 100 100" xml:space="preserve"><g><g><path d="M61.25,64.955l-1.521,1.48c11.25,1.257,19.103,4.978,19.103,9.74C78.831,82.374,66.229,88,49.023,88    c-0.008,0-0.016,0-0.023,0s-0.016,0-0.023,0c-17.206,0-29.808-5.626-29.808-11.824c0-4.763,7.853-8.483,19.103-9.74l-1.521-1.48    c-15.146,1.5-24.003,6.339-24.003,13.817c0,10.088,16.226,17.059,36.253,17.059s36.253-6.971,36.253-17.059    C85.253,71.294,76.396,66.455,61.25,64.955z" stroke="#009688" fill="#009688"></path><path d="M49,80.354c0.005,0.008,0.023,0.036,0.023,0.036s24.224-37.171,24.224-49.393C73.247,13.015,60.97,5.191,49,5.166    c-11.97,0.025-24.247,7.849-24.247,25.831c0,12.221,24.224,49.393,24.224,49.393S48.995,80.361,49,80.354z M40.602,29.983    c0-4.638,3.76-8.398,8.398-8.398c4.639,0,8.398,3.76,8.398,8.398s-3.76,8.398-8.398,8.398 C44.362,38.382,40.602,34.622,40.602,29.983z" stroke="#009688" fill="#009688"></path></g></g></svg>