<?xml version="1.0" encoding="utf-8"?><!DOCTYPE svg PUBLIC "-//W3C//DTD SVG 1.1//EN" "http://www.w3.org/Graphics/SVG/1.1/DTD/svg11.dtd"><svg version="1.1" xmlns="http://www.w3.org/2000/svg" xmlns:xlink="http://www.w3.org/1999/xlink" x="0px" y="0px" viewBox="0 0 80.273 100" enable-background="new 0 0 80.273 100" xml:space="preserve"><path fill="#010101" d="M4.01,19v4.016h4.016v34.487h64.221V23.015h4.011V19C52.178,10.973,28.094,10.973,4.01,19z M28.094,53.486
	H12.042c0,0,0-23.168,0-26.379c5.349-3.209,10.703-3.209,16.052,0C28.094,30.318,28.094,53.486,28.094,53.486z M48.163,53.486H32.11
	c0,0,0-23.168,0-26.379c5.349-3.209,10.703-3.209,16.053,0C48.163,30.318,48.163,53.486,48.163,53.486z M68.231,53.486H52.178
	c0,0,0-23.168,0-26.379c5.349-3.209,10.703-3.209,16.053,0C68.231,30.318,68.231,53.486,68.231,53.486z"></path><path fill="#010101" d="M8.026,59.553v21.881h64.221V59.553H8.026z M40.136,74.567c-2.219,0-4.016-1.797-4.016-4.016
	s1.796-4.011,4.016-4.011c2.219,0,4.016,1.792,4.016,4.011S42.35,74.567,40.136,74.567z"></path><path fill="#010101" d="M72.247,87.958v-4.016h-7.568h-8.489H24.083h-8.489H8.026v4.016H0v4.011h8.026h2.408
	c0.885,0,2.117-0.509,2.738-1.13l1.746-1.746c0.514-0.514,1.445-0.946,2.25-1.084c1.39,0.229,1.598,1.252,0.387,2.464l-7.013,7.013
	C9.156,98.87,9.624,100,11.579,100h57.115c1.954,0,2.423-1.13,1.038-2.515l-7.014-7.013c-1.211-1.212-1.002-2.234,0.388-2.464
	c0.804,0.138,1.735,0.57,2.249,1.084l1.741,1.746c0.626,0.621,1.857,1.13,2.743,1.13h2.407h8.026v-4.011H72.247z"></path><path fill="#010101" d="M20.068,12.2c16.053-2.005,24.084-2.005,40.137,0v-2.005h4.016c0,0,0,0,0-2.008
	c-16.058-4.016-32.11-4.016-48.168,0v2.008h4.016V12.2L20.068,12.2z"></path><path fill="#010101" d="M44.152,3.837C44.055,1.703,42.294,0,40.136,0s-3.919,1.703-4.016,3.837
	C38.798,3.606,41.475,3.606,44.152,3.837z"></path><path fill="#010101" d="M5.919,37.169c0-0.903-0.733-1.636-1.639-1.636c-0.906,0-1.634,0.733-1.634,1.636v38.188
	c0,0.9,0.728,1.634,1.634,1.634c0.906,0,1.639-0.733,1.639-1.634V37.169z"></path><path fill="#010101" d="M77.626,37.169c0-0.903-0.733-1.636-1.634-1.636c-0.906,0-1.64,0.733-1.64,1.636v38.188
	c0,0.9,0.733,1.634,1.64,1.634c0.9,0,1.634-0.733,1.634-1.634V37.169z"></path></svg>