<?xml version="1.0" encoding="UTF-8"?>
<svg width="64px" height="59px" viewBox="0 0 64 59" version="1.1" xmlns="http://www.w3.org/2000/svg" xmlns:xlink="http://www.w3.org/1999/xlink">
    <!-- Generator: Sketch 50.2 (55047) - http://www.bohemiancoding.com/sketch -->
    <title>img-stack</title>
    <desc>Created with Sketch.</desc>
    <defs></defs>
    <g id="Signing" stroke="none" stroke-width="1" fill="none" fill-rule="evenodd">
        <g id="4---Webcam-or-Upload" transform="translate(-778.000000, -329.000000)" fill-rule="nonzero">
            <g id="Group" transform="translate(730.000000, 278.000000)">
                <g id="img-stack" transform="translate(48.000000, 51.000000)">
                    <path d="M56.7272727,24.7272727 L7.27272727,24.7272727 L7.27272727,1.45454545 C7.27272727,0.651222182 7.92394945,0 8.72727273,0 L55.2727273,0 C56.0760505,0 56.7272727,0.651222182 56.7272727,1.45454545 L56.7272727,24.7272727 Z" id="Shape" fill="#B3B3B3"></path>
                    <path d="M61.0909091,5.81818182 L2.90909091,5.81818182 C1.30244436,5.81818182 0,7.12062618 0,8.72727273 L0,55.2727273 C0,56.8793738 1.30244436,58.1818182 2.90909091,58.1818182 L61.0909091,58.1818182 C62.6975556,58.1818182 64,56.8793738 64,55.2727273 L64,8.72727273 C64,7.12062618 62.6975556,5.81818182 61.0909091,5.81818182 Z" id="Shape" fill="#E6E6E6"></path>
                    <path d="M58.1818182,53.8181818 L5.81818182,53.8181818 C5.01485855,53.8181818 4.36363636,53.1669596 4.36363636,52.3636364 L4.36363636,11.6363636 C4.36363636,10.8330404 5.01485855,10.1818182 5.81818182,10.1818182 L58.1818182,10.1818182 C58.9851415,10.1818182 59.6363636,10.8330404 59.6363636,11.6363636 L59.6363636,52.3636364 C59.6363636,53.1669596 58.9851415,53.8181818 58.1818182,53.8181818 Z" id="Shape" fill="#FFFFFF"></path>
                    <circle id="Oval" fill="#EFD358" cx="27.6363636" cy="21.8181818" r="4.36363636"></circle>
                    <path d="M35.5229091,46.545455 L22.8465455,33.8807273 C22.5614016,33.5915959 22.167148,33.4367483 21.7614545,33.4545455 C21.3571564,33.4702716 20.9776778,33.6536863 20.7141818,33.9607273 L11.9869091,44.1425455 C11.6161372,44.5737203 11.5306406,45.1814258 11.7680527,45.6981647 C12.0054648,46.2149035 12.522241,46.5458988 13.0909091,46.5454545 L35.5229091,46.545455 Z" id="Shape" fill="#4DA34D"></path>
                    <path d="M52.0858182,44.2356364 L40.4494545,28.2356364 C40.1807569,27.8648382 39.7531333,27.6422212 39.2952748,27.634781 C38.8374163,27.6273408 38.4027854,27.8359461 38.1221818,28.1978182 L23.8429091,46.5454546 L50.9090909,46.5454545 C51.4561624,46.5455306 51.95701,46.238637 52.2053444,45.751177 C52.4536789,45.263717 52.4074963,44.6781412 52.0858182,44.2356364 Z" id="Shape" fill="#72C472"></path>
                </g>
            </g>
        </g>
    </g>
</svg>