<?xml version="1.0" encoding="UTF-8" standalone="no"?>
<svg width="204px" height="147px" viewBox="0 0 204 147" version="1.1" xmlns="http://www.w3.org/2000/svg" xmlns:xlink="http://www.w3.org/1999/xlink">
    <!-- Generator: Sketch 41.2 (35397) - http://www.bohemiancoding.com/sketch -->
    <title>Group</title>
    <desc>Created with Sketch.</desc>
    <defs>
        <polygon id="path-1" points="0 0 198 0 198 112.480482 1.74283866 112.480482"></polygon>
        <filter x="-50%" y="-50%" width="200%" height="200%" filterUnits="objectBoundingBox" id="filter-2">
            <feOffset dx="0" dy="2" in="SourceAlpha" result="shadowOffsetOuter1"></feOffset>
            <feGaussianBlur stdDeviation="1.5" in="shadowOffsetOuter1" result="shadowBlurOuter1"></feGaussianBlur>
            <feComposite in="shadowBlurOuter1" in2="SourceAlpha" operator="out" result="shadowBlurOuter1"></feComposite>
            <feColorMatrix values="0 0 0 0 0   0 0 0 0 0   0 0 0 0 0  0 0 0 0.159391984 0" type="matrix" in="shadowBlurOuter1"></feColorMatrix>
        </filter>
        <mask id="mask-3" maskContentUnits="userSpaceOnUse" maskUnits="objectBoundingBox" x="0" y="0" width="198" height="112.480482" fill="white">
            <use xlink:href="#path-1"></use>
        </mask>
        <rect id="path-4" x="44.7664671" y="16.827386" width="39.0090299" height="39.1018871" rx="3.2"></rect>
        <mask id="mask-5" maskContentUnits="userSpaceOnUse" maskUnits="objectBoundingBox" x="0" y="0" width="39.0090299" height="39.1018871" fill="white">
            <use xlink:href="#path-4"></use>
        </mask>
    </defs>
    <g id="Page-1" stroke="none" stroke-width="1" fill="none" fill-rule="evenodd">
        <g id="1.-citizenship-ID-Type-Copy-3" transform="translate(-86.000000, -260.000000)">
            <g id="Group" transform="translate(89.000000, 261.000000)">
                <g id="Rectangle-1-Copy">
                    <use fill="black" fill-opacity="1" filter="url(#filter-2)" xlink:href="#path-1"></use>
                    <use stroke="#CCCCCC" mask="url(#mask-3)" stroke-width="1.6" fill="#FFFFFF" fill-rule="evenodd" xlink:href="#path-1"></use>
                </g>
                <g id="Group-3" opacity="0.2" transform="translate(12.000000, 22.000000)" fill="#D8D8D8">
                    <rect id="Rectangle-11" x="55.1618683" y="4" width="118.838132" height="4"></rect>
                    <rect id="Rectangle-11-Copy" x="55.1618683" y="28" width="118.838132" height="4"></rect>
                    <rect id="Rectangle-11-Copy-2" x="55.1618683" y="56" width="118.838132" height="4"></rect>
                    <circle id="Oval" cx="22.5" cy="22.5" r="22.5"></circle>
                </g>
                <g id="Group-2" transform="translate(96.686057, 81.341509) rotate(-270.000000) translate(-96.686057, -81.341509) translate(32.186057, 44.841509)">
                    <path d="M0,6.39631383 C0,2.86372725 2.87491378,0 6.39645777,0 L122.589985,0 C126.122651,0 128.986443,2.86487023 128.986443,6.39631383 L128.986443,66.3991765 C128.986443,69.9317631 126.111529,72.7954903 122.589985,72.7954903 L6.39645777,72.7954903 C2.86379169,72.7954903 0,69.9306201 0,66.3991765 L0,6.39631383 Z M16.2587954,4.34599942 L114.895487,4.34599942 L114.895487,68.4494909 L16.2587954,68.4494909 L16.2587954,4.34599942 Z" id="Combined-Shape-Copy" fill="#E4E4E4"></path>
                    <ellipse id="Oval-2-Copy" stroke="#FFFFFF" stroke-width="0.8" cx="121.847655" cy="36.3981632" rx="4.33567876" ry="4.34599942"></ellipse>
                    <use id="Rectangle-5-Copy" stroke="#000000" mask="url(#mask-5)" stroke-width="3.2" xlink:href="#path-4"></use>
                </g>
                <rect id="Rectangle-6-Copy-4" fill="#FFFFFF" x="87.5336073" y="59.9577954" width="19.5105544" height="4.34599942"></rect>
                <rect id="Rectangle-6-Copy-5" fill="#FFFFFF" x="87.5336073" y="97.6190878" width="19.5105544" height="4.34599942"></rect>
                <rect id="Rectangle-6-Copy-6" fill="#FFFFFF" x="106.326409" y="78.7815517" width="19.5105544" height="4.34599942"></rect>
                <rect id="Rectangle-6-Copy-7" fill="#FFFFFF" x="67.9551515" y="79.5828558" width="19.5105544" height="4.34599942"></rect>
            </g>
        </g>
    </g>
</svg>