<?xml version="1.0" encoding="UTF-8" standalone="no"?>
<svg width="45px" height="38px" viewBox="0 0 45 38" version="1.1" xmlns="http://www.w3.org/2000/svg" xmlns:xlink="http://www.w3.org/1999/xlink">
    <!-- Generator: Sketch 42 (36781) - http://www.bohemiancoding.com/sketch -->
    <title>Group</title>
    <desc>Created with Sketch.</desc>
    <defs>
        <path d="M30.8434527,37.9477124 L30.8323058,37.9477124 L30.8323058,37.9477124 L3.79831649,37.867411 C2.78952315,37.867411 1.83646426,37.5129769 1.12027673,36.8788723 C0.395729029,36.2336916 -0.00277220459,35.3752966 1.4517328e-05,34.4615214 L0.0501755118,14.2781644 C0.0557489556,12.4063096 1.76122277,10.8888889 3.85683765,10.8888889 L3.86519781,10.8888889 L30.9019738,10.9664213 C31.8884734,10.9691904 32.824812,11.3070103 33.535426,11.9189628 L43.8490838,21.9926427 C44.5847784,22.6267474 44.9972133,23.4962184 45,24.4293767 C45,25.3597661 44.5875652,26.226468 43.837937,26.8744178 L33.5019854,36.9813259 C32.774651,37.6098925 31.8355257,37.9477124 30.8434527,37.9477124 Z" id="path-1"></path>
        <mask id="mask-2" maskContentUnits="userSpaceOnUse" maskUnits="objectBoundingBox" x="0" y="0" width="45" height="27.0588235" fill="white">
            <use xlink:href="#path-1"></use>
        </mask>
        <path d="M6,37.9477124 L30.7050018,37.9477124 L30.3740794,35.9737145 C29.2232283,31.7595987 25.859845,28.9281046 22.0060263,28.9281046 L14.5965514,28.9281046 C10.7427327,28.9281046 7.38213598,31.7595987 6.23128485,35.9737145 L6,37.9477124 Z" id="path-3"></path>
        <mask id="mask-4" maskContentUnits="userSpaceOnUse" maskUnits="objectBoundingBox" x="0" y="0" width="24.7050018" height="9.01960784" fill="white">
            <use xlink:href="#path-3"></use>
        </mask>
    </defs>
    <g id="Version-4" stroke="none" stroke-width="1" fill="none" fill-rule="evenodd">
        <g id="2.2-Question" transform="translate(-252.000000, -383.000000)">
            <g id="For-me" transform="translate(169.000000, 171.000000)">
                <g id="Group-2" transform="translate(77.000000, 44.000000)">
                    <g id="Group" transform="translate(6.000000, 168.000000)">
                        <use id="Stroke-84" stroke="#FFC820" mask="url(#mask-2)" stroke-width="1.5" fill="#FFE490" xlink:href="#path-1"></use>
                        <path d="M28.0104564,15.8730466 C28.0104564,23.6076028 23.4198607,29.8768121 17.7552282,29.8768121 C12.0905957,29.8768121 7.5,23.6076028 7.5,15.8730466 C7.5,8.13849041 12.0905957,1.86928105 17.7552282,1.86928105 C23.4198607,1.86928105 28.0104564,8.13849041 28.0104564,15.8730466" id="Fill-86" stroke="#FFC820" stroke-width="0.75" fill="#FFF0C3"></path>
                        <use id="Fill-92" stroke="#FFC820" mask="url(#mask-4)" stroke-width="1.5" fill="#FFF1C4" xlink:href="#path-3"></use>
                        <path d="M16.983194,33.9260342 C14.235006,33.9260342 12,31.6844191 12,28.9281046 L13.1665778,28.9281046 C13.1665778,31.0403416 14.8771846,32.7560067 16.983194,32.7560067 C19.0892034,32.7560067 20.7998103,31.0403416 20.7998103,28.9281046 L21.966388,28.9281046 C21.966388,31.6844191 19.7313821,33.9260342 16.983194,33.9260342" id="Fill-94" fill="#FFC820"></path>
                        <path d="M12.7936094,16.8008054 L12.7291111,16.8008054 C12.3281,16.8008054 12,16.4745478 12,16.0695383 L12,14.6238794 C12,14.2216825 12.3281,13.8954248 12.7291111,13.8954248 L12.7936094,13.8954248 C13.1946205,13.8954248 13.5227205,14.2216825 13.5227205,14.6238794 L13.5227205,16.0695383 C13.5227205,16.4745478 13.1946205,16.8008054 12.7936094,16.8008054" id="Fill-96" fill="#FFC820"></path>
                        <path d="M21.7936094,16.8008054 L21.7291111,16.8008054 C21.3281,16.8008054 21,16.4745478 21,16.0695383 L21,14.6238794 C21,14.2216825 21.3281,13.8954248 21.7291111,13.8954248 L21.7936094,13.8954248 C22.1946205,13.8954248 22.5227205,14.2216825 22.5227205,14.6238794 L22.5227205,16.0695383 C22.5227205,16.4745478 22.1946205,16.8008054 21.7936094,16.8008054" id="Fill-98" fill="#FFC820"></path>
                        <path d="M25.810697,25.3565338 C26.2649893,24.6449547 26.6575876,23.8714991 26.980079,23.0474172 C27.5269123,21.5989458 28.0344858,19.5148345 27.9251192,16.9019608 L27.9223149,16.9019608 L26.8987551,16.9019608 C26.8987551,16.9019608 26.478114,19.815779 25.6200064,21.2811259 C25.401273,21.6523846 24.8965038,21.8098883 24.4590371,21.649572 C23.1690713,21.1770609 20.2161713,20.1392241 17.7203679,20.1392241 C15.2217602,20.1392241 12.2716645,21.1770609 10.9816987,21.649572 C10.544232,21.8098883 10.0394628,21.6523846 9.82072943,21.2811259 C8.95981747,19.815779 8.53917644,16.9019608 8.53917644,16.9019608 L7.51561661,16.9019608 L7.51561661,16.9019608 C7.40344567,19.5148345 7.91382345,21.6017584 8.46065678,23.0502298 C8.78034396,23.8714991 9.17294225,24.6449547 9.62723456,25.3565338 C9.63003883,25.3565338 9.63845165,25.342471 9.65527729,25.3199705 C9.65808157,25.3537213 9.66649439,25.3846595 9.66929866,25.4184103 C11.5425534,28.3125406 14.450585,30.1716466 17.7203679,30.1716466 C20.9873465,30.1716466 23.8981824,28.3125406 25.7714371,25.4184103 C25.7742414,25.3846595 25.7798499,25.3537213 25.7826542,25.3199705 C25.7994799,25.342471 25.810697,25.3565338 25.810697,25.3565338" id="Fill-100" fill="#FFC820"></path>
                        <path d="M20.000121,27.9579633 L15.7993193,27.9579633 C14.8767134,27.9579633 14.0690826,27.3363863 13.8279151,26.4448029 L13.5727262,25.5025933 C13.2193877,24.1975627 14.1980792,22.9150327 15.5441305,22.9150327 L20.2553099,22.9150327 C21.6013612,22.9150327 22.5800527,24.1975627 22.2267142,25.5025933 L21.9715253,26.4448029 C21.7303578,27.3363863 20.922727,27.9579633 20.000121,27.9579633" id="Fill-102" fill="#FFF0C3"></path>
                        <path d="M7.85110684,19.9874425 L7.09675726,19.9874425 C5.6637735,19.9874425 4.5,18.8174151 4.5,17.380194 L4.5,16.4998608 C4.5,15.0654522 5.6637735,13.8954248 7.09675726,13.8954248 L7.75295726,13.8954248 L7.71930598,14.2188699 C7.62956923,15.0513894 7.6323735,15.9120346 7.63798205,16.8204934 L7.63798205,17.3323803 C7.63798205,18.1030234 7.69406752,18.8849167 7.80343419,19.6527472 L7.85110684,19.9874425 Z" id="Fill-104" fill="#FFF0C3"></path>
                        <path d="M7.09675726,14.4804385 C5.98626496,14.4804385 5.08328889,15.3860848 5.08328889,16.4998608 L5.08328889,17.380194 C5.08328889,18.4967826 5.98626496,19.4024288 7.09675726,19.4024288 L7.18368974,19.4024288 C7.09675726,18.7161628 7.05469316,18.021459 7.05469316,17.3323803 L7.05469316,16.8233059 C7.05188889,16.0104744 7.04908462,15.2398313 7.11077863,14.4804385 L7.09675726,14.4804385 Z M7.85110684,19.9874425 L7.09675726,19.9874425 C5.6637735,19.9874425 4.5,18.8174151 4.5,17.380194 L4.5,16.4998608 C4.5,15.0654522 5.6637735,13.8954248 7.09675726,13.8954248 L7.75295726,13.8954248 L7.71930598,14.2188699 C7.62956923,15.0513894 7.6323735,15.9120346 7.63798205,16.8204934 L7.63798205,17.3323803 C7.63798205,18.1030234 7.69406752,18.8849167 7.80343419,19.6527472 L7.85110684,19.9874425 Z" id="Fill-104" fill="#FFC820"></path>
                        <path d="M27.7571538,19.9874425 L27,19.9874425 L27.0476726,19.6527472 C27.1598436,18.8849167 27.2159291,18.105836 27.2159291,17.3323803 C27.2159291,17.0539363 27.2187333,16.7811174 27.2215376,16.5139237 C27.2299504,15.7432806 27.2383632,15.0120135 27.1710607,14.2132448 L27.1458222,13.8954248 L27.7571538,13.8954248 C29.1873333,13.8954248 30.3539111,15.0654522 30.3539111,16.5026734 L30.3539111,17.3830065 C30.3539111,18.8174151 29.1873333,19.9874425 27.7571538,19.9874425" id="Path" fill="#FFF0C3"></path>
                        <path d="M27.6702214,19.4024288 L27.7571538,19.4024288 C28.8676462,19.4024288 29.7706222,18.4967826 29.7706222,17.3830065 L29.7706222,16.5026734 C29.7706222,15.3945225 28.876059,14.4916888 27.7767838,14.4804385 C27.8188479,15.18358 27.810435,15.8360953 27.8048265,16.5195488 C27.7992179,16.7867426 27.7964137,17.0539363 27.7964137,17.3323803 C27.7964137,18.021459 27.7543496,18.7161628 27.6702214,19.4024288 M27.7571538,19.9874425 L27,19.9874425 L27.0476726,19.6527472 C27.1598436,18.8849167 27.2159291,18.105836 27.2159291,17.3323803 C27.2159291,17.0539363 27.2187333,16.7811174 27.2215376,16.5139237 C27.2299504,15.7432806 27.2383632,15.0120135 27.1710607,14.2132448 L27.1458222,13.8954248 L27.7571538,13.8954248 C29.1873333,13.8954248 30.3539111,15.0654522 30.3539111,16.5026734 L30.3539111,17.3830065 C30.3539111,18.8174151 29.1873333,19.9874425 27.7571538,19.9874425" id="Fill-106" fill="#FFC820"></path>
                        <path d="M17.4450438,1.24492515 C12.0753687,1.71887461 9.89055608,6.6787924 9.18305456,8.86785635 C9.02827571,8.90970514 8.89607776,8.94711927 8.7878145,8.97865233 C8.56908116,9.04334135 8.39802048,9.22897069 8.33913074,9.46803879 L7.52308715,12.7699911 C7.39969911,13.2706279 7.78949313,13.7375138 8.24939398,13.6362614 C10.0244991,13.2425022 13.9364607,12.5027974 18.2129777,12.5027974 C22.4894948,12.5027974 26.4014564,13.2425022 28.1765615,13.6362614 C28.6364624,13.7375138 29.0290607,13.2706279 28.9056726,12.7699911 L28.0868248,9.46803879 C28.027935,9.22897069 27.8568743,9.04334135 27.638141,8.97865233 C27.5439936,8.95123069 27.431746,8.91936161 27.3022886,8.88399628 C26.6263641,6.70292323 24.5034026,1.71843194 19.1261876,1.2446951 C19.1266547,1.23311716 19.1268905,1.22147824 19.1268905,1.20978284 C19.1268905,0.742896901 18.7511178,0.366013072 18.2856084,0.366013072 C17.8229033,0.366013072 17.4443264,0.742896901 17.4443264,1.20978284 C17.4443264,1.2215557 17.4445671,1.23327134 17.4450438,1.24492515 L17.4450438,1.24492515 Z" id="Combined-Shape" fill="#FFC820"></path>
                        <polygon id="Fill-112" fill="#FFC820" points="7.5 17.5122876 8.53197265 17.5122876 8.53197265 16.9019608 7.5 16.9019608"></polygon>
                        <polygon id="Fill-114" fill="#FFC820" points="27 17.5122876 28.0319726 17.5122876 28.0319726 16.9019608 27 16.9019608"></polygon>
                        <path d="M17.5401887,25.0032692 C16.7858391,25.0032692 16.5502801,24.6826367 16.5250417,24.6460734 C16.4801733,24.5785718 16.496999,24.4885697 16.5643015,24.4435686 C16.6316041,24.3985676 16.7213408,24.415443 16.7662092,24.480132 C16.7718178,24.4885697 16.9512913,24.7107624 17.5401887,24.7107624 C18.1346947,24.7107624 18.3141682,24.4829446 18.3141682,24.480132 C18.3618408,24.415443 18.4543819,24.4013801 18.5160759,24.4463812 C18.5805742,24.4941948 18.6002041,24.5813844 18.5553357,24.6460734 C18.5300972,24.6826367 18.2945383,25.0032692 17.5401887,25.0032692" id="Fill-115" fill="#FFC820"></path>
                    </g>
                </g>
            </g>
        </g>
    </g>
</svg>