<svg xmlns="http://www.w3.org/2000/svg" width="79" height="58" viewBox="0 0 79 58">
  <g fill="none" fill-rule="evenodd" transform="rotate(9 125.09 -9.619)">
    <rect width="4" height="31" x="76" y="35" fill="#61B2E7" rx="2"/>
    <path stroke="#61B2E7" stroke-width="4" d="M68.6055749,41.2847449 L46.0076535,52.1842444 L21.9764324,42.054357 L20,42.9873671 L20,56.5027949 L45.1610747,67.1830375 C45.6946955,67.4095461 46.3003437,67.3933765 46.8211183,67.1387177 L71,55.315246 L71,42.3011181 L68.6055749,41.2847449 Z"/>
    <path stroke="#61B2E7" stroke-width="4" d="M38.7576017,16.6579715 C38.1874939,16.6579715 37.644483,16.901273 37.2650108,17.3267418 L11.400146,46.3267418 C11.0733405,46.69316 10.8927368,47.1669887 10.8927368,47.6579715 C10.8927368,48.762541 11.7881673,49.6579715 12.8927368,49.6579715 L52.1399843,49.6579715 C52.7196888,49.6579715 53.2708729,49.4064418 53.6507454,48.9685443 L78.8080068,19.9685443 C79.1235321,19.6048229 79.2972458,19.1394789 79.2972458,18.6579715 C79.2972458,17.553402 78.4018153,16.6579715 77.2972458,16.6579715 L38.7576017,16.6579715 Z" transform="rotate(23 45.014 33.158)"/>
  </g>
</svg>
