<svg xmlns="http://www.w3.org/2000/svg" width="38" height="29" viewBox="0 0 38 29">
  <g fill="none" fill-rule="evenodd" transform="scale(-1 1) rotate(15 27.02 -143.371)">
    <rect width="1.934" height="15.057" x="36.747" y="17" fill="#61B2E7" rx=".967"/>
    <path stroke="#61B2E7" stroke-width="1.92" d="M33.1968107,20.0287611 L22.2453642,25.3349064 L10.6497938,20.4248046 L9.6632967,20.893218 L9.6632967,27.477013 L21.8210005,32.6376521 C22.0778308,32.7466701 22.3693839,32.7385589 22.6197557,32.6154301 L34.3367033,26.8532256 L34.3367033,20.5126168 L33.1968107,20.0287611 Z"/>
    <path stroke="#61B2E7" stroke-width="1.92" d="M18.7362344,8.07958615 C18.4618289,8.07958615 18.2005401,8.1970127 18.0183535,8.40221111 L5.47167724,22.5336397 C5.31570183,22.7093161 5.2295582,22.9360881 5.2295582,23.1710147 C5.2295582,23.7012081 5.65936484,24.1310147 6.1895582,24.1310147 L25.2143564,24.1310147 C25.4933667,24.1310147 25.7585734,24.0096294 25.9409316,23.7984607 L38.1443595,9.66703214 C38.2949349,9.49266764 38.3777843,9.26996825 38.3777843,9.03958615 C38.3777843,8.50939279 37.9479777,8.07958615 37.4177843,8.07958615 L18.7362344,8.07958615 Z" transform="rotate(23 21.765 16.105)"/>
  </g>
</svg>
