<svg xmlns="http://www.w3.org/2000/svg" width="42" height="27" viewBox="0 0 42 27">
  <g fill="none" fill-rule="evenodd">
    <polygon fill="#FFDA3E" points="32.5 14.25 26.916 17.186 27.982 10.968 23.465 6.564 29.708 5.657 32.5 0 35.292 5.657 41.535 6.564 37.018 10.968 38.084 17.186"/>
    <polygon fill="#FFEEBC" points="3.804 21 1.453 22.236 1.902 19.618 0 17.764 2.629 17.382 3.804 15 4.98 17.382 7.608 17.764 5.706 19.618 6.155 22.236"/>
    <polygon fill="#FFEEBC" points="35.753 25.342 34.051 26.236 34.376 24.342 33 23 34.902 22.724 35.753 21 36.603 22.724 38.506 23 37.129 24.342 37.454 26.236"/>
  </g>
</svg>
