<svg width="20" height="25" viewBox="0 0 20 25" fill="none" xmlns="http://www.w3.org/2000/svg">
<path fill-rule="evenodd" clip-rule="evenodd" d="M0.608481 23.5041C0.612021 24.0899 1.0284 24.5697 1.58732 24.6904C1.60612 24.6945 1.62615 24.6928 1.64802 24.6911C1.69838 24.6869 1.75848 24.682 1.83573 24.744L18.671 24.7388C19.0084 24.6816 19.297 24.5489 19.5369 24.3407C19.7903 24.0704 19.9194 23.7733 19.9243 23.4494L19.9091 1.54221C19.9189 0.894372 19.3297 0.312177 18.6818 0.30231L1.78443 0.294178C1.46051 0.289245 1.17188 0.421923 0.918539 0.692213C0.678604 0.900401 0.536058 1.25961 0.531125 1.58353L0.608481 23.5041ZM3.10877 22.159L3.06745 2.78106L17.4222 2.82523L17.4769 22.1411L3.10877 22.159ZM5.97993 8.29462C5.98851 8.89608 6.32052 9.37901 6.72149 9.37329L13.9817 9.2697C14.3826 9.26398 14.7007 8.77176 14.6922 8.17031C14.6836 7.56886 14.3516 7.08592 13.9506 7.09164L6.69041 7.19524C6.28944 7.20096 5.97135 7.69317 5.97993 8.29462ZM6.78378 13.7294C6.38281 13.7351 6.05081 13.2522 6.04222 12.6507C6.03364 12.0492 6.35173 11.557 6.7527 11.5513L14.0129 11.4477C14.4139 11.442 14.7459 11.9249 14.7544 12.5264C14.763 13.1278 14.4449 13.6201 14.044 13.6258L6.78378 13.7294ZM6.10468 17.0071C6.11326 17.6086 6.44526 18.0915 6.84623 18.0858L14.1064 17.9822C14.5074 17.9765 14.8255 17.4842 14.8169 16.8828C14.8083 16.2813 14.4763 15.7984 14.0753 15.8041L6.81516 15.9077C6.41419 15.9134 6.09609 16.4056 6.10468 17.0071Z" fill="#DEDEDE"/>
</svg>
