<svg width="24" height="24" viewBox="0 0 24 24" fill="none" xmlns="http://www.w3.org/2000/svg">
<rect width="24" height="24" fill="white"/>
<path fill-rule="evenodd" clip-rule="evenodd" d="M12 21C16.9706 21 21 16.9706 21 12C21 7.02944 16.9706 3 12 3C7.02944 3 3 7.02944 3 12C3 16.9706 7.02944 21 12 21Z" fill="#EAEBED"/>
<path d="M12.415 9.125C12.145 9.125 11.93 9.06 11.77 8.93C11.61 8.79 11.53 8.605 11.53 8.375C11.53 8.065 11.65 7.8 11.89 7.58C12.13 7.36 12.415 7.25 12.745 7.25C13.035 7.25 13.245 7.34 13.375 7.52C13.505 7.69 13.57 7.865 13.57 8.045C13.57 8.365 13.455 8.625 13.225 8.825C13.005 9.025 12.735 9.125 12.415 9.125ZM12.055 15.635C12.025 15.755 12.01 15.845 12.01 15.905C12.01 15.995 12.055 16.04 12.145 16.04C12.205 16.04 12.275 16.025 12.355 15.995C12.445 15.955 12.53 15.915 12.61 15.875C12.69 15.825 12.765 15.785 12.835 15.755C12.905 15.715 12.96 15.695 13 15.695C13.08 15.695 13.14 15.74 13.18 15.83C13.23 15.91 13.26 15.99 13.27 16.07C13.11 16.18 12.92 16.3 12.7 16.43C12.49 16.56 12.27 16.68 12.04 16.79C11.82 16.9 11.6 16.99 11.38 17.06C11.17 17.14 10.985 17.18 10.825 17.18C10.655 17.18 10.51 17.145 10.39 17.075C10.28 17.005 10.225 16.885 10.225 16.715C10.225 16.655 10.23 16.6 10.24 16.55C10.25 16.49 10.26 16.44 10.27 16.4L11.23 11.825C11.26 11.675 11.235 11.6 11.155 11.6C11.125 11.6 11.08 11.615 11.02 11.645C10.96 11.665 10.89 11.69 10.81 11.72C10.74 11.75 10.665 11.78 10.585 11.81C10.515 11.83 10.455 11.84 10.405 11.84C10.315 11.84 10.245 11.795 10.195 11.705C10.155 11.615 10.125 11.53 10.105 11.45C10.295 11.35 10.52 11.235 10.78 11.105C11.05 10.975 11.31 10.86 11.56 10.76C11.82 10.65 12.055 10.56 12.265 10.49C12.475 10.41 12.625 10.37 12.715 10.37C12.795 10.37 12.87 10.39 12.94 10.43C13.01 10.47 13.045 10.54 13.045 10.64C13.045 10.67 13.04 10.71 13.03 10.76C13.03 10.81 13.025 10.86 13.015 10.91L12.055 15.635Z" fill="#7E7E7E"/>
</svg>
