<svg width="12" height="12" viewBox="0 0 12 12" fill="none" xmlns="http://www.w3.org/2000/svg">
<path d="M9.84031 -4.30134e-07C10.4529 -4.5691e-07 10.966 0.225714 11.3796 0.677143C11.7932 1.12857 12 1.68857 12 2.35714C12 3.12857 11.7382 3.8 11.2147 4.37143L5.12042 11.0314C4.51832 11.6771 3.8089 12 2.99215 12C2.15969 12 1.45288 11.6857 0.871728 11.0571C0.290576 10.4286 -1.02285e-07 9.66 -1.42e-07 8.75143C-1.81465e-07 7.84857 0.295811 7.06857 0.887434 6.41143L5.6466 1.22571C5.69895 1.16857 5.75654 1.14 5.81937 1.14C5.90314 1.14 6.02487 1.22714 6.18455 1.40143C6.34424 1.57571 6.42408 1.70857 6.42408 1.8C6.42408 1.87429 6.39791 1.94 6.34555 1.99714L1.57853 7.19143C1.17539 7.64286 0.973822 8.16 0.973822 8.74286C0.973822 9.34857 1.17016 9.86 1.56283 10.2771C1.9555 10.6943 2.42932 10.9029 2.98429 10.9029C3.53403 10.9029 4.00785 10.6857 4.40576 10.2514L10.5079 3.6C10.8377 3.24 11.0026 2.82571 11.0026 2.35714C11.0026 1.99143 10.8927 1.68857 10.6728 1.44857C10.4529 1.20857 10.1754 1.08857 9.84031 1.08857C9.41099 1.08857 9.03141 1.26857 8.70157 1.62857L4.13874 6.60857C4.01309 6.75714 3.95026 6.92857 3.95026 7.12286C3.95026 7.28857 4 7.42571 4.09948 7.53429C4.19895 7.64286 4.32461 7.69714 4.47644 7.69714C4.64398 7.69714 4.79843 7.62571 4.93979 7.48286L8.15968 3.96857C8.21204 3.91143 8.26963 3.88286 8.33246 3.88286C8.41623 3.88286 8.53927 3.97143 8.70157 4.14857C8.86387 4.32571 8.94503 4.46 8.94503 4.55143C8.94503 4.62 8.91885 4.68286 8.86649 4.74L5.6466 8.25429C5.32722 8.61429 4.93717 8.79429 4.47644 8.79429C4.04712 8.79429 3.68325 8.63143 3.38482 8.30571C3.08639 7.98 2.93717 7.58286 2.93717 7.11429C2.93717 6.61143 3.10209 6.18571 3.43194 5.83714L7.99476 0.857143C8.50785 0.285715 9.12304 -3.98781e-07 9.84031 -4.30134e-07Z" fill="#2666B4"/>
</svg>
