<svg width="31" height="26" viewBox="0 0 31 26" fill="none" xmlns="http://www.w3.org/2000/svg">
<g clip-path="url(#clip0)">
<path d="M12.45 23.69C6.92 22.21 3.41 16.8 4.21 11.21L6.19 13.19L6.9 12.48L3.45 9.03997L0 12.49L0.71 13.2L2.69 11.22C1.91 17.48 5.87 23.49 12.06 25.15C13.16 25.44 14.27 25.59 15.37 25.59C18.83 25.59 22.2 24.18 24.66 21.59L23.57 20.56C20.72 23.56 16.45 24.77 12.45 23.69ZM12.7 14.7H12C11.8 14.7 11.67 14.83 11.67 15.03V15.52C11.67 16.37 11.96 17.08 12.52 17.63C13.09 18.18 13.87 18.5 14.74 18.5H14.76L14.74 19.63C14.74 19.83 14.87 19.96 15.07 19.96H15.76C15.96 19.96 16.09 19.83 16.09 19.63L15.98 18.61C16.95 18.51 17.71 18.19 18.25 17.65C18.8 17.11 19.08 16.41 19.08 15.57C19.08 14.97 18.94 14.46 18.65 14.04C18.37 13.63 17.99 13.28 17.53 13C17.09 12.73 16.49 12.43 15.76 12.11C15.06 11.82 14.54 11.58 14.2 11.4C13.88 11.23 13.64 11.03 13.47 10.81C13.31 10.59 13.23 10.32 13.23 9.97997C13.23 9.44997 13.39 9.06997 13.73 8.79997C14.07 8.51997 14.58 8.37997 15.24 8.37997C15.99 8.37997 16.58 8.55997 16.99 8.91997C17.4 9.27997 17.6 9.71997 17.6 10.28V10.56C17.6 10.76 17.73 10.89 17.93 10.89H18.67C18.87 10.89 19 10.76 19 10.56V10.2C19 9.33997 18.72 8.62997 18.17 8.06997C17.61 7.51997 16.85 7.19997 16 7.19997H15.99L16.01 5.95997C16.01 5.75997 15.88 5.62997 15.68 5.62997H15.01C14.81 5.62997 14.68 5.75997 14.68 5.95997L14.79 7.06997C13.89 7.15997 13.17 7.45997 12.65 7.94997C12.13 8.45997 11.86 9.14997 11.86 9.98997C11.86 10.59 12 11.09 12.27 11.49C12.54 11.88 12.89 12.2 13.31 12.45C13.72 12.69 14.29 12.96 15.06 13.28C15.75 13.58 16.29 13.84 16.65 14.07C17 14.28 17.27 14.52 17.44 14.76C17.6 14.99 17.68 15.28 17.68 15.6C17.68 16.12 17.5 16.52 17.14 16.83C16.78 17.14 16.24 17.3 15.53 17.3C14.74 17.3 14.11 17.12 13.67 16.78C13.23 16.44 13.02 16.01 13.02 15.45V15.03C13.03 14.83 12.9 14.7 12.7 14.7ZM30.14 11.03L28.15 13.02C28.26 7.22997 24.39 1.95997 18.68 0.429971C14.15 -0.780029 9.32 0.579971 6.09 3.98997L7.18 5.01997C10.03 2.00997 14.29 0.809971 18.3 1.87997C23.35 3.22997 26.77 7.89997 26.66 13.02L24.67 11.03L23.96 11.74L27.41 15.19L30.86 11.74L30.14 11.03Z" fill="#8EB481"/>
</g>
<defs>
<clipPath id="clip0">
<rect width="30.85" height="25.58" fill="white"/>
</clipPath>
</defs>
</svg>
