<svg width="20" height="21" viewBox="0 0 20 21" fill="none" xmlns="http://www.w3.org/2000/svg">
<path d="M9.54236 6.08478V7.29691C11.1787 7.29691 12.5121 8.63024 12.5121 10.2666C12.5121 11.903 11.1787 13.2363 9.54236 13.2363C7.906 13.2363 6.57267 11.903 6.57267 10.2666C6.57267 9.50297 6.86358 8.77569 7.38479 8.21812L6.51206 7.38175C5.77267 8.16963 5.36055 9.18781 5.36055 10.2666C5.36055 12.5696 7.23933 14.4484 9.54236 14.4484C11.8454 14.4484 13.7242 12.5696 13.7242 10.2666C13.7242 7.96357 11.8454 6.08478 9.54236 6.08478ZM17.6272 11.0787C17.6636 10.7999 17.6757 10.5211 17.6757 10.2666C17.6757 10.0121 17.6636 9.73327 17.6272 9.45448L18.3302 8.79994C19.1302 8.06054 19.3121 6.73933 18.7545 5.806L18.1242 4.73933C17.5787 3.81812 16.3424 3.32115 15.3121 3.61206L14.3302 3.87872C13.8696 3.55145 13.3727 3.27266 12.8272 3.04236L12.5969 2.13327C12.3302 1.07872 11.2757 0.266602 10.1969 0.266602H8.8757C7.79691 0.266602 6.75448 1.07872 6.4757 2.12115L6.24539 3.03024C5.71206 3.26054 5.21509 3.53933 4.75448 3.8666L3.77267 3.58781C2.74236 3.30903 1.506 3.806 0.960545 4.72721L0.318121 5.79387C-0.239455 6.72721 -0.0455156 8.04842 0.754484 8.78781L1.45752 9.44236C1.42115 9.73327 1.40903 9.99994 1.40903 10.2666C1.40903 10.5333 1.42115 10.7999 1.45752 11.0787L0.754484 11.7454C-0.0455156 12.4848 -0.227334 13.806 0.330242 14.7393L0.960545 15.806C1.506 16.7272 2.74236 17.2242 3.77267 16.9333L4.75448 16.6666C5.21509 16.9939 5.71206 17.2727 6.25751 17.503L6.48782 18.4121C6.75448 19.4545 7.80903 20.2666 8.88782 20.2666H10.209C11.2878 20.2666 12.3302 19.4545 12.609 18.4121L12.8393 17.503C13.3727 17.2727 13.8696 16.9939 14.3424 16.6666L15.3242 16.9454C16.3545 17.2363 17.5908 16.7393 18.1363 15.8181L18.7666 14.7515C19.3242 13.8181 19.1424 12.4969 18.3424 11.7575L17.6272 11.0787ZM15.8575 10.2666C15.8575 10.5818 15.8212 10.909 15.7605 11.2727C15.7121 11.5757 15.809 11.8787 16.0393 12.0848L17.0939 13.0666C17.2636 13.2242 17.3242 13.5999 17.203 13.806L16.5727 14.8727C16.4393 15.0908 16.0515 15.2484 15.809 15.1757L14.403 14.7878C14.1242 14.7151 13.8212 14.7757 13.5908 14.9575C13.0575 15.3818 12.4515 15.7211 11.7727 15.9636C11.4939 16.0605 11.2757 16.303 11.203 16.5939L10.8515 17.9515C10.7666 18.1939 10.4515 18.4484 10.1969 18.4484H8.8757C8.62115 18.4484 8.306 18.1939 8.24539 17.9515L7.89388 16.5939C7.82115 16.303 7.60297 16.0727 7.32418 15.9636C6.64539 15.7211 6.03933 15.3818 5.506 14.9575C5.34842 14.8242 5.14236 14.7636 4.9363 14.7636C4.85145 14.7636 4.77873 14.7757 4.69388 14.7999L3.28782 15.1878C3.03327 15.2605 2.65751 15.103 2.52418 14.8848L1.89388 13.8181C1.77267 13.6121 1.82115 13.2363 2.00297 13.0787L3.05751 12.0969C3.2757 11.8908 3.38479 11.5757 3.3363 11.2848C3.25145 10.909 3.22721 10.5696 3.22721 10.2666C3.22721 9.96357 3.26358 9.62418 3.32418 9.26054C3.37267 8.95751 3.2757 8.65448 3.04539 8.44842L1.99085 7.4666C1.82115 7.29691 1.76055 6.92115 1.88176 6.71509L2.51206 5.64842C2.64539 5.43024 3.03327 5.27266 3.2757 5.34539L4.68176 5.73327C4.97267 5.81812 5.2757 5.75751 5.506 5.57569C6.03933 5.15145 6.64539 4.81206 7.32418 4.56963C7.60297 4.47266 7.82115 4.23024 7.89388 3.93933L8.24539 2.58175C8.306 2.33933 8.62115 2.08478 8.8757 2.08478H10.1969C10.4515 2.08478 10.7666 2.33933 10.8272 2.58175L11.1787 3.93933C11.2515 4.23024 11.4696 4.46054 11.7484 4.56963C12.4272 4.81206 13.0333 5.15145 13.5666 5.57569C13.7969 5.75751 14.0999 5.81812 14.3787 5.74539L15.7848 5.35751C16.0393 5.28478 16.4151 5.44236 16.5484 5.66054L17.1787 6.72721C17.2999 6.93327 17.2515 7.30903 17.0696 7.4666L16.0151 8.44842C15.809 8.65448 15.7121 8.95751 15.7605 9.26054C15.8212 9.62418 15.8575 9.95145 15.8575 10.2666Z" fill="#B5BFD3"/>
</svg>
