<svg width="16" height="16" viewBox="0 0 16 16" fill="none" xmlns="http://www.w3.org/2000/svg">
<path d="M14.4902 13.2769L14.8318 13.642L15.2157 13.2828L14.8377 12.9174L14.4902 13.2769ZM13.9283 13.8026L13.5808 14.1621L13.9227 14.4926L14.2699 14.1677L13.9283 13.8026ZM10.799 10.7773L10.4574 10.4122L10.0735 10.7714L10.4514 11.1368L10.799 10.7773ZM11.3608 10.2516L11.7084 9.89211L11.3665 9.56158L11.0192 9.88648L11.3608 10.2516ZM6.72158 10.7908C4.14433 10.7908 2.09839 8.8098 2.09839 6.41828H1.09839C1.09839 9.40877 3.63991 11.7908 6.72158 11.7908V10.7908ZM2.09839 6.41828C2.09839 4.02675 4.14433 2.04578 6.72158 2.04578V1.04578C3.63991 1.04578 1.09839 3.42778 1.09839 6.41828H2.09839ZM6.72158 2.04578C9.29883 2.04578 11.3448 4.02675 11.3448 6.41828H12.3448C12.3448 3.42778 9.80324 1.04578 6.72158 1.04578V2.04578ZM11.3448 6.41828C11.3448 8.8098 9.29883 10.7908 6.72158 10.7908V11.7908C9.80324 11.7908 12.3448 9.40877 12.3448 6.41828H11.3448ZM14.1486 12.9118L13.5867 13.4375L14.2699 14.1677L14.8318 13.642L14.1486 12.9118ZM14.2758 13.4431L11.1465 10.4178L10.4514 11.1368L13.5808 14.1621L14.2758 13.4431ZM11.1406 11.1424L11.7024 10.6167L11.0192 9.88648L10.4574 10.4122L11.1406 11.1424ZM11.0133 10.6111L14.1427 13.6364L14.8377 12.9174L11.7084 9.89211L11.0133 10.6111Z" fill="#616161"/>
<path d="M4.75122 6.41833H8.69213" stroke="#616161" stroke-linecap="square"/>
<path d="M6.72168 4.54443V8.29251" stroke="#616161" stroke-linecap="square"/>
</svg>
