<?xml version="1.0" encoding="UTF-8" standalone="no"?>
<svg width="80px" height="90px" viewBox="0 0 80 90" version="1.1" xmlns="http://www.w3.org/2000/svg" xmlns:xlink="http://www.w3.org/1999/xlink">
    <!-- Generator: Sketch 43.2 (39069) - http://www.bohemiancoding.com/sketch -->
    <title>Group 17</title>
    <desc>Created with Sketch.</desc>
    <defs>
        <path d="M74.7735781,87.3786408 L5.21676126,87.3786408 L5.21676126,1.94531133e-13 C5.21676126,1.94531133e-13 55.6454534,1.98676027e-13 55.6454534,0 L74.7735781,20.0970874 L74.7735781,87.3786408 Z" id="path-1"></path>
    </defs>
    <g id="Page-1" stroke="none" stroke-width="1" fill="none" fill-rule="evenodd">
        <g id="New-NDSE_v9_Homepage_2.1_Homepage_Full_VD" transform="translate(-974.000000, -226.000000)">
            <g id="Group-14" transform="translate(855.000000, 226.000000)">
                <g id="Group-13">
                    <g id="Group-20">
                        <g id="Group-16">
                            <g id="Group-9" transform="translate(119.000000, 0.000000)">
                                <g id="Group-17">
                                    <g id="Group-21" transform="translate(-0.000000, 0.000000)">
                                        <path d="M2.01767727,90 C0.903919417,90 0,89.0224515 0,87.815534 C0,86.6086165 0.903919417,85.631068 2.01767727,85.631068 L75.3642814,85.631068 C76.4790481,85.631068 77.3819587,86.6086165 77.3819587,87.815534 C77.3819587,89.0224515 76.4790481,90 75.3642814,90 L2.01767727,90 Z" id="Fill-7" fill="#D9D9D9"></path>
                                        <g id="Fill-9">
                                            <use fill="#FFFFFF" fill-rule="evenodd" xlink:href="#path-1"></use>
                                            <path stroke="#EEEEEE" stroke-width="2" d="M73.7735781,86.3786408 L6.21676126,86.3786408 L6.21676126,1 C6.22745472,1 6.6695417,1 7.90595212,1 C10.3532531,1 10.3532531,1 13.6718152,1 C21.3544524,1 21.3544524,1 30.4311074,1 C39.8864871,1 39.8864871,1 47.7659703,1 C53.7265519,1 54.0508925,1 55.4009285,1 L73.7735781,20.4969064 L73.7735781,86.3786408 Z"></path>
                                        </g>
                                        <polygon id="Path-2" fill-opacity="0.6" fill="#F2F2F2" style="mix-blend-mode: multiply;" points="55.6454534 19.223301 74.7735781 35.8252427 74.7735781 20.0970874 66.078976 11.3592233"></polygon>
                                        <path d="M55.6454534,0 C58.0841833,1.96069145 55.6454534,19.223301 55.6454534,19.223301 C55.6454534,19.223301 71.3593563,17.6462231 74.7735781,20.0970874" id="Stroke-13" fill="#609AFF"></path>
                                    </g>
                                    <g id="Group-2" transform="translate(55.645453, 57.669903)">
                                        <path d="M9.04238619,9.96116505 L2.00679857,9.96116505 C0.898474323,9.96116505 0,10.8588518 0,11.9673196 L0,12.4986999 C0,13.6066684 0.900076922,14.5048544 2.00679857,14.5048544 L9.04238619,14.5048544 L9.04238619,21.5979692 C9.04238619,22.6993707 9.93562845,23.592233 11.038608,23.592233 L11.5673574,23.592233 C12.6698403,23.592233 13.5635793,22.6876776 13.5635793,21.5979692 L13.5635793,14.5048544 L20.5991669,14.5048544 C21.7074911,14.5048544 22.6059655,13.6071676 22.6059655,12.4986999 L22.6059655,11.9673196 C22.6059655,10.859351 21.7058885,9.96116505 20.5991669,9.96116505 L13.5635793,9.96116505 L13.5635793,2.86805022 C13.5635793,1.76664873 12.670337,0.873786408 11.5673574,0.873786408 L11.038608,0.873786408 C9.93612515,0.873786408 9.04238619,1.77834187 9.04238619,2.86805022 L9.04238619,9.96116505 Z" id="Combined-Shape-Copy" fill="#CCCCCC" style="mix-blend-mode: multiply;" opacity="0.5"></path>
                                        <path d="M9.9118464,9.08737864 L2.87625878,9.08737864 C1.76793453,9.08737864 0.86946021,9.98506544 0.86946021,11.0935332 L0.86946021,11.6249134 C0.86946021,12.732882 1.76953713,13.631068 2.87625878,13.631068 L9.9118464,13.631068 L9.9118464,20.7241828 C9.9118464,21.8255843 10.8050887,22.7184466 11.9080683,22.7184466 L12.4368176,22.7184466 C13.5393005,22.7184466 14.4330395,21.8138911 14.4330395,20.7241828 L14.4330395,13.631068 L21.4686271,13.631068 C22.5769513,13.631068 23.4754257,12.7333812 23.4754257,11.6249134 L23.4754257,11.0935332 C23.4754257,9.98556461 22.5753488,9.08737864 21.4686271,9.08737864 L14.4330395,9.08737864 L14.4330395,1.99426381 C14.4330395,0.89286232 13.5397972,0 12.4368176,0 L11.9080683,0 C10.8055854,0 9.9118464,0.90455546 9.9118464,1.99426381 L9.9118464,9.08737864 Z" id="Combined-Shape" fill="#4186EC"></path>
                                    </g>
                                </g>
                            </g>
                        </g>
                    </g>
                </g>
            </g>
        </g>
    </g>
</svg>