<svg width="72" height="65" viewBox="0 0 72 65" fill="none" xmlns="http://www.w3.org/2000/svg">
<path d="M0.109985 64.98H65.68L70.62 36.98C74.13 17.1 60.85 0.97998 40.97 0.97998H11.26L0.109985 64.98Z" fill="url(#paint0_linear)"/>
<path d="M50.74 52.98H18.12C17.97 52.98 17.83 52.91 17.74 52.8C17.64 52.69 17.6 52.54 17.63 52.39L24.51 13.39C24.55 13.15 24.76 12.98 25 12.98H43.58C43.86 12.98 44.08 13.2 44.08 13.48C44.08 13.76 43.86 13.98 43.58 13.98H25.42L18.72 51.98H50.32L54.93 25.86C55.48 22.76 54.96 19.99 53.44 17.86C52.07 15.95 50 14.69 47.41 14.21C47.18 14.64 46.79 15.47 46.65 16.24C46.34 17.99 46.69 19.67 47.62 20.96C48.5 22.18 49.86 22.98 51.45 23.21C51.72 23.25 51.91 23.5 51.87 23.78C51.83 24.05 51.58 24.25 51.3 24.2C49.44 23.93 47.85 22.99 46.81 21.55C45.72 20.04 45.31 18.09 45.67 16.07C45.89 14.8 46.68 13.46 46.71 13.41C46.81 13.23 47.02 13.14 47.22 13.17C50.23 13.64 52.66 15.07 54.25 17.29C55.93 19.65 56.51 22.68 55.91 26.05L51.23 52.59C51.19 52.8 50.99 52.98 50.74 52.98Z" fill="white"/>
<path d="M37.88 44.48H35.58C35.3 44.48 35.08 44.26 35.08 43.98C35.08 43.7 35.3 43.48 35.58 43.48H37.88C39.74 43.48 41.52 41.97 41.85 40.1L44.25 26.48H38.64L36.42 39.07C36.38 39.31 36.17 39.48 35.93 39.48H28.5C28.35 39.48 28.21 39.41 28.12 39.3C28.02 39.19 27.98 39.04 28.01 38.89L29.65 29.6C30.05 27.32 32.23 25.47 34.51 25.47H35.58C35.86 25.47 36.08 25.69 36.08 25.97C36.08 26.25 35.86 26.47 35.58 26.47H34.51C32.69 26.47 30.95 27.95 30.63 29.77L29.1 38.47H35.51L37.73 25.88C37.77 25.64 37.98 25.47 38.22 25.47H44.84C44.99 25.47 45.13 25.54 45.22 25.65C45.32 25.76 45.36 25.91 45.33 26.06L42.82 40.27C42.42 42.59 40.2 44.48 37.88 44.48Z" fill="white"/>
<defs>
<linearGradient id="paint0_linear" x1="6.98778" y1="32.975" x2="95.8683" y2="32.975" gradientUnits="userSpaceOnUse">
<stop offset="0.00545934" stop-color="#ED7E23"/>
<stop offset="0.1001" stop-color="#EE832B"/>
<stop offset="0.2463" stop-color="#EF8F41"/>
<stop offset="0.4258" stop-color="#F2A464"/>
<stop offset="0.6315" stop-color="#F6C195"/>
<stop offset="0.8565" stop-color="#FBE5D3"/>
<stop offset="1" stop-color="white"/>
</linearGradient>
</defs>
</svg>
