<svg width="72" height="65" viewBox="0 0 72 65" fill="none" xmlns="http://www.w3.org/2000/svg">
<path d="M0.0499878 64.12H65.62L70.56 36.12C74.07 16.24 60.79 0.119995 40.91 0.119995H11.2L0.0499878 64.12Z" fill="url(#paint0_linear)"/>
<path d="M48.97 49.97H19.95C18.57 49.97 17.36 49.43 16.54 48.46C15.71 47.46 15.38 46.15 15.63 44.74L18.09 30.81C18.13 30.58 18.33 30.41 18.56 30.4C25.81 30.1 30.17 31.75 34.79 33.49C38.85 35.02 43.05 36.61 49.47 36.77C49.75 36.78 49.96 37.01 49.96 37.28C49.95 37.56 49.68 37.76 49.45 37.77C42.86 37.61 38.58 35.99 34.44 34.43C30 32.75 25.81 31.17 19 31.38L16.61 44.91C16.42 46.02 16.66 47.05 17.3 47.81C17.93 48.56 18.86 48.97 19.94 48.97H48.96C50.28 48.97 51.66 48.33 52.65 47.26C52.84 47.06 53.15 47.04 53.36 47.23C53.56 47.42 53.58 47.73 53.39 47.94C52.2 49.23 50.59 49.97 48.97 49.97Z" fill="white"/>
<path d="M56.65 32.56C56.62 32.56 56.59 32.56 56.56 32.55C56.29 32.5 56.11 32.24 56.16 31.97L57.84 22.68C58.03 21.58 57.79 20.55 57.15 19.78C56.52 19.03 55.59 18.62 54.51 18.62H25.48C23.15 18.62 20.92 20.52 20.51 22.85L19.69 27.49C19.64 27.76 19.38 27.95 19.11 27.9C18.84 27.85 18.66 27.59 18.7 27.32L19.52 22.68C20.01 19.89 22.68 17.62 25.47 17.62H54.5C55.88 17.62 57.09 18.16 57.91 19.13C58.74 20.13 59.07 21.44 58.82 22.85L57.14 32.15C57.1 32.39 56.89 32.56 56.65 32.56Z" fill="white"/>
<path d="M61.2399 46.91C61.0999 46.91 60.96 46.85 60.86 46.73L57.61 42.89L54.61 45.58C54.48 45.7 54.29 45.74 54.12 45.68C53.95 45.63 53.82 45.48 53.79 45.31L51.12 33.12C51.08 32.94 51.1399 32.76 51.2799 32.64C51.4199 32.52 51.6099 32.48 51.7799 32.55L63.33 36.71C63.49 36.77 63.61 36.91 63.65 37.07C63.69 37.24 63.63 37.41 63.51 37.53L61.11 39.9C60.91 40.09 60.6 40.09 60.4 39.89C60.21 39.69 60.21 39.38 60.41 39.18L62.25 37.37L52.29 33.79L54.58 44.26L57.32 41.8C57.42 41.71 57.55 41.67 57.69 41.67C57.83 41.68 57.95 41.74 58.04 41.85L61.62 46.08C61.8 46.29 61.7699 46.61 61.5599 46.78C61.4699 46.87 61.3599 46.91 61.2399 46.91Z" fill="white"/>
<path d="M27.57 44.28C27.26 44.1 27.04 43.86 26.92 43.53C26.79 43.21 26.76 42.84 26.84 42.42L27.26 40.03C27.33 39.61 27.49 39.24 27.73 38.93C27.97 38.62 28.28 38.37 28.65 38.19C29.02 38.01 29.42 37.93 29.86 37.93C30.3 37.93 30.67 38.01 30.98 38.18C31.29 38.35 31.5 38.59 31.64 38.9C31.78 39.21 31.8 39.56 31.73 39.97V39.98C31.72 40.01 31.71 40.04 31.69 40.05C31.67 40.07 31.65 40.08 31.62 40.08L30.92 40.12C30.86 40.12 30.83 40.09 30.84 40.04V40.01C30.91 39.62 30.84 39.3 30.64 39.06C30.44 38.82 30.13 38.7 29.72 38.7C29.31 38.7 28.96 38.82 28.67 39.06C28.38 39.3 28.2 39.62 28.13 40.01L27.7 42.47C27.63 42.86 27.7 43.18 27.9 43.42C28.1 43.66 28.41 43.78 28.82 43.78C29.23 43.78 29.58 43.66 29.86 43.42C30.15 43.18 30.32 42.86 30.39 42.47V42.45C30.4 42.39 30.44 42.37 30.5 42.37L31.19 42.41C31.25 42.41 31.28 42.44 31.27 42.5C31.2 42.91 31.04 43.26 30.8 43.58C30.56 43.89 30.26 44.13 29.89 44.3C29.52 44.47 29.12 44.56 28.68 44.56C28.26 44.55 27.88 44.46 27.57 44.28Z" fill="white"/>
<path d="M33.68 44.28C33.37 44.1 33.15 43.86 33.03 43.53C32.9 43.21 32.87 42.84 32.95 42.42L33.37 40.03C33.44 39.61 33.6 39.24 33.84 38.93C34.08 38.62 34.39 38.37 34.76 38.19C35.13 38.01 35.53 37.93 35.97 37.93C36.41 37.93 36.78 38.01 37.09 38.18C37.4 38.35 37.61 38.59 37.75 38.9C37.89 39.21 37.91 39.56 37.84 39.97V39.98C37.83 40.01 37.82 40.04 37.8 40.05C37.78 40.07 37.76 40.08 37.73 40.08L37.03 40.12C36.97 40.12 36.94 40.09 36.95 40.04V40.01C37.02 39.62 36.95 39.3 36.75 39.06C36.55 38.82 36.24 38.7 35.83 38.7C35.42 38.7 35.07 38.82 34.78 39.06C34.49 39.3 34.31 39.62 34.24 40.01L33.81 42.47C33.74 42.86 33.81 43.18 34.01 43.42C34.21 43.66 34.52 43.78 34.93 43.78C35.34 43.78 35.69 43.66 35.97 43.42C36.26 43.18 36.43 42.86 36.5 42.47V42.45C36.51 42.39 36.55 42.37 36.61 42.37L37.3 42.41C37.36 42.41 37.39 42.44 37.38 42.5C37.31 42.91 37.15 43.26 36.91 43.58C36.67 43.89 36.37 44.13 36 44.3C35.63 44.47 35.23 44.56 34.79 44.56C34.36 44.55 33.98 44.46 33.68 44.28Z" fill="white"/>
<path d="M32.48 28.11L32.34 27.03C32.34 27.01 32.33 27 32.31 27H29.74C29.72 27 29.71 27.01 29.7 27.03L29.18 28.11C29.15 28.16 29.11 28.18 29.06 28.18H28.32C28.25 28.18 28.23 28.15 28.26 28.08L31.37 21.79C31.4 21.74 31.44 21.72 31.49 21.72H32.4C32.45 21.72 32.49 21.74 32.5 21.79L33.41 28.08V28.12C33.4 28.16 33.37 28.18 33.32 28.18H32.57C32.53 28.19 32.49 28.16 32.48 28.11ZM30.07 26.29C30.08 26.3 30.09 26.3 30.1 26.3H32.2C32.21 26.3 32.22 26.3 32.23 26.29C32.24 26.28 32.24 26.27 32.24 26.26L31.78 22.84C31.78 22.83 31.77 22.82 31.76 22.82C31.75 22.82 31.74 22.83 31.73 22.84L30.07 26.26C30.06 26.27 30.06 26.28 30.07 26.29Z" fill="white"/>
<path d="M35.7899 28.01C35.4799 27.83 35.2599 27.59 35.1399 27.26C35.0099 26.94 34.9799 26.57 35.0599 26.15L35.4799 23.76C35.5499 23.34 35.7099 22.97 35.9499 22.66C36.1899 22.34 36.4999 22.1 36.8699 21.92C37.2399 21.74 37.6399 21.66 38.0799 21.66C38.5199 21.66 38.8899 21.74 39.1999 21.91C39.5099 22.08 39.7199 22.32 39.8599 22.63C39.9899 22.94 40.0199 23.29 39.9499 23.7V23.71C39.9399 23.74 39.9299 23.77 39.9099 23.78C39.8899 23.8 39.8699 23.81 39.8399 23.81L39.1399 23.85C39.0799 23.85 39.0499 23.82 39.0599 23.77V23.74C39.1299 23.35 39.0599 23.03 38.8599 22.79C38.6599 22.55 38.3499 22.43 37.9399 22.43C37.5299 22.43 37.1799 22.55 36.8899 22.79C36.5999 23.03 36.4199 23.35 36.3499 23.74L35.9199 26.2C35.8499 26.59 35.9199 26.91 36.1199 27.15C36.3199 27.39 36.6299 27.51 37.0399 27.51C37.4499 27.51 37.7999 27.39 38.0799 27.15C38.3699 26.91 38.5399 26.59 38.6099 26.2V26.18C38.6199 26.12 38.6599 26.1 38.7199 26.1L39.4099 26.14C39.4699 26.14 39.4999 26.17 39.4899 26.23C39.4199 26.64 39.2599 26.99 39.0199 27.31C38.7799 27.62 38.4799 27.86 38.1099 28.03C37.7399 28.2 37.3399 28.29 36.8999 28.29C36.4699 28.27 36.0999 28.18 35.7899 28.01Z" fill="white"/>
<path d="M45.76 21.73H46.46C46.52 21.73 46.55 21.76 46.53 21.82L45.42 28.1C45.41 28.16 45.37 28.19 45.31 28.19H44.61C44.55 28.19 44.52 28.16 44.54 28.1L45.02 25.36C45.02 25.34 45.01 25.32 44.99 25.32H42.38C42.36 25.32 42.34 25.33 42.34 25.36L41.86 28.1C41.85 28.16 41.81 28.19 41.75 28.19H41.06C41 28.19 40.97 28.16 40.98 28.1L42.09 21.82C42.1 21.76 42.14 21.73 42.2 21.73H42.89C42.95 21.73 42.98 21.76 42.97 21.82L42.49 24.52C42.49 24.54 42.5 24.56 42.52 24.56H45.13C45.15 24.56 45.17 24.55 45.17 24.52L45.65 21.82C45.66 21.76 45.7 21.73 45.76 21.73Z" fill="white"/>
<defs>
<linearGradient id="paint0_linear" x1="6.93439" y1="32.125" x2="95.8149" y2="32.125" gradientUnits="userSpaceOnUse">
<stop offset="0.000376506" stop-color="#3757A6"/>
<stop offset="0.998" stop-color="#93C1E2"/>
</linearGradient>
</defs>
</svg>
