<svg width="61" height="3" viewBox="0 0 61 3" fill="none" xmlns="http://www.w3.org/2000/svg">
<path d="M59.12 2.35999H9.12C8.57 2.35999 8.12 1.90999 8.12 1.35999C8.12 0.809985 8.57 0.359985 9.12 0.359985H59.12C59.67 0.359985 60.12 0.809985 60.12 1.35999C60.12 1.90999 59.68 2.35999 59.12 2.35999Z" fill="url(#paint0_linear)"/>
<path d="M3.12 2.35999H1.12C0.569995 2.35999 0.119995 1.90999 0.119995 1.35999C0.119995 0.809985 0.569995 0.359985 1.12 0.359985H3.12C3.67 0.359985 4.12 0.809985 4.12 1.35999C4.12 1.90999 3.68 2.35999 3.12 2.35999Z" fill="#7EC3E6"/>
<defs>
<linearGradient id="paint0_linear" x1="60.125" y1="1.35938" x2="8.125" y2="1.35938" gradientUnits="userSpaceOnUse">
<stop offset="0.000376506" stop-color="#3757A6"/>
<stop offset="0.998" stop-color="#93C1E2"/>
</linearGradient>
</defs>
</svg>
