<svg width="203" height="164" viewBox="0 0 203 164" fill="none" xmlns="http://www.w3.org/2000/svg">
<path d="M137.29 153.12H127.12L127.1 110.12H75.12L75.14 153.12H64.95C61.18 153.12 58.12 156.18 58.12 159.95V163.12H144.12V159.95C144.12 156.18 141.07 153.12 137.29 153.12Z" fill="url(#paint0_linear)"/>
<path d="M202.12 132.42C202.12 136.66 198.65 140.12 194.42 140.12H7.83001C3.59001 140.12 0.130005 136.65 0.130005 132.42V7.83001C0.130005 3.59001 3.60001 0.130005 7.83001 0.130005H194.42C198.66 0.130005 202.12 3.60001 202.12 7.83001V132.42Z" fill="url(#paint1_linear)"/>
<path d="M191.12 10.12H11.12V130.12H191.12V10.12Z" fill="url(#paint2_linear)"/>
<path d="M70.61 76.37C59.76 80.51 46.41 85.6 43.43 86.76V77.08C46.23 75.92 58.46 72.3 61.26 71.15C58.46 70.11 46.23 65.33 43.43 64.3V54.5C46.41 55.66 59.77 60.83 70.63 65.03C75.71 66.99 75.69 74.43 70.61 76.37Z" fill="url(#paint3_linear)"/>
<path d="M121.44 96.75C118.51 99.86 114.5 101.84 109.41 102.68C109.11 102.8 108.96 102.98 108.96 103.22L109.05 109.06C109.05 109.36 108.95 109.61 108.74 109.82C108.53 110.03 108.28 110.13 107.98 110.13H99C98.7 110.13 98.45 110.02 98.24 109.82C98.03 109.61 97.93 109.36 97.93 109.06L98.02 103.13C98.02 102.89 97.87 102.71 97.57 102.59C92.48 101.57 88.49 99.48 85.59 96.31C82.69 93.14 81.24 89.16 81.24 84.37V82.4C81.24 82.1 81.34 81.85 81.55 81.64C81.76 81.43 82.01 81.33 82.31 81.33H92.01C92.31 81.33 92.56 81.43 92.77 81.64C92.98 81.85 93.08 82.1 93.08 82.4V83.75C93.08 86.14 94.13 88.16 96.22 89.81C98.31 91.46 101.19 92.28 104.84 92.28C107.89 92.28 110.15 91.61 111.62 90.26C113.09 88.91 113.82 87.25 113.82 85.28C113.82 83.84 113.37 82.63 112.47 81.64C111.57 80.65 110.33 79.79 108.74 79.04C107.15 78.29 104.66 77.26 101.24 75.94C97.35 74.56 94.09 73.16 91.46 71.72C88.83 70.28 86.6 68.32 84.77 65.84C82.94 63.36 82.03 60.29 82.03 56.64C82.03 52.03 83.42 48.22 86.2 45.19C88.98 42.17 92.74 40.21 97.47 39.31C97.77 39.19 97.92 39.01 97.92 38.77L97.74 32.22C97.74 31.92 97.84 31.67 98.05 31.46C98.26 31.25 98.51 31.15 98.81 31.15H107.79C108.09 31.15 108.34 31.26 108.55 31.46C108.76 31.67 108.86 31.92 108.86 32.22L108.77 38.95C108.77 39.19 108.92 39.37 109.22 39.49C114.19 40.51 118.14 42.68 121.07 46C124 49.32 125.47 53.38 125.47 58.16V59.51C125.47 59.81 125.36 60.06 125.16 60.27C124.95 60.48 124.7 60.58 124.4 60.58H114.61C114.31 60.58 114.06 60.48 113.85 60.27C113.64 60.06 113.54 59.81 113.54 59.51V58.79C113.54 56.28 112.55 54.14 110.58 52.37C108.6 50.61 105.91 49.72 102.5 49.72C99.81 49.72 97.71 50.32 96.22 51.52C94.72 52.72 93.98 54.36 93.98 56.46C93.98 57.96 94.41 59.21 95.28 60.23C96.15 61.25 97.45 62.18 99.19 63.01C100.93 63.85 103.62 64.93 107.27 66.24C111.28 67.74 114.45 69.08 116.79 70.28C119.12 71.48 121.22 73.27 123.07 75.67C124.92 78.06 125.85 81.15 125.85 84.92C125.84 89.69 124.37 93.64 121.44 96.75Z" fill="url(#paint4_linear)"/>
<defs>
<linearGradient id="paint0_linear" x1="101.125" y1="79.7811" x2="101.125" y2="192.738" gradientUnits="userSpaceOnUse">
<stop stop-color="#7EC1E2"/>
<stop offset="0.00174134" stop-color="#7EC1E2"/>
<stop offset="1" stop-color="white"/>
</linearGradient>
<linearGradient id="paint1_linear" x1="101.125" y1="-95.6231" x2="101.125" y2="180.483" gradientUnits="userSpaceOnUse">
<stop stop-color="#7EC1E2"/>
<stop offset="0.00174134" stop-color="#7EC1E2"/>
<stop offset="1" stop-color="white"/>
</linearGradient>
<linearGradient id="paint2_linear" x1="101.125" y1="9.6746" x2="101.125" y2="215.799" gradientUnits="userSpaceOnUse">
<stop stop-color="#80C1E2"/>
<stop offset="0.0462" stop-color="#7EC3E6"/>
<stop offset="1" stop-color="white"/>
</linearGradient>
<linearGradient id="paint3_linear" x1="141.277" y1="70.625" x2="-35.9386" y2="70.625" gradientUnits="userSpaceOnUse">
<stop offset="0.000376506" stop-color="#2A58A4"/>
<stop offset="0.998" stop-color="#7DC3E6"/>
</linearGradient>
<linearGradient id="paint4_linear" x1="141.277" y1="70.625" x2="-35.9386" y2="70.625" gradientUnits="userSpaceOnUse">
<stop offset="0.000376506" stop-color="#2A58A4"/>
<stop offset="0.998" stop-color="#7DC3E6"/>
</linearGradient>
</defs>
</svg>
