<svg width="329" height="58" viewBox="0 0 329 58" fill="none" xmlns="http://www.w3.org/2000/svg">
<mask id="mask0_2_2343" style="mask-type:alpha" maskUnits="userSpaceOnUse" x="0" y="0" width="328" height="57">
<path d="M22.4531 27.4992V33.0741H43.6866C42.5389 43.5272 35.4371 51.2702 25.179 51.2702C14.2753 51.2702 5.7388 41.9786 5.7388 30.0544C5.7388 18.1301 14.1318 8.83854 24.8921 8.83854C32.5677 8.83854 39.0956 12.5552 42.4671 20.0659L47.5603 18.1301C44.117 8.60624 35.3654 3.10872 24.8921 3.10872C10.9755 3.10872 0 14.9555 0 30.0544C0 45.1532 10.9755 57 25.0355 57C39.3108 57 49.1385 45.1532 49.1385 30.1318C49.1385 29.3575 49.1385 28.5058 49.0668 27.4992H22.4531Z" fill="#FFF1C4"/>
<path d="M74.9575 16.9687C64.4125 16.9687 56.1629 25.1763 56.1629 36.8682C56.1629 48.5601 64.4125 56.9226 74.9575 56.9226C85.3591 56.9226 93.6803 48.5601 93.6803 36.8682C93.6803 25.1763 85.3591 16.9687 74.9575 16.9687ZM74.9575 51.7348C67.6405 51.7348 61.4713 45.6952 61.4713 36.8682C61.4713 28.1186 67.6405 22.1565 74.9575 22.1565C82.2027 22.1565 88.3002 28.1186 88.3002 36.8682C88.3002 45.6952 82.2027 51.7348 74.9575 51.7348Z" fill="#FFF1C4"/>
<path d="M108.486 55.9934V0.243805H103.034V55.9934H108.486Z" fill="#FFF1C4"/>
<path d="M155.039 0.243805H149.587V23.9374C146.431 19.4464 141.409 16.8913 135.527 16.8913C126.13 16.8913 117.88 24.8665 117.88 36.9456C117.88 49.0247 126.13 57 135.527 57C141.409 57 146.431 54.4448 149.587 49.9539V55.9934H155.039V0.243805ZM136.388 51.7348C129.071 51.7348 123.189 46.0049 123.189 36.9456C123.189 27.8089 129.071 22.0791 136.388 22.0791C143.059 22.0791 149.587 27.8089 149.587 36.9456C149.587 46.0049 143.059 51.7348 136.388 51.7348Z" fill="#FFF1C4"/>
<path d="M228.45 55.9934L206.93 4.11531H201.693L180.173 55.9934H186.27L191.65 42.8303H216.973L222.353 55.9934H228.45ZM214.749 37.3328H193.874L204.347 11.7034L214.749 37.3328Z" fill="#FFF1C4"/>
<path d="M268.105 9.61283V4.11531H226.714V9.61283H244.576V55.9934H250.314V9.61283H268.105Z" fill="#FFF1C4"/>
<path d="M328 4.11531H323.05L302.104 46.8567L281.157 4.11531H276.207V55.9934H281.659V17.1235L300.669 55.9934H303.61L322.548 17.1235V55.9934H328V4.11531Z" fill="#FFF1C4"/>
</mask>
<g mask="url(#mask0_2_2343)">
<rect width="345.549" height="115.286" transform="matrix(0.999992 0.00397343 -0.00398704 0.999992 0.459663 -30.3172)" fill="url(#paint0_linear_2_2343)"/>
</g>
<defs>
<linearGradient id="paint0_linear_2_2343" x1="62.8258" y1="107.027" x2="117.333" y2="-47.7095" gradientUnits="userSpaceOnUse">
<stop offset="0.135404" stop-color="#FFF0C4"/>
<stop offset="0.142728" stop-color="#F0D28A"/>
<stop offset="0.385417" stop-color="#FFF0CB"/>
<stop offset="0.687873" stop-color="#E8CC8D"/>
<stop offset="0.695154" stop-color="#FFEFCA"/>
<stop offset="1" stop-color="#DDC278"/>
</linearGradient>
</defs>
</svg>
