<svg width="43" height="40" fill="none" xmlns="http://www.w3.org/2000/svg"><mask id="a" style="mask-type:alpha" maskUnits="userSpaceOnUse" x="0" y="1" width="43" height="39"><path d="m.27 28.283 3.047.012 1.394-4.171 6.06.024 1.36 4.182 3.058.012-5.759-16.18-3.272-.013L.27 28.283Zm7.479-13.25h.067l2.23 6.884-4.593-.018 2.296-6.866ZM20.98 28.6c1.806.007 3.04-.816 3.665-2.079h.057l-.008 1.859 2.81.011.047-11.868-2.81-.011-.027 6.874c-.007 1.724-1.038 2.874-2.652 2.867-1.602-.006-2.388-.961-2.382-2.64l.029-7.121-2.81-.012-.03 7.67c-.012 2.754 1.483 4.44 4.112 4.45ZM13.86 6.928l-2.805-.011-.002.491 2.267.01-1.635 4.142.537.002 1.636-4.26.002-.374ZM15.746 6.845c-.871-.003-1.455.66-1.458 1.553-.004.88.537 1.533 1.409 1.536.512.003.99-.287 1.207-.736.017.561-.066 1.184-.42 1.62a.977.977 0 0 1-.762.363c-.426-.001-.746-.203-.856-.64l-.47.095c.158.659.663 1.028 1.306 1.03.445.002.823-.19 1.096-.501.416-.476.567-1.175.57-2.027.006-1.441-.59-2.289-1.622-2.293Zm.002 2.632c-.569-.002-.975-.46-.972-1.07.002-.603.406-1.072.98-1.07.544.002.993.44.99 1.064-.001.582-.405 1.079-.998 1.076ZM22.75 30.078l-.209-.001-.882.588-.001.354.762-.482-.01 2.788.327.001.013-3.248ZM24.354 30.02c-.6-.002-1 .462-1.003 1.088-.002.616.37 1.073.969 1.075a.92.92 0 0 0 .83-.515c.012.393-.045.829-.288 1.133a.668.668 0 0 1-.524.255c-.294-.001-.514-.142-.59-.448l-.323.066c.11.461.457.72.899.721a.975.975 0 0 0 .753-.35c.286-.334.39-.823.393-1.42.004-1.008-.406-1.601-1.116-1.604Zm.001 1.843c-.39-.001-.67-.322-.668-.749.001-.422.279-.75.674-.749.374.002.683.308.681.745-.001.407-.279.755-.687.753ZM27.088 31.244a.914.914 0 0 0-.83.515c-.012-.387.045-.833.288-1.133a.654.654 0 0 1 .524-.255c.298.001.514.143.593.449l.324-.072c-.113-.461-.46-.715-.903-.716a.975.975 0 0 0-.753.35c-.282.33-.39.823-.393 1.42-.004 1.008.41 1.602 1.116 1.604.603.003 1-.466 1.003-1.091.002-.611-.366-1.069-.97-1.071Zm-.037 1.813c-.378-.001-.683-.303-.681-.74.001-.412.275-.755.687-.753.39.001.67.323.668.744-.001.422-.283.75-.674.75ZM28.724 32.875c-.128 0-.222.115-.222.246-.001.136.092.243.22.243.127.001.221-.105.222-.241 0-.13-.093-.248-.22-.248ZM30.339 30.045c-.6-.003-1 .461-1.003 1.087-.002.615.37 1.073.969 1.075a.92.92 0 0 0 .83-.515c.012.392-.045.829-.289 1.133a.668.668 0 0 1-.523.255c-.294-.001-.514-.143-.59-.448l-.323.066c.11.461.457.72.899.721a.975.975 0 0 0 .753-.35c.286-.334.39-.823.393-1.42.004-1.008-.406-1.602-1.116-1.604Zm.001 1.842c-.39-.001-.67-.322-.668-.75.001-.421.279-.75.674-.748.374.002.683.308.681.745-.001.407-.279.755-.687.753ZM33.073 31.268a.915.915 0 0 0-.831.515c-.011-.388.046-.834.29-1.133a.654.654 0 0 1 .523-.255c.297.001.514.143.593.448l.324-.071c-.113-.461-.46-.715-.903-.716a.975.975 0 0 0-.754.35c-.281.33-.39.823-.392 1.42-.004 1.008.41 1.601 1.116 1.604.603.003 1-.466 1.003-1.092.002-.61-.366-1.068-.97-1.07Zm-.037 1.813c-.378-.001-.683-.303-.681-.74.001-.412.275-.755.687-.753.39.001.67.322.668.744-.001.422-.283.75-.674.75ZM36.251 30.131l-1.93-.007v.344l1.559.006-1.125 2.9.37.002 1.125-2.983.001-.262Z" fill="#080013"/><path fill-rule="evenodd" clip-rule="evenodd" d="m6.215 1.022 36.474.145-.154 38.569-36.474-.146.039-9.665 3.832.015-.021 5.52 28.808.116.12-30.28-28.808-.114-.018 4.605-3.833-.015.035-8.75Z" fill="#080013"/></mask><g mask="url(#a)"><path transform="rotate(.228 -2.73 -5.268)" fill="url(#b)" fill-opacity=".64" d="M-2.73-5.268h52.757v48.471H-2.73z"/></g><defs><linearGradient id="b" x1="6.862" y1="39.731" x2="43.411" y2="2.055" gradientUnits="userSpaceOnUse"><stop offset=".135" stop-color="#FFF0C4"/><stop offset=".143" stop-color="#F0D28A"/><stop offset=".385" stop-color="#FFF0CB"/><stop offset=".688" stop-color="#E8CC8D"/><stop offset=".695" stop-color="#FFEFCA"/><stop offset="1" stop-color="#DDC278"/></linearGradient></defs></svg>