<svg width="16" height="16" viewBox="0 0 16 16" fill="none" xmlns="http://www.w3.org/2000/svg">
<path fill-rule="evenodd" clip-rule="evenodd" d="M14.3333 7.99999C14.3333 11.4978 11.4978 14.3333 8 14.3333C4.5022 14.3333 1.66667 11.4978 1.66667 7.99999C1.66667 4.50219 4.5022 1.66666 8 1.66666C11.4978 1.66666 14.3333 4.50219 14.3333 7.99999ZM13.2667 7.99999C13.2667 10.9087 10.9087 13.2667 8 13.2667C5.09131 13.2667 2.73334 10.9087 2.73334 7.99999C2.73334 5.09129 5.09131 2.73332 8 2.73332C10.9087 2.73332 13.2667 5.09129 13.2667 7.99999ZM7.00001 5.86666C7.00001 5.7562 7.08955 5.66666 7.20001 5.66666H7.86667C7.97713 5.66666 8.06667 5.7562 8.06667 5.86666V7.93332H10.1333C10.2438 7.93332 10.3333 8.02287 10.3333 8.13332V8.79999C10.3333 8.91045 10.2438 8.99999 10.1333 8.99999H7.86667H7.20001C7.1931 8.99999 7.18628 8.99964 7.17956 8.99896C7.07871 8.98872 7.00001 8.90354 7.00001 8.79999V8.13332V5.86666Z" fill="#FFFBF0"/>
</svg>
