<svg width="32" height="34" viewBox="0 0 32 34" fill="none" xmlns="http://www.w3.org/2000/svg">
<ellipse rx="11.1441" ry="11.0496" transform="matrix(0.915076 0.403282 0.0333186 0.999445 20.6279 15.5377)" fill="#FFF1C4" stroke="#FFF1C4"/>
<ellipse rx="11.1441" ry="11.0496" transform="matrix(0.915076 0.403282 0.0333186 0.999445 19.5116 16.0902)" fill="black" stroke="#FFF1C4"/>
<path d="M19.5148 22.6941L19.5123 22.6192L19.4721 21.4138C17.5365 20.4545 16.1483 18.7093 15.9628 16.9319L15.9521 16.8292L15.9434 16.7456L16.0178 16.7784L16.3877 16.9414L16.451 16.9692L16.4584 17.0404L16.4691 17.143L19.5148 22.6941ZM19.5148 22.6941L19.5834 22.7244L19.9163 22.8711L19.9849 22.9013L19.9824 22.8264L19.9426 21.6305C20.957 22.0514 21.7861 22.1349 22.3595 21.8981C22.9474 21.6554 23.2623 21.0776 23.233 20.1978L23.2327 20.1901C23.2079 19.4466 22.9892 18.7928 22.505 18.1463C22.0259 17.5065 21.2934 16.883 20.2544 16.1833L20.2542 16.1832L19.7497 15.8453L19.5976 11.282M19.5148 22.6941L19.5976 11.282M19.5976 11.282C21.1036 12.045 22.2009 13.4448 22.3477 14.7435L22.3477 14.7439L22.3579 14.8313L22.3661 14.9017L22.4285 14.9292L22.791 15.0889L22.8659 15.1219L22.8566 15.0375L22.8462 14.9425L22.8461 14.9423C22.6661 13.3338 21.3334 11.6524 19.5808 10.7797L19.5406 9.57418L19.5381 9.49922L19.4695 9.46898L19.1366 9.32227L19.068 9.29203L19.0705 9.36699L19.1104 10.5638C18.1944 10.1977 17.4306 10.1371 16.8968 10.3556C16.3489 10.5798 16.0451 11.0979 16.0709 11.8726L16.0714 11.8879C16.0955 12.6098 16.3223 13.2644 16.8017 13.9108C17.2768 14.5516 17.9943 15.1762 18.9897 15.8531L18.9902 15.8534L19.2935 16.0573L19.4553 20.9112C17.7523 20.0486 16.6214 18.5872 16.4691 17.1431L19.5976 11.282ZM20.1451 16.6335L20.1451 16.6335L20.1458 16.6339C21.098 17.2753 21.7349 17.8168 22.1384 18.3435C22.5364 18.863 22.7132 19.3759 22.7333 19.9775L22.7335 19.9852C22.7575 20.7036 22.5024 21.176 22.0128 21.3738C21.5337 21.5675 20.8256 21.4994 19.9258 21.1287L19.7673 16.3746L20.1451 16.6335ZM19.0914 15.3996C19.0913 15.3995 19.0912 15.3994 19.0911 15.3993C18.1844 14.7857 17.564 14.2498 17.1658 13.7246C16.7725 13.2057 16.5906 12.6898 16.5709 12.1005L16.5707 12.0929C16.5498 11.4681 16.7907 11.0511 17.2429 10.8734C17.6837 10.7001 18.3276 10.7539 19.1274 11.0732L19.2757 15.5222L19.0914 15.3996Z" fill="#FFF1C4" stroke="#FFF1C4" stroke-width="0.15"/>
<ellipse rx="11.1441" ry="11.0496" transform="matrix(0.915076 0.403282 0.0333186 0.999445 12.6821 17.9098)" fill="#FFF1C4" stroke="#FFF1C4"/>
<ellipse rx="11.1441" ry="11.0496" transform="matrix(0.915076 0.403282 0.0333186 0.999445 11.5659 18.4623)" fill="black" stroke="#FFF1C4"/>
<path d="M11.569 25.0663L11.5665 24.9913L11.5264 23.7859C9.59081 22.8267 8.20253 21.0815 8.0171 19.3041L8.00639 19.2014L7.99766 19.1177L8.07209 19.1505L8.44196 19.3135L8.50524 19.3414L8.51266 19.4126L8.52336 19.5151L11.569 25.0663ZM11.569 25.0663L11.6377 25.0965L11.9705 25.2432L12.0392 25.2735L12.0367 25.1985L11.9968 24.0027C13.0113 24.4235 13.8403 24.507 14.4138 24.2703C15.0017 24.0276 15.3166 23.4497 15.2872 22.5699L15.287 22.5623C15.2622 21.8187 15.0435 21.165 14.5593 20.5185C14.0802 19.8786 13.3477 19.2551 12.3086 18.5555L12.3084 18.5553L11.8039 18.2174L11.6518 13.6542M11.569 25.0663L11.6518 13.6542M11.6518 13.6542C13.1579 14.4171 14.2551 15.8169 14.4019 17.1157L14.402 17.116L14.4122 17.2034L14.4204 17.2738L14.4828 17.3013L14.8452 17.4611L14.9202 17.4941L14.9109 17.4097L14.9004 17.3146L14.9004 17.3145C14.7204 15.7059 13.3877 14.0245 11.6351 13.1518L11.5949 11.9463L11.5924 11.8714L11.5238 11.8411L11.1909 11.6944L11.1222 11.6642L11.1247 11.7391L11.1646 12.936C10.2487 12.5699 9.4849 12.5093 8.95109 12.7278C8.40314 12.952 8.09936 13.4701 8.12519 14.2448L8.1257 14.2601C8.14976 14.982 8.37654 15.6366 8.85594 16.283C9.3311 16.9237 10.0486 17.5484 11.044 18.2252L11.0444 18.2256L11.3478 18.4295L11.5096 23.2834C9.80658 22.4207 8.67563 20.9593 8.52337 19.5152L11.6518 13.6542ZM12.1994 19.0056L12.1994 19.0056L12.2001 19.0061C13.1523 19.6475 13.7891 20.1889 14.1927 20.7157C14.5906 21.2351 14.7675 21.7481 14.7875 22.3497L14.7878 22.3573C14.8117 23.0757 14.5567 23.5481 14.0671 23.746C13.5879 23.9396 12.8799 23.8716 11.9801 23.5008L11.8216 18.7468L12.1994 19.0056ZM11.1457 17.7718C11.1456 17.7717 11.1454 17.7716 11.1453 17.7715C10.2387 17.1579 9.61827 16.622 9.22009 16.0967C8.82675 15.5778 8.64482 15.062 8.62517 14.4727L8.62492 14.465C8.60409 13.8403 8.84496 13.4233 9.29713 13.2455C9.73795 13.0723 10.3818 13.126 11.1816 13.4453L11.3299 17.8943L11.1457 17.7718Z" fill="#FFF1C4" stroke="#FFF1C4" stroke-width="0.15"/>
</svg>
