<svg width="14" height="14" viewBox="0 0 14 14" fill="none" xmlns="http://www.w3.org/2000/svg">
<path fill-rule="evenodd" clip-rule="evenodd" d="M5.49398 3.79041C4.99158 4.66956 4.66982 5.90723 4.66982 7.29313C4.66982 8.67902 4.99158 9.91669 5.49398 10.7958C6.00199 11.6848 6.651 12.1434 7.2931 12.1434C7.93521 12.1434 8.58422 11.6848 9.09223 10.7958C9.59463 9.91669 9.91639 8.67902 9.91639 7.29313C9.91639 5.90723 9.59463 4.66956 9.09223 3.79041C8.58422 2.90146 7.93521 2.44289 7.2931 2.44289C6.651 2.44289 6.00199 2.90146 5.49398 3.79041ZM4.89239 3.44662C5.45922 2.45474 6.29507 1.75 7.2931 1.75C8.29114 1.75 9.12699 2.45474 9.69381 3.44662C10.2662 4.4483 10.6093 5.80898 10.6093 7.29313C10.6093 8.77727 10.2662 10.138 9.69381 11.1396C9.12699 12.1315 8.29114 12.8363 7.2931 12.8363C6.29507 12.8363 5.45922 12.1315 4.89239 11.1396C4.31997 10.138 3.97693 8.77727 3.97693 7.29313C3.97693 5.80898 4.31997 4.4483 4.89239 3.44662Z" fill="white"/>
<path fill-rule="evenodd" clip-rule="evenodd" d="M1.74998 7.29313C1.74998 7.10179 1.90509 6.94668 2.09642 6.94668H12.4898C12.6811 6.94668 12.8362 7.10179 12.8362 7.29313C12.8362 7.48446 12.6811 7.63957 12.4898 7.63957H2.09642C1.90509 7.63957 1.74998 7.48446 1.74998 7.29313Z" fill="white"/>
<path fill-rule="evenodd" clip-rule="evenodd" d="M7.2931 1.75C7.48444 1.75 7.63955 1.90511 7.63955 2.09645V12.4898C7.63955 12.6811 7.48444 12.8363 7.2931 12.8363C7.10177 12.8363 6.94666 12.6811 6.94666 12.4898V2.09645C6.94666 1.90511 7.10177 1.75 7.2931 1.75Z" fill="white"/>
<path fill-rule="evenodd" clip-rule="evenodd" d="M7.2931 2.44289C4.61439 2.44289 2.44287 4.61441 2.44287 7.29313C2.44287 9.97184 4.61439 12.1434 7.2931 12.1434C9.97182 12.1434 12.1433 9.97184 12.1433 7.29313C12.1433 4.61441 9.97182 2.44289 7.2931 2.44289ZM1.74998 7.29313C1.74998 4.23174 4.23172 1.75 7.2931 1.75C10.3545 1.75 12.8362 4.23174 12.8362 7.29313C12.8362 10.3545 10.3545 12.8363 7.2931 12.8363C4.23172 12.8363 1.74998 10.3545 1.74998 7.29313Z" fill="white"/>
</svg>
