<svg width="14" height="14" viewBox="0 0 14 14" fill="none" xmlns="http://www.w3.org/2000/svg">
<path fill-rule="evenodd" clip-rule="evenodd" d="M6.99999 11.4625C9.46456 11.4625 11.4625 9.46457 11.4625 7C11.4625 4.53543 9.46456 2.5375 6.99999 2.5375C4.53542 2.5375 2.53749 4.53543 2.53749 7C2.53749 9.46457 4.53542 11.4625 6.99999 11.4625ZM6.99999 12.3958C9.98003 12.3958 12.3958 9.98003 12.3958 7C12.3958 4.01996 9.98003 1.60416 6.99999 1.60416C4.01995 1.60416 1.60416 4.01996 1.60416 7C1.60416 9.98003 4.01995 12.3958 6.99999 12.3958Z" fill="white"/>
<path d="M7.46666 8.88333V9.55C7.46666 9.58889 7.45416 9.62083 7.42916 9.64583C7.40416 9.67083 7.37222 9.68333 7.33333 9.68333H6.66666C6.62777 9.68333 6.59583 9.67083 6.57083 9.64583C6.54583 9.62083 6.53333 9.58889 6.53333 9.55V8.88333C6.53333 8.84444 6.54583 8.8125 6.57083 8.7875C6.59583 8.7625 6.62777 8.75 6.66666 8.75H7.33333C7.37222 8.75 7.40416 8.7625 7.42916 8.7875C7.45416 8.8125 7.46666 8.84444 7.46666 8.88333Z" fill="white"/>
<path fill-rule="evenodd" clip-rule="evenodd" d="M7.48889 4.23183C8.21634 4.3655 8.90513 4.95124 8.90513 5.71727C8.90513 6.3497 8.55673 6.73693 8.20535 6.98104C8.03747 7.09767 7.85894 7.18938 7.71598 7.26205L7.70167 7.26932C7.60438 7.31877 7.52833 7.35742 7.46664 7.39252V8.16666H6.5333V7.30471C6.5333 7.09968 6.61329 6.84095 6.85056 6.67752C6.97846 6.58943 7.13191 6.51169 7.25818 6.44772C7.27006 6.4417 7.2817 6.43581 7.29306 6.43003C7.43875 6.35598 7.56398 6.29015 7.67284 6.21453C7.8749 6.07415 7.9718 5.93807 7.9718 5.71727C7.9718 5.5442 7.76154 5.23089 7.32022 5.1498C6.9512 5.08199 6.41418 5.20314 5.96165 5.95737L5.16132 5.47717C5.78766 4.43328 6.68913 4.08488 7.48889 4.23183Z" fill="white"/>
</svg>
