<?xml version="1.0" encoding="utf-8"?>
<!-- Generated by IcoMoon.io -->
<!DOCTYPE svg PUBLIC "-//W3C//DTD SVG 1.1//EN" "http://www.w3.org/Graphics/SVG/1.1/DTD/svg11.dtd">
<svg version="1.1" xmlns="http://www.w3.org/2000/svg" xmlns:xlink="http://www.w3.org/1999/xlink" width="32" height="32" viewBox="0 0 32 32">
	<path d="M27.429 0h-22.964c-2.629 0-4.465 1.836-4.465 4.465v23.070c0 2.629 1.836 4.465 4.465 4.465h22.964c2.629 0 4.465-1.836 4.465-4.465v-23.070c0-2.629-1.836-4.465-4.465-4.465zM29.98 27.535c0 1.574-0.978 2.551-2.551 2.551h-22.964c-1.574 0-2.551-0.978-2.551-2.551v-23.070c0-1.574 0.978-2.551 2.551-2.551h22.964c1.574 0 2.551 0.978 2.551 2.551v23.070z" fill="#000000"></path>
	<path d="M7.026 8.964h8.571c0.562 0 1.017-0.455 1.017-1.017s-0.455-1.017-1.017-1.017h-8.571c-0.562 0-1.017 0.455-1.017 1.017s0.455 1.017 1.017 1.017z" fill="#000000"></path>
	<path d="M24.867 12.272h-17.841c-0.561 0-1.017 0.455-1.017 1.017s0.455 1.017 1.017 1.017h17.841c0.562 0 1.017-0.455 1.017-1.017s-0.455-1.017-1.017-1.017z" fill="#000000"></path>
	<path d="M24.867 17.615h-17.841c-0.561 0-1.017 0.455-1.017 1.017s0.455 1.017 1.017 1.017h17.841c0.562 0 1.017-0.456 1.017-1.017s-0.455-1.017-1.017-1.017z" fill="#000000"></path>
	<path d="M24.867 22.957h-17.841c-0.561 0-1.017 0.455-1.017 1.017s0.455 1.017 1.017 1.017h17.841c0.562 0 1.017-0.456 1.017-1.017s-0.455-1.017-1.017-1.017z" fill="#000000"></path>
</svg>
