<?xml version="1.0" encoding="UTF-8" standalone="no"?>
<svg width="21px" height="19px" viewBox="0 0 21 19" version="1.1" xmlns="http://www.w3.org/2000/svg" xmlns:xlink="http://www.w3.org/1999/xlink">
    <!-- Generator: Sketch 41.2 (35397) - http://www.bohemiancoding.com/sketch -->
    <title>comment icon</title>
    <desc>Created with Sketch.</desc>
    <defs></defs>
    <g id="test-flow" stroke="none" stroke-width="1" fill="none" fill-rule="evenodd">
        <g id="address" transform="translate(-312.000000, -29.000000)" fill="#A9A9A9">
            <g id="comment-disabled" transform="translate(312.000000, 29.000000)">
                <path d="M11.1712941,18.0891447 C16.151794,18.0891447 20.2158664,14.0397517 20.2158664,9.04457235 C20.2158664,4.04939297 16.151794,0 11.1712941,0 C7.44045124,0 4.25889094,2.20339088 2.90197078,5.42674341 C2.64434688,5.81065686 0.0253972514,17.1237231 0.0253972514,17.1237231 C-0.0985479878,17.6569107 0.242317232,18.0891447 0.804724516,18.0891447 C0.804724516,18.0891447 8.31761094,18.0891447 11.1712941,18.0891447 Z M5,7 C5,6.44771525 5.45576096,6 6.00247329,6 L15.9975267,6 C16.5511774,6 17,6.44386482 17,7 C17,7.55228475 16.544239,8 15.9975267,8 L6.00247329,8 C5.44882258,8 5,7.55613518 5,7 Z M5,11 C5,10.4477153 5.4463114,10 5.99754465,10 L13.0024554,10 C13.553384,10 14,10.4438648 14,11 C14,11.5522847 13.5536886,12 13.0024554,12 L5.99754465,12 C5.44661595,12 5,11.5561352 5,11 Z" id="Combined-Shape"></path>
            </g>
        </g>
    </g>
</svg>
