<?xml version="1.0" encoding="UTF-8" standalone="no"?>
<svg width="150px" height="150px" viewBox="0 0 150 150" version="1.1" xmlns="http://www.w3.org/2000/svg" xmlns:xlink="http://www.w3.org/1999/xlink">
    <!-- Generator: Sketch 44 (41411) - http://www.bohemiancoding.com/sketch -->
    <title>Group 8</title>
    <desc>Created with Sketch.</desc>
    <defs>
        <polygon id="path-1" points="0 0 150 0 150 150 0 150"></polygon>
    </defs>
    <g id="Page-1" stroke="none" stroke-width="1" fill="none" fill-rule="evenodd">
        <g id="New-NDSE_v9_Homepage_2_Homepage_Empty_VD" transform="translate(-168.000000, -699.000000)">
            <g id="Group-19-Copy-2" transform="translate(168.000000, 699.000000)">
                <g id="Group-8">
                    <rect id="Rectangle-5-Copy-4" fill="#E8EDF7" x="0" y="0" width="150" height="150"></rect>
                    <g id="Page-1">
                        <mask id="mask-2" fill="white">
                            <use xlink:href="#path-1"></use>
                        </mask>
                        <g id="Mask"></g>
                        <g mask="url(#mask-2)">
                            <g transform="translate(-41.000000, 21.000000)">
                                <g id="Group-82" transform="translate(0.116058, 0.546773)" opacity="0.3">
                                    <path d="M0.592993483,48.1614038 L127.268512,0.157325291" id="Stroke-1" stroke="#D9E1F1"></path>
                                    <path d="M2.13143858,52.2368832 L128.806957,4.23280477" id="Stroke-4" stroke="#D9E1F1"></path>
                                    <path d="M3.66988368,56.3124735 L130.345402,8.308395" id="Stroke-7" stroke="#D9E1F1"></path>
                                    <path d="M5.20821824,60.387953 L131.883737,12.3838745" id="Stroke-10" stroke="#D9E1F1"></path>
                                    <path d="M6.74666334,64.4634324 L133.422182,16.459354" id="Stroke-13" stroke="#D9E1F1"></path>
                                    <path d="M8.28510844,68.5389119 L134.960627,20.5348335" id="Stroke-16" stroke="#D9E1F1"></path>
                                    <path d="M9.82355353,72.6143914 L136.499072,24.6103129" id="Stroke-19" stroke="#D9E1F1"></path>
                                    <path d="M11.3618881,76.6898709 L138.037406,28.6857924" id="Stroke-22" stroke="#D9E1F1"></path>
                                    <path d="M12.9003332,80.7654611 L139.575852,32.7613826" id="Stroke-25" stroke="#D9E1F1"></path>
                                    <path d="M14.4387783,84.8409406 L141.114297,36.8368621" id="Stroke-28" stroke="#D9E1F1"></path>
                                    <path d="M15.9772234,88.9164201 L142.652742,40.9123416" id="Stroke-31" stroke="#D9E1F1"></path>
                                    <path d="M17.515558,92.9918996 L144.191076,44.9878211" id="Stroke-34" stroke="#D9E1F1"></path>
                                    <path d="M19.0540031,97.0673791 L145.729521,49.0633006" id="Stroke-37" stroke="#D9E1F1"></path>
                                    <path d="M20.5924481,101.142859 L147.267967,53.1387801" id="Stroke-40" stroke="#D9E1F1"></path>
                                    <path d="M22.1308932,105.218449 L148.806412,57.2143703" id="Stroke-43" stroke="#D9E1F1"></path>
                                    <path d="M23.6692278,109.293928 L150.344746,61.2898498" id="Stroke-46" stroke="#D9E1F1"></path>
                                    <path d="M25.2076729,113.369408 L151.883191,65.3653293" id="Stroke-49" stroke="#D9E1F1"></path>
                                    <path d="M26.746118,117.444887 L153.421636,69.4408087" id="Stroke-52" stroke="#D9E1F1"></path>
                                    <path d="M28.2845631,121.520367 L154.960081,73.5162882" id="Stroke-55" stroke="#D9E1F1"></path>
                                    <path d="M29.8228977,125.595957 L156.498416,77.5918785" id="Stroke-58" stroke="#D9E1F1"></path>
                                    <path d="M31.3613428,129.671436 L158.036861,81.6673579" id="Stroke-61" stroke="#D9E1F1"></path>
                                    <path d="M32.8997879,133.746916 L159.575306,85.7428374" id="Stroke-64" stroke="#D9E1F1"></path>
                                    <path d="M34.438233,137.822395 L161.113751,89.8183169" id="Stroke-67" stroke="#D9E1F1"></path>
                                    <path d="M35.9765675,141.897875 L162.652086,93.8937964" id="Stroke-70" stroke="#D9E1F1"></path>
                                    <path d="M37.5150126,145.973354 L164.190531,97.9692759" id="Stroke-73" stroke="#D9E1F1"></path>
                                    <path d="M39.0534577,150.048945 L165.728976,102.044866" id="Stroke-76" stroke="#D9E1F1"></path>
                                    <path d="M40.5919028,154.124424 L167.267421,106.120346" id="Stroke-79" stroke="#D9E1F1"></path>
                                </g>
                                <g id="Group-19" transform="translate(55.000000, 4.000000)">
                                    <g id="Group-18" transform="translate(22.062627, 0.211429)">
                                        <path d="M99.2721833,90.6084132 L98.2448806,15.0570783 C98.2330725,14.2204686 97.544268,13.5445375 96.6917248,13.5329501 L19.7014861,12.5248471 C18.28924,12.5063072 17.5681601,14.181844 18.5671234,15.1621373 L30.2350783,26.6120247 C30.8498855,27.2153415 30.8498855,28.1933173 30.2350783,28.7966341 L0.746373094,57.7334397 C0.131565867,58.3367565 0.131565867,59.3155048 0.746373094,59.9188216 L50.9763597,109.209266 C51.591167,109.812583 52.5877687,109.812583 53.2025759,109.209266 L82.6904939,80.2724603 C83.3053011,79.6691435 84.3026901,79.6691435 84.9174973,80.2724603 L96.5846649,91.7215752 C97.5836283,92.7018685 99.2910763,91.9950376 99.2721833,90.6084132" id="Fill-83" fill="#F6F7FA"></path>
                                        <path d="M102.40225,2.80928622 C102.390433,1.96293678 101.701102,1.27913644 100.847907,1.26741415 L23.7988384,0.247574795 C22.3855132,0.228819129 21.6638823,1.92386247 22.663609,2.91556833 L34.3404796,14.4987552 C34.9557566,15.1090959 34.9557566,16.0984573 34.3404796,16.7087979 L4.82924137,45.9824856 C4.21396435,46.5928262 4.21396435,47.5829691 4.82924137,48.1933098 L55.0976099,98.0575931 C55.712887,98.6679337 56.7102502,98.6679337 57.3255272,98.0575931 L86.8359776,68.7839054 C87.4512546,68.1735648 88.4494057,68.1735648 89.0646827,68.7839054 L100.740766,80.3663108 C101.740492,81.3580167 103.449245,80.6429569 103.430338,79.2401894 L102.40225,2.80928622 Z" id="Fill-85" fill="#D9E1F1"></path>
                                    </g>
                                    <g id="Group-17" transform="translate(0.000000, 27.485714)" fill="#4186EC">
                                        <path d="M9.31091156,37.1914688 L9.31091156,14.6639154 C9.31091156,13.1028259 7.5543784,12.2132489 6.32705218,13.1539963 L5.35851823,13.8971473 C4.46281804,14.5836173 3.17815461,14.315957 2.62105388,13.3271882 L0.721177695,9.95545526 C0.250082783,9.12019757 0.47168335,8.05821583 1.23721258,7.489044 L9.72389444,1.17777076 C10.0431232,0.940025406 10.4282123,0.812493129 10.824149,0.812493129 L15.8016387,0.812493129 C16.8298343,0.812493129 17.6635483,1.65955936 17.6635483,2.7042219 L17.6635483,37.1914688 C17.6635483,38.2361313 16.8298343,39.0831975 15.8016387,39.0831975 L11.1728212,39.0831975 C10.1446256,39.0831975 9.31091156,38.2361313 9.31091156,37.1914688" id="Fill-88"></path>
                                        <path d="M53.4631693,30.8941394 C52.9787038,32.7340075 52.2151611,34.3398538 51.1756769,35.7101025 C50.1346249,37.0811391 48.7886261,38.1622093 47.1384646,38.956465 C45.4875191,39.7491448 43.4955664,40.1462727 41.1633904,40.1462727 C38.8304304,40.1462727 36.8572919,39.7491448 35.2424069,38.956465 C33.627522,38.1622093 32.3089606,37.0811391 31.2859389,35.7101025 C30.263701,34.3398538 29.5275957,32.7340075 29.0791908,30.8941394 C28.6300019,29.0550593 28.4065834,27.070996 28.4065834,24.9435254 L28.4065834,2.70594196 C28.4065834,1.66032956 29.2500864,0.812493129 30.2903545,0.812493129 L35.1883161,0.812493129 C36.2293682,0.812493129 37.0720872,1.66032956 37.0720872,2.70594196 L37.0720872,24.1855155 C37.0720872,25.2673737 37.1348012,26.2775282 37.2610131,27.2159791 C37.3864411,28.1536421 37.6106435,28.9565653 37.9336205,29.6223848 C38.2565975,30.2905681 38.6877561,30.8232237 39.2255285,31.2187757 C39.7640847,31.6166915 40.4633456,31.8136795 41.3248789,31.8136795 C42.1864121,31.8136795 42.885673,31.6166915 43.4242293,31.2187757 C43.9627855,30.8232237 44.3931602,30.2905681 44.7161372,29.6223848 C45.0391142,28.9565653 45.2625327,28.1536421 45.3887446,27.2159791 C45.5141726,26.2775282 45.5768866,25.2673737 45.5768866,24.1855155 L45.5768866,2.70594196 C45.5768866,1.66032956 46.4203896,0.812493129 47.4606577,0.812493129 L52.3060964,0.812493129 C53.3463645,0.812493129 54.1898675,1.66032956 54.1898675,2.70594196 L54.1898675,24.9435254 C54.1898675,27.070996 53.9476347,29.0550593 53.4631693,30.8941394" id="Fill-90"></path>
                                        <path d="M76.1576861,12.9750434 C76.1576861,11.2447337 75.7426004,10.0017132 74.9140044,9.24519467 C74.0838332,8.48867617 73.0756555,8.11002331 71.8847457,8.11002331 L71.0199183,8.11002331 C69.9747216,8.11002331 69.1272223,8.95707212 69.1272223,10.0017132 L69.1272223,16.217603 C69.1272223,17.2630312 69.9747216,18.11008 71.0199183,18.11008 L71.8847457,18.11008 C73.0756555,18.11008 74.0838332,17.6692368 74.9140044,16.7859759 C75.7426004,15.9027149 76.1576861,14.6321417 76.1576861,12.9750434 M84.2703656,12.8120889 C84.2703656,14.9391575 83.9458584,16.7765292 83.2968441,18.3257783 C82.6478297,19.8758147 81.7822147,21.1550473 80.7007866,22.1634763 C79.6185709,23.1734796 78.393005,23.9205515 77.0225135,24.4078407 C75.652022,24.8935555 74.2649901,25.1368065 72.8590548,25.1368065 L71.0199183,25.1368065 C69.9747216,25.1368065 69.1272223,25.9830681 69.1272223,27.0284964 L69.1272223,37.1907205 C69.1272223,38.2361487 68.2797229,39.0831975 67.2345263,39.0831975 L62.5283845,39.0831975 C61.4831878,39.0831975 60.6356885,38.2361487 60.6356885,37.1907205 L60.6356885,2.70418299 C60.6356885,1.65954194 61.4831878,0.812493129 62.5283845,0.812493129 L72.5345477,0.812493129 C73.9042515,0.812493129 75.283407,1.01165981 76.6712266,1.40684429 C78.0590461,1.80439044 79.3216311,2.46093199 80.4574062,3.37961782 C81.5931814,4.29909088 82.5123558,5.5342392 83.2157173,7.08348832 C83.9190787,8.63273745 84.2703656,10.5425334 84.2703656,12.8120889" id="Fill-92"></path>
                                        <path d="M90.0418307,24.5124695 L90.0418307,2.73236379 C90.0418307,1.67216056 90.9383797,0.812493129 92.044068,0.812493129 L96.9075966,0.812493129 C98.0132849,0.812493129 98.9098339,1.67216056 98.9098339,2.73236379 L98.9098339,24.5124695 C98.9098339,25.5726727 98.0132849,26.4323401 96.9075966,26.4323401 L92.044068,26.4323401 C90.9383797,26.4323401 90.0418307,25.5726727 90.0418307,24.5124695 M99.3106147,35.2095765 C99.3106147,36.599745 98.8615069,37.770203 97.9657911,38.7209505 C97.069242,39.6708989 95.8960626,40.1462727 94.4470861,40.1462727 C93.0364378,40.1462727 91.8815893,39.6708989 90.9858735,38.7209505 C90.0893244,37.770203 89.6418831,36.599745 89.6418831,35.2095765 C89.6418831,33.8561596 90.0893244,32.6857016 90.9858735,31.6990016 C91.8815893,30.7107036 93.0364378,30.217753 94.4470861,30.217753 C95.8960626,30.217753 97.069242,30.7107036 97.9657911,31.6990016 C98.8615069,32.6857016 99.3106147,33.8561596 99.3106147,35.2095765" id="Fill-94"></path>
                                    </g>
                                </g>
                            </g>
                        </g>
                    </g>
                </g>
            </g>
        </g>
    </g>
</svg>