<svg xmlns="http://www.w3.org/2000/svg" xmlns:xlink="http://www.w3.org/1999/xlink" width="191" height="124" viewBox="0 0 191 124">
  <defs>
    <path id="c2a_agreement_type_inline-a" d="M19,105 L19,15.7876535 C19,14.2507272 20.2587537,13 21.8055431,13 L170.194457,13 C171.741246,13 173,14.2507272 173,15.7876535 L173,105 L19,105 Z"/>
  </defs>
  <g fill="none" fill-rule="evenodd">
    <path fill="#E8E8E8" d="M7,113 L184,113 L184,4.67800427 C184,2.09574591 181.905181,0 179.319887,0 L11.680113,0 C9.09481856,0 7,2.09574591 7,4.67800427 L7,113 Z"/>
    <circle cx="96" cy="7" r="2" stroke="#777"/>
    <use fill="#F5F5F5" xlink:href="#c2a_agreement_type_inline-a"/>
    <path stroke="#777" d="M19.5,104.5 L172.5,104.5 L172.5,15.7876535 C172.5,14.5275881 171.465817,13.5 170.194457,13.5 L21.8055431,13.5 C20.5341826,13.5 19.5,14.5275881 19.5,15.7876535 L19.5,104.5 Z"/>
    <rect width="145" height="79" x="24" y="25" fill="#F0F2F6"/>
    <rect width="129" height="8" x="31" y="36" fill="#D9E1F1"/>
    <rect width="45" height="10" x="31" y="94" fill="#D9E1F1"/>
    <rect width="76" height="10" x="84" y="94" fill="#D9E1F1"/>
    <path fill="#D9E1F1" d="M24.4,21 L168.6,21 C168.820914,21 169,21.1790861 169,21.4 L169,29 L24,29 L24,21.4 C24,21.1790861 24.1790861,21 24.4,21 Z"/>
    <g transform="translate(31 47)">
      <rect width="129" height="44" fill="#FFF"/>
      <rect width="114" height="6" x="9" y="5" fill="#BEBEBD"/>
      <rect width="114" height="6" x="9" y="16" fill="#BEBEBD"/>
      <rect width="55" height="12" x="10" y="27" fill="#39A364"/>
      <rect width="55" height="12" x="69" y="27" fill="#B22B31"/>
    </g>
    <path fill="#CCC" d="M188.251664,123.06399 L2.74833594,123.06399 C1.23020752,123.06399 0,121.772628 0,120.179032 L0,115.884958 C0,114.291362 1.23020752,113 2.74833594,113 L188.251664,113 C189.769792,113 191,114.291362 191,115.884958 L191,120.179032 C191,121.772628 189.769792,123.06399 188.251664,123.06399"/>
    <path fill="#777" d="M107.872642,116 L84.1273585,116 C82.9404481,116 81.8685142,115.220118 81.3962264,114.015023 L81,113 L111,113 L110.603774,114.015023 C110.131486,115.220118 109.059552,116 107.872642,116"/>
  </g>
</svg>
