<svg xmlns="http://www.w3.org/2000/svg" xmlns:xlink="http://www.w3.org/1999/xlink" width="191" height="149" viewBox="0 0 191 149">
  <defs>
    <path id="c2a_agreement_type_modal-a" d="M19,130 L19,40.7876535 C19,39.2507272 20.2587537,38 21.8055431,38 L170.194457,38 C171.741246,38 173,39.2507272 173,40.7876535 L173,130 L19,130 Z"/>
  </defs>
  <g fill="none" fill-rule="evenodd">
    <path fill="#E8E8E8" d="M7,138 L184,138 L184,29.6780043 C184,27.0957459 181.905181,25 179.319887,25 L11.680113,25 C9.09481856,25 7,27.0957459 7,29.6780043 L7,138 Z"/>
    <use fill="#F5F5F5" xlink:href="#c2a_agreement_type_modal-a"/>
    <path stroke="#777" d="M19.5,129.5 L172.5,129.5 L172.5,40.7876535 C172.5,39.5275881 171.465817,38.5 170.194457,38.5 L21.8055431,38.5 C20.5341826,38.5 19.5,39.5275881 19.5,40.7876535 L19.5,129.5 Z"/>
    <rect width="145" height="79" x="24" y="50" fill="#F0F2F6"/>
    <rect width="129" height="32" x="31" y="61" fill="#D9E1F1"/>
    <rect width="45" height="20" x="31" y="99" fill="#D9E1F1"/>
    <rect width="79" height="20" x="84" y="99" fill="#D9E1F1"/>
    <path fill="#D9E1F1" d="M24.4,46 L168.6,46 C168.820914,46 169,46.1790861 169,46.4 L169,54 L24,54 L24,46.4 C24,46.1790861 24.1790861,46 24.4,46 Z"/>
    <polygon fill="#E3E3E3" points="36 109 162 109 162 25 36 25" opacity=".9" style="mix-blend-mode:multiply"/>
    <g transform="translate(43)">
      <rect width="81" height="69" x="5" y="30" fill="#E3E3E3" opacity=".9" style="mix-blend-mode:multiply"/>
      <rect width="112" height="102" fill="#FFF" rx="2.4"/>
      <rect width="93" height="6" x="9" y="35" fill="#BEBEBD"/>
      <rect width="44" height="6" x="9" y="24" fill="#BEBEBD"/>
      <rect width="93" height="6" x="9" y="47" fill="#BEBEBD"/>
      <rect width="93" height="6" x="9" y="59" fill="#BEBEBD"/>
      <rect width="93" height="6" x="9" y="70" fill="#BEBEBD"/>
      <path fill="#666" d="M2.4,0 L109.6,4.4408921e-16 C110.925483,2.00601859e-16 112,1.0745166 112,2.4 L112,14 L0,14 L4.4408921e-16,2.4 C2.8176431e-16,1.0745166 1.0745166,6.8757656e-16 2.4,4.4408921e-16 Z"/>
      <rect width="44" height="12" x="10" y="81" fill="#39A364"/>
      <rect width="44" height="12" x="58" y="81" fill="#B22B31"/>
    </g>
    <path fill="#CCC" d="M188.251664,148.06399 L2.74833594,148.06399 C1.23020752,148.06399 0,146.772628 0,145.179032 L0,140.884958 C0,139.291362 1.23020752,138 2.74833594,138 L188.251664,138 C189.769792,138 191,139.291362 191,140.884958 L191,145.179032 C191,146.772628 189.769792,148.06399 188.251664,148.06399"/>
    <path fill="#777" d="M107.872642,141 L84.1273585,141 C82.9404481,141 81.8685142,140.220118 81.3962264,139.015023 L81,138 L111,138 L110.603774,139.015023 C110.131486,140.220118 109.059552,141 107.872642,141"/>
  </g>
</svg>
