<svg xmlns="http://www.w3.org/2000/svg" xmlns:xlink="http://www.w3.org/1999/xlink" width="400" height="177" viewBox="0 0 400 177">
  <defs>
    <polygon id="intro_image-c" points="1.766 0 403 .773 403 179 0 179"/>
    <path id="intro_image-a" d="M186.221396,299.34309 C248.696782,299.34309 299.34309,248.696782 299.34309,186.221396 C299.34309,123.74601 248.696782,73.099702 186.221396,73.099702 C123.74601,73.099702 73.099702,123.74601 73.099702,186.221396"/>
    <mask id="intro_image-e" width="226.243" height="226.243" x="0" y="0" fill="#fff">
      <use xlink:href="#intro_image-a"/>
    </mask>
    <path id="intro_image-f" d="M19,126 L19,36.7876535 C19,35.2507272 20.2587537,34 21.8055431,34 L170.194457,34 C171.741246,34 173,35.2507272 173,36.7876535 L173,126 L19,126 Z"/>
    <path id="intro_image-b" d="M1,1 L51,1 L51,19 L1,19 L1,1 Z"/>
    <mask id="intro_image-g" width="50" height="18" x="0" y="0" fill="#fff">
      <use xlink:href="#intro_image-b"/>
    </mask>
    <path id="intro_image-h" d="M94.4314946,29.3569837 C95.4764971,29.675819 96.4784522,30.0933417 97.4264999,30.598692 L103.421165,27.6013596 L107.39864,31.5788352 L104.401308,37.5735001 C104.906658,38.5215478 105.324181,39.5235029 105.643016,40.5685054 L112,42.6875 L112,48.3125 L105.643016,50.4314946 C105.324181,51.4764971 104.906658,52.4784522 104.401308,53.4264999 L107.39864,59.4211648 L103.421165,63.3986404 L97.4264999,60.401308 C96.4784522,60.9066583 95.4764971,61.324181 94.4314946,61.6430163 L92.3125,68 L86.6875,68 L84.5685054,61.6430163 C83.5235029,61.324181 82.5215478,60.9066583 81.5735001,60.401308 L75.5788352,63.3986404 L71.6013596,59.4211648 L74.598692,53.4264999 C74.0933417,52.4784522 73.675819,51.4764971 73.3569837,50.4314946 L67,48.3125 L67,42.6875 L73.3569837,40.5685054 C73.675819,39.5235029 74.0933417,38.5215478 74.598692,37.5735001 L71.6013596,31.5788352 L75.5788352,27.6013596 L81.5735001,30.598692 C82.5215478,30.0933417 83.5235029,29.675819 84.5685054,29.3569837 L86.6875,23 L92.3125,23 L94.4314946,29.3569837 L94.4314946,29.3569837 Z M90,53 C93.8659932,53 97,49.8659932 97,46 C97,42.1340068 93.8659932,39 90,39 C86.1340068,39 83,42.1340068 83,46 C83,49.8659932 86.1340068,53 90,53 Z"/>
  </defs>
  <g fill="none" fill-rule="evenodd" transform="translate(-3 -2)">
    <mask id="intro_image-d" fill="#fff">
      <use xlink:href="#intro_image-c"/>
    </mask>
    <use fill="#E3EDF7" xlink:href="#intro_image-c"/>
    <g stroke="#D5E4F4" mask="url(#intro_image-d)">
      <g transform="rotate(63 235.544 178.847)">
        <circle cx="186.853" cy="186.853" r="92.795" stroke-width="4"/>
        <use stroke-dasharray="8 8" stroke-width="8" mask="url(#intro_image-e)" transform="rotate(131 186.221 186.221)" xlink:href="#intro_image-a"/>
        <path stroke-width="2" d="M187.266937,318.156554 C259.593845,317.933548 318.157192,259.232556 318.157192,186.853361 C318.157192,114.336257 259.370464,55.5495297 186.853361,55.5495297 C114.474166,55.5495297 55.7731731,114.112876 55.5501672,186.439785 L187.266943,318.15656 Z" transform="rotate(41 186.853 186.853)"/>
      </g>
    </g>
    <g mask="url(#intro_image-d)">
      <g transform="translate(108 36)">
        <path fill="#E8E8E8" d="M7,134 L184,134 L184,25.6780043 C184,23.0957459 181.905181,21 179.319887,21 L11.680113,21 C9.09481856,21 7,23.0957459 7,25.6780043 L7,134 Z"/>
        <use fill="#F5F5F5" xlink:href="#intro_image-f"/>
        <path stroke="#777" d="M19.5,125.5 L172.5,125.5 L172.5,36.7876535 C172.5,35.5275881 171.465817,34.5 170.194457,34.5 L21.8055431,34.5 C20.5341826,34.5 19.5,35.5275881 19.5,36.7876535 L19.5,125.5 Z"/>
        <rect width="145" height="79" x="24" y="46" fill="#F0F2F6"/>
        <rect width="129" height="32" x="31" y="57" fill="#D9E1F1"/>
        <rect width="45" height="20" x="31" y="95" fill="#D9E1F1"/>
        <rect width="79" height="20" x="84" y="95" fill="#D9E1F1"/>
        <path fill="#D9E1F1" d="M24.4,42 L168.6,42 C168.820914,42 169,42.1790861 169,42.4 L169,50 L24,50 L24,42.4 C24,42.1790861 24.1790861,42 24.4,42 Z"/>
        <polygon fill="#E3E3E3" points="88 108 184 108 184 21 88 21" opacity=".9" style="mix-blend-mode:multiply"/>
        <polygon fill="#E3E3E3" points="64 84 88 84 88 68 64 68" opacity=".9" style="mix-blend-mode:multiply"/>
        <g transform="translate(62)">
          <rect width="81" height="69" x="38" y="30" fill="#E3E3E3" opacity=".9" style="mix-blend-mode:multiply"/>
          <rect width="112" height="102" x="33" fill="#FFF" rx="2.4"/>
          <rect width="93" height="6" x="42" y="35" fill="#BEBEBD"/>
          <rect width="44" height="6" x="42" y="24" fill="#BEBEBD"/>
          <rect width="93" height="6" x="42" y="47" fill="#BEBEBD"/>
          <rect width="44" height="12" x="42" y="81" fill="#F9F9F9"/>
          <rect width="93" height="6" x="42" y="59" fill="#BEBEBD"/>
          <rect width="93" height="6" x="42" y="70" fill="#BEBEBD"/>
          <path fill="#666" d="M35.4,0 L142.6,4.4408921e-16 C143.925483,2.00601859e-16 145,1.0745166 145,2.4 L145,14 L33,14 L33,2.4 C33,1.0745166 34.0745166,6.8757656e-16 35.4,4.4408921e-16 Z"/>
          <rect width="44" height="12" x="4" y="70" fill="#39A364"/>
          <rect width="44" height="12" x="91" y="81" fill="#B22B31"/>
          <g stroke="#2C6EE1" transform="translate(0 66)">
            <use stroke-dasharray="1 2" stroke-width="2" mask="url(#intro_image-g)" xlink:href="#intro_image-b"/>
            <circle cx="1.5" cy="19.5" r="1.5" fill="#FFF"/>
            <circle cx="50.5" cy="19.5" r="1.5" fill="#FFF"/>
            <circle cx="1.5" cy="1.5" r="1.5" fill="#FFF"/>
            <circle cx="50.5" cy="1.5" r="1.5" fill="#FFF"/>
          </g>
        </g>
        <path fill="#CCC" d="M188.251664,144.06399 L2.74833594,144.06399 C1.23020752,144.06399 0,142.772628 0,141.179032 L0,136.884958 C0,135.291362 1.23020752,134 2.74833594,134 L188.251664,134 C189.769792,134 191,135.291362 191,136.884958 L191,141.179032 C191,142.772628 189.769792,144.06399 188.251664,144.06399"/>
        <path fill="#777" d="M107.872642,137 L84.1273585,137 C82.9404481,137 81.8685142,136.220118 81.3962264,135.015023 L81,134 L111,134 L110.603774,135.015023 C110.131486,136.220118 109.059552,137 107.872642,137"/>
      </g>
    </g>
    <use fill="#D5E4F4" xlink:href="#intro_image-h"/>
  </g>
</svg>
