<svg xmlns="http://www.w3.org/2000/svg" xmlns:xlink="http://www.w3.org/1999/xlink" width="548" height="265" viewBox="0 0 548 265">
  <defs>
    <path id="intro_image-a" d="M93,247 L353,247 L353,74.4516882 C353,70.3383563 349.922865,67 346.125258,67 L99.8747422,67 C96.0771346,67 93,70.3383563 93,74.4516882 L93,247 Z"/>
    <polygon id="intro_image-b" points="107 233 107 81 339 81 339 233"/>
    <path id="intro_image-c" d="M378.168949,217.034016 C377.55771,216.422777 376.57925,216.425548 375.974045,217.030752 L373.769349,219.235448 C373.164145,219.840653 372.335725,219.993659 371.574445,219.232184 C370.110568,217.767931 371.663598,214.736633 373.772613,212.637681 C378.640257,207.793261 386.501898,207.781622 391.357956,212.637681 C396.214015,217.493739 396.214015,225.366965 391.357956,230.223024 C386.501898,235.079082 378.528714,234.983954 373.772613,230.223024 C371.938075,228.386622 371.827763,227.664326 371.827763,227.664326 C371.415411,226.893027 371.627117,225.774016 372.234406,225.166727 L378.172213,219.22892 C378.770108,218.631025 378.775956,217.641024 378.168949,217.034016 Z M380.916659,227.475314 C381.82717,226.564803 381.82717,225.088573 380.916659,224.178062 C380.006148,223.267551 378.529918,223.267551 377.619407,224.178062 C376.708896,225.088573 376.708896,226.564803 377.619407,227.475314 C378.529918,228.385825 380.006148,228.385825 380.916659,227.475314 Z M389.159788,228.024856 C389.766796,227.417848 389.766796,226.433695 389.159788,225.826688 C388.552781,225.219681 387.568628,225.219681 386.96162,225.826688 C386.354613,226.433695 386.354613,227.417848 386.96162,228.024856 C387.568628,228.631863 388.552781,228.631863 389.159788,228.024856 Z M391.357956,222.529436 C391.964964,221.922429 391.964964,220.938275 391.357956,220.331268 C390.750949,219.724261 389.766796,219.724261 389.159788,220.331268 C388.552781,220.938275 388.552781,221.922429 389.159788,222.529436 C389.766796,223.136443 390.750949,223.136443 391.357956,222.529436 Z M389.159788,217.034016 C389.766796,216.427009 389.766796,215.442856 389.159788,214.835848 C388.552781,214.228841 387.568628,214.228841 386.96162,214.835848 C386.354613,215.442856 386.354613,216.427009 386.96162,217.034016 C387.568628,217.641024 388.552781,217.641024 389.159788,217.034016 Z M384.213911,214.286307 C384.820918,213.679299 384.820918,212.695146 384.213911,212.088139 C383.606903,211.481131 382.62275,211.481131 382.015743,212.088139 C381.408735,212.695146 381.408735,213.679299 382.015743,214.286307 C382.62275,214.893314 383.606903,214.893314 384.213911,214.286307 Z"/>
  </defs>
  <g fill="none" fill-rule="evenodd" transform="translate(2 1)">
    <g stroke="#DCE9FC" stroke-linecap="round" stroke-linejoin="round" stroke-width="5" transform="translate(0 260)">
      <path d="M.5 1.5L522.5 1.5M531.5 1.5L543.5 1.5"/>
    </g>
    <g transform="translate(63)">
      <g fill="#FFF" stroke="#DCE9FC" stroke-width="2" transform="matrix(-1 0 0 1 88 208)">
        <path d="M42.6086957 2.88021051L42.6086957 49.4691809C42.6086957 51.0564274 41.29011 52.3478261 39.6678502 52.3478261L2.94084549 52.3478261C1.31858562 52.3478261 0 51.0564274 0 49.4691809L0 2.88021051C0 1.29139874 1.31858562 0 2.94084549 0L39.6678502 0C41.29011 0 42.6086957 1.29139874 42.6086957 2.88021051zM42.6086957 12.173913L42.6086957 17.7744677C46.9109953 17.7744677 50.3994454 21.2629177 50.3994454 25.5664376 50.3994454 29.8687372 46.9109953 33.3559671 42.6086957 33.3559671L42.6086957 38.9565217C50.0041121 38.9565217 56 32.9606339 56 25.5664376 56 18.1698009 50.0041121 12.173913 42.6086957 12.173913"/>
      </g>
      <path stroke="#DCE9FC" stroke-dasharray="2 8" stroke-linecap="round" stroke-width="2" d="M332.46818,198.445715 C378.669709,198.445715 416.123449,160.991975 416.123449,114.790445 C416.123449,68.5889154 378.669709,31.1351754 332.46818,31.1351754 C286.26665,31.1351754 248.81291,68.5889154 248.81291,114.790445 C248.81291,160.991975 286.26665,198.445715 332.46818,198.445715 Z"/>
      <circle cx="332.525" cy="114.845" r="62.898" stroke="#DCE9FC" stroke-linecap="round"/>
      <use fill="#FFF" xlink:href="#intro_image-a"/>
      <path stroke="#D7E5FB" stroke-width="2" d="M94,246 L352,246 L352,74.4516882 C352,70.8723615 349.350763,68 346.125258,68 L99.8747422,68 C96.6492372,68 94,70.8723615 94,74.4516882 L94,246 Z"/>
      <use fill="#FFF" xlink:href="#intro_image-b"/>
      <path stroke="#D7E5FB" d="M107.5,232.5 L338.5,232.5 L338.5,81.5 L107.5,81.5 L107.5,232.5 Z"/>
      <path fill="#D7E5FB" d="M115.4 91L329.6 91C329.820914 91 330 91.1790861 330 91.4L330 115 115 115 115 91.4C115 91.1790861 115.179086 91 115.4 91zM115.4 169L218.6 169C218.820914 169 219 169.179086 219 169.4L219 193 115 193 115 169.4C115 169.179086 115.179086 169 115.4 169zM226.4 169L329.6 169C329.820914 169 330 169.179086 330 169.4L330 193 226 193 226 169.4C226 169.179086 226.179086 169 226.4 169zM115.4 123L329.6 123C329.820914 123 330 123.179086 330 123.4L330 138 115 138 115 123.4C115 123.179086 115.179086 123 115.4 123zM115.4 201L329.6 201C329.820914 201 330 201.179086 330 201.4L330 209 115 209 115 201.4C115 201.179086 115.179086 201 115.4 201zM115.4 217L329.6 217C329.820914 217 330 217.179086 330 217.4L330 225 115 225 115 217.4C115 217.179086 115.179086 217 115.4 217zM115.4 146L329.6 146C329.820914 146 330 146.179086 330 146.4L330 161 115 161 115 146.4C115 146.179086 115.179086 146 115.4 146z"/>
      <path fill="#FFF" stroke="#D7E5FB" stroke-width="2" d="M87.0289742,261 C84.8034456,261 83,259.075273 83,256.700078 L83,250.299922 C83,247.924727 84.8034456,246 87.0289742,246 L358.971026,246 C361.196554,246 363,247.924727 363,250.299922 L363,256.700078 C363,259.075273 361.196554,261 358.971026,261 L87.0289742,261 Z"/>
      <path fill="#DCE9FC" d="M203.212264,251 C201.23408,251 199.447524,249.960157 198.660377,248.353364 L198,247 L248,247 L247.339623,248.353364 C246.552476,249.960157 244.76592,251 242.787736,251 L203.212264,251 Z"/>
      <path fill="#F6CA46" d="M87.5068406,155.520522 C88.2499535,155.747249 88.9624549,156.044154 89.6366221,156.403514 L93.8994949,154.272078 L96.7279221,157.100505 L94.5964857,161.363378 C94.9558459,162.037545 95.252751,162.750046 95.4794783,163.493159 L100,165 L100,169 L95.4794783,170.506841 C95.252751,171.249954 94.9558459,171.962455 94.5964857,172.636622 L96.7279221,176.899495 L93.8994949,179.727922 L89.6366221,177.596486 C88.9624549,177.955846 88.2499535,178.252751 87.5068406,178.479478 L86,183 L82,183 L80.4931594,178.479478 C79.7500465,178.252751 79.0375451,177.955846 78.3633779,177.596486 L74.1005051,179.727922 L71.2720779,176.899495 L73.4035143,172.636622 C73.0441541,171.962455 72.747249,171.249954 72.5205217,170.506841 L68,169 L68,165 L72.5205217,163.493159 C72.747249,162.750046 73.0441541,162.037545 73.4035143,161.363378 L71.2720779,157.100505 L74.1005051,154.272078 L78.3633779,156.403514 C79.0375451,156.044154 79.7500465,155.747249 80.4931594,155.520522 L82,151 L86,151 L87.5068406,155.520522 L87.5068406,155.520522 Z M84.4444444,172.333333 C87.1445032,172.333333 89.3333333,170.144503 89.3333333,167.444444 C89.3333333,164.744386 87.1445032,162.555556 84.4444444,162.555556 C81.7443857,162.555556 79.5555556,164.744386 79.5555556,167.444444 C79.5555556,170.144503 81.7443857,172.333333 84.4444444,172.333333 Z"/>
      <path fill="#FFF" stroke="#D7E5FB" stroke-width="2" d="M19.3738216 151.845493L25.509023 153.387774C27.4321945 153.872768 27.4321945 156.672154 25.509023 157.157148L19.3738216 158.699429C18.7239223 158.862386 18.2085502 159.3629 18.0133909 160.018612L15.28874 169.171419C14.7449467 171.002756 12.2097708 171.002756 11.6640827 169.171419L8.93943182 160.018612C8.74616729 159.3629 8.22890046 158.862386 7.57900112 158.699429L1.44379971 157.157148C-.481266571 156.672154-.481266571 153.872768 1.44379971 153.387774L7.57900112 151.845493C8.22890046 151.682535 8.74616729 151.182022 8.93943182 150.52631L11.6640827 141.373503C12.2097708 139.542166 14.7449467 139.542166 15.28874 141.373503L18.0133909 150.52631C18.2085502 151.182022 18.7239223 151.682535 19.3738216 151.845493M435.373822 180.845493L441.509023 182.387774C443.432195 182.872768 443.432195 185.672154 441.509023 186.157148L435.373822 187.699429C434.723922 187.862386 434.20855 188.3629 434.013391 189.018612L431.28874 198.171419C430.744947 200.002756 428.209771 200.002756 427.664083 198.171419L424.939432 189.018612C424.746167 188.3629 424.2289 187.862386 423.579001 187.699429L417.4438 186.157148C415.518733 185.672154 415.518733 182.872768 417.4438 182.387774L423.579001 180.845493C424.2289 180.682535 424.746167 180.182022 424.939432 179.52631L427.664083 170.373503C428.209771 168.542166 430.744947 168.542166 431.28874 170.373503L434.013391 179.52631C434.20855 180.182022 434.723922 180.682535 435.373822 180.845493M89.3378249 26.9330618C93.256186 27.908756 93.256186 33.5404627 89.3378249 34.5161569L76.8376737 37.6188644C75.5135378 37.9466976 74.4634943 38.953614 74.0658675 40.2727525L68.5145341 58.6860529C67.4065837 62.370274 62.2412958 62.370274 61.1294849 58.6860529L55.5781516 40.2727525C55.1843852 38.953614 54.1304812 37.9466976 52.8063453 37.6188644L40.3061941 34.5161569C36.3839725 33.5404627 36.3839725 27.908756 40.3061941 26.9330618L52.8063453 23.8303544C54.1304812 23.5025211 55.1843852 22.4956048 55.5781516 21.1764662L61.1294849 2.76316589C62.2412958-.921055295 67.4065837-.921055295 68.5145341 2.76316589L74.0658675 21.1764662C74.4634943 22.4956048 75.5135378 23.5025211 76.8376737 23.8303544L89.3378249 26.9330618z"/>
      <path fill="#F6CA46" d="M45.3856059,99.6143941 C45.1348368,98.7870253 45,97.9092591 45,97 C45,92.0294373 49.0294373,88 54,88 C55.4539504,88 56.8273749,88.3447724 58.0429782,88.9570218 L52,95 L56,99 L62.0429782,92.9570218 C62.6552276,94.1726251 63,95.5460496 63,97 C63,101.970563 58.9705627,106 54,106 C53.0907409,106 52.2129747,105.865163 51.3856059,105.614394 L37,120 L31,114 L45.3856059,99.6143941 L45.3856059,99.6143941 Z"/>
      <use fill="#F6B610" xlink:href="#intro_image-c"/>
    </g>
  </g>
</svg>
