<svg xmlns="http://www.w3.org/2000/svg" xmlns:xlink="http://www.w3.org/1999/xlink" width="60" height="24" viewBox="0 0 60 24">
  <defs>
    <polygon id="powered_by_ds_gray-a" points=".008 17.143 30.273 17.143 30.273 .042 .008 .042 .008 17.143"/>
    <polygon id="powered_by_ds_gray-c" points="0 17.143 59.772 17.143 59.772 .042 0 .042"/>
  </defs>
  <g fill="none" fill-rule="evenodd" opacity=".2" transform="translate(0 -1)">
    <text fill="#333" font-family="HelveticaNeue, Helvetica Neue" font-size="6">
      <tspan x="0" y="6">Powered by</tspan>
    </text>
    <g transform="translate(0 7)">
      <path fill="#FEFEFE" d="M1.88861855 5.01316692L3.00229502 5.01316692C4.59970031 5.01316692 5.94406183 5.81220451 5.94406183 7.52504662 5.94406183 9.50405414 4.62418841 10.1827308 2.87044964 10.1827308L1.88861855 10.1827308 1.88861855 5.01316692 1.88861855 5.01316692zM.0000177450043 11.9529564L3.08534164 11.9529564C5.64044481 11.9529564 7.9016907 10.4386105 7.9016907 7.62140752 7.9016907 4.43626466 5.5918235 3.2427609 2.83194298 3.2427609L.0000177450043 3.2427609.0000177450043 11.9529564.0000177450043 11.9529564zM10.1273401 8.96197895C10.1273401 8.06549774 10.6731765 7.44907669 11.5788815 7.44907669 12.4881355 7.44907669 13.0311326 8.06549774 13.0311326 8.96197895 13.0311326 9.86152782 12.4881355 10.477588 11.5788815 10.477588 10.6731765 10.477588 10.1273401 9.86152782 10.1273401 8.96197895M8.31451048 8.96197895C8.31451048 10.8709714 9.76498713 12.1014677 11.5788815 12.1014677 13.3947278 12.1014677 14.8468015 10.8709714 14.8468015 8.96197895 14.8468015 7.05551278 13.3947278 5.82447519 11.5788815 5.82447519 9.76498713 5.82447519 8.31451048 7.05551278 8.31451048 8.96197895M20.7260053 6.6247218C20.1579877 6.03518797 19.3223755 5.8246015 18.6336918 5.8246015 16.818023 5.8246015 15.3675464 7.0556391 15.3675464 8.96174436 15.3675464 10.8712782 16.818023 12.1014135 18.6336918 12.1014135 19.3223755 12.1014135 20.1579877 11.8915489 20.7260053 11.3011128L19.5282175 10.020812C19.3223755 10.2665865 19.0333093 10.4764511 18.6336918 10.4764511 17.7262123 10.4764511 17.1821505 9.86165414 17.1821505 8.96174436 17.1821505 8.06544361 17.7262123 7.44956391 18.6336918 7.44956391 19.0081114 7.44956391 19.3472185 7.64607519 19.5282175 7.90357895L20.7260053 6.6247218M26.9231996 5.97453835L25.1062886 5.97453835 25.1062886 8.95035789C25.1062886 9.7275609 24.9620217 10.4775158 24.0160356 10.4775158 23.0854875 10.4775158 23.0744856 9.59041805 23.0744856 8.90181654L23.0744856 5.97453835 21.2595266 5.97453835 21.2595266 9.2719218C21.2595266 10.8710797 21.5954395 12.1013955 23.4375484 12.1013955 24.3208947 12.1013955 24.9141102 11.610388 25.1554423 11.1410346L25.1786882 11.1410346 25.1786882 11.9530647 26.9231996 11.9530647 26.9231996 5.97453835"/>
      <g transform="translate(28.037)">
        <mask id="powered_by_ds_gray-b" fill="#fff">
          <use xlink:href="#powered_by_ds_gray-a"/>
        </mask>
        <path fill="#FEFEFE" d="M22.1672546,9.01308271 C21.8049016,9.48893233 20.8692075,10.5983459 20.8692075,11.0193383 C20.8692075,11.4410526 21.0771789,11.7039699 21.3889587,11.7039699 C22.1672546,11.7039699 24.7108235,8.59263158 25.9045299,8.59263158 C26.7861017,8.59263158 25.3349153,11.8111579 27.2549247,11.8111579 C27.9485769,11.8111579 30.27335,10.2484511 30.27335,9.34384962 C30.27335,9.18487218 30.1086763,8.90842105 29.9017696,8.90842105 C29.7771996,8.90842105 28.1870698,10.8609023 27.5127596,10.8609023 C26.9410156,10.8609023 27.5127596,9.64718797 27.5127596,8.85536842 C27.5127596,8.03233083 27.3865927,7.32496241 26.5779528,7.32496241 C25.4887645,7.32496241 23.9323501,8.75052632 23.5682226,8.96111278 C23.7252659,8.64442105 23.7770813,8.48562406 23.7770813,8.27413534 C23.7770813,7.8518797 23.2569753,7.37657143 22.8406775,7.37657143 C22.4809862,7.37657143 20.5625738,8.37825564 20.5625738,9.6603609 C20.5625738,9.97542857 21.7010933,8.85536842 22.1672546,9.01308271 M13.4475369,3.92003008 C13.4475369,3.52718797 13.7371354,3.20941353 14.0987786,3.20941353 C14.4568727,3.20941353 14.7464712,3.52718797 14.7464712,3.92003008 C14.7464712,4.31359398 14.4568727,4.63335338 14.0987786,4.63335338 C13.7371354,4.63335338 13.4475369,4.31359398 13.4475369,3.92003008 M14.3541292,15.8850226 C14.1715331,15.8850226 14.0524641,15.8052632 14.0524641,15.381203 C14.0524641,14.0249323 16.8311543,12.1052932 17.7984345,12.1052932 C17.2360953,13.3520301 14.8726382,15.8850226 14.3541292,15.8850226 M19.130552,11.6101353 C19.5505762,11.0462256 20.7567042,8.0593985 20.7567042,7.63154887 C20.7567042,6.91082707 20.1114958,6.53115789 19.4158916,6.53115789 C17.134239,6.53115789 13.4475369,10.4911579 12.6687087,10.4911579 C11.7897986,10.4911579 13.1377091,8.59263158 13.1377091,7.8518797 C13.1377091,7.35960902 12.7056183,6.85109774 12.3579936,6.85109774 C11.6836835,6.85109774 9.55570255,8.90842105 8.15508937,9.38318797 C8.46704654,8.85536842 8.62284768,8.27413534 8.62284768,7.95942857 C8.62284768,5.42499248 1.56406242,6.37434586 1.56406242,4.95112782 C1.56406242,3.67353383 5.98185869,1.4678797 8.57085482,1.4678797 C8.93409505,1.4678797 11.3202658,1.62631579 11.3202658,2.46938346 C11.3202658,2.78553383 10.8017568,2.892 10.8017568,3.20941353 C10.8017568,3.52574436 11.0613662,3.57807519 11.3731459,3.57807519 C11.8403719,3.57807519 12.1514418,3.15455639 12.1514418,2.62745865 C12.1514418,0.477383459 10.3127044,0.0419548872 8.82922208,0.0419548872 C5.01173931,0.0419548872 0.473277009,3.42 0.473277009,4.95112782 C0.473277009,6.95521805 6.90921261,6.58619549 6.90921261,8.38132331 C6.90921261,10.5434887 0.00782554689,12.4968722 0.00782554689,13.0241504 C0.00782554689,13.553594 0.370710885,13.5012632 0.784346935,13.5012632 C3.58770271,13.5012632 10.9559608,8.75052632 11.5798752,8.1166015 C11.6313357,9.22348872 11.1719175,10.2753383 11.1719175,10.7484812 C11.1719175,11.2237895 11.5284147,11.8647519 12.0465688,11.8647519 C12.5661425,11.8647519 13.3449708,11.0716692 14.4868618,10.4388271 C14.4354013,10.8082105 14.7464712,11.3887218 15.1602847,11.3887218 C16.042034,11.3887218 18.7415815,9.17079699 19.2616875,8.80249624 C19.1385372,9.79912782 18.5078798,10.965203 18.1497856,11.4208421 C17.9045496,11.3423459 17.5329692,11.3039098 17.2740696,11.3039098 C16.2004969,11.3039098 13.2411625,14.4957293 13.2411625,15.9804812 C13.2411625,16.5609925 13.5529422,17.1429474 14.1225569,17.1429474 C14.9152262,17.1429474 17.7727042,14.7362707 18.8212565,12.3034286 C19.286708,12.3564812 20.039806,12.7087218 20.039806,12.3375338 C20.039806,11.9706767 19.5480919,11.7149774 19.130552,11.6101353 M15.4206039,10.5434887 C15.1097114,10.2275188 18.2628213,7.66186466 19.2095172,7.79900752 C18.846277,8.90842105 15.7311415,10.8609023 15.4206039,10.5434887" mask="url(#powered_by_ds_gray-b)"/>
      </g>
      <path fill="#FEFEFE" d="M57.722618,14.4100692 C57.722618,13.9203248 58.1147826,13.5195429 58.597979,13.5195429 C59.0838373,13.5195429 59.4754695,13.9203248 59.4754695,14.4100692 C59.4754695,14.9050466 59.0838373,15.3038436 58.597979,15.3038436 C58.1147826,15.3038436 57.722618,14.9050466 57.722618,14.4100692 L57.722618,14.4100692 Z M57.5332788,14.4100692 C57.5332788,15.0095278 58.0113292,15.4972872 58.597979,15.4972872 C59.1865808,15.4972872 59.6649861,15.0095278 59.6649861,14.4100692 C59.6649861,13.8136782 59.1865808,13.3280842 58.597979,13.3280842 C58.0113292,13.3280842 57.5332788,13.8136782 57.5332788,14.4100692 L57.5332788,14.4100692 Z M58.4139633,13.9778887 L58.5765076,13.9778887 C58.713499,13.9742797 58.8653963,13.9838436 58.8653963,14.1487759 C58.8653963,14.3162346 58.713499,14.3238135 58.5765076,14.3238135 L58.4139633,14.3238135 L58.4139633,13.9778887 Z M58.1893116,15.0232421 L58.4139633,15.0232421 L58.4139633,14.5163549 L58.5765076,14.5163549 L58.8801246,15.0232421 L59.1163106,15.0232421 L58.7977878,14.4990316 C58.9631712,14.4786406 59.0889833,14.3737985 59.0889833,14.1590617 C59.0889833,13.9203248 58.951637,13.7844451 58.6588444,13.7844451 L58.1893116,13.7844451 L58.1893116,15.0232421 L58.1893116,15.0232421 Z"/>
      <mask id="powered_by_ds_gray-d" fill="#fff">
        <use xlink:href="#powered_by_ds_gray-c"/>
      </mask>
      <polygon fill="#FEFEFE" points="31.604 12.043 34.477 12.043 34.477 11.44 31.604 11.44" mask="url(#powered_by_ds_gray-d)"/>
      <polygon fill="#333" points="35.819 12.043 38.694 12.043 38.694 11.44 35.819 11.44" mask="url(#powered_by_ds_gray-d)"/>
      <polygon fill="#333" points="27.387 12.043 30.261 12.043 30.261 11.44 27.387 11.44" mask="url(#powered_by_ds_gray-d)"/>
      <polygon fill="#FEFEFE" points="44.25 12.043 47.126 12.043 47.126 11.44 44.25 11.44" mask="url(#powered_by_ds_gray-d)"/>
      <polygon fill="#333" points="48.467 12.043 51.343 12.043 51.343 11.44 48.467 11.44" mask="url(#powered_by_ds_gray-d)"/>
      <polygon fill="#333" points="40.036 12.043 42.911 12.043 42.911 11.44 40.036 11.44" mask="url(#powered_by_ds_gray-d)"/>
      <polygon fill="#333" points="56.898 12.043 59.772 12.043 59.772 11.44 56.898 11.44" mask="url(#powered_by_ds_gray-d)"/>
      <polygon fill="#333" points="52.682 12.043 55.557 12.043 55.557 11.44 52.682 11.44" mask="url(#powered_by_ds_gray-d)"/>
      <path fill="#333" d="M1.88861855 5.01316692L3.00229502 5.01316692C4.59970031 5.01316692 5.94406183 5.81220451 5.94406183 7.52504662 5.94406183 9.50405414 4.62418841 10.1827308 2.87044964 10.1827308L1.88861855 10.1827308 1.88861855 5.01316692zM.0000177450043 11.9529564L3.08534164 11.9529564C5.64044481 11.9529564 7.9016907 10.4386105 7.9016907 7.62140752 7.9016907 4.43626466 5.5918235 3.2427609 2.83194298 3.2427609L.0000177450043 3.2427609.0000177450043 11.9529564.0000177450043 11.9529564zM10.1273401 8.96197895C10.1273401 8.06549774 10.6731765 7.44907669 11.5788815 7.44907669 12.4881355 7.44907669 13.0311326 8.06549774 13.0311326 8.96197895 13.0311326 9.86152782 12.4881355 10.477588 11.5788815 10.477588 10.6731765 10.477588 10.1273401 9.86152782 10.1273401 8.96197895M8.31451048 8.96197895C8.31451048 10.8709714 9.76498713 12.1014677 11.5788815 12.1014677 13.3947278 12.1014677 14.8468015 10.8709714 14.8468015 8.96197895 14.8468015 7.05551278 13.3947278 5.82447519 11.5788815 5.82447519 9.76498713 5.82447519 8.31451048 7.05551278 8.31451048 8.96197895M20.7260053 6.6247218C20.1579877 6.03518797 19.3223755 5.8246015 18.6336918 5.8246015 16.818023 5.8246015 15.3675464 7.0556391 15.3675464 8.96174436 15.3675464 10.8712782 16.818023 12.1014135 18.6336918 12.1014135 19.3223755 12.1014135 20.1579877 11.8915489 20.7260053 11.3011128L19.5282175 10.020812C19.3223755 10.2665865 19.0333093 10.4764511 18.6336918 10.4764511 17.7262123 10.4764511 17.1821505 9.86165414 17.1821505 8.96174436 17.1821505 8.06544361 17.7262123 7.44956391 18.6336918 7.44956391 19.0081114 7.44956391 19.3472185 7.64607519 19.5282175 7.90357895L20.7260053 6.6247218M26.9231996 5.97453835L25.1062886 5.97453835 25.1062886 8.95035789C25.1062886 9.7275609 24.9620217 10.4775158 24.0160356 10.4775158 23.0854875 10.4775158 23.0744856 9.59041805 23.0744856 8.90181654L23.0744856 5.97453835 21.2595266 5.97453835 21.2595266 9.2719218C21.2595266 10.8710797 21.5954395 12.1013955 23.4375484 12.1013955 24.3208947 12.1013955 24.9141102 11.610388 25.1554423 11.1410346L25.1786882 11.1410346 25.1786882 11.9530647 26.9231996 11.9530647 26.9231996 5.97453835M50.2043613 9.01308271C49.8420083 9.48893233 48.9063143 10.5983459 48.9063143 11.0193383 48.9063143 11.4410526 49.1142857 11.7039699 49.4260654 11.7039699 50.2043613 11.7039699 52.7479302 8.59263158 53.9416367 8.59263158 54.8232085 8.59263158 53.372022 11.8111579 55.2920315 11.8111579 55.9856837 11.8111579 58.3104567 10.2484511 58.3104567 9.34384962 58.3104567 9.18487218 58.1457831 8.90842105 57.9388763 8.90842105 57.8143064 8.90842105 56.2241766 10.8609023 55.5498664 10.8609023 54.9781224 10.8609023 55.5498664 9.64718797 55.5498664 8.85536842 55.5498664 8.03233083 55.4236994 7.32496241 54.6150596 7.32496241 53.5258712 7.32496241 51.9694569 8.75052632 51.6053294 8.96111278 51.7623727 8.64442105 51.8141881 8.48562406 51.8141881 8.27413534 51.8141881 7.8518797 51.294082 7.37657143 50.8777842 7.37657143 50.518093 7.37657143 48.5996806 8.37825564 48.5996806 9.6603609 48.5996806 9.97542857 49.7382001 8.85536842 50.2043613 9.01308271M41.4846437 3.92003008C41.4846437 3.52718797 41.7742421 3.20941353 42.1358853 3.20941353 42.4939795 3.20941353 42.783578 3.52718797 42.783578 3.92003008 42.783578 4.31359398 42.4939795 4.63335338 42.1358853 4.63335338 41.7742421 4.63335338 41.4846437 4.31359398 41.4846437 3.92003008M42.3912359 15.8850226C42.2086398 15.8850226 42.0895709 15.8052632 42.0895709 15.381203 42.0895709 14.0249323 44.8682611 12.1052932 45.8355413 12.1052932 45.2732021 13.3520301 42.909745 15.8850226 42.3912359 15.8850226M47.1676587 11.6101353C47.587683 11.0462256 48.7938109 8.0593985 48.7938109 7.63154887 48.7938109 6.91082707 48.1486026 6.53115789 47.4529984 6.53115789 45.1713458 6.53115789 41.4846437 10.4911579 40.7058154 10.4911579 39.8269054 10.4911579 41.1748159 8.59263158 41.1748159 7.8518797 41.1748159 7.35960902 40.742725 6.85109774 40.3951004 6.85109774 39.7207902 6.85109774 37.5928093 8.90842105 36.1921961 9.38318797 36.5041533 8.85536842 36.6599545 8.27413534 36.6599545 7.95942857 36.6599545 5.42499248 29.6011692 6.37434586 29.6011692 4.95112782 29.6011692 3.67353383 34.0189655 1.4678797 36.6079616 1.4678797 36.9712018 1.4678797 39.3573726 1.62631579 39.3573726 2.46938346 39.3573726 2.78553383 38.8388635 2.892 38.8388635 3.20941353 38.8388635 3.52574436 39.0984729 3.57807519 39.4102527 3.57807519 39.8774786 3.57807519 40.1885486 3.15455639 40.1885486 2.62745865 40.1885486.477383459 38.3498112.0419548872 36.8663289.0419548872 33.0488461.0419548872 28.5103838 3.42 28.5103838 4.95112782 28.5103838 6.95521805 34.9463194 6.58619549 34.9463194 8.38132331 34.9463194 10.5434887 28.0449323 12.4968722 28.0449323 13.0241504 28.0449323 13.553594 28.4078177 13.5012632 28.8214537 13.5012632 31.6248095 13.5012632 38.9930676 8.75052632 39.616982 8.1166015 39.6684425 9.22348872 39.2090243 10.2753383 39.2090243 10.7484812 39.2090243 11.2237895 39.5655215 11.8647519 40.0836756 11.8647519 40.6032493 11.8647519 41.3820775 11.0716692 42.5239686 10.4388271 42.4725081 10.8082105 42.783578 11.3887218 43.1973915 11.3887218 44.0791407 11.3887218 46.7786882 9.17079699 47.2987943 8.80249624 47.175644 9.79912782 46.5449865 10.965203 46.1868924 11.4208421 45.9416564 11.3423459 45.570076 11.3039098 45.3111764 11.3039098 44.2376036 11.3039098 41.2782693 14.4957293 41.2782693 15.9804812 41.2782693 16.5609925 41.590049 17.1429474 42.1596636 17.1429474 42.952333 17.1429474 45.809811 14.7362707 46.8583633 12.3034286 47.3238148 12.3564812 48.0769128 12.7087218 48.0769128 12.3375338 48.0769128 11.9706767 47.5851987 11.7149774 47.1676587 11.6101353M43.4577107 10.5434887C43.1468182 10.2275188 46.299928 7.66186466 47.246624 7.79900752 46.8833838 8.90842105 43.7682483 10.8609023 43.4577107 10.5434887M57.722618 14.4100692C57.722618 13.9203248 58.1147826 13.5195429 58.597979 13.5195429 59.0838373 13.5195429 59.4754695 13.9203248 59.4754695 14.4100692 59.4754695 14.9050466 59.0838373 15.3038436 58.597979 15.3038436 58.1147826 15.3038436 57.722618 14.9050466 57.722618 14.4100692L57.722618 14.4100692zM57.5332788 14.4100692C57.5332788 15.0095278 58.0113292 15.4972872 58.597979 15.4972872 59.1865808 15.4972872 59.6649861 15.0095278 59.6649861 14.4100692 59.6649861 13.8136782 59.1865808 13.3280842 58.597979 13.3280842 58.0113292 13.3280842 57.5332788 13.8136782 57.5332788 14.4100692L57.5332788 14.4100692zM58.4139633 13.9778887L58.5765076 13.9778887C58.713499 13.9742797 58.8653963 13.9838436 58.8653963 14.1487759 58.8653963 14.3162346 58.713499 14.3238135 58.5765076 14.3238135L58.4139633 14.3238135 58.4139633 13.9778887zM58.1893116 15.0232421L58.4139633 15.0232421 58.4139633 14.5163549 58.5765076 14.5163549 58.8801246 15.0232421 59.1163106 15.0232421 58.7977878 14.4990316C58.9631712 14.4786406 59.0889833 14.3737985 59.0889833 14.1590617 59.0889833 13.9203248 58.951637 13.7844451 58.6588444 13.7844451L58.1893116 13.7844451 58.1893116 15.0232421 58.1893116 15.0232421z" mask="url(#powered_by_ds_gray-d)"/>
    </g>
  </g>
</svg>
