<svg xmlns="http://www.w3.org/2000/svg" width="120" height="56" viewBox="0 0 120 56">
  <g fill="none" fill-rule="evenodd">
    <g transform="translate(0 15)">
      <rect width="74" height="23" y="16" fill="#2C6EE1"/>
      <path fill="#FFD5B1" d="M86.8038476,18 L92,9 L92,2 C92,0.8954305 92.8954305,2.02906125e-16 94,0 L96.5,0 C98.9852814,-4.56538782e-16 101,2.01471863 101,4.5 L101,15 L110.5,15 C112.985281,15 115,17.0147186 115,19.5 C115,20.6525317 114.56672,21.7038653 113.85416,22.5 C114.56672,23.2961347 115,24.3474683 115,25.5 C115,27.2514796 113.99937,28.7692496 112.538591,29.5128299 C112.834026,30.1121138 113,30.7866743 113,31.5 C113,33.4816006 111.719158,35.1640445 109.940206,35.7646003 C109.979542,36.003902 110,36.2495619 110,36.5 C110,38.9852814 107.985281,41 105.5,41 L89.5,41 C87.5406718,41 85.8738132,39.7477886 85.2560586,38 L72,38 L72,18 L86.8038476,18 Z"/>
      <path fill="#FFE7CF" d="M92,3 L93,3 C93.5522847,3 94,3.44771525 94,4 L94,8 L92,8 L92,3 Z"/>
      <path fill="#4186EC" d="M71.8843284,14 L79.6360726,14 C82.0824555,14 83.5426875,15.790861 82.8975921,18 L77.349361,37 C76.7042656,39.209139 74.1981272,41 71.7517442,41 L64,41 L71.8843284,14 Z"/>
      <circle cx="71" cy="36" r="2" fill="#FFF"/>
    </g>
    <polygon fill="#FFDA3E" points="110.5 14.25 104.916 17.186 105.982 10.968 101.465 6.564 107.708 5.657 110.5 0 113.292 5.657 119.535 6.564 115.018 10.968 116.084 17.186"/>
    <polygon fill="#FFEEBC" points="81.804 21 79.453 22.236 79.902 19.618 78 17.764 80.629 17.382 81.804 15 82.98 17.382 85.608 17.764 83.706 19.618 84.155 22.236"/>
    <polygon fill="#FFEEBC" points="113.753 25.342 112.051 26.236 112.376 24.342 111 23 112.902 22.724 113.753 21 114.603 22.724 116.506 23 115.129 24.342 115.454 26.236"/>
  </g>
</svg>
