<svg xmlns="http://www.w3.org/2000/svg" width="90" height="26" viewBox="0 0 90 26">
  <g fill="none">
    <polygon fill="#8A8B8A" points="47.603 18.353 52.066 18.353 52.066 17.588 47.603 17.588"/>
    <polygon fill="#8A8B8A" points="54.298 18.353 58.76 18.353 58.76 17.588 54.298 17.588"/>
    <polygon fill="#8A8B8A" points="41.653 18.353 46.116 18.353 46.116 17.588 41.653 17.588"/>
    <polygon fill="#8A8B8A" points="66.942 18.353 71.405 18.353 71.405 17.588 66.942 17.588"/>
    <polygon fill="#8A8B8A" points="72.893 18.353 77.355 18.353 77.355 17.588 72.893 17.588"/>
    <polygon fill="#8A8B8A" points="60.248 18.353 64.711 18.353 64.711 17.588 60.248 17.588"/>
    <polygon fill="#8A8B8A" points="85.537 18.353 90 18.353 90 17.588 85.537 17.588"/>
    <polygon fill="#8A8B8A" points="79.587 18.353 84.05 18.353 84.05 17.588 79.587 17.588"/>
    <path fill="#005CB9" d="M2.84439144,8.28999996 L4.52182848,8.28999996 C6.92761374,8.28999996 8.95229399,9.4823829 8.95229399,12.0390528 C8.95229399,14.9926471 6.9643506,16.0054 4.32312998,16.0054 L2.84439144,16.0054 L2.84439144,8.28999996 Z M0,18.54 L4.64673381,18.54 C8.49515965,18.54 11.9008264,16.2798162 11.9008264,12.07525 C11.9008264,7.32149217 8.42168593,5.53999996 4.26530935,5.53999996 L0,5.53999996 L0,18.54 Z M15.4334387,13.5660488 C15.4334387,12.1459783 16.2415786,11.1700001 17.5818851,11.1700001 C18.9278429,11.1700001 19.7315873,12.1459783 19.7315873,13.5660488 C19.7315873,14.9909018 18.9278429,15.9661968 17.5818851,15.9661968 C16.2415786,15.9661968 15.4334387,14.9909018 15.4334387,13.5660488 Z M12.75,13.6690508 C12.75,16.6922944 14.8971905,18.6411763 17.5818851,18.6411763 C20.2697193,18.6411763 22.4194215,16.6922944 22.4194215,13.6690508 C22.4194215,10.6495649 20.2697193,8.69999981 17.5818851,8.69999981 C14.8971905,8.69999981 12.75,10.6495649 12.75,13.6690508 Z M31.4318182,9.96737085 C30.5645059,9.03341062 29.2887991,8.69999981 28.2372073,8.69999981 C25.4649173,8.69999981 23.25,10.6495649 23.25,13.6683676 C23.25,16.6929776 25.4649173,18.6411763 28.2372073,18.6411763 C29.2887991,18.6411763 30.5645059,18.3087903 31.4318182,17.3738052 L29.6029488,15.3460116 C29.2887991,15.7351047 28.8470463,16.0678323 28.2372073,16.0678323 C26.8513861,16.0678323 26.0209946,15.0939038 26.0209946,13.6683676 C26.0209946,12.2489803 26.8513861,11.2736854 28.2372073,11.2736854 C28.8088302,11.2736854 29.3266914,11.5848916 29.6029488,11.9927733 L31.4318182,9.96737085 Z M40.7665289,8.9800005 L38.034427,8.9800005 L38.034427,13.6194138 C38.034427,14.8309674 37.8175428,16.000152 36.3947192,16.000152 C34.9954978,16.000152 34.9789125,14.6171045 34.9789125,13.5437547 L34.9789125,8.9800005 L32.25,8.9800005 L32.25,14.1207811 C32.25,16.613831 32.7548935,18.5318721 35.5252691,18.5318721 C36.8533654,18.5318721 37.7454608,17.7665388 38.1084227,17.0348316 L38.143188,17.0348316 L38.143188,18.3005236 L40.7665289,18.3005236 L40.7665289,8.9800005 Z"/>
    <path fill="#1A1919" d="M75.6166168,13.6398012 C75.0735187,14.3632259 73.6706213,16.0501236 73.6706213,16.6902528 C73.6706213,17.3310378 73.9825529,17.7307906 74.4499734,17.7307906 C75.6166168,17.7307906 79.4297503,13.0003279 81.218985,13.0003279 C82.5411171,13.0003279 80.3652272,17.8937743 83.2435197,17.8937743 C84.2836098,17.8937743 87.768595,15.518213 87.768595,14.1425256 C87.768595,13.9011654 87.5218479,13.4807527 87.2115062,13.4807527 C87.0251739,13.4807527 84.6410115,16.4492205 83.630175,16.4492205 C82.7732375,16.4492205 83.630175,14.6039302 83.630175,13.4000807 C83.630175,12.1486807 83.441299,11.0733818 82.2285496,11.0733818 C80.5960756,11.0733818 78.262789,13.2403764 77.7168291,13.5604409 C77.9524472,13.0793603 78.0300326,12.8380001 78.0300326,12.5162958 C78.0300326,11.8741991 77.2500446,11.1517582 76.6261814,11.1517582 C76.086899,11.1517582 73.2108322,12.6746885 73.2108322,14.6236063 C73.2108322,15.1027193 74.9177119,13.4000807 75.6166168,13.6398012 Z M62.5444243,5.89627163 C62.5444243,5.29910196 62.9787756,4.81605368 63.5209197,4.81605368 C64.0576583,4.81605368 64.4920096,5.29910196 64.4920096,5.89627163 C64.4920096,6.49475304 64.0576583,6.98108067 63.5209197,6.98108067 C62.9787756,6.98108067 62.5444243,6.49475304 62.5444243,5.89627163 Z M63.9034414,24.0878109 C63.6296665,24.0878109 63.4516016,23.966475 63.4516016,23.3217547 C63.4516016,21.2596993 67.6170493,18.3410776 69.0670067,18.3410776 C68.22406,20.23687 64.6808856,24.0878109 63.9034414,24.0878109 Z M71.0641958,17.5881388 C71.6937825,16.7309167 73.5020956,12.1896726 73.5020956,11.5393774 C73.5020956,10.4434186 72.5348214,9.86625296 71.4918696,9.86625296 C68.0714329,9.86625296 62.5444243,15.8871399 61.376827,15.8871399 C60.0594644,15.8871399 62.0798656,13.0003279 62.0798656,11.8741991 C62.0798656,11.1258514 61.4321544,10.3525806 60.9109964,10.3525806 C59.9004779,10.3525806 56.7102537,13.4807527 54.6103593,14.2022098 C55.0780977,13.4000807 55.311808,12.5162958 55.311808,12.0378387 C55.311808,8.18460219 44.7296629,9.62784421 44.7296629,7.46380102 C44.7296629,5.52176984 51.3524068,2.16797841 55.2335866,2.16797841 C55.7782745,2.16797841 59.355154,2.40901065 59.355154,3.6905807 C59.355154,4.17133343 58.5780277,4.3330054 58.5780277,4.81605368 C58.5780277,5.29680642 58.9672268,5.37649463 59.4349653,5.37649463 C60.135142,5.37649463 60.6016086,4.73243025 60.6016086,3.931285 C60.6016086,0.662100802 57.8450997,0 55.6211958,0 C49.8979978,0 43.0943272,5.13611826 43.0943272,7.46380102 C43.0943272,10.5109732 52.7425852,9.94987639 52.7425852,12.6792796 C52.7425852,15.9665002 42.3966942,18.9366076 42.3966942,19.7384088 C42.3966942,20.5431613 42.9404282,20.4634731 43.5604758,20.4634731 C47.7631264,20.4634731 58.8091942,13.2403764 59.7446711,12.2769033 C59.8216206,13.9595379 59.1332088,15.5588769 59.1332088,16.2783664 C59.1332088,17.0008072 59.6677216,17.9754301 60.4445299,17.9754301 C61.223246,17.9754301 62.3908433,16.769613 64.1024925,15.8074517 C64.025543,16.3692044 64.4920096,17.2516775 65.1120571,17.2516775 C66.4338714,17.2516775 70.4810331,13.8795217 71.2607031,13.3197366 C71.0759608,14.8347964 70.1306267,16.6079411 69.5938881,17.3005398 C69.2259932,17.1811715 68.6689043,17.1224711 68.2809771,17.1224711 C66.6713973,17.1224711 62.2350365,21.9755815 62.2350365,24.2327582 C62.2350365,25.1155593 62.7024569,26 63.5565327,26 C64.7447982,26 69.0285319,22.341229 70.600591,18.6424499 C71.298224,18.722794 72.4273465,19.2586398 72.4273465,18.6939357 C72.4273465,18.1364462 71.6899668,17.7478432 71.0641958,17.5881388 Z M65.5025281,15.9665002 C65.0363795,15.4864033 69.7633678,11.5852883 71.1824818,11.793855 C70.6381118,13.4807527 65.9680407,16.4492205 65.5025281,15.9665002 Z M86.5453296,22.1729729 C86.5453296,21.4822512 87.0926539,20.9171429 87.766967,20.9171429 C88.4448322,20.9171429 88.9915645,21.4822512 88.9915645,22.1729729 C88.9915645,22.87069 88.4448322,23.433061 87.766967,23.433061 C87.0926539,23.433061 86.5453296,22.87069 86.5453296,22.1729729 Z M86.2809917,22.1729729 C86.2809917,23.0182021 86.9482005,23.7058824 87.766967,23.7058824 C88.5883975,23.7058824 89.2561983,23.0182021 89.2561983,22.1729729 C89.2561983,21.3316976 88.5883975,20.6470588 87.766967,20.6470588 C86.9482005,20.6470588 86.2809917,21.3316976 86.2809917,22.1729729 Z M87.5103254,21.5634589 L87.7370699,21.5634589 C87.928293,21.5582883 88.1402369,21.5716709 88.1402369,21.8046488 C88.1402369,22.0406682 87.928293,22.0510092 87.7370699,22.0510092 L87.5103254,22.0510092 L87.5103254,21.5634589 Z M87.1968498,23.0376676 L87.5103254,23.0376676 L87.5103254,22.322614 L87.7370699,22.322614 L88.1606616,23.0376676 L88.4904179,23.0376676 L88.0458093,22.2982821 C88.2764019,22.2696922 88.4522325,22.1215717 88.4522325,21.8189438 C88.4522325,21.4822512 88.2607133,21.2906375 87.8519221,21.2906375 L87.1968498,21.2906375 L87.1968498,23.0376676 Z"/>
  </g>
</svg>
