<?xml version="1.0" encoding="UTF-8" standalone="no"?>
<svg width="26px" height="30px" viewBox="0 0 26 30" version="1.1" xmlns="http://www.w3.org/2000/svg" xmlns:xlink="http://www.w3.org/1999/xlink">
    <!-- Generator: Sketch 42 (36781) - http://www.bohemiancoding.com/sketch -->
    <title>Group 7</title>
    <desc>Created with Sketch.</desc>
    <defs>
        <path d="M3,0.998153687 C3,0.446888627 3.4443071,0 4.00169118,0 L19.6111111,0 L26,6.25 L26,29.0097293 C26,29.5566407 25.5610822,30 24.9969294,30 L4.00307055,30 C3.44908998,30 3,29.5526348 3,29.0018463 L3,0.998153687 Z" id="path-1"></path>
        <mask id="mask-2" maskContentUnits="userSpaceOnUse" maskUnits="objectBoundingBox" x="0" y="0" width="23" height="30" fill="white">
            <use xlink:href="#path-1"></use>
        </mask>
        <path d="M18,0 L18,7.00296986 C18,7.5536144 18.4530363,8 18.9970301,8 L26,8" id="path-3"></path>
        <mask id="mask-4" maskContentUnits="userSpaceOnUse" maskUnits="objectBoundingBox" x="0" y="0" width="8" height="8" fill="white">
            <use xlink:href="#path-3"></use>
        </mask>
    </defs>
    <g id="Version-4" stroke="none" stroke-width="1" fill="none" fill-rule="evenodd">
        <g id="8-Homepage-Profile" transform="translate(-621.000000, -493.000000)">
            <g id="Group-12" transform="translate(0.000000, 68.000000)">
                <g id="Group-23" transform="translate(597.000000, 95.000000)">
                    <g id="Group-22" transform="translate(16.000000, 296.000000)">
                        <g id="Group-11" transform="translate(8.000000, 30.000000)">
                            <g id="Group-7" transform="translate(0.000000, 4.000000)">
                                <use id="Rectangle-3" stroke="#999999" mask="url(#mask-2)" stroke-width="2" xlink:href="#path-1"></use>
                                <use id="Path-10" stroke="#999999" mask="url(#mask-4)" stroke-width="2" xlink:href="#path-3"></use>
                                <path d="M0,19.990778 C0,19.4435864 0.456374572,19 0.999812192,19 L5.32016383,19 C5.59402634,19 5.95459659,19.1786795 6.12017381,19.3921976 L7.83831203,21.6078024 C8.00628283,21.8244071 8.00388925,22.1786795 7.83831203,22.3921976 L6.12017381,24.6078024 C5.95220301,24.8244071 5.59514226,25 5.32016383,25 L0.999812192,25 C0.447631166,25 0,24.5490248 0,24.009222 L0,19.990778 Z" id="Rectangle-5" fill="#999999"></path>
                            </g>
                        </g>
                    </g>
                </g>
            </g>
        </g>
    </g>
</svg>