<svg width="180" height="222" viewBox="0 0 180 222" fill="none" xmlns="http://www.w3.org/2000/svg">
<path d="M129.5 0C66.5 0 15.4 51.1 15.4 114.1C15.4 115.1 15.4 116.2 15.4 117.2C15.4 117.5 15.4 117.9 15.4 118.2C15.4 118.9 15.5 119.6 15.5 120.3C15.5 120.7 15.5 121.1 15.6 121.5C15.6 122.1 15.7 122.8 15.7 123.4C15.7 123.8 15.8 124.2 15.8 124.6C15.9 125.2 15.9 125.8 16 126.5C16 126.9 16.1 127.3 16.1 127.7C16.2 128.3 16.3 128.9 16.3 129.6C16.4 130 16.4 130.4 16.5 130.8C16.6 131.4 16.7 132.1 16.8 132.7C16.9 133.1 16.9 133.4 17 133.8C17.1 134.5 17.3 135.2 17.4 135.9C17.5 136.2 17.5 136.5 17.6 136.8C17.8 137.8 18 138.7 18.2 139.7C18.2 139.7 18.2 139.7 18.2 139.8C18.4 140.8 18.7 141.8 18.9 142.8C18.9 143 19 143.1 19 143.3C19.2 144.1 19.4 144.9 19.7 145.7C19.8 146 19.9 146.3 20 146.5C20.2 147.2 20.4 147.8 20.6 148.5L0 155L73.4 222L88.4 126.9L67.6 133.5C65.7 127.3 64.6 120.8 64.6 114C64.1 53.6 120.7 -1.6 179.4 11.5C164.5 4.2 147.5 0 129.5 0Z" fill="url(#paint0_linear)"/>
<defs>
<linearGradient id="paint0_linear" x1="77.8229" y1="385.511" x2="99.7259" y2="-164.054" gradientUnits="userSpaceOnUse">
<stop stop-color="#7EC2E4"/>
<stop offset="0.9451" stop-color="white"/>
</linearGradient>
</defs>
</svg>
