<svg width="180" height="223" viewBox="0 0 180 223" fill="none" xmlns="http://www.w3.org/2000/svg">
<path d="M164.6 104C164.6 103.3 164.5 102.6 164.5 101.9C164.5 101.5 164.5 101.1 164.4 100.7C164.4 100.1 164.3 99.4 164.3 98.8C164.3 98.4 164.2 98 164.2 97.6C164.1 97 164.1 96.4 164 95.7C164 95.3 163.9 94.9 163.9 94.5C163.8 93.9 163.7 93.3 163.7 92.6C163.6 92.2 163.6 91.8 163.5 91.4C163.4 90.8 163.3 90.1 163.2 89.5C163.1 89.1 163.1 88.8 163 88.4C162.9 87.7 162.7 87 162.6 86.3C162.5 86 162.5 85.7 162.4 85.4C162.2 84.4 162 83.5 161.8 82.5C161.8 82.5 161.8 82.5 161.8 82.4C161.6 81.4 161.3 80.4 161.1 79.4C161.1 79.2 161 79.1 161 78.9C160.8 78.1 160.6 77.3 160.3 76.5C160.2 76.2 160.1 75.9 160 75.7C159.8 75.1 159.6 74.4 159.4 73.8L180 67.1L106.6 0.100006L92.7 95.4L112.5 89C114.4 95 115.4 101.5 115.4 108.1C115.9 168.5 59.3 223.7 0.599976 210.6C15.7 218 32.7 222.2 50.7 222.2C113.7 222.2 164.8 171.1 164.8 108.1C164.8 107.1 164.8 106 164.8 105C164.6 104.7 164.6 104.4 164.6 104Z" fill="url(#paint0_linear)"/>
<defs>
<linearGradient id="paint0_linear" x1="172.576" y1="-105.02" x2="0.381317" y2="418.672" gradientUnits="userSpaceOnUse">
<stop stop-color="#7EC2E4"/>
<stop offset="0.761" stop-color="white"/>
</linearGradient>
</defs>
</svg>
