<?xml version="1.0" encoding="UTF-8" standalone="no"?>
<svg width="16px" height="13px" viewBox="0 0 16 13" version="1.1" xmlns="http://www.w3.org/2000/svg" xmlns:xlink="http://www.w3.org/1999/xlink">
    <!-- Generator: Sketch 42 (36781) - http://www.bohemiancoding.com/sketch -->
    <title>Page 1</title>
    <desc>Created with Sketch.</desc>
    <defs></defs>
    <g id="Version-4" stroke="none" stroke-width="1" fill="none" fill-rule="evenodd">
        <g id="3.3-address-signing-order" transform="translate(-231.000000, -182.000000)" fill="#666666">
            <g id="Group-6" transform="translate(222.000000, 171.000000)">
                <g id="Oval-10-+-Oval-312-+-1">
                    <g id="Page-1" transform="translate(9.000000, 11.000000)">
                        <path d="M8.0034,9.2207 L0.0004,3.6507 L0.0004,10.9997 C0.0004,12.1047 0.8954,12.9997 2.0004,12.9997 L14.0004,12.9997 C15.1044,12.9997 16.0004,12.1047 16.0004,10.9997 L16.0004,3.5907 L8.0034,9.2207 Z" id="Fill-3"></path>
                        <path d="M7.9966,6.7793 L15.8516,1.2483 C15.5536,0.5163 14.8386,0.0003 13.9996,0.0003 L1.9996,0.0003 C1.1406,0.0003 0.4146,0.5443 0.1316,1.3053 L7.9966,6.7793 Z" id="Fill-1"></path>
                        <path d="M14,0 L2,0 C0.895,0 0,0.895 0,2 L0,11 C0,12.105 0.895,13 2,13 L14,13 C15.105,13 16,12.105 16,11 L16,2 C16,0.895 15.105,0 14,0 L14,0 Z M14,11 L2,11 L2,2 L14,2 L14,11 Z" id="Fill-6"></path>
                    </g>
                </g>
            </g>
        </g>
    </g>
</svg>