<?xml version="1.0" encoding="UTF-8" standalone="no"?>
<svg width="41px" height="41px" viewBox="0 0 41 41" version="1.1" xmlns="http://www.w3.org/2000/svg" xmlns:xlink="http://www.w3.org/1999/xlink" xmlns:sketch="http://www.bohemiancoding.com/sketch/ns">
    <!-- Generator: Sketch 3.3.2 (12043) - http://www.bohemiancoding.com/sketch -->
    <title>Fill 13 Copy 3</title>
    <desc>Created with Sketch.</desc>
    <defs></defs>
    <g id="V14" stroke="none" stroke-width="1" fill="none" fill-rule="evenodd" sketch:type="MSPage">
        <g id="Artboard-68" sketch:type="MSArtboardGroup" transform="translate(-397.000000, -1092.000000)" fill="#008DCD">
            <g id="Oval-1-Copy-4-+-Fill-12-Copy-3-Copy-Copy-+-Fill-13-Copy-3" sketch:type="MSLayerGroup" transform="translate(369.000000, 1061.000000)">
                <path d="M51.4482909,46.0798529 C51.8479762,46.4757452 52.444357,46.5983942 52.971501,46.3950142 C53.4970714,46.1931868 53.8526969,45.7025909 53.8763004,45.1452367 L54.4128857,32.5744932 C54.4301949,32.181706 54.2791328,31.7997864 53.9974648,31.5218856 C53.7173704,31.2455373 53.3617449,31.098048 52.9305883,31.1120206 L40.1862925,31.6383245 C39.6229566,31.6616123 39.1257103,32.0109289 38.9195734,32.5310227 C38.7150101,33.0495639 38.8408952,33.639521 39.2405805,34.0338607 L42.5576536,37.3081226 L29.3066702,50.3803296 C28.7496285,50.9283687 28.7496285,51.8164093 29.3066702,52.3660009 L32.8676458,55.8809032 C33.1351517,56.1448313 33.4954979,56.2923206 33.8747268,56.2923206 C34.2523822,56.2923206 34.6143019,56.1448313 34.8802343,55.8809032 L48.1296442,42.8055911 L51.4482909,46.0798529 Z M68.4711076,49.8555783 L64.910132,46.3406761 C64.6426261,46.0767479 64.2822799,45.9292586 63.903051,45.9292586 C63.5253956,45.9292586 63.1634758,46.0767479 62.8975435,46.3406761 L49.6481336,59.4144356 L46.3310604,56.1417263 C45.9313751,55.7489391 45.3365679,55.6247376 44.8078503,55.826565 C44.2822799,56.0283924 43.9266544,56.5189883 43.903051,57.07479 L43.3664656,69.647086 C43.3491564,70.0398732 43.498645,70.4217928 43.7818865,70.6996937 C44.0478189,70.9636218 44.4113122,71.1111111 44.787394,71.1111111 C44.8078503,71.1111111 44.8267331,71.1095586 44.8471894,71.1095586 L57.5914853,70.5832548 C58.1548212,70.559967 58.6520675,70.2106503 58.8582044,69.6905565 C59.0627677,69.1720153 58.9368826,68.5820582 58.5371973,68.1877185 L55.2216977,64.9150092 L68.4711076,51.8412496 C69.0281493,51.2932106 69.0281493,50.4036174 68.4711076,49.8555783 Z" id="Fill-13-Copy-3" sketch:type="MSShapeGroup"></path>
            </g>
        </g>
    </g>
</svg>