<?xml version="1.0" encoding="UTF-8" standalone="no"?>
<svg width="64px" height="46px" viewBox="0 0 64 46" version="1.1" xmlns="http://www.w3.org/2000/svg" xmlns:xlink="http://www.w3.org/1999/xlink" xmlns:sketch="http://www.bohemiancoding.com/sketch/ns">
    <!-- Generator: Sketch 3.3.2 (12043) - http://www.bohemiancoding.com/sketch -->
    <title>Fill 1 Copy 5</title>
    <desc>Created with Sketch.</desc>
    <defs></defs>
    <g id="V14" stroke="none" stroke-width="1" fill="none" fill-rule="evenodd" sketch:type="MSPage">
        <g id="Artboard-68" sketch:type="MSArtboardGroup" transform="translate(-388.000000, -849.000000)" fill="#008DCD">
            <g id="Oval-1-Copy-3-+-Fill-5-Copy-Copy-Copy-Copy-Copy-Copy-+-Fill-1-Copy-5" sketch:type="MSLayerGroup" transform="translate(368.252832, 823.290650)">
                <path d="M82.1377771,64.8465138 L78.3336349,61.0032364 L78.3336349,29.6402603 C78.3336349,27.6810602 76.7638711,26.0869565 74.833676,26.0869565 L28.1670641,26.0869565 C26.236869,26.0869565 24.6671052,27.6810602 24.6671052,29.6402603 L24.6671052,61.0032364 L20.8614828,64.8480163 C20.3056636,65.4099341 20,67.3518559 20,68.1646835 C20,69.7760654 21.3136873,71.0869565 22.9285974,71.0869565 L80.0721427,71.0869565 C81.6863127,71.0869565 83,69.7760654 83,68.1646835 C83,67.3518559 82.6950765,65.4099341 82.1377771,64.8465138 L82.1377771,64.8465138 Z M29.3334704,29.6402603 L73.6672697,29.6402603 C74.3104214,29.6402603 74.833676,30.1713777 74.833676,30.824194 L74.833676,59.244614 L28.1670641,59.244614 L28.1670641,30.824194 C28.1670641,30.1713777 28.6895786,29.6402603 29.3334704,29.6402603 L29.3334704,29.6402603 Z M78.9057364,67.534404 L58.5002878,67.534404 C59.1449197,67.534404 59.6666941,67.0040378 59.6666941,66.349719 C59.6666941,65.6961515 59.1449197,65.1657853 58.5002878,65.1657853 L44.5004523,65.1657853 C43.8550803,65.1657853 43.3333059,65.6961515 43.3333059,66.349719 C43.3333059,67.0040378 43.8550803,67.534404 44.5004523,67.534404 L24.0950037,67.534404 C23.6894259,67.534404 23.4999589,67.2031129 23.4999589,66.9799985 C23.4999589,66.7313424 23.6006132,66.6006289 23.6746238,66.5255062 L27.36627,62.7971665 L75.6344701,62.7971665 L79.3246361,66.5247549 C79.4001269,66.6006289 79.5000411,66.7313424 79.5000411,66.9799985 C79.5000411,67.2031129 79.3113142,67.534404 78.9057364,67.534404 L78.9057364,67.534404 Z" id="Fill-1-Copy-5" sketch:type="MSShapeGroup"></path>
            </g>
        </g>
    </g>
</svg>