<?xml version="1.0" encoding="UTF-8" standalone="no"?>
<svg width="63px" height="21px" viewBox="0 0 63 21" version="1.1" xmlns="http://www.w3.org/2000/svg" xmlns:xlink="http://www.w3.org/1999/xlink" xmlns:sketch="http://www.bohemiancoding.com/sketch/ns">
    <!-- Generator: Sketch 3.3.2 (12043) - http://www.bohemiancoding.com/sketch -->
    <title>Fill 12 Copy 3</title>
    <desc>Created with Sketch.</desc>
    <defs></defs>
    <g id="V14" stroke="none" stroke-width="1" fill="none" fill-rule="evenodd" sketch:type="MSPage">
        <g id="Artboard-68" sketch:type="MSArtboardGroup" transform="translate(-388.000000, -977.000000)" fill="#008DCD">
            <g id="Oval-1-Copy-4-+-Fill-12-Copy-3" sketch:type="MSLayerGroup" transform="translate(369.252832, 939.115008)">
                <path d="M76.862494,37.9680572 L23.014666,37.9680572 C20.7668244,37.9680572 18.93858,39.8265301 18.93858,42.1090887 L18.93858,53.8277336 C18.93858,56.1102923 20.7668244,57.9680572 23.014666,57.9680572 L76.862494,57.9680572 C79.1103355,57.9680572 80.93858,56.1102923 80.93858,53.8277336 L80.93858,42.1090887 C80.93858,39.8265301 79.1103355,37.9680572 76.862494,37.9680572 L76.862494,37.9680572 Z M75.8434725,54.8628145 L24.0336875,54.8628145 C22.9101152,54.8628145 21.9956445,53.9346401 21.9956445,52.7926528 L21.9956445,49.3843905 L52.3662488,49.3843905 C53.1364395,49.3843905 53.7602591,48.7500318 53.7602591,47.9684112 C53.7602591,47.1860826 53.1364395,46.5524319 52.3662488,46.5524319 L21.9956445,46.5524319 L21.9956445,43.1441696 C21.9956445,42.0021823 22.9101152,41.0740078 24.0336875,41.0740078 L75.8434725,41.0740078 C76.9670448,41.0740078 77.8815155,42.0021823 77.8815155,43.1441696 L77.8815155,46.5524319 L73.0728771,46.5524319 C72.3033835,46.5524319 71.6788669,47.1860826 71.6788669,47.9684112 C71.6788669,48.7500318 72.3033835,49.3843905 73.0728771,49.3843905 L77.8815155,49.3843905 L77.8815155,52.7926528 C77.8815155,53.9346401 76.9670448,54.8628145 75.8434725,54.8628145 Z M66.8932297,45.2313232 C65.4051237,45.2313232 64.1986079,46.4568533 64.1986079,47.9684112 C64.1986079,49.4799691 65.4051237,50.7054992 66.8932297,50.7054992 C68.3813356,50.7054992 69.5878515,49.4799691 69.5878515,47.9684112 C69.5878515,46.4568533 68.3813356,45.2313232 66.8932297,45.2313232 Z M58.913218,45.2313232 C57.4251121,45.2313232 56.2185962,46.4568533 56.2185962,47.9684112 C56.2185962,49.4799691 57.4251121,50.7054992 58.913218,50.7054992 C60.4020209,50.7054992 61.6085368,49.4799691 61.6085368,47.9684112 C61.6085368,46.4568533 60.4020209,45.2313232 58.913218,45.2313232 Z" id="Fill-12-Copy-3" sketch:type="MSShapeGroup"></path>
            </g>
        </g>
    </g>
</svg>