<?xml version="1.0" encoding="UTF-8" standalone="no"?>
<svg width="63px" height="33px" viewBox="0 0 63 33" version="1.1" xmlns="http://www.w3.org/2000/svg" xmlns:xlink="http://www.w3.org/1999/xlink" xmlns:sketch="http://www.bohemiancoding.com/sketch/ns">
    <!-- Generator: Sketch 3.3.2 (12043) - http://www.bohemiancoding.com/sketch -->
    <title>Fill 2</title>
    <desc>Created with Sketch.</desc>
    <defs></defs>
    <g id="V14" stroke="none" stroke-width="1" fill="none" fill-rule="evenodd" sketch:type="MSPage">
        <g id="Artboard-68" sketch:type="MSArtboardGroup" transform="translate(-388.000000, -267.000000)" fill="#008DCD">
            <g id="Oval-1-Copy-3-+-Fill-5-Copy-Copy-Copy-Copy-Copy-Copy-Copy-+-Fill-2" sketch:type="MSLayerGroup" transform="translate(368.000000, 234.000000)">
                <path d="M60.0406183,33.3333333 L23.2030742,33.3333333 C21.436673,33.3333333 20,34.7994855 20,36.6008858 L20,57.0242066 C20,58.8256069 21.436673,60.2917591 23.2030742,60.2917591 L40.0203092,60.2917591 L40.0203092,62.7429822 L32.8128445,62.7429822 C32.4299873,62.7429822 32.0958773,63.0413531 32.01591,63.4067736 C32.0038601,63.4637658 32.012076,64.3152963 32.012076,64.3767585 C32.012076,64.4331919 32.0175532,64.4885079 32.0279599,64.5415888 C32.1029977,64.9137143 32.4256055,65.1936466 32.8128445,65.1936466 L51.2316166,65.1936466 C51.6172124,65.1936466 51.9387248,64.9176256 52.0154057,64.5466175 C52.0263602,64.4913016 52.0323851,64.4348681 52.0323851,64.3767585 C52.0323851,64.3063563 52.0236216,63.4207423 52.0071899,63.3553689 C51.9184591,63.0027996 51.6051625,62.7429822 51.2316166,62.7429822 L43.2233834,62.7429822 L43.2233834,60.2917591 L60.0406183,60.2917591 C61.8070195,60.2917591 63.2436925,58.8256069 63.2436925,57.0242066 L63.2436925,36.6008858 C63.2436925,34.7994855 61.8070195,33.3333333 60.0406183,33.3333333 L60.0406183,33.3333333 Z M60.8413869,56.2073184 C60.8413869,57.1085773 60.1227765,57.8410947 59.2398498,57.8410947 L24.0038427,57.8410947 C23.120916,57.8410947 22.4023056,57.1085773 22.4023056,56.2073184 L22.4023056,37.417774 C22.4023056,36.516515 23.120916,35.7839977 24.0038427,35.7839977 L59.2398498,35.7839977 C60.1227765,35.7839977 60.8413869,36.516515 60.8413869,37.417774 L60.8413869,56.2073184 Z M79.7969258,33.4730201 L69.5654918,33.4730201 C67.7985429,33.4730201 66.3618699,34.9391722 66.3618699,36.7405726 L66.3618699,62.0652221 C66.3618699,63.8666224 67.7985429,65.3333333 69.5654918,65.3333333 L79.7969258,65.3333333 C81.563327,65.3333333 83,63.8666224 83,62.0652221 L83,36.7405726 C83,34.9391722 81.563327,33.4730201 79.7969258,33.4730201 Z M78.9342647,59.9453359 L70.4276052,59.9453359 C69.8974109,59.9453359 69.4674497,59.5067195 69.4674497,58.9658524 C69.4674497,58.4244266 69.8974109,57.9863689 70.4276052,57.9863689 L78.9342647,57.9863689 C79.4650067,57.9863689 79.8949679,58.4244266 79.8949679,58.9658524 C79.8949679,59.5067195 79.4650067,59.9453359 78.9342647,59.9453359 L78.9342647,59.9453359 Z M78.9342647,41.7061573 L70.4276052,41.7061573 C69.8974109,41.7061573 69.4674497,41.2675409 69.4674497,40.7266738 C69.4674497,40.1858067 69.8974109,39.7471903 70.4276052,39.7471903 L78.9342647,39.7471903 C79.4650067,39.7471903 79.8949679,40.1858067 79.8949679,40.7266738 C79.8949679,41.2675409 79.4650067,41.7061573 78.9342647,41.7061573 L78.9342647,41.7061573 Z M78.9342647,38.5095656 L70.4276052,38.5095656 C69.8974109,38.5095656 69.4674497,38.0709492 69.4674497,37.5295234 C69.4674497,36.9886563 69.8974109,36.5500399 70.4276052,36.5500399 L78.9342647,36.5500399 C79.4650067,36.5500399 79.8949679,36.9886563 79.8949679,37.5295234 C79.8949679,38.0709492 79.4650067,38.5095656 78.9342647,38.5095656 L78.9342647,38.5095656 Z" id="Fill-2" sketch:type="MSShapeGroup"></path>
            </g>
        </g>
    </g>
</svg>