<?xml version="1.0" encoding="UTF-8" standalone="no"?>
<svg width="54px" height="47px" viewBox="0 0 54 47" version="1.1" xmlns="http://www.w3.org/2000/svg" xmlns:xlink="http://www.w3.org/1999/xlink" xmlns:sketch="http://www.bohemiancoding.com/sketch/ns">
    <!-- Generator: Sketch 3.3.2 (12043) - http://www.bohemiancoding.com/sketch -->
    <title>Fill 15</title>
    <desc>Created with Sketch.</desc>
    <defs></defs>
    <g id="V14" stroke="none" stroke-width="1" fill="none" fill-rule="evenodd" sketch:type="MSPage">
        <g id="Artboard-68" sketch:type="MSArtboardGroup" transform="translate(-394.000000, -495.000000)" fill="#008DCD">
            <g id="Oval-1-Copy-3-+-Fill-5-Copy-Copy-Copy-Copy-Copy-Copy-Copy-Copy-Copy-+-Fill-15" sketch:type="MSLayerGroup" transform="translate(368.252832, 467.482860)">
                <path d="M77.723139,36.3427535 C76.6495343,36.3427535 75.7796113,37.206107 75.7796113,38.2708325 L75.7796113,38.9582748 L71.9500843,38.9582748 L71.9500843,32.7736084 C71.9500843,30.2846196 69.9101577,28.2608696 67.4037844,28.2608696 L31.2129666,28.2608696 C28.7065933,28.2608696 26.6666667,30.2846196 26.6666667,32.7736084 L26.6666667,58.6217491 C26.6666667,61.1099664 28.7065933,63.1337164 31.2129666,63.1337164 L47.2136414,63.1337164 L43.0529373,69.9865367 C42.9713091,70.1200132 42.9145581,70.2604335 42.8686909,70.4031684 L37.2005867,70.4031684 C36.126982,70.4031684 35.257059,71.2665219 35.257059,72.332019 C35.257059,73.397516 36.126982,74.2608696 37.2005867,74.2608696 L53.7205721,74.2608696 C54.7941768,74.2608696 55.6640997,73.397516 55.6640997,72.332019 C55.6640997,71.2665219 54.7941768,70.4031684 53.7205721,70.4031684 L47.3380271,70.4031684 L51.7513898,63.1337164 L67.4037844,63.1337164 C69.9101577,63.1337164 71.9500843,61.1099664 71.9500843,58.6217491 L71.9500843,52.4370826 L75.7796113,52.4370826 L75.7796113,53.1237534 C75.7796113,54.188479 76.6495343,55.0518325 77.723139,55.0518325 C78.7967437,55.0518325 79.6666667,54.188479 79.6666667,53.1237534 L79.6666667,38.2708325 C79.6666667,37.206107 78.7967437,36.3427535 77.723139,36.3427535 L77.723139,36.3427535 Z M68.5403594,57.4937573 C68.5403594,58.7374802 67.5211735,59.7497409 66.2672094,59.7497409 L32.350319,59.7497409 C31.0955776,59.7497409 30.0763916,58.7374802 30.0763916,57.4937573 L30.0763916,33.9016002 C30.0763916,32.6578773 31.0955776,31.6456166 32.350319,31.6456166 L66.2672094,31.6456166 C67.5211735,31.6456166 68.5403594,32.6578773 68.5403594,33.9016002 L68.5403594,57.4937573 L68.5403594,57.4937573 Z M71.9500843,42.3422503 L75.7796113,42.3422503 L75.7796113,49.0523357 L71.9500843,49.0523357 L71.9500843,42.3422503 Z" id="Fill-15" sketch:type="MSShapeGroup"></path>
            </g>
        </g>
    </g>
</svg>