<?xml version="1.0" encoding="UTF-8" standalone="no"?>
<svg width="31px" height="55px" viewBox="0 0 31 55" version="1.1" xmlns="http://www.w3.org/2000/svg" xmlns:xlink="http://www.w3.org/1999/xlink" xmlns:sketch="http://www.bohemiancoding.com/sketch/ns">
    <!-- Generator: Sketch 3.3.2 (12043) - http://www.bohemiancoding.com/sketch -->
    <title>Fill 4 Copy 5</title>
    <desc>Created with Sketch.</desc>
    <defs></defs>
    <g id="V14" stroke="none" stroke-width="1" fill="none" fill-rule="evenodd" sketch:type="MSPage">
        <g id="Artboard-68" sketch:type="MSArtboardGroup" transform="translate(-403.000000, -723.000000)" fill="#008DCD">
            <g id="Oval-1-Copy-3-+-Fill-5-Copy-Copy-Copy-Copy-Copy-Copy-Copy-+-Fill-4-Copy-5" sketch:type="MSLayerGroup" transform="translate(368.252832, 700.354720)">
                <path d="M59.8892549,23.2222222 L41.2218562,23.2222222 C38.097058,23.2222222 35.5555556,25.8377447 35.5555556,29.0513287 L35.5555556,71.3990692 C35.5555556,74.6126532 38.097058,77.2281756 41.2218562,77.2281756 L59.8892549,77.2281756 C63.0140531,77.2281756 65.5555556,74.6126532 65.5555556,71.3990692 L65.5555556,29.0513287 C65.5555556,25.8377447 63.0140531,23.2222222 59.8892549,23.2222222 L59.8892549,23.2222222 Z M50.5555556,74.9475677 C48.9868584,74.9475677 47.7146538,73.6388097 47.7146538,72.0250403 C47.7146538,70.4112709 48.9868584,69.1025129 50.5555556,69.1025129 C52.1242527,69.1025129 53.3954884,70.4112709 53.3954884,72.0250403 C53.3954884,73.6388097 52.1242527,74.9475677 50.5555556,74.9475677 L50.5555556,74.9475677 Z M61.3058301,64.0279608 C61.3058301,65.6357495 60.0345944,66.942514 58.4726798,66.942514 L42.6384313,66.942514 C41.0765167,66.942514 39.805281,65.6357495 39.805281,64.0279608 L39.805281,30.5086053 C39.805281,28.9008165 41.0765167,27.594052 42.6384313,27.594052 L58.4726798,27.594052 C60.0345944,27.594052 61.3058301,28.9008165 61.3058301,30.5086053 L61.3058301,64.0279608 L61.3058301,64.0279608 Z" id="Fill-4-Copy-5" sketch:type="MSShapeGroup"></path>
            </g>
        </g>
    </g>
</svg>