<?xml version="1.0" encoding="UTF-8" standalone="no"?>
<svg width="57px" height="54px" viewBox="0 0 57 54" version="1.1" xmlns="http://www.w3.org/2000/svg" xmlns:xlink="http://www.w3.org/1999/xlink" xmlns:sketch="http://www.bohemiancoding.com/sketch/ns">
    <!-- Generator: Sketch 3.3.2 (12043) - http://www.bohemiancoding.com/sketch -->
    <title>Fill 6</title>
    <desc>Created with Sketch.</desc>
    <defs></defs>
    <g id="V14" stroke="none" stroke-width="1" fill="none" fill-rule="evenodd" sketch:type="MSPage">
        <g id="Artboard-68" sketch:type="MSArtboardGroup" transform="translate(-392.000000, -362.000000)" fill="#008DCD">
            <g id="Oval-1-Copy-3-+-Fill-5-Copy-Copy-Copy-Copy-Copy-Copy-Copy-Copy-+-Fill-6" sketch:type="MSLayerGroup" transform="translate(368.252832, 345.546930)">
                <path d="M67.2964794,34.4184265 C60.9830523,34.4184265 60.7107054,37.1918746 53.9659355,37.5091408 L53.9659355,32.176512 C53.9659355,27.2400901 51.3261485,24.4080003 46.7236381,24.4080003 C41.2302946,24.4080003 39.0895567,22.8622672 39.0895567,18.8949358 C39.0895567,18.0641794 38.4079287,17.3913043 37.5680656,17.3913043 C36.7274418,17.3913043 36.0465745,18.0641794 36.0465745,18.8949358 C36.0465745,24.5485899 39.6388149,27.4152632 46.7236381,27.4152632 C48.526605,27.4152632 50.9229534,27.9084543 50.9229534,32.176512 L50.9229534,37.5091408 C44.1781835,37.1918746 43.9058366,34.4184265 37.5924095,34.4184265 C27.8525844,34.4184265 24.4444444,48.0736551 24.4444444,61.7288838 C24.4444444,65.6992225 25.1747602,70.3913043 30.4094502,70.3913043 C39.9446346,70.3913043 37.9301805,59.8989644 51.321584,59.4591522 L54.3181607,59.4952393 C66.8856769,60.2966749 65.1268332,70.3913043 74.4794387,70.3913043 C79.7141287,70.3913043 80.4444444,65.6992225 80.4444444,61.7288838 C80.4444444,48.0736551 77.0355437,34.4184265 67.2964794,34.4184265 L67.2964794,34.4184265 Z M74.4794387,67.3840415 C71.6061029,67.3840415 70.4528126,66.2044427 68.3196822,63.7505162 C65.841934,60.9018865 62.4497697,56.999963 54.514433,56.493991 L54.4345548,56.4894801 L54.3554372,56.4879765 L51.3588606,56.4518893 L51.2896327,56.4511375 L51.2204049,56.453393 C42.6696251,56.7345721 39.1435696,60.789866 36.5692067,63.7505162 C34.4353155,66.2044427 33.282786,67.3840415 30.4094502,67.3840415 C29.1762816,67.3840415 27.4874266,67.3840415 27.4874266,61.7288838 C27.4874266,54.6558016 28.4474874,48.384155 30.1918769,44.0687329 C31.9986476,39.5984367 34.4193398,37.4256893 37.5924095,37.4256893 C40.1500359,37.4256893 41.3147373,37.9309094 42.9275179,38.6293462 C44.7616753,39.4240154 47.0446727,40.4134049 51.2561599,40.5389581 L51.3018047,40.5404617 L53.5870842,40.5404617 L53.632729,40.5389581 C57.8442162,40.4134049 60.1272136,39.4240154 61.961371,38.6293462 C63.5733908,37.9309094 64.738853,37.4256893 67.2964794,37.4256893 C70.469549,37.4256893 72.8902413,39.5984367 74.697012,44.0687329 C76.4406407,48.384155 77.4014623,54.6558016 77.4014623,61.7288838 C77.4014623,67.3840415 75.7126072,67.3840415 74.4794387,67.3840415 L74.4794387,67.3840415 Z M41.7711846,46.699336 L39.8503022,46.699336 L39.8503022,44.8017532 C39.8503022,43.9709968 39.1686742,43.2981218 38.3288111,43.2981218 C37.4881873,43.2981218 36.8073201,43.9709968 36.8073201,44.8017532 L36.8073201,46.699336 L34.8864376,46.699336 C34.0465745,46.699336 33.3649465,47.3729629 33.3649465,48.2029674 C33.3649465,49.0337238 34.0465745,49.7065988 34.8864376,49.7065988 L36.8073201,49.7065988 L36.8073201,51.6049335 C36.8073201,52.434938 37.4881873,53.1085649 38.3288111,53.1085649 C39.1686742,53.1085649 39.8503022,52.434938 39.8503022,51.6049335 L39.8503022,49.7065988 L41.7711846,49.7065988 C42.6110477,49.7065988 43.2926757,49.0337238 43.2926757,48.2029674 C43.2926757,47.3729629 42.6110477,46.699336 41.7711846,46.699336 Z M67.0659735,43.4905866 C66.224589,43.4905866 65.542961,44.1642134 65.542961,44.9957216 C65.542961,45.8272298 66.224589,46.5008567 67.0659735,46.5008567 C67.9065974,46.5008567 68.5889861,45.8272298 68.5889861,44.9957216 C68.5889861,44.1642134 67.9065974,43.4905866 67.0659735,43.4905866 Z M67.0659735,49.9050782 C66.224589,49.9050782 65.542961,50.5794569 65.542961,51.4102132 C65.542961,52.2417214 66.224589,52.9153483 67.0659735,52.9153483 C67.9065974,52.9153483 68.5889861,52.2417214 68.5889861,51.4102132 C68.5889861,50.5794569 67.9065974,49.9050782 67.0659735,49.9050782 Z M63.8198724,46.6978324 C62.9792486,46.6978324 62.2968598,47.3722111 62.2968598,48.2029674 C62.2968598,49.0344756 62.9792486,49.7081025 63.8198724,49.7081025 C64.6612569,49.7081025 65.3428849,49.0344756 65.3428849,48.2029674 C65.3428849,47.3722111 64.6612569,46.6978324 63.8198724,46.6978324 Z M70.311314,46.6978324 C69.4699294,46.6978324 68.7883014,47.3722111 68.7883014,48.2029674 C68.7883014,49.0344756 69.4699294,49.7081025 70.311314,49.7081025 C71.1519378,49.7081025 71.8343265,49.0344756 71.8343265,48.2029674 C71.8343265,47.3722111 71.1519378,46.6978324 70.311314,46.6978324 Z" id="Fill-6" sketch:type="MSShapeGroup"></path>
            </g>
        </g>
    </g>
</svg>