<?xml version="1.0" encoding="UTF-8" standalone="no"?>
<svg width="40px" height="55px" viewBox="0 0 40 55" version="1.1" xmlns="http://www.w3.org/2000/svg" xmlns:xlink="http://www.w3.org/1999/xlink" xmlns:sketch="http://www.bohemiancoding.com/sketch/ns">
    <!-- Generator: Sketch 3.3.2 (12043) - http://www.bohemiancoding.com/sketch -->
    <title>Fill 5 Copy</title>
    <desc>Created with Sketch.</desc>
    <defs></defs>
    <g id="V14" stroke="none" stroke-width="1" fill="none" fill-rule="evenodd" sketch:type="MSPage">
        <g id="Artboard-68" sketch:type="MSArtboardGroup" transform="translate(-400.000000, -611.000000)" fill="#008DCD">
            <g id="Oval-1-Copy-3-+-Fill-5-Copy-Copy-Copy-Copy" sketch:type="MSLayerGroup" transform="translate(369.199520, 588.418790)">
                <path d="M65.5496711,23.2222222 L35.6725511,23.2222222 C33.1570511,23.2222222 31.1111111,25.3237573 31.1111111,27.9058262 L31.1111111,72.5386182 C31.1111111,75.1206872 33.1570511,77.2222222 35.6725511,77.2222222 L65.5496711,77.2222222 C68.0651711,77.2222222 70.1111111,75.1206872 70.1111111,72.5386182 L70.1111111,27.9058262 C70.1111111,25.3237573 68.0651711,23.2222222 65.5496711,23.2222222 L65.5496711,23.2222222 Z M50.6111111,24.9969942 C51.0237311,24.9969942 51.3583511,25.3405759 51.3583511,25.7650476 C51.3583511,26.1887183 51.0237311,26.5323001 50.6111111,26.5323001 C50.1984911,26.5323001 49.8638711,26.1887183 49.8638711,25.7650476 C49.8638711,25.3405759 50.1984911,24.9969942 50.6111111,24.9969942 L50.6111111,24.9969942 Z M50.6111111,75.3529452 C49.6150511,75.3529452 48.8069711,74.5240242 48.8069711,73.5012879 C48.8069711,72.4785515 49.6150511,71.6488296 50.6111111,71.6488296 C51.6071711,71.6488296 52.4144711,72.4785515 52.4144711,73.5012879 C52.4144711,74.5240242 51.6071711,75.3529452 50.6111111,75.3529452 L50.6111111,75.3529452 Z M66.6900311,67.9190854 C66.6900311,69.2109208 65.6658911,70.2608874 64.4085311,70.2608874 L36.8129111,70.2608874 C35.5555511,70.2608874 34.5321911,69.2109208 34.5321911,67.9190854 L34.5321911,30.8402867 C34.5321911,29.5476505 35.5555511,28.4984847 36.8129111,28.4984847 L64.4085311,28.4984847 C65.6658911,28.4984847 66.6900311,29.5476505 66.6900311,30.8402867 L66.6900311,67.9190854 L66.6900311,67.9190854 Z" id="Fill-5-Copy" sketch:type="MSShapeGroup"></path>
            </g>
        </g>
    </g>
</svg>