<?xml version="1.0" encoding="UTF-8" standalone="no"?>
<svg width="25px" height="22px" viewBox="0 0 25 22" version="1.1" xmlns="http://www.w3.org/2000/svg" xmlns:xlink="http://www.w3.org/1999/xlink" xmlns:sketch="http://www.bohemiancoding.com/sketch/ns">
    <!-- Generator: Sketch 3.4.2 (15855) - http://www.bohemiancoding.com/sketch -->
    <title>Fill 1 + Fill 2</title>
    <desc>Created with Sketch.</desc>
    <defs></defs>
    <g id="Desktop-Use-Cases" stroke="none" stroke-width="1" fill="none" fill-rule="evenodd" sketch:type="MSPage">
        <g id="D_Multi-Device-Error" sketch:type="MSArtboardGroup" transform="translate(-91.000000, -566.000000)" fill="#FFFFFF">
            <g id="Fill-1-+-Fill-2" sketch:type="MSLayerGroup" transform="translate(91.000000, 566.000000)">
                <path d="M22.7725,21.3345 L2.5875,21.3345 C1.674,21.3345 0.9355,20.9055 0.613,20.1865 C0.2825,19.451 0.455,18.5575 1.061,17.8365 L10.847,1.1905 C10.8725,1.147 10.9025,1.106 10.936,1.068 L11.079,0.904 C11.438,0.488 11.809,0.058 12.678,0.058 C13.5485,0.058 13.92,0.4875 14.28,0.9025 L14.4235,1.067 C14.4575,1.105 14.4875,1.1465 14.513,1.1905 L24.2975,17.8365 C24.9045,18.5565 25.078,19.45 24.748,20.186 C24.4255,20.9055 23.687,21.3345 22.7725,21.3345 L22.7725,21.3345 Z M12.163,2.049 L2.378,18.6935 C2.352,18.7375 2.322,18.779 2.288,18.817 C2.0265,19.1115 1.977,19.3945 2.0445,19.544 C2.1345,19.7435 2.454,19.765 2.5875,19.765 L22.7725,19.765 C22.906,19.765 23.2265,19.7435 23.316,19.544 C23.383,19.3945 23.3335,19.112 23.0715,18.8175 C23.037,18.7795 23.007,18.7375 22.981,18.6935 L13.1975,2.0495 L13.093,1.9295 C12.8315,1.6275 12.8315,1.6275 12.678,1.6275 C12.528,1.6275 12.528,1.6275 12.267,1.9295 L12.163,2.049 L12.163,2.049 Z" id="Fill-1" sketch:type="MSShapeGroup"></path>
                <path d="M11.423,16.934 C11.423,16.5645 11.522,16.2855 11.7195,16.096 C11.9175,15.907 12.2055,15.813 12.5835,15.813 C12.948,15.813 13.2315,15.9095 13.431,16.103 C13.6315,16.2965 13.731,16.5735 13.731,16.934 C13.731,17.2815 13.6305,17.555 13.4275,17.7555 C13.2255,17.9555 12.944,18.0555 12.5835,18.0555 C12.214,18.0555 11.9285,17.9575 11.726,17.762 C11.524,17.566 11.423,17.2905 11.423,16.934 L11.423,16.934 Z M13.395,13.678 L11.7855,13.678 L11.449,6.734 L13.731,6.734 L13.395,13.678 L13.395,13.678 Z" id="Fill-2" sketch:type="MSShapeGroup"></path>
            </g>
        </g>
    </g>
</svg>