<?xml version="1.0" encoding="UTF-8" standalone="no"?>
<svg width="20px" height="20px" viewBox="0 0 20 20" version="1.1" xmlns="http://www.w3.org/2000/svg" xmlns:xlink="http://www.w3.org/1999/xlink" xmlns:sketch="http://www.bohemiancoding.com/sketch/ns">
    <!-- Generator: Sketch 3.3.2 (12043) - http://www.bohemiancoding.com/sketch -->
    <title>Fill 1 Copy 4</title>
    <desc>Created with Sketch.</desc>
    <defs></defs>
    <g id="V14" stroke="none" stroke-width="1" fill="none" fill-rule="evenodd" sketch:type="MSPage">
        <g id="Artboard-68" sketch:type="MSArtboardGroup" transform="translate(-948.000000, -257.000000)" fill="#4BB2D9">
            <path d="M966.709677,274.419355 L950.580645,274.419355 L950.580645,258.290323 C950.580645,257.578065 950.003226,257 949.290323,257 C948.578065,257 948,257.578065 948,258.290323 L948,275.709677 C948,276.422581 948.578065,277 949.290323,277 L966.709677,277 C967.422581,277 968,276.422581 968,275.709677 C968,274.997419 967.422581,274.419355 966.709677,274.419355 Z M952.836774,272.626452 C953.056129,272.772258 953.304516,272.842581 953.550323,272.842581 C953.967742,272.842581 954.376774,272.640645 954.625806,272.267097 L956.78,269.030968 L958.607097,269.763226 C959.195484,270 959.867097,269.773548 960.192903,269.230968 L963.840645,263.167097 L965.811613,264.175484 C966.445806,264.50129 967.223226,264.249032 967.547742,263.614839 C967.872903,262.98 967.621935,262.203226 966.987097,261.87871 L963.943871,260.320645 C963.34,260.010968 962.6,260.223226 962.250323,260.804516 L958.547742,266.959355 L956.767097,266.245806 C956.2,266.017419 955.551613,266.220645 955.213548,266.728387 L952.477419,270.836774 C952.082581,271.429677 952.243226,272.230968 952.836774,272.626452 Z" id="Fill-1-Copy-4" sketch:type="MSShapeGroup"></path>
        </g>
    </g>
</svg>