<?xml version="1.0" encoding="UTF-8" standalone="no"?>
<svg width="14px" height="20px" viewBox="0 0 14 20" version="1.1" xmlns="http://www.w3.org/2000/svg" xmlns:xlink="http://www.w3.org/1999/xlink" xmlns:sketch="http://www.bohemiancoding.com/sketch/ns">
    <!-- Generator: Sketch 3.3.2 (12043) - http://www.bohemiancoding.com/sketch -->
    <title>Fill 1 Copy 2</title>
    <desc>Created with Sketch.</desc>
    <defs></defs>
    <g id="V16" stroke="none" stroke-width="1" fill="none" fill-rule="evenodd" sketch:type="MSPage">
        <g id="3.2.1_D_Network-Access-Open" sketch:type="MSArtboardGroup" transform="translate(-908.000000, -1017.000000)" fill="#7B7D7D">
            <path d="M921.066667,1022.2381 C921.066667,1021.7119 920.649,1021.28571 920.133333,1021.28571 L909.4,1021.28571 C908.884333,1021.28571 908.466667,1021.7119 908.466667,1022.2381 L908.466667,1036.04762 C908.466667,1036.57381 908.884333,1037 909.4,1037 L920.133333,1037 C920.649,1037 921.066667,1036.57381 921.066667,1036.04762 L921.066667,1022.2381 L921.066667,1022.2381 Z M912.2,1034.03714 C912.2,1034.4319 911.886867,1034.75143 911.5,1034.75143 C911.113133,1034.75143 910.8,1034.4319 910.8,1034.03714 L910.8,1024.51333 C910.8,1024.11905 911.113133,1023.79905 911.5,1023.79905 C911.886867,1023.79905 912.2,1024.11905 912.2,1024.51333 L912.2,1034.03714 L912.2,1034.03714 Z M915.466667,1034.03714 C915.466667,1034.4319 915.153533,1034.75143 914.766667,1034.75143 C914.3798,1034.75143 914.066667,1034.4319 914.066667,1034.03714 L914.066667,1024.51333 C914.066667,1024.11905 914.3798,1023.79905 914.766667,1023.79905 C915.153533,1023.79905 915.466667,1024.11905 915.466667,1024.51333 L915.466667,1034.03714 L915.466667,1034.03714 Z M918.733333,1034.03714 C918.733333,1034.4319 918.4202,1034.75143 918.033333,1034.75143 C917.646467,1034.75143 917.333333,1034.4319 917.333333,1034.03714 L917.333333,1024.51333 C917.333333,1024.11905 917.646467,1023.79905 918.033333,1023.79905 C918.4202,1023.79905 918.733333,1024.11905 918.733333,1024.51333 L918.733333,1034.03714 Z M921.3,1019.38095 L917.8,1019.38095 L917.8,1017.60857 C917.8,1017.21429 917.7202,1017 917.333333,1017 L912.666667,1017 C912.2798,1017 911.733333,1017.21429 911.733333,1017.60857 L911.733333,1019.38095 L908.7,1019.38095 C908.313133,1019.38095 908,1019.70048 908,1020.09524 C908,1020.49 908.313133,1020.80952 908.7,1020.80952 L921.3,1020.80952 C921.686867,1020.80952 922,1020.49 922,1020.09524 C922,1019.70048 921.686867,1019.38095 921.3,1019.38095 Z M913.133333,1018.42857 L916.4,1018.42857 L916.4,1019.38095 L913.133333,1019.38095 L913.133333,1018.42857 Z" id="Fill-1-Copy-2" sketch:type="MSShapeGroup"></path>
        </g>
    </g>
</svg>