<?xml version="1.0" encoding="UTF-8" standalone="no"?>
<svg width="25px" height="23px" viewBox="0 0 25 23" version="1.1" xmlns="http://www.w3.org/2000/svg" xmlns:xlink="http://www.w3.org/1999/xlink" xmlns:sketch="http://www.bohemiancoding.com/sketch/ns">
    <!-- Generator: Sketch 3.3.2 (12043) - http://www.bohemiancoding.com/sketch -->
    <title>Imported Layers Copy 2</title>
    <desc>Created with Sketch.</desc>
    <defs></defs>
    <g id="V14" stroke="none" stroke-width="1" fill="none" fill-rule="evenodd" sketch:type="MSPage">
        <g id="Artboard-68" sketch:type="MSArtboardGroup" transform="translate(-948.000000, -340.000000)" fill="#90D963">
            <path d="M971.250511,354.108119 L968.929711,354.108119 L968.929711,352.472119 L971.010511,352.472119 C971.672431,352.472119 972.210511,351.911119 972.210511,351.222119 C972.210511,350.532619 971.672431,349.972119 971.010511,349.972119 L961.690351,349.972119 L961.690351,348.335619 L964.011151,348.335619 C964.540111,348.335619 964.971151,347.887119 964.971151,347.335619 L964.971151,341.053619 C964.971151,340.502119 964.540111,340.053619 964.011151,340.053619 L956.970031,340.053619 C956.440591,340.053619 956.010031,340.502119 956.010031,341.053619 L956.010031,347.335619 C956.010031,347.887119 956.440591,348.335619 956.970031,348.335619 L959.290351,348.335619 L959.290351,349.972119 L949.969231,349.972119 C949.307311,349.972119 948.769231,350.532619 948.769231,351.222119 C948.769231,351.911119 949.307311,352.472119 949.969231,352.472119 L952.050031,352.472119 L952.050031,354.108119 L949.729231,354.108119 C949.199791,354.108119 948.769231,354.556619 948.769231,355.108119 L948.769231,361.390119 C948.769231,361.941619 949.199791,362.390119 949.729231,362.390119 L956.770351,362.390119 C957.299311,362.390119 957.730351,361.941619 957.730351,361.390119 L957.730351,355.108119 C957.730351,354.556619 957.299311,354.108119 956.770351,354.108119 L954.450031,354.108119 L954.450031,352.472119 L966.529711,352.472119 L966.529711,354.108119 L964.208911,354.108119 C963.679471,354.108119 963.248911,354.556619 963.248911,355.108119 L963.248911,361.390119 C963.248911,361.941619 963.679471,362.390119 964.208911,362.390119 L971.250511,362.390119 C971.779471,362.390119 972.210511,361.941619 972.210511,361.390119 L972.210511,355.108119 C972.210511,354.556619 971.779471,354.108119 971.250511,354.108119 L971.250511,354.108119 Z M950.689231,356.108119 L955.810351,356.108119 L955.810351,360.390119 L950.689231,360.390119 L950.689231,356.108119 Z M957.930031,342.053619 L963.051151,342.053619 L963.051151,346.335619 L957.930031,346.335619 L957.930031,342.053619 Z M965.168911,356.108119 L970.290511,356.108119 L970.290511,360.390119 L965.168911,360.390119 L965.168911,356.108119 Z" id="Imported-Layers-Copy-2" sketch:type="MSShapeGroup"></path>
        </g>
    </g>
</svg>