<?xml version="1.0" encoding="UTF-8" standalone="no"?>
<svg width="17px" height="18px" viewBox="0 0 17 18" version="1.1" xmlns="http://www.w3.org/2000/svg" xmlns:xlink="http://www.w3.org/1999/xlink" xmlns:sketch="http://www.bohemiancoding.com/sketch/ns">
    <!-- Generator: Sketch 3.3.2 (12043) - http://www.bohemiancoding.com/sketch -->
    <title>Imported Layers Copy</title>
    <desc>Created with Sketch.</desc>
    <defs></defs>
    <g id="V16" stroke="none" stroke-width="1" fill="none" fill-rule="evenodd" sketch:type="MSPage">
        <g id="5.5_M_DeviceList-Block-Confirm" sketch:type="MSArtboardGroup" transform="translate(-342.000000, -177.000000)" fill="#1B5C9C">
            <path d="M358.2451,178.543371 C357.84985,177.730286 354.84085,177 350.642381,177 C346.441787,177 343.567725,177.663943 343.0386,178.543371 C342.920662,178.737257 342.471225,179.690229 342.471225,179.989543 C342.471225,180.1068 342.54135,180.219943 342.671506,180.328971 L348.574225,187.397829 C348.751662,187.611257 348.898287,188.010857 348.898287,188.284971 L348.898287,194.142171 C348.898287,194.415771 349.108662,194.547943 349.36685,194.435314 L351.920037,193.2936 C352.1761,193.177371 352.386475,192.856971 352.386475,192.582857 L352.386475,188.284971 C352.386475,188.010857 352.531506,187.611257 352.710006,187.397829 L358.611662,180.328457 C358.741818,180.218914 358.813006,180.106286 358.813006,179.989543 C358.813006,179.690229 358.344443,178.746514 358.2451,178.543371 L358.2451,178.543371 Z M350.64185,179.551371 C347.276381,179.551371 344.547881,179.176971 344.547881,178.715143 C344.547881,178.253314 347.276381,177.878914 350.64185,177.878914 C354.006787,177.878914 356.735818,178.253314 356.735818,178.715143 C356.735818,179.176971 354.006787,179.551371 350.64185,179.551371 L350.64185,179.551371 Z" id="Imported-Layers-Copy" sketch:type="MSShapeGroup"></path>
        </g>
    </g>
</svg>