<?xml version="1.0" encoding="UTF-8" standalone="no"?>
<svg width="21px" height="20px" viewBox="0 0 21 20" version="1.1" xmlns="http://www.w3.org/2000/svg" xmlns:xlink="http://www.w3.org/1999/xlink" xmlns:sketch="http://www.bohemiancoding.com/sketch/ns">
    <!-- Generator: Sketch 3.3.2 (12043) - http://www.bohemiancoding.com/sketch -->
    <title>Imported Layers Copy 30</title>
    <desc>Created with Sketch.</desc>
    <defs></defs>
    <g id="V16" stroke="none" stroke-width="1" fill="none" fill-rule="evenodd" sketch:type="MSPage">
        <g id="1.5_M_DeviceList" sketch:type="MSArtboardGroup" transform="translate(-16.000000, -726.000000)" fill="#ABC3DB">
            <path d="M35.7706667,734.759355 L33.7926667,734.280645 C33.652,733.829032 33.4673333,733.396129 33.2426667,732.987097 L34.5153333,731.018065 C34.7926667,730.614839 35.004,730.26129 34.5633333,729.836129 L33.39,728.7 C32.95,728.272903 32.5866667,728.479355 32.168,728.747742 L30.134,729.97871 C29.7106667,729.760645 29.264,729.582581 28.7966667,729.447742 L28.3033333,727.532258 C28.204,727.092903 28.096,726.729677 27.474,726.729677 L25.8133333,726.729677 C25.192,726.729677 25.084,727.092903 24.984,727.532258 L24.49,729.447742 C24.0233333,729.582581 23.5766667,729.760645 23.1533333,729.97871 L21.1193333,728.747742 C20.7013333,728.47871 20.3373333,728.274194 19.8966667,728.699355 L18.724,729.836129 C18.2833333,730.26129 18.4946667,730.613548 18.772,731.018065 L20.044,732.987742 C19.8193333,733.396774 19.6353333,733.829032 19.4946667,734.280645 L17.5166667,734.759355 C17.0626667,734.855484 16.6873333,734.96 16.6873333,735.561935 L16.6873333,737.167742 C16.6873333,737.770968 17.0626667,737.874839 17.5166667,737.970968 L19.4946667,738.449032 C19.6353333,738.9 19.8193333,739.332903 20.044,739.742581 L18.772,741.710323 C18.4946667,742.114839 18.2833333,742.468387 18.7226667,742.894839 L19.8966667,744.030323 C20.3366667,744.455484 20.7,744.250968 21.1193333,743.982581 L23.1533333,742.752258 C23.5766667,742.969677 24.0233333,743.148387 24.49,743.283226 L24.984,745.197419 C25.0833333,745.636774 25.192,746 25.8133333,746 L27.474,746 C28.096,746 28.2026667,745.636774 28.3033333,745.197419 L28.7966667,743.283226 C29.264,743.148387 29.7106667,742.969677 30.134,742.752258 L32.1693333,743.982581 C32.5866667,744.250968 32.95,744.455484 33.3906667,744.030323 L34.5633333,742.893548 C35.0046667,742.468387 34.7926667,742.114839 34.5153333,741.710323 L33.2426667,739.742581 C33.4673333,739.332903 33.652,738.9 33.7926667,738.449032 L35.7706667,737.970968 C36.224,737.874839 36.6,737.770968 36.6,737.167742 L36.6,735.561935 C36.6,734.96 36.224,734.855484 35.7706667,734.759355 L35.7706667,734.759355 Z M26.6433333,739.678065 C24.754,739.678065 23.2213333,738.193548 23.2213333,736.365161 C23.2213333,734.535484 24.754,733.052903 26.6433333,733.052903 C28.534,733.052903 30.066,734.535484 30.066,736.365161 C30.066,738.193548 28.534,739.678065 26.6433333,739.678065 L26.6433333,739.678065 Z" id="Imported-Layers-Copy-30" sketch:type="MSShapeGroup"></path>
        </g>
    </g>
</svg>