<?xml version="1.0" encoding="UTF-8" standalone="no"?>
<svg width="63px" height="33px" viewBox="0 0 63 33" version="1.1" xmlns="http://www.w3.org/2000/svg" xmlns:xlink="http://www.w3.org/1999/xlink" xmlns:sketch="http://www.bohemiancoding.com/sketch/ns">
    <!-- Generator: Sketch 3.3.2 (12043) - http://www.bohemiancoding.com/sketch -->
    <title>Fill 2</title>
    <desc>Created with Sketch.</desc>
    <defs></defs>
    <g id="V14" stroke="none" stroke-width="1" fill="none" fill-rule="evenodd" sketch:type="MSPage">
        <g id="Artboard-68" sketch:type="MSArtboardGroup" transform="translate(-518.000000, -267.000000)" fill="#A7A7A7">
            <path d="M558.040618,267.333333 L521.203074,267.333333 C519.436673,267.333333 518,268.799485 518,270.600886 L518,291.024207 C518,292.825607 519.436673,294.291759 521.203074,294.291759 L538.020309,294.291759 L538.020309,296.742982 L530.812844,296.742982 C530.429987,296.742982 530.095877,297.041353 530.01591,297.406774 C530.00386,297.463766 530.012076,298.315296 530.012076,298.376758 C530.012076,298.433192 530.017553,298.488508 530.02796,298.541589 C530.102998,298.913714 530.425606,299.193647 530.812844,299.193647 L549.231617,299.193647 C549.617212,299.193647 549.938725,298.917626 550.015406,298.546618 C550.02636,298.491302 550.032385,298.434868 550.032385,298.376758 C550.032385,298.306356 550.023622,297.420742 550.00719,297.355369 C549.918459,297.0028 549.605162,296.742982 549.231617,296.742982 L541.223383,296.742982 L541.223383,294.291759 L558.040618,294.291759 C559.80702,294.291759 561.243693,292.825607 561.243693,291.024207 L561.243693,270.600886 C561.243693,268.799485 559.80702,267.333333 558.040618,267.333333 L558.040618,267.333333 Z M558.841387,290.207318 C558.841387,291.108577 558.122777,291.841095 557.23985,291.841095 L522.003843,291.841095 C521.120916,291.841095 520.402306,291.108577 520.402306,290.207318 L520.402306,271.417774 C520.402306,270.516515 521.120916,269.783998 522.003843,269.783998 L557.23985,269.783998 C558.122777,269.783998 558.841387,270.516515 558.841387,271.417774 L558.841387,290.207318 Z M577.796926,267.47302 L567.565492,267.47302 C565.798543,267.47302 564.36187,268.939172 564.36187,270.740573 L564.36187,296.065222 C564.36187,297.866622 565.798543,299.333333 567.565492,299.333333 L577.796926,299.333333 C579.563327,299.333333 581,297.866622 581,296.065222 L581,270.740573 C581,268.939172 579.563327,267.47302 577.796926,267.47302 Z M576.934265,293.945336 L568.427605,293.945336 C567.897411,293.945336 567.46745,293.50672 567.46745,292.965852 C567.46745,292.424427 567.897411,291.986369 568.427605,291.986369 L576.934265,291.986369 C577.465007,291.986369 577.894968,292.424427 577.894968,292.965852 C577.894968,293.50672 577.465007,293.945336 576.934265,293.945336 L576.934265,293.945336 Z M576.934265,275.706157 L568.427605,275.706157 C567.897411,275.706157 567.46745,275.267541 567.46745,274.726674 C567.46745,274.185807 567.897411,273.74719 568.427605,273.74719 L576.934265,273.74719 C577.465007,273.74719 577.894968,274.185807 577.894968,274.726674 C577.894968,275.267541 577.465007,275.706157 576.934265,275.706157 L576.934265,275.706157 Z M576.934265,272.509566 L568.427605,272.509566 C567.897411,272.509566 567.46745,272.070949 567.46745,271.529523 C567.46745,270.988656 567.897411,270.55004 568.427605,270.55004 L576.934265,270.55004 C577.465007,270.55004 577.894968,270.988656 577.894968,271.529523 C577.894968,272.070949 577.465007,272.509566 576.934265,272.509566 L576.934265,272.509566 Z" id="Fill-2" sketch:type="MSShapeGroup"></path>
        </g>
    </g>
</svg>