<?xml version="1.0" encoding="UTF-8" standalone="no"?>
<svg width="54px" height="47px" viewBox="0 0 54 47" version="1.1" xmlns="http://www.w3.org/2000/svg" xmlns:xlink="http://www.w3.org/1999/xlink" xmlns:sketch="http://www.bohemiancoding.com/sketch/ns">
    <!-- Generator: Sketch 3.3.2 (12043) - http://www.bohemiancoding.com/sketch -->
    <title>Fill 15</title>
    <desc>Created with Sketch.</desc>
    <defs></defs>
    <g id="V14" stroke="none" stroke-width="1" fill="none" fill-rule="evenodd" sketch:type="MSPage">
        <g id="Artboard-68" sketch:type="MSArtboardGroup" transform="translate(-524.000000, -495.000000)" fill="#A7A7A7">
            <path d="M575.975971,503.825613 C574.902366,503.825613 574.032443,504.688967 574.032443,505.753692 L574.032443,506.441135 L570.202916,506.441135 L570.202916,500.256468 C570.202916,497.76748 568.16299,495.743729 565.656616,495.743729 L529.465798,495.743729 C526.959425,495.743729 524.919498,497.76748 524.919498,500.256468 L524.919498,526.104609 C524.919498,528.592826 526.959425,530.616576 529.465798,530.616576 L545.466473,530.616576 L541.305769,537.469397 C541.224141,537.602873 541.16739,537.743293 541.121523,537.886028 L535.453419,537.886028 C534.379814,537.886028 533.509891,538.749382 533.509891,539.814879 C533.509891,540.880376 534.379814,541.743729 535.453419,541.743729 L551.973404,541.743729 C553.047009,541.743729 553.916932,540.880376 553.916932,539.814879 C553.916932,538.749382 553.047009,537.886028 551.973404,537.886028 L545.590859,537.886028 L550.004222,530.616576 L565.656616,530.616576 C568.16299,530.616576 570.202916,528.592826 570.202916,526.104609 L570.202916,519.919943 L574.032443,519.919943 L574.032443,520.606613 C574.032443,521.671339 574.902366,522.534692 575.975971,522.534692 C577.049575,522.534692 577.919498,521.671339 577.919498,520.606613 L577.919498,505.753692 C577.919498,504.688967 577.049575,503.825613 575.975971,503.825613 L575.975971,503.825613 Z M566.793191,524.976617 C566.793191,526.22034 565.774005,527.232601 564.520041,527.232601 L530.603151,527.232601 C529.348409,527.232601 528.329223,526.22034 528.329223,524.976617 L528.329223,501.38446 C528.329223,500.140737 529.348409,499.128476 530.603151,499.128476 L564.520041,499.128476 C565.774005,499.128476 566.793191,500.140737 566.793191,501.38446 L566.793191,524.976617 L566.793191,524.976617 Z M570.202916,509.82511 L574.032443,509.82511 L574.032443,516.535196 L570.202916,516.535196 L570.202916,509.82511 Z" id="Fill-15" sketch:type="MSShapeGroup"></path>
        </g>
    </g>
</svg>