<?xml version="1.0" encoding="UTF-8" standalone="no"?>
<svg width="57px" height="54px" viewBox="0 0 57 54" version="1.1" xmlns="http://www.w3.org/2000/svg" xmlns:xlink="http://www.w3.org/1999/xlink" xmlns:sketch="http://www.bohemiancoding.com/sketch/ns">
    <!-- Generator: Sketch 3.3.2 (12043) - http://www.bohemiancoding.com/sketch -->
    <title>Fill 6</title>
    <desc>Created with Sketch.</desc>
    <defs></defs>
    <g id="V14" stroke="none" stroke-width="1" fill="none" fill-rule="evenodd" sketch:type="MSPage">
        <g id="Artboard-68" sketch:type="MSArtboardGroup" transform="translate(-522.000000, -362.000000)" fill="#A7A7A7">
            <path d="M565.549311,379.965356 C559.235884,379.965356 558.963537,382.738805 552.218767,383.056071 L552.218767,377.723442 C552.218767,372.78702 549.57898,369.95493 544.97647,369.95493 C539.483126,369.95493 537.342388,368.409197 537.342388,364.441866 C537.342388,363.611109 536.66076,362.938234 535.820897,362.938234 C534.980274,362.938234 534.299406,363.611109 534.299406,364.441866 C534.299406,370.09552 537.891647,372.962193 544.97647,372.962193 C546.779437,372.962193 549.175785,373.455384 549.175785,377.723442 L549.175785,383.056071 C542.431015,382.738805 542.158668,379.965356 535.845241,379.965356 C526.105416,379.965356 522.697276,393.620585 522.697276,407.275814 C522.697276,411.246152 523.427592,415.938234 528.662282,415.938234 C538.197466,415.938234 536.183012,405.445894 549.574416,405.006082 L552.570993,405.042169 C565.138509,405.843605 563.379665,415.938234 572.732271,415.938234 C577.966961,415.938234 578.697276,411.246152 578.697276,407.275814 C578.697276,393.620585 575.288376,379.965356 565.549311,379.965356 L565.549311,379.965356 Z M572.732271,412.930971 C569.858935,412.930971 568.705644,411.751373 566.572514,409.297446 C564.094766,406.448816 560.702601,402.546893 552.767265,402.040921 L552.687387,402.03641 L552.608269,402.034906 L549.611692,401.998819 L549.542465,401.998067 L549.473237,402.000323 C540.922457,402.281502 537.396401,406.336796 534.822039,409.297446 C532.688147,411.751373 531.535618,412.930971 528.662282,412.930971 C527.429113,412.930971 525.740258,412.930971 525.740258,407.275814 C525.740258,400.202732 526.700319,393.931085 528.444709,389.615663 C530.251479,385.145367 532.672172,382.972619 535.845241,382.972619 C538.402868,382.972619 539.567569,383.477839 541.18035,384.176276 C543.014507,384.970945 545.297504,385.960335 549.508992,386.085888 L549.554636,386.087392 L551.839916,386.087392 L551.885561,386.085888 C556.097048,385.960335 558.380045,384.970945 560.214203,384.176276 C561.826223,383.477839 562.991685,382.972619 565.549311,382.972619 C568.722381,382.972619 571.143073,385.145367 572.949844,389.615663 C574.693473,393.931085 575.654294,400.202732 575.654294,407.275814 C575.654294,412.930971 573.965439,412.930971 572.732271,412.930971 L572.732271,412.930971 Z M540.024016,392.246266 L538.103134,392.246266 L538.103134,390.348683 C538.103134,389.517927 537.421506,388.845052 536.581643,388.845052 C535.741019,388.845052 535.060152,389.517927 535.060152,390.348683 L535.060152,392.246266 L533.139269,392.246266 C532.299406,392.246266 531.617778,392.919893 531.617778,393.749897 C531.617778,394.580654 532.299406,395.253529 533.139269,395.253529 L535.060152,395.253529 L535.060152,397.151863 C535.060152,397.981868 535.741019,398.655495 536.581643,398.655495 C537.421506,398.655495 538.103134,397.981868 538.103134,397.151863 L538.103134,395.253529 L540.024016,395.253529 C540.86388,395.253529 541.545508,394.580654 541.545508,393.749897 C541.545508,392.919893 540.86388,392.246266 540.024016,392.246266 Z M565.318805,389.037517 C564.477421,389.037517 563.795793,389.711143 563.795793,390.542652 C563.795793,391.37416 564.477421,392.047787 565.318805,392.047787 C566.159429,392.047787 566.841818,391.37416 566.841818,390.542652 C566.841818,389.711143 566.159429,389.037517 565.318805,389.037517 Z M565.318805,395.452008 C564.477421,395.452008 563.795793,396.126387 563.795793,396.957143 C563.795793,397.788651 564.477421,398.462278 565.318805,398.462278 C566.159429,398.462278 566.841818,397.788651 566.841818,396.957143 C566.841818,396.126387 566.159429,395.452008 565.318805,395.452008 Z M562.072704,392.244762 C561.23208,392.244762 560.549692,392.919141 560.549692,393.749897 C560.549692,394.581406 561.23208,395.255032 562.072704,395.255032 C562.914089,395.255032 563.595717,394.581406 563.595717,393.749897 C563.595717,392.919141 562.914089,392.244762 562.072704,392.244762 Z M568.564146,392.244762 C567.722761,392.244762 567.041133,392.919141 567.041133,393.749897 C567.041133,394.581406 567.722761,395.255032 568.564146,395.255032 C569.40477,395.255032 570.087158,394.581406 570.087158,393.749897 C570.087158,392.919141 569.40477,392.244762 568.564146,392.244762 Z" id="Fill-6" sketch:type="MSShapeGroup"></path>
        </g>
    </g>
</svg>