<?xml version="1.0" encoding="UTF-8" standalone="no"?>
<svg width="31px" height="55px" viewBox="0 0 31 55" version="1.1" xmlns="http://www.w3.org/2000/svg" xmlns:xlink="http://www.w3.org/1999/xlink" xmlns:sketch="http://www.bohemiancoding.com/sketch/ns">
    <!-- Generator: Sketch 3.3.2 (12043) - http://www.bohemiancoding.com/sketch -->
    <title>Fill 4 Copy 5</title>
    <desc>Created with Sketch.</desc>
    <defs></defs>
    <g id="V14" stroke="none" stroke-width="1" fill="none" fill-rule="evenodd" sketch:type="MSPage">
        <g id="Artboard-68" sketch:type="MSArtboardGroup" transform="translate(-533.000000, -723.000000)" fill="#A7A7A7">
            <path d="M558.142087,723.576942 L539.474688,723.576942 C536.34989,723.576942 533.808387,726.192176 533.808387,729.405406 L533.808387,771.748478 C533.808387,774.961708 536.34989,777.576942 539.474688,777.576942 L558.142087,777.576942 C561.266885,777.576942 563.808387,774.961708 563.808387,771.748478 L563.808387,729.405406 C563.808387,726.192176 561.266885,723.576942 558.142087,723.576942 L558.142087,723.576942 Z M548.808387,775.296585 C547.23969,775.296585 545.967486,773.987972 545.967486,772.37438 C545.967486,770.760789 547.23969,769.452175 548.808387,769.452175 C550.377084,769.452175 551.64832,770.760789 551.64832,772.37438 C551.64832,773.987972 550.377084,775.296585 548.808387,775.296585 L548.808387,775.296585 Z M559.558662,764.378182 C559.558662,765.985794 558.287426,767.292414 556.725512,767.292414 L540.891263,767.292414 C539.329349,767.292414 538.058113,765.985794 538.058113,764.378182 L538.058113,730.862522 C538.058113,729.25491 539.329349,727.94829 540.891263,727.94829 L556.725512,727.94829 C558.287426,727.94829 559.558662,729.25491 559.558662,730.862522 L559.558662,764.378182 L559.558662,764.378182 Z" id="Fill-4-Copy-5" sketch:type="MSShapeGroup"></path>
        </g>
    </g>
</svg>