<?xml version="1.0" encoding="UTF-8" standalone="no"?>
<svg width="64px" height="46px" viewBox="0 0 64 46" version="1.1" xmlns="http://www.w3.org/2000/svg" xmlns:xlink="http://www.w3.org/1999/xlink" xmlns:sketch="http://www.bohemiancoding.com/sketch/ns">
    <!-- Generator: Sketch 3.3.2 (12043) - http://www.bohemiancoding.com/sketch -->
    <title>Fill 1 Copy 5</title>
    <desc>Created with Sketch.</desc>
    <defs></defs>
    <g id="V14" stroke="none" stroke-width="1" fill="none" fill-rule="evenodd" sketch:type="MSPage">
        <g id="Artboard-68" sketch:type="MSArtboardGroup" transform="translate(-518.000000, -849.000000)" fill="#A7A7A7">
            <path d="M580.390609,888.137164 L576.586467,884.293886 L576.586467,852.93091 C576.586467,850.97171 575.016703,849.377606 573.086508,849.377606 L526.419896,849.377606 C524.489701,849.377606 522.919937,850.97171 522.919937,852.93091 L522.919937,884.293886 L519.114315,888.138666 C518.558495,888.700584 518.252832,890.642506 518.252832,891.455333 C518.252832,893.066715 519.566519,894.377606 521.181429,894.377606 L578.324974,894.377606 C579.939145,894.377606 581.252832,893.066715 581.252832,891.455333 C581.252832,890.642506 580.947908,888.700584 580.390609,888.137164 L580.390609,888.137164 Z M527.586302,852.93091 L571.920102,852.93091 C572.563253,852.93091 573.086508,853.462028 573.086508,854.114844 L573.086508,882.535264 L526.419896,882.535264 L526.419896,854.114844 C526.419896,853.462028 526.94241,852.93091 527.586302,852.93091 L527.586302,852.93091 Z M577.158568,890.825054 L556.75312,890.825054 C557.397752,890.825054 557.919526,890.294688 557.919526,889.640369 C557.919526,888.986801 557.397752,888.456435 556.75312,888.456435 L542.753284,888.456435 C542.107912,888.456435 541.586138,888.986801 541.586138,889.640369 C541.586138,890.294688 542.107912,890.825054 542.753284,890.825054 L522.347836,890.825054 C521.942258,890.825054 521.752791,890.493763 521.752791,890.270648 C521.752791,890.021992 521.853445,889.891279 521.927456,889.816156 L525.619102,886.087816 L573.887302,886.087816 L577.577468,889.815405 C577.652959,889.891279 577.752873,890.021992 577.752873,890.270648 C577.752873,890.493763 577.564146,890.825054 577.158568,890.825054 L577.158568,890.825054 Z" id="Fill-1-Copy-5" sketch:type="MSShapeGroup"></path>
        </g>
    </g>
</svg>