<?xml version="1.0" encoding="UTF-8" standalone="no"?>
<svg width="41px" height="41px" viewBox="0 0 41 41" version="1.1" xmlns="http://www.w3.org/2000/svg" xmlns:xlink="http://www.w3.org/1999/xlink" xmlns:sketch="http://www.bohemiancoding.com/sketch/ns">
    <!-- Generator: Sketch 3.3.2 (12043) - http://www.bohemiancoding.com/sketch -->
    <title>Fill 13 Copy 3</title>
    <desc>Created with Sketch.</desc>
    <defs></defs>
    <g id="V14" stroke="none" stroke-width="1" fill="none" fill-rule="evenodd" sketch:type="MSPage">
        <g id="Artboard-68" sketch:type="MSArtboardGroup" transform="translate(-527.000000, -1092.000000)" fill="#A7A7A7">
            <path d="M550.448291,1107.07985 C550.847976,1107.47575 551.444357,1107.59839 551.971501,1107.39501 C552.497071,1107.19319 552.852697,1106.70259 552.8763,1106.14524 L553.412886,1093.57449 C553.430195,1093.18171 553.279133,1092.79979 552.997465,1092.52189 C552.71737,1092.24554 552.361745,1092.09805 551.930588,1092.11202 L539.186293,1092.63832 C538.622957,1092.66161 538.12571,1093.01093 537.919573,1093.53102 C537.71501,1094.04956 537.840895,1094.63952 538.24058,1095.03386 L541.557654,1098.30812 L528.30667,1111.38033 C527.749628,1111.92837 527.749628,1112.81641 528.30667,1113.366 L531.867646,1116.8809 C532.135152,1117.14483 532.495498,1117.29232 532.874727,1117.29232 C533.252382,1117.29232 533.614302,1117.14483 533.880234,1116.8809 L547.129644,1103.80559 L550.448291,1107.07985 Z M567.471108,1110.85558 L563.910132,1107.34068 C563.642626,1107.07675 563.28228,1106.92926 562.903051,1106.92926 C562.525396,1106.92926 562.163476,1107.07675 561.897543,1107.34068 L548.648134,1120.41444 L545.33106,1117.14173 C544.931375,1116.74894 544.336568,1116.62474 543.80785,1116.82657 C543.28228,1117.02839 542.926654,1117.51899 542.903051,1118.07479 L542.366466,1130.64709 C542.349156,1131.03987 542.498645,1131.42179 542.781887,1131.69969 C543.047819,1131.96362 543.411312,1132.11111 543.787394,1132.11111 C543.80785,1132.11111 543.826733,1132.10956 543.847189,1132.10956 L556.591485,1131.58325 C557.154821,1131.55997 557.652067,1131.21065 557.858204,1130.69056 C558.062768,1130.17202 557.936883,1129.58206 557.537197,1129.18772 L554.221698,1125.91501 L567.471108,1112.84125 C568.028149,1112.29321 568.028149,1111.40362 567.471108,1110.85558 Z" id="Fill-13-Copy-3" sketch:type="MSShapeGroup"></path>
        </g>
    </g>
</svg>