<?xml version="1.0" encoding="UTF-8" standalone="no"?>
<svg width="40px" height="55px" viewBox="0 0 40 55" version="1.1" xmlns="http://www.w3.org/2000/svg" xmlns:xlink="http://www.w3.org/1999/xlink" xmlns:sketch="http://www.bohemiancoding.com/sketch/ns">
    <!-- Generator: Sketch 3.3.2 (12043) - http://www.bohemiancoding.com/sketch -->
    <title>Fill 5 Copy</title>
    <desc>Created with Sketch.</desc>
    <defs></defs>
    <g id="V14" stroke="none" stroke-width="1" fill="none" fill-rule="evenodd" sketch:type="MSPage">
        <g id="Artboard-68" sketch:type="MSArtboardGroup" transform="translate(-530.000000, -611.000000)" fill="#A7A7A7">
            <path d="M564.749191,611.641012 L534.872071,611.641012 C532.356571,611.641012 530.310631,613.742547 530.310631,616.324616 L530.310631,660.957408 C530.310631,663.539477 532.356571,665.641012 534.872071,665.641012 L564.749191,665.641012 C567.264691,665.641012 569.310631,663.539477 569.310631,660.957408 L569.310631,616.324616 C569.310631,613.742547 567.264691,611.641012 564.749191,611.641012 L564.749191,611.641012 Z M549.810631,613.415784 C550.223251,613.415784 550.557871,613.759366 550.557871,614.183837 C550.557871,614.607508 550.223251,614.95109 549.810631,614.95109 C549.398011,614.95109 549.063391,614.607508 549.063391,614.183837 C549.063391,613.759366 549.398011,613.415784 549.810631,613.415784 L549.810631,613.415784 Z M549.810631,663.771735 C548.814571,663.771735 548.006491,662.942814 548.006491,661.920078 C548.006491,660.897341 548.814571,660.067619 549.810631,660.067619 C550.806691,660.067619 551.613991,660.897341 551.613991,661.920078 C551.613991,662.942814 550.806691,663.771735 549.810631,663.771735 L549.810631,663.771735 Z M565.889551,656.337875 C565.889551,657.629711 564.865411,658.679677 563.608051,658.679677 L536.012431,658.679677 C534.755071,658.679677 533.731711,657.629711 533.731711,656.337875 L533.731711,619.259077 C533.731711,617.96644 534.755071,616.917275 536.012431,616.917275 L563.608051,616.917275 C564.865411,616.917275 565.889551,617.96644 565.889551,619.259077 L565.889551,656.337875 L565.889551,656.337875 Z" id="Fill-5-Copy" sketch:type="MSShapeGroup"></path>
        </g>
    </g>
</svg>