<?xml version="1.0" encoding="UTF-8" standalone="no"?>
<svg width="63px" height="21px" viewBox="0 0 63 21" version="1.1" xmlns="http://www.w3.org/2000/svg" xmlns:xlink="http://www.w3.org/1999/xlink" xmlns:sketch="http://www.bohemiancoding.com/sketch/ns">
    <!-- Generator: Sketch 3.3.2 (12043) - http://www.bohemiancoding.com/sketch -->
    <title>Fill 12 Copy 3</title>
    <desc>Created with Sketch.</desc>
    <defs></defs>
    <g id="V14" stroke="none" stroke-width="1" fill="none" fill-rule="evenodd" sketch:type="MSPage">
        <g id="Artboard-68" sketch:type="MSArtboardGroup" transform="translate(-518.000000, -977.000000)" fill="#A7A7A7">
            <path d="M576.115326,977.083066 L522.267498,977.083066 C520.019656,977.083066 518.191412,978.941538 518.191412,981.224097 L518.191412,992.942742 C518.191412,995.225301 520.019656,997.083066 522.267498,997.083066 L576.115326,997.083066 C578.363167,997.083066 580.191412,995.225301 580.191412,992.942742 L580.191412,981.224097 C580.191412,978.941538 578.363167,977.083066 576.115326,977.083066 L576.115326,977.083066 Z M575.096304,993.977823 L523.286519,993.977823 C522.162947,993.977823 521.248476,993.049648 521.248476,991.907661 L521.248476,988.499399 L551.619081,988.499399 C552.389271,988.499399 553.013091,987.86504 553.013091,987.08342 C553.013091,986.301091 552.389271,985.66744 551.619081,985.66744 L521.248476,985.66744 L521.248476,982.259178 C521.248476,981.117191 522.162947,980.189016 523.286519,980.189016 L575.096304,980.189016 C576.219877,980.189016 577.134347,981.117191 577.134347,982.259178 L577.134347,985.66744 L572.325709,985.66744 C571.556215,985.66744 570.931699,986.301091 570.931699,987.08342 C570.931699,987.86504 571.556215,988.499399 572.325709,988.499399 L577.134347,988.499399 L577.134347,991.907661 C577.134347,993.049648 576.219877,993.977823 575.096304,993.977823 Z M566.146062,984.346332 C564.657956,984.346332 563.45144,985.571862 563.45144,987.08342 C563.45144,988.594978 564.657956,989.820508 566.146062,989.820508 C567.634167,989.820508 568.840683,988.594978 568.840683,987.08342 C568.840683,985.571862 567.634167,984.346332 566.146062,984.346332 Z M558.16605,984.346332 C556.677944,984.346332 555.471428,985.571862 555.471428,987.08342 C555.471428,988.594978 556.677944,989.820508 558.16605,989.820508 C559.654853,989.820508 560.861369,988.594978 560.861369,987.08342 C560.861369,985.571862 559.654853,984.346332 558.16605,984.346332 Z" id="Fill-12-Copy-3" sketch:type="MSShapeGroup"></path>
        </g>
    </g>
</svg>