<?xml version="1.0" encoding="UTF-8" standalone="no"?>
<svg width="60px" height="60px" viewBox="0 0 60 60" version="1.1" xmlns="http://www.w3.org/2000/svg" xmlns:xlink="http://www.w3.org/1999/xlink" xmlns:sketch="http://www.bohemiancoding.com/sketch/ns">
    <!-- Generator: Sketch 3.3.2 (12043) - http://www.bohemiancoding.com/sketch -->
    <title>Group</title>
    <desc>Created with Sketch.</desc>
    <defs></defs>
    <g id="V14" stroke="none" stroke-width="1" fill="none" fill-rule="evenodd" sketch:type="MSPage">
        <g id="Artboard-68" sketch:type="MSArtboardGroup" transform="translate(-797.000000, -259.000000)" fill="#FFFFFF">
            <g id="Group" sketch:type="MSLayerGroup" transform="translate(797.000000, 259.000000)">
                <path d="M29.5436213,59.4799632 C13.257185,59.4799632 0.00644978998,46.2299447 0.00644978998,29.9427917 C0.00644978998,13.6563553 13.257185,0.404903482 29.5436213,0.404903482 C45.8307743,0.404903482 59.0807929,13.6563553 59.0807929,29.9427917 C59.0807929,46.2299447 45.8307743,59.4799632 29.5436213,59.4799632 L29.5436213,59.4799632 Z M29.5436213,2.55483348 C14.4417964,2.55483348 2.15637978,14.8409667 2.15637978,29.9427917 C2.15637978,45.0438999 14.4417964,57.3300332 29.5436213,57.3300332 C44.6454462,57.3300332 56.9308629,45.0438999 56.9308629,29.9427917 C56.9308629,14.8409667 44.6454462,2.55483348 29.5436213,2.55483348 L29.5436213,2.55483348 Z" id="Fill-1" sketch:type="MSShapeGroup"></path>
                <path d="M29.5436213,59.4799632 C19.7628731,59.4799632 11.8052656,46.2299447 11.8052656,29.9427917 C11.8052656,13.6563553 19.7628731,0.404903482 29.5436213,0.404903482 C39.3250862,0.404903482 47.2826937,13.6563553 47.2826937,29.9427917 C47.2826937,46.2299447 39.3250862,59.4799632 29.5436213,59.4799632 L29.5436213,59.4799632 Z M29.5436213,2.55483348 C20.9482012,2.55483348 13.9551956,14.8409667 13.9551956,29.9427917 C13.9551956,45.0438999 20.9482012,57.3300332 29.5436213,57.3300332 C38.1390414,57.3300332 45.1327637,45.0438999 45.1327637,29.9427917 C45.1327637,14.8409667 38.1390414,2.55483348 29.5436213,2.55483348 L29.5436213,2.55483348 Z" id="Fill-2" sketch:type="MSShapeGroup"></path>
                <path d="M28.4686563,1.47986848 L30.6185863,1.47986848 L30.6185863,58.4049982 L28.4686563,58.4049982 L28.4686563,1.47986848 Z" id="Fill-3" sketch:type="MSShapeGroup"></path>
                <path d="M29.5436213,19.5643629 C20.6120955,19.5643629 12.2667839,17.2001566 6.64830018,13.0780242 L7.9203421,11.3451806 C13.1776376,15.202155 21.0592809,17.4144329 29.5436213,17.4144329 C38.0286784,17.4144329 45.9103217,15.2014383 51.1683338,11.3437473 L52.4396591,13.0765909 C46.8211754,17.1994399 38.4758638,19.5643629 29.5436213,19.5643629" id="Fill-4" sketch:type="MSShapeGroup"></path>
                <path d="M7.9203421,48.5224867 L6.64830018,46.7896431 C12.2675005,42.666794 20.6128121,40.3025877 29.5450546,40.3025877 C38.4765805,40.3025877 46.8211754,42.666794 52.4396591,46.7889264 L51.1683338,48.52177 C45.9103217,44.6647956 38.0286784,42.4525177 29.5450546,42.4525177 C21.0607142,42.4525177 13.1783542,44.6647956 7.9203421,48.5224867" id="Fill-5" sketch:type="MSShapeGroup"></path>
            </g>
        </g>
    </g>
</svg>