<?xml version="1.0" encoding="UTF-8" standalone="no"?>
<svg width="60px" height="39px" viewBox="0 0 60 39" version="1.1" xmlns="http://www.w3.org/2000/svg" xmlns:xlink="http://www.w3.org/1999/xlink" xmlns:sketch="http://www.bohemiancoding.com/sketch/ns">
    <!-- Generator: Sketch 3.3.2 (12043) - http://www.bohemiancoding.com/sketch -->
    <title>Shape Copy</title>
    <desc>Created with Sketch.</desc>
    <defs></defs>
    <g id="V14" stroke="none" stroke-width="1" fill="none" fill-rule="evenodd" sketch:type="MSPage">
        <g id="Artboard-68" sketch:type="MSArtboardGroup" transform="translate(-797.000000, -350.000000)" fill="#FFFFFF">
            <path d="M852.58662,370.864253 L834.220991,370.864253 L834.886845,371.121025 C832.72998,369.164405 829.946238,368.059188 826.998236,368.059188 C824.053229,368.059188 821.26965,369.16474 819.113155,371.121025 L819.779009,370.864253 L801.411616,370.864253 C798.982508,370.864253 797,372.859267 797,375.293806 L797,384.561173 C797,386.997316 798.98233,388.994277 801.411616,388.994277 L852.58662,388.994277 C855.018552,388.994277 857,386.998205 857,384.561173 L857,375.293806 C857,372.858379 855.018374,370.864253 852.58662,370.864253 L852.58662,370.864253 Z M852.58662,372.834971 C853.921496,372.834971 855.021978,373.942395 855.021978,375.293806 L855.021978,384.561173 C855.021978,385.914653 853.921197,387.023559 852.58662,387.023559 L801.411616,387.023559 C800.079685,387.023559 798.978022,385.913765 798.978022,384.561173 L798.978022,375.293806 C798.978022,373.943282 800.079387,372.834971 801.411616,372.834971 L819.779009,372.834971 L820.161812,372.834971 L820.444862,372.578199 C822.242217,370.947712 824.553087,370.029906 826.998236,370.029906 C829.446473,370.029906 831.757475,370.947432 833.555138,372.578199 L833.838188,372.834971 L834.220991,372.834971 L852.58662,372.834971 Z M820.613696,362.169056 C820.064973,362.717372 820.083209,363.625159 820.654311,364.195839 C821.223755,364.764862 822.132214,364.783084 822.680936,364.234768 C824.899033,362.028249 828.576798,362.099481 830.879441,364.396281 C831.451372,364.966961 832.362317,364.984354 832.910211,364.436038 C833.459762,363.887721 833.440697,362.979106 832.869595,362.407598 C829.423919,358.969439 823.926751,358.861763 820.613696,362.169056 Z M817.124917,358.682028 C816.576195,359.230345 816.595259,360.139788 817.164703,360.708811 C817.734977,361.278663 818.643435,361.296885 819.192157,360.748568 C823.258669,356.699143 830.007454,356.832495 834.234769,361.043433 C834.805871,361.614941 835.715988,361.632335 836.265539,361.084019 C836.812603,360.53653 836.795196,359.627087 836.224094,359.055579 C830.855404,353.69417 822.287215,353.526859 817.124917,358.682028 Z M839.248697,355.414493 C835.748314,351.92001 831.141369,349.994277 826.276641,349.994277 C821.682958,349.994277 817.404251,351.741932 814.227134,354.914216 C813.951944,355.189202 813.805231,355.560269 813.81352,355.961153 C813.821809,356.367006 813.988415,356.752153 814.282669,357.045361 C814.865375,357.627637 815.860038,357.653314 816.413733,357.099199 C819.055391,354.467777 822.611309,353.019957 826.42584,353.019957 C830.455052,353.019957 834.270411,354.608583 837.166537,357.493457 C837.752559,358.079046 838.747221,358.104722 839.303404,357.548123 C839.876163,356.974958 839.852126,356.018303 839.248697,355.414493 Z M827.018838,382.239786 C828.849961,382.239786 830.33438,380.756465 830.33438,378.926696 C830.33438,377.096927 828.849961,375.613605 827.018838,375.613605 C825.187715,375.613605 823.703297,377.096927 823.703297,378.926696 C823.703297,380.756465 825.187715,382.239786 827.018838,382.239786 Z" id="Shape-Copy" sketch:type="MSShapeGroup"></path>
        </g>
    </g>
</svg>