<?xml version="1.0" encoding="UTF-8" standalone="no"?>
<svg width="54px" height="47px" viewBox="0 0 54 47" version="1.1" xmlns="http://www.w3.org/2000/svg" xmlns:xlink="http://www.w3.org/1999/xlink" xmlns:sketch="http://www.bohemiancoding.com/sketch/ns">
    <!-- Generator: Sketch 3.3.2 (12043) - http://www.bohemiancoding.com/sketch -->
    <title>Fill 15 Copy 3</title>
    <desc>Created with Sketch.</desc>
    <defs></defs>
    <g id="V14" stroke="none" stroke-width="1" fill="none" fill-rule="evenodd" sketch:type="MSPage">
        <g id="Artboard-68" sketch:type="MSArtboardGroup" transform="translate(-659.000000, -495.000000)" fill="#FFFFFF">
            <path d="M710.975971,503.825613 C709.902366,503.825613 709.032443,504.688967 709.032443,505.753692 L709.032443,506.441135 L705.202916,506.441135 L705.202916,500.256468 C705.202916,497.76748 703.16299,495.743729 700.656616,495.743729 L664.465798,495.743729 C661.959425,495.743729 659.919498,497.76748 659.919498,500.256468 L659.919498,526.104609 C659.919498,528.592826 661.959425,530.616576 664.465798,530.616576 L680.466473,530.616576 L676.305769,537.469397 C676.224141,537.602873 676.16739,537.743293 676.121523,537.886028 L670.453419,537.886028 C669.379814,537.886028 668.509891,538.749382 668.509891,539.814879 C668.509891,540.880376 669.379814,541.743729 670.453419,541.743729 L686.973404,541.743729 C688.047009,541.743729 688.916932,540.880376 688.916932,539.814879 C688.916932,538.749382 688.047009,537.886028 686.973404,537.886028 L680.590859,537.886028 L685.004222,530.616576 L700.656616,530.616576 C703.16299,530.616576 705.202916,528.592826 705.202916,526.104609 L705.202916,519.919943 L709.032443,519.919943 L709.032443,520.606613 C709.032443,521.671339 709.902366,522.534692 710.975971,522.534692 C712.049575,522.534692 712.919498,521.671339 712.919498,520.606613 L712.919498,505.753692 C712.919498,504.688967 712.049575,503.825613 710.975971,503.825613 L710.975971,503.825613 Z M701.793191,524.976617 C701.793191,526.22034 700.774005,527.232601 699.520041,527.232601 L665.603151,527.232601 C664.348409,527.232601 663.329223,526.22034 663.329223,524.976617 L663.329223,501.38446 C663.329223,500.140737 664.348409,499.128476 665.603151,499.128476 L699.520041,499.128476 C700.774005,499.128476 701.793191,500.140737 701.793191,501.38446 L701.793191,524.976617 L701.793191,524.976617 Z M705.202916,509.82511 L709.032443,509.82511 L709.032443,516.535196 L705.202916,516.535196 L705.202916,509.82511 Z" id="Fill-15-Copy-3" sketch:type="MSShapeGroup"></path>
        </g>
    </g>
</svg>