<?xml version="1.0" encoding="UTF-8" standalone="no"?>
<svg width="63px" height="21px" viewBox="0 0 63 21" version="1.1" xmlns="http://www.w3.org/2000/svg" xmlns:xlink="http://www.w3.org/1999/xlink" xmlns:sketch="http://www.bohemiancoding.com/sketch/ns">
    <!-- Generator: Sketch 3.3.2 (12043) - http://www.bohemiancoding.com/sketch -->
    <title>Fill 12 Copy 4</title>
    <desc>Created with Sketch.</desc>
    <defs></defs>
    <g id="V14" stroke="none" stroke-width="1" fill="none" fill-rule="evenodd" sketch:type="MSPage">
        <g id="Artboard-68" sketch:type="MSArtboardGroup" transform="translate(-653.000000, -977.000000)" fill="#FFFFFF">
            <path d="M711.115326,977.083066 L657.267498,977.083066 C655.019656,977.083066 653.191412,978.941538 653.191412,981.224097 L653.191412,992.942742 C653.191412,995.225301 655.019656,997.083066 657.267498,997.083066 L711.115326,997.083066 C713.363167,997.083066 715.191412,995.225301 715.191412,992.942742 L715.191412,981.224097 C715.191412,978.941538 713.363167,977.083066 711.115326,977.083066 L711.115326,977.083066 Z M710.096304,993.977823 L658.286519,993.977823 C657.162947,993.977823 656.248476,993.049648 656.248476,991.907661 L656.248476,988.499399 L686.619081,988.499399 C687.389271,988.499399 688.013091,987.86504 688.013091,987.08342 C688.013091,986.301091 687.389271,985.66744 686.619081,985.66744 L656.248476,985.66744 L656.248476,982.259178 C656.248476,981.117191 657.162947,980.189016 658.286519,980.189016 L710.096304,980.189016 C711.219877,980.189016 712.134347,981.117191 712.134347,982.259178 L712.134347,985.66744 L707.325709,985.66744 C706.556215,985.66744 705.931699,986.301091 705.931699,987.08342 C705.931699,987.86504 706.556215,988.499399 707.325709,988.499399 L712.134347,988.499399 L712.134347,991.907661 C712.134347,993.049648 711.219877,993.977823 710.096304,993.977823 Z M701.146062,984.346332 C699.657956,984.346332 698.45144,985.571862 698.45144,987.08342 C698.45144,988.594978 699.657956,989.820508 701.146062,989.820508 C702.634167,989.820508 703.840683,988.594978 703.840683,987.08342 C703.840683,985.571862 702.634167,984.346332 701.146062,984.346332 Z M693.16605,984.346332 C691.677944,984.346332 690.471428,985.571862 690.471428,987.08342 C690.471428,988.594978 691.677944,989.820508 693.16605,989.820508 C694.654853,989.820508 695.861369,988.594978 695.861369,987.08342 C695.861369,985.571862 694.654853,984.346332 693.16605,984.346332 Z" id="Fill-12-Copy-4" sketch:type="MSShapeGroup"></path>
        </g>
    </g>
</svg>