<?xml version="1.0" encoding="UTF-8" standalone="no"?>
<svg width="57px" height="54px" viewBox="0 0 57 54" version="1.1" xmlns="http://www.w3.org/2000/svg" xmlns:xlink="http://www.w3.org/1999/xlink" xmlns:sketch="http://www.bohemiancoding.com/sketch/ns">
    <!-- Generator: Sketch 3.3.2 (12043) - http://www.bohemiancoding.com/sketch -->
    <title>Fill 6 Copy 3</title>
    <desc>Created with Sketch.</desc>
    <defs></defs>
    <g id="V14" stroke="none" stroke-width="1" fill="none" fill-rule="evenodd" sketch:type="MSPage">
        <g id="Artboard-68" sketch:type="MSArtboardGroup" transform="translate(-657.000000, -362.000000)" fill="#FFFFFF">
            <path d="M700.549311,379.965356 C694.235884,379.965356 693.963537,382.738805 687.218767,383.056071 L687.218767,377.723442 C687.218767,372.78702 684.57898,369.95493 679.97647,369.95493 C674.483126,369.95493 672.342388,368.409197 672.342388,364.441866 C672.342388,363.611109 671.66076,362.938234 670.820897,362.938234 C669.980274,362.938234 669.299406,363.611109 669.299406,364.441866 C669.299406,370.09552 672.891647,372.962193 679.97647,372.962193 C681.779437,372.962193 684.175785,373.455384 684.175785,377.723442 L684.175785,383.056071 C677.431015,382.738805 677.158668,379.965356 670.845241,379.965356 C661.105416,379.965356 657.697276,393.620585 657.697276,407.275814 C657.697276,411.246152 658.427592,415.938234 663.662282,415.938234 C673.197466,415.938234 671.183012,405.445894 684.574416,405.006082 L687.570993,405.042169 C700.138509,405.843605 698.379665,415.938234 707.732271,415.938234 C712.966961,415.938234 713.697276,411.246152 713.697276,407.275814 C713.697276,393.620585 710.288376,379.965356 700.549311,379.965356 L700.549311,379.965356 Z M707.732271,412.930971 C704.858935,412.930971 703.705644,411.751373 701.572514,409.297446 C699.094766,406.448816 695.702601,402.546893 687.767265,402.040921 L687.687387,402.03641 L687.608269,402.034906 L684.611692,401.998819 L684.542465,401.998067 L684.473237,402.000323 C675.922457,402.281502 672.396401,406.336796 669.822039,409.297446 C667.688147,411.751373 666.535618,412.930971 663.662282,412.930971 C662.429113,412.930971 660.740258,412.930971 660.740258,407.275814 C660.740258,400.202732 661.700319,393.931085 663.444709,389.615663 C665.251479,385.145367 667.672172,382.972619 670.845241,382.972619 C673.402868,382.972619 674.567569,383.477839 676.18035,384.176276 C678.014507,384.970945 680.297504,385.960335 684.508992,386.085888 L684.554636,386.087392 L686.839916,386.087392 L686.885561,386.085888 C691.097048,385.960335 693.380045,384.970945 695.214203,384.176276 C696.826223,383.477839 697.991685,382.972619 700.549311,382.972619 C703.722381,382.972619 706.143073,385.145367 707.949844,389.615663 C709.693473,393.931085 710.654294,400.202732 710.654294,407.275814 C710.654294,412.930971 708.965439,412.930971 707.732271,412.930971 L707.732271,412.930971 Z M675.024016,392.246266 L673.103134,392.246266 L673.103134,390.348683 C673.103134,389.517927 672.421506,388.845052 671.581643,388.845052 C670.741019,388.845052 670.060152,389.517927 670.060152,390.348683 L670.060152,392.246266 L668.139269,392.246266 C667.299406,392.246266 666.617778,392.919893 666.617778,393.749897 C666.617778,394.580654 667.299406,395.253529 668.139269,395.253529 L670.060152,395.253529 L670.060152,397.151863 C670.060152,397.981868 670.741019,398.655495 671.581643,398.655495 C672.421506,398.655495 673.103134,397.981868 673.103134,397.151863 L673.103134,395.253529 L675.024016,395.253529 C675.86388,395.253529 676.545508,394.580654 676.545508,393.749897 C676.545508,392.919893 675.86388,392.246266 675.024016,392.246266 Z M700.318805,389.037517 C699.477421,389.037517 698.795793,389.711143 698.795793,390.542652 C698.795793,391.37416 699.477421,392.047787 700.318805,392.047787 C701.159429,392.047787 701.841818,391.37416 701.841818,390.542652 C701.841818,389.711143 701.159429,389.037517 700.318805,389.037517 Z M700.318805,395.452008 C699.477421,395.452008 698.795793,396.126387 698.795793,396.957143 C698.795793,397.788651 699.477421,398.462278 700.318805,398.462278 C701.159429,398.462278 701.841818,397.788651 701.841818,396.957143 C701.841818,396.126387 701.159429,395.452008 700.318805,395.452008 Z M697.072704,392.244762 C696.23208,392.244762 695.549692,392.919141 695.549692,393.749897 C695.549692,394.581406 696.23208,395.255032 697.072704,395.255032 C697.914089,395.255032 698.595717,394.581406 698.595717,393.749897 C698.595717,392.919141 697.914089,392.244762 697.072704,392.244762 Z M703.564146,392.244762 C702.722761,392.244762 702.041133,392.919141 702.041133,393.749897 C702.041133,394.581406 702.722761,395.255032 703.564146,395.255032 C704.40477,395.255032 705.087158,394.581406 705.087158,393.749897 C705.087158,392.919141 704.40477,392.244762 703.564146,392.244762 Z" id="Fill-6-Copy-3" sketch:type="MSShapeGroup"></path>
        </g>
    </g>
</svg>