<?xml version="1.0" encoding="UTF-8" standalone="no"?>
<svg width="64px" height="46px" viewBox="0 0 64 46" version="1.1" xmlns="http://www.w3.org/2000/svg" xmlns:xlink="http://www.w3.org/1999/xlink" xmlns:sketch="http://www.bohemiancoding.com/sketch/ns">
    <!-- Generator: Sketch 3.3.2 (12043) - http://www.bohemiancoding.com/sketch -->
    <title>Fill 1 Copy 6</title>
    <desc>Created with Sketch.</desc>
    <defs></defs>
    <g id="V14" stroke="none" stroke-width="1" fill="none" fill-rule="evenodd" sketch:type="MSPage">
        <g id="Artboard-68" sketch:type="MSArtboardGroup" transform="translate(-653.000000, -849.000000)" fill="#FFFFFF">
            <path d="M715.390609,888.137164 L711.586467,884.293886 L711.586467,852.93091 C711.586467,850.97171 710.016703,849.377606 708.086508,849.377606 L661.419896,849.377606 C659.489701,849.377606 657.919937,850.97171 657.919937,852.93091 L657.919937,884.293886 L654.114315,888.138666 C653.558495,888.700584 653.252832,890.642506 653.252832,891.455333 C653.252832,893.066715 654.566519,894.377606 656.181429,894.377606 L713.324974,894.377606 C714.939145,894.377606 716.252832,893.066715 716.252832,891.455333 C716.252832,890.642506 715.947908,888.700584 715.390609,888.137164 L715.390609,888.137164 Z M662.586302,852.93091 L706.920102,852.93091 C707.563253,852.93091 708.086508,853.462028 708.086508,854.114844 L708.086508,882.535264 L661.419896,882.535264 L661.419896,854.114844 C661.419896,853.462028 661.94241,852.93091 662.586302,852.93091 L662.586302,852.93091 Z M712.158568,890.825054 L691.75312,890.825054 C692.397752,890.825054 692.919526,890.294688 692.919526,889.640369 C692.919526,888.986801 692.397752,888.456435 691.75312,888.456435 L677.753284,888.456435 C677.107912,888.456435 676.586138,888.986801 676.586138,889.640369 C676.586138,890.294688 677.107912,890.825054 677.753284,890.825054 L657.347836,890.825054 C656.942258,890.825054 656.752791,890.493763 656.752791,890.270648 C656.752791,890.021992 656.853445,889.891279 656.927456,889.816156 L660.619102,886.087816 L708.887302,886.087816 L712.577468,889.815405 C712.652959,889.891279 712.752873,890.021992 712.752873,890.270648 C712.752873,890.493763 712.564146,890.825054 712.158568,890.825054 L712.158568,890.825054 Z" id="Fill-1-Copy-6" sketch:type="MSShapeGroup"></path>
        </g>
    </g>
</svg>