<?xml version="1.0" encoding="UTF-8" standalone="no"?>
<svg width="41px" height="41px" viewBox="0 0 41 41" version="1.1" xmlns="http://www.w3.org/2000/svg" xmlns:xlink="http://www.w3.org/1999/xlink" xmlns:sketch="http://www.bohemiancoding.com/sketch/ns">
    <!-- Generator: Sketch 3.3.2 (12043) - http://www.bohemiancoding.com/sketch -->
    <title>Fill 13 Copy 4</title>
    <desc>Created with Sketch.</desc>
    <defs></defs>
    <g id="V14" stroke="none" stroke-width="1" fill="none" fill-rule="evenodd" sketch:type="MSPage">
        <g id="Artboard-68" sketch:type="MSArtboardGroup" transform="translate(-662.000000, -1092.000000)" fill="#FFFFFF">
            <path d="M685.448291,1107.07985 C685.847976,1107.47575 686.444357,1107.59839 686.971501,1107.39501 C687.497071,1107.19319 687.852697,1106.70259 687.8763,1106.14524 L688.412886,1093.57449 C688.430195,1093.18171 688.279133,1092.79979 687.997465,1092.52189 C687.71737,1092.24554 687.361745,1092.09805 686.930588,1092.11202 L674.186293,1092.63832 C673.622957,1092.66161 673.12571,1093.01093 672.919573,1093.53102 C672.71501,1094.04956 672.840895,1094.63952 673.24058,1095.03386 L676.557654,1098.30812 L663.30667,1111.38033 C662.749628,1111.92837 662.749628,1112.81641 663.30667,1113.366 L666.867646,1116.8809 C667.135152,1117.14483 667.495498,1117.29232 667.874727,1117.29232 C668.252382,1117.29232 668.614302,1117.14483 668.880234,1116.8809 L682.129644,1103.80559 L685.448291,1107.07985 Z M702.471108,1110.85558 L698.910132,1107.34068 C698.642626,1107.07675 698.28228,1106.92926 697.903051,1106.92926 C697.525396,1106.92926 697.163476,1107.07675 696.897543,1107.34068 L683.648134,1120.41444 L680.33106,1117.14173 C679.931375,1116.74894 679.336568,1116.62474 678.80785,1116.82657 C678.28228,1117.02839 677.926654,1117.51899 677.903051,1118.07479 L677.366466,1130.64709 C677.349156,1131.03987 677.498645,1131.42179 677.781887,1131.69969 C678.047819,1131.96362 678.411312,1132.11111 678.787394,1132.11111 C678.80785,1132.11111 678.826733,1132.10956 678.847189,1132.10956 L691.591485,1131.58325 C692.154821,1131.55997 692.652067,1131.21065 692.858204,1130.69056 C693.062768,1130.17202 692.936883,1129.58206 692.537197,1129.18772 L689.221698,1125.91501 L702.471108,1112.84125 C703.028149,1112.29321 703.028149,1111.40362 702.471108,1110.85558 Z" id="Fill-13-Copy-4" sketch:type="MSShapeGroup"></path>
        </g>
    </g>
</svg>