<?xml version="1.0" encoding="UTF-8" standalone="no"?>
<svg width="63px" height="33px" viewBox="0 0 63 33" version="1.1" xmlns="http://www.w3.org/2000/svg" xmlns:xlink="http://www.w3.org/1999/xlink" xmlns:sketch="http://www.bohemiancoding.com/sketch/ns">
    <!-- Generator: Sketch 3.3.2 (12043) - http://www.bohemiancoding.com/sketch -->
    <title>Fill 2 Copy 3</title>
    <desc>Created with Sketch.</desc>
    <defs></defs>
    <g id="V14" stroke="none" stroke-width="1" fill="none" fill-rule="evenodd" sketch:type="MSPage">
        <g id="Artboard-68" sketch:type="MSArtboardGroup" transform="translate(-653.000000, -267.000000)" fill="#FFFFFF">
            <path d="M693.040618,267.333333 L656.203074,267.333333 C654.436673,267.333333 653,268.799485 653,270.600886 L653,291.024207 C653,292.825607 654.436673,294.291759 656.203074,294.291759 L673.020309,294.291759 L673.020309,296.742982 L665.812844,296.742982 C665.429987,296.742982 665.095877,297.041353 665.01591,297.406774 C665.00386,297.463766 665.012076,298.315296 665.012076,298.376758 C665.012076,298.433192 665.017553,298.488508 665.02796,298.541589 C665.102998,298.913714 665.425606,299.193647 665.812844,299.193647 L684.231617,299.193647 C684.617212,299.193647 684.938725,298.917626 685.015406,298.546618 C685.02636,298.491302 685.032385,298.434868 685.032385,298.376758 C685.032385,298.306356 685.023622,297.420742 685.00719,297.355369 C684.918459,297.0028 684.605162,296.742982 684.231617,296.742982 L676.223383,296.742982 L676.223383,294.291759 L693.040618,294.291759 C694.80702,294.291759 696.243693,292.825607 696.243693,291.024207 L696.243693,270.600886 C696.243693,268.799485 694.80702,267.333333 693.040618,267.333333 L693.040618,267.333333 Z M693.841387,290.207318 C693.841387,291.108577 693.122777,291.841095 692.23985,291.841095 L657.003843,291.841095 C656.120916,291.841095 655.402306,291.108577 655.402306,290.207318 L655.402306,271.417774 C655.402306,270.516515 656.120916,269.783998 657.003843,269.783998 L692.23985,269.783998 C693.122777,269.783998 693.841387,270.516515 693.841387,271.417774 L693.841387,290.207318 Z M712.796926,267.47302 L702.565492,267.47302 C700.798543,267.47302 699.36187,268.939172 699.36187,270.740573 L699.36187,296.065222 C699.36187,297.866622 700.798543,299.333333 702.565492,299.333333 L712.796926,299.333333 C714.563327,299.333333 716,297.866622 716,296.065222 L716,270.740573 C716,268.939172 714.563327,267.47302 712.796926,267.47302 Z M711.934265,293.945336 L703.427605,293.945336 C702.897411,293.945336 702.46745,293.50672 702.46745,292.965852 C702.46745,292.424427 702.897411,291.986369 703.427605,291.986369 L711.934265,291.986369 C712.465007,291.986369 712.894968,292.424427 712.894968,292.965852 C712.894968,293.50672 712.465007,293.945336 711.934265,293.945336 L711.934265,293.945336 Z M711.934265,275.706157 L703.427605,275.706157 C702.897411,275.706157 702.46745,275.267541 702.46745,274.726674 C702.46745,274.185807 702.897411,273.74719 703.427605,273.74719 L711.934265,273.74719 C712.465007,273.74719 712.894968,274.185807 712.894968,274.726674 C712.894968,275.267541 712.465007,275.706157 711.934265,275.706157 L711.934265,275.706157 Z M711.934265,272.509566 L703.427605,272.509566 C702.897411,272.509566 702.46745,272.070949 702.46745,271.529523 C702.46745,270.988656 702.897411,270.55004 703.427605,270.55004 L711.934265,270.55004 C712.465007,270.55004 712.894968,270.988656 712.894968,271.529523 C712.894968,272.070949 712.465007,272.509566 711.934265,272.509566 L711.934265,272.509566 Z" id="Fill-2-Copy-3" sketch:type="MSShapeGroup"></path>
        </g>
    </g>
</svg>