<?xml version="1.0" encoding="UTF-8" standalone="no"?>
<svg width="40px" height="55px" viewBox="0 0 40 55" version="1.1" xmlns="http://www.w3.org/2000/svg" xmlns:xlink="http://www.w3.org/1999/xlink" xmlns:sketch="http://www.bohemiancoding.com/sketch/ns">
    <!-- Generator: Sketch 3.3.2 (12043) - http://www.bohemiancoding.com/sketch -->
    <title>Fill 5 Copy 3</title>
    <desc>Created with Sketch.</desc>
    <defs></defs>
    <g id="V14" stroke="none" stroke-width="1" fill="none" fill-rule="evenodd" sketch:type="MSPage">
        <g id="Artboard-68" sketch:type="MSArtboardGroup" transform="translate(-665.000000, -611.000000)" fill="#FFFFFF">
            <path d="M699.749191,611.641012 L669.872071,611.641012 C667.356571,611.641012 665.310631,613.742547 665.310631,616.324616 L665.310631,660.957408 C665.310631,663.539477 667.356571,665.641012 669.872071,665.641012 L699.749191,665.641012 C702.264691,665.641012 704.310631,663.539477 704.310631,660.957408 L704.310631,616.324616 C704.310631,613.742547 702.264691,611.641012 699.749191,611.641012 L699.749191,611.641012 Z M684.810631,613.415784 C685.223251,613.415784 685.557871,613.759366 685.557871,614.183837 C685.557871,614.607508 685.223251,614.95109 684.810631,614.95109 C684.398011,614.95109 684.063391,614.607508 684.063391,614.183837 C684.063391,613.759366 684.398011,613.415784 684.810631,613.415784 L684.810631,613.415784 Z M684.810631,663.771735 C683.814571,663.771735 683.006491,662.942814 683.006491,661.920078 C683.006491,660.897341 683.814571,660.067619 684.810631,660.067619 C685.806691,660.067619 686.613991,660.897341 686.613991,661.920078 C686.613991,662.942814 685.806691,663.771735 684.810631,663.771735 L684.810631,663.771735 Z M700.889551,656.337875 C700.889551,657.629711 699.865411,658.679677 698.608051,658.679677 L671.012431,658.679677 C669.755071,658.679677 668.731711,657.629711 668.731711,656.337875 L668.731711,619.259077 C668.731711,617.96644 669.755071,616.917275 671.012431,616.917275 L698.608051,616.917275 C699.865411,616.917275 700.889551,617.96644 700.889551,619.259077 L700.889551,656.337875 L700.889551,656.337875 Z" id="Fill-5-Copy-3" sketch:type="MSShapeGroup"></path>
        </g>
    </g>
</svg>