<?xml version="1.0" encoding="UTF-8" standalone="no"?>
<svg width="31px" height="55px" viewBox="0 0 31 55" version="1.1" xmlns="http://www.w3.org/2000/svg" xmlns:xlink="http://www.w3.org/1999/xlink" xmlns:sketch="http://www.bohemiancoding.com/sketch/ns">
    <!-- Generator: Sketch 3.3.2 (12043) - http://www.bohemiancoding.com/sketch -->
    <title>Fill 4 Copy 6</title>
    <desc>Created with Sketch.</desc>
    <defs></defs>
    <g id="V14" stroke="none" stroke-width="1" fill="none" fill-rule="evenodd" sketch:type="MSPage">
        <g id="Artboard-68" sketch:type="MSArtboardGroup" transform="translate(-668.000000, -723.000000)" fill="#FFFFFF">
            <path d="M693.142087,723.576942 L674.474688,723.576942 C671.34989,723.576942 668.808387,726.192176 668.808387,729.405406 L668.808387,771.748478 C668.808387,774.961708 671.34989,777.576942 674.474688,777.576942 L693.142087,777.576942 C696.266885,777.576942 698.808387,774.961708 698.808387,771.748478 L698.808387,729.405406 C698.808387,726.192176 696.266885,723.576942 693.142087,723.576942 L693.142087,723.576942 Z M683.808387,775.296585 C682.23969,775.296585 680.967486,773.987972 680.967486,772.37438 C680.967486,770.760789 682.23969,769.452175 683.808387,769.452175 C685.377084,769.452175 686.64832,770.760789 686.64832,772.37438 C686.64832,773.987972 685.377084,775.296585 683.808387,775.296585 L683.808387,775.296585 Z M694.558662,764.378182 C694.558662,765.985794 693.287426,767.292414 691.725512,767.292414 L675.891263,767.292414 C674.329349,767.292414 673.058113,765.985794 673.058113,764.378182 L673.058113,730.862522 C673.058113,729.25491 674.329349,727.94829 675.891263,727.94829 L691.725512,727.94829 C693.287426,727.94829 694.558662,729.25491 694.558662,730.862522 L694.558662,764.378182 L694.558662,764.378182 Z" id="Fill-4-Copy-6" sketch:type="MSShapeGroup"></path>
        </g>
    </g>
</svg>