<?xml version="1.0" encoding="UTF-8" standalone="no"?>
<svg width="27px" height="19px" viewBox="0 0 27 19" version="1.1" xmlns="http://www.w3.org/2000/svg" xmlns:xlink="http://www.w3.org/1999/xlink" xmlns:sketch="http://www.bohemiancoding.com/sketch/ns">
    <!-- Generator: Sketch 3.4.2 (15855) - http://www.bohemiancoding.com/sketch -->
    <title>Imported Layers Copy 8</title>
    <desc>Created with Sketch.</desc>
    <defs></defs>
    <g id="Desktop-Main-Screens" stroke="none" stroke-width="1" fill="none" fill-rule="evenodd" sketch:type="MSPage">
        <g id="D_Icons" sketch:type="MSArtboardGroup" transform="translate(-948.000000, -432.000000)" fill="#FF9951">
            <path d="M969.518132,448.105495 C968.474286,448.105495 967.625824,447.288458 967.625824,446.282532 C967.613516,438.85068 961.323516,432.792162 953.604286,432.779569 C952.561209,432.779569 951.714286,431.964014 951.714286,430.96031 C951.714286,429.956606 952.561209,429.138829 953.604286,429.138829 C963.418132,429.141791 971.405824,436.832162 971.408901,446.282532 C971.408901,447.288458 970.55967,448.105495 969.518132,448.105495 L969.518132,448.105495 Z M963.138132,448.105495 C962.095824,448.105495 961.245824,447.288458 961.245824,446.282532 C961.241978,442.232162 957.812747,438.93068 953.604286,438.922532 C952.561209,438.922532 951.714286,438.106977 951.714286,437.103273 C951.714286,436.098829 952.561209,435.282532 953.604286,435.282532 C959.901209,435.284754 965.025824,440.219569 965.02967,446.282532 C965.02967,447.288458 964.182747,448.105495 963.138132,448.105495 L963.138132,448.105495 Z M954.927363,448.105495 C953.154286,448.105495 951.714286,446.717347 951.714286,445.00994 C951.714286,443.302532 953.154286,441.913643 954.927363,441.913643 C956.70044,441.913643 958.144286,443.302532 958.144286,445.00994 C958.144286,446.717347 956.70044,448.105495 954.927363,448.105495 L954.927363,448.105495 Z" id="Imported-Layers-Copy-8" sketch:type="MSShapeGroup" transform="translate(961.561593, 438.622162) rotate(-45.000000) translate(-961.561593, -438.622162) "></path>
        </g>
    </g>
</svg>