<?xml version="1.0" encoding="UTF-8" standalone="no"?>
<svg width="27px" height="20px" viewBox="0 0 27 20" version="1.1" xmlns="http://www.w3.org/2000/svg" xmlns:xlink="http://www.w3.org/1999/xlink" xmlns:sketch="http://www.bohemiancoding.com/sketch/ns">
    <!-- Generator: Sketch 3.4.2 (15855) - http://www.bohemiancoding.com/sketch -->
    <title>Imported Layers Copy 7</title>
    <desc>Created with Sketch.</desc>
    <defs></defs>
    <g id="Desktop-Main-Screens" stroke="none" stroke-width="1" fill="none" fill-rule="evenodd" sketch:type="MSPage">
        <g id="D_Icons" sketch:type="MSArtboardGroup" transform="translate(-948.000000, -392.000000)" fill="#90D963">
            <path d="M969.518132,408.105495 C968.474286,408.105495 967.625824,407.288458 967.625824,406.282532 C967.613516,398.85068 961.323516,392.792162 953.604286,392.779569 C952.561209,392.779569 951.714286,391.964014 951.714286,390.96031 C951.714286,389.956606 952.561209,389.138829 953.604286,389.138829 C963.418132,389.141791 971.405824,396.832162 971.408901,406.282532 C971.408901,407.288458 970.55967,408.105495 969.518132,408.105495 L969.518132,408.105495 Z M963.138132,408.105495 C962.095824,408.105495 961.245824,407.288458 961.245824,406.282532 C961.241978,402.232162 957.812747,398.93068 953.604286,398.922532 C952.561209,398.922532 951.714286,398.106977 951.714286,397.103273 C951.714286,396.098829 952.561209,395.282532 953.604286,395.282532 C959.901209,395.284754 965.025824,400.219569 965.02967,406.282532 C965.02967,407.288458 964.182747,408.105495 963.138132,408.105495 L963.138132,408.105495 Z M954.927363,408.105495 C953.154286,408.105495 951.714286,406.717347 951.714286,405.00994 C951.714286,403.302532 953.154286,401.913643 954.927363,401.913643 C956.70044,401.913643 958.144286,403.302532 958.144286,405.00994 C958.144286,406.717347 956.70044,408.105495 954.927363,408.105495 L954.927363,408.105495 Z" id="Imported-Layers-Copy-7" sketch:type="MSShapeGroup" transform="translate(961.714286, 399.138829) rotate(-45.000000) translate(-961.714286, -399.138829) "></path>
        </g>
    </g>
</svg>