<?xml version="1.0" encoding="UTF-8" standalone="no"?>
<svg width="27px" height="20px" viewBox="0 0 27 20" version="1.1" xmlns="http://www.w3.org/2000/svg" xmlns:xlink="http://www.w3.org/1999/xlink" xmlns:sketch="http://www.bohemiancoding.com/sketch/ns">
    <!-- Generator: Sketch 3.4.2 (15855) - http://www.bohemiancoding.com/sketch -->
    <title>Imported Layers Copy 9</title>
    <desc>Created with Sketch.</desc>
    <defs></defs>
    <g id="Desktop-Main-Screens" stroke="none" stroke-width="1" fill="none" fill-rule="evenodd" sketch:type="MSPage">
        <g id="D_Icons" sketch:type="MSArtboardGroup" transform="translate(-948.000000, -472.000000)" fill="#FF7D75">
            <path d="M969.518132,488.105495 C968.474286,488.105495 967.625824,487.288458 967.625824,486.282532 C967.613516,478.85068 961.323516,472.792162 953.604286,472.779569 C952.561209,472.779569 951.714286,471.964014 951.714286,470.96031 C951.714286,469.956606 952.561209,469.138829 953.604286,469.138829 C963.418132,469.141791 971.405824,476.832162 971.408901,486.282532 C971.408901,487.288458 970.55967,488.105495 969.518132,488.105495 L969.518132,488.105495 Z M963.138132,488.105495 C962.095824,488.105495 961.245824,487.288458 961.245824,486.282532 C961.241978,482.232162 957.812747,478.93068 953.604286,478.922532 C952.561209,478.922532 951.714286,478.106977 951.714286,477.103273 C951.714286,476.098829 952.561209,475.282532 953.604286,475.282532 C959.901209,475.284754 965.025824,480.219569 965.02967,486.282532 C965.02967,487.288458 964.182747,488.105495 963.138132,488.105495 L963.138132,488.105495 Z M954.927363,488.105495 C953.154286,488.105495 951.714286,486.717347 951.714286,485.00994 C951.714286,483.302532 953.154286,481.913643 954.927363,481.913643 C956.70044,481.913643 958.144286,483.302532 958.144286,485.00994 C958.144286,486.717347 956.70044,488.105495 954.927363,488.105495 L954.927363,488.105495 Z" id="Imported-Layers-Copy-9" sketch:type="MSShapeGroup" transform="translate(961.714286, 479.138829) rotate(-45.000000) translate(-961.714286, -479.138829) "></path>
        </g>
    </g>
</svg>