<?xml version="1.0" encoding="UTF-8" standalone="no"?>
<svg width="27px" height="20px" viewBox="0 0 27 20" version="1.1" xmlns="http://www.w3.org/2000/svg" xmlns:xlink="http://www.w3.org/1999/xlink" xmlns:sketch="http://www.bohemiancoding.com/sketch/ns">
    <!-- Generator: Sketch 3.4.2 (15855) - http://www.bohemiancoding.com/sketch -->
    <title>Imported Layers Copy 10</title>
    <desc>Created with Sketch.</desc>
    <defs></defs>
    <g id="Desktop-Main-Screens" stroke="none" stroke-width="1" fill="none" fill-rule="evenodd" sketch:type="MSPage">
        <g id="D_Icons" sketch:type="MSArtboardGroup" transform="translate(-988.000000, -472.000000)" fill="#D6D6D3">
            <path d="M1009.51813,488.105495 C1008.47429,488.105495 1007.62582,487.288458 1007.62582,486.282532 C1007.61352,478.85068 1001.32352,472.792162 993.604286,472.779569 C992.561209,472.779569 991.714286,471.964014 991.714286,470.96031 C991.714286,469.956606 992.561209,469.138829 993.604286,469.138829 C1003.41813,469.141791 1011.40582,476.832162 1011.4089,486.282532 C1011.4089,487.288458 1010.55967,488.105495 1009.51813,488.105495 L1009.51813,488.105495 Z M1003.13813,488.105495 C1002.09582,488.105495 1001.24582,487.288458 1001.24582,486.282532 C1001.24198,482.232162 997.812747,478.93068 993.604286,478.922532 C992.561209,478.922532 991.714286,478.106977 991.714286,477.103273 C991.714286,476.098829 992.561209,475.282532 993.604286,475.282532 C999.901209,475.284754 1005.02582,480.219569 1005.02967,486.282532 C1005.02967,487.288458 1004.18275,488.105495 1003.13813,488.105495 L1003.13813,488.105495 Z M994.927363,488.105495 C993.154286,488.105495 991.714286,486.717347 991.714286,485.00994 C991.714286,483.302532 993.154286,481.913643 994.927363,481.913643 C996.70044,481.913643 998.144286,483.302532 998.144286,485.00994 C998.144286,486.717347 996.70044,488.105495 994.927363,488.105495 L994.927363,488.105495 Z" id="Imported-Layers-Copy-10" sketch:type="MSShapeGroup" transform="translate(1001.714286, 479.138829) rotate(-45.000000) translate(-1001.714286, -479.138829) "></path>
        </g>
    </g>
</svg>