<?xml version="1.0" encoding="UTF-8" standalone="no"?>
<svg width="21px" height="21px" viewBox="0 0 21 21" version="1.1" xmlns="http://www.w3.org/2000/svg" xmlns:xlink="http://www.w3.org/1999/xlink" xmlns:sketch="http://www.bohemiancoding.com/sketch/ns">
    <!-- Generator: Sketch 3.3.2 (12043) - http://www.bohemiancoding.com/sketch -->
    <title>Shape Copy 3</title>
    <desc>Created with Sketch.</desc>
    <defs></defs>
    <g id="V14" stroke="none" stroke-width="1" fill="none" fill-rule="evenodd" sketch:type="MSPage">
        <g id="Artboard-68" sketch:type="MSArtboardGroup" transform="translate(-950.000000, -515.000000)" fill="#D6D6D3">
            <path d="M960.240005,528.93367 L954.408999,534.752785 C953.44967,535.710158 951.900731,535.703675 950.949349,534.738304 C949.997966,533.772934 950.004409,532.214242 950.963739,531.256869 L956.765845,525.466595 L950.963739,519.676321 C950.004409,518.718947 949.997966,517.160256 950.949349,516.194885 C951.900731,515.229515 953.44967,515.223032 954.408999,516.180405 L960.240005,521.99952 L966.071011,516.180405 C967.030341,515.223032 968.579279,515.229515 969.530662,516.194885 C970.482044,517.160256 970.475602,518.718947 969.516272,519.676321 L963.714166,525.466595 L969.516272,531.256869 C970.475602,532.214242 970.482044,533.772934 969.530662,534.738304 C968.579279,535.703675 967.030341,535.710158 966.071011,534.752785 L960.240005,528.93367 Z" id="Shape-Copy-3" sketch:type="MSShapeGroup"></path>
        </g>
    </g>
</svg>