<?xml version="1.0" encoding="UTF-8" standalone="no"?>
<svg width="16px" height="14px" viewBox="0 0 16 14" version="1.1" xmlns="http://www.w3.org/2000/svg" xmlns:xlink="http://www.w3.org/1999/xlink">
    <!-- Generator: Sketch 40.3 (33839) - http://www.bohemiancoding.com/sketch -->
    <title>uE08F-powerform</title>
    <desc>Created with Sketch.</desc>
    <defs></defs>
    <g id="Symbols" stroke="none" stroke-width="1" fill="none" fill-rule="evenodd">
        <g id="Standard_Forms" transform="translate(0.000000, -1.000000)" fill="#777777">
            <g id="uE08F-powerform" transform="translate(0.000000, 1.000000)">
                <g id="Layer_1">
                    <path d="M14,0 L2,0 C0.9,0 0,0.9 0,2 L0,12 C0,13.1 0.9,14 2,14 L14,14 C15.1,14 16,13.1 16,12 L16,2 C16,0.9 15.1,0 14,0 L14,0 Z M6,1 C6.55,1 7,1.45 7,2 C7,2.55 6.55,3 6,3 C5.45,3 5,2.55 5,2 C5,1.45 5.45,1 6,1 L6,1 Z M3,1 C3.55,1 4,1.45 4,2 C4,2.55 3.55,3 3,3 C2.45,3 2,2.55 2,2 C2,1.45 2.45,1 3,1 L3,1 Z M14,12 L2,12 L2,4 L14,4 L14,12 L14,12 Z" id="Shape"></path>
                    <rect id="Rectangle-path" x="4" y="6" width="8" height="1"></rect>
                    <rect id="Rectangle-path" x="4" y="9" width="8" height="1"></rect>
                </g>
            </g>
        </g>
    </g>
</svg>