<svg xmlns="http://www.w3.org/2000/svg" width="121" height="32" viewBox="0 0 121 32">
  <g fill="none" fill-rule="evenodd" transform="translate(.59 .941)">
    <path fill="#2790C3" d="M115.438275 8.41143815L112.771066 25.3235666C112.719113 25.6509197 112.973013 25.9473747 113.305681 25.9473747L115.988811 25.9473747C116.432927 25.9473747 116.811682 25.6250321 116.880394 25.1874479L119.510733 8.57929011C119.562686 8.25193704 119.308786 7.95548209 118.97528 7.95548209L115.973728 7.95548209C115.70642 7.95548209 115.479335 8.14838658 115.438275 8.41143815M107.433296 19.9832022C107.132471 21.7552512 105.721356 22.9452464 103.920591 22.9452464 103.018115 22.9452464 102.29496 22.6554721 101.830733 22.1076568 101.369858 21.5648519 101.19724 20.7907287 101.343044 19.9297568 101.622921 18.1727393 103.057498 16.9451652 104.83061 16.9451652 105.714652 16.9451652 106.431941 17.2374448 106.905385 17.7902706 107.382181 18.3472719 107.569883 19.1255705 107.433296 19.9832022M111.770548 13.9463773L108.658386 13.9463773C108.391916 13.9463773 108.164831 14.1392818 108.122933 14.4023334L107.986346 15.2691509 107.768478 14.9551592C107.094763 13.9806158 105.592311 13.6540978 104.092372 13.6540978 100.654245 13.6540978 97.717215 16.2512101 97.1457301 19.893013 96.8482563 21.7101566 97.2705853 23.446297 98.3046211 24.6580044 99.2540234 25.7711719 100.608996 26.2346437 102.223734 26.2346437 104.995687 26.2346437 106.532495 24.4609245 106.532495 24.4609245L106.393395 25.3227316C106.341442 25.6500846 106.595342 25.9465396 106.928848 25.9465396L109.730967 25.9465396C110.175921 25.9465396 110.553839 25.6250321 110.623389 25.1874479L112.306001 14.5701853C112.357954 14.2428323 112.103216 13.9463773 111.770548 13.9463773M93.0950585 14.0206998C92.7397659 16.3455747 90.9582748 16.3455747 89.2346026 16.3455747L88.2541959 16.3455747 88.9421565 12.0048062C88.9832163 11.7425897 89.2103019 11.5496852 89.4767714 11.5496852L89.9267529 11.5496852C91.0998891 11.5496852 92.2076648 11.5496852 92.7791497 12.2152474 93.1210351 12.6135827 93.2241035 13.2048224 93.0950585 14.0206998M92.3450893 7.95464701L85.845915 7.95464701C85.4009612 7.95464701 85.0230437 8.27698957 84.9534935 8.71457378L82.3256685 25.3227316C82.2737153 25.6500846 82.5284535 25.9465396 82.8602834 25.9465396L86.195342 25.9465396C86.506223 25.9465396 86.7710166 25.7210668 86.819618 25.4154259L87.5653974 20.7063852C87.6341097 20.268801 88.0128651 19.9464584 88.4569809 19.9464584L90.513321 19.9464584C94.7944301 19.9464584 97.2655576 17.8821299 97.9107825 13.7893814 98.2015527 12.0006307 97.9225139 10.5943487 97.0820456 9.60978421 96.1577819 8.52751488 94.519581 7.95464701 92.3450893 7.95464701"/>
    <path fill="#27346A" d="M81.9904868 13.9463773L78.862403 13.9463773C78.5632532 13.9463773 78.2833765 14.0941872 78.1157856 14.3413722L73.8003204 20.674652 71.9719039 14.5885572C71.8571041 14.2077587 71.5051633 13.9463773 71.106297 13.9463773L68.0318423 13.9463773C67.6606285 13.9463773 67.3991867 14.3104741 67.5190142 14.6603744L70.9630068 24.7365023 67.723475 29.2918875C67.4695749 29.6493036 67.7259889 30.1436736 68.165915 30.1436736L71.290647 30.1436736C71.5864449 30.1436736 71.8638078 29.999204 72.0330746 29.7570295L82.4354405 14.7939879C82.684313 14.4357367 82.427899 13.9463773 81.9904868 13.9463773M61.0776587 19.9832022C60.776833 21.7552512 59.3657178 22.9452464 57.5649538 22.9452464 56.6624769 22.9452464 55.9393222 22.6554721 55.4750955 22.1076568 55.0150585 21.5648519 54.841602 20.7907287 54.987406 19.9297568 55.2672828 18.1727393 56.7018608 16.9451652 58.4749723 16.9451652 59.3590142 16.9451652 60.0763031 17.2374448 60.5497474 17.7902706 61.0265434 18.3472719 61.2142452 19.1255705 61.0776587 19.9832022M65.4149107 13.9463773L62.302748 13.9463773C62.0362785 13.9463773 61.8091929 14.1392818 61.7672951 14.4023334L61.6307086 15.2691509 61.4136784 14.9551592C60.7391251 13.9806158 59.2366728 13.6540978 57.7367344 13.6540978 54.2986075 13.6540978 51.3615773 16.2512101 50.7900924 19.893013 50.4926186 21.7101566 50.9149476 23.446297 51.9489834 24.6580044 52.8983857 25.7711719 54.253358 26.2346437 55.8680961 26.2346437 58.6400493 26.2346437 60.1768577 24.4609245 60.1768577 24.4609245L60.0377572 25.3227316C59.9858041 25.6500846 60.2397043 25.9465396 60.5732101 25.9465396L63.3753296 25.9465396C63.8202834 25.9465396 64.1982009 25.6250321 64.2677511 25.1874479L65.9503635 14.5701853C66.0023167 14.2428323 65.7475786 13.9463773 65.4149107 13.9463773M46.7394208 14.0206998C46.3841282 16.3455747 44.6026371 16.3455747 42.8789649 16.3455747L41.8985582 16.3455747 42.5865188 12.0048062C42.6275786 11.7425897 42.8546642 11.5496852 43.1211337 11.5496852L43.5711152 11.5496852C44.7442514 11.5496852 45.8520271 11.5496852 46.423512 12.2152474 46.7653974 12.6135827 46.8684658 13.2048224 46.7394208 14.0206998M45.9894516 7.95464701L39.4902773 7.95464701C39.0453235 7.95464701 38.667406 8.27698957 38.5978558 8.71457378L35.9700308 25.3227316C35.9180776 25.6500846 36.1719778 25.9465396 36.5046457 25.9465396L39.6084288 25.9465396C40.0525447 25.9465396 40.4304621 25.624197 40.5000123 25.1874479L41.2097597 20.7063852C41.278472 20.268801 41.6572274 19.9464584 42.1013432 19.9464584L44.1576833 19.9464584C48.4387924 19.9464584 50.9099199 17.8821299 51.5551448 13.7893814 51.845915 12.0006307 51.5668762 10.5943487 50.7264079 9.60978421 49.8021442 8.52751488 48.1639433 7.95464701 45.9894516 7.95464701M21.9641912 2.28580626C20.5594908.685909584 18.0202893 0 14.7720245 0L5.34442071 0C4.67983128 0 4.1150981.482987677 4.01104622 1.13787201L.0856051245 26.01593C.00756621443 26.5064644.387691228 26.9508801.885294171 26.9508801L6.70548644 26.9508801 8.16724753 17.6860696 8.12193461 17.9761976C8.22598649 17.3213133 8.78652404 16.8383256 9.45027434 16.8383256L12.2160404 16.8383256C17.6493947 16.8383256 21.903774 14.6330173 23.1465226 8.25355505 23.1834443 8.06488799 23.2153311 7.88125205 23.2430224 7.70180871 23.0861054 7.6187952 23.0861054 7.6187952 23.2430224 7.70180871 23.6130778 5.3438897 23.240505 3.7389619 21.9641912 2.28580626"/>
    <path fill="#2790C3" d="M23.2188786,7.62478869 L23.2188786,7.62478869 C23.1903882,7.80433182 23.1593839,7.98638021 23.1225139,8.1742742 C21.8815034,14.5267609 17.6330746,16.7238679 12.2073198,16.7238679 L9.4445841,16.7238679 C8.78176217,16.7238679 8.22200863,17.2048765 8.11894023,17.8570774 L6.30309304,29.3294663 C6.23521873,29.7570295 6.56704868,30.1445087 7.00110906,30.1445087 L11.9006285,30.1445087 C12.4804929,30.1445087 12.9740481,29.7236262 13.0645471,29.1532635 L13.1123105,28.9044084 L14.0357363,23.0721792 L14.0952311,22.7498366 C14.1857301,22.179474 14.6792853,21.7585915 15.2591497,21.7585915 L15.9923598,21.7585915 C20.7385336,21.7585915 24.4548614,19.8370624 25.5408503,14.279576 C25.9941836,11.9572064 25.7595564,10.0181405 24.5604436,8.65611787 C24.1967714,8.2435862 23.745114,7.90287178 23.2188786,7.62478869"/>
    <path fill="#1F264F" d="M21.9200493,7.10870655 C21.7306716,7.05359098 21.5354282,7.00348592 21.3343192,6.95922645 C21.1332101,6.91496698 20.9253974,6.87571801 20.712557,6.84147955 C19.9667776,6.72122741 19.1522859,6.66444167 18.2774615,6.66444167 L10.897597,6.66444167 C10.7157609,6.66444167 10.5431423,6.7053608 10.3889587,6.77968331 C10.0479113,6.94252476 9.795687,7.26319716 9.73367837,7.65652189 L8.16502773,17.5681382 L8.11977819,17.8570774 C8.22284658,17.2048765 8.78260012,16.7238679 9.44542206,16.7238679 L12.2081577,16.7238679 C17.6339125,16.7238679 21.8823413,14.527596 23.1233518,8.1742742 C23.1602218,7.98638021 23.1912261,7.80433182 23.2197166,7.62478869 C22.9054837,7.45944198 22.5652742,7.31664256 22.1990881,7.19555532 C22.1077511,7.16549229 22.0147381,7.13626433 21.9200493,7.10870655"/>
  </g>
</svg>
