<svg xmlns="http://www.w3.org/2000/svg" width="90" height="86" viewBox="0 0 90 86">
  <g fill="none" fill-rule="evenodd" transform="translate(-.327 .563)">
    <g transform="translate(0 61.043)">
      <path fill="#2790C3" d="M85.7065751.933665052L82.8488513 18.9732688C82.7931872 19.3224454 83.0652231 19.638664 83.421653 19.638664L86.2964352 19.638664C86.7722736 19.638664 87.1780829 19.2948319 87.2517032 18.8280754L90.0699234 1.11270714C90.1255875.763530532 89.8535516.44731192 89.4962239.44731192L86.2802746.44731192C85.9938738.44731192 85.7505677.653076707 85.7065751.933665052M77.1298125 13.27688C76.8074993 15.1670656 75.2955902 16.4363938 73.3662002 16.4363938 72.3992606 16.4363938 71.6244521 16.1273013 71.1270663 15.5429649 70.6332717 14.9639731 70.4483232 14.1382417 70.6045419 13.2198716 70.9044098 11.3457196 72.4414576 10.0363073 74.34122 10.0363073 75.2884077 10.0363073 76.0569316 10.3480721 76.5641933 10.937753 77.0750462 11.5318877 77.2761553 12.3620729 77.1298125 13.27688M81.7768682 6.83760015L78.4424082 6.83760015C78.1569052 6.83760015 77.9135992 7.04336493 77.8687087 7.32395328L77.722366 8.24855868 77.4889358 7.91363418C76.767098 6.87412117 75.1573277 6.52583532 73.5502509 6.52583532 69.8665434 6.52583532 66.7197254 9.29608851 66.1074201 13.1806783 65.7886982 15.1189647 66.2411936 16.9708478 67.349089 18.2633357 68.3663058 19.4507143 69.8180618 19.9450843 71.5481384 19.9450843 74.5180882 19.9450843 76.1646686 18.0531172 76.1646686 18.0531172L76.0156324 18.972378C75.9599683 19.3215546 76.2320042 19.6377732 76.5893319 19.6377732L79.5916029 19.6377732C80.0683391 19.6377732 80.4732506 19.2948319 80.5477687 18.8280754L82.3505677 7.50299537C82.4062318 7.15381876 82.1332981 6.83760015 81.7768682 6.83760015M61.7674148 6.91687749C61.3867441 9.39674401 59.4780037 9.39674401 57.631212 9.39674401L56.5807763 9.39674401 57.3178769 4.76659093C57.3618696 4.48689334 57.6051756 4.28112855 57.8906786 4.28112855L58.3728017 4.28112855C59.6297333 4.28112855 60.8166359 4.28112855 61.4289411 4.9910616 61.7952469 5.41595253 61.9056773 6.04660824 61.7674148 6.91687749M60.9638764.446421163L54.0004753.446421163C53.5237391.446421163 53.1188276.790253231 53.0443095 1.25700972L50.2287827 18.972378C50.1731186 19.3215546 50.4460523 19.6377732 50.8015844 19.6377732L54.3748614 19.6377732C54.7079482 19.6377732 54.9916557 19.3972689 55.0437285 19.071252L55.8427779 14.0482752C55.9163982 13.5815188 56.3222076 13.2376867 56.7980459 13.2376867L59.0012675 13.2376867C63.5881701 13.2376867 66.2358067 11.0357362 66.9271191 6.6701379 67.2386586 4.76213715 66.9396884 3.26210294 66.0391867 2.21190085 65.0489041 1.05748023 63.2936889.446421163 60.9638764.446421163"/>
      <path fill="#27346A" d="M49.8696594 6.83760015L46.518141 6.83760015C46.1976234 6.83760015 45.8977555 6.99526407 45.7181938 7.25892804L41.0944811 14.0144265 39.1354634 7.52259201C39.0124637 7.11640698 38.6353842 6.83760015 38.2080275 6.83760015L34.9139688 6.83760015C34.5162398 6.83760015 34.2361236 7.22597005 34.3645102 7.59919708L38.0545022 18.3470669 34.5835754 23.2061444C34.3115395 23.5873882 34.5862688 24.1147162 35.0576182 24.1147162L38.4055453 24.1147162C38.7224716 24.1147162 39.0196462 23.9606153 39.2010034 23.7022958L50.3463956 7.74171815C50.6130446 7.35958354 50.3383153 6.83760015 49.8696594 6.83760015M27.4630578 13.27688C27.1407447 15.1670656 25.6288355 16.4363938 23.6994455 16.4363938 22.7325059 16.4363938 21.9576974 16.1273013 21.4603116 15.5429649 20.9674148 14.9639731 20.7815685 14.1382417 20.9377872 13.2198716 21.2376551 11.3457196 22.7747029 10.0363073 24.6744653 10.0363073 25.621653 10.0363073 26.3901769 10.3480721 26.8974386 10.937753 27.4082915 11.5318877 27.6094006 12.3620729 27.4630578 13.27688M32.1101135 6.83760015L28.7756536 6.83760015C28.4901505 6.83760015 28.2468445 7.04336493 28.2019541 7.32395328L28.0556113 8.24855868 27.823079 7.91363418C27.1003433 6.87412117 25.490573 6.52583532 23.8834962 6.52583532 20.1997888 6.52583532 17.0529707 9.29608851 16.4406654 13.1806783 16.1219435 15.1189647 16.5744389 16.9708478 17.6823343 18.2633357 18.6995511 19.4507143 20.1513071 19.9450843 21.8813837 19.9450843 24.8513335 19.9450843 26.4979139 18.0531172 26.4979139 18.0531172L26.3488777 18.972378C26.2932136 19.3215546 26.5652495 19.6377732 26.9225772 19.6377732L29.9248482 19.6377732C30.4015844 19.6377732 30.8064959 19.2948319 30.881014 18.8280754L32.683813 7.50299537C32.7394772 7.15381876 32.4665434 6.83760015 32.1101135 6.83760015M12.1006602 6.91687749C11.7199894 9.39674401 9.81124901 9.39674401 7.96445735 9.39674401L6.91402165 9.39674401 7.65112226 4.76659093C7.69511487 4.48689334 7.93842091 4.28112855 8.22392395 4.28112855L8.706047 4.28112855C9.96297861 4.28112855 11.1498812 4.28112855 11.7621864 4.9910616 12.1284922 5.41595253 12.2389226 6.04660824 12.1006602 6.91687749M11.2971217.446421163L4.33372062.446421163C3.85698442.446421163 3.45207288.790253231 3.37755479 1.25700972L.56202799 18.972378C.506363876 19.3215546.778399789 19.6377732 1.13482968 19.6377732L4.46031159 19.6377732C4.93614999 19.6377732 5.34106153 19.2939412 5.41557961 18.8280754L6.17602324 14.0482752C6.24964352 13.5815188 6.65545287 13.2376867 7.13129126 13.2376867L9.33451281 13.2376867C13.9214154 13.2376867 16.569052 11.0357362 17.2603644 6.6701379 17.5719039 4.76213715 17.2729337 3.26210294 16.372432 2.21190085 15.3821495 1.05748023 13.6269342.446421163 11.2971217.446421163"/>
    </g>
    <g transform="translate(23.379)">
      <path fill="#27346A" d="M40.7906408,4.22874159 C38.1819115,1.26893273 33.4662515,0 27.4337598,0 L9.92535275,0 C8.69111524,0 7.64232504,0.893527203 7.44908583,2.10506322 L0.158980946,48.1294705 C0.0140515411,49.0369591 0.719997995,49.8591282 1.64411775,49.8591282 L12.4530462,49.8591282 L15.1677454,32.7192288 L15.0835928,33.2559656 C15.2768321,32.0444296 16.3178304,31.1509024 17.5505095,31.1509024 L22.6869323,31.1509024 C32.7774472,31.1509024 40.6784374,27.071082 42.9863992,15.2690768 C43.0549679,14.9200428 43.1141864,14.5803163 43.1656129,14.2483461 C42.8741958,14.0947711 42.8741958,14.0947711 43.1656129,14.2483461 C43.8528588,9.88619595 43.1609378,6.91707951 40.7906408,4.22874159"/>
      <path fill="#2790C3" d="M43.1207746,14.1058591 L43.1207746,14.1058591 C43.0678637,14.4380139 43.0102843,14.7748034 42.9418115,15.1224073 C40.6370777,26.8745077 32.7471385,30.9391556 22.6707367,30.9391556 L17.5399419,30.9391556 C16.3089869,30.9391556 15.2694446,31.8290215 15.0780319,33.0355931 L11.7057442,54.2595127 C11.5796919,55.0505046 12.1959475,55.767341 13.0020597,55.767341 L22.1011672,55.767341 C23.1780583,55.767341 24.0946607,54.9887084 24.2627304,53.9335375 L24.3514339,53.4731555 L26.0663674,42.6835315 L26.1768577,42.0871978 C26.3449274,41.032027 27.2615298,40.2533943 28.3384209,40.2533943 L29.7000968,40.2533943 C38.5144195,40.2533943 45.4161711,36.6985654 47.4330077,26.4172155 C48.2749124,22.1208318 47.8391761,18.5335599 45.6122524,16.0138181 C44.9368612,15.2506345 44.0980688,14.6203128 43.1207746,14.1058591"/>
      <path fill="#1F264F" d="M40.708663,13.1511071 C40.3569615,13.0491433 39.9943667,12.956449 39.6208784,12.8745689 C39.2473902,12.7926889 38.8614523,12.7200783 38.4661773,12.6567372 C37.0811583,12.4342707 35.5685309,12.3292171 33.9438571,12.3292171 L20.2383945,12.3292171 C19.9006989,12.3292171 19.5801215,12.4049175 19.2937805,12.5424141 C18.6604067,12.8436708 18.1919901,13.4369147 18.0768313,14.1645655 L15.1636229,32.5010556 L15.0795881,33.0355931 C15.2710008,31.8290215 16.3105431,30.9391556 17.5414981,30.9391556 L22.6722929,30.9391556 C32.7486947,30.9391556 40.6386339,26.8760526 42.9433677,15.1224073 C43.0118405,14.7748034 43.0694199,14.4380139 43.1223308,14.1058591 C42.5387554,13.7999677 41.9069378,13.5357887 41.2268779,13.3117773 C41.057252,13.2561607 40.8845137,13.202089 40.708663,13.1511071"/>
    </g>
  </g>
</svg>
