<?xml version="1.0" encoding="UTF-8" standalone="no"?>
<svg width="191px" height="170px" viewBox="0 0 191 170" version="1.1" xmlns="http://www.w3.org/2000/svg" xmlns:xlink="http://www.w3.org/1999/xlink">
    <!-- Generator: Sketch 42 (36781) - http://www.bohemiancoding.com/sketch -->
    <title>Group 31</title>
    <desc>Created with Sketch.</desc>
    <defs>
        <path d="M19,151 L19,61.7876535 C19,60.2507272 20.2587537,59 21.8055431,59 L170.194457,59 C171.741246,59 173,60.2507272 173,61.7876535 L173,151 L19,151 Z" id="path-1"></path>
        <mask id="mask-2" maskContentUnits="userSpaceOnUse" maskUnits="objectBoundingBox" x="0" y="0" width="154" height="92" fill="white">
            <use xlink:href="#path-1"></use>
        </mask>
        <polygon id="path-3" points="32 150 159 150 159 0 32 0"></polygon>
        <mask id="mask-4" maskContentUnits="userSpaceOnUse" maskUnits="objectBoundingBox" x="0" y="0" width="127" height="150" fill="white">
            <use xlink:href="#path-3"></use>
        </mask>
        <path d="M35.5622934,30 L35.554983,30 L35.554983,30 L17.5330571,29.9474532 C16.1331184,29.9438293 14.9963536,28.9273203 15.0000088,27.6806926 L15.0347331,14.2540769 C15.0365607,13.0110731 16.1751531,12 17.5714366,12 L17.5769194,12 L35.6006729,12.0525468 C36.2586075,12.0543588 36.8836454,12.2808536 37.3569928,12.6867324 L44.230582,19.3873566 C44.724033,19.809543 44.9981724,20.3875579 45,21.0072478 C45,21.6269378 44.724033,22.2031407 44.2250992,22.632575 L37.333234,29.3567546 C36.8507487,29.7753171 36.2238832,30 35.5622934,30 Z" id="path-5"></path>
        <mask id="mask-6" maskContentUnits="userSpaceOnUse" maskUnits="objectBoundingBox" x="0" y="0" width="30" height="18" fill="white">
            <use xlink:href="#path-5"></use>
        </mask>
        <path d="M24.1226638,24 C21.4212137,24 19.0319726,26.0802508 18.2262114,29.1347962 L18,30 L35.300498,30 L35.0724171,29.1347962 C34.2685254,26.0802508 31.8792843,24 29.1759647,24 L24.1226638,24 Z" id="path-7"></path>
        <mask id="mask-8" maskContentUnits="userSpaceOnUse" maskUnits="objectBoundingBox" x="0" y="0" width="17.300498" height="6" fill="white">
            <use xlink:href="#path-7"></use>
        </mask>
        <path d="M35.5623018,137 L35.5548705,137 L35.5548705,137 L17.532211,136.946582 C16.8596821,136.946582 16.2243095,136.710806 15.7468512,136.288989 C15.2638194,135.859804 14.9981519,135.288784 15.0000097,134.680925 L15.0334503,121.254605 C15.037166,120.009415 16.1741485,119 17.5712251,119 L17.5767985,119 L35.6013159,119.051576 C36.2589823,119.053418 36.883208,119.278142 37.3569507,119.685223 L44.2327226,126.38641 C44.7231856,126.808228 44.9981422,127.386615 45,128.007368 C45,128.626279 44.7250434,129.202824 44.2252913,129.633852 L37.3346569,136.357143 C36.8497673,136.775276 36.2236838,137 35.5623018,137 Z" id="path-9"></path>
        <mask id="mask-10" maskContentUnits="userSpaceOnUse" maskUnits="objectBoundingBox" x="0" y="0" width="30" height="18" fill="white">
            <use xlink:href="#path-9"></use>
        </mask>
        <path d="M19,137 L35.4700012,137 L35.2493863,135.686862 C34.4821522,132.883559 32.2398967,131 29.6706842,131 L24.7310343,131 C22.1618218,131 19.921424,132.883559 19.1541899,135.686862 L19,137 Z" id="path-11"></path>
        <mask id="mask-12" maskContentUnits="userSpaceOnUse" maskUnits="objectBoundingBox" x="0" y="0" width="16.4700012" height="6" fill="white">
            <use xlink:href="#path-11"></use>
        </mask>
        <path d="M153.665733,77.3566054 L146.775336,70.6329431 C146.276225,70.2021321 146,69.6245819 146,69.0056438 C146.001905,68.3867057 146.276225,67.8072742 146.767716,67.3858696 L153.642873,60.6847826 C154.117219,60.2784281 154.740155,60.0526756 155.399286,60.0526756 L173.422521,60 L173.428236,60 C174.824603,60 175.96189,61.0083612 175.9657,62.2537625 L175.99999,75.6785117 C176.0038,76.9257943 174.866514,77.9435619 173.466336,77.9454431 L155.445006,78 L155.445006,78 L155.439291,78 C154.77635,78 154.149604,77.7742475 153.665733,77.3566054 Z" id="path-13"></path>
        <mask id="mask-14" maskContentUnits="userSpaceOnUse" maskUnits="objectBoundingBox" x="0" y="0" width="30" height="18" fill="white">
            <use xlink:href="#path-13"></use>
        </mask>
        <path d="M163.494856,72 C160.427325,72 158.131314,73.9547914 157,77.511871 L172.92,77.511871 C171.788686,73.9547914 169.492675,72 166.425144,72 L163.494856,72 Z" id="path-15"></path>
        <mask id="mask-16" maskContentUnits="userSpaceOnUse" maskUnits="objectBoundingBox" x="0" y="0" width="15.9200001" height="5.51187097" fill="white">
            <use xlink:href="#path-15"></use>
        </mask>
    </defs>
    <g id="Version-4" stroke="none" stroke-width="1" fill="none" fill-rule="evenodd">
        <g id="Group-31">
            <path d="M7,159 L184,159 L184,50.6780043 C184,48.0957459 181.905181,46 179.319887,46 L11.680113,46 C9.09481856,46 7,48.0957459 7,50.6780043 L7,159 Z" id="Fill-1" fill="#E8E8E8"></path>
            <use id="Fill-5" stroke="#777777" mask="url(#mask-2)" stroke-width="2" fill="#F5F5F5" xlink:href="#path-1"></use>
            <path d="M188.251664,169.06399 L2.74833594,169.06399 C1.23020752,169.06399 0,167.772628 0,166.179032 L0,161.884958 C0,160.291362 1.23020752,159 2.74833594,159 L188.251664,159 C189.769792,159 191,160.291362 191,161.884958 L191,166.179032 C191,167.772628 189.769792,169.06399 188.251664,169.06399" id="Fill-9" fill="#F5F5F5"></path>
            <path d="M107.872642,162 L84.1273585,162 C82.9404481,162 81.8685142,161.220118 81.3962264,160.015023 L81,159 L111,159 L110.603774,160.015023 C110.131486,161.220118 109.059552,162 107.872642,162" id="Fill-13" fill="#777777"></path>
            <polygon id="Fill-16" fill="#E3E3E3" style="mix-blend-mode: multiply;" opacity="0.9" points="26 150 32 150 32 46 26 46"></polygon>
            <use id="Fill-18" stroke="#EEEEEE" mask="url(#mask-4)" stroke-width="2" fill="#FFFFFF" xlink:href="#path-3"></use>
            <polygon id="Fill-21" fill="#BFBEBD" points="48 135.661 114 135.661 114 135 48 135"></polygon>
            <polygon id="Fill-28" fill="#BFBEBD" points="90 28 143 28 143 22 90 22"></polygon>
            <polygon id="Fill-28-Copy" fill="#BFBEBD" points="48 40 143 40 143 34 48 34"></polygon>
            <polygon id="Fill-28-Copy-2" fill="#BFBEBD" points="48 52 143 52 143 46 48 46"></polygon>
            <polygon id="Fill-28-Copy-3" fill="#BFBEBD" points="48 64 143 64 143 58 48 58"></polygon>
            <polygon id="Fill-28-Copy-4" fill="#BFBEBD" points="48 76 101 76 101 70 48 70"></polygon>
            <polygon id="Fill-28-Copy-5" fill="#BFBEBD" points="48 88 143 88 143 82 48 82"></polygon>
            <polygon id="Fill-28-Copy-6" fill="#BFBEBD" points="48 100 143 100 143 94 48 94"></polygon>
            <polygon id="Fill-29" fill="#BFBEBD" points="48 28 88 28 88 27 48 27"></polygon>
            <polygon id="Fill-29-Copy" fill="#BFBEBD" points="103 76 143 76 143 75 103 75"></polygon>
            <use id="Stroke-32" stroke="#FCA192" mask="url(#mask-6)" fill="#FFDDD7" xlink:href="#path-5"></use>
            <path d="M36.6998033,21.7002581 C36.4717224,18.747871 34.7293338,17.9209032 34.3629087,14.3641935 C33.5608865,6.60341935 30.0686312,5 27.3241822,5 C24.5816027,5 21.1678671,6.60341935 20.3677144,14.3641935 C19.9994198,17.9209032 18.2570312,18.747871 18.0289503,21.7002581 C17.4699651,28.9652258 25.1910648,28.1270323 25.1910648,28.1270323 L25.1424574,27.9960645 C24.6956432,26.7892903 24.4899964,25.5058065 24.5348648,24.2204516 L30.1938887,24.2204516 L30.1957583,24.2223226 C30.2387571,25.5095484 30.0331104,26.7911613 29.5862962,27.9979355 L29.5395583,28.1270323 C29.5395583,28.1270323 37.2587885,28.9652258 36.6998033,21.7002581" id="Fill-34" fill="#FCA192"></path>
            <use id="Fill-36" stroke="#FCA192" mask="url(#mask-8)" fill="#FEFEFE" xlink:href="#path-7"></use>
            <path d="M27.0119806,27.3359355 C24.8003436,27.3359355 23,25.8391613 23,24 L23.3963373,24 C23.3963373,25.622129 25.0172074,26.9411613 27.0119806,26.9411613 C29.0067538,26.9411613 30.6276239,25.622129 30.6276239,24 L31.0239613,24 C31.0239613,25.8391613 29.2236177,27.3359355 27.0119806,27.3359355" id="Fill-40" fill="#FCA192"></path>
            <path d="M27.6543305,28.3274194 C27.6543305,28.5089032 27.5085083,28.6548387 27.3271652,28.6548387 C27.1458222,28.6548387 27,28.5089032 27,28.3274194 C27,28.1459355 27.1458222,28 27.3271652,28 C27.5085083,28 27.6543305,28.1459355 27.6543305,28.3274194" id="Fill-42" fill="#FCA192"></path>
            <path d="M27.6543305,29.3274194 C27.6543305,29.5089032 27.5085083,29.6548387 27.3271652,29.6548387 C27.1458222,29.6548387 27,29.5089032 27,29.3274194 C27,29.1459355 27.1458222,29 27.3271652,29 C27.5085083,29 27.6543305,29.1459355 27.6543305,29.3274194" id="Fill-44" fill="#FCA192"></path>
            <path d="M27.8936285,29.8232903 L27.4991607,29.8232903 L27.4991607,27.8943226 C27.4991607,27.6192903 27.2748188,27.3947742 27,27.3947742 L27,27 C27.4935521,27 27.8936285,27.4003871 27.8936285,27.8943226 L27.8936285,29.8232903 Z" id="Fill-46" fill="#FCA192"></path>
            <path d="M33.0916063,15 L33.3047311,15 C34.2264023,15 34.9742085,15.6997419 34.9742085,16.564129 L34.9742085,17.1590968 C34.9742085,18.0234839 34.2264023,18.7232258 33.3047311,18.7232258 L33,18.7232258 C33.0803892,18.2068387 33.123388,17.6717419 33.123388,17.1254194 C33.123388,16.390129 33.1570393,15.7390323 33.0916063,15" id="Fill-48" fill="#FEFEFE"></path>
            <path d="M33.4580313,18.7232258 L33.532812,18.7232258 C34.3441818,18.7232258 35.0041208,18.1114194 35.0041208,17.3574194 L35.0041208,16.7605806 C35.0041208,16.0084516 34.3460513,15.3966452 33.5346815,15.3947742 C33.5645937,15.871871 33.5589852,16.3134194 33.5552462,16.7774194 C33.5533766,16.9551613 33.5496376,17.1366452 33.5496376,17.3237419 C33.5496376,17.7896129 33.5197254,18.2592258 33.4580313,18.7232258 M33.532812,19.118 L33,19.118 L33.0355208,18.8916129 C33.1140405,18.3733548 33.1551698,17.8457419 33.1551698,17.3237419 C33.1551698,17.1347742 33.1570393,16.9514194 33.1589088,16.7718065 C33.1663869,16.2498065 33.1719954,15.755871 33.123388,15.2151613 L33.1046929,15 L33.532812,15 C34.5629151,15 35.4004581,15.7895484 35.4004581,16.7605806 L35.4004581,17.3574194 C35.4004581,18.3284516 34.5629151,19.118 33.532812,19.118" id="Fill-50" fill="#FCA192"></path>
            <path d="M20.8826023,15 L20.6694775,15 C19.7478063,15 19,15.6997419 19,16.564129 L19,17.1590968 C19,18.0234839 19.7478063,18.7232258 20.6694775,18.7232258 L20.9742085,18.7232258 C20.8938194,18.2068387 20.8508205,17.6717419 20.8508205,17.1254194 C20.8508205,16.390129 20.8171692,15.7390323 20.8826023,15" id="Fill-52" fill="#FEFEFE"></path>
            <path d="M20.8657766,15.3947742 C20.0544068,15.3947742 19.3944678,16.0084516 19.3944678,16.7605806 L19.3944678,17.3574194 C19.3944678,18.1095484 20.0544068,18.7232258 20.8657766,18.7232258 L20.9424268,18.7232258 C20.8807328,18.2592258 20.8508205,17.7877419 20.8508205,17.321871 C20.8508205,17.1347742 20.8470815,16.9514194 20.845212,16.7736774 C20.8396034,16.3096774 20.8339949,15.87 20.8657766,15.3947742 L20.8657766,15.3947742 Z M21.4004581,19.118 L20.8657766,19.118 C19.837543,19.118 19,18.3284516 19,17.3574194 L19,16.7605806 C19,15.7895484 19.837543,15 20.8657766,15 L21.2938957,15 L21.2752006,15.2151613 C21.2284627,15.754 21.2340712,16.2460645 21.2415493,16.7680645 C21.2434188,16.9495484 21.2452883,17.1329032 21.2452883,17.321871 C21.2452883,17.8457419 21.2864177,18.3714839 21.3649373,18.8897419 L21.4004581,19.118 Z" id="Fill-54" fill="#FCA192"></path>
            <path d="M33.3406729,17.0966452 C33.3406729,22.1201935 30.5775288,26.1932903 27.1694017,26.1932903 C23.7612746,26.1932903 21,22.1201935 21,17.0966452 C21,12.0730968 23.7612746,8 27.1694017,8 C30.5775288,8 33.3406729,12.0730968 33.3406729,17.0966452" id="Fill-56" stroke="#FCA192" stroke-width="0.5" fill="#FEFEFE"></path>
            <path d="M27.2722851,7 C19.8428298,7 21.0767102,18.1621935 21.0767102,18.1621935 C23.914635,17.5017419 26.1019683,11.7279355 29.7905227,10.9271613 C30.5757193,14.1227742 33.1743461,15.3014839 33.1743461,15.3014839 C33.6903324,10.2667097 29.6596566,7 27.2722851,7" id="Fill-60" fill="#FCA192"></path>
            <path d="M24.5159863,17.9645161 L24.5159863,17.9645161 C24.2318199,17.9645161 24,17.7343871 24,17.448129 L24,16.5145161 C24,16.230129 24.2318199,16 24.5159863,16 L24.5159863,16 C24.8001527,16 25.0319726,16.230129 25.0319726,16.5145161 L25.0319726,17.448129 C25.0319726,17.7343871 24.8001527,17.9645161 24.5159863,17.9645161" id="Fill-62" fill="#FCA192"></path>
            <path d="M29.5159863,17.9645161 L29.5159863,17.9645161 C29.2318199,17.9645161 29,17.7343871 29,17.448129 L29,16.5145161 C29,16.230129 29.2318199,16 29.5159863,16 C29.8001527,16 30.0319726,16.230129 30.0319726,16.5145161 L30.0319726,17.448129 C30.0319726,17.7343871 29.8001527,17.9645161 29.5159863,17.9645161" id="Fill-64" fill="#FCA192"></path>
            <path d="M33.435788,18.7184516 C33.435788,19.1150968 33.1142313,19.4369032 32.717894,19.4369032 C32.3215567,19.4369032 32,19.1150968 32,18.7184516 C32,18.3218065 32.3215567,18 32.717894,18 C33.1142313,18 33.435788,18.3218065 33.435788,18.7184516" id="Fill-66" fill="#FCA192"></path>
            <path d="M21.435788,18.7184516 C21.435788,19.1150968 21.1142313,19.4369032 20.717894,19.4369032 C20.3215567,19.4369032 20,19.1150968 20,18.7184516 C20,18.3218065 20.3215567,18 20.717894,18 C21.1142313,18 21.435788,18.3218065 21.435788,18.7184516" id="Fill-70" fill="#FCA192"></path>
            <path d="M27.5,19.5631864 C27.2188498,19.5631864 27,19.3627642 27,19.1062238 C27,19.0481013 27.0367412,19 27.0846645,19 C27.1309904,19 27.1677316,19.0481013 27.1677316,19.1062238 C27.1677316,19.2364982 27.3226837,19.3507389 27.5,19.3507389 C27.6773163,19.3507389 27.8322684,19.2364982 27.8322684,19.1062238 C27.8322684,19.0481013 27.8690096,19 27.9153355,19 C27.9632588,19 28,19.0481013 28,19.1062238 C28,19.3627642 27.7811502,19.5631864 27.5,19.5631864" id="Fill-74" fill="#FCA192"></path>
            <path d="M27.3156023,22.7572207 C26.9080479,22.7572207 26.1957624,22.6748982 26.0050718,22.1304465 C25.9882462,22.0780594 26.0144194,22.0219304 26.0667658,22.0050917 C26.1172428,21.988253 26.1733282,22.0144465 26.1920234,22.0649627 C26.3471932,22.512124 27.0295664,22.5588982 27.3156023,22.5588982 C27.6016382,22.5588982 28.2840114,22.512124 28.4391812,22.0649627 C28.4578764,22.0144465 28.5139618,21.988253 28.5644388,22.0050917 C28.6167852,22.0219304 28.6448279,22.0780594 28.6261328,22.1304465 C28.4354422,22.6748982 27.7231567,22.7572207 27.3156023,22.7572207" id="Fill-76" fill="#FCA192"></path>
            <path d="M25.954181,140 L13.2222315,139.947451 C11.9927555,139.945574 10.9961927,138.995934 11.0000109,137.82859 L11.0343752,124.10948 C11.0362843,122.942136 12.0366654,121.998126 13.2661414,122.000003 L26,122.052552 L25.954181,140 Z" id="Fill-78" fill="#E3E3E3" style="mix-blend-mode: multiply;" opacity="0.9"></path>
            <path d="M159.046597,64 L176.712834,64.0478623 C177.978729,64.0514077 179.003872,64.9483831 178.999989,66.0509893 L178.965041,79.0092712 C178.963099,80.1118774 177.934074,81.0035348 176.668178,80.9999895 L159,80.9521271 L159.046597,64 Z" id="Fill-80" fill="#E3E3E3" style="mix-blend-mode: multiply;" opacity="0.9"></path>
            <use id="Stroke-84" stroke="#FFC820" mask="url(#mask-10)" fill="#FFE490" xlink:href="#path-9"></use>
            <path d="M33.6736376,122.315548 C33.6736376,127.46071 30.6132405,131.631097 26.8368188,131.631097 C23.0603972,131.631097 20,127.46071 20,122.315548 C20,117.170387 23.0603972,113 26.8368188,113 C30.6132405,113 33.6736376,117.170387 33.6736376,122.315548" id="Fill-86" stroke="#FFC820" stroke-width="0.5" fill="#FFF0C3"></path>
            <use id="Fill-92" stroke="#FFC820" mask="url(#mask-12)" fill="#FFF1C4" xlink:href="#path-11"></use>
            <path d="M26.3221293,134.32471 C24.490004,134.32471 23,132.833548 23,131 L23.7777185,131 C23.7777185,132.405097 24.9181231,133.546387 26.3221293,133.546387 C27.7261356,133.546387 28.8665402,132.405097 28.8665402,131 L29.6442587,131 C29.6442587,132.833548 28.1542547,134.32471 26.3221293,134.32471" id="Fill-94" fill="#FFC820"></path>
            <path d="M23.5290729,122.93271 L23.4860741,122.93271 C23.2187333,122.93271 23,122.715677 23,122.446258 L23,121.484581 C23,121.217032 23.2187333,121 23.4860741,121 L23.5290729,121 C23.7964137,121 24.015147,121.217032 24.015147,121.484581 L24.015147,122.446258 C24.015147,122.715677 23.7964137,122.93271 23.5290729,122.93271" id="Fill-96" fill="#FFC820"></path>
            <path d="M29.5290729,122.93271 L29.4860741,122.93271 C29.2187333,122.93271 29,122.715677 29,122.446258 L29,121.484581 C29,121.217032 29.2187333,121 29.4860741,121 L29.5290729,121 C29.7964137,121 30.015147,121.217032 30.015147,121.484581 L30.015147,122.446258 C30.015147,122.715677 29.7964137,122.93271 29.5290729,122.93271" id="Fill-98" fill="#FFC820"></path>
            <path d="M32.2071313,128.624129 C32.5099928,128.150774 32.771725,127.636258 32.9867193,127.088065 C33.3512749,126.124516 33.6896572,124.738129 33.6167461,123 L33.6148766,123 L32.9325034,123 C32.9325034,123 32.652076,124.938323 32.0800042,125.913097 C31.934182,126.160065 31.5976692,126.264839 31.3060247,126.158194 C30.4460475,125.843871 28.4774475,125.153484 26.8135786,125.153484 C25.1478401,125.153484 23.1811096,125.843871 22.3211324,126.158194 C22.029488,126.264839 21.6929752,126.160065 21.547153,125.913097 C20.9732116,124.938323 20.6927843,123 20.6927843,123 L20.0104111,123 L20.0104111,123 C19.9356304,124.738129 20.2758823,126.126387 20.6404379,127.089935 C20.8535626,127.636258 21.1152948,128.150774 21.4181564,128.624129 C21.4200259,128.624129 21.4256344,128.614774 21.4368515,128.599806 C21.438721,128.622258 21.4443296,128.642839 21.4461991,128.66529 C22.6950356,130.590516 24.6337233,131.827226 26.8135786,131.827226 C28.9915644,131.827226 30.9321216,130.590516 32.1809581,128.66529 C32.1828276,128.642839 32.1865666,128.622258 32.1884361,128.599806 C32.1996532,128.614774 32.2071313,128.624129 32.2071313,128.624129" id="Fill-100" fill="#FFC820"></path>
            <path d="M28.333414,130.354645 L25.5328796,130.354645 C24.9178089,130.354645 24.3793884,129.941161 24.21861,129.348065 L24.0484841,128.72129 C23.8129251,127.853161 24.4653861,127 25.3627536,127 L28.50354,127 C29.4009075,127 30.0533684,127.853161 29.8178095,128.72129 L29.6476835,129.348065 C29.4869052,129.941161 28.9484847,130.354645 28.333414,130.354645" id="Fill-102" fill="#FFF0C3"></path>
            <path d="M20.2340712,125.052516 L19.7311715,125.052516 C18.775849,125.052516 18,124.274194 18,123.318129 L18,122.732516 C18,121.778323 18.775849,121 19.7311715,121 L20.1686382,121 L20.146204,121.215161 C20.0863795,121.768968 20.088249,122.341484 20.091988,122.945806 L20.091988,123.286323 C20.091988,123.798968 20.1293783,124.319097 20.2022895,124.829871 L20.2340712,125.052516 Z" id="Fill-104" fill="#FFF0C3"></path>
            <path d="M19.7311715,121.389161 C18.9908433,121.389161 18.3888593,121.991613 18.3888593,122.732516 L18.3888593,123.318129 C18.3888593,124.060903 18.9908433,124.663355 19.7311715,124.663355 L19.7891265,124.663355 C19.7311715,124.206839 19.7031288,123.74471 19.7031288,123.286323 L19.7031288,122.947677 C19.7012593,122.406968 19.6993897,121.894323 19.7405191,121.389161 L19.7311715,121.389161 Z M20.2340712,125.052516 L19.7311715,125.052516 C18.775849,125.052516 18,124.274194 18,123.318129 L18,122.732516 C18,121.778323 18.775849,121 19.7311715,121 L20.1686382,121 L20.146204,121.215161 C20.0863795,121.768968 20.088249,122.341484 20.091988,122.945806 L20.091988,123.286323 C20.091988,123.798968 20.1293783,124.319097 20.2022895,124.829871 L20.2340712,125.052516 Z" id="Fill-104" fill="#FFC820"></path>
            <path d="M33.5047692,125.052516 L33,125.052516 L33.0317818,124.829871 C33.1065624,124.319097 33.1439527,123.800839 33.1439527,123.286323 C33.1439527,123.101097 33.1458222,122.919613 33.1476917,122.741871 C33.1533003,122.229226 33.1589088,121.742774 33.1140405,121.211419 L33.0972148,121 L33.5047692,121 C34.4582222,121 35.2359407,121.778323 35.2359407,122.734387 L35.2359407,123.32 C35.2359407,124.274194 34.4582222,125.052516 33.5047692,125.052516" id="Path" fill="#FFF0C3"></path>
            <path d="M33.4468142,124.663355 L33.5047692,124.663355 C34.2450974,124.663355 34.8470815,124.060903 34.8470815,123.32 L34.8470815,122.734387 C34.8470815,121.997226 34.250706,121.396645 33.5178558,121.389161 C33.5458986,121.856903 33.54029,122.290968 33.536551,122.745613 C33.532812,122.923355 33.5309425,123.101097 33.5309425,123.286323 C33.5309425,123.74471 33.5028997,124.206839 33.4468142,124.663355 M33.5047692,125.052516 L33,125.052516 L33.0317818,124.829871 C33.1065624,124.319097 33.1439527,123.800839 33.1439527,123.286323 C33.1439527,123.101097 33.1458222,122.919613 33.1476917,122.741871 C33.1533003,122.229226 33.1589088,121.742774 33.1140405,121.211419 L33.0972148,121 L33.5047692,121 C34.4582222,121 35.2359407,121.778323 35.2359407,122.734387 L35.2359407,123.32 C35.2359407,124.274194 34.4582222,125.052516 33.5047692,125.052516" id="Fill-106" fill="#FFC820"></path>
            <path d="M26.6300292,112.584668 C23.0502458,112.899947 21.5937041,116.199371 21.1220364,117.655574 C21.0188505,117.683413 20.9307185,117.708301 20.858543,117.729277 C20.7127208,117.77231 20.5986803,117.895794 20.5594205,118.054826 L20.0153914,120.251342 C19.9331327,120.584374 20.1929954,120.894955 20.499596,120.8276 C21.6829994,120.565665 24.2909738,120.0736 27.1419852,120.0736 C29.9929966,120.0736 32.6009709,120.565665 33.7843743,120.8276 C34.0909749,120.894955 34.3527071,120.584374 34.2704484,120.251342 L33.7245498,118.054826 C33.68529,117.895794 33.5712496,117.77231 33.4254273,117.729277 C33.3626624,117.711036 33.2878307,117.689836 33.2015257,117.666311 C32.7509094,116.215423 31.3356017,112.899653 27.7507917,112.584515 C27.7511031,112.576813 27.7512603,112.56907 27.7512603,112.56129 C27.7512603,112.25071 27.5007452,112 27.1904056,112 C26.8819355,112 26.6295509,112.25071 26.6295509,112.56129 C26.6295509,112.569122 26.6297114,112.576915 26.6300292,112.584668 L26.6300292,112.584668 Z" id="Combined-Shape" fill="#FFC820"></path>
            <polygon id="Fill-112" fill="#FFC820" points="20 123.406 20.6879818 123.406 20.6879818 123 20 123"></polygon>
            <polygon id="Fill-114" fill="#FFC820" points="33 123.406 33.6879818 123.406 33.6879818 123 33 123"></polygon>
            <path d="M26.6934591,128.389131 C26.1905594,128.389131 26.0335201,128.175841 26.0166945,128.151518 C25.9867822,128.106615 25.9979993,128.046744 26.0428677,128.016809 C26.0877361,127.986873 26.1475606,127.998099 26.1774728,128.041131 C26.1812118,128.046744 26.3008608,128.194551 26.6934591,128.194551 C27.0897965,128.194551 27.2094455,128.043002 27.2094455,128.041131 C27.2412272,127.998099 27.3029212,127.988744 27.3440506,128.01868 C27.3870494,128.050486 27.4001361,128.108486 27.3702238,128.151518 C27.3533982,128.175841 27.1963588,128.389131 26.6934591,128.389131" id="Fill-115" fill="#FFC820"></path>
            <use id="Stroke-118" stroke="#55DCE1" mask="url(#mask-14)" fill="#AAF3F5" xlink:href="#path-13"></use>
            <use id="Fill-119" stroke="#55DCE1" mask="url(#mask-16)" fill="#C3FDFF" xlink:href="#path-15"></use>
            <g id="Group-4" transform="translate(160.000000, 72.000000)" fill="#55DCE1">
                <path d="M7.25416684,1.12768614 C6.78865744,1.70861376 6.00719989,2.58481191 4.72471214,2.99544396 L6.32314803,4.08863162 L7.63741755,1.54518495 L7.25416684,1.12768614 Z M4.01055715,2.88832255 L4.31341869,2.81278823 C5.77537994,2.44885013 6.61292296,1.38724955 7.07843236,0.795335121 L7.22986313,0.603065934 L8.06179761,1.50810446 L6.47831783,4.57479799 L4.01055715,2.88832255 Z" id="Fill-121"></path>
                <path d="M1.10738627,1.54518495 L2.42165578,4.08863162 L4.0219612,2.99544396 C2.74882103,2.58893196 1.97110251,1.72234727 1.4925065,1.12768614 L1.10738627,1.54518495 Z M0.683006211,1.50810446 L1.34668427,0.787095013 L1.53176632,0.622292853 L1.68319709,0.81456204 C2.13188085,1.38587619 2.96942387,2.44885013 4.43325464,2.81278823 L4.73611618,2.88832255 L2.2683555,4.57479799 L0.683006211,1.50810446 Z" id="Fill-123"></path>
            </g>
            <path d="M159,64.4820645 C159,59.2452258 161.465891,55 164.505724,55 C167.547426,55 170.013317,59.2452258 170.013317,64.4820645 C170.013317,69.2586452 167.958719,72.514129 165.29092,73.0510968 C165.249791,73.3766452 164.917017,73.6310968 164.505724,73.6310968 C164.0963,73.6310968 163.763526,73.3766452 163.720527,73.0510968 C161.052728,72.514129 159,69.2586452 159,64.4820645" id="Fill-124" fill="#C3FDFF"></path>
            <path d="M159.379512,64.6710323 C159.379512,69.1351613 161.215376,72.5029032 163.948608,73.0529677 L164.081344,73.0791613 L164.100039,73.2157419 C164.128081,73.4477419 164.391683,73.6292258 164.696414,73.6292258 C165.001145,73.6292258 165.264747,73.4477419 165.29279,73.2157419 L165.311485,73.0791613 L165.444221,73.0529677 C168.177452,72.5029032 170.013317,69.1351613 170.013317,64.6710323 C170.013317,59.5483226 167.627815,55.3798065 164.696414,55.3798065 C161.765014,55.3798065 159.379512,59.5483226 159.379512,64.6710323 M163.754178,73.3990968 C160.905036,72.7423871 159,69.2567742 159,64.6710323 C159,59.3387742 161.555628,55 164.696414,55 C167.837201,55 170.392828,59.3387742 170.392828,64.6710323 C170.392828,69.2567742 168.487792,72.7423871 165.63865,73.3990968 C165.52274,73.7564516 165.141359,74.0109032 164.696414,74.0109032 C164.25147,74.0109032 163.870088,73.7564516 163.754178,73.3990968" id="Fill-125" fill="#55DCE1"></path>
            <path d="M165.916063,62.3816774 C165.61881,62.3816774 165.377642,62.6249032 165.377642,62.9223871 L165.377642,64.376129 C165.377642,64.6736129 165.61881,64.9168387 165.916063,64.9168387 L169.298017,64.9168387 C169.59527,64.9168387 169.836437,64.6736129 169.836437,64.376129 L169.836437,62.9223871 C169.836437,62.6249032 169.59527,62.3816774 169.298017,62.3816774 L165.916063,62.3816774 Z M165,64.376129 L165,62.9223871 C165,62.4134839 165.411293,62 165.916063,62 L169.298017,62 C169.804655,62 170.215949,62.4134839 170.215949,62.9223871 L170.215949,64.376129 C170.215949,64.8831613 169.804655,65.2966452 169.298017,65.2966452 L165.916063,65.2966452 C165.411293,65.2966452 165,64.8831613 165,64.376129 L165,64.376129 Z" id="Fill-126" fill="#55DCE1"></path>
            <path d="M159.916063,62.3816774 C159.61881,62.3816774 159.377642,62.6249032 159.377642,62.9223871 L159.377642,64.376129 C159.377642,64.6736129 159.61881,64.9168387 159.916063,64.9168387 L163.299886,64.9168387 C163.59527,64.9168387 163.836437,64.6736129 163.836437,64.376129 L163.836437,62.9223871 C163.836437,62.6249032 163.59527,62.3816774 163.299886,62.3816774 L159.916063,62.3816774 Z M159,64.376129 L159,62.9223871 C159,62.4134839 159.411293,62 159.916063,62 L163.299886,62 C163.804655,62 164.215949,62.4134839 164.215949,62.9223871 L164.215949,64.376129 C164.215949,64.8831613 163.804655,65.2966452 163.299886,65.2966452 L159.916063,65.2966452 C159.411293,65.2966452 159,64.8831613 159,64.376129 L159,64.376129 Z" id="Fill-127" fill="#55DCE1"></path>
            <path d="M164,63.6454839 L164.379512,63.6454839 C164.379512,63.520129 164.566463,63.3816774 164.835674,63.3816774 C165.099275,63.3816774 165.293705,63.520129 165.293705,63.6454839 L165.673217,63.6454839 C165.673217,63.2843871 165.304922,63 164.835674,63 C164.368295,63 164,63.2843871 164,63.6454839" id="Fill-128" fill="#55DCE1"></path>
            <path d="M164.095345,73.1908387 L164.603854,73.1908387 C164.6562,73.1908387 164.697329,73.1478065 164.697329,73.0954194 C164.697329,73.0430323 164.6562,73 164.603854,73 L164.095345,73 C164.042999,73 164,73.0430323 164,73.0954194 C164,73.1478065 164.042999,73.1908387 164.095345,73.1908387" id="Fill-129" fill="#55DCE1"></path>
            <path d="M167.486074,64.8934194 L167.50103,64.8934194 C167.77024,64.8934194 167.988974,64.6745161 167.988974,64.4069677 L167.988974,63.4883226 C167.988974,63.2189032 167.77024,63 167.50103,63 L167.486074,63 C167.216864,63 167,63.2189032 167,63.4883226 L167,64.4069677 C167,64.6745161 167.216864,64.8934194 167.486074,64.8934194" id="Fill-130" fill="#55DCE1"></path>
            <path d="M161.486074,64.8934194 L161.50103,64.8934194 C161.77024,64.8934194 161.988974,64.6745161 161.988974,64.4069677 L161.988974,63.4883226 C161.988974,63.2189032 161.77024,63 161.50103,63 L161.486074,63 C161.216864,63 161,63.2189032 161,63.4883226 L161,64.4069677 C161,64.6745161 161.216864,64.8934194 161.486074,64.8934194" id="Fill-131" fill="#55DCE1"></path>
            <path d="M164.562724,68.5070323 C164.878672,68.5070323 165.125448,68.3255484 165.125448,68.0954194 C165.125448,68.0430323 165.08245,68 165.030103,68 C164.977757,68 164.934758,68.0430323 164.934758,68.0954194 C164.934758,68.2132903 164.760893,68.3161935 164.562724,68.3161935 C164.364556,68.3161935 164.190691,68.2132903 164.190691,68.0954194 C164.190691,68.0430323 164.147692,68 164.095345,68 C164.042999,68 164,68.0430323 164,68.0954194 C164,68.3255484 164.248646,68.5070323 164.562724,68.5070323" id="Fill-132" fill="#55DCE1"></path>
            <path d="M164.263272,71.7303071 C164.940036,71.7303071 165.384981,71.5151458 165.521456,71.1259845 C165.538281,71.0773394 165.512108,71.0230813 165.461631,71.0043716 C165.413024,70.9894039 165.358808,71.0137264 165.341982,71.0642426 C165.192421,71.4926942 164.538091,71.5394684 164.263272,71.5394684 C163.988453,71.5394684 163.334123,71.4926942 163.184561,71.0642426 C163.167736,71.0137264 163.11352,70.9894039 163.064912,71.0043716 C163.014435,71.0230813 162.988262,71.0773394 163.005088,71.1259845 C163.1883,71.6517264 163.872543,71.7303071 164.263272,71.7303071" id="Fill-133" fill="#55DCE1"></path>
            <path d="M164.347006,54 C165.068639,54 165.75849,54.1272258 166.403473,54.349871 C166.392256,54.3423871 166.379169,54.3349032 166.367952,54.3292903 C166.367952,54.3292903 168.787105,54.8494194 169.983595,54.0093548 C169.983595,54.0093548 170.049028,54.8325806 169.88825,55.3452258 C169.819078,55.567871 169.691951,55.7792903 169.568563,55.9495484 C170.215415,56.1983871 170.903397,56.3499355 171.436209,56.1834194 C171.436209,56.1834194 171.251127,57.0627742 170.946396,57.536129 C170.766923,57.8130323 170.493973,58.0338065 170.295805,58.1703871 C170.550059,58.8589032 170.694011,59.5998065 170.694011,60.378129 L170.694011,65.7683871 L169.847121,65.7683871 C169.85086,65.6355484 169.852729,65.5008387 169.852729,65.366129 C169.852729,60.1292903 167.609311,58.351871 167.609311,58.351871 C165.702405,59.4781935 163.485159,59.9777419 162.834568,60.0001935 C162.834568,60.0001935 162.976651,59.8991613 163.129951,59.743871 C161.135178,59.9852258 159.869516,59.9665161 159.288096,62.5596774 C159.288096,62.5596774 158.843152,65.6355484 158.846891,65.7683871 L158,65.7683871 L158,60.378129 C158,56.8550968 160.841664,54 164.347006,54" id="Fill-134" fill="#55DCE1"></path>
            <path d="M170.183213,64 C171.213316,64.1290968 171.957383,65.0608387 171.847081,66.1010968 C171.746128,67.0702581 170.942236,67.7849677 170,67.8111613 C170.143953,66.9617419 170.224342,66.0636774 170.224342,65.1356774 C170.224342,64.7502581 170.209386,64.3723226 170.183213,64" id="Fill-135" fill="#C3FDFF"></path>
            <path d="M169.639374,65.3527097 C169.639374,66.1834194 169.57768,67.0122581 169.452423,67.8149032 C170.205838,67.6914194 170.804083,67.075871 170.884472,66.2994194 C170.974209,65.45 170.417093,64.6660645 169.613201,64.4509032 C169.630027,64.7614839 169.639374,65.0570968 169.639374,65.3527097 L169.639374,65.3527097 Z M169.03926,67.9963871 C169.185082,67.1357419 169.259863,66.2470323 169.259863,65.3527097 C169.259863,64.9897419 169.246776,64.6230323 169.220603,64.230129 L169.205647,64 L169.433728,64.0280645 C170.561046,64.1702581 171.379893,65.2067742 171.262114,66.3387097 C171.153682,67.3827097 170.280618,68.1909677 169.23182,68.2190323 L169,68.2246452 L169.03926,67.9963871 Z" id="Fill-136" fill="#55DCE1"></path>
            <path d="M158.674707,64 C157.644604,64.1290968 156.900537,65.0608387 157.010838,66.1010968 C157.111792,67.0702581 157.915684,67.7849677 158.85792,67.8111613 C158.713967,66.9617419 158.633578,66.0636774 158.633578,65.1356774 C158.633578,64.7502581 158.648534,64.3723226 158.674707,64" id="Fill-137" fill="#C3FDFF"></path>
            <path d="M157.388889,66.2994194 C157.471148,67.075871 158.067523,67.6914194 158.820938,67.8149032 C158.69755,67.0122581 158.633987,66.1834194 158.633987,65.3527097 C158.633987,65.0570968 158.643334,64.7596129 158.66016,64.4509032 C157.856268,64.6660645 157.299153,65.45 157.388889,66.2994194 L157.388889,66.2994194 Z M159.043411,68.2190323 C157.994612,68.1909677 157.121549,67.3827097 157.011247,66.3387097 C156.893468,65.2067742 157.714185,64.1702581 158.841503,64.0280645 L159.069584,64 L159.054628,64.230129 C159.026585,64.6211613 159.013498,64.987871 159.013498,65.3527097 C159.013498,66.2470323 159.088279,67.1357419 159.234101,67.9963871 L159.273361,68.2246452 L159.043411,68.2190323 Z" id="Fill-138" fill="#55DCE1"></path>
        </g>
    </g>
</svg>