<?xml version="1.0" encoding="UTF-8" standalone="no"?>
<svg width="13px" height="16px" viewBox="0 0 13 16" version="1.1" xmlns="http://www.w3.org/2000/svg" xmlns:xlink="http://www.w3.org/1999/xlink">
    <!-- Generator: Sketch 40 (33762) - http://www.bohemiancoding.com/sketch -->
    <title>Group 3 Copy</title>
    <desc>Created with Sketch.</desc>
    <defs></defs>
    <g id="Sending" stroke="none" stroke-width="1" fill="none" fill-rule="evenodd">
        <g id="1.2-hover-docu" transform="translate(-284.000000, -327.000000)" fill="#999999">
            <g id="Group-3-Copy" transform="translate(284.000000, 327.000000)">
                <path d="M10.6760564,15.7541436 L2.03510248,15.7541436 C0.903066447,15.7541436 0.507936508,15.4919059 0.507936508,14.2269772 L0.507936508,3.80952381 L12.1954307,3.80952381 L12.1954307,14.2269772 C12.1954307,15.5031003 11.8080924,15.7541436 10.6760564,15.7541436 Z M5.84126984,5.58730159 L6.85714286,5.58730159 L6.85714286,14.4839158 L5.84126984,14.4839158 L5.84126984,5.58730159 Z M9.14285714,5.58730159 L10.1587302,5.58730159 L10.1587302,14.4686618 L9.14285714,14.4686618 L9.14285714,5.58730159 Z M2.53968254,5.58730159 L3.55555556,5.58730159 L3.55555556,14.4762883 L2.53968254,14.4762883 L2.53968254,5.58730159 Z" id="Combined-Shape"></path>
                <polygon id="Shape" points="9.3968409 0.755266984 8.37537299 0 4.31280711 0 3.3040607 0.755266984 0 0.755266984 0 2.79579088 12.6944599 2.79579088 12.6944599 0.755266984"></polygon>
            </g>
        </g>
    </g>
</svg>