<?xml version="1.0" encoding="UTF-8" standalone="no"?>
<svg width="82px" height="56px" viewBox="0 0 82 56" version="1.1" xmlns="http://www.w3.org/2000/svg" xmlns:xlink="http://www.w3.org/1999/xlink">
    <!-- Generator: Sketch 42 (36781) - http://www.bohemiancoding.com/sketch -->
    <title>Group 24</title>
    <desc>Created with Sketch.</desc>
    <defs></defs>
    <g id="Version-5" stroke="none" stroke-width="1" fill="none" fill-rule="evenodd">
        <g id="8-Homepage-Profile" transform="translate(-1299.000000, -414.000000)">
            <g id="Group-21" transform="translate(1280.000000, 60.000000)">
                <g id="Group-22" transform="translate(16.000000, 355.000000)">
                    <g id="Group-5-Copy-3">
                        <g id="Group-24" transform="translate(4.000000, 0.000000)">
                            <path d="M52.0295039,53.9999747 L5.12623052,53.8609501 C2.28818288,53.8526086 -0.00690981368,51.536458 1.56319977e-05,48.6864528 L0.105282406,5.14949536 C0.112207852,2.29809992 2.42253653,-0.00831892373 5.26335435,2.25548999e-05 L52.0572057,0.140437445 C53.3675,0.144608184 54.6279311,0.650657888 55.5794874,1.55570832 L78.3946756,23.2602357 C80.5304831,25.2913858 80.5360234,28.7030505 78.4057563,30.7411518 L55.5933383,52.5735819 C54.6334715,53.4925347 53.3564193,54.0041454 52.0295039,53.9999747" id="Fill-1" stroke="#B15300" stroke-width="2" fill="#CE660A"></path>
                            <polygon id="Rectangle-3" fill="#CCCCCC" style="mix-blend-mode: multiply;" opacity="0.5" points="29 2 52 2 36 52 13 52"></polygon>
                            <polygon id="Rectangle-3-Copy" fill="#CCCCCC" style="mix-blend-mode: multiply;" opacity="0.5" points="24 2 27 2 11 52 8 52"></polygon>
                        </g>
                    </g>
                </g>
            </g>
        </g>
    </g>
</svg>