<svg width="18" height="18" viewBox="0 0 18 18" fill="none" xmlns="http://www.w3.org/2000/svg">
<path fill-rule="evenodd" clip-rule="evenodd" d="M7.8332 1.09428C7.80719 1.0972 7.78253 1.10744 7.76208 1.12379C7.74164 1.14015 7.72624 1.16196 7.71768 1.1867C7.65153 1.36033 7.62089 1.54728 7.59002 1.73563C7.56339 1.89817 7.53658 2.06175 7.48663 2.21872C7.3634 2.54989 7.14776 2.86565 6.56244 3.10441C5.96941 3.35086 5.59203 3.28154 5.27626 3.12751C5.12891 3.05563 4.99329 2.96026 4.85767 2.8649C4.70268 2.75592 4.54769 2.64693 4.37517 2.57299C4.35277 2.56308 4.32813 2.55928 4.30378 2.56199C4.27943 2.5647 4.25623 2.57381 4.23654 2.5884C3.60701 3.0539 3.04912 3.60918 2.58069 4.23654C2.56611 4.25623 2.55699 4.27943 2.55429 4.30378C2.55158 4.32813 2.55538 4.35277 2.56529 4.37517C2.63923 4.54769 2.74821 4.70268 2.8572 4.85767C2.95256 4.99329 3.04793 5.12891 3.11981 5.27626C3.27384 5.59203 3.35086 5.96941 3.0967 6.55473C2.85795 7.14776 2.54219 7.36341 2.21102 7.47893C2.04774 7.53459 1.87911 7.56343 1.71114 7.59216C1.53049 7.62306 1.35061 7.65383 1.179 7.71768C1.1553 7.72565 1.1342 7.73988 1.11793 7.75886C1.10166 7.77784 1.09083 7.80087 1.08658 7.8255C0.97114 8.60425 0.97114 9.39575 1.08658 10.1745C1.09428 10.2284 1.13279 10.2669 1.179 10.29C1.35263 10.3562 1.53958 10.3868 1.72793 10.4177C1.89047 10.4443 2.05405 10.4711 2.21102 10.5211C2.54219 10.6443 2.85795 10.8599 3.0967 11.4453C3.34316 12.0383 3.27384 12.4157 3.11981 12.7314C3.04793 12.8788 2.95256 13.0144 2.8572 13.15C2.74821 13.305 2.63923 13.46 2.56529 13.6325C2.55538 13.6549 2.55158 13.6796 2.55429 13.7039C2.55699 13.7283 2.56611 13.7515 2.58069 13.7712C3.04279 14.4027 3.60501 14.9649 4.23654 15.427C4.27505 15.4578 4.32896 15.4655 4.37517 15.4424C4.54769 15.3685 4.70268 15.2595 4.85767 15.1505C4.99329 15.0551 5.12891 14.9598 5.27626 14.8879C5.59203 14.7339 5.96941 14.6568 6.55473 14.911C7.14776 15.1497 7.36341 15.4655 7.47893 15.7967C7.53459 15.96 7.56343 16.1286 7.59216 16.2966C7.62306 16.4772 7.65383 16.6571 7.71768 16.8287C7.73308 16.8749 7.77929 16.9057 7.8255 16.9134C8.60425 17.0289 9.39576 17.0289 10.1745 16.9134C10.1988 16.9119 10.2223 16.9039 10.2426 16.8904C10.2629 16.8769 10.2792 16.8583 10.29 16.8364C10.3559 16.6594 10.3865 16.4715 10.4173 16.2831C10.444 16.1189 10.4709 15.9545 10.5211 15.7967C10.6443 15.4655 10.8599 15.1497 11.4453 14.911C12.0383 14.6645 12.4157 14.7339 12.7314 14.8879C12.8788 14.9598 13.0144 15.0551 13.15 15.1505C13.305 15.2595 13.46 15.3685 13.6325 15.4424C13.6787 15.4655 13.7327 15.4578 13.7712 15.427C14.4012 14.9592 14.9592 14.4012 15.427 13.7712C15.443 13.7507 15.453 13.7261 15.4557 13.7002C15.4584 13.6743 15.4538 13.6482 15.4424 13.6248C15.3696 13.459 15.2629 13.3081 15.1556 13.1564C15.0585 13.0192 14.961 12.8814 14.8879 12.7314C14.7339 12.4157 14.6568 12.0383 14.911 11.4453C15.1497 10.8599 15.4655 10.6443 15.7967 10.5211C15.9543 10.4709 16.117 10.4441 16.2792 10.4173C16.4657 10.3866 16.6516 10.3559 16.8287 10.29C16.8502 10.2798 16.869 10.2648 16.8837 10.2461C16.8984 10.2274 16.9086 10.2055 16.9134 10.1822C17.0289 9.40346 17.0289 8.61195 16.9134 7.8332C16.9119 7.80888 16.9039 7.78539 16.8904 7.7651C16.8769 7.74482 16.8583 7.72846 16.8364 7.71768C16.6594 7.65183 16.4715 7.62117 16.2831 7.59044C16.1189 7.56366 15.9545 7.53684 15.7967 7.48663C15.4655 7.3634 15.1497 7.14776 14.911 6.56244C14.6645 5.96941 14.7339 5.59203 14.8879 5.27626C14.9598 5.12891 15.0551 4.99329 15.1505 4.85767C15.2595 4.70268 15.3685 4.54769 15.4424 4.37517C15.4523 4.35277 15.4561 4.32813 15.4534 4.30378C15.4507 4.27943 15.4416 4.25623 15.427 4.23654C14.9592 3.60645 14.4012 3.04854 13.7712 2.58069C13.7515 2.56611 13.7283 2.55699 13.7039 2.55429C13.6796 2.55158 13.6549 2.55538 13.6325 2.56529C13.46 2.63923 13.305 2.74821 13.15 2.8572C13.0144 2.95256 12.8788 3.04793 12.7314 3.11981C12.4157 3.27384 12.0383 3.35086 11.4453 3.0967C10.8599 2.85795 10.6443 2.54219 10.5211 2.21102C10.4709 2.05335 10.4441 1.89069 10.4173 1.72846C10.3866 1.54199 10.3559 1.35609 10.29 1.179C10.2821 1.1553 10.2678 1.1342 10.2488 1.11793C10.2299 1.10166 10.2068 1.09083 10.1822 1.08658C9.40346 0.97114 8.61195 0.97114 7.8332 1.08658V1.09428ZM9 12.5556C10.9637 12.5556 12.5556 10.9637 12.5556 9C12.5556 7.03632 10.9637 5.44444 9 5.44444C7.03632 5.44444 5.44444 7.03632 5.44444 9C5.44444 10.9637 7.03632 12.5556 9 12.5556Z" fill="white"/>
</svg>
