<svg width="124" height="29" viewBox="0 0 124 29" fill="none" xmlns="http://www.w3.org/2000/svg">
<path d="M41.3459 10.8789V12.2257H38.6522V20.4727H37.3074V12.2257H34.6138V10.8789H41.3459Z" fill="white"/>
<path d="M48.4782 15.8021V20.4727H47.1334V15.8021C47.1346 15.636 47.1028 15.4714 47.0399 15.3177C46.977 15.1639 46.8842 15.0242 46.767 14.9066C46.6497 14.789 46.5103 14.6957 46.3568 14.6324C46.2033 14.569 46.0387 14.5366 45.8726 14.5373H45.3686C45.034 14.5387 44.7136 14.6726 44.4774 14.9096C44.2413 15.1466 44.1086 15.4675 44.1085 15.8021V20.4727H42.7637V10.8789H44.1085V13.7683C44.5562 13.3943 45.1218 13.1906 45.7053 13.1932H45.8733C46.2158 13.1928 46.555 13.2601 46.8715 13.3911C47.188 13.5221 47.4755 13.7144 47.7175 13.9568C47.9595 14.1992 48.1513 14.4869 48.2818 14.8036C48.4123 15.1203 48.4791 15.4596 48.4782 15.8021" fill="white"/>
<path d="M53.1436 20.5984H52.6402C51.949 20.5972 51.2865 20.3218 50.798 19.8327C50.3095 19.3436 50.035 18.6807 50.0347 17.9895V15.8019C50.035 15.1107 50.3095 14.4478 50.798 13.9587C51.2865 13.4696 51.949 13.1942 52.6402 13.1929H53.1436C53.8349 13.1942 54.4974 13.4696 54.9858 13.9587C55.4743 14.4478 55.7488 15.1107 55.7492 15.8019V17.9895C55.7488 18.6807 55.4743 19.3436 54.9858 19.8327C54.4974 20.3218 53.8349 20.5972 53.1436 20.5984V20.5984ZM52.6402 14.5391C52.3057 14.5398 51.9852 14.6731 51.7488 14.9099C51.5125 15.1466 51.3796 15.4674 51.3795 15.8019V17.9895C51.3796 18.324 51.5125 18.6448 51.7488 18.8815C51.9852 19.1182 52.3057 19.2516 52.6402 19.2523H53.1436C53.4781 19.2516 53.7987 19.1182 54.035 18.8815C54.2714 18.6448 54.4042 18.324 54.4044 17.9895V15.8019C54.4042 15.4674 54.2714 15.1466 54.035 14.9099C53.7987 14.6731 53.4781 14.5398 53.1436 14.5391H52.6402Z" fill="white"/>
<path d="M58.6671 13.3177V17.9882C58.6662 18.1541 58.6981 18.3185 58.7611 18.4719C58.8241 18.6253 58.9168 18.7648 59.034 18.8822C59.1511 18.9996 59.2904 19.0926 59.4437 19.1559C59.597 19.2193 59.7613 19.2516 59.9272 19.251H60.4312C60.5971 19.2517 60.7615 19.2194 60.9149 19.1561C61.0683 19.0929 61.2076 18.9999 61.3248 18.8824C61.4421 18.765 61.5349 18.6255 61.5979 18.4721C61.6609 18.3186 61.6929 18.1541 61.692 17.9882V13.3177H63.0368V17.9882C63.0377 18.3307 62.9709 18.6701 62.8404 18.9867C62.7099 19.3034 62.5181 19.5912 62.2761 19.8336C62.0341 20.076 61.7466 20.2682 61.4301 20.3992C61.1136 20.5303 60.7744 20.5975 60.4319 20.5972H59.9272C59.5846 20.5975 59.2454 20.5303 58.929 20.3992C58.6125 20.2682 58.325 20.076 58.083 19.8336C57.841 19.5912 57.6492 19.3034 57.5187 18.9867C57.3881 18.6701 57.3214 18.3307 57.3223 17.9882V13.3177H58.6671Z" fill="white"/>
<path d="M67.6559 23.0394H67.1234C66.5438 23.0413 65.9803 22.8489 65.5229 22.4928C65.0656 22.1368 64.7408 21.6377 64.6005 21.0754L65.8877 20.6967C65.9508 20.9772 66.1069 21.2282 66.3306 21.409C66.5543 21.5897 66.8324 21.6897 67.12 21.6926H67.6559C67.9884 21.69 68.3064 21.5558 68.5401 21.3192C68.7737 21.0826 68.9041 20.763 68.9024 20.4304V19.589C68.4542 19.9622 67.8889 20.1658 67.3056 20.1642H67.1376C66.4464 20.1629 65.784 19.8875 65.2956 19.3984C64.8073 18.9093 64.5329 18.2464 64.5327 17.5552V15.8019C64.5329 15.1107 64.8073 14.4478 65.2956 13.9587C65.784 13.4696 66.4464 13.1942 67.1376 13.1929H67.3056C67.8863 13.1925 68.4496 13.3904 68.9024 13.7539V13.3189H70.2472V20.4324C70.2489 20.7747 70.1831 21.1138 70.0536 21.4306C69.9241 21.7474 69.7334 22.0355 69.4925 22.2786C69.2523 22.5211 68.9662 22.7134 68.6508 22.844C68.3355 22.9746 67.9972 23.041 67.6559 23.0394V23.0394ZM67.1376 14.5391C66.8032 14.5398 66.4827 14.6732 66.2464 14.9099C66.0102 15.1467 65.8775 15.4674 65.8775 15.8019V17.5552C65.8821 17.8881 66.0163 18.206 66.2516 18.4414C66.4869 18.6769 66.8048 18.8113 67.1376 18.816H67.6417C67.9758 18.8153 68.2961 18.6822 68.5324 18.4459C68.7687 18.2096 68.9017 17.8894 68.9024 17.5552V15.8019C68.9023 15.4674 68.7694 15.1466 68.5331 14.9099C68.2967 14.6731 67.9762 14.5398 67.6417 14.5391H67.1376Z" fill="white"/>
<path d="M77.7036 15.8021V20.4727H76.3595V15.8021C76.3606 15.636 76.3289 15.4714 76.266 15.3177C76.2031 15.1639 76.1103 15.0242 75.993 14.9066C75.8758 14.789 75.7364 14.6957 75.5829 14.6324C75.4293 14.569 75.2648 14.5366 75.0987 14.5373H74.5946C74.2599 14.5385 73.9394 14.6723 73.7031 14.9094C73.4668 15.1464 73.334 15.4674 73.3339 15.8021V20.4727H71.9897V10.8789H73.3339V13.7683C73.7816 13.3943 74.3472 13.1906 74.9307 13.1932H75.0987C75.4412 13.1928 75.7804 13.2601 76.0969 13.3911C76.4134 13.5221 76.7009 13.7144 76.9429 13.9568C77.1849 14.1992 77.3767 14.4869 77.5072 14.8036C77.6377 15.1203 77.7045 15.4596 77.7036 15.8021" fill="white"/>
<path d="M85.6217 18.2413C85.6827 18.5268 85.8397 18.7828 86.0665 18.9666C86.2933 19.1504 86.5763 19.2509 86.8682 19.2515H87.8079C88.1414 19.2479 88.4603 19.1138 88.696 18.8778C88.9317 18.6418 89.0655 18.3228 89.0687 17.9893C89.0652 17.637 88.945 17.2957 88.727 17.0189C88.5089 16.7421 88.2052 16.5454 87.8634 16.4596L86.6311 15.9969C85.4862 15.5484 84.5303 14.791 84.5303 13.3601C84.5294 13.0175 84.5961 12.6782 84.7267 12.3614C84.8573 12.0447 85.0491 11.7569 85.2912 11.5145C85.5333 11.2721 85.8209 11.0799 86.1374 10.9489C86.454 10.8179 86.7933 10.7507 87.1358 10.7512H87.7937C88.3721 10.7532 88.9335 10.9473 89.3897 11.3029C89.846 11.6584 90.1713 12.1554 90.3146 12.7158L89.0091 13.0939C88.9535 12.8119 88.8013 12.5581 88.5787 12.3763C88.3561 12.1945 88.077 12.096 87.7896 12.098H87.1358C86.97 12.0974 86.8056 12.1296 86.6523 12.1928C86.499 12.256 86.3597 12.349 86.2424 12.4663C86.1252 12.5837 86.0324 12.7231 85.9694 12.8765C85.9063 13.0299 85.8742 13.1943 85.8751 13.3601C85.8751 13.9068 86.0715 14.3282 87.1494 14.749L88.3817 15.2232C88.968 15.4116 89.48 15.7801 89.8449 16.2762C90.2097 16.7723 90.4089 17.3708 90.4141 17.9866C90.4136 18.6777 90.1391 19.3404 89.6508 19.8294C89.1626 20.3184 88.5003 20.594 87.8092 20.5956H86.8696C86.288 20.5932 85.7236 20.398 85.2648 20.0405C84.8061 19.683 84.4789 19.1835 84.3345 18.6201L85.6217 18.2413Z" fill="white"/>
<path d="M93.2386 22.9134H91.8945V13.319H93.2386V13.7681C93.6871 13.3947 94.2526 13.1911 94.8361 13.1929H95.0035C95.6947 13.1942 96.3572 13.4696 96.8457 13.9587C97.3342 14.4478 97.6087 15.1107 97.609 15.8019V17.9895C97.6087 18.6807 97.3342 19.3436 96.8457 19.8327C96.3572 20.3218 95.6947 20.5972 95.0035 20.5984H94.8361C94.2528 20.6002 93.6875 20.3966 93.2393 20.0233V22.912L93.2386 22.9134ZM94.4994 14.5391C94.1662 14.5438 93.8481 14.6785 93.6127 14.9144C93.3773 15.1502 93.2433 15.4687 93.2393 15.8019V17.9895C93.2393 18.3239 93.372 18.6447 93.6082 18.8815C93.8445 19.1182 94.165 19.2516 94.4994 19.2523H95.0035C95.3379 19.2516 95.6584 19.1182 95.8947 18.8815C96.1309 18.6447 96.2636 18.3239 96.2636 17.9895V15.8019C96.2636 15.4675 96.1309 15.1467 95.8947 14.9099C95.6584 14.6732 95.3379 14.5398 95.0035 14.5391H94.4994Z" fill="white"/>
<path d="M102.191 20.5984H101.687C100.996 20.5972 100.333 20.3218 99.8449 19.8326C99.3566 19.3435 99.0822 18.6806 99.082 17.9895V15.8019C99.0822 15.1107 99.3566 14.4478 99.8449 13.9587C100.333 13.4696 100.996 13.1942 101.687 13.1929H102.191C102.882 13.1942 103.545 13.4696 104.033 13.9587C104.522 14.4478 104.796 15.1107 104.797 15.8019V17.9895C104.796 18.6807 104.522 19.3436 104.033 19.8327C103.545 20.3218 102.882 20.5972 102.191 20.5984V20.5984ZM101.687 14.5391C101.352 14.5398 101.032 14.6732 100.796 14.9099C100.559 15.1467 100.427 15.4674 100.427 15.8019V17.9895C100.427 18.3239 100.559 18.6447 100.796 18.8815C101.032 19.1182 101.352 19.2516 101.687 19.2523H102.191C102.525 19.2516 102.846 19.1182 103.082 18.8815C103.319 18.6448 103.452 18.324 103.452 17.9895V15.8019C103.452 15.4674 103.319 15.1466 103.082 14.9099C102.846 14.6731 102.525 14.5398 102.191 14.5391H101.687Z" fill="white"/>
<path d="M82.1733 20.5964C81.6297 20.5959 81.1086 20.3795 80.7246 19.9948C80.3405 19.6101 80.125 19.0886 80.1253 18.545V14.6644H78.874V13.3183H80.1246V11.3828H81.4694V13.3183H83.0615V14.6644H81.4694V18.5464C81.4693 18.6389 81.4875 18.7305 81.5228 18.816C81.5582 18.9014 81.61 18.9791 81.6754 19.0446C81.7407 19.11 81.8184 19.1619 81.9038 19.1973C81.9893 19.2327 82.0808 19.251 82.1733 19.251" fill="white"/>
<path d="M41.3459 10.8789V12.2257H38.6522V20.4727H37.3074V12.2257H34.6138V10.8789H41.3459Z" fill="white"/>
<path d="M18.582 22.9423C18.5828 22.4126 18.7407 21.8949 19.0356 21.4548C19.3305 21.0147 19.7492 20.6719 20.2389 20.4698C20.7286 20.2676 21.2672 20.2151 21.7867 20.3189C22.3062 20.4228 22.7832 20.6783 23.1575 21.0532C23.5318 21.4281 23.7866 21.9055 23.8897 22.4252C23.9927 22.9448 23.9394 23.4833 23.7365 23.9727C23.5336 24.4621 23.1902 24.8803 22.7496 25.1745C22.3091 25.4688 21.7912 25.6258 21.2615 25.6258C20.9093 25.6255 20.5607 25.5559 20.2355 25.4209C19.9102 25.2859 19.6148 25.0882 19.366 24.839C19.1172 24.5898 18.9199 24.2941 18.7854 23.9686C18.6509 23.6432 18.5818 23.2945 18.582 22.9423" fill="white"/>
<path d="M15.8716 25.5348H17.2116V10.7753H15.8716V25.5348Z" fill="white"/>
<path d="M13.1616 25.5348H14.5017V10.7753H13.1616V25.5348Z" fill="white"/>
<path d="M10.4521 25.5348H11.7922V10.7753H10.4521V25.5348Z" fill="white"/>
<path d="M3 10.7617H24.102V9.41962H3V10.7617Z" fill="white"/>
<path d="M3 8.05069H24.102V6.70929H3V8.05069Z" fill="white"/>
<path d="M3 5.3414H24.102V4H3V5.3414Z" fill="white"/>
<path d="M18.582 22.9423C18.5828 22.4126 18.7407 21.8949 19.0356 21.4548C19.3305 21.0147 19.7492 20.6719 20.2389 20.4698C20.7286 20.2676 21.2672 20.2151 21.7867 20.3189C22.3062 20.4228 22.7832 20.6783 23.1575 21.0532C23.5318 21.4281 23.7866 21.9055 23.8897 22.4252C23.9927 22.9448 23.9394 23.4833 23.7365 23.9727C23.5336 24.4621 23.1902 24.8803 22.7496 25.1745C22.3091 25.4688 21.7912 25.6258 21.2615 25.6258C20.9093 25.6255 20.5607 25.5559 20.2355 25.4209C19.9102 25.2859 19.6148 25.0882 19.366 24.839C19.1172 24.5898 18.9199 24.2941 18.7854 23.9686C18.6509 23.6432 18.5818 23.2945 18.582 22.9423" fill="white"/>
<path d="M15.8716 25.5348H17.2116V10.7753H15.8716V25.5348Z" fill="white"/>
<path d="M13.1616 25.5348H14.5017V10.7753H13.1616V25.5348Z" fill="white"/>
<path d="M10.4521 25.5348H11.7922V10.7753H10.4521V25.5348Z" fill="white"/>
<path d="M3 10.7617H24.102V9.41962H3V10.7617Z" fill="white"/>
<path d="M3 8.05069H24.102V6.70929H3V8.05069Z" fill="white"/>
<path d="M3 5.3414H24.102V4H3V5.3414Z" fill="white"/>
<path d="M48.4782 15.8021V20.4727H47.1334V15.8021C47.1346 15.636 47.1028 15.4714 47.0399 15.3177C46.977 15.1639 46.8842 15.0242 46.767 14.9066C46.6497 14.789 46.5103 14.6957 46.3568 14.6324C46.2033 14.569 46.0387 14.5366 45.8726 14.5373H45.3686C45.034 14.5387 44.7136 14.6726 44.4774 14.9096C44.2413 15.1466 44.1086 15.4675 44.1085 15.8021V20.4727H42.7637V10.8789H44.1085V13.7683C44.5562 13.3943 45.1218 13.1906 45.7053 13.1932H45.8733C46.2158 13.1928 46.555 13.2601 46.8715 13.3911C47.188 13.5221 47.4755 13.7144 47.7175 13.9568C47.9595 14.1992 48.1513 14.4869 48.2818 14.8036C48.4123 15.1203 48.4791 15.4596 48.4782 15.8021" fill="white"/>
<path d="M53.1436 20.5984H52.6402C51.949 20.5972 51.2865 20.3218 50.798 19.8327C50.3095 19.3436 50.035 18.6807 50.0347 17.9895V15.8019C50.035 15.1107 50.3095 14.4478 50.798 13.9587C51.2865 13.4696 51.949 13.1942 52.6402 13.1929H53.1436C53.8349 13.1942 54.4974 13.4696 54.9858 13.9587C55.4743 14.4478 55.7488 15.1107 55.7492 15.8019V17.9895C55.7488 18.6807 55.4743 19.3436 54.9858 19.8327C54.4974 20.3218 53.8349 20.5972 53.1436 20.5984V20.5984ZM52.6402 14.5391C52.3057 14.5398 51.9852 14.6731 51.7488 14.9099C51.5125 15.1466 51.3796 15.4674 51.3795 15.8019V17.9895C51.3796 18.324 51.5125 18.6448 51.7488 18.8815C51.9852 19.1182 52.3057 19.2516 52.6402 19.2523H53.1436C53.4781 19.2516 53.7987 19.1182 54.035 18.8815C54.2714 18.6448 54.4042 18.324 54.4044 17.9895V15.8019C54.4042 15.4674 54.2714 15.1466 54.035 14.9099C53.7987 14.6731 53.4781 14.5398 53.1436 14.5391H52.6402Z" fill="white"/>
<path d="M58.6671 13.3177V17.9882C58.6662 18.1541 58.6981 18.3185 58.7611 18.4719C58.8241 18.6253 58.9168 18.7648 59.034 18.8822C59.1511 18.9996 59.2904 19.0926 59.4437 19.1559C59.597 19.2193 59.7613 19.2516 59.9272 19.251H60.4312C60.5971 19.2517 60.7615 19.2194 60.9149 19.1561C61.0683 19.0929 61.2076 18.9999 61.3248 18.8824C61.4421 18.765 61.5349 18.6255 61.5979 18.4721C61.6609 18.3186 61.6929 18.1541 61.692 17.9882V13.3177H63.0368V17.9882C63.0377 18.3307 62.9709 18.6701 62.8404 18.9867C62.7099 19.3034 62.5181 19.5912 62.2761 19.8336C62.0341 20.076 61.7466 20.2682 61.4301 20.3992C61.1136 20.5303 60.7744 20.5975 60.4319 20.5972H59.9272C59.5846 20.5975 59.2454 20.5303 58.929 20.3992C58.6125 20.2682 58.325 20.076 58.083 19.8336C57.841 19.5912 57.6492 19.3034 57.5187 18.9867C57.3881 18.6701 57.3214 18.3307 57.3223 17.9882V13.3177H58.6671Z" fill="white"/>
<path d="M67.6559 23.0394H67.1234C66.5438 23.0413 65.9803 22.8489 65.5229 22.4928C65.0656 22.1368 64.7408 21.6377 64.6005 21.0754L65.8877 20.6967C65.9508 20.9772 66.1069 21.2282 66.3306 21.409C66.5543 21.5897 66.8324 21.6897 67.12 21.6926H67.6559C67.9884 21.69 68.3064 21.5558 68.5401 21.3192C68.7737 21.0826 68.9041 20.763 68.9024 20.4304V19.589C68.4542 19.9622 67.8889 20.1658 67.3056 20.1642H67.1376C66.4464 20.1629 65.784 19.8875 65.2956 19.3984C64.8073 18.9093 64.5329 18.2464 64.5327 17.5552V15.8019C64.5329 15.1107 64.8073 14.4478 65.2956 13.9587C65.784 13.4696 66.4464 13.1942 67.1376 13.1929H67.3056C67.8863 13.1925 68.4496 13.3904 68.9024 13.7539V13.3189H70.2472V20.4324C70.2489 20.7747 70.1831 21.1138 70.0536 21.4306C69.9241 21.7474 69.7334 22.0355 69.4925 22.2786C69.2523 22.5211 68.9662 22.7134 68.6508 22.844C68.3355 22.9746 67.9972 23.041 67.6559 23.0394V23.0394ZM67.1376 14.5391C66.8032 14.5398 66.4827 14.6732 66.2464 14.9099C66.0102 15.1467 65.8775 15.4674 65.8775 15.8019V17.5552C65.8821 17.8881 66.0163 18.206 66.2516 18.4414C66.4869 18.6769 66.8048 18.8113 67.1376 18.816H67.6417C67.9758 18.8153 68.2961 18.6822 68.5324 18.4459C68.7687 18.2096 68.9017 17.8894 68.9024 17.5552V15.8019C68.9023 15.4674 68.7694 15.1466 68.5331 14.9099C68.2967 14.6731 67.9762 14.5398 67.6417 14.5391H67.1376Z" fill="white"/>
<path d="M77.7036 15.8021V20.4727H76.3595V15.8021C76.3606 15.636 76.3289 15.4714 76.266 15.3177C76.2031 15.1639 76.1103 15.0242 75.993 14.9066C75.8758 14.789 75.7364 14.6957 75.5829 14.6324C75.4293 14.569 75.2648 14.5366 75.0987 14.5373H74.5946C74.2599 14.5385 73.9394 14.6723 73.7031 14.9094C73.4668 15.1464 73.334 15.4674 73.3339 15.8021V20.4727H71.9897V10.8789H73.3339V13.7683C73.7816 13.3943 74.3472 13.1906 74.9307 13.1932H75.0987C75.4412 13.1928 75.7804 13.2601 76.0969 13.3911C76.4134 13.5221 76.7009 13.7144 76.9429 13.9568C77.1849 14.1992 77.3767 14.4869 77.5072 14.8036C77.6377 15.1203 77.7045 15.4596 77.7036 15.8021" fill="white"/>
<path d="M85.6217 18.2413C85.6827 18.5268 85.8397 18.7828 86.0665 18.9666C86.2933 19.1504 86.5763 19.2509 86.8682 19.2515H87.8079C88.1414 19.2479 88.4603 19.1138 88.696 18.8778C88.9317 18.6418 89.0655 18.3228 89.0687 17.9893C89.0652 17.637 88.945 17.2957 88.727 17.0189C88.5089 16.7421 88.2052 16.5454 87.8634 16.4596L86.6311 15.9969C85.4862 15.5484 84.5303 14.791 84.5303 13.3601C84.5294 13.0175 84.5961 12.6782 84.7267 12.3614C84.8573 12.0447 85.0491 11.7569 85.2912 11.5145C85.5333 11.2721 85.8209 11.0799 86.1374 10.9489C86.454 10.8179 86.7933 10.7507 87.1358 10.7512H87.7937C88.3721 10.7532 88.9335 10.9473 89.3897 11.3029C89.846 11.6584 90.1713 12.1554 90.3146 12.7158L89.0091 13.0939C88.9535 12.8119 88.8013 12.5581 88.5787 12.3763C88.3561 12.1945 88.077 12.096 87.7896 12.098H87.1358C86.97 12.0974 86.8056 12.1296 86.6523 12.1928C86.499 12.256 86.3597 12.349 86.2424 12.4663C86.1252 12.5837 86.0324 12.7231 85.9694 12.8765C85.9063 13.0299 85.8742 13.1943 85.8751 13.3601C85.8751 13.9068 86.0715 14.3282 87.1494 14.749L88.3817 15.2232C88.968 15.4116 89.48 15.7801 89.8449 16.2762C90.2097 16.7723 90.4089 17.3708 90.4141 17.9866C90.4136 18.6777 90.1391 19.3404 89.6508 19.8294C89.1626 20.3184 88.5003 20.594 87.8092 20.5956H86.8696C86.288 20.5932 85.7236 20.398 85.2648 20.0405C84.8061 19.683 84.4789 19.1835 84.3345 18.6201L85.6217 18.2413Z" fill="white"/>
<path d="M93.2386 22.9134H91.8945V13.319H93.2386V13.7681C93.6871 13.3947 94.2526 13.1911 94.8361 13.1929H95.0035C95.6947 13.1942 96.3572 13.4696 96.8457 13.9587C97.3342 14.4478 97.6087 15.1107 97.609 15.8019V17.9895C97.6087 18.6807 97.3342 19.3436 96.8457 19.8327C96.3572 20.3218 95.6947 20.5972 95.0035 20.5984H94.8361C94.2528 20.6002 93.6875 20.3966 93.2393 20.0233V22.912L93.2386 22.9134ZM94.4994 14.5391C94.1662 14.5438 93.8481 14.6785 93.6127 14.9144C93.3773 15.1502 93.2433 15.4687 93.2393 15.8019V17.9895C93.2393 18.3239 93.372 18.6447 93.6082 18.8815C93.8445 19.1182 94.165 19.2516 94.4994 19.2523H95.0035C95.3379 19.2516 95.6584 19.1182 95.8947 18.8815C96.1309 18.6447 96.2636 18.3239 96.2636 17.9895V15.8019C96.2636 15.4675 96.1309 15.1467 95.8947 14.9099C95.6584 14.6732 95.3379 14.5398 95.0035 14.5391H94.4994Z" fill="white"/>
<path d="M102.191 20.5984H101.687C100.996 20.5972 100.333 20.3218 99.8449 19.8326C99.3566 19.3435 99.0822 18.6806 99.082 17.9895V15.8019C99.0822 15.1107 99.3566 14.4478 99.8449 13.9587C100.333 13.4696 100.996 13.1942 101.687 13.1929H102.191C102.882 13.1942 103.545 13.4696 104.033 13.9587C104.522 14.4478 104.796 15.1107 104.797 15.8019V17.9895C104.796 18.6807 104.522 19.3436 104.033 19.8327C103.545 20.3218 102.882 20.5972 102.191 20.5984V20.5984ZM101.687 14.5391C101.352 14.5398 101.032 14.6732 100.796 14.9099C100.559 15.1467 100.427 15.4674 100.427 15.8019V17.9895C100.427 18.3239 100.559 18.6447 100.796 18.8815C101.032 19.1182 101.352 19.2516 101.687 19.2523H102.191C102.525 19.2516 102.846 19.1182 103.082 18.8815C103.319 18.6448 103.452 18.324 103.452 17.9895V15.8019C103.452 15.4674 103.319 15.1466 103.082 14.9099C102.846 14.6731 102.525 14.5398 102.191 14.5391H101.687Z" fill="white"/>
<path d="M83.0605 14.6651V13.3183H81.4685V11.3828H80.1237V13.3183H78.873V14.6651H80.1237V18.5471C80.1238 19.0904 80.3397 19.6115 80.7239 19.9957C81.108 20.38 81.629 20.5961 82.1724 20.5964H83.0605V19.2516H82.1724C82.0799 19.2516 81.9883 19.2334 81.9028 19.198C81.8174 19.1626 81.7398 19.1107 81.6744 19.0452C81.609 18.9798 81.5572 18.9021 81.5218 18.8166C81.4865 18.7312 81.4684 18.6396 81.4685 18.5471V14.6651H83.0605Z" fill="white"/>
<path d="M109.999 14.6651V13.3183H108.407V11.3828H107.063V13.3183H105.812V14.6651H107.063V18.5471C107.063 19.0904 107.279 19.6115 107.663 19.9957C108.047 20.38 108.568 20.5961 109.111 20.5964H109.999V19.2516H109.111C109.019 19.2516 108.927 19.2334 108.842 19.198C108.756 19.1626 108.679 19.1107 108.613 19.0452C108.548 18.9798 108.496 18.9021 108.461 18.8166C108.425 18.7312 108.407 18.6396 108.407 18.5471V14.6651H109.999Z" fill="white"/>
</svg>
