<svg width="200" height="40" viewBox="0 0 200 40" fill="none" xmlns="http://www.w3.org/2000/svg">
<path fill-rule="evenodd" clip-rule="evenodd" d="M39.7572 0H0V2.48072H39.7572V0ZM0 4.96144H39.7572V7.44216H0V4.96144ZM39.7572 12.4036V9.92288H0V12.4036H13.6676V39.6883H16.1527V12.4036H18.6377V39.6883H21.1227V12.4036H23.6046V39.6883H26.0896V12.4036H39.7572ZM154.438 26.2161C154.673 27.3128 155.643 28.0969 156.767 28.0989H158.522C159.817 28.0922 160.869 27.0535 160.889 25.7613C160.889 24.2983 160.001 23.4364 158.637 22.8989L156.334 22.0371C154.189 21.2006 152.409 19.7917 152.409 17.1233C152.406 15.8337 152.918 14.5961 153.832 13.6842C154.745 12.7723 155.985 12.2611 157.277 12.2637H158.506C160.728 12.2692 162.666 13.7729 163.218 15.9211L160.784 16.6272C160.57 15.543 159.613 14.7643 158.506 14.773H157.277C156.651 14.7704 156.051 15.0173 155.609 15.4586C155.167 15.8999 154.92 16.4992 154.922 17.1233C154.922 18.1442 155.289 18.9266 157.302 19.7122L159.606 20.5995C161.938 21.5536 163.403 23.3188 163.403 25.7486C163.4 28.4311 161.222 30.6047 158.535 30.6083H156.78C154.544 30.6012 152.597 29.0869 152.042 26.9253L154.438 26.2161ZM200 19.5532H197.018V26.7854C197.018 27.5108 197.607 28.0989 198.334 28.0989H199.994V30.6019H198.334C196.222 30.6019 194.511 28.8932 194.511 26.7854V19.5532H192.175V17.0438H194.511V13.4372H197.024V17.0438H200V19.5532ZM185.402 16.8085C186.694 16.8059 187.934 17.317 188.848 18.2288C189.762 19.1406 190.275 20.3782 190.273 21.6681V25.7613C190.268 28.4443 188.09 30.6175 185.402 30.621H184.446C181.768 30.6001 179.605 28.4345 179.591 25.7613V21.6681C179.596 18.9839 181.777 16.8102 184.465 16.8085H185.402ZM182.105 25.7613V21.6681C182.108 20.3703 183.162 19.3196 184.462 19.3178H185.418C186.044 19.3144 186.645 19.5608 187.088 20.0023C187.53 20.4437 187.778 21.0435 187.776 21.6681V25.7613C187.778 26.3863 187.531 26.9864 187.088 27.4283C186.645 27.8702 186.044 28.1174 185.418 28.1148H184.462C183.162 28.1113 182.108 27.0597 182.105 25.7613ZM176.838 21.6681V25.7613C176.841 27.0509 176.329 28.2885 175.415 29.2004C174.502 30.1123 173.262 30.6235 171.97 30.621H171.652C170.561 30.6259 169.504 30.2463 168.666 29.5492V34.9336H166.153V17.0438H168.666V17.8803C169.504 17.1831 170.561 16.8036 171.652 16.8085H171.97C173.262 16.8059 174.502 17.3171 175.415 18.229C176.329 19.1409 176.841 20.3785 176.838 21.6681ZM171.97 19.3178C173.268 19.323 174.319 20.3722 174.325 21.6681V25.7613C174.327 26.3857 174.08 26.9853 173.638 27.4272C173.196 27.869 172.596 28.1165 171.97 28.1148H171.014C169.714 28.1113 168.66 27.0597 168.657 25.7613V21.6681C168.671 20.3746 169.719 19.3298 171.014 19.3178H171.97ZM146.671 19.5532H149.646V17.0438H146.671V13.4372H144.157V17.0438H141.819V19.5532H144.157V26.7854C144.157 28.8932 145.869 30.6019 147.98 30.6019H149.64V28.0989H147.986C147.637 28.0998 147.302 27.9616 147.055 27.7151C146.808 27.4686 146.67 27.134 146.671 26.7854V19.5532ZM139.633 21.6681V30.3697H137.119V21.6681C137.122 21.0434 136.874 20.4437 136.431 20.0022C135.989 19.5608 135.387 19.3144 134.762 19.3178H133.809C132.509 19.3195 131.455 20.3703 131.452 21.6681V30.3697H128.938V12.4958H131.452V17.8803C132.291 17.1805 133.352 16.8008 134.446 16.8085H134.765C136.057 16.8068 137.296 17.3182 138.209 18.23C139.122 19.1417 139.635 20.3787 139.633 21.6681ZM125.695 30.2934V17.0438H123.181V17.8548C122.336 17.1753 121.284 16.8059 120.199 16.8085H119.88C117.193 16.812 115.016 18.9857 115.012 21.6681V24.9344C115.016 27.6174 117.193 29.792 119.88 29.7972H120.199C121.288 29.8011 122.344 29.4216 123.181 28.7254V30.2838C123.181 31.572 122.142 32.6202 120.852 32.6342H119.858C118.752 32.6256 117.797 31.8573 117.554 30.78L115.146 31.486C115.69 33.6413 117.631 35.152 119.858 35.1531H120.852C122.141 35.1539 123.377 34.6414 124.286 33.7291C125.195 32.8168 125.702 31.5802 125.695 30.2934ZM123.181 24.9344V21.6681C123.184 21.0437 122.937 20.4439 122.495 20.0024C122.053 19.5609 121.452 19.3144 120.826 19.3178H119.871C118.571 19.3196 117.517 20.3703 117.513 21.6681V24.9344C117.525 26.2292 118.574 27.2758 119.871 27.2879H120.826C122.127 27.2844 123.179 26.2322 123.181 24.9344ZM104.049 25.7613V17.0438H101.539V25.7613C101.54 27.0487 102.055 28.2827 102.969 29.1912C103.882 30.0998 105.12 30.6084 106.41 30.6051H107.366C108.654 30.6068 109.891 30.0974 110.803 29.189C111.716 28.2806 112.229 27.0476 112.231 25.7613V17.0438H109.717V25.7613C109.721 26.386 109.474 26.9861 109.031 27.4281C108.589 27.8701 107.988 28.1174 107.363 28.1148H106.407C105.781 28.1174 105.18 27.8702 104.737 27.4283C104.294 26.9864 104.047 26.3863 104.049 25.7613ZM93.7269 16.8085C95.0188 16.8059 96.2585 17.3171 97.172 18.229C98.0855 19.1409 98.5975 20.3785 98.595 21.6681V25.7613C98.5915 28.4438 96.414 30.6175 93.7269 30.621H92.7711C90.0995 30.5915 87.9455 28.4284 87.9317 25.7613V21.6681C87.9352 18.9857 90.1127 16.812 92.7998 16.8085H93.7269ZM90.4263 25.7613V21.6681C90.4298 20.3703 91.4838 19.3196 92.7839 19.3178H93.7396C94.3651 19.3144 94.966 19.5609 95.4082 20.0024C95.8505 20.4439 96.0975 21.0437 96.094 21.6681V25.7613C96.0975 26.386 95.8506 26.9861 95.4084 27.4281C94.9662 27.8701 94.3654 28.1174 93.7396 28.1148H92.7839C91.4833 28.1113 90.4298 27.0597 90.4263 25.7613ZM85.007 21.6681V30.3697H82.4933V21.6681C82.4959 21.0434 82.2482 20.4437 81.8054 20.0022C81.3626 19.5608 80.7615 19.3144 80.1357 19.3178H79.1959C77.8958 19.3195 76.8418 20.3703 76.8383 21.6681V30.3697H74.3246V12.4958H76.8383V17.8803C77.6756 17.1827 78.7329 16.803 79.8235 16.8085H80.1421C81.4332 16.8076 82.6716 17.3194 83.5842 18.2311C84.4968 19.1427 85.0087 20.3793 85.007 21.6681ZM71.6835 15.0052V12.4958H59.0927V15.0052H64.1264V30.3697H66.6401V15.0052H71.6835ZM35.0994 40C32.3545 40 30.1293 37.7787 30.1293 35.0386C30.1293 32.2984 32.3545 30.0771 35.0994 30.0771C37.8443 30.0771 40.0695 32.2984 40.0695 35.0386C40.0695 37.7787 37.8443 40 35.0994 40Z" fill="black"/>
</svg>
