<svg width="120" height="24" viewBox="0 0 120 24" fill="none" xmlns="http://www.w3.org/2000/svg">
<path fill-rule="evenodd" clip-rule="evenodd" d="M91.5456 15.9778C91.6928 16.6677 92.2984 17.161 93 17.1622H94.096C94.9048 17.158 95.5616 16.5046 95.5744 15.6916C95.5744 14.7712 95.0192 14.229 94.168 13.8909L92.7296 13.3486C91.3904 12.8224 90.2784 11.9361 90.2784 10.2574C90.2768 9.44599 90.596 8.66743 91.1664 8.09375C91.7376 7.52007 92.5112 7.19848 93.3184 7.20008H94.0864C95.4736 7.20358 96.684 8.14959 97.0288 9.50103L95.5088 9.94519C95.3752 9.26311 94.7776 8.77327 94.0864 8.77871H93.3184C92.928 8.77711 92.5528 8.93239 92.2768 9.21007C92.0008 9.48767 91.8464 9.86471 91.848 10.2574C91.848 10.8996 92.0768 11.3918 93.3344 11.886L94.7728 12.4442C96.2288 13.0445 97.1448 14.155 97.1448 15.6836C97.1424 17.3712 95.7824 18.7387 94.104 18.7409H93.008C91.612 18.7365 90.3952 17.7838 90.0488 16.4239L91.5456 15.9778ZM120 11.786H118.138V16.3359C118.138 16.7922 118.506 17.1622 118.959 17.1622H119.996V18.7369H118.959C117.641 18.7369 116.572 17.6619 116.572 16.3359V11.786H115.114V10.2074H116.572V7.93838H118.142V10.2074H120V11.786ZM110.883 10.0593C111.69 10.0577 112.465 10.3792 113.035 10.9529C113.606 11.5265 113.926 12.305 113.926 13.1166V15.6916C113.922 17.3795 112.562 18.7467 110.883 18.7489H110.286C108.614 18.7358 107.262 17.3734 107.254 15.6916V13.1166C107.258 11.4278 108.619 10.0604 110.298 10.0593H110.883ZM108.824 15.6916V13.1166C108.826 12.3001 109.484 11.639 110.296 11.6379H110.893C111.284 11.6358 111.659 11.7908 111.936 12.0686C112.213 12.3462 112.367 12.7235 112.366 13.1166V15.6916C112.367 16.0848 112.213 16.4623 111.936 16.7403C111.659 17.0184 111.284 17.1738 110.893 17.1722H110.296C109.484 17.1701 108.826 16.5084 108.824 15.6916ZM105.535 13.1166V15.6916C105.537 16.503 105.217 17.2815 104.646 17.8552C104.076 18.4289 103.302 18.7505 102.494 18.7489H102.296C101.614 18.752 100.954 18.5132 100.431 18.0746V21.462H98.8616V10.2074H100.431V10.7335C100.954 10.295 101.614 10.0562 102.296 10.0593H102.494C103.302 10.0577 104.076 10.3793 104.646 10.953C105.217 11.5266 105.537 12.3052 105.535 13.1166ZM102.494 11.6379C103.306 11.6412 103.962 12.3013 103.965 13.1166V15.6916C103.966 16.0845 103.812 16.4617 103.536 16.7396C103.26 17.0176 102.886 17.1733 102.494 17.1722H101.898C101.086 17.1701 100.427 16.5084 100.426 15.6916V13.1166C100.434 12.3028 101.089 11.6455 101.898 11.6379H102.494ZM86.6944 11.786H88.5528V10.2074H86.6944V7.93838H85.1248V10.2074H83.664V11.786H85.1248V16.3359C85.1248 17.6619 86.1936 18.7369 87.512 18.7369H88.5488V17.1622H87.516C87.2984 17.1628 87.0888 17.0758 86.9344 16.9208C86.7808 16.7657 86.6944 16.5552 86.6944 16.3359V11.786ZM82.2992 13.1166V18.5908H80.7296V13.1166C80.7312 12.7235 80.576 12.3462 80.3 12.0686C80.0232 11.7908 79.6479 11.6358 79.2571 11.6379H78.6622C77.8502 11.639 77.192 12.3001 77.1898 13.1166V18.5908H75.62V7.34614H77.1898V10.7335C77.7143 10.2934 78.377 10.0544 79.0602 10.0593H79.2591C80.0656 10.0582 80.84 10.38 81.4104 10.9535C81.9808 11.5271 82.3 12.3054 82.2992 13.1166ZM73.5945 18.5428V10.2074H72.0246V10.7175C71.4971 10.2901 70.8397 10.0577 70.1622 10.0593H69.9633C68.2851 10.0615 66.9252 11.429 66.923 13.1166V15.1714C66.9252 16.8593 68.2848 18.2274 69.9633 18.2306H70.1622C70.8426 18.2331 71.5019 17.9944 72.0246 17.5564V18.5368C72.0246 19.3472 71.376 20.0066 70.5702 20.0154H69.9494C69.2585 20.0101 68.6625 19.5267 68.5108 18.849L67.0066 19.2931C67.3465 20.649 68.5588 21.5994 69.9494 21.6001H70.5702C71.3752 21.6006 72.1471 21.2782 72.7149 20.7042C73.2826 20.1303 73.5992 19.3523 73.5945 18.5428ZM72.0246 15.1714V13.1166C72.0267 12.7238 71.8725 12.3464 71.5962 12.0686C71.3201 11.7909 70.9448 11.6358 70.5542 11.6379H69.9573C69.1454 11.639 68.4871 12.3001 68.485 13.1166V15.1714C68.4925 15.986 69.1473 16.6444 69.9573 16.652H70.5542C71.3662 16.6498 72.0235 15.9879 72.0246 15.1714ZM60.0765 15.6916V10.2074H58.5086V15.6916C58.5097 16.5016 58.831 17.2778 59.4016 17.8494C59.9722 18.421 60.7454 18.741 61.5509 18.7389H62.1478C62.9525 18.7399 63.7247 18.4195 64.2945 17.848C64.8643 17.2766 65.185 16.5009 65.186 15.6916V10.2074H63.6162V15.6916C63.6183 16.0846 63.4642 16.4622 63.188 16.7402C62.9118 17.0183 62.5366 17.1738 62.1458 17.1722H61.5489C61.1579 17.1738 60.7825 17.0184 60.506 16.7403C60.2295 16.4623 60.0749 16.0848 60.0765 15.6916ZM53.6299 10.0593C54.4367 10.0577 55.211 10.3793 55.7814 10.953C56.3519 11.5266 56.6718 12.3052 56.6702 13.1166V15.6916C56.668 17.3792 55.3081 18.7467 53.6299 18.7489H53.033C51.3646 18.7303 50.0193 17.3695 50.0106 15.6916V13.1166C50.0129 11.429 51.3727 10.0615 53.051 10.0593H53.6299ZM51.5686 15.6916V13.1166C51.5708 12.3001 52.229 11.639 53.041 11.6379H53.6378C54.0285 11.6358 54.4038 11.7909 54.6799 12.0686C54.9562 12.3464 55.1104 12.7238 55.1082 13.1166V15.6916C55.1104 16.0846 54.9562 16.4622 54.6801 16.7402C54.4039 17.0183 54.0286 17.1738 53.6378 17.1722H53.041C52.2287 17.17 51.5708 16.5084 51.5686 15.6916ZM48.1842 13.1166V18.5908H46.6142V13.1166C46.6158 12.7235 46.4612 12.3462 46.1846 12.0686C45.9082 11.7908 45.5327 11.6358 45.1419 11.6379H44.555C43.743 11.639 43.0847 12.3001 43.0826 13.1166V18.5908H41.5127V7.34614H43.0826V10.7335C43.6054 10.2947 44.2658 10.0558 44.9469 10.0593H45.1458C45.9522 10.0587 46.7256 10.3807 47.2955 10.9542C47.8655 11.5278 48.1852 12.3058 48.1842 13.1166ZM39.8633 8.92479V7.34614H32V8.92479H35.1437V18.5908H36.7136V8.92479H39.8633Z" fill="black"/>
<path d="M23.813 0H0V1.48843H23.813V0Z" fill="black"/>
<path d="M0 2.97693H23.813V4.46536H0V2.97693Z" fill="black"/>
<path d="M23.813 7.44217V5.95374H0V7.44217H8.1864V23.813H9.6748V7.44217H11.1632V23.813H12.6517V7.44217H14.1382V23.813H15.6266V7.44217H23.813Z" fill="black"/>
<path d="M21.0231 24C19.3791 24 18.0463 22.6672 18.0463 21.0231C18.0463 19.3791 19.3791 18.0463 21.0231 18.0463C22.6672 18.0463 24 19.3791 24 21.0231C24 22.6672 22.6672 24 21.0231 24Z" fill="black"/>
</svg>
