<?xml version="1.0" encoding="UTF-8"?>
<svg width="50px" height="38px" viewBox="0 0 50 38" version="1.1" xmlns="http://www.w3.org/2000/svg" xmlns:xlink="http://www.w3.org/1999/xlink">
    <!-- Generator: Sketch 50.2 (55047) - http://www.bohemiancoding.com/sketch -->
    <title>Group 6</title>
    <desc>Created with Sketch.</desc>
    <defs>
        <rect id="path-1" x="0" y="0" width="48" height="35.6571429" rx="8"></rect>
    </defs>
    <g id="Signing" stroke="none" stroke-width="1" fill="none" fill-rule="evenodd">
        <g id="55---CC---Instructions---Back" transform="translate(-751.000000, -231.000000)">
            <g id="Group-3" transform="translate(640.000000, 232.000000)">
                <g id="Group-6" transform="translate(112.000000, 0.000000)">
                    <g id="Group-2-Copy-2">
                        <g id="Rectangle-3">
                            <mask id="mask-2" fill="white">
                                <use xlink:href="#path-1"></use>
                            </mask>
                            <rect stroke="#B6D0F4" x="-0.5" y="-0.5" width="49" height="36.6571429" rx="8"></rect>
                        </g>
                        <path d="M41.5071429,6.17142857 L27.4071429,6.17142857 C26.8512,6.17142857 26.4,5.71165714 26.4,5.14285714 C26.4,4.57405714 26.8512,4.11428571 27.4071429,4.11428571 L41.5071429,4.11428571 C42.0630857,4.11428571 42.5142857,4.57405714 42.5142857,5.14285714 C42.5142857,5.71165714 42.0630857,6.17142857 41.5071429,6.17142857 Z" id="Shape" fill="#3F3F3F" fill-rule="nonzero"></path>
                        <path d="M41.4014786,11.5671246 L6.49285714,11.5671246 C5.93691429,11.5671246 5.48571429,10.6380766 5.48571429,10.0692766 C5.48571429,9.50047657 5.93691429,8.57142857 6.49285714,8.57142857 L41.4014786,8.57142857 C41.9574215,8.57142857 42.4086215,9.50047657 42.4086215,10.0692766 C42.4086215,10.6380766 41.9574215,11.5671246 41.4014786,11.5671246 Z" id="Shape-Copy" fill="#3F3F3F" fill-rule="nonzero"></path>
                        <path d="M18.0595305,24 L6.4814467,24 C5.93180241,24 5.48571429,23.5402286 5.48571429,22.9714286 C5.48571429,22.4026286 5.93180241,21.9428571 6.4814467,21.9428571 L18.0595305,21.9428571 C18.6091748,21.9428571 19.0552629,22.4026286 19.0552629,22.9714286 C19.0552629,23.5402286 18.6091748,24 18.0595305,24 Z" id="Shape-Copy-2" fill="#3F3F3F" fill-rule="nonzero"></path>
                        <path d="M35.2023876,24 L23.6243038,24 C23.0746595,24 22.6285714,23.5402286 22.6285714,22.9714286 C22.6285714,22.4026286 23.0746595,21.9428571 23.6243038,21.9428571 L35.2023876,21.9428571 C35.7520319,21.9428571 36.19812,22.4026286 36.19812,22.9714286 C36.19812,23.5402286 35.7520319,24 35.2023876,24 Z" id="Shape-Copy-4" fill="#3F3F3F" fill-rule="nonzero"></path>
                        <path d="M13.514339,28.1142857 L6.4814467,28.1142857 C5.93180241,28.1142857 5.48571429,27.6545143 5.48571429,27.0857143 C5.48571429,26.5169143 5.93180241,26.0571429 6.4814467,26.0571429 L13.514339,26.0571429 C14.0639833,26.0571429 14.5100715,26.5169143 14.5100715,27.0857143 C14.5100715,27.6545143 14.0639833,28.1142857 13.514339,28.1142857 Z" id="Shape-Copy-3" fill="#3F3F3F" fill-rule="nonzero"></path>
                        <path d="M30.6571962,28.1142857 L23.6243038,28.1142857 C23.0746595,28.1142857 22.6285714,27.6545143 22.6285714,27.0857143 C22.6285714,26.5169143 23.0746595,26.0571429 23.6243038,26.0571429 L30.6571962,26.0571429 C31.2068405,26.0571429 31.6529286,26.5169143 31.6529286,27.0857143 C31.6529286,27.6545143 31.2068405,28.1142857 30.6571962,28.1142857 Z" id="Shape-Copy-5" fill="#3F3F3F" fill-rule="nonzero"></path>
                    </g>
                    <rect id="Rectangle" fill="#E0EBFA" x="6.17142857" y="8.22857143" width="1" height="4.11428571"></rect>
                    <rect id="Rectangle-Copy-15" fill="#E0EBFA" x="24" y="8.22857143" width="1" height="4.11428571"></rect>
                    <rect id="Rectangle-Copy-21" fill="#E0EBFA" x="31.2" y="8.22857143" width="1" height="4.11428571"></rect>
                    <rect id="Rectangle-Copy-31" fill="#E0EBFA" x="31.5428571" y="3.08571429" width="1" height="4.11428571"></rect>
                    <rect id="Rectangle-Copy-4" fill="#E0EBFA" x="10.9714286" y="8.22857143" width="1" height="4.11428571"></rect>
                    <rect id="Rectangle-Copy-10" fill="#E0EBFA" x="18.1714286" y="8.22857143" width="1" height="4.11428571"></rect>
                    <rect id="Rectangle-Copy-38" fill="#E0EBFA" x="33.6" y="3.08571429" width="1" height="4.11428571"></rect>
                    <rect id="Rectangle-Copy-11" fill="#E0EBFA" x="19.2" y="8.22857143" width="1" height="4.11428571"></rect>
                    <rect id="Rectangle-Copy-39" fill="#E0EBFA" x="34.6285714" y="3.08571429" width="1" height="4.11428571"></rect>
                    <rect id="Rectangle-Copy" fill="#E0EBFA" x="7.2" y="8.22857143" width="1" height="4.11428571"></rect>
                    <rect id="Rectangle-Copy-5" fill="#E0EBFA" x="12" y="8.22857143" width="1" height="4.11428571"></rect>
                    <rect id="Rectangle-Copy-42" fill="#E0EBFA" x="37.0285714" y="3.08571429" width="1" height="4.11428571"></rect>
                    <rect id="Rectangle-Copy-8" fill="#E0EBFA" x="17.4857143" y="8.22857143" width="1" height="4.11428571"></rect>
                    <rect id="Rectangle-Copy-43" fill="#E0EBFA" x="41.8285714" y="3.08571429" width="1" height="4.11428571"></rect>
                    <rect id="Rectangle-Copy-40" fill="#E0EBFA" x="32.9142857" y="3.08571429" width="1" height="4.11428571"></rect>
                    <rect id="Rectangle-Copy-2" fill="#E0EBFA" x="8.22857143" y="8.22857143" width="1.02857143" height="4.11428571"></rect>
                    <rect id="Rectangle-Copy-6" fill="#E0EBFA" x="13.0285714" y="8.22857143" width="1.02857143" height="4.11428571"></rect>
                    <rect id="Rectangle-Copy-44" fill="#E0EBFA" x="38.0571429" y="3.08571429" width="1.02857143" height="4.11428571"></rect>
                    <rect id="Rectangle-Copy-12" fill="#E0EBFA" x="21.9428571" y="8.22857143" width="1.02857143" height="4.11428571"></rect>
                    <rect id="Rectangle-Copy-20" fill="#E0EBFA" x="28.8" y="8.22857143" width="1.02857143" height="4.11428571"></rect>
                    <rect id="Rectangle-Copy-32" fill="#E0EBFA" x="29.1428571" y="3.08571429" width="1.02857143" height="4.11428571"></rect>
                    <rect id="Rectangle-Copy-3" fill="#E0EBFA" x="10.2857143" y="8.22857143" width="1" height="4.11428571"></rect>
                    <rect id="Rectangle-Copy-9" fill="#E0EBFA" x="15.7714286" y="8.22857143" width="1" height="4.11428571"></rect>
                    <rect id="Rectangle-Copy-45" fill="#E0EBFA" x="40.8" y="3.08571429" width="1" height="4.11428571"></rect>
                    <rect id="Rectangle-Copy-13" fill="#E0EBFA" x="23.3142857" y="8.22857143" width="1" height="4.11428571"></rect>
                    <rect id="Rectangle-Copy-22" fill="#E0EBFA" x="30.5142857" y="8.22857143" width="1" height="4.11428571"></rect>
                    <rect id="Rectangle-Copy-33" fill="#E0EBFA" x="30.8571429" y="3.08571429" width="1" height="4.11428571"></rect>
                    <rect id="Rectangle-Copy-16" fill="#E0EBFA" x="25.7142857" y="8.22857143" width="1" height="4.11428571"></rect>
                    <rect id="Rectangle-Copy-34" fill="#E0EBFA" x="26.0571429" y="3.08571429" width="1" height="4.11428571"></rect>
                    <rect id="Rectangle-Copy-23" fill="#E0EBFA" x="32.9142857" y="8.22857143" width="1" height="4.11428571"></rect>
                    <rect id="Rectangle-Copy-17" fill="#E0EBFA" x="26.4" y="8.22857143" width="1" height="4.11428571"></rect>
                    <rect id="Rectangle-Copy-35" fill="#E0EBFA" x="26.7428571" y="3.08571429" width="1" height="4.11428571"></rect>
                    <rect id="Rectangle-Copy-24" fill="#E0EBFA" x="33.6" y="8.22857143" width="1" height="4.11428571"></rect>
                    <rect id="Rectangle-Copy-28" fill="#E0EBFA" x="38.4" y="8.22857143" width="1" height="4.11428571"></rect>
                    <rect id="Rectangle-Copy-30" fill="#E0EBFA" x="34.9714286" y="8.22857143" width="1" height="4.11428571"></rect>
                    <rect id="Rectangle-Copy-27" fill="#E0EBFA" x="37.7142857" y="8.22857143" width="1" height="4.11428571"></rect>
                    <rect id="Rectangle-Copy-26" fill="#E0EBFA" x="40.1142857" y="8.22857143" width="1" height="4.11428571"></rect>
                    <rect id="Rectangle-Copy-25" fill="#E0EBFA" x="40.8" y="8.22857143" width="1" height="4.11428571"></rect>
                    <rect id="Rectangle-Copy-29" fill="#E0EBFA" x="41.4857143" y="8.22857143" width="1" height="4.11428571"></rect>
                    <rect id="Rectangle-Copy-18" fill="#E0EBFA" x="27.0857143" y="8.22857143" width="1" height="4.11428571"></rect>
                    <rect id="Rectangle-Copy-36" fill="#E0EBFA" x="27.4285714" y="3.08571429" width="1" height="4.11428571"></rect>
                    <rect id="Rectangle-Copy-19" fill="#E0EBFA" x="27.7714286" y="8.22857143" width="1" height="4.11428571"></rect>
                    <rect id="Rectangle-Copy-37" fill="#E0EBFA" x="28.1142857" y="3.08571429" width="1" height="4.11428571"></rect>
                    <rect id="Rectangle-Copy-14" fill="#E0EBFA" x="20.9142857" y="8.22857143" width="1" height="4.11428571"></rect>
                    <rect id="Rectangle-Copy-41" fill="#E0EBFA" x="36.3428571" y="3.08571429" width="1" height="4.11428571"></rect>
                    <rect id="Rectangle-Copy-7" fill="#E0EBFA" x="15.0857143" y="8.22857143" width="1" height="4.11428571"></rect>
                    <rect id="Rectangle-Copy-46" fill="#E0EBFA" x="40.1142857" y="3.08571429" width="1" height="4.11428571"></rect>
                </g>
            </g>
        </g>
    </g>
</svg>