<?xml version="1.0" encoding="UTF-8" standalone="no"?>
<svg width="226px" height="196px" viewBox="0 0 226 196" version="1.1" xmlns="http://www.w3.org/2000/svg" xmlns:xlink="http://www.w3.org/1999/xlink">
    <!-- Generator: Sketch 42 (36781) - http://www.bohemiancoding.com/sketch -->
    <title>Page 1</title>
    <desc>Created with Sketch.</desc>
    <defs>
        <path d="M188,176 L43,176 L43,0 L146.290818,0 C146.870346,0 147.428801,0.231207832 147.839739,0.64107626 L187.361465,40.2259589 C187.770296,40.6358273 188,41.1907261 188,41.7708476 L188,176 Z" id="path-1"></path>
        <mask id="mask-2" maskContentUnits="userSpaceOnUse" maskUnits="objectBoundingBox" x="0" y="0" width="145" height="176" fill="white">
            <use xlink:href="#path-1"></use>
        </mask>
    </defs>
    <g id="Version-4" stroke="none" stroke-width="1" fill="none" fill-rule="evenodd">
        <g id="0.2-HomePage-Upload" transform="translate(-902.000000, -394.000000)">
            <g id="Group-20" transform="translate(902.000000, 394.000000)">
                <g id="Page-1">
                    <path d="M15.8454462,129 C15.2106716,128.916549 14.5887764,128.809052 14,128.678925 L14.2520699,128 C14.8114075,128.123055 15.3983441,128.224894 16,128.304102 L15.8454462,129 Z" id="Fill-1" fill="#BFBEBD"></path>
                    <path d="M16.6345765,83.5129787 L16.4009685,82.4774477 C17.7773618,82.1612712 19.1916376,82 20.6059133,82 L20.6501094,83.0609949 C19.2695069,83.0609949 17.9331005,83.2116561 16.6345765,83.5129787 L16.6345765,83.5129787 Z M32.9092704,84.9983715 L28.8032407,84.2556751 L28.9884435,83.2095341 L33.0944732,83.9543525 L32.9092704,84.9983715 Z M45.2273595,87.2285827 L41.1234344,86.4858863 L41.3086371,85.4418674 L45.4125623,86.1845638 L45.2273595,87.2285827 Z M57.5454486,89.4587939 L53.4394189,88.7160975 L53.6246217,87.6720786 L57.7306514,88.414775 L57.5454486,89.4587939 Z M6.53681613,89.9192657 L5.7160311,89.2593269 C6.59995344,88.1346723 7.62067328,87.1055073 8.74030824,86.2057837 L9.39904083,87.0333597 C8.33833403,87.8863995 7.37654235,88.8582708 6.53681613,89.9192657 L6.53681613,89.9192657 Z M69.8635377,91.6911271 L65.757508,90.9463087 L65.9427108,89.9022898 L70.0487405,90.6449862 L69.8635377,91.6911271 Z M82.1816269,93.9192163 L78.0734926,93.1765199 L78.2586953,92.132501 L82.3647251,92.8751974 L82.1816269,93.9192163 Z M224.960339,94.5133735 C224.773032,93.2168377 224.440508,91.920302 223.973292,90.6577181 L224.920352,90.1845144 C225.454915,91.6189795 225.806379,92.9897848 226,94.3584682 L224.960339,94.5133735 Z M94.4976114,96.1494276 L90.3936863,95.4046092 L90.578889,94.3605902 L94.6828142,95.1054086 L94.4976114,96.1494276 Z M106.817805,98.3796388 L102.709671,97.6348204 L102.894874,96.5908014 L107.000903,97.3356198 L106.817805,98.3796388 Z M119.13379,100.60985 L115.02776,99.8650316 L115.212963,98.8210126 L119.318992,99.563709 L119.13379,100.60985 Z M2.35712623,101.339814 L1.32167435,101.165811 L1.84360944,98.0316325 C1.90043302,97.6815041 1.96777949,97.3356198 2.04354426,96.9939795 L3.0726824,97.2252764 C2.99902221,97.5499408 2.9358849,97.8767272 2.87906132,98.2077576 L2.35712623,101.339814 Z M131.451879,102.837939 L127.345849,102.095243 L127.531052,101.051224 L131.637082,101.79392 L131.451879,102.837939 Z M143.769968,105.06815 L139.663938,104.325454 L139.849141,103.279313 L143.955171,104.024131 L143.769968,105.06815 Z M223.508181,106.831524 L222.603213,106.288295 C223.295619,105.1212 223.86175,103.871348 224.280561,102.576934 L225.280235,102.905843 C224.838274,104.274526 224.240574,105.596526 223.508181,106.831524 L223.508181,106.831524 Z M156.088057,107.298362 L151.982027,106.555665 L152.165125,105.511646 L156.27326,106.254343 L156.088057,107.298362 Z M168.404042,109.528573 L164.298012,108.785876 L164.483215,107.741857 L168.589244,108.484554 L168.404042,109.528573 Z M180.722131,111.760906 L176.618206,111.016088 L176.801304,109.972069 L180.907333,110.714765 L180.722131,111.760906 Z M0.254653816,113.840456 C0.0862876566,112.813413 0,111.763028 0,110.712643 C0,110.322197 0.0126274619,109.927507 0.0336732318,109.532817 L1.08596173,109.594355 C1.06491596,109.969947 1.05228849,110.343417 1.05228849,110.712643 C1.05228849,111.703612 1.134367,112.696704 1.29431485,113.666453 L0.254653816,113.840456 Z M193.04022,113.988995 L188.93419,113.246299 L189.119393,112.20228 L193.225423,112.944976 L193.04022,113.988995 Z M213.843963,115.02877 L213.469349,114.037801 C214.72999,113.556109 215.938017,112.925878 217.063966,112.168328 L217.649039,113.051076 C216.455743,113.85531 215.176161,114.519493 213.843963,115.02877 L213.843963,115.02877 Z M205.413028,116.157669 C204.937393,116.113107 204.453341,116.051569 203.969288,115.96669 L201.252279,115.47651 L201.437482,114.430369 L204.150282,114.922671 C204.600661,114.999062 205.05525,115.0606 205.507734,115.100918 L205.413028,116.157669 Z M6.33477674,125 C5.27617451,124.040861 4.31648741,122.954402 3.49149323,121.774576 L4.35016064,121.161321 C5.1309587,122.277487 6.03592681,123.302408 7.03770545,124.208498 L6.33477674,125 Z" id="Fill-3" fill="#CCCCCC"></path>
                    <polygon id="Fill-5" fill="#BFBEBD" points="220.856098 82 220 80.3147482 221.143902 80 222 81.6834532"></polygon>
                    <path d="M36.1718815,181 C33.8690029,181 32,179.21 32,177 C32,174.79 33.8690029,173 36.1718815,173 L187.828118,173 C190.133083,173 192,174.79 192,177 C192,179.21 190.133083,181 187.828118,181 L36.1718815,181 Z" id="Fill-7" fill="#D9D9D9"></path>
                    <use id="Fill-9" stroke="#EEEEEE" mask="url(#mask-2)" stroke-width="4" fill="#FFFFFF" xlink:href="#path-1"></use>
                    <path d="M88,83 L88,83 C85.7911975,83 84,81.1192907 84,78.8001075 L84,71.1998925 C84,68.8785599 85.7911975,67 88,67 L88,67 C90.2088025,67 92,68.8785599 92,71.1998925 L92,78.8001075 C92,81.1192907 90.2088025,83 88,83" id="Fill-15" fill="#555555"></path>
                    <path d="M139,83 L139,83 C136.791198,83 135,81.1192907 135,78.8001075 L135,71.1998925 C135,68.8785599 136.791198,67 139,67 L139,67 C141.208802,67 143,68.8785599 143,71.1998925 L143,78.8001075 C143,81.1192907 141.208802,83 139,83" id="Fill-17" fill="#555555"></path>
                    <path d="M99,117 L129,117" id="Stroke-19" stroke="#555555"></path>
                    <polygon id="Fill-21" fill="#BFBEBD" points="202.74772 196 202 195.846442 202.25228 194 203 194.153558"></polygon>
                    <path d="M30.0667048,131.719935 L26,131.035751 L26.1722468,130 L30.2389516,130.684185 L30.0667048,131.719935 Z M42.2668192,133.77249 L38.2001144,133.0862 L38.3723612,132.050449 L42.4390659,132.734634 L42.2668192,133.77249 Z M54.4648329,135.822939 L50.4002287,135.138754 L50.5724755,134.103004 L54.6370797,134.787188 L54.4648329,135.822939 Z M66.6649473,137.875493 L62.5982425,137.191309 L62.7704893,136.153453 L66.8371941,136.839743 L66.6649473,137.875493 Z M78.8629611,139.925943 L74.7962563,139.241758 L74.9685031,138.206007 L79.0352079,138.890192 L78.8629611,139.925943 Z M91.0630755,141.978497 L86.9963707,141.294312 L87.1686175,140.258562 L91.2353223,140.942747 L91.0630755,141.978497 Z M103.26319,144.028946 L99.1943845,143.344761 L99.3666313,142.309011 L103.435437,142.991091 L103.26319,144.028946 Z M115.461204,146.079396 L111.394499,145.397316 L111.566746,144.361565 L115.63345,145.043645 L115.461204,146.079396 Z M127.661318,148.13195 L123.592513,147.44987 L123.764759,146.412015 L127.833565,147.096199 L127.661318,148.13195 Z M139.859332,150.184504 L135.792627,149.50032 L135.964874,148.464569 L140.031579,149.146649 L139.859332,150.184504 Z M152.057346,152.234954 L147.992741,151.552874 L148.164988,150.517123 L152.229592,151.199203 L152.057346,152.234954 Z M164.25746,154.287508 L160.190755,153.605428 L160.363002,152.567573 L164.429707,153.251757 L164.25746,154.287508 Z M176.455474,156.337957 L172.39087,155.655878 L172.563116,154.620127 L176.627721,155.302207 L176.455474,156.337957 Z M188.655588,158.390512 L184.590984,157.708432 L184.763231,156.672681 L188.827835,157.354761 L188.655588,158.390512 Z M199.467225,163.251382 C198.49256,162.335626 197.414968,161.529341 196.265956,160.855682 L196.795299,159.946243 C198.01363,160.662005 199.15214,161.514605 200.18352,162.480884 L199.467225,163.251382 Z M204.962318,173.709936 C204.762764,172.394196 204.41617,171.093192 203.928837,169.840607 L204.903502,169.459569 C205.420242,170.78373 205.789943,172.16052 206,173.554152 L204.962318,173.709936 Z M204.865692,186 L203.832211,185.827375 L204.512796,181.753844 L205.546277,181.926469 L204.865692,186 Z" id="Fill-23" fill="#CCCCCC"></path>
                    <polygon id="Fill-25" fill="#BFBEBD" points="17.8464419 129 16 128.748858 16.1535581 128 18 128.251142"></polygon>
                    <path d="M219.392397,78.1952107 C218.448446,78.5622081 217.223803,77.7317455 216.417078,76.2889215 C216.751827,74.8419033 216.893212,73.097093 216.951429,71.801068 C217.853798,72.7238042 219.120024,73.9191671 220.330112,74.7685038 C220.691891,76.3832923 220.336349,77.8282133 219.392397,78.1952107 M216.620838,70.2512905 C216.533512,70.2680675 216.466978,70.3225929 216.414999,70.3959923 C216.325594,70.3771182 216.240347,70.3834096 216.165496,70.4295464 C214.260959,71.6228121 209.957038,74.8607775 213.136118,78.1406854 C214.730856,79.7848336 215.662332,78.8117663 216.211238,77.0543732 C217.186378,78.5202655 218.558643,79.3108827 219.656454,78.8851658 C220.754266,78.4594488 221.242876,76.9432254 220.993373,75.1963179 C222.569398,76.1295398 223.908396,76.2218134 223.995722,73.9212642 C224.172453,69.3369428 218.826858,69.848642 216.620838,70.2512905" id="Fill-27" fill="#CCCCCC"></path>
                    <polygon id="Path-2" fill-opacity="0.6" fill="#F2F2F2" style="mix-blend-mode: multiply;" points="149 38 188 71 188 41 169 22"></polygon>
                    <path d="M147,0 C152,4 149,38 149,38 C149,38 181,36 188,41" id="Stroke-13" fill="#D7E5FB"></path>
                </g>
            </g>
        </g>
    </g>
</svg>