<svg xmlns="http://www.w3.org/2000/svg" xmlns:xlink="http://www.w3.org/1999/xlink" style="display:none">
  <symbol viewBox="0 0 16 17" id="rd-icon-home-new"><path d="M2 13.778L5 13.778L8 16.7463L11 13.778L14 13.778C14.825 13.778 15.5 13.1102 15.5 12.2939L15.5 1.90486C15.5 1.08858 14.825 0.420709 14 0.420709L2 0.420708C1.175 0.420708 0.500002 1.08857 0.500002 1.90486L0.500001 12.2939C0.500001 13.1102 1.175 13.778 2 13.778ZM2 1.90486L14 1.90486L14 12.2939L10.61 12.2939L7.97 14.8912L5.36 12.2939L2 12.2939L2 1.90486ZM12.5 3.38901L3.5 3.389L3.5 10.8097L12.5 10.8097L12.5 3.38901ZM11 9.3256L5 9.3256L5 4.87315L11 4.87315L11 9.3256Z"/></symbol>

  <symbol viewBox="0 0 13 13" id="rd-icon-recent"><path d="M5.80556 3.97703V7.41256L8.75694 9.14407L9.29167 8.26457L6.84722 6.82852V3.97703H5.80556ZM12.75 5.35124V0.541504L10.9167 2.35546C9.79167 1.23548 8.22917 0.541504 6.5 0.541504C3.04861 0.541504 0.25 3.31054 0.25 6.72545C0.25 10.1404 3.04861 12.9094 6.5 12.9094C9.95139 12.9094 12.75 10.1404 12.75 6.72545H11.3611C11.3611 9.37768 9.18056 11.5352 6.5 11.5352C3.81944 11.5352 1.63889 9.37768 1.63889 6.72545C1.63889 4.07323 3.81944 1.91571 6.5 1.91571C7.84028 1.91571 9.05556 2.45853 9.9375 3.32428L7.88889 5.35124H12.75Z"/></symbol>

  <symbol viewBox="0 0 15 8" id="rd-icon-trend-up"><path d="M14.4502 0.200704C14.3231 0.0566735 14.1415 -0.0153417 13.9416 0.0026621L10.5086 0.308726C10.2725 0.32673 10.0727 0.47076 10 0.686805C9.90918 0.902851 9.96367 1.1369 10.1272 1.31694L10.8356 2.0911L8.0888 4.39129L5.98175 2.12281C5.80011 1.92477 5.58213 1.81675 5.32783 1.79874C5.03721 1.76274 4.72841 1.85276 4.49228 2.0688L0.327576 5.77332C-0.090202 6.1514 -0.108366 6.79954 0.273083 7.23163C0.382069 7.33965 0.509218 7.42967 0.636368 7.48368C0.690861 7.50168 0.763518 7.51969 0.836175 7.53769C0.890668 7.5557 0.94516 7.5557 0.999653 7.5557C1.27212 7.5737 1.54458 7.46568 1.74439 7.28564L5.14619 4.26526L7.25324 6.55174C7.63469 6.96583 8.30677 7.00183 8.72455 6.60575L12.2342 3.60342L12.9426 4.37758C13.1061 4.53961 13.3422 4.61163 13.5602 4.55762C13.7782 4.4856 13.9416 4.30556 13.978 4.08952L14.5774 0.722813C14.6319 0.524772 14.5774 0.32673 14.4502 0.200704Z"/></symbol>

  <symbol viewBox="0 0 10 8" id="rd-icon-chevron-double-left"><path d="M9.20565 0.791993L10 1.58635L7.58871 3.99764L10 6.40893L9.20564 7.20328L6 3.99764L9.20565 0.791993Z"/><path d="M3.20565 0.791993L4 1.58635L1.58871 3.99764L4 6.40893L3.20564 7.20328L-5.60493e-07 3.99764L3.20565 0.791993Z"/></symbol>
  <symbol viewBox="0 0 10 8" id="rd-icon-chevron-double-right"><path d="M0.794355 7.20312L4.00489e-10 6.40877L2.41129 3.99748L4.22004e-07 1.58619L0.794355 0.791834L4 3.99748L0.794355 7.20312Z"/><path d="M6.79435 7.20312L6 6.40877L8.41129 3.99748L6 1.58619L6.79436 0.791834L10 3.99748L6.79435 7.20312Z"/></symbol>
</svg>
