<?xml version="1.0" encoding="UTF-8" standalone="no"?>
<svg width="145px" height="107px" viewBox="0 0 145 107" version="1.1" xmlns="http://www.w3.org/2000/svg" xmlns:xlink="http://www.w3.org/1999/xlink">
    <!-- Generator: Sketch 43.2 (39069) - http://www.bohemiancoding.com/sketch -->
    <title>Group 3</title>
    <desc>Created with Sketch.</desc>
    <defs>
        <path d="M14.2746114,77.6126761 L14.2746114,9.65859922 C14.2746114,8.48790466 15.226448,7.53521127 16.3960898,7.53521127 L128.60391,7.53521127 C129.773552,7.53521127 130.725389,8.48790466 130.725389,9.65859922 L130.725389,77.6126761 L14.2746114,77.6126761 Z" id="path-1"></path>
    </defs>
    <g id="Main-Desktop-Flow" stroke="none" stroke-width="1" fill="none" fill-rule="evenodd">
        <g id="6-options-Sign-Now" transform="translate(-401.000000, -702.000000)">
            <g id="Group-3" transform="translate(401.000000, 702.000000)">
                <g id="Group-2-Copy" transform="translate(0.000000, 15.070423)">
                    <path d="M6.01036269,85.1478873 L138.989637,85.1478873 L138.989637,3.52497505 C138.989637,1.57918882 137.41581,0 135.47349,0 L9.52650973,0 C7.58419011,0 6.01036269,1.57918882 6.01036269,3.52497505 L6.01036269,85.1478873 Z" id="Stroke-3" fill="#E8E8E8"></path>
                    <g id="Fill-5">
                        <use fill="#F5F5F5" fill-rule="evenodd" xlink:href="#path-1"></use>
                        <path stroke="#777777" stroke-width="0.75" d="M14.6496114,77.2376761 L14.6496114,9.65859922 C14.6496114,8.69493595 15.4336304,7.91021127 16.3960898,7.91021127 L128.60391,7.91021127 C129.56637,7.91021127 130.350389,8.69493595 130.350389,9.65859922 L130.350389,77.2376761 L14.6496114,77.2376761 Z"></path>
                    </g>
                    <path d="M27.3501953,26.5685282 L30.0285252,26.5685282 C30.0075186,25.8963165 30.0757891,25.2293665 30.2333387,24.5676582 C30.3908883,23.9059498 30.6482154,23.3125219 31.0053279,22.7873565 C31.3624403,22.2621912 31.8193273,21.8368136 32.3760026,21.5112111 C32.9326779,21.1856086 33.5996279,21.0228097 34.3768726,21.0228097 C34.9650578,21.0228097 35.5217247,21.1173381 36.0468901,21.3063976 C36.5720554,21.4954572 37.0289424,21.768539 37.4175648,22.1256515 C37.8061872,22.4827639 38.1160301,22.9081415 38.3471028,23.4017969 C38.5781756,23.8954524 38.6937102,24.4468677 38.6937102,25.0560595 C38.6937102,25.8333042 38.572924,26.516009 38.331348,27.1041942 C38.0897719,27.6923794 37.7326648,28.2385431 37.260016,28.7427019 C36.7873672,29.2468606 36.1939392,29.7457602 35.4797143,30.2394157 C34.7654895,30.7330711 33.9357406,31.2739833 32.990443,31.8621685 C32.2131983,32.324314 31.4674747,32.817962 30.7532498,33.3431274 C30.0390249,33.8682928 29.3983328,34.4774754 28.8311542,35.1706937 C28.2639756,35.863912 27.7965854,36.6779061 27.4289697,37.6127004 C27.0613539,38.5474947 26.8250331,39.6765833 26.72,41 L41.3090206,41 L41.3090206,38.6367677 L29.8394666,38.6367677 C29.9655063,37.9435494 30.2333366,37.3291152 30.6429656,36.7934465 C31.0525946,36.2577779 31.5462426,35.7588783 32.1239245,35.2967328 C32.7016064,34.8345872 33.3370469,34.3987065 34.0302652,33.9890776 C34.7234835,33.5794486 35.4166913,33.1645742 36.1099096,32.7444419 C36.8031279,32.303303 37.4753295,31.8411644 38.1265345,31.3580123 C38.7777395,30.8748601 39.3554128,30.3339479 39.8595715,29.7352594 C40.3637302,29.1365709 40.7681015,28.4591178 41.0726974,27.7028797 C41.3772933,26.9466416 41.529589,26.0748801 41.529589,25.0875693 C41.529589,24.0372386 41.3457839,23.1129614 40.9781681,22.3147101 C40.6105524,21.5164587 40.1116528,20.8495087 39.4814543,20.3138401 C38.8512559,19.7781714 38.1107839,19.3685486 37.260016,19.0849593 C36.4092481,18.80137 35.5007257,18.6595775 34.5344214,18.6595775 C33.358051,18.6595775 32.3077361,18.8591373 31.383445,19.258263 C30.459154,19.6573886 29.6871725,20.208804 29.0674774,20.9125256 C28.4477823,21.6162472 27.9908953,22.4512475 27.6968027,23.4175518 C27.4027101,24.3838561 27.2871754,25.434171 27.3501953,26.5685282 Z" id="2" fill="#BEBEBE"></path>
                    <path d="M142.173082,91.9295775 L2.07562251,91.9295775 C0.929088172,91.9295775 0,91.059384 0,89.9855282 L0,87.0919366 C0,86.0180808 0.929088172,85.1478873 2.07562251,85.1478873 L142.173082,85.1478873 C143.319616,85.1478873 144.248705,86.0180808 144.248705,87.0919366 L144.248705,89.9855282 C144.248705,91.059384 143.319616,91.9295775 142.173082,91.9295775 Z" id="Stroke-11" fill="#F5F5F5"></path>
                    <path d="M81.1296441,87.0952693 L63.2144344,87.0952693 C62.3189408,87.0952693 61.510194,86.5890263 61.153865,85.8067664 L60.8549223,85.1478873 L83.4891562,85.1478873 L83.1902135,85.8067664 C82.8338845,86.5890263 82.0251377,87.0952693 81.1296441,87.0952693" id="Fill-13" fill="#777777"></path>
                </g>
                <path d="M93.5287491,45.9647887 C93.5287491,45.9647887 79.6999126,63.5068588 51.7001291,64.3134552 C27.3962609,65.0136256 23.6582828,85.1855069 23.6582828,91.9295775" id="Stroke-86" stroke="#9BCB6B" stroke-width="1.5" opacity="0.4" style="mix-blend-mode: multiply;"></path>
                <polygon id="Fill-88" fill="#D0D1D2" style="mix-blend-mode: multiply;" points="99.1709845 15.0704225 84.8963731 15.0704225 78.8860104 16.5774648 92.4093264 24.8661972 92.4093264 43.7042254 99.1709845 36.9225352"></polygon>
                <polygon id="Stroke-90" fill="#9BCB6B" points="81.8911917 16.5774648 94.6632124 24.8661972 144.248705 0"></polygon>
                <polygon id="Stroke-92" fill="#6AA337" points="94.6632124 43.7042254 94.6632124 24.8661972 144.248705 0"></polygon>
                <polygon id="Fill-93" fill="#5B8733" points="94.6632124 43.7042254 144.330809 0.0565140845 103.678756 29.3873239"></polygon>
                <polygon id="Stroke-95" fill="#9BCB6B" points="122.46114 37.6760563 103.678756 29.3873239 144.248705 0"></polygon>
            </g>
        </g>
    </g>
</svg>