<?xml version="1.0" encoding="UTF-8" standalone="no"?>
<svg width="191px" height="169px" viewBox="0 0 191 169" version="1.1" xmlns="http://www.w3.org/2000/svg" xmlns:xlink="http://www.w3.org/1999/xlink">
    <!-- Generator: Sketch 42 (36781) - http://www.bohemiancoding.com/sketch -->
    <title>illustration 1</title>
    <desc>Created with Sketch.</desc>
    <defs>
        <path d="M19,148 L19,58.7876535 C19,57.2507272 20.2587537,56 21.8055431,56 L170.194457,56 C171.741246,56 173,57.2507272 173,58.7876535 L173,148 L19,148 Z" id="path-1"></path>
        <mask id="mask-2" maskContentUnits="userSpaceOnUse" maskUnits="objectBoundingBox" x="0" y="0" width="154" height="92" fill="white">
            <use xlink:href="#path-1"></use>
        </mask>
        <polygon id="path-3" points="36.9895288 54.5882353 156.010471 54.5882353 156.010471 0 36.9895288 0"></polygon>
        <filter x="-50%" y="-50%" width="200%" height="200%" filterUnits="objectBoundingBox" id="filter-4">
            <feOffset dx="0" dy="0" in="SourceAlpha" result="shadowOffsetOuter1"></feOffset>
            <feGaussianBlur stdDeviation="1" in="shadowOffsetOuter1" result="shadowBlurOuter1"></feGaussianBlur>
            <feColorMatrix values="0 0 0 0 0   0 0 0 0 0   0 0 0 0 0  0 0 0 0.25 0" type="matrix" in="shadowBlurOuter1"></feColorMatrix>
        </filter>
        <path d="M24.5623018,25 L24.5548705,25 L24.5548705,25 L6.53221099,24.9465821 C5.8596821,24.9465821 5.22430951,24.7108064 4.74685115,24.2889889 C4.26381935,23.8598035 3.99815186,23.2887843 4.00000968,22.6809251 L4.03345034,9.25460499 C4.03716597,8.00941465 5.17414851,7 6.5712251,7 L6.57679854,7 L24.6013159,7.05157593 C25.2589823,7.05341793 25.883208,7.27814163 26.3569507,7.68522309 L33.2327226,14.3864102 C33.7231856,14.8082276 33.9981422,15.3866148 34,16.007368 C34,16.6262792 33.7250434,17.2028244 33.2252913,17.6338518 L26.3346569,24.3571429 C25.8497673,24.7752763 25.2236838,25 24.5623018,25 Z" id="path-5"></path>
        <mask id="mask-6" maskContentUnits="userSpaceOnUse" maskUnits="objectBoundingBox" x="0" y="0" width="30" height="18" fill="white">
            <use xlink:href="#path-5"></use>
        </mask>
        <path d="M8,25 L24.4700012,25 L24.2493863,23.6868623 C23.4821522,20.8835591 21.2398967,19 18.6706842,19 L13.7310343,19 C11.1618218,19 8.92142399,20.8835591 8.1541899,23.6868623 L8,25 Z" id="path-7"></path>
        <mask id="mask-8" maskContentUnits="userSpaceOnUse" maskUnits="objectBoundingBox" x="0" y="0" width="16.4700012" height="6" fill="white">
            <use xlink:href="#path-7"></use>
        </mask>
        <linearGradient x1="50%" y1="-3.05553374%" x2="50%" y2="103.796507%" id="linearGradient-9">
            <stop stop-color="#85D8EB" offset="0%"></stop>
            <stop stop-color="#FFFFFF" stop-opacity="0" offset="100%"></stop>
        </linearGradient>
    </defs>
    <g id="intro---animation" stroke="none" stroke-width="1" fill="none" fill-rule="evenodd">
        <g id="illustration-welcome" transform="translate(-80.000000, -33.000000)">
            <g id="Group" transform="translate(5.000000, 5.000000)">
                <g id="illustration-1" transform="translate(75.000000, 30.000000)">
                    <path d="M7,156 L184,156 L184,47.6780043 C184,45.0957459 181.905181,43 179.319887,43 L11.680113,43 C9.09481856,43 7,45.0957459 7,47.6780043 L7,156 Z" id="Fill-1" fill="#E8E8E8"></path>
                    <use id="Fill-5" stroke="#777777" mask="url(#mask-2)" stroke-width="2" fill="#F5F5F5" xlink:href="#path-1"></use>
                    <path d="M188.251664,166.06399 L2.74833594,166.06399 C1.23020752,166.06399 0,164.772628 0,163.179032 L0,158.884958 C0,157.291362 1.23020752,156 2.74833594,156 L188.251664,156 C189.769792,156 191,157.291362 191,158.884958 L191,163.179032 C191,164.772628 189.769792,166.06399 188.251664,166.06399" id="Fill-9" fill="#F5F5F5"></path>
                    <path d="M107.872642,159 L84.1273585,159 C82.9404481,159 81.8685142,158.220118 81.3962264,157.015023 L81,156 L111,156 L110.603774,157.015023 C110.131486,158.220118 109.059552,159 107.872642,159" id="Fill-13" fill="#777777"></path>
                    <polygon id="Fill-16" fill="#000000" opacity="0.1" points="31 147 37 147 37 43 31 43"></polygon>
                    <polygon id="Fill-16" fill="#E3E3E3" style="mix-blend-mode: multiply;" opacity="0.9" transform="translate(96.500000, 57.411765) rotate(-90.000000) translate(-96.500000, -57.411765) " points="93.6884817 117.176471 99.3115183 117.176471 99.3115183 -2.35294118 93.6884817 -2.35294118"></polygon>
                    <polygon id="Fill-16-Copy" fill="#E3E3E3" style="mix-blend-mode: multiply;" opacity="0.9" transform="translate(96.500000, 116.705882) rotate(-90.000000) translate(-96.500000, -116.705882) " points="93.6884817 176.470588 99.3115183 176.470588 99.3115183 56.9411765 93.6884817 56.9411765"></polygon>
                    <g id="Fill-18">
                        <use fill="black" fill-opacity="1" filter="url(#filter-4)" xlink:href="#path-3"></use>
                        <use fill="#FEFEFE" fill-rule="evenodd" xlink:href="#path-3"></use>
                    </g>
                    <polygon id="Fill-18-Copy" fill="#FEFEFE" points="36.9895288 113.882353 156.010471 113.882353 156.010471 59.2941176 36.9895288 59.2941176"></polygon>
                    <polygon id="Fill-18-Copy-2" fill="#FEFEFE" points="36.9895288 141.127044 156.010471 141.127044 156.010471 119.529412 36.9895288 119.529412"></polygon>
                    <polygon id="Fill-21" fill="#BFBEBD" points="51.9842932 131.764706 141.015707 131.764706 141.015707 126.117647 51.9842932 126.117647"></polygon>
                    <polygon id="Fill-28" fill="#BFBEBD" points="51.9842932 17.8823529 141.015707 17.8823529 141.015707 12.2352941 51.9842932 12.2352941"></polygon>
                    <polygon id="Fill-28-Copy" fill="#BFBEBD" points="51.9842932 30.1176471 141.015707 30.1176471 141.015707 24.4705882 51.9842932 24.4705882"></polygon>
                    <polygon id="Fill-28-Copy-2" fill="#BFBEBD" points="51.9842932 41.4117647 141.015707 41.4117647 141.015707 35.7647059 51.9842932 35.7647059"></polygon>
                    <polygon id="Fill-28-Copy-3" fill="#BFBEBD" points="51.9842932 71.5294118 141.015707 71.5294118 141.015707 65.8823529 51.9842932 65.8823529"></polygon>
                    <polygon id="Fill-28-Copy-4" fill="#BFBEBD" points="51.9842932 82.8235294 141.015707 82.8235294 141.015707 77.1764706 51.9842932 77.1764706"></polygon>
                    <polygon id="Fill-28-Copy-5" fill="#BFBEBD" points="51.9842932 94.1176471 141.015707 94.1176471 141.015707 88.4705882 51.9842932 88.4705882"></polygon>
                    <polygon id="Fill-28-Copy-6" fill="#BFBEBD" points="51.9842932 105.411765 141.015707 105.411765 141.015707 99.7647059 51.9842932 99.7647059"></polygon>
                    <polygon id="Fill-29" fill="#BFBEBD" points="51.9842932 26.3529412 89.4712042 26.3529412 89.4712042 25.4117647 51.9842932 25.4117647"></polygon>
                    <polygon id="Fill-29-Copy" fill="#BFBEBD" points="98.5287958 82.8235294 136.015707 82.8235294 136.015707 81.8823529 98.5287958 81.8823529"></polygon>
                    <g id="person" transform="translate(22.000000, 113.000000)">
                        <path d="M14.954181,28 L2.22223154,27.9474507 C0.992755534,27.945574 -0.00380731302,26.9959338 1.09354406e-05,25.8285896 L0.0343751716,12.1094801 C0.0362842958,10.9421359 1.03666539,9.99812603 2.26614139,10.0000028 L15,10.0525521 L14.954181,28 Z" id="Fill-78" fill="#E3E3E3" style="mix-blend-mode: multiply;" opacity="0.9"></path>
                        <use id="Stroke-84" stroke="#FFC820" mask="url(#mask-6)" fill="#FFE490" xlink:href="#path-5"></use>
                        <path d="M22.6736376,10.3155484 C22.6736376,15.4607097 19.6132405,19.6310968 15.8368188,19.6310968 C12.0603972,19.6310968 9,15.4607097 9,10.3155484 C9,5.1703871 12.0603972,1 15.8368188,1 C19.6132405,1 22.6736376,5.1703871 22.6736376,10.3155484" id="Fill-86" stroke="#FFC820" stroke-width="0.5" fill="#FFF0C3"></path>
                        <use id="Fill-92" stroke="#FFC820" mask="url(#mask-8)" fill="#FFF1C4" xlink:href="#path-7"></use>
                        <path d="M15.3221293,22.3247097 C13.490004,22.3247097 12,20.8335484 12,19 L12.7777185,19 C12.7777185,20.4050968 13.9181231,21.5463871 15.3221293,21.5463871 C16.7261356,21.5463871 17.8665402,20.4050968 17.8665402,19 L18.6442587,19 C18.6442587,20.8335484 17.1542547,22.3247097 15.3221293,22.3247097" id="Fill-94" fill="#FFC820"></path>
                        <path d="M12.5290729,10.9327097 L12.4860741,10.9327097 C12.2187333,10.9327097 12,10.7156774 12,10.4462581 L12,9.48458065 C12,9.21703226 12.2187333,9 12.4860741,9 L12.5290729,9 C12.7964137,9 13.015147,9.21703226 13.015147,9.48458065 L13.015147,10.4462581 C13.015147,10.7156774 12.7964137,10.9327097 12.5290729,10.9327097" id="Fill-96" fill="#FFC820"></path>
                        <path d="M18.5290729,10.9327097 L18.4860741,10.9327097 C18.2187333,10.9327097 18,10.7156774 18,10.4462581 L18,9.48458065 C18,9.21703226 18.2187333,9 18.4860741,9 L18.5290729,9 C18.7964137,9 19.015147,9.21703226 19.015147,9.48458065 L19.015147,10.4462581 C19.015147,10.7156774 18.7964137,10.9327097 18.5290729,10.9327097" id="Fill-98" fill="#FFC820"></path>
                        <path d="M21.2071313,16.624129 C21.5099928,16.1507742 21.771725,15.6362581 21.9867193,15.0880645 C22.3512749,14.1245161 22.6896572,12.738129 22.6167461,11 L22.6148766,11 L21.9325034,11 C21.9325034,11 21.652076,12.9383226 21.0800042,13.9130968 C20.934182,14.1600645 20.5976692,14.2648387 20.3060247,14.1581935 C19.4460475,13.843871 17.4774475,13.1534839 15.8135786,13.1534839 C14.1478401,13.1534839 12.1811096,13.843871 11.3211324,14.1581935 C11.029488,14.2648387 10.6929752,14.1600645 10.547153,13.9130968 C9.97321164,12.9383226 9.69278429,11 9.69278429,11 L9.01041107,11 L9.01041107,11 C8.93563045,12.738129 9.2758823,14.1263871 9.64043785,15.0899355 C9.85356264,15.6362581 10.1152948,16.1507742 10.4181564,16.624129 C10.4200259,16.624129 10.4256344,16.6147742 10.4368515,16.5998065 C10.438721,16.6222581 10.4443296,16.6428387 10.4461991,16.6652903 C11.6950356,18.5905161 13.6337233,19.8272258 15.8135786,19.8272258 C17.9915644,19.8272258 19.9321216,18.5905161 21.1809581,16.6652903 C21.1828276,16.6428387 21.1865666,16.6222581 21.1884361,16.5998065 C21.1996532,16.6147742 21.2071313,16.624129 21.2071313,16.624129" id="Fill-100" fill="#FFC820"></path>
                        <path d="M17.333414,18.3546452 L14.5328796,18.3546452 C13.9178089,18.3546452 13.3793884,17.9411613 13.21861,17.3480645 L13.0484841,16.7212903 C12.8129251,15.8531613 13.4653861,15 14.3627536,15 L17.50354,15 C18.4009075,15 19.0533684,15.8531613 18.8178095,16.7212903 L18.6476835,17.3480645 C18.4869052,17.9411613 17.9484847,18.3546452 17.333414,18.3546452" id="Fill-102" fill="#FFF0C3"></path>
                        <path d="M9.23407123,13.0525161 L8.73117151,13.0525161 C7.775849,13.0525161 7,12.2741935 7,11.318129 L7,10.7325161 C7,9.77832258 7.775849,9 8.73117151,9 L9.16863818,9 L9.14620399,9.21516129 C9.08637949,9.76896774 9.088249,10.3414839 9.09198803,10.9458065 L9.09198803,11.2863226 C9.09198803,11.7989677 9.12937835,12.3190968 9.20228946,12.829871 L9.23407123,13.0525161 Z" id="Fill-104" fill="#FFF0C3"></path>
                        <path d="M8.73117151,9.38916129 C7.9908433,9.38916129 7.38885926,9.9916129 7.38885926,10.7325161 L7.38885926,11.318129 C7.38885926,12.0609032 7.9908433,12.6633548 8.73117151,12.6633548 L8.7891265,12.6633548 C8.73117151,12.2068387 8.70312877,11.7447097 8.70312877,11.2863226 L8.70312877,10.9476774 C8.70125926,10.4069677 8.69938974,9.89432258 8.74051909,9.38916129 L8.73117151,9.38916129 Z M9.23407123,13.0525161 L8.73117151,13.0525161 C7.775849,13.0525161 7,12.2741935 7,11.318129 L7,10.7325161 C7,9.77832258 7.775849,9 8.73117151,9 L9.16863818,9 L9.14620399,9.21516129 C9.08637949,9.76896774 9.088249,10.3414839 9.09198803,10.9458065 L9.09198803,11.2863226 C9.09198803,11.7989677 9.12937835,12.3190968 9.20228946,12.829871 L9.23407123,13.0525161 Z" id="Fill-104" fill="#FFC820"></path>
                        <path d="M22.5047692,13.0525161 L22,13.0525161 L22.0317818,12.829871 C22.1065624,12.3190968 22.1439527,11.8008387 22.1439527,11.2863226 C22.1439527,11.1010968 22.1458222,10.9196129 22.1476917,10.741871 C22.1533003,10.2292258 22.1589088,9.74277419 22.1140405,9.21141935 L22.0972148,9 L22.5047692,9 C23.4582222,9 24.2359407,9.77832258 24.2359407,10.7343871 L24.2359407,11.32 C24.2359407,12.2741935 23.4582222,13.0525161 22.5047692,13.0525161" id="Path" fill="#FFF0C3"></path>
                        <path d="M22.4468142,12.6633548 L22.5047692,12.6633548 C23.2450974,12.6633548 23.8470815,12.0609032 23.8470815,11.32 L23.8470815,10.7343871 C23.8470815,9.99722581 23.250706,9.39664516 22.5178558,9.38916129 C22.5458986,9.85690323 22.54029,10.2909677 22.536551,10.7456129 C22.532812,10.9233548 22.5309425,11.1010968 22.5309425,11.2863226 C22.5309425,11.7447097 22.5028997,12.2068387 22.4468142,12.6633548 M22.5047692,13.0525161 L22,13.0525161 L22.0317818,12.829871 C22.1065624,12.3190968 22.1439527,11.8008387 22.1439527,11.2863226 C22.1439527,11.1010968 22.1458222,10.9196129 22.1476917,10.741871 C22.1533003,10.2292258 22.1589088,9.74277419 22.1140405,9.21141935 L22.0972148,9 L22.5047692,9 C23.4582222,9 24.2359407,9.77832258 24.2359407,10.7343871 L24.2359407,11.32 C24.2359407,12.2741935 23.4582222,13.0525161 22.5047692,13.0525161" id="Fill-106" fill="#FFC820"></path>
                        <path d="M15.6300292,0.584667599 C12.0502458,0.899947025 10.5937041,4.19937059 10.1220364,5.65557401 C10.0188505,5.68341255 9.93071851,5.70830108 9.858543,5.72927742 C9.71272078,5.77230968 9.59868032,5.89579355 9.55942049,6.05482581 L9.01539143,8.25134194 C8.93313274,8.58437419 9.19299542,8.89495484 9.49959599,8.8276 C10.6829994,8.56566452 13.2909738,8.0736 16.1419852,8.0736 C18.9929966,8.0736 21.6009709,8.56566452 22.7843743,8.8276 C23.0909749,8.89495484 23.3527071,8.58437419 23.2704484,8.25134194 L22.7245498,6.05482581 C22.68529,5.89579355 22.5712496,5.77230968 22.4254273,5.72927742 C22.3626624,5.71103607 22.2878307,5.6898362 22.2015257,5.66631057 C21.7509094,4.21542284 20.3356017,0.899652553 16.7507917,0.584514564 C16.7511031,0.576812719 16.7512603,0.569070305 16.7512603,0.561290323 C16.7512603,0.250709677 16.5007452,0 16.1904056,0 C15.8819355,0 15.6295509,0.250709677 15.6295509,0.561290323 C15.6295509,0.569121836 15.6297114,0.576915281 15.6300292,0.584667599 L15.6300292,0.584667599 Z" id="Combined-Shape" fill="#FFC820"></path>
                        <polygon id="Fill-112" fill="#FFC820" points="9 11.406 9.68798177 11.406 9.68798177 11 9 11"></polygon>
                        <polygon id="Fill-114" fill="#FFC820" points="22 11.406 22.6879818 11.406 22.6879818 11 22 11"></polygon>
                        <path d="M15.6934591,16.3891313 C15.1905594,16.3891313 15.0335201,16.175841 15.0166945,16.1515184 C14.9867822,16.1066152 14.9979993,16.0467442 15.0428677,16.0168087 C15.0877361,15.9868732 15.1475606,15.998099 15.1774728,16.0411313 C15.1812118,16.0467442 15.3008608,16.1945506 15.6934591,16.1945506 C16.0897965,16.1945506 16.2094455,16.0430022 16.2094455,16.0411313 C16.2412272,15.998099 16.3029212,15.9887442 16.3440506,16.0186797 C16.3870494,16.0504861 16.4001361,16.1084861 16.3702238,16.1515184 C16.3533982,16.175841 16.1963588,16.3891313 15.6934591,16.3891313" id="Fill-115" fill="#FFC820"></path>
                    </g>
                    <path d="M37,142.127044 L164,142.127044" id="Line" stroke="#85D8EB" stroke-width="4" stroke-linecap="round" opacity="0"></path>
                    <rect id="Rectangle" fill-opacity="0.5" fill="url(#linearGradient-9)" opacity="0" x="37" y="141.127044" width="127" height="5.64705882"></rect>
                </g>
            </g>
        </g>
    </g>
</svg>