<svg width="30" height="30" viewBox="0 0 30 30" fill="none" xmlns="http://www.w3.org/2000/svg">
<g clip-path="url(#clip0_2551_1415)">
<path d="M15 2.5C8.1 2.5 2.5 8.1 2.5 15C2.5 21.9 8.1 27.5 15 27.5C21.9 27.5 27.5 21.9 27.5 15C27.5 8.1 21.9 2.5 15 2.5ZM15 25C9.4875 25 5 20.5125 5 15C5 9.4875 9.4875 5 15 5C20.5125 5 25 9.4875 25 15C25 20.5125 20.5125 25 15 25ZM12.5 17.75L9.25 14.5L7.5 16.25L12.5 21.25L22.5 11.25L20.75 9.5L12.5 17.75Z" fill="#909090"/>
<path d="M27.5 15C27.5 13.1963 27.1096 11.4139 26.3557 9.77529C25.6018 8.13667 24.5022 6.68063 23.1324 5.50714C21.7626 4.33365 20.155 3.47051 18.4201 2.97699C16.6852 2.48347 14.8641 2.37126 13.0817 2.64807C11.2993 2.92488 9.59798 3.58415 8.09448 4.5806C6.59098 5.57706 5.32093 6.8871 4.37156 8.42077C3.42219 9.95444 2.81597 11.6754 2.59455 13.4655C2.37312 15.2556 2.54172 17.0724 3.08878 18.7912L5.45862 18.0369C5.0204 16.6601 4.88534 15.2047 5.06271 13.7708C5.24009 12.3369 5.72569 10.9583 6.48618 9.72976C7.24666 8.50123 8.26402 7.45183 9.46839 6.65363C10.6728 5.85543 12.0356 5.32733 13.4634 5.10559C14.8911 4.88385 16.3499 4.97374 17.7397 5.36907C19.1294 5.7644 20.4171 6.45581 21.5144 7.39582C22.6116 8.33584 23.4925 9.50219 24.0964 10.8148C24.7003 12.1274 25.013 13.5551 25.013 15H27.5Z" fill="#FF0000"/>
</g>
<defs>
<clipPath id="clip0_2551_1415">
<rect width="30" height="30" fill="white"/>
</clipPath>
</defs>
</svg>
