<svg width="40" height="39" viewBox="0 0 40 39" fill="none" xmlns="http://www.w3.org/2000/svg">
<path d="M19.567 39C30.3365 39 39.067 30.2696 39.067 19.5C39.067 8.73045 30.3365 0 19.567 0C8.7974 0 0.0669556 8.73045 0.0669556 19.5C0.0669556 30.2696 8.7974 39 19.567 39Z" fill="#F02F06"/>
<path d="M16.153 8.172H13.555V11.856H16.153V8.172Z" fill="white"/>
<path d="M7.90187 13.0789L7.08038 15.5436L10.7632 16.7711L11.5847 14.3064L7.90187 13.0789Z" fill="white"/>
<path d="M23.521 27.822H20.923V31.506H23.521V27.822Z" fill="white"/>
<path d="M26.3196 22.9033L25.4973 25.3678L29.1798 26.5964L30.002 24.1319L26.3196 22.9033Z" fill="white"/>
<path d="M24.007 22.092L22.171 20.256L26.281 16.146C27.091 15.336 27.091 14.016 26.281 13.206L25.861 12.786C25.075 11.994 23.701 12 22.921 12.786L18.811 16.896L16.975 15.06L21.085 10.95C22.855 9.18001 25.933 9.18001 27.703 10.95L28.123 11.37C29.947 13.194 29.947 16.164 28.123 17.988L24.007 22.092Z" fill="white"/>
<path d="M13.987 30.174C12.739 30.174 11.563 29.688 10.675 28.8L10.255 28.38C8.43096 26.556 8.43096 23.586 10.255 21.762L14.365 17.652L16.201 19.488L12.091 23.598C11.281 24.408 11.281 25.728 12.091 26.538L12.511 26.958C13.297 27.75 14.671 27.744 15.451 26.958L19.561 22.848L21.397 24.684L17.287 28.794C16.417 29.688 15.241 30.174 13.987 30.174Z" fill="white"/>
</svg>
