<svg width="40" height="39" viewBox="0 0 40 39" fill="none" xmlns="http://www.w3.org/2000/svg">
<path d="M20.246 38.964C31.0056 38.964 39.728 30.2416 39.728 19.482C39.728 8.72239 31.0056 0 20.246 0C9.48642 0 0.764038 8.72239 0.764038 19.482C0.764038 30.2416 9.48642 38.964 20.246 38.964Z" fill="#EF7E19"/>
<path d="M20.516 27.174C20 27.174 19.514 26.946 19.19 26.55L12.554 18.504C11.948 17.772 12.056 16.686 12.788 16.08C13.52 15.474 14.606 15.582 15.212 16.314L20.528 22.758L36.062 4.12199C36.668 3.38999 37.754 3.29399 38.486 3.89999C39.218 4.50599 39.314 5.59199 38.708 6.32399L21.848 26.556C21.512 26.946 21.026 27.174 20.516 27.174Z" fill="white"/>
</svg>
