<svg width="157" height="133" viewBox="0 0 157 133" fill="none" xmlns="http://www.w3.org/2000/svg">
<path d="M81.71 132.6H0.0560303L23.438 0H156.038L141.638 81.654C136.676 109.788 109.844 132.6 81.71 132.6Z" fill="url(#paint0_linear)"/>
<path d="M153.392 15H20.792L23.438 0H156.038L153.392 15Z" fill="url(#paint1_linear)"/>
<path d="M50.534 60.6L47.042 80.4H27.278L30.77 60.6H50.534ZM51.962 59.4H29.762L25.85 81.6H48.05L51.962 59.4Z" fill="white"/>
<path d="M44.8221 93L41.3301 112.8H21.5661L25.0581 93H44.8221ZM46.2501 91.8H24.0501L20.1381 114H42.3381L46.2501 91.8Z" fill="white"/>
<path opacity="0.5" d="M112.808 44.4H68.4081L70.2081 34.2H114.608L112.808 44.4Z" fill="white"/>
<g opacity="0.5">
<path opacity="0.75" d="M115.496 76.8H62.696L64.496 66.6H117.296L115.496 76.8Z" fill="white"/>
</g>
<path opacity="0.5" d="M89.486 108.6H57.086L58.886 98.4H91.286L89.486 108.6Z" fill="white"/>
<path d="M57.674 27H35.474L31.562 49.2H53.762L57.674 27Z" fill="#36A557"/>
<path d="M43.526 47.076L37.508 37.068L40.112 35.286L44.57 42.696L61.418 28.374L63.11 30.426L43.526 47.076Z" fill="white"/>
<path d="M34.3459 9.4193C35.4138 8.4414 35.6156 6.92357 34.7966 6.02911C33.9776 5.13466 32.4479 5.2023 31.38 6.1802C30.312 7.1581 30.1102 8.67593 30.9292 9.57039C31.7482 10.4648 33.2779 10.3972 34.3459 9.4193Z" fill="#7DC3E6"/>
<path d="M44.5458 9.41979C45.6138 8.44189 45.8156 6.92405 44.9966 6.0296C44.1776 5.13515 42.6479 5.20279 41.5799 6.18069C40.5119 7.15858 40.3101 8.67642 41.1291 9.57087C41.9482 10.4653 43.4779 10.3977 44.5458 9.41979Z" fill="#7DC3E6"/>
<path d="M54.7458 9.42021C55.8138 8.44232 56.0156 6.92448 55.1966 6.03003C54.3776 5.13557 52.8479 5.20322 51.7799 6.18111C50.712 7.15901 50.5101 8.67685 51.3292 9.5713C52.1482 10.4658 53.6779 10.3981 54.7458 9.42021Z" fill="#7DC3E6"/>
<defs>
<linearGradient id="paint0_linear" x1="90.9796" y1="-7.04838" x2="90.9796" y2="176.059" gradientUnits="userSpaceOnUse">
<stop offset="0.0372" stop-color="#7DC2E3"/>
<stop offset="1" stop-color="white"/>
</linearGradient>
<linearGradient id="paint1_linear" x1="-15.3891" y1="7.5" x2="238.935" y2="52.3373" gradientUnits="userSpaceOnUse">
<stop offset="0.000376506" stop-color="#3757A6"/>
<stop offset="0.998" stop-color="#93C1E2"/>
</linearGradient>
</defs>
</svg>
