<svg width="230" height="193" viewBox="0 0 230 193" fill="none" xmlns="http://www.w3.org/2000/svg">
<path d="M44.8242 190.64C44.8242 190.64 41.6242 184.728 37.7122 177.496C33.8002 170.272 30.6002 148.152 30.6002 128.352V50.728C30.6002 30.928 46.8002 14.728 66.6002 14.728H170.6C190.4 14.728 206.6 30.928 206.6 50.728V190.64" fill="url(#paint0_linear)"/>
<path d="M201.936 158.472C201.936 158.472 226.576 138.128 228.752 153.76C226.064 159.152 209.16 163.776 201.936 158.472Z" fill="#F4CE36"/>
<path d="M206.208 166.712C206.208 166.712 172.784 145.152 137.96 157.488C115.168 165.56 137.808 179.992 157.032 185.072C161.536 186.264 176.792 189.096 176.792 189.096L173.12 178.664C198.68 182.352 206.208 166.712 206.208 166.712Z" fill="url(#paint1_linear)"/>
<path d="M171.048 189.616C171.296 185.896 156.896 183.192 152.808 181.984C149.336 180.016 141.68 178.04 140.704 179.512C140.336 180.064 139.368 182 141.6 183.096C143.288 186.56 146.08 190.352 149.808 191.352C155.776 192.952 170.8 193.328 171.048 189.616Z" fill="#A77744"/>
<path d="M221.072 148.856C221.072 148.856 231.952 184.424 211.448 189.664C195.192 193.816 153.896 188.272 143.112 172.84C140.128 168.568 143.72 159.272 148.912 159.664C148.912 159.664 192.016 162.984 193.976 162.136C195.944 161.296 193.608 154.984 194.536 152.816C197.728 145.392 221.072 148.856 221.072 148.856Z" fill="url(#paint2_linear)"/>
<path d="M149.248 139.384C149.248 137.344 147.592 135.688 145.552 135.688H127.344L118.192 107.216C117.776 105.928 116.328 104.872 114.976 104.872H104.496C103.144 104.872 102.368 105.928 102.784 107.216L113.216 139.664H128.624H149.248V139.384Z" fill="url(#paint3_linear)"/>
<path d="M178.4 0H108.552V92.12H178.4V0Z" fill="#E1F1F9"/>
<path d="M113.88 92.952H172.072V43.864H113.88V92.952V92.952ZM113.88 10.624V37.664H172.072V10.624H113.88V10.624Z" fill="white"/>
<path d="M127.536 62.448C129.038 62.448 130.256 61.198 130.256 59.656C130.256 58.114 129.038 56.864 127.536 56.864C126.034 56.864 124.816 58.114 124.816 59.656C124.816 61.198 126.034 62.448 127.536 62.448Z" fill="#65BB74"/>
<path d="M126.773 70.5056C128.721 69.7029 129.428 66.9326 128.351 64.3181C127.274 61.7037 124.821 60.235 122.872 61.0377C120.924 61.8405 120.217 64.6107 121.294 67.2252C122.371 69.8397 124.824 71.3084 126.773 70.5056Z" fill="#55B465"/>
<path d="M132.785 72.3536C133.619 69.9492 132.968 67.54 131.332 66.9726C129.695 66.4052 127.693 67.8944 126.859 70.2989C126.026 72.7033 126.676 75.1125 128.313 75.6799C129.949 76.2473 131.951 74.758 132.785 72.3536Z" fill="#32A546"/>
<path d="M134.032 87.504H124.176L121.4 74H136.432L134.032 87.504Z" fill="#F07D19"/>
<path d="M180.992 97.664H105.136V91.84C105.136 89.192 107.288 87.04 109.936 87.04H180.992V97.664Z" fill="#D1EAF6"/>
<path d="M184.456 107.808C184.696 135.584 192.712 157.768 192.712 157.768C210.112 168.024 225.648 139.84 228.752 153.944C231.16 132.296 223 111.336 192.2 98.056C192.2 98.048 184.792 106.208 184.456 107.808Z" fill="url(#paint4_linear)"/>
<path d="M185.016 131.656C185.016 131.656 171.304 124.464 157.728 123.888C149.112 123.52 151.544 129.128 154.864 129.24C163.08 129.528 179.8 141.824 184.192 141.552C188.592 141.272 185.016 131.656 185.016 131.656Z" fill="#A77744"/>
<path d="M159.264 123.968C151.304 122.192 141.728 123.848 136.744 131.808C136.504 132.192 136.688 132.704 137.112 132.872L137.4 132.984C138.384 133.368 139.504 133.224 140.344 132.592C140.344 132.592 143.88 128.96 144.64 129.376C144.64 129.376 143.16 131.368 142.08 132.888C141.904 133.136 142.152 133.312 142.456 133.328C144.568 133.456 146.336 130.488 147.672 130.408C149.232 130.312 153.12 134.136 159.72 130.832C166.32 127.528 163.08 124.824 159.264 123.968Z" fill="#A77744"/>
<path d="M195.576 112.352C195.576 121.136 196.8 127.488 195.328 129.192C193.864 130.904 172.824 126.184 172.824 126.184L168.376 139.168C168.376 139.168 183.864 153.584 200.696 152.384C217.528 151.184 212.168 121.136 209.976 114.304C207.784 107.472 195.576 103.56 195.576 112.352Z" fill="url(#paint5_linear)"/>
<path d="M87.7201 122.192V124.704H85.9521C84.0801 124.704 82.5601 125.92 82.5601 127.408V130.504C82.5601 133 84.3201 134.96 86.5601 134.96H87.7281C87.8721 137.48 89.9601 139.48 92.5121 139.48H96.6881C99.3361 139.48 101.488 137.328 101.488 134.68V122.192H87.7201ZM84.4161 130.496V127.4C84.4161 126.72 85.1041 126.168 85.9601 126.168H87.7281V133.472H86.5681C85.5441 133.48 84.4161 132.256 84.4161 130.496Z" fill="white"/>
<g opacity="0.47">
<path opacity="0.47" d="M91.2082 103.056C91.0722 103.056 90.9362 102.984 90.8642 102.864C84.5842 92.296 84.9842 85.568 86.4162 81.784C86.4962 81.576 86.7282 81.48 86.9362 81.552C87.1442 81.632 87.2482 81.864 87.1682 82.072C85.7922 85.688 85.4402 92.168 91.5522 102.456C91.6642 102.648 91.6002 102.888 91.4162 103.008C91.3522 103.04 91.2802 103.056 91.2082 103.056Z" fill="white"/>
</g>
<g opacity="0.47">
<path opacity="0.47" d="M87.7762 80.344C87.7042 80.344 87.6322 80.328 87.5682 80.28C87.3842 80.16 87.3202 79.912 87.4402 79.728C88.5922 77.888 89.8322 77.08 89.8802 77.048C90.0642 76.928 90.3122 76.984 90.4322 77.168C90.5522 77.352 90.4962 77.6 90.3122 77.72C90.3042 77.728 89.1602 78.472 88.1202 80.152C88.0402 80.28 87.9042 80.344 87.7762 80.344Z" fill="white"/>
</g>
<g opacity="0.47">
<path opacity="0.47" d="M90.7603 119.424C90.6563 119.424 90.5523 119.384 90.4723 119.304C90.3203 119.144 90.3203 118.896 90.4803 118.736C91.6883 117.568 92.9363 116.28 93.9123 114.792C94.0323 114.608 94.2803 114.56 94.4643 114.672C94.6483 114.792 94.7043 115.04 94.5843 115.224C93.5683 116.784 92.2803 118.104 91.0403 119.304C90.9603 119.392 90.8643 119.424 90.7603 119.424Z" fill="white"/>
</g>
<g opacity="0.47">
<path opacity="0.47" d="M97.6323 113.368C97.6003 113.368 97.5683 113.368 97.5443 113.36C97.3283 113.312 97.1923 113.096 97.2483 112.88C97.4883 111.856 97.5363 110.84 97.4083 109.768C97.0163 106.552 95.1523 103.488 93.3443 100.52C92.2163 98.664 91.0483 96.736 90.2403 94.792C89.3923 92.728 89.2723 90.992 89.1523 89.144C89.1043 88.416 89.0563 87.664 88.9523 86.88C88.9283 86.664 89.0803 86.464 89.2963 86.432C89.5043 86.4 89.7123 86.56 89.7443 86.776C89.8483 87.584 89.8963 88.344 89.9443 89.088C90.0643 90.864 90.1763 92.544 90.9683 94.48C91.7443 96.368 92.8963 98.264 94.0163 100.096C95.8643 103.136 97.7763 106.28 98.1843 109.664C98.3283 110.816 98.2643 111.96 98.0083 113.056C97.9763 113.248 97.8163 113.368 97.6323 113.368Z" fill="white"/>
</g>
<path d="M74.1842 190.64H71.1442L86.6882 158.216H95.2002L74.1842 190.64Z" fill="url(#paint6_linear)"/>
<path d="M173.064 190.64H176.096L172 158.216H163.48L173.064 190.64Z" fill="url(#paint7_linear)"/>
<path d="M179.008 161.064H79.9203C77.0323 161.064 75.1123 158.728 75.6163 155.84L78.5203 139.352H188.056L185.152 155.84C184.648 158.728 181.896 161.064 179.008 161.064Z" fill="url(#paint8_linear)"/>
<path d="M192.968 98.736C192.504 97.736 188.064 95.76 183.224 88.232C182.096 88.392 176.12 93.464 176.344 93.8C182.288 104.152 187.84 115.448 187.84 115.448C187.84 115.448 190.808 107.664 192.968 98.736Z" fill="#A77744"/>
<path d="M181.752 97.216L179.336 99.264L181.472 103.24L181.752 97.216Z" fill="#7D5933"/>
<path d="M164.056 86.032C164.184 88.352 165.032 91.816 166.824 95.344C168.832 99.304 172.144 103.024 175.512 102.088C177.384 101.568 181.704 98.288 182.608 92.88C183.328 88.568 181.224 82.248 178.784 79.76C173.288 74.152 163.784 81.104 164.056 86.032Z" fill="#A77744"/>
<path d="M164.08 85.704C164.08 85.704 161.512 85.52 161 84.848C160.488 84.184 160.856 83.632 161.216 82.952C161.576 82.272 159.816 81.024 160.8 80.264C161.784 79.504 162.312 79.896 162.792 79.336C163.272 78.776 163.048 77.48 164.008 77.032C164.968 76.592 165.56 77.224 166.128 76.776C166.696 76.328 166.52 74.704 167.92 74.512C169.32 74.32 169.72 74.736 170.552 74.52C171.384 74.304 172.336 72.512 173.296 72.976C174.256 73.44 174.392 73.976 175.048 74.192C175.704 74.408 176.696 73.472 177.064 73.76C177.432 74.048 177.6 75.632 178.272 75.896C178.944 76.16 180.16 75.712 180.608 76.288C181.056 76.864 180.656 78.368 181.024 78.976C181.392 79.584 182.688 78.856 183.088 79.896C183.488 80.936 182.768 82.272 182.864 83.192C182.96 84.112 182.864 85.256 182.32 85.616C179.312 85.016 176.736 81.44 174.944 80.944C173.168 80.456 166.624 82.688 164.08 85.704Z" fill="#0B2D4C"/>
<path d="M179.512 87.424C178.624 84.512 181.496 80.936 183.68 83.312C185.872 85.68 184.152 90.456 182.24 91.096C180.336 91.744 179.512 87.424 179.512 87.424Z" fill="#A77744"/>
<path d="M167.304 89.968C167.24 89.968 167.184 89.952 167.128 89.928C166.928 89.832 166.848 89.592 166.952 89.392C167.808 87.68 169.656 87.736 170.504 88C170.712 88.064 170.832 88.288 170.768 88.496C170.704 88.704 170.48 88.824 170.272 88.76C170.2 88.736 168.44 88.224 167.672 89.744C167.592 89.888 167.456 89.968 167.304 89.968Z" fill="#0B2D4C"/>
<path d="M172.504 88.448C172.858 88.448 173.144 88.1615 173.144 87.808C173.144 87.4545 172.858 87.168 172.504 87.168C172.151 87.168 171.864 87.4545 171.864 87.808C171.864 88.1615 172.151 88.448 172.504 88.448Z" fill="#0B2D4C"/>
<path d="M165.991 90.6545C166.241 90.5129 166.302 90.1488 166.128 89.8413C165.954 89.5337 165.61 89.3992 165.36 89.5407C165.11 89.6823 165.049 90.0464 165.223 90.3539C165.398 90.6615 165.741 90.796 165.991 90.6545Z" fill="#0B2D4C"/>
<path d="M173.328 91.312C173.04 91.312 172.76 91.272 172.48 91.192C171.592 90.952 170.864 90.352 170.416 89.512C169.52 87.824 170.08 85.68 171.672 84.72C172.432 84.256 173.32 84.136 174.176 84.368C175.056 84.616 175.792 85.208 176.24 86.048C177.136 87.736 176.576 89.88 174.984 90.84C174.472 91.152 173.904 91.312 173.328 91.312ZM173.32 85.056C172.888 85.056 172.464 85.176 172.08 85.408C170.848 86.152 170.416 87.824 171.12 89.136C171.464 89.784 172.024 90.24 172.696 90.424C173.328 90.6 174 90.504 174.568 90.16C175.8 89.416 176.232 87.744 175.528 86.432C175.184 85.784 174.624 85.328 173.952 85.144C173.744 85.088 173.536 85.056 173.32 85.056Z" fill="#0B2D4C"/>
<path d="M165.584 93.76C164.376 93.76 163.168 92.752 162.712 91.248C162.456 90.416 162.464 89.552 162.736 88.816C163.016 88.04 163.56 87.496 164.248 87.288C164.936 87.08 165.688 87.224 166.36 87.704C166.992 88.16 167.488 88.872 167.744 89.704C168.28 91.464 167.592 93.24 166.208 93.672C166 93.728 165.792 93.76 165.584 93.76ZM164.872 87.992C164.736 87.992 164.608 88.008 164.48 88.048C164.032 88.184 163.68 88.552 163.48 89.088C163.272 89.664 163.264 90.344 163.472 91.016C163.88 92.352 165.008 93.208 165.968 92.912C166.936 92.616 167.384 91.288 166.976 89.944C166.768 89.28 166.384 88.712 165.888 88.352C165.56 88.112 165.208 87.992 164.872 87.992Z" fill="#0B2D4C"/>
<path d="M170.48 94.216C170.384 94.216 170.296 94.208 170.208 94.192C169.84 94.128 169.536 93.92 169.336 93.592C168.68 92.544 168.704 90.456 168.704 90.368C168.704 90.152 168.888 89.976 169.104 89.976C169.104 89.976 169.104 89.976 169.112 89.976C169.336 89.976 169.512 90.16 169.504 90.384C169.496 90.92 169.576 92.464 170.016 93.168C170.104 93.304 170.2 93.376 170.352 93.4C170.904 93.496 171.792 92.928 172.064 92.728C172.24 92.592 172.488 92.624 172.624 92.8C172.76 92.976 172.728 93.224 172.552 93.36C172.424 93.456 171.408 94.216 170.48 94.216Z" fill="#0B2D4C"/>
<path d="M175.336 93.304C175.336 93.304 172.872 95.368 171.048 96.024C171.048 96.024 172.904 97.928 174.584 96.696C176.256 95.464 175.336 93.304 175.336 93.304Z" fill="white"/>
<path d="M28.4081 186.24C22.0801 192.768 -8.72788 183.064 2.40812 165.888C12.6321 150.112 7.28012 145.608 1.33612 142.52C15.6801 139.416 19.7441 150.992 12.5441 165.992C9.28812 172.768 3.47212 178.84 28.4081 186.24Z" fill="url(#paint9_linear)"/>
<path d="M65.9442 114.544C68.7042 113.96 71.8242 114.24 73.7282 115.744C75.4242 117.088 76.0162 119.128 74.1202 121.648L71.9042 116.92L65.9442 114.544Z" fill="#F07D19"/>
<path d="M48.7761 100.44C58.0081 94.992 67.7201 106.592 67.7201 106.592L72.7841 105.328C73.9361 105.04 74.9921 106.064 74.7361 107.224L74.6801 107.464C74.0561 110.296 71.6001 112.352 68.6961 112.472L62.0321 112.744L72.2161 117.008C71.2001 120.232 66.8001 119.784 61.7041 119.224C61.7041 119.224 68.7841 131.552 65.9441 144.816C63.1041 158.072 55.2321 175.968 62.4481 190.648H56.8801C56.8801 190.648 51.7281 179.12 50.9041 168.632C49.1441 170.368 45.6641 173.096 43.3521 174.44C45.3601 179.648 47.8481 184.072 47.8481 190.304L23.0721 190.656C20.6881 182.936 7.42408 167.6 24.4241 148.296C30.3841 141.528 40.5921 136.016 45.4641 129.576C54.8881 117.08 48.7761 100.44 48.7761 100.44Z" fill="url(#paint10_linear)"/>
<path d="M48.7761 100.44L40.5521 117.456C39.5361 119.56 41.0401 121.976 43.3681 122.048C50.3121 122.256 61.0801 119.928 48.7761 100.44Z" fill="url(#paint11_linear)"/>
<path d="M72.752 105.376L70.48 105.976C70.48 105.976 71.072 109.144 74.352 108.512C74.488 108.176 74.6 107.824 74.68 107.464L74.728 107.264C74.984 106.096 73.912 105.072 72.752 105.376Z" fill="#002D4B"/>
<defs>
<linearGradient id="paint0_linear" x1="118.606" y1="185.756" x2="118.606" y2="-48.9861" gradientUnits="userSpaceOnUse">
<stop stop-color="#7DC3E6"/>
<stop offset="1" stop-color="white"/>
</linearGradient>
<linearGradient id="paint1_linear" x1="161.498" y1="210.431" x2="171.145" y2="136.929" gradientUnits="userSpaceOnUse">
<stop offset="0.000376506" stop-color="#1A55AA"/>
<stop offset="0.998" stop-color="#7DC3E6"/>
</linearGradient>
<linearGradient id="paint2_linear" x1="269.349" y1="170.867" x2="92.2738" y2="167.243" gradientUnits="userSpaceOnUse">
<stop offset="0.000376506" stop-color="#1A55AA"/>
<stop offset="0.998" stop-color="#7DC3E6"/>
</linearGradient>
<linearGradient id="paint3_linear" x1="125.956" y1="103.3" x2="125.956" y2="150.191" gradientUnits="userSpaceOnUse">
<stop offset="0.00203791" stop-color="#7EC2E4"/>
<stop offset="0.9996" stop-color="#3258A1"/>
</linearGradient>
<linearGradient id="paint4_linear" x1="185.565" y1="94.6451" x2="230.938" y2="187.468" gradientUnits="userSpaceOnUse">
<stop stop-color="#F4CE36"/>
<stop offset="0.998" stop-color="white"/>
</linearGradient>
<linearGradient id="paint5_linear" x1="212.8" y1="98.6378" x2="184.131" y2="148.935" gradientUnits="userSpaceOnUse">
<stop stop-color="#F4CE36"/>
<stop offset="0.998" stop-color="white"/>
</linearGradient>
<linearGradient id="paint6_linear" x1="68.4285" y1="201.006" x2="97.2522" y2="123.734" gradientUnits="userSpaceOnUse">
<stop offset="0.00203791" stop-color="#7EC2E4"/>
<stop offset="0.9996" stop-color="#3258A1"/>
</linearGradient>
<linearGradient id="paint7_linear" x1="172.988" y1="223.429" x2="159.837" y2="166.651" gradientUnits="userSpaceOnUse">
<stop offset="0.00203791" stop-color="#7EC2E4"/>
<stop offset="0.9996" stop-color="#3258A1"/>
</linearGradient>
<linearGradient id="paint8_linear" x1="146.5" y1="106.13" x2="146.5" y2="188.154" gradientUnits="userSpaceOnUse">
<stop stop-color="#7DC3E6"/>
<stop offset="1" stop-color="white"/>
</linearGradient>
<linearGradient id="paint9_linear" x1="-3.899" y1="150.645" x2="78.7622" y2="233.307" gradientUnits="userSpaceOnUse">
<stop offset="0.00203791" stop-color="#7EC2E4"/>
<stop offset="0.9996" stop-color="#3258A1"/>
</linearGradient>
<linearGradient id="paint10_linear" x1="52.936" y1="77.2451" x2="35.4123" y2="214.608" gradientUnits="userSpaceOnUse">
<stop offset="0.00203791" stop-color="#7EC2E4"/>
<stop offset="0.9996" stop-color="#3258A1"/>
</linearGradient>
<linearGradient id="paint11_linear" x1="60.7745" y1="90.5764" x2="37.5055" y2="135.979" gradientUnits="userSpaceOnUse">
<stop offset="0.00203791" stop-color="#7EC2E4"/>
<stop offset="0.9996" stop-color="#3258A1"/>
</linearGradient>
</defs>
</svg>
