<svg width="51" height="51" viewBox="0 0 51 51" fill="none" xmlns="http://www.w3.org/2000/svg">
<mask id="mask0" mask-type="alpha" maskUnits="userSpaceOnUse" x="0" y="0" width="51" height="51">
<path fill-rule="evenodd" clip-rule="evenodd" d="M32.5254 22.142C32.8558 22.142 33.124 21.8706 33.124 21.5434C33.124 21.2081 32.8558 20.9447 32.5254 20.9447H22.9475C22.617 20.9447 22.3488 21.2081 22.3488 21.5434V29.5249C22.3488 29.8522 22.617 30.1236 22.9475 30.1236H34.1217C34.4521 30.1236 34.7203 29.8522 34.7203 29.5249V25.5341C34.7203 25.1989 34.4521 24.9355 34.1217 24.9355C33.7912 24.9355 33.5231 25.1989 33.5231 25.5341V28.9263H23.5461V22.142H32.5254ZM18.9567 41.6968C18.6262 41.6968 18.3581 41.9602 18.3581 42.2955C18.3581 42.6227 18.6262 42.8941 18.9567 42.8941H27.7364C28.0669 42.8941 28.335 42.6227 28.335 42.2955C28.335 41.9602 28.0669 41.6968 27.7364 41.6968H18.9567ZM33.124 35.9102C33.124 35.575 32.8558 35.3116 32.5254 35.3116H18.9567C18.6262 35.3116 18.3581 35.575 18.3581 35.9102C18.3581 36.2374 18.6262 36.5088 18.9567 36.5088H32.5254C32.8558 36.5088 33.124 36.2374 33.124 35.9102ZM18.7571 18.3507V16.7544C18.7571 16.4192 18.489 16.1558 18.1585 16.1558C13.4278 16.1558 9.57832 20.0029 9.57832 24.736V49.6784H1.19766V9.37145H34.1217C34.4521 9.37145 34.7203 9.10007 34.7203 8.77283C34.7203 8.4376 34.4521 8.17421 34.1217 8.17421H0.599041C0.268603 8.17421 0.000421953 8.4376 0.000421953 8.77283V50.2771C0.000421953 50.6043 0.268603 50.8757 0.599041 50.8757H10.1769C10.5074 50.8757 10.7756 50.6043 10.7756 50.2771V24.736C10.7756 20.8649 13.7678 17.6803 17.5599 17.377V18.3507C17.5599 20.9926 15.776 23.2993 13.2203 23.9538C12.9011 24.0336 12.7079 24.3609 12.7901 24.6801C12.8723 24.9994 13.1972 25.1989 13.5188 25.1111C16.6037 24.3209 18.7571 21.5354 18.7571 18.3507ZM45.2955 0.192627H5.38757C2.41682 0.192627 0 2.61105 0 5.58019C0 5.90744 0.268181 6.17881 0.598619 6.17881C0.929056 6.17881 1.19724 5.90744 1.19724 5.58019C1.19724 3.26554 3.0769 1.38986 5.38757 1.38986H45.2955C47.6061 1.38986 49.4858 3.26554 49.4858 5.58019V49.6784H41.1051V16.7544C41.1051 16.4192 40.837 16.1558 40.5065 16.1558H22.947C22.6166 16.1558 22.3484 16.4192 22.3484 16.7544C22.3484 17.0817 22.6166 17.353 22.947 17.353H39.9079V49.6784H14.9655C14.635 49.6784 14.3668 49.9418 14.3668 50.2771C14.3668 50.6043 14.635 50.8757 14.9655 50.8757H50.0844C50.4149 50.8757 50.683 50.6043 50.683 50.2771V5.58019C50.683 2.61105 48.267 0.192627 45.2955 0.192627ZM11.7733 4.78204C11.7733 4.34305 11.4165 3.98388 10.9751 3.98388C10.5345 3.98388 10.1769 4.34305 10.1769 4.78204C10.1769 5.22102 10.5345 5.58019 10.9751 5.58019C11.4165 5.58019 11.7733 5.22102 11.7733 4.78204ZM8.58062 4.78204C8.58062 4.34305 8.22384 3.98388 7.78246 3.98388C7.34188 3.98388 6.98431 4.34305 6.98431 4.78204C6.98431 5.22102 7.34188 5.58019 7.78246 5.58019C8.22384 5.58019 8.58062 5.22102 8.58062 4.78204ZM5.38799 4.78204C5.38799 4.34305 5.03121 3.98388 4.58983 3.98388C4.14925 3.98388 3.79167 4.34305 3.79167 4.78204C3.79167 5.22102 4.14925 5.58019 4.58983 5.58019C5.03121 5.58019 5.38799 5.22102 5.38799 4.78204Z" fill="white"/>
</mask>
<g mask="url(#mask0)">
<path fill-rule="evenodd" clip-rule="evenodd" d="M32.5254 22.142C32.8558 22.142 33.124 21.8706 33.124 21.5434C33.124 21.2081 32.8558 20.9447 32.5254 20.9447H22.9475C22.617 20.9447 22.3488 21.2081 22.3488 21.5434V29.5249C22.3488 29.8522 22.617 30.1236 22.9475 30.1236H34.1217C34.4521 30.1236 34.7203 29.8522 34.7203 29.5249V25.5341C34.7203 25.1989 34.4521 24.9355 34.1217 24.9355C33.7912 24.9355 33.5231 25.1989 33.5231 25.5341V28.9263H23.5461V22.142H32.5254ZM18.9567 41.6968C18.6262 41.6968 18.3581 41.9602 18.3581 42.2955C18.3581 42.6227 18.6262 42.8941 18.9567 42.8941H27.7364C28.0669 42.8941 28.335 42.6227 28.335 42.2955C28.335 41.9602 28.0669 41.6968 27.7364 41.6968H18.9567ZM33.124 35.9102C33.124 35.575 32.8558 35.3116 32.5254 35.3116H18.9567C18.6262 35.3116 18.3581 35.575 18.3581 35.9102C18.3581 36.2374 18.6262 36.5088 18.9567 36.5088H32.5254C32.8558 36.5088 33.124 36.2374 33.124 35.9102ZM18.7571 18.3507V16.7544C18.7571 16.4192 18.489 16.1558 18.1585 16.1558C13.4278 16.1558 9.57832 20.0029 9.57832 24.736V49.6784H1.19766V9.37145H34.1217C34.4521 9.37145 34.7203 9.10007 34.7203 8.77283C34.7203 8.4376 34.4521 8.17421 34.1217 8.17421H0.599041C0.268603 8.17421 0.000421953 8.4376 0.000421953 8.77283V50.2771C0.000421953 50.6043 0.268603 50.8757 0.599041 50.8757H10.1769C10.5074 50.8757 10.7756 50.6043 10.7756 50.2771V24.736C10.7756 20.8649 13.7678 17.6803 17.5599 17.377V18.3507C17.5599 20.9926 15.776 23.2993 13.2203 23.9538C12.9011 24.0336 12.7079 24.3609 12.7901 24.6801C12.8723 24.9994 13.1972 25.1989 13.5188 25.1111C16.6037 24.3209 18.7571 21.5354 18.7571 18.3507ZM45.2955 0.192627H5.38757C2.41682 0.192627 0 2.61105 0 5.58019C0 5.90744 0.268181 6.17881 0.598619 6.17881C0.929056 6.17881 1.19724 5.90744 1.19724 5.58019C1.19724 3.26554 3.0769 1.38986 5.38757 1.38986H45.2955C47.6061 1.38986 49.4858 3.26554 49.4858 5.58019V49.6784H41.1051V16.7544C41.1051 16.4192 40.837 16.1558 40.5065 16.1558H22.947C22.6166 16.1558 22.3484 16.4192 22.3484 16.7544C22.3484 17.0817 22.6166 17.353 22.947 17.353H39.9079V49.6784H14.9655C14.635 49.6784 14.3668 49.9418 14.3668 50.2771C14.3668 50.6043 14.635 50.8757 14.9655 50.8757H50.0844C50.4149 50.8757 50.683 50.6043 50.683 50.2771V5.58019C50.683 2.61105 48.267 0.192627 45.2955 0.192627ZM11.7733 4.78204C11.7733 4.34305 11.4165 3.98388 10.9751 3.98388C10.5345 3.98388 10.1769 4.34305 10.1769 4.78204C10.1769 5.22102 10.5345 5.58019 10.9751 5.58019C11.4165 5.58019 11.7733 5.22102 11.7733 4.78204ZM8.58062 4.78204C8.58062 4.34305 8.22384 3.98388 7.78246 3.98388C7.34188 3.98388 6.98431 4.34305 6.98431 4.78204C6.98431 5.22102 7.34188 5.58019 7.78246 5.58019C8.22384 5.58019 8.58062 5.22102 8.58062 4.78204ZM5.38799 4.78204C5.38799 4.34305 5.03121 3.98388 4.58983 3.98388C4.14925 3.98388 3.79167 4.34305 3.79167 4.78204C3.79167 5.22102 4.14925 5.58019 4.58983 5.58019C5.03121 5.58019 5.38799 5.22102 5.38799 4.78204Z" fill="url(#paint0_linear)"/>
</g>
<defs>
<linearGradient id="paint0_linear" x1="-0.313038" y1="54.0665" x2="56.7517" y2="54.0665" gradientUnits="userSpaceOnUse">
<stop stop-color="#7DBCD7"/>
<stop offset="1" stop-color="#244D90"/>
</linearGradient>
</defs>
</svg>
