<svg width="58" height="50" viewBox="0 0 58 50" fill="none" xmlns="http://www.w3.org/2000/svg">
<mask id="mask0" mask-type="alpha" maskUnits="userSpaceOnUse" x="0" y="0" width="58" height="50">
<path fill-rule="evenodd" clip-rule="evenodd" d="M39.9837 26.778C40.0931 26.9775 40.2974 27.0893 40.5073 27.0893C40.6055 27.0893 40.7052 27.0653 40.7978 27.0094L50.8546 21.4223C51.0446 21.3186 51.1619 21.119 51.1619 20.9035C51.1619 20.688 51.0446 20.4805 50.8546 20.3767L40.7978 14.7896C40.5089 14.63 40.1441 14.7338 39.9837 15.0211C39.8225 15.3164 39.927 15.6756 40.216 15.8352L49.3309 20.9035L40.216 25.9638C39.927 26.1235 39.8225 26.4906 39.9837 26.778ZM6.2169 45.0478C5.88647 45.0478 5.61828 45.3112 5.61828 45.6464C5.61828 45.9737 5.88647 46.245 6.2169 46.245H7.94891C8.27934 46.245 8.54753 45.9737 8.54753 45.6464C8.54753 45.3112 8.27934 45.0478 7.94891 45.0478H6.2169ZM11.7728 24.2957H2.19493C0.984927 24.2957 0 25.2774 0 26.4906V47.2427C0 48.448 0.984927 49.4377 2.19493 49.4377H11.7728C12.9836 49.4377 13.9678 48.448 13.9678 47.2427V31.2796C13.9678 30.9444 13.6996 30.681 13.3691 30.681C13.0387 30.681 12.7705 30.9444 12.7705 31.2796V47.2427C12.7705 47.7935 12.3236 48.2404 11.7728 48.2404H2.19493C1.645 48.2404 1.19724 47.7935 1.19724 47.2427V26.4906C1.19724 25.9399 1.645 25.4929 2.19493 25.4929H11.7728C12.3236 25.4929 12.7705 25.9399 12.7705 26.4906V27.4883H5.38757C5.05713 27.4883 4.78895 27.7517 4.78895 28.087C4.78895 28.4142 5.05713 28.6856 5.38757 28.6856H13.3691C13.6996 28.6856 13.9678 28.4142 13.9678 28.087V26.4906C13.9678 25.2774 12.9836 24.2957 11.7728 24.2957ZM25.3429 23.1543H23.5782C23.4082 23.1543 23.322 23.2342 23.322 23.4018V24.1361C23.322 25.461 23.7482 26.5465 24.6014 27.4005C25.4538 28.2466 26.6391 28.7734 28.158 28.9729L28.2602 29.0767L28.2338 30.8645C28.2338 31.0322 28.3184 31.112 28.4892 31.112H30.1781C30.3481 31.112 30.4343 31.0322 30.4343 30.8645L30.408 29.1006L30.5102 28.9969C32.0115 28.8292 33.184 28.3184 34.0285 27.4724C34.8721 26.6263 35.2943 25.5488 35.2943 24.2398C35.2943 23.282 35.0597 22.4759 34.5904 21.8294C34.1218 21.1829 33.5336 20.6641 32.8256 20.265C32.1185 19.8739 31.1846 19.4429 30.0249 18.972C28.9155 18.533 28.0933 18.1738 27.5554 17.9025C27.0182 17.6231 26.6096 17.3038 26.3278 16.9527C26.0469 16.6015 25.9064 16.1465 25.9064 15.5958C25.9064 14.7896 26.1786 14.1671 26.7253 13.7441C27.2704 13.3131 28.0463 13.0975 29.0527 13.0975C30.246 13.0975 31.1758 13.3929 31.8407 13.9675C32.5056 14.5502 32.8384 15.2765 32.8384 16.1465V16.5296C32.8384 16.6972 32.9238 16.7771 33.0946 16.7771H34.8849C35.0557 16.7771 35.1403 16.6972 35.1403 16.5296V16.0188C35.1403 14.6939 34.7189 13.5924 33.8744 12.7224C33.0308 11.8524 31.875 11.3097 30.408 11.1101L30.3058 10.9824L30.3314 9.01896C30.3314 8.85135 30.246 8.76355 30.076 8.76355H28.4134C28.2426 8.76355 28.158 8.85135 28.158 9.01896L28.1827 10.9585L28.0806 11.0622C26.699 11.2458 25.6071 11.7327 24.8065 12.5309C24.0044 13.329 23.6037 14.3666 23.6037 15.6437C23.6037 16.6015 23.8296 17.3916 24.2821 18.0222C24.7331 18.6527 25.3006 19.1635 25.983 19.5467C26.6646 19.9378 27.6025 20.3608 28.7965 20.8317C29.8708 21.2707 30.6898 21.6458 31.2525 21.9571C31.8152 22.2684 32.2414 22.6036 32.5311 22.9787C32.8208 23.3459 32.9661 23.7929 32.9661 24.3117C32.9661 25.1018 32.6804 25.7404 32.1097 26.2272C31.5374 26.7141 30.6985 26.9536 29.5899 26.9536C28.3623 26.9536 27.3902 26.6822 26.6734 26.1235C25.9575 25.5728 25.5999 24.8624 25.5999 24.0084V23.4018C25.5999 23.2342 25.5137 23.1543 25.3429 23.1543ZM52.4547 0.18335H7.75788C5.22772 0.18335 3.16847 2.2426 3.16847 4.77276V21.8214C3.16847 22.1566 3.43665 22.42 3.76709 22.42C4.09753 22.42 4.36571 22.1566 4.36571 21.8214V4.77276C4.36571 2.90507 5.88779 1.38059 7.75788 1.38059H52.4547C54.3248 1.38059 55.8469 2.90507 55.8469 4.77276V17.5433C55.8469 17.8785 56.1151 18.1419 56.4455 18.1419C56.776 18.1419 57.0441 17.8785 57.0441 17.5433V4.77276C57.0441 2.2426 54.9857 0.18335 52.4547 0.18335ZM56.4455 24.9263C56.1151 24.9263 55.8469 25.1976 55.8469 25.5249V35.1028C55.8469 36.9784 54.3248 38.4949 52.4547 38.4949H24.5192C22.4288 38.4949 20.7279 40.195 20.7279 42.2862V44.8802H17.4842C16.6318 44.8802 15.939 45.5746 15.939 46.4286V47.7296C15.939 48.5757 16.6318 49.2701 17.4842 49.2701H40.3347C41.1863 49.2701 41.8791 48.5757 41.8791 47.7296V46.4286C41.8791 45.5746 41.1863 44.8802 40.3347 44.8802H38.0879C37.7574 44.8802 37.4893 45.1516 37.4893 45.4788C37.4893 45.814 37.7574 46.0774 38.0879 46.0774H40.3347C40.5263 46.0774 40.6819 46.2371 40.6819 46.4286V47.7296C40.6819 47.9212 40.5263 48.0728 40.3347 48.0728H17.4842C17.2919 48.0728 17.1362 47.9212 17.1362 47.7296V46.4286C17.1362 46.2371 17.2919 46.0774 17.4842 46.0774H21.3266C21.657 46.0774 21.9252 45.814 21.9252 45.4788V42.2862C21.9252 40.8575 23.0889 39.6922 24.5192 39.6922H52.4547C54.9857 39.6922 57.0441 37.6329 57.0441 35.1028V25.5249C57.0441 25.1976 56.776 24.9263 56.4455 24.9263Z" fill="white"/>
</mask>
<g mask="url(#mask0)">
<path fill-rule="evenodd" clip-rule="evenodd" d="M39.9837 26.778C40.0931 26.9775 40.2974 27.0893 40.5073 27.0893C40.6055 27.0893 40.7052 27.0653 40.7978 27.0094L50.8546 21.4223C51.0446 21.3186 51.1619 21.119 51.1619 20.9035C51.1619 20.688 51.0446 20.4805 50.8546 20.3767L40.7978 14.7896C40.5089 14.63 40.1441 14.7338 39.9837 15.0211C39.8225 15.3164 39.927 15.6756 40.216 15.8352L49.3309 20.9035L40.216 25.9638C39.927 26.1235 39.8225 26.4906 39.9837 26.778ZM6.2169 45.0478C5.88647 45.0478 5.61828 45.3112 5.61828 45.6464C5.61828 45.9737 5.88647 46.245 6.2169 46.245H7.94891C8.27934 46.245 8.54753 45.9737 8.54753 45.6464C8.54753 45.3112 8.27934 45.0478 7.94891 45.0478H6.2169ZM11.7728 24.2957H2.19493C0.984927 24.2957 0 25.2774 0 26.4906V47.2427C0 48.448 0.984927 49.4377 2.19493 49.4377H11.7728C12.9836 49.4377 13.9678 48.448 13.9678 47.2427V31.2796C13.9678 30.9444 13.6996 30.681 13.3691 30.681C13.0387 30.681 12.7705 30.9444 12.7705 31.2796V47.2427C12.7705 47.7935 12.3236 48.2404 11.7728 48.2404H2.19493C1.645 48.2404 1.19724 47.7935 1.19724 47.2427V26.4906C1.19724 25.9399 1.645 25.4929 2.19493 25.4929H11.7728C12.3236 25.4929 12.7705 25.9399 12.7705 26.4906V27.4883H5.38757C5.05713 27.4883 4.78895 27.7517 4.78895 28.087C4.78895 28.4142 5.05713 28.6856 5.38757 28.6856H13.3691C13.6996 28.6856 13.9678 28.4142 13.9678 28.087V26.4906C13.9678 25.2774 12.9836 24.2957 11.7728 24.2957ZM25.3429 23.1543H23.5782C23.4082 23.1543 23.322 23.2342 23.322 23.4018V24.1361C23.322 25.461 23.7482 26.5465 24.6014 27.4005C25.4538 28.2466 26.6391 28.7734 28.158 28.9729L28.2602 29.0767L28.2338 30.8645C28.2338 31.0322 28.3184 31.112 28.4892 31.112H30.1781C30.3481 31.112 30.4343 31.0322 30.4343 30.8645L30.408 29.1006L30.5102 28.9969C32.0115 28.8292 33.184 28.3184 34.0285 27.4724C34.8721 26.6263 35.2943 25.5488 35.2943 24.2398C35.2943 23.282 35.0597 22.4759 34.5904 21.8294C34.1218 21.1829 33.5336 20.6641 32.8256 20.265C32.1185 19.8739 31.1846 19.4429 30.0249 18.972C28.9155 18.533 28.0933 18.1738 27.5554 17.9025C27.0182 17.6231 26.6096 17.3038 26.3278 16.9527C26.0469 16.6015 25.9064 16.1465 25.9064 15.5958C25.9064 14.7896 26.1786 14.1671 26.7253 13.7441C27.2704 13.3131 28.0463 13.0975 29.0527 13.0975C30.246 13.0975 31.1758 13.3929 31.8407 13.9675C32.5056 14.5502 32.8384 15.2765 32.8384 16.1465V16.5296C32.8384 16.6972 32.9238 16.7771 33.0946 16.7771H34.8849C35.0557 16.7771 35.1403 16.6972 35.1403 16.5296V16.0188C35.1403 14.6939 34.7189 13.5924 33.8744 12.7224C33.0308 11.8524 31.875 11.3097 30.408 11.1101L30.3058 10.9824L30.3314 9.01896C30.3314 8.85135 30.246 8.76355 30.076 8.76355H28.4134C28.2426 8.76355 28.158 8.85135 28.158 9.01896L28.1827 10.9585L28.0806 11.0622C26.699 11.2458 25.6071 11.7327 24.8065 12.5309C24.0044 13.329 23.6037 14.3666 23.6037 15.6437C23.6037 16.6015 23.8296 17.3916 24.2821 18.0222C24.7331 18.6527 25.3006 19.1635 25.983 19.5467C26.6646 19.9378 27.6025 20.3608 28.7965 20.8317C29.8708 21.2707 30.6898 21.6458 31.2525 21.9571C31.8152 22.2684 32.2414 22.6036 32.5311 22.9787C32.8208 23.3459 32.9661 23.7929 32.9661 24.3117C32.9661 25.1018 32.6804 25.7404 32.1097 26.2272C31.5374 26.7141 30.6985 26.9536 29.5899 26.9536C28.3623 26.9536 27.3902 26.6822 26.6734 26.1235C25.9575 25.5728 25.5999 24.8624 25.5999 24.0084V23.4018C25.5999 23.2342 25.5137 23.1543 25.3429 23.1543ZM52.4547 0.18335H7.75788C5.22772 0.18335 3.16847 2.2426 3.16847 4.77276V21.8214C3.16847 22.1566 3.43665 22.42 3.76709 22.42C4.09753 22.42 4.36571 22.1566 4.36571 21.8214V4.77276C4.36571 2.90507 5.88779 1.38059 7.75788 1.38059H52.4547C54.3248 1.38059 55.8469 2.90507 55.8469 4.77276V17.5433C55.8469 17.8785 56.1151 18.1419 56.4455 18.1419C56.776 18.1419 57.0441 17.8785 57.0441 17.5433V4.77276C57.0441 2.2426 54.9857 0.18335 52.4547 0.18335ZM56.4455 24.9263C56.1151 24.9263 55.8469 25.1976 55.8469 25.5249V35.1028C55.8469 36.9784 54.3248 38.4949 52.4547 38.4949H24.5192C22.4288 38.4949 20.7279 40.195 20.7279 42.2862V44.8802H17.4842C16.6318 44.8802 15.939 45.5746 15.939 46.4286V47.7296C15.939 48.5757 16.6318 49.2701 17.4842 49.2701H40.3347C41.1863 49.2701 41.8791 48.5757 41.8791 47.7296V46.4286C41.8791 45.5746 41.1863 44.8802 40.3347 44.8802H38.0879C37.7574 44.8802 37.4893 45.1516 37.4893 45.4788C37.4893 45.814 37.7574 46.0774 38.0879 46.0774H40.3347C40.5263 46.0774 40.6819 46.2371 40.6819 46.4286V47.7296C40.6819 47.9212 40.5263 48.0728 40.3347 48.0728H17.4842C17.2919 48.0728 17.1362 47.9212 17.1362 47.7296V46.4286C17.1362 46.2371 17.2919 46.0774 17.4842 46.0774H21.3266C21.657 46.0774 21.9252 45.814 21.9252 45.4788V42.2862C21.9252 40.8575 23.0889 39.6922 24.5192 39.6922H52.4547C54.9857 39.6922 57.0441 37.6329 57.0441 35.1028V25.5249C57.0441 25.1976 56.776 24.9263 56.4455 24.9263Z" fill="url(#paint0_linear)"/>
</g>
<defs>
<linearGradient id="paint0_linear" x1="-0.351986" y1="52.5424" x2="63.8745" y2="52.5424" gradientUnits="userSpaceOnUse">
<stop stop-color="#7DBCD7"/>
<stop offset="1" stop-color="#244D90"/>
</linearGradient>
</defs>
</svg>
