<svg width="68" height="104" viewBox="0 0 68 104" fill="none" xmlns="http://www.w3.org/2000/svg">
<path d="M41.928 49.76C52.938 58.514 64.536 72.506 67.176 75.758C59.946 93.374 39.12 110.816 10.224 99.38C9.41397 94.268 8.89797 78.398 13.458 59.822C15.516 51.464 29.406 39.8 41.928 49.76Z" fill="url(#paint0_linear)"/>
<path d="M33.768 45.89C33.426 44.3 27.708 39.992 23.238 27.56C21.564 27.422 11.298 32.732 11.508 33.284C16.632 50.126 20.862 68.21 20.862 68.21C20.862 68.21 27.708 58.01 33.768 45.89Z" fill="#A77744"/>
<path d="M6.63597 13.094C5.10597 16.166 3.68997 21.224 3.41997 27.062C3.11397 33.602 4.66797 40.79 9.65996 42.038C12.438 42.734 20.37 41.66 25.464 35.384C29.526 30.38 31.416 20.726 30.096 15.764C27.12 4.56199 9.87597 6.57199 6.63597 13.094Z" fill="#A77744"/>
<path d="M6.91197 12.692C6.91197 12.692 3.75596 10.586 3.57596 9.356C3.40196 8.126 4.27197 7.694 5.23197 7.088C6.19197 6.482 4.84197 3.596 6.65397 3.338C8.46596 3.08 8.86796 3.962 9.88796 3.596C10.908 3.23 11.568 1.394 13.122 1.526C14.676 1.658 14.976 2.9 16.032 2.738C17.088 2.576 18.042 0.361994 19.98 1.13599C21.918 1.90999 22.128 2.73799 23.352 3.06199C24.57 3.38599 27.096 1.784 28.002 3.074C28.908 4.37 28.68 5.156 29.37 5.906C30.054 6.656 32.016 6.176 32.274 6.824C32.532 7.472 31.602 9.62 32.274 10.448C32.946 11.276 34.836 11.582 34.992 12.65C35.142 13.718 33.54 15.35 33.57 16.4C33.6 17.456 35.796 17.456 35.55 19.082C35.304 20.708 33.408 21.896 32.868 23.15C32.328 24.404 31.368 25.802 30.408 25.868C26.982 22.91 26.28 16.448 24.336 14.504C22.386 12.56 12.36 10.67 6.91197 12.692Z" fill="#0B2D4C"/>
<path d="M25.464 26.12C26.442 21.734 32.724 19.238 33.81 23.876C34.896 28.514 29.226 33.386 26.304 32.822C23.382 32.258 25.464 26.12 25.464 26.12Z" fill="#A77744"/>
<path d="M13.26 21.434C13.26 21.434 10.992 19.016 8.44798 20.72" stroke="#0B2D4C" stroke-width="1.1733" stroke-miterlimit="10" stroke-linecap="round" stroke-linejoin="round"/>
<path d="M16.392 22.592C16.9155 22.592 17.34 22.1676 17.34 21.644C17.34 21.1204 16.9155 20.696 16.392 20.696C15.8684 20.696 15.444 21.1204 15.444 21.644C15.444 22.1676 15.8684 22.592 16.392 22.592Z" fill="#0B2D4C"/>
<path d="M5.97 20.552C6.39747 20.552 6.744 20.1276 6.744 19.604C6.744 19.0804 6.39747 18.656 5.97 18.656C5.54253 18.656 5.196 19.0804 5.196 19.604C5.196 20.1276 5.54253 20.552 5.97 20.552Z" fill="#0B2D4C"/>
<path d="M17.328 27.386C19.7238 27.386 21.666 25.4438 21.666 23.048C21.666 20.6522 19.7238 18.71 17.328 18.71C14.9322 18.71 12.99 20.6522 12.99 23.048C12.99 25.4438 14.9322 27.386 17.328 27.386Z" stroke="#0B2D4C" stroke-width="1.274" stroke-miterlimit="10" stroke-linecap="round" stroke-linejoin="round"/>
<path d="M8.31813 21.0847C8.83658 18.7457 7.81968 16.531 6.0468 16.138C4.27392 15.7451 2.41643 17.3227 1.89797 19.6617C1.37952 22.0007 2.39643 24.2154 4.16931 24.6084C5.94219 25.0014 7.79968 23.4238 8.31813 21.0847Z" stroke="#0B2D4C" stroke-width="1.1094" stroke-miterlimit="10" stroke-linecap="round" stroke-linejoin="round"/>
<path d="M21.564 16.802C21.564 16.802 21.618 16.196 19.944 15.638" stroke="#0B2D4C" stroke-width="1.274" stroke-miterlimit="10" stroke-linecap="round" stroke-linejoin="round"/>
<path d="M7.73399 14.288L6.996 14.57" stroke="#0B2D4C" stroke-width="1.274" stroke-miterlimit="10" stroke-linecap="round" stroke-linejoin="round"/>
<path d="M9.56399 22.058C9.56399 22.058 8.18398 25.148 7.76398 26.768C7.34398 28.388 12.078 28.478 12.078 28.478" stroke="#0B2D4C" stroke-width="1.2037" stroke-miterlimit="10" stroke-linecap="round" stroke-linejoin="round"/>
<path d="M15.828 30.626C15.828 30.626 11.166 31.484 8.346 30.992C8.346 30.992 9.348 34.79 12.396 34.43C15.444 34.07 15.828 30.626 15.828 30.626Z" fill="white"/>
<path d="M18.798 40.49L13.812 42.014L15.612 47.84L18.798 40.49Z" fill="#7D5933"/>
<path d="M45.87 53.294C50.946 56.192 63.834 70.742 67.614 75.074C65.346 82.574 57.84 92.258 50.346 96.974L37.56 73.862C30.732 59.918 39.894 49.88 45.87 53.294Z" fill="url(#paint1_linear)"/>
<path d="M27.858 30.884L30.852 44.072L33.786 39.74L27.858 30.884Z" fill="#EF7E19"/>
<defs>
<linearGradient id="paint0_linear" x1="24.99" y1="40.108" x2="47.5703" y2="118.27" gradientUnits="userSpaceOnUse">
<stop stop-color="#F4CE36"/>
<stop offset="0.998" stop-color="white"/>
</linearGradient>
<linearGradient id="paint1_linear" x1="18.9135" y1="25.9242" x2="65.4404" y2="95.7145" gradientUnits="userSpaceOnUse">
<stop stop-color="#F4CE36"/>
<stop offset="0.998" stop-color="white"/>
</linearGradient>
</defs>
</svg>
