<svg width="103" height="109" viewBox="0 0 103 109" fill="none" xmlns="http://www.w3.org/2000/svg">
<path d="M17.492 19.488C17.492 19.488 13.952 1.44599 1.08798 0.827992C0.511983 0.797992 0.21198 1.96199 0.66798 2.47799L6.55998 7.70999C6.55998 7.70999 2.35398 13.08 4.96398 17.61C7.56798 22.14 8.59398 22.176 12.482 24.894C16.364 27.612 17.828 22.092 17.492 19.488Z" fill="#A77744"/>
<path d="M32.4859 58.872C31.2319 58.236 20.2219 29.064 17.7319 20.208C16.0639 14.274 10.1359 19.83 11.3599 24.666C14.2159 35.976 12.4939 58.182 21.9559 67.71C30.8839 76.71 36.1339 60.732 32.4859 58.872Z" fill="#A77744"/>
<path d="M55.5081 53.226C49.9881 51.246 36.5961 61.128 34.3461 59.85C32.0961 58.578 24.1401 36.582 24.1401 36.582L10.6221 52.74C10.6221 52.74 15.9621 82.098 27.2001 86.874C38.4441 91.656 50.5701 83.094 55.6101 77.742C60.6501 72.39 61.0281 55.206 55.5081 53.226Z" fill="url(#paint0_linear)"/>
<path d="M80.4739 55.764C91.3099 65.766 99.8479 78.618 102.344 82.2C93.1219 99.594 72.9439 116.4 45.5959 103.62C45.1999 98.304 42.7999 78.852 48.3919 61.506C51.1159 53.064 68.1499 44.388 80.4739 55.764Z" fill="url(#paint1_linear)"/>
<path d="M70.8138 50.91C70.6158 49.296 65.2938 44.502 61.9278 31.728C60.2718 31.44 49.5798 35.838 49.7418 36.408C53.3718 53.634 56.0118 72.018 56.0118 72.018C56.0118 72.018 63.7158 62.454 70.8138 50.91Z" fill="#A77744"/>
<path d="M46.6579 15.864C44.8699 18.792 43.0099 23.706 42.2299 29.496C41.3539 35.982 42.2719 43.278 47.1379 44.958C49.8439 45.894 57.8419 45.516 63.4639 39.708C67.9459 35.076 70.6759 25.626 69.7939 20.568C67.8079 9.15599 50.4499 9.65399 46.6579 15.864Z" fill="#A77744"/>
<path d="M46.9638 15.492C46.9638 15.492 43.9998 13.116 43.9338 11.88C43.8678 10.638 44.7738 10.284 45.7818 9.76199C46.7898 9.23999 45.6978 6.24599 47.5278 6.14999C49.3578 6.05399 49.6758 6.966 50.7258 6.69C51.7758 6.414 52.5918 4.644 54.1278 4.908C55.6638 5.172 55.8498 6.444 56.9178 6.372C57.9858 6.3 59.1258 4.176 60.9918 5.124C62.8578 6.066 62.9958 6.906 64.1778 7.338C65.3598 7.77 68.0238 6.39 68.8098 7.758C69.5958 9.126 69.3078 9.894 69.9198 10.698C70.5318 11.502 72.5298 11.202 72.7338 11.868C72.9378 12.534 71.8158 14.598 72.4158 15.474C73.0158 16.356 74.8698 16.83 74.9298 17.904C74.9898 18.978 73.2438 20.466 73.1838 21.516C73.1238 22.566 75.3078 22.758 74.9238 24.36C74.5398 25.956 72.5478 26.976 71.8938 28.176C71.2458 29.376 70.1658 30.684 69.2058 30.672C66.0498 27.426 65.9178 20.928 64.1538 18.816C62.3898 16.71 52.5678 13.956 46.9638 15.492Z" fill="#0B2D4C"/>
<path d="M64.2679 30.492C65.6239 26.208 72.0979 24.27 72.7759 28.986C73.4539 33.702 67.3819 38.058 64.5139 37.242C61.6579 36.426 64.2679 30.492 64.2679 30.492Z" fill="#A77744"/>
<path d="M66.2659 34.278L69.6739 47.364L72.4699 42.948L66.2659 34.278Z" fill="#EF7E19"/>
<path d="M52.5199 24.756C52.5199 24.756 50.4739 22.152 47.7859 23.622" stroke="#0B2D4C" stroke-width="1.1733" stroke-miterlimit="10" stroke-linecap="round" stroke-linejoin="round"/>
<path d="M55.6218 26.184C56.1454 26.184 56.5698 25.7596 56.5698 25.236C56.5698 24.7124 56.1454 24.288 55.6218 24.288C55.0983 24.288 54.6738 24.7124 54.6738 25.236C54.6738 25.7596 55.0983 26.184 55.6218 26.184Z" fill="#0B2D4C"/>
<path d="M46.1928 22.3546C46.2386 21.833 45.9305 21.3799 45.5046 21.3425C45.0788 21.3052 44.6965 21.6977 44.6507 22.2193C44.605 22.7409 44.9131 23.194 45.3389 23.2313C45.7648 23.2687 46.1471 22.8762 46.1928 22.3546Z" fill="#0B2D4C"/>
<path d="M56.432 31.056C58.8278 31.056 60.77 29.1138 60.77 26.718C60.77 24.3222 58.8278 22.38 56.432 22.38C54.0362 22.38 52.094 24.3222 52.094 26.718C52.094 29.1138 54.0362 31.056 56.432 31.056Z" stroke="#0B2D4C" stroke-width="1.274" stroke-miterlimit="10" stroke-linecap="round" stroke-linejoin="round"/>
<path d="M47.6253 23.9767C48.3462 21.6921 47.5268 19.397 45.7951 18.8506C44.0635 18.3042 42.0753 19.7133 41.3544 21.998C40.6335 24.2826 41.4529 26.5777 43.1845 27.1241C44.9162 27.6705 46.9044 26.2613 47.6253 23.9767Z" stroke="#0B2D4C" stroke-width="1.1094" stroke-miterlimit="10" stroke-linecap="round" stroke-linejoin="round"/>
<path d="M48.788 25.05C48.788 25.05 47.144 28.002 46.586 29.58C46.028 31.158 50.732 31.662 50.732 31.662" stroke="#0B2D4C" stroke-width="1.2037" stroke-miterlimit="10" stroke-linecap="round" stroke-linejoin="round"/>
<path d="M54.2719 34.14C54.2719 34.14 49.5499 34.59 46.7839 33.852C46.7839 33.852 47.4499 37.722 50.5159 37.626C53.5879 37.53 54.2719 34.14 54.2719 34.14Z" fill="white"/>
<path d="M56.378 44.22L51.272 45.306L52.556 51.264L56.378 44.22Z" fill="#7D5933"/>
<path d="M84.3199 59.754C89.4139 63.198 99.3499 76.806 102.95 81.6C99.8779 89.082 92.6899 98.454 84.3499 102.6L73.6999 80.076C67.7419 65.148 78.3139 55.704 84.3199 59.754Z" fill="url(#paint2_linear)"/>
<defs>
<linearGradient id="paint0_linear" x1="59.5348" y1="65.1595" x2="-42.3796" y2="56.2182" gradientUnits="userSpaceOnUse">
<stop stop-color="#F4CE36"/>
<stop offset="0.998" stop-color="white"/>
</linearGradient>
<linearGradient id="paint1_linear" x1="64.2405" y1="43.3781" x2="80.2276" y2="124.869" gradientUnits="userSpaceOnUse">
<stop stop-color="#F4CE36"/>
<stop offset="0.998" stop-color="white"/>
</linearGradient>
<linearGradient id="paint2_linear" x1="60.0884" y1="30.7865" x2="99.3494" y2="102.569" gradientUnits="userSpaceOnUse">
<stop stop-color="#F4CE36"/>
<stop offset="0.998" stop-color="white"/>
</linearGradient>
</defs>
</svg>
