<svg width="70" height="102" viewBox="0 0 70 102" fill="none" xmlns="http://www.w3.org/2000/svg">
<path d="M42.249 49.1799C53.2591 57.934 62.6551 75.916 64.6591 80.728C56.631 97.312 32.157 109.354 7.71304 96.754C6.90304 91.642 6.33903 73.504 11.691 57.8559C14.469 49.7139 29.727 39.2199 42.249 49.1799Z" fill="url(#paint0_linear)"/>
<path d="M34.089 45.316C33.747 43.726 28.029 39.418 23.559 26.986C21.885 26.848 11.619 32.158 11.829 32.71C16.953 49.552 21.183 67.636 21.183 67.636C21.183 67.636 28.029 57.43 34.089 45.316Z" fill="#A77744"/>
<path d="M6.95702 12.514C5.42702 15.586 4.01102 20.644 3.74102 26.482C3.43502 33.022 4.98903 40.21 9.98103 41.458C12.759 42.154 20.691 41.08 25.785 34.804C29.847 29.8 31.737 20.146 30.417 15.184C27.441 3.98799 10.197 5.998 6.95702 12.514Z" fill="#A77744"/>
<path d="M9.237 30.55C11.553 30.178 14.049 31.384 13.215 34.162C12.381 36.94 9.237 30.55 9.237 30.55Z" fill="#EBEBEB"/>
<path d="M7.23303 12.118C7.23303 12.118 4.07703 10.012 3.89703 8.78198C3.72303 7.55198 4.59303 7.11998 5.55303 6.51398C6.51303 5.90798 5.16303 3.02198 6.97503 2.76398C8.78703 2.50598 9.18903 3.38798 10.209 3.02198C11.229 2.65598 11.889 0.819979 13.443 0.951979C14.997 1.08398 15.297 2.32598 16.353 2.16398C17.409 2.00198 18.363 -0.212022 20.301 0.561978C22.239 1.33598 22.449 2.16398 23.673 2.48798C24.891 2.81198 27.417 1.20998 28.323 2.49998C29.229 3.79598 29.001 4.58198 29.691 5.33198C30.375 6.08198 32.337 5.60198 32.595 6.24998C32.853 6.89798 31.923 9.04598 32.595 9.87398C33.267 10.702 35.157 11.008 35.313 12.076C35.463 13.144 33.861 14.776 33.891 15.826C33.921 16.882 36.117 16.882 35.871 18.508C35.625 20.134 33.729 21.322 33.189 22.576C32.649 23.83 31.689 25.228 30.729 25.294C27.303 22.336 26.601 15.874 24.657 13.93C22.707 11.98 12.681 10.096 7.23303 12.118Z" fill="#0B2D4C"/>
<path d="M25.179 26.956C26.157 22.57 32.439 20.074 33.525 24.712C34.611 29.35 28.941 34.222 26.019 33.658C23.097 33.094 25.179 26.956 25.179 26.956Z" fill="#A77744"/>
<path d="M28.215 29.506L31.209 42.688L34.143 38.362L28.215 29.506Z" fill="#EF7E19"/>
<path d="M13.131 21.748C13.131 21.748 10.863 19.33 8.31897 21.034" stroke="#0B2D4C" stroke-width="1.1733" stroke-miterlimit="10" stroke-linecap="round" stroke-linejoin="round"/>
<path d="M16.119 22.156C16.6426 22.156 17.067 21.7315 17.067 21.208C17.067 20.6844 16.6426 20.26 16.119 20.26C15.5955 20.26 15.171 20.6844 15.171 21.208C15.171 21.7315 15.5955 22.156 16.119 22.156Z" fill="#0B2D4C"/>
<path d="M5.787 19.954C6.21447 19.954 6.561 19.5295 6.561 19.006C6.561 18.4824 6.21447 18.058 5.787 18.058C5.35953 18.058 5.013 18.4824 5.013 19.006C5.013 19.5295 5.35953 19.954 5.787 19.954Z" fill="#0B2D4C"/>
<path d="M17.199 27.7C19.5948 27.7 21.537 25.7578 21.537 23.362C21.537 20.9662 19.5948 19.024 17.199 19.024C14.8032 19.024 12.861 20.9662 12.861 23.362C12.861 25.7578 14.8032 27.7 17.199 27.7Z" stroke="#0B2D4C" stroke-width="1.274" stroke-miterlimit="10" stroke-linecap="round" stroke-linejoin="round"/>
<path d="M8.19405 21.4025C8.7125 19.0635 7.69559 16.8487 5.92271 16.4558C4.14983 16.0628 2.29234 17.6404 1.77389 19.9794C1.25543 22.3185 2.27234 24.5332 4.04522 24.9261C5.8181 25.3191 7.67559 23.7415 8.19405 21.4025Z" stroke="#0B2D4C" stroke-width="1.1094" stroke-miterlimit="10" stroke-linecap="round" stroke-linejoin="round"/>
<path d="M9.88503 21.484C9.88503 21.484 8.50504 24.574 8.08504 26.194C7.66504 27.814 12.399 27.904 12.399 27.904" stroke="#0B2D4C" stroke-width="1.2037" stroke-miterlimit="10" stroke-linecap="round" stroke-linejoin="round"/>
<path d="M19.119 39.916L14.127 41.44L15.933 47.26L19.119 39.916Z" fill="#7D5933"/>
<path d="M18.369 14.524L20.7029 15.382" stroke="#0B2D4C" stroke-width="1.274" stroke-miterlimit="10" stroke-linecap="round" stroke-linejoin="round"/>
<path d="M7.07098 13.978L8.55297 13.126" stroke="#0B2D4C" stroke-width="1.274" stroke-miterlimit="10" stroke-linecap="round" stroke-linejoin="round"/>
<path d="M60.525 36.208C59.871 32.938 48.093 14.428 46.419 11.842C44.745 9.25598 39.843 4.83398 34.593 2.42798C28.821 -0.224024 22.467 0.687978 22.305 1.66598C22.143 2.64398 28.251 4.88798 29.271 5.31398C29.145 13.918 38.841 18.22 42.639 19.144C46.437 20.062 49.407 40.792 51.195 41.932C53.001 43.078 61.185 39.484 60.525 36.208Z" fill="#A77744"/>
<path d="M41.889 32.152C41.889 32.152 46.461 22.258 52.455 20.758C52.455 20.758 68.541 40.954 69.357 48.64C70.173 56.326 64.467 69.91 53.907 72.862C43.347 75.814 31.053 56.464 37.551 49.042C40.647 45.502 44.283 42.886 44.367 41.908C44.451 40.924 41.889 32.152 41.889 32.152Z" fill="url(#paint1_linear)"/>
<defs>
<linearGradient id="paint0_linear" x1="26.8532" y1="56.4512" x2="49.5195" y2="134.911" gradientUnits="userSpaceOnUse">
<stop stop-color="#F4CE36"/>
<stop offset="0.998" stop-color="white"/>
</linearGradient>
<linearGradient id="paint1_linear" x1="64.6639" y1="86.5828" x2="38.8582" y2="13.7262" gradientUnits="userSpaceOnUse">
<stop stop-color="#F4CE36"/>
<stop offset="0.998" stop-color="white"/>
</linearGradient>
</defs>
</svg>
