<svg width="112" height="106" viewBox="0 0 112 106" fill="none" xmlns="http://www.w3.org/2000/svg">
<path d="M84.3912 49.76C95.4012 58.514 104.209 72.98 106.609 78.98C99.3792 96.596 81.5831 110.822 52.6872 99.386C51.8772 94.274 51.3612 78.404 55.9212 59.828C57.9792 51.464 71.8692 39.8 84.3912 49.76Z" fill="url(#paint0_linear)"/>
<path d="M76.2313 45.89C75.8893 44.3 70.1713 39.992 65.7013 27.56C64.0273 27.422 53.7613 32.732 53.9713 33.284C59.0953 50.126 63.3253 68.21 63.3253 68.21C63.3253 68.21 70.1713 58.01 76.2313 45.89Z" fill="#A77744"/>
<path d="M49.0992 13.094C47.5692 16.166 46.1532 21.224 45.8832 27.062C45.5772 33.602 47.1312 40.79 52.1232 42.038C54.9012 42.734 62.8332 41.66 67.9272 35.384C71.9892 30.38 73.8792 20.726 72.5592 15.764C69.5832 4.56199 52.3392 6.57199 49.0992 13.094Z" fill="#A77744"/>
<path d="M49.3753 12.692C49.3753 12.692 46.2193 10.586 46.0393 9.356C45.8653 8.126 46.7353 7.694 47.6953 7.088C48.6553 6.482 47.3053 3.59599 49.1173 3.33799C50.9293 3.07999 51.3313 3.96199 52.3513 3.59599C53.3713 3.22999 54.0313 1.39399 55.5853 1.52599C57.1393 1.65799 57.4393 2.89999 58.4953 2.73799C59.5513 2.57599 60.5053 0.36199 62.4433 1.13599C64.3813 1.90999 64.5913 2.73799 65.8153 3.06199C67.0333 3.38599 69.5593 1.78399 70.4653 3.07399C71.3713 4.36999 71.1433 5.15599 71.8333 5.90599C72.5173 6.65599 74.4793 6.17599 74.7373 6.82399C74.9953 7.47199 74.0653 9.62 74.7373 10.448C75.4093 11.276 77.2993 11.582 77.4553 12.65C77.6053 13.718 76.0033 15.35 76.0333 16.4C76.0633 17.456 78.2593 17.456 78.0133 19.082C77.7673 20.708 75.8713 21.896 75.3313 23.15C74.7913 24.404 73.8313 25.802 72.8713 25.868C69.4453 22.91 68.7433 16.448 66.7993 14.504C64.8493 12.56 54.8233 10.67 49.3753 12.692Z" fill="#0B2D4C"/>
<path d="M67.9271 26.12C68.9051 21.734 75.1871 19.238 76.2731 23.876C77.3591 28.514 71.6891 33.386 68.7671 32.822C65.8451 32.258 67.9271 26.12 67.9271 26.12Z" fill="#A77744"/>
<path d="M55.7231 21.434C55.7231 21.434 53.4551 19.016 50.9111 20.72" stroke="#0B2D4C" stroke-width="1.1733" stroke-miterlimit="10" stroke-linecap="round" stroke-linejoin="round"/>
<path d="M60.0552 23.192C60.5788 23.192 61.0032 22.7676 61.0032 22.244C61.0032 21.7204 60.5788 21.296 60.0552 21.296C59.5317 21.296 59.1072 21.7204 59.1072 22.244C59.1072 22.7676 59.5317 23.192 60.0552 23.192Z" fill="#0B2D4C"/>
<path d="M49.0333 21.152C49.4607 21.152 49.8073 20.7276 49.8073 20.204C49.8073 19.6804 49.4607 19.256 49.0333 19.256C48.6058 19.256 48.2593 19.6804 48.2593 20.204C48.2593 20.7276 48.6058 21.152 49.0333 21.152Z" fill="#0B2D4C"/>
<path d="M59.7911 27.386C62.1869 27.386 64.1291 25.4438 64.1291 23.048C64.1291 20.6522 62.1869 18.71 59.7911 18.71C57.3953 18.71 55.4531 20.6522 55.4531 23.048C55.4531 25.4438 57.3953 27.386 59.7911 27.386Z" stroke="#0B2D4C" stroke-width="1.274" stroke-miterlimit="10" stroke-linecap="round" stroke-linejoin="round"/>
<path d="M50.7813 21.0847C51.2998 18.7457 50.2829 16.531 48.51 16.138C46.7371 15.7451 44.8796 17.3227 44.3612 19.6617C43.8427 22.0007 44.8596 24.2155 46.6325 24.6084C48.4054 25.0014 50.2629 23.4238 50.7813 21.0847Z" stroke="#0B2D4C" stroke-width="1.1094" stroke-miterlimit="10" stroke-linecap="round" stroke-linejoin="round"/>
<path d="M64.0272 16.802C64.0272 16.802 64.0812 16.196 62.4072 15.638" stroke="#0B2D4C" stroke-width="1.274" stroke-miterlimit="10" stroke-linecap="round" stroke-linejoin="round"/>
<path d="M50.1972 14.288L49.4592 14.57" stroke="#0B2D4C" stroke-width="1.274" stroke-miterlimit="10" stroke-linecap="round" stroke-linejoin="round"/>
<path d="M52.0271 22.058C52.0271 22.058 50.6471 25.148 50.2271 26.768C49.8071 28.388 54.5411 28.478 54.5411 28.478" stroke="#0B2D4C" stroke-width="1.2037" stroke-miterlimit="10" stroke-linecap="round" stroke-linejoin="round"/>
<path d="M58.2913 30.626C58.2913 30.626 53.6293 31.484 50.8093 30.992C50.8093 30.992 51.8113 34.79 54.8593 34.43C57.9073 34.07 58.2913 30.626 58.2913 30.626Z" fill="white"/>
<path d="M61.2611 40.49L56.2751 42.014L58.0751 47.84L61.2611 40.49Z" fill="#7D5933"/>
<path d="M70.321 30.884L73.315 44.072L76.249 39.74L70.321 30.884Z" fill="#EF7E19"/>
<path d="M90.4091 88.574C86.8091 88.574 57.7631 89.594 53.8091 89.174C49.8551 88.754 44.2031 83.996 41.4491 83.492C38.6891 82.988 29.8991 84.494 25.8491 83.276C24.4931 87.458 35.3111 88.28 35.2691 89.204C35.2691 89.204 30.1151 89.132 27.6191 88.64C28.9751 91.208 34.4831 90.83 36.1931 92.552C41.2091 97.58 49.6091 95.18 54.4091 96.38C59.2091 97.58 87.6551 105.644 93.4091 100.58C99.1631 95.516 94.0091 88.574 90.4091 88.574Z" fill="#A77744"/>
<path d="M77.8093 68.174C80.2093 77.774 85.4413 85.772 83.8093 87.374C82.1773 88.976 59.2093 89.174 59.2093 89.174L64.0093 103.574C64.0093 103.574 96.3493 111.338 109.609 96.974C116.809 89.174 96.7033 60.776 92.8093 56.174C86.2093 48.374 72.8533 48.362 77.8093 68.174Z" fill="url(#paint1_linear)"/>
<path d="M38.4611 102.974H9.12113C7.93913 102.974 6.93113 102.23 6.75113 101.216L0.979134 69.182C0.637134 67.292 2.32913 65.588 4.53713 65.588H31.4471C33.2231 65.588 34.7291 66.704 35.0051 68.222L40.8371 100.58C41.0591 101.84 39.9311 102.974 38.4611 102.974Z" fill="#2A58A4"/>
<path d="M51.2231 102.974H24.8231V99.374H48.8231C50.1491 99.374 51.2231 100.448 51.2231 101.774V102.974Z" fill="#2A58A4"/>
<defs>
<linearGradient id="paint0_linear" x1="72.2733" y1="63.6473" x2="95.1629" y2="142.881" gradientUnits="userSpaceOnUse">
<stop stop-color="#F4CE36"/>
<stop offset="0.998" stop-color="white"/>
</linearGradient>
<linearGradient id="paint1_linear" x1="67.6271" y1="31.8934" x2="95.2584" y2="122.476" gradientUnits="userSpaceOnUse">
<stop stop-color="#F4CE36"/>
<stop offset="0.998" stop-color="white"/>
</linearGradient>
</defs>
</svg>
