<svg width="113" height="115" viewBox="0 0 113 115" fill="none" xmlns="http://www.w3.org/2000/svg">
<path d="M19.3522 29.394C19.3522 29.394 14.2522 11.73 1.38222 12.24C0.80622 12.264 0.60822 13.446 1.10622 13.92L7.43022 18.618C7.43022 18.618 3.71022 24.336 6.70422 28.62C9.69822 32.904 10.7242 32.85 14.8282 35.22C18.9322 37.59 19.9222 31.962 19.3522 29.394Z" fill="#A77744"/>
<path d="M37.7421 67.32C36.4401 66.792 22.9161 38.7 19.6641 30.096C17.4801 24.33 12.0621 30.384 13.7061 35.094C17.5401 46.11 17.7681 68.382 28.0221 77.046C37.7061 85.23 41.5341 68.85 37.7421 67.32Z" fill="#A77744"/>
<path d="M60.1763 59.682C54.5063 58.194 42.0263 69.204 39.6743 68.136C37.3223 67.062 27.4763 45.846 27.4763 45.846L15.4223 63.126C15.4223 63.126 23.3063 91.902 34.9223 95.682C46.5383 99.462 57.8723 89.874 62.4263 84.102C66.9803 78.33 65.8523 61.17 60.1763 59.682Z" fill="url(#paint0_linear)"/>
<path d="M85.2681 60.024C96.9381 69.036 109.226 83.436 112.028 86.784C104.366 104.916 86.8101 121.68 54.7101 110.742C53.8521 105.48 49.7601 86.316 53.8101 68.544C55.7841 59.904 72.0021 49.776 85.2681 60.024Z" fill="url(#paint1_linear)"/>
<path d="M75.2244 56.034C74.8824 54.444 69.1644 50.136 64.6944 37.704C63.0204 37.566 52.7544 42.876 52.9644 43.428C58.0884 60.27 62.3184 78.354 62.3184 78.354C62.3184 78.354 69.1644 68.154 75.2244 56.034Z" fill="#A77744"/>
<path d="M48.0924 23.238C46.5624 26.31 45.1464 31.368 44.8764 37.206C44.5704 43.746 46.1244 50.934 51.1164 52.182C53.8944 52.878 61.8264 51.804 66.9204 45.528C70.9824 40.524 72.8724 30.87 71.5524 25.908C68.5764 14.706 51.3324 16.722 48.0924 23.238Z" fill="#A77744"/>
<path d="M48.3684 22.842C48.3684 22.842 45.2124 20.736 45.0324 19.506C44.8584 18.276 45.7284 17.844 46.6884 17.238C47.6484 16.632 46.2984 13.746 48.1104 13.488C49.9224 13.23 50.3244 14.112 51.3444 13.746C52.3644 13.38 53.0244 11.544 54.5784 11.676C56.1324 11.808 56.4324 13.05 57.4884 12.888C58.5444 12.726 59.4984 10.512 61.4364 11.286C63.3744 12.06 63.5844 12.888 64.8084 13.212C66.0264 13.536 68.5524 11.934 69.4584 13.224C70.3644 14.52 70.1364 15.306 70.8264 16.056C71.5104 16.806 73.4724 16.326 73.7304 16.974C73.9884 17.622 73.0584 19.77 73.7304 20.598C74.4024 21.426 76.2924 21.732 76.4484 22.8C76.5984 23.868 74.9964 25.5 75.0264 26.55C75.0564 27.6 77.2524 27.606 77.0064 29.232C76.7604 30.858 74.8644 32.046 74.3244 33.3C73.7844 34.554 72.8244 35.952 71.8644 36.018C68.4384 33.06 67.7364 26.598 65.7924 24.654C63.8424 22.704 53.8164 20.82 48.3684 22.842Z" fill="#0B2D4C"/>
<path d="M66.9142 36.27C67.8922 31.884 74.1742 29.388 75.2602 34.026C76.3462 38.664 70.6762 43.536 67.7542 42.972C64.8322 42.408 66.9142 36.27 66.9142 36.27Z" fill="#A77744"/>
<path d="M69.2362 39.864L73.7781 52.602L76.1781 47.958L69.2362 39.864Z" fill="#EF7E19"/>
<path d="M54.7103 31.584C54.7103 31.584 52.4423 29.166 49.8983 30.87" stroke="#0B2D4C" stroke-width="1.1733" stroke-miterlimit="10" stroke-linecap="round" stroke-linejoin="round"/>
<path d="M57.8423 32.736C58.3658 32.736 58.7903 32.3116 58.7903 31.788C58.7903 31.2644 58.3658 30.84 57.8423 30.84C57.3187 30.84 56.8943 31.2644 56.8943 31.788C56.8943 32.3116 57.3187 32.736 57.8423 32.736Z" fill="#0B2D4C"/>
<path d="M47.426 30.696C47.8535 30.696 48.2 30.2716 48.2 29.748C48.2 29.2244 47.8535 28.8 47.426 28.8C46.9985 28.8 46.652 29.2244 46.652 29.748C46.652 30.2716 46.9985 30.696 47.426 30.696Z" fill="#0B2D4C"/>
<path d="M58.7782 37.536C61.174 37.536 63.1162 35.5938 63.1162 33.198C63.1162 30.8022 61.174 28.86 58.7782 28.86C56.3824 28.86 54.4402 30.8022 54.4402 33.198C54.4402 35.5938 56.3824 37.536 58.7782 37.536Z" stroke="#0B2D4C" stroke-width="1.274" stroke-miterlimit="10" stroke-linecap="round" stroke-linejoin="round"/>
<path d="M49.7744 31.2354C50.2929 28.8964 49.276 26.6817 47.5031 26.2887C45.7302 25.8957 43.8727 27.4733 43.3543 29.8124C42.8358 32.1514 43.8528 34.3661 45.6256 34.7591C47.3985 35.152 49.256 33.5744 49.7744 31.2354Z" stroke="#0B2D4C" stroke-width="1.1094" stroke-miterlimit="10" stroke-linecap="round" stroke-linejoin="round"/>
<path d="M51.0142 32.202C51.0142 32.202 49.6342 35.292 49.2142 36.912C48.7942 38.532 53.5282 38.622 53.5282 38.622" stroke="#0B2D4C" stroke-width="1.2037" stroke-miterlimit="10" stroke-linecap="round" stroke-linejoin="round"/>
<path d="M57.2783 40.776C57.2783 40.776 52.6163 41.634 49.7963 41.142C49.7963 41.142 50.7983 44.94 53.8463 44.58C56.8943 44.22 57.2783 40.776 57.2783 40.776Z" fill="white"/>
<path d="M60.2542 50.634L55.2622 52.158L57.0682 57.984L60.2542 50.634Z" fill="#7D5933"/>
<path d="M89.4503 63.666C94.8263 66.648 108.494 81.624 112.496 86.082C110.09 93.804 102.14 103.77 94.1903 108.624L80.6423 84.834C73.4063 70.488 83.1143 60.156 89.4503 63.666Z" fill="url(#paint2_linear)"/>
<path d="M30.2416 11.754L30.3376 11.658" stroke="url(#paint3_linear)" stroke-width="2" stroke-miterlimit="10" stroke-linecap="round" stroke-linejoin="round"/>
<path d="M22.9758 16.782L28.5798 12.906" stroke="url(#paint4_linear)" stroke-width="2" stroke-miterlimit="10" stroke-linecap="round" stroke-linejoin="round"/>
<path d="M18.8778 11.088L22.6038 4.69198" stroke="url(#paint5_linear)" stroke-width="2" stroke-miterlimit="10" stroke-linecap="round" stroke-linejoin="round"/>
<path d="M12.2956 1.57198L12.2656 1.44598" stroke="url(#paint6_linear)" stroke-width="2" stroke-miterlimit="10" stroke-linecap="round" stroke-linejoin="round"/>
<path d="M12.5236 10.488L12.3616 3.59999" stroke="url(#paint7_linear)" stroke-width="2" stroke-miterlimit="10" stroke-linecap="round" stroke-linejoin="round"/>
<defs>
<linearGradient id="paint0_linear" x1="65.2418" y1="71.1914" x2="-37.0614" y2="71.1914" gradientUnits="userSpaceOnUse">
<stop stop-color="#F4CE36"/>
<stop offset="0.998" stop-color="white"/>
</linearGradient>
<linearGradient id="paint1_linear" x1="70.7853" y1="55.1987" x2="94.4803" y2="137.22" gradientUnits="userSpaceOnUse">
<stop stop-color="#F4CE36"/>
<stop offset="0.998" stop-color="white"/>
</linearGradient>
<linearGradient id="paint2_linear" x1="64.4414" y1="39.0027" x2="112.546" y2="111.159" gradientUnits="userSpaceOnUse">
<stop stop-color="#F4CE36"/>
<stop offset="0.998" stop-color="white"/>
</linearGradient>
<linearGradient id="paint3_linear" x1="31.0551" y1="11.688" x2="29.7712" y2="11.6199" gradientUnits="userSpaceOnUse">
<stop offset="0.000376506" stop-color="#3656A6"/>
<stop offset="1" stop-color="#94C2E4"/>
</linearGradient>
<linearGradient id="paint4_linear" x1="29.1935" y1="14.9694" x2="22.6108" y2="14.6202" gradientUnits="userSpaceOnUse">
<stop offset="0.000376506" stop-color="#3656A6"/>
<stop offset="1" stop-color="#94C2E4"/>
</linearGradient>
<linearGradient id="paint5_linear" x1="23.9204" y1="6.54212" x2="17.3115" y2="9.78685" gradientUnits="userSpaceOnUse">
<stop offset="0.000376506" stop-color="#3656A6"/>
<stop offset="1" stop-color="#94C2E4"/>
</linearGradient>
<linearGradient id="paint6_linear" x1="12.7643" y1="0.939459" x2="12.0106" y2="1.98102" gradientUnits="userSpaceOnUse">
<stop offset="0.000376506" stop-color="#3656A6"/>
<stop offset="1" stop-color="#94C2E4"/>
</linearGradient>
<linearGradient id="paint7_linear" x1="14.5122" y1="4.28514" x2="10.5905" y2="9.7041" gradientUnits="userSpaceOnUse">
<stop offset="0.000376506" stop-color="#3656A6"/>
<stop offset="1" stop-color="#94C2E4"/>
</linearGradient>
</defs>
</svg>
