<svg width="151" height="30" viewBox="0 0 151 30" fill="none" xmlns="http://www.w3.org/2000/svg">
<path d="M150.178 22.348C150.178 22.042 149.92 21.934 149.65 21.934H149.152V23.356H149.404V22.762H149.59L149.92 23.356H150.226L149.842 22.732C150.052 22.69 150.178 22.552 150.178 22.348ZM149.41 22.552V22.15H149.638C149.776 22.15 149.92 22.192 149.92 22.348C149.92 22.522 149.752 22.564 149.614 22.564L149.41 22.552ZM149.65 21.388C148.948 21.388 148.384 21.952 148.384 22.648C148.384 23.35 148.954 23.896 149.65 23.896C150.346 23.896 150.916 23.344 150.916 22.648C150.916 21.946 150.346 21.388 149.65 21.388ZM149.65 23.716C149.062 23.716 148.582 23.23 148.582 22.648C148.582 22.06 149.062 21.58 149.65 21.58C150.238 21.58 150.718 22.06 150.718 22.648C150.712 23.23 150.232 23.716 149.65 23.716Z" fill="black"/>
<path d="M68.1819 21.598C66.3279 21.598 65.3979 19.942 65.3979 18.346C65.3979 16.75 66.4119 15.166 68.0919 15.166C68.8779 15.166 69.8739 15.562 70.2639 16.12L72.2259 14.164C71.2779 13.162 69.7599 12.562 68.0919 12.562C64.6779 12.562 62.2059 15.01 62.2059 18.382C62.2059 21.808 64.6539 24.202 68.1579 24.202C69.8259 24.202 71.3619 23.716 72.2799 22.732L70.3719 20.686C69.9399 21.22 69.0099 21.598 68.1819 21.598ZM57.2139 23.884H60.2559V12.868H57.2139V23.884ZM51.6879 18.91C51.6879 20.2 50.8479 21.598 49.2699 21.598C48.0579 21.598 47.4099 20.734 47.4099 18.958V12.874H44.3679V19.714C44.3679 21.988 45.5079 24.208 48.5379 24.208C49.9719 24.208 51.1659 23.08 51.7719 22.246H51.8199V23.896H54.7299V12.88H51.6879V18.91ZM38.8779 14.266H38.8119C38.3799 13.792 37.2159 12.562 35.3259 12.562C32.2239 12.562 29.8359 14.992 29.8359 18.34C29.8359 21.736 32.0379 24.208 35.1819 24.208C36.6099 24.208 37.9479 23.452 38.7279 22.57H38.7759V29.32H41.8179V12.874H38.8839V14.266H38.8779ZM35.9259 21.598C34.0479 21.598 32.9739 19.954 32.9739 18.334C32.9739 16.78 33.9579 15.118 35.9259 15.118C37.7379 15.118 38.8599 16.81 38.8599 18.382C38.8539 19.966 37.7559 21.598 35.9259 21.598ZM105.226 12.562C101.764 12.562 99.2499 14.992 99.2499 18.34C99.2499 21.802 101.818 24.238 105.226 24.238C108.634 24.238 111.196 21.784 111.196 18.34C111.196 14.992 108.682 12.562 105.226 12.562ZM105.226 21.598C103.24 21.598 102.34 19.906 102.34 18.334C102.34 16.78 103.246 15.118 105.226 15.118C107.212 15.118 108.112 16.786 108.112 18.334C108.112 19.912 107.206 21.598 105.226 21.598ZM143.26 17.104C141.694 16.732 141.148 16.528 141.148 15.898C141.148 15.022 142.258 14.83 142.762 14.83C143.704 14.83 144.772 15.394 145.174 15.928L146.968 14.212C146.14 13.168 144.508 12.562 142.786 12.562C140.584 12.562 138.268 13.672 138.268 16.138C138.268 18.268 139.936 18.904 141.562 19.294C143.278 19.69 143.89 19.99 143.89 20.68C143.89 21.7 142.732 21.868 142.336 21.868C141.34 21.868 140.182 21.298 139.564 20.56L137.716 22.432C138.724 23.554 140.452 24.22 142.228 24.22C145.204 24.22 146.968 22.804 146.968 20.464C146.956 18.226 144.796 17.476 143.26 17.104ZM137.506 12.868H133.582L129.652 17.44H129.586V6.79601H126.544V23.884H129.586V18.448H129.652L133.726 23.884H137.728L132.994 17.866L137.506 12.868ZM92.3979 12.562C91.0059 12.562 89.9799 13.174 89.0139 14.08H88.9539V6.802H85.9119V23.89H88.8219V22.33H88.8699C89.5599 23.458 90.9219 24.196 92.3319 24.196C95.4699 24.196 97.8519 21.73 97.8519 18.328C97.8459 14.992 95.4939 12.562 92.3979 12.562ZM91.7979 21.598C89.9619 21.598 88.8639 19.96 88.8639 18.382C88.8639 16.81 89.9859 15.118 91.7979 15.118C93.7659 15.118 94.7499 16.786 94.7499 18.334C94.7439 19.96 93.6759 21.598 91.7979 21.598ZM84.7599 12.868H80.8359L76.9059 17.44H76.8399V6.79601H73.7979V23.884H76.8399V18.448H76.9059L80.9799 23.884H84.9879L80.2539 17.866L84.7599 12.868ZM118.594 12.562C115.132 12.562 112.618 14.992 112.618 18.34C112.618 21.802 115.186 24.238 118.594 24.238C122.002 24.238 124.57 21.784 124.57 18.34C124.564 14.992 122.05 12.562 118.594 12.562ZM118.594 21.598C116.608 21.598 115.708 19.906 115.708 18.334C115.708 16.78 116.614 15.118 118.594 15.118C120.58 15.118 121.48 16.786 121.48 18.334C121.48 19.912 120.574 21.598 118.594 21.598Z" fill="black"/>
<path d="M13.5997 26.026C20.6797 26.026 26.4157 20.29 26.4157 13.21C26.4157 6.13 20.6797 0.393997 13.5997 0.393997C6.5197 0.393997 0.783696 6.13 0.783696 13.21C0.777696 20.284 6.5197 26.026 13.5997 26.026Z" fill="#2CA01C"/>
<path d="M4.33594 13.21C4.33594 15.964 6.56794 18.196 9.32194 18.196H10.0359V16.348H9.32194C7.59394 16.348 6.18994 14.944 6.18994 13.216C6.18994 11.488 7.59394 10.084 9.32194 10.084H11.0319C11.0319 10.084 11.0319 19.582 11.0319 19.768C11.0319 20.794 11.8599 21.616 12.8799 21.616V8.23C12.8799 8.23 10.9659 8.23 9.31594 8.23C6.56794 8.224 4.33594 10.456 4.33594 13.21ZM17.8719 8.22401H17.1579V10.072H17.8719C19.5999 10.072 21.0039 11.476 21.0039 13.204C21.0039 14.932 19.5999 16.336 17.8719 16.336H16.1619C16.1619 16.336 16.1619 6.838 16.1619 6.652C16.1619 5.626 15.3339 4.804 14.3139 4.804V18.19C14.3139 18.19 16.2279 18.19 17.8779 18.19C20.6319 18.19 22.8639 15.958 22.8639 13.204C22.8519 10.456 20.6199 8.22401 17.8719 8.22401Z" fill="white"/>
<path d="M42.3755 3.31C42.8435 3.31 43.2215 2.932 43.2215 2.464C43.2215 1.996 42.8435 1.618 42.3755 1.618C41.9075 1.618 41.5295 1.996 41.5295 2.464C41.5295 2.932 41.9075 3.31 42.3755 3.31ZM37.3295 3.88C36.5015 3.88 35.8355 4.384 35.5895 4.942H35.5655V4.042H34.2335V9.646H35.6315V6.562C35.6315 5.818 36.0515 5.044 36.9395 5.044C37.8395 5.044 37.9895 5.872 37.9895 6.538V9.64H39.3875V6.136C39.3875 5.008 38.7875 3.88 37.3295 3.88ZM31.3955 9.65201H32.7995V4.048H31.3955V9.65201ZM56.8775 3.31C57.3455 3.31 57.7235 2.932 57.7235 2.464C57.7235 1.996 57.3455 1.618 56.8775 1.618C56.4095 1.618 56.0315 1.996 56.0315 2.464C56.0315 2.932 56.4095 3.31 56.8775 3.31ZM54.6095 4.042V5.284H56.1815V9.65201H57.5795V5.284H59.1515V4.042H54.6095ZM52.2275 9.65201H53.6315V4.048H52.2275V9.65201ZM40.1075 5.284H41.6795V9.65201H43.0775V5.284H44.6495V4.042H40.1135V5.284H40.1075ZM49.3895 7.12601C49.3895 7.87001 48.9695 8.644 48.0815 8.644C47.1815 8.644 47.0315 7.816 47.0315 7.15V4.042H45.6335V7.546C45.6335 8.692 46.2395 9.808 47.7035 9.808C48.5315 9.808 49.1975 9.304 49.4435 8.746H49.4675V9.646H50.7995V4.042H49.4015V7.12601H49.3895Z" fill="black"/>
</svg>
