<svg width="49" height="33" viewBox="0 0 49 33" fill="none" xmlns="http://www.w3.org/2000/svg">
<path d="M36.7578 32.628H0.757812L5.41982 6.17999C6.00182 2.86799 9.16381 0.179993 12.4758 0.179993H48.4758L43.8138 26.628C43.2318 29.94 40.0698 32.628 36.7578 32.628Z" fill="#EF7E19"/>
<path d="M38.93 13.596H11.558C11.39 13.596 11.258 13.464 11.258 13.296C11.258 13.128 11.39 12.996 11.558 12.996H38.93C39.098 12.996 39.23 13.128 39.23 13.296C39.23 13.464 39.098 13.596 38.93 13.596Z" fill="white"/>
<path d="M37.922 19.818H10.46C10.292 19.818 10.16 19.686 10.16 19.518C10.16 19.35 10.292 19.218 10.46 19.218H37.922C38.09 19.218 38.222 19.35 38.222 19.518C38.222 19.686 38.09 19.818 37.922 19.818Z" fill="white"/>
<path d="M32.438 25.26H18.83C18.662 25.26 18.53 25.128 18.53 24.96C18.53 24.792 18.662 24.66 18.83 24.66H32.438C34.874 24.66 37.202 22.68 37.634 20.244L39.764 8.154H19.376L16.4 25.014C16.376 25.158 16.25 25.26 16.106 25.26H9.10405C9.01405 25.26 8.93005 25.218 8.87605 25.152C8.81605 25.086 8.79205 24.996 8.81005 24.906L11.072 12.072C11.51 9.576 13.904 7.548 16.4 7.548C16.568 7.548 16.7 7.68 16.7 7.848C16.7 8.016 16.568 8.148 16.4 8.148C14.18 8.148 12.056 9.95401 11.666 12.18L9.46404 24.66H15.854L18.83 7.8C18.854 7.656 18.98 7.554 19.124 7.554H40.124C40.214 7.554 40.298 7.59601 40.352 7.66201C40.412 7.72801 40.436 7.818 40.418 7.908L38.222 20.352C37.748 23.058 35.15 25.26 32.438 25.26Z" fill="white"/>
</svg>
