<svg width="169" height="116" viewBox="0 0 169 116" fill="none" xmlns="http://www.w3.org/2000/svg">
<path d="M126.758 115.568H0.272003L16.826 21.668C18.902 9.90201 30.02 0.368011 41.666 0.368011H168.152L151.598 94.268C149.522 106.034 138.404 115.568 126.758 115.568Z" fill="url(#paint0_linear)"/>
<path opacity="0.7" d="M61.268 24.014L57.938 43.418H40.586L40.61 43.268C41.768 36.536 48.206 30.842 54.668 30.842L55.832 24.08C46.13 24.08 36.032 31.952 34.31 41.996L25.844 91.322H56.3L63.38 50.09H128.36L124.784 70.916C123.482 78.488 116.51 84.65 109.238 84.65H63.998L62.75 91.928H109.55C120.098 91.928 129.83 83.372 131.702 72.446L140.018 24.02H61.268V24.014ZM50.708 84.65H33.452L39.386 50.09H56.648L50.708 84.65ZM64.712 43.418L66.896 30.686H132.422L130.238 43.418H64.712Z" fill="white"/>
<defs>
<linearGradient id="paint0_linear" x1="11.7397" y1="57.9706" x2="252.663" y2="57.9706" gradientUnits="userSpaceOnUse">
<stop stop-color="#7DC3E6"/>
<stop offset="1" stop-color="white"/>
</linearGradient>
</defs>
</svg>
