<svg width="169" height="116" viewBox="0 0 169 116" fill="none" xmlns="http://www.w3.org/2000/svg">
<g opacity="0.8">
<path d="M127.419 116H0.932983L17.487 22.1C19.563 10.34 30.687 0.800003 42.327 0.800003H168.813L152.259 94.7C150.183 106.46 139.065 116 127.419 116Z" fill="url(#paint0_linear)"/>
<g opacity="0.8">
<path opacity="0.8" d="M80.247 91.4H104.847L106.119 84.2H81.519L80.247 91.4ZM103.599 23.6L102.435 30.2H133.635L132.399 37.4H138.801L141.171 23.6H103.599ZM53.325 74.6H60.333L62.805 60.2H55.797L53.325 74.6ZM82.599 23.6H69.999L68.835 30.2H81.435L82.599 23.6ZM66.615 42.8H66.015H58.905H58.215H49.215H42.015H35.421L31.923 63.2H38.325L40.695 49.4H54.057H57.657H64.665H69.657H79.857L81.021 42.8H66.615ZM35.955 77H29.553L27.183 90.8H39.549L40.713 84.2H34.713L35.955 77ZM50.919 84.2H47.319L46.155 90.8H57.555L58.689 84.2H51.675H50.919ZM56.235 30.224L57.381 23.558C49.371 23.558 41.109 28.802 37.407 36.2H44.985C47.739 32.648 51.969 30.224 56.235 30.224Z" fill="white"/>
</g>
</g>
<defs>
<linearGradient id="paint0_linear" x1="12.4007" y1="58.4" x2="253.324" y2="58.4" gradientUnits="userSpaceOnUse">
<stop stop-color="#7DC3E6"/>
<stop offset="1" stop-color="white"/>
</linearGradient>
</defs>
</svg>
