<svg width="48" height="33" viewBox="0 0 48 33" fill="none" xmlns="http://www.w3.org/2000/svg">
<path d="M36 32.448H0L4.662 6C5.244 2.688 8.406 0 11.718 0H47.718L43.056 26.448C42.474 29.76 39.312 32.448 36 32.448Z" fill="#36A557"/>
<path d="M38.0222 13.416H10.8002C10.6322 13.416 10.5002 13.284 10.5002 13.116C10.5002 12.948 10.6322 12.816 10.8002 12.816H38.0222C38.1902 12.816 38.3222 12.948 38.3222 13.116C38.3222 13.284 38.1842 13.416 38.0222 13.416Z" fill="white"/>
<path d="M36.8822 19.638H9.70218C9.53418 19.638 9.40218 19.506 9.40218 19.338C9.40218 19.17 9.53418 19.038 9.70218 19.038H36.8822C37.0502 19.038 37.1822 19.17 37.1822 19.338C37.1822 19.506 37.0502 19.638 36.8822 19.638Z" fill="white"/>
<path d="M31.6861 25.08H18.0781C17.9101 25.08 17.7781 24.948 17.7781 24.78C17.7781 24.612 17.9101 24.48 18.0781 24.48H31.6861C34.1221 24.48 36.4501 22.5 36.8821 20.064L39.0121 7.97401H18.6241L15.6481 24.834C15.6241 24.978 15.4981 25.08 15.3541 25.08H8.35209C8.26209 25.08 8.17809 25.038 8.12409 24.972C8.06409 24.906 8.04009 24.816 8.05809 24.726L10.3201 11.892C10.7581 9.39601 13.1521 7.36801 15.6481 7.36801C15.8161 7.36801 15.9481 7.50001 15.9481 7.66801C15.9481 7.83601 15.8161 7.96801 15.6481 7.96801C13.4281 7.96801 11.3041 9.77401 10.9141 12L8.71209 24.48H15.1021L18.0781 7.62001C18.1021 7.47601 18.2281 7.37401 18.3721 7.37401H39.3721C39.4621 7.37401 39.5461 7.41601 39.6001 7.48201C39.6601 7.54801 39.6841 7.63801 39.6661 7.72801L37.4701 20.172C36.9901 22.872 34.3981 25.08 31.6861 25.08Z" fill="white"/>
</svg>
