<svg width="56" height="57" viewBox="0 0 56 57" fill="none" xmlns="http://www.w3.org/2000/svg">
<mask id="mask0" mask-type="alpha" maskUnits="userSpaceOnUse" x="0" y="0" width="56" height="57">
<path fill-rule="evenodd" clip-rule="evenodd" d="M48.855 15.8594C44.1139 10.8949 37.3854 8.09332 29.8668 7.95764V4.57345C29.8668 4.23822 29.5954 3.97483 29.2682 3.97483H24.2957V3.77529C24.2957 2.35457 25.453 1.19724 26.8817 1.19724H32.4448C33.8656 1.19724 35.0309 2.35457 35.0309 3.77529V3.97483H32.4448C32.1176 3.97483 31.8462 4.23822 31.8462 4.57345C31.8462 4.90069 32.1176 5.17206 32.4448 5.17206H35.6295C35.9567 5.17206 36.2281 4.90069 36.2281 4.57345V3.77529C36.2281 1.6921 34.528 0 32.4448 0H26.8817C24.7985 0 23.0984 1.6921 23.0984 3.77529V4.57345C23.0984 4.90069 23.3698 5.17206 23.697 5.17206H28.6696V8.54827C28.6696 8.87552 28.9329 9.14689 29.2682 9.14689C36.699 9.14689 43.3477 11.8287 47.985 16.6895C52.2232 21.1352 54.3862 27.0416 54.0829 33.3391C53.5242 44.9602 44.3853 54.4903 32.82 55.5039C26.1554 56.0866 19.794 53.9395 14.8933 49.4539C10.0645 45.0321 7.29488 38.7346 7.29488 32.1897C7.29488 31.2958 8.02121 30.5695 8.91514 30.5695H20.7438C21.0711 30.5695 21.3425 30.3061 21.3425 29.9708C21.3425 29.6436 21.0711 29.3722 20.7438 29.3722H8.91514C7.35874 29.3722 6.09765 30.6333 6.09765 32.1897C6.09765 39.0698 9.01092 45.6866 14.0872 50.3398C18.6766 54.5461 24.5032 56.7969 30.6729 56.7969C31.4152 56.7969 32.1655 56.765 32.9237 56.7012C45.0797 55.6316 54.6895 45.6147 55.2801 33.3949C55.5994 26.7702 53.3167 20.5446 48.855 15.8594ZM18.6051 22.0371C18.6051 21.7099 18.3337 21.4385 18.0064 21.4385H0.598619C0.271374 21.4385 0 21.7099 0 22.0371C0 22.3724 0.271374 22.6358 0.598619 22.6358H18.0064C18.3337 22.6358 18.6051 22.3724 18.6051 22.0371ZM10.0167 14.6542H25.4292C25.7644 14.6542 26.0278 14.3828 26.0278 14.0556C26.0278 13.7283 25.7644 13.4569 25.4292 13.4569H10.0167C9.68948 13.4569 9.41811 13.7283 9.41811 14.0556C9.41811 14.3828 9.68948 14.6542 10.0167 14.6542ZM37.0425 27.2092L45.2635 18.9802C45.495 18.7487 45.495 18.3736 45.2635 18.1342C45.0321 17.9027 44.649 17.9027 44.4175 18.1342L36.1965 26.3632C35.957 26.5946 35.957 26.9698 36.1965 27.2092C36.3082 27.321 36.4599 27.3848 36.6195 27.3848C36.7711 27.3848 36.9228 27.321 37.0425 27.2092ZM27.9355 32.6526V33.0677C27.9355 34.5682 29.1567 35.7894 30.6493 35.7894H30.8728C32.8841 35.7415 33.786 34.0494 33.786 32.8602C33.786 32.5329 33.5226 32.2616 33.1874 32.2616C32.8602 32.2616 32.5888 32.5329 32.5888 32.8602C32.5888 33.2992 32.2695 34.5602 30.8648 34.5922H30.6493C29.8112 34.5922 29.1328 33.9058 29.1328 33.0677V32.6526C29.1328 31.8146 29.8112 31.1282 30.6493 31.1282H42.7573C43.0846 31.1282 43.3559 30.8648 43.3559 30.5295C43.3559 30.2023 43.0846 29.9309 42.7573 29.9309H30.6493C29.1567 29.9309 27.9355 31.1521 27.9355 32.6526Z" fill="white"/>
</mask>
<g mask="url(#mask0)">
<path fill-rule="evenodd" clip-rule="evenodd" d="M48.855 15.8594C44.1139 10.8949 37.3854 8.09332 29.8668 7.95764V4.57345C29.8668 4.23822 29.5954 3.97483 29.2682 3.97483H24.2957V3.77529C24.2957 2.35457 25.453 1.19724 26.8817 1.19724H32.4448C33.8656 1.19724 35.0309 2.35457 35.0309 3.77529V3.97483H32.4448C32.1176 3.97483 31.8462 4.23822 31.8462 4.57345C31.8462 4.90069 32.1176 5.17206 32.4448 5.17206H35.6295C35.9567 5.17206 36.2281 4.90069 36.2281 4.57345V3.77529C36.2281 1.6921 34.528 0 32.4448 0H26.8817C24.7985 0 23.0984 1.6921 23.0984 3.77529V4.57345C23.0984 4.90069 23.3698 5.17206 23.697 5.17206H28.6696V8.54827C28.6696 8.87552 28.9329 9.14689 29.2682 9.14689C36.699 9.14689 43.3477 11.8287 47.985 16.6895C52.2232 21.1352 54.3862 27.0416 54.0829 33.3391C53.5242 44.9602 44.3853 54.4903 32.82 55.5039C26.1554 56.0866 19.794 53.9395 14.8933 49.4539C10.0645 45.0321 7.29488 38.7346 7.29488 32.1897C7.29488 31.2958 8.02121 30.5695 8.91514 30.5695H20.7438C21.0711 30.5695 21.3425 30.3061 21.3425 29.9708C21.3425 29.6436 21.0711 29.3722 20.7438 29.3722H8.91514C7.35874 29.3722 6.09765 30.6333 6.09765 32.1897C6.09765 39.0698 9.01092 45.6866 14.0872 50.3398C18.6766 54.5461 24.5032 56.7969 30.6729 56.7969C31.4152 56.7969 32.1655 56.765 32.9237 56.7012C45.0797 55.6316 54.6895 45.6147 55.2801 33.3949C55.5994 26.7702 53.3167 20.5446 48.855 15.8594ZM18.6051 22.0371C18.6051 21.7099 18.3337 21.4385 18.0064 21.4385H0.598619C0.271374 21.4385 0 21.7099 0 22.0371C0 22.3724 0.271374 22.6358 0.598619 22.6358H18.0064C18.3337 22.6358 18.6051 22.3724 18.6051 22.0371ZM10.0167 14.6542H25.4292C25.7644 14.6542 26.0278 14.3828 26.0278 14.0556C26.0278 13.7283 25.7644 13.4569 25.4292 13.4569H10.0167C9.68948 13.4569 9.41811 13.7283 9.41811 14.0556C9.41811 14.3828 9.68948 14.6542 10.0167 14.6542ZM37.0425 27.2092L45.2635 18.9802C45.495 18.7487 45.495 18.3736 45.2635 18.1342C45.0321 17.9027 44.649 17.9027 44.4175 18.1342L36.1965 26.3632C35.957 26.5946 35.957 26.9698 36.1965 27.2092C36.3082 27.321 36.4599 27.3848 36.6195 27.3848C36.7711 27.3848 36.9228 27.321 37.0425 27.2092ZM27.9355 32.6526V33.0677C27.9355 34.5682 29.1567 35.7894 30.6493 35.7894H30.8728C32.8841 35.7415 33.786 34.0494 33.786 32.8602C33.786 32.5329 33.5226 32.2616 33.1874 32.2616C32.8602 32.2616 32.5888 32.5329 32.5888 32.8602C32.5888 33.2992 32.2695 34.5602 30.8648 34.5922H30.6493C29.8112 34.5922 29.1328 33.9058 29.1328 33.0677V32.6526C29.1328 31.8146 29.8112 31.1282 30.6493 31.1282H42.7573C43.0846 31.1282 43.3559 30.8648 43.3559 30.5295C43.3559 30.2023 43.0846 29.9309 42.7573 29.9309H30.6493C29.1567 29.9309 27.9355 31.1521 27.9355 32.6526Z" fill="url(#paint0_linear)"/>
</g>
<defs>
<linearGradient id="paint0_linear" x1="-0.343206" y1="60.3704" x2="61.9267" y2="60.3704" gradientUnits="userSpaceOnUse">
<stop stop-color="#7DBCD7"/>
<stop offset="1" stop-color="#244D90"/>
</linearGradient>
</defs>
</svg>
