<?xml version="1.0" encoding="UTF-8" standalone="no"?>
<svg width="45px" height="28px" viewBox="0 0 45 28" version="1.1" xmlns="http://www.w3.org/2000/svg" xmlns:xlink="http://www.w3.org/1999/xlink">
    <!-- Generator: Sketch 43.1 (39012) - http://www.bohemiancoding.com/sketch -->
    <title>Stroke 84</title>
    <desc>Created with Sketch.</desc>
    <defs>
        <path d="M36.8434527,205.947712 L9.79831649,205.867411 C8.78952315,205.867411 7.83646426,205.512977 7.12027673,204.878872 C6.39572903,204.233692 5.9972278,203.375297 6.00001452,202.461521 L6.05017551,182.278164 C6.05574896,180.40631 7.76122277,178.888889 9.85683765,178.888889 L36.9019738,178.966421 C37.8884734,178.96919 38.824812,179.30701 39.535426,179.918963 L49.8490838,189.992643 C50.5847784,190.626747 50.9972133,191.496218 51,192.429377 C51,193.359766 50.5875652,194.226468 49.837937,194.874418 L39.5019854,204.981326 C38.774651,205.609892 37.8355257,205.947712 36.8434527,205.947712 Z" id="path-1"></path>
    </defs>
    <g id="Main-Desktop-Flow" stroke="none" stroke-width="1" fill="none" fill-rule="evenodd">
        <g id="2.1-Question-for-me-and-others-selected" transform="translate(-966.000000, -421.000000)">
            <g id="Group-7-Copy" transform="translate(841.000000, 193.000000)">
                <g id="Group-2" transform="translate(119.000000, 50.000000)">
                    <g id="Stroke-84">
                        <use fill="#FFE490" fill-rule="evenodd" xlink:href="#path-1"></use>
                        <path stroke="#FFC820" stroke-width="1.5" d="M36.8445138,205.197712 L9.80054335,205.117414 C8.97321718,205.117411 8.1967239,204.830223 7.61745083,204.317341 C7.05170214,203.81356 6.74789309,203.158289 6.75001103,202.463809 L6.8001732,182.280028 C6.80445393,180.842364 8.15642638,179.638889 9.85683765,179.638889 L36.8998238,179.716418 C37.7109398,179.718695 38.4736782,179.9944 39.0460177,180.487276 L49.3250325,190.529178 C49.9336401,191.055663 50.2478789,191.720221 50.2500033,192.431616 C50.25,193.137333 49.9355757,193.798682 49.3474864,194.307004 L38.9776301,204.445088 C38.4251227,204.920694 37.6619549,205.197473 36.8445138,205.197712 Z"></path>
                    </g>
                </g>
            </g>
        </g>
    </g>
</svg>