<?xml version="1.0" encoding="utf-8"?>
<!-- Generator: Adobe Illustrator 17.1.0, SVG Export Plug-In . SVG Version: 6.00 Build 0)  -->
<!DOCTYPE svg PUBLIC "-//W3C//DTD SVG 1.1//EN" "http://www.w3.org/Graphics/SVG/1.1/DTD/svg11.dtd">
<svg version="1.1" id="Layer_1" xmlns="http://www.w3.org/2000/svg" xmlns:xlink="http://www.w3.org/1999/xlink" x="0px" y="0px"
	 width="142px" height="230px" viewBox="0 0 142 230" enable-background="new 0 0 142 230" xml:space="preserve">
<path opacity="0.75" fill="transparent" d="M142,224c0,3.3-2.7,6-6,6H6c-3.3,0-6-2.7-6-6V6c0-3.3,2.7-6,6-6h130c3.3,0,6,2.7,6,6V224z"/>
<g>
	<polygon fill="#333333" points="80,88.5 80,52.1 62,52.1 62,88.5 50,88.5 71,112.5 92,88.5 	"/>
</g>
<path fill="#333333" d="M70,179.3c-6.3,6.3-16.6,6.3-22.9,0s-6.3-16.6,0-22.9l31.8-31.8c4.6-4.6,12.1-4.6,16.7,0
	c4.6,4.6,4.6,12.1,0,16.7l-27.6,27.6c-2.9,2.9-7.5,2.9-10.4,0c-2.9-2.9-2.9-7.5,0-10.4L83,133l3.1,3.1l-25.5,25.5
	c-1.1,1.1-1.1,3,0,4.2c1.1,1.1,3,1.1,4.2,0l27.6-27.6c2.9-2.9,2.9-7.5,0-10.4c-2.9-2.9-7.5-2.9-10.4,0l-31.8,31.8
	c-4.6,4.6-4.6,12.1,0,16.7s12.1,4.6,16.7,0l29.7-29.7l3.1,3.1L70,179.3z"/>
</svg>
