<svg xmlns="http://www.w3.org/2000/svg" xmlns:xlink="http://www.w3.org/1999/xlink" style="display:none"><defs> <path d="M14,4 C12.8954305,4 12,3.1045695 12,2 C12,0.8954305 12.8954305,0 14,0 C15.1045695,0 16,0.8954305 16,2 C16,3.1045695 15.1045695,4 14,4 Z M8,4 C6.8954305,4 6,3.1045695 6,2 C6,0.8954305 6.8954305,0 8,0 C9.1045695,0 10,0.8954305 10,2 C10,3.1045695 9.1045695,4 8,4 Z M2,4 C0.8954305,4 0,3.1045695 0,2 C0,0.8954305 0.8954305,0 2,0 C3.1045695,0 4,0.8954305 4,2 C4,3.1045695 3.1045695,4 2,4 Z" id="rd-icon-more-grey-l-path-1"/> <path id="rd-icon-reset-l-a" d="M7 5v3L3 4l4-4v3a7 7 0 1 1-7 7h2a5 5 0 1 0 5-5z"/></defs><symbol viewBox="0 0 24 24" id="rd-icon-add-l"><path d="M11 11V6h2v5h5v2h-5v5h-2v-5H6v-2z"/></symbol><symbol viewBox="0 0 20 20" id="rd-icon-add-m"><path d="M9 9V4h2v5h5v2h-5v5H9v-5H4V9z"/></symbol><symbol viewBox="0 0 24 24" id="rd-icon-add-user-l"><path fill-rule="evenodd" d="M19 9h3v2h-3v3h-2v-3h-2a4.5 4.5 0 0 0-1-1c.5-.2.84-.53 1-1h2V6h2zm-9-5a3 3 0 1 1 0 6 3 3 0 0 1 0-6zm-.02 7c4 0 6 2.67 6 8h-12c0-5.33 2-8 6-8z"/></symbol><symbol viewBox="0 0 24 24" id="rd-icon-admin-l"><path fill-rule="evenodd" d="M6 9h12a1 1 0 0 1 1 1v9a1 1 0 0 1-1 1H6a1 1 0 0 1-1-1v-9a1 1 0 0 1 1-1zm3-.96H7V6c0-1.1.9-2 2-2h6a2 2 0 0 1 2 2v2h-2V6H9z"/></symbol><symbol viewBox="0 0 20 20" id="rd-icon-analyze-custom-m"><path fill-rule="evenodd" d="M14.9 2.37l-2.26 2.27.07 2.59 2.58.07 2.27-2.28a4.38 4.38 0 0 1-5.6 5.6l-6.05 6.06a1.88 1.88 0 0 1-2.66-2.66l6.06-6.05a4.38 4.38 0 0 1 5.6-5.6z"/></symbol><symbol viewBox="0 0 20 20" id="rd-icon-analyze-m"><path d="m13 16-1.07 2h-3.86l-1.07-2zm-6-1v-.73a6.5 6.5 0 1 1 6 0v.73z"/></symbol><symbol viewBox="0 0 32 32" id="rd-icon-analyze-xl"><path d="m20 26-2 2h-4l-2-2zm0-3v2h-8v-2zm-8-1v-1a8.5 8.5 0 1 1 8 0v1z"/></symbol><symbol viewBox="0 0 24 24" id="rd-icon-anomaly-down-l"><path d="m13 16h5l-5.944 6-6.056-6h5v-14h2z" class="color-primary"/></symbol><symbol viewBox="0 0 24 24" id="rd-icon-anomaly-up-l"><path d="m13 8v14h-2v-14h-5l6.056-6 5.944 6z" class="color-primary"/></symbol><symbol viewBox="0 0 24 24" id="rd-icon-arrow-down-l"><path d="M13 15.19l2-2 1.41 1.41L12 19.01 7.59 14.6 9 13.19l2 2V6h2z"/></symbol><symbol viewBox="0 0 20 20" id="rd-icon-arrow-down-m-gray"><path fill="#747e8c" d="M11 13.19l2-2 1.41 1.41L10 17.01 5.59 12.6 7 11.19l2 2V4h2z"/></symbol><symbol viewBox="0 0 20 20" id="rd-icon-arrow-down-m"><path d="m11 5-.001 6.58 2.003-1.993 1.411 1.418-4.415 4.395-4.414-4.395 1.411-1.418 2.004 1.995.001-6.582z"/></symbol><symbol viewBox="0 0 20 20" id="rd-icon-arrow-left-m"><path d="m15.5 11.516-6.58-.001 1.992 2.002-1.417 1.411-4.395-4.414 4.395-4.414 1.417 1.411-1.994 2.004 6.582.001z"/></symbol><symbol viewBox="0 0 32 32" id="rd-icon-arrow-left-xl"><path d="m24.603 16.878h-11.799l3.999 4-1.414 1.414-6.364-6.364.02-.02-.045-.044 6.364-6.364 1.414 1.414-3.964 3.964h11.789z"/></symbol><symbol viewBox="0 0 20 20" id="rd-icon-arrow-right-m"><path d="m4.5 11.516v-2l6.582-.001-1.995-2.004 1.418-1.411 4.395 4.414-4.395 4.414-1.418-1.411 1.993-2.002z"/></symbol><symbol viewBox="0 0 24 24" id="rd-icon-arrow-up-l"><path d="M11 9.81l-2 2-1.41-1.41L12 5.99l4.41 4.41L15 11.81l-2-2V19h-2z"/></symbol><symbol viewBox="0 0 20 20" id="rd-icon-arrow-up-m-gray"><path fill="#747e8c" d="M9 6.83l-2 2L5.59 7.4 10 3l4.41 4.41L13 8.83l-2-2V16H9z"/></symbol><symbol viewBox="0 0 20 20" id="rd-icon-arrow-up-m"><path d="m9.998 4.6 4.415 4.395-1.411 1.418-2.003-1.994.001 6.581h-2l-.001-6.583-2.004 1.996-1.411-1.418z"/></symbol><symbol viewBox="0 0 20 20" id="rd-icon-attribute-m"><path d="m14.5 14.8185118h-2.5228628c-.0357853-.3629764-.0715706-.707804-.053678-1.0707804-.5904572.5989111-1.3240556 1.2522686-3.02385681 1.2522686-2.00397615 0-3.39960239-1.0344828-3.39960239-2.831216 0-2.32304897 2.68389662-3.03085297 5.3499006-3.26678763.3041749-.01814882.6441352-.05444646.8230616-.05444646 0-1.30671506-.4294234-1.94192378-1.5029821-1.94192378-.96620276 0-1.4671968.50816697-1.55666002 1.36116153h-2.68389662c.14314115-1.97822142 1.64612326-3.26678766 4.24055664-3.26678766 2.7196819 0 4.1332008 1.03448276 4.1332008 4.2831216v2.9038112c0 .707804.0178927 1.923775.1968191 2.631579zm-2.8449304-3.9019964c0-.1088929 0-.199637.0178926-.3266787l-.4831014.0544464c-2.07554668.2359347-2.84493038.5626135-2.84493038 1.4337568 0 .6896552.57256461 1.1070781 1.41351888 1.1070781 1.2882704 0 1.8966203-.8166969 1.8966203-2.2686026z" fill-rule="evenodd"/></symbol><symbol viewBox="0 0 16 16" id="rd-icon-attribute-s"><path id="rd-icon-attribute-s-a" d="M12.5 12.82H9.98c-.04-.36-.07-.7-.06-1.07A3.73 3.73 0 0 1 6.9 13c-2 0-3.4-1.03-3.4-2.83 0-2.32 2.68-3.03 5.35-3.27.3-.02.64-.05.82-.05 0-1.3-.43-1.94-1.5-1.94-.97 0-1.47.5-1.56 1.36H3.93C4.07 4.29 5.58 3 8.17 3c2.72 0 4.13 1.03 4.13 4.28v2.9c0 .71.02 1.93.2 2.64zm-2.84-3.9l.01-.33-.48.05c-2.08.24-2.85.57-2.85 1.44 0 .69.58 1.1 1.42 1.1 1.29 0 1.9-.81 1.9-2.26z"/></symbol><symbol viewBox="0 0 20 20" id="rd-icon-auto-layout-m"><path d="M4 4v4h12V4zM3 2h14a1 1 0 0 1 1 1v6a1 1 0 0 1-1 1H3a1 1 0 0 1-1-1V3a1 1 0 0 1 1-1zm0 10h5a1 1 0 0 1 1 1v4a1 1 0 0 1-1 1H3a1 1 0 0 1-1-1v-4a1 1 0 0 1 1-1zm9 0h5a1 1 0 0 1 1 1v4a1 1 0 0 1-1 1h-5a1 1 0 0 1-1-1v-4a1 1 0 0 1 1-1z"/></symbol><symbol viewBox="0 0 24 24" id="rd-icon-caret-down-l"><path fill-rule="evenodd" d="M6.96 10l5.02 5L17 10z"/></symbol><symbol viewBox="0 0 20 20" id="rd-icon-caret-down-light-m"><path fill="white" fill-rule="evenodd" d="M5.16 8.87l4.5 4a.5.5 0 0 0 .67 0l4.5-4a.5.5 0 0 0-.34-.87h-9a.5.5 0 0 0-.33.87z"/></symbol><symbol viewBox="0 0 20 20" id="rd-icon-caret-down-m-grey"><path fill="#747e8c" fill-rule="evenodd" d="M5.35 8L10 12.13 14.65 8z"/></symbol><symbol viewBox="0 0 20 20" id="rd-icon-caret-down-m"><path fill-rule="evenodd" d="M5.35 8L10 12.13 14.65 8z"/></symbol><symbol viewBox="0 0 32 32" id="rd-icon-caret-down-xl"><path fill-rule="evenodd" d="M11 14l5.04 5.49L21.07 14z"/></symbol><symbol viewBox="0 0 20 20" id="rd-icon-caret-left-m"><path d="m11.549 6.35v7.275l-3.649-3.635z" fill-rule="evenodd"/></symbol><symbol viewBox="0 0 20 20" id="rd-icon-caret-right-m"><path fill-rule="evenodd" d="M9 14.65L13.13 10 9 5.35z"/></symbol><symbol viewBox="0 0 24 24" id="rd-icon-caret-up-l"><path fill-rule="evenodd" d="M6.96 13l5.02-5L17 13z"/></symbol><symbol viewBox="0 0 20 20" id="rd-icon-caret-up-m"><path fill-rule="evenodd" d="M14.65 11L10 6.87 5.35 11z"/></symbol><symbol viewBox="0 0 20 20" id="rd-icon-chart-m"><path fill-rule="evenodd" d="M2 10h3v6H2zm4.34-3h3v9h-3zm4.34-3h3v12h-3zm4.34 2h3v10h-3z"/></symbol><symbol viewBox="0 0 16 16" id="rd-icon-chart-s"><path fill-rule="evenodd" d="M12 4h1.98v10H12zM8.67 2h1.98v12H8.67zM5.33 6h1.99v8H5.33zM2 9h1.98v5H2z"/></symbol><symbol viewBox="0 0 32 32" id="rd-icon-chart-xl"><path d="m11 16v6h-3v-6zm4-3v9h-3v-9zm4-5v14h-3v-14zm4 3v11h-3v-11z" fill-rule="evenodd"/></symbol><symbol viewBox="0 0 20 20" id="rd-icon-check-m"><path d="M14.3 6.29l1.4 1.41L9 14.41l-3.71-3.7L6.7 9.29 9 11.6z"/></symbol><symbol viewBox="0 0 24 24" id="rd-icon-chevron-down-l"><path d="M16.35 8.65l1.42 1.41-5.7 5.7-5.72-5.7 1.42-1.41 4.3 4.29z"/></symbol><symbol viewBox="0 0 20 20" id="rd-icon-chevron-down-m"><path d="M13.32 7.3l1.4 1.42-4.71 4.7-4.71-4.7 1.4-1.41 3.3 3.28z"/></symbol><symbol viewBox="0 0 32 32" id="rd-icon-chevron-down-xl"><path d="M20.3 12l1.42 1.41L16 19.12l-5.71-5.7L11.71 12l4.3 4.3z"/></symbol><symbol viewBox="0 0 20 20" id="rd-icon-chevron-left-m"><path d="m12.771 13.362-1.419 1.409-4.689-4.724 4.69-4.71 1.417 1.411-3.287 3.301z"/></symbol><symbol viewBox="0 0 32 32" id="rd-icon-chevron-left-xl"><path d="M18.7 20.3l-1.4 1.4-5.71-5.7 5.7-5.7 1.42 1.4-4.3 4.3z"/></symbol><symbol viewBox="0 0 20 20" id="rd-icon-chevron-right-m"><path d="m7.229 6.638 1.419-1.409 4.689 4.724-4.69 4.71-1.417-1.411 3.287-3.301z"/></symbol><symbol viewBox="0 0 32 32" id="rd-icon-chevron-right-xl"><path d="M13.3 11.7l1.41-1.4 5.71 5.7-5.7 5.7-1.42-1.4 4.3-4.3z"/></symbol><symbol viewBox="0 0 24 24" id="rd-icon-chevron-up-l"><path d="M7.41 15.12L6 13.71 11.7 8l5.72 5.7L16 15.13l-4.3-4.3z"/></symbol><symbol viewBox="0 0 20 20" id="rd-icon-chevron-up-m"><path d="M6.4 13.1L5 11.7 9.72 7l4.71 4.69-1.4 1.42-3.3-3.29z"/></symbol><symbol viewBox="0 0 32 32" id="rd-icon-chevron-up-xl"><path d="M20.3 20.12l1.42-1.41L16 13l-5.71 5.7 1.41 1.42 4.3-4.3z"/></symbol><symbol viewBox="0 0 20 20" id="rd-icon-community-m"><path fill-rule="evenodd" d="M13.11 17c0-.45-.04-.94-.07-1.45-.1-1.7-.41-3.2-.93-4.42.54-.35 1.2-.53 1.95-.53 2.62 0 3.93 2.14 3.91 6.4zM14 5a2 2 0 1 1 0 4 2 2 0 0 1 0-4zM7 2.5a2.5 2.5 0 1 1 0 5 2.5 2.5 0 0 1 0-5zM7 9c3.32 0 5 2.67 5 8H1.98C2 11.67 3.67 9 7 9z"/></symbol><symbol viewBox="0 0 32 32" id="rd-icon-community-xl"><path fill-rule="evenodd" d="M20.05 23c-.01-.34-.03-.66-.02-.92 0-2.47-.47-4.5-1.4-6.03a5.2 5.2 0 0 1 2.4-.52c3.53 0 5.18 2.5 4.95 7.47zM21 8.5a2.5 2.5 0 1 1 0 5 2.5 2.5 0 0 1 0-5zM12.04 15c4.21 0 6.2 2.67 5.99 8H5.98c-.18-5.33 1.84-8 6.06-8zM12 7a3 3 0 1 1 0 6 3 3 0 0 1 0-6z"/></symbol><symbol viewBox="0 0 32 32" id="rd-icon-configure-xl"><path d="m14.48 5.72a.18.18 0 0 0 -.15.12c-.16.42-.16.9-.3 1.34-.16.43-.44.84-1.2 1.15-.77.32-1.26.23-1.67.03s-.75-.54-1.17-.72a.18.18 0 0 0 -.18.02 10.4 10.4 0 0 0 -2.15 2.14.18.18 0 0 0 -.02.18c.18.42.52.76.72 1.17s.3.9-.03 1.66c-.31.77-.72 1.05-1.15 1.2-.44.15-.91.15-1.34.31a.18.18 0 0 0 -.12.14 10.4 10.4 0 0 0 0 3.05c.01.07.06.12.12.15.42.16.9.16 1.34.3.43.16.84.44 1.15 1.2.32.77.23 1.26.03 1.67s-.54.75-.72 1.17a.18.18 0 0 0 .02.18c.6.82 1.33 1.55 2.15 2.15.05.04.12.05.18.02.42-.18.76-.52 1.17-.72s.9-.3 1.66.03c.77.31 1.05.72 1.2 1.15.15.44.15.91.31 1.34.02.06.08.1.14.11a10.4 10.4 0 0 0 3.05 0 .18.18 0 0 0 .15-.1c.16-.43.16-.91.3-1.35.16-.43.44-.84 1.2-1.15.77-.32 1.26-.23 1.67-.03s.75.54 1.17.72c.06.03.13.02.18-.02a10.4 10.4 0 0 0 2.15-2.15.18.18 0 0 0 .02-.19c-.18-.41-.52-.75-.72-1.16s-.3-.9.03-1.67c.31-.76.72-1.04 1.15-1.2.44-.14.91-.14 1.34-.3a.2.2 0 0 0 .11-.14 10.4 10.4 0 0 0 0-3.05.18.18 0 0 0 -.1-.15c-.43-.16-.91-.16-1.35-.3-.43-.16-.84-.44-1.15-1.2-.32-.77-.23-1.26-.03-1.67s.54-.75.72-1.17a.18.18 0 0 0 -.02-.18 10.4 10.4 0 0 0 -2.15-2.15.18.18 0 0 0 -.18-.02c-.42.18-.76.52-1.17.72s-.9.3-1.67-.03c-.76-.31-1.04-.72-1.2-1.15-.14-.44-.14-.91-.3-1.34a.18.18 0 0 0 -.14-.12 10.4 10.4 0 0 0 -3.05 0zm1.52 5.08a5.2 5.2 0 1 1 0 10.4 5.2 5.2 0 0 1 0-10.4z"/></symbol><symbol viewBox="0 0 20 20" id="rd-icon-copy-link-m"><path d="M8 14v2H3a1 1 0 0 1-1-1V5a1 1 0 0 1 1-1h5v2H4v8zm4 0h4V6h-4V4h5a1 1 0 0 1 1 1v10a1 1 0 0 1-1 1h-5zm-6-3V9h8v2z"/></symbol><symbol viewBox="0 0 20 20" id="rd-icon-copy-m"><path d="M4 9v7h7V9zM3 7h9a1 1 0 0 1 1 1v9a1 1 0 0 1-1 1H3a1 1 0 0 1-1-1V8a1 1 0 0 1 1-1zm5-5h9a1 1 0 0 1 1 1v9a1 1 0 0 1-1 1H8a1 1 0 0 1-1-1V3a1 1 0 0 1 1-1z"/></symbol><symbol viewBox="0 0 24 24" id="rd-icon-correlation-down-l"><path d="m1.24 16.8 9.9-9.9 8.49 8.48 1.41-1.4.69 4.96-4.93-.73 1.41-1.41-7.07-7.07-8.48 8.48-1.42-1.41zm15.56-9.9 4.93-.73-.69 4.97zm-4.24 9.9-1.42 1.41-1.41-1.41 1.41-1.42zm2.12-2.12-1.42 1.41-1.41-1.41 1.41-1.42zm4.24-4.24-1.41 1.4-1.42-1.4 1.42-1.42zm-12.73 0-1.41 1.4-1.42-1.4 1.42-1.42zm-2.12-2.14-1.41 1.43-1.42-1.43 1.42-1.4zm6.37 6.37-1.42 1.41-1.41-1.41 1.41-1.42z" class="color-primary"/></symbol><symbol viewBox="0 0 24 24" id="rd-icon-correlation-up-l"><path d="m19.91 8.07 4.11-.6-.69 4.97-1.41-1.42-6.36 6.36-3.54-3.53-6.36 6.36-1.42-1.41 7.78-7.78 3.54 3.54 4.94-4.96-4.95-4.95 4.93-.73-.58 4.14zm-4.35 2.24-1.42 1.42-1.41-1.42 1.41-1.41zm2.12-2.12-1.42 1.42-1.41-1.42 1.41-1.41zm-14.85 6.37-1.43 1.41-1.4-1.41 1.41-1.42zm2.12-2.12-1.41 1.4-1.42-1.4 1.42-1.42zm2.12-2.13-1.41 1.42-1.42-1.42 1.42-1.41zm2.13-2.11-1.42 1.41-1.42-1.42 1.42-1.41 1.41 1.41zm2.12 2.12-1.42 1.41-1.41-1.43 1.4-1.41 1.42 1.41z" class="color-primary"/></symbol><symbol viewBox="0 0 20 20" id="rd-icon-create-pinboard-m"><path d="M14 4V2h2v2h2v2h-2v2h-2V6h-2V4zM2 14h16v4H2zm0-6h7v4H2zm9 2h7v2h-7zM2 2h7v4H2z"/></symbol><symbol viewBox="0 0 20 20" id="rd-icon-create-worksheet-m"><path d="M2 9V7h10v2zm12-5V2h2v2h2v2h-2v2h-2V6h-2V4zM9 4v12h7v-5.96h2V17a1 1 0 0 1-1 1H3a1 1 0 0 1-1-1V3a1 1 0 0 1 1-1h7v2zM7 16V4H4v12z"/></symbol><symbol viewBox="0 0 20 20" id="rd-icon-custom-action-m"><path d="M7.64 15.64L5.02 13l-3.46-.75c.22-.93 1.32-2.21 3.31-3.85l2.98-.2a17 17 0 0 1 1.81-2.13c2-2 4.22-3.3 5.9-3.57.9-.17 1.73-.14 2.52.06.22.87.25 1.73.04 2.63-.31 1.67-1.59 3.84-3.55 5.8-.7.69-1.41 1.3-2.13 1.8l-.2 2.99c-1.57 2.05-2.81 3.19-3.73 3.42zm6.07-8.67c.46.46 1.2.47 1.64.03.44-.45.43-1.18-.03-1.64a1.16 1.16 0 0 0-1.63-.02c-.45.44-.44 1.18.02 1.63zm-9.74 7.29l2.4 2.47-3.85 1.1z"/></symbol><symbol viewBox="0 0 32 32" id="rd-icon-data-sources-xl"><path fill-rule="evenodd" d="M22 16c0 1.2-2.62 2.5-6 2.5-3.37 0-5.98-1.3-6-2.48v-3.48c1.48.92 3.64 1.46 6 1.46s4.52-.54 6-1.46zm0 3.04v3.5C21.96 23.9 19.29 25 16 25s-5.96-1.1-6-2.47v-3.5c1.48.93 3.64 1.47 6 1.47s4.52-.54 6-1.46zM16 12c-3.31 0-6-1.12-6-2.5S12.69 7 16 7s6 1.12 6 2.5-2.69 2.5-6 2.5z"/></symbol><symbol viewBox="0 0 20 20" id="rd-icon-date-column-m"><path fill-rule="evenodd" d="M14 5h1a1 1 0 0 1 1 1v9a1 1 0 0 1-1 1H5a1 1 0 0 1-1-1V6a1 1 0 0 1 1-1h1V4h2v1h4V4h2zm0 2h-3v3h3zM6 7v3h3V7zm5 4v3h3v-3zm-5 0v3h3v-3z"/></symbol><symbol viewBox="0 0 16 16" id="rd-icon-date-column-s"><path fill-rule="evenodd" d="M12 3h1a1 1 0 0 1 1 1v9a1 1 0 0 1-1 1H3a1 1 0 0 1-1-1V4a1 1 0 0 1 1-1h1V2h2v1h4V2h2zm0 2H9v3h3zM4 5v3h3V5zm5 4v3h3V9zM4 9v3h3V9z"/></symbol><symbol viewBox="0 0 24 24" id="rd-icon-delete-l"><path fill-rule="evenodd" d="M6.88 8h10.3l-1.29 11H8.16zm.15-1V5h10v2z"/></symbol><symbol viewBox="0 0 20 20" id="rd-icon-delete-m"><path fill-rule="evenodd" d="M4.85 6h10.3l-1.29 11H6.14zM5 5V3h10v2z"/></symbol><symbol viewBox="0 0 32 32" id="rd-icon-dictate-xl"><path d="M15 24v-1.21c-3.4-.53-6-3.48-6-7.03V15h2v.76a5.11 5.11 0 0 0 10.22 0V15h2v.76A7.11 7.11 0 0 1 17 22.82V24h3v2h-8v-2zm1-18a4 4 0 0 1 4 4v6a4 4 0 1 1-8 0v-6a4 4 0 0 1 4-4z"/></symbol><symbol viewBox="0 0 24 24" id="rd-icon-dislike-l"><path d="m20 14h-3v-8h3zm-13.99 2a2 2 0 0 1 -1.99-2.22l.66-6a2 2 0 0 1 1.99-1.78h9.33v7.99l-2.17 1.69-2.1 3.38a2 2 0 0 1 -1.7.94h-.23c-1 0-1.8-.8-1.8-1.8v-2.2zm.66-8-.67 6h4v4h.03l2.3-3.68 1.67-1.3v-5.02z" fill-rule="evenodd"/></symbol><symbol viewBox="0 0 24 24" id="rd-icon-dislike-undo-l"><path d="m8 15h-2.88a1 1 0 0 1 -1-1.11l.78-7a1 1 0 0 1 1-.89h9.1v7l-2.12 1.62-2.61 4.85a1 1 0 0 1 -.89.53h-.38a1 1 0 0 1 -1-1zm11-1h-3v-8h3z" fill-rule="evenodd"/></symbol><symbol viewBox="0 0 20 20" id="rd-icon-documentation-m"><path fill-rule="evenodd" d="M14 6h2v11a1 1 0 0 1-1 1H5a1 1 0 0 1-1-1V3a1 1 0 0 1 1-1h10a1 1 0 0 1 1 1v2H6v1h4v5l2.05-1L14 11z"/></symbol><symbol viewBox="0 0 20 20" id="rd-icon-down-m"><g fill="none" fill-rule="evenodd"><circle cx="10" cy="10" fill="#f04152" r="8"/><path d="m10.037 16-4.037-4h3v-8h2v8h3z" fill="#fff"/></g></symbol><symbol viewBox="0 0 20 20" id="rd-icon-download-m"><path d="M11 11.19l2-2 1.41 1.41L10 15.01 5.59 10.6 7 9.19l2 2V2h2zM4 18v-2h12v2z"/></symbol><symbol viewBox="0 0 20 20" id="rd-icon-drill-down-m"><path d="M12 13.01h3L10 18l-5-4.99h3V13c0-6.1-.3-9.83-5-11 9 0 9 7.13 9 11z"/></symbol><symbol viewBox="0 0 20 20" id="rd-icon-edit-info-m"><path d="m11.6 5.41 2.84 2.83-7.4 7.4-3.54.76.71-3.6 7.4-7.39zm3.54-2.12 1.42 1.42a1 1 0 0 1 0 1.41l-1.42 1.42-2.83-2.83 1.42-1.42a1 1 0 0 1 1.41 0z" fill-rule="evenodd"/></symbol><symbol viewBox="0 0 24 24" id="rd-icon-edit-l"><path fill-rule="evenodd" d="M13.39 7.34l2.83 2.83-7.4 7.39-3.54.76.71-3.59zm3.53-2.12l1.42 1.41a1 1 0 0 1 0 1.41l-1.42 1.42-2.83-2.83 1.42-1.41a1 1 0 0 1 1.41 0z"/></symbol><symbol viewBox="0 0 20 20" id="rd-icon-edit-m"><path d="m13.2 9.07-5.47 5.46-2.65.57.53-2.7 5.46-5.45 2.12 2.12zm1.42-2.8a1 1 0 0 1 0 1.4l-.71.72-2.12-2.13.7-.7a1 1 0 0 1 1.42 0l.7.7z" fill-rule="evenodd"/></symbol><symbol viewBox="0 0 20 20" id="rd-icon-edit-text-m"><path d="m14.27 17h-8.54a2 2 0 1 1 -2.73-2.73v-8.54a2 2 0 1 1 2.73-2.73h8.54a2 2 0 1 1 2.73 2.73v8.54a2 2 0 1 1 -2.73 2.73zm0-2c.17-.3.43-.56.73-.73v-8.54c-.3-.17-.56-.43-.73-.73h-8.54c-.17.3-.43.56-.73.73v8.54c.3.17.56.43.73.73zm-3.27-6v4h-2v-4h-2v-2h6v2z"/></symbol><symbol viewBox="0 0 32 32" id="rd-icon-edit-xl"><path fill-rule="evenodd" d="M18.74 10.54l2.83 2.82-9.19 9.2-3.53.7.7-3.53zM23 7.7l1.41 1.41a1 1 0 0 1 0 1.42L23 11.95l-2.83-2.83 1.41-1.41a1 1 0 0 1 1.42 0z"/></symbol><symbol viewBox="0 0 32 32" id="rd-icon-embrace-xl"> <g stroke="none" stroke-width="1"> <g transform="translate(7.000000, 6.000000)"> <path d="M15.542737,4.52108047 L13.6376714,5.45470681 C12.62123,3.41997462 10.5271092,2.10526316 8.19438525,2.10526316 C4.84263583,2.10526316 2.12550607,4.79651549 2.12550607,8.11634349 C2.12550607,11.4361715 4.84263583,14.1274238 8.19438525,14.1274238 C10.5607462,14.1274238 12.6799073,12.7742954 13.6786157,10.6943902 L15.5980931,11.5985938 C14.2503257,14.4054476 11.3886501,16.232687 8.19438525,16.232687 C3.66875124,16.232687 2.27373675e-13,12.5988762 2.27373675e-13,8.11634349 C2.27373675e-13,3.63381076 3.66875124,0 8.19438525,0 C11.3431457,0 14.1711794,1.7754699 15.542737,4.52108047 Z" id="rd-icon-embrace-xl-Path"/> <polygon id="rd-icon-embrace-xl-Line-2" transform="translate(14.311642, 16.597719) rotate(0.567266) translate(-14.311642, -16.597719) " points="11.4287873 15.2724312 12.9167934 13.76912 17.1944975 17.9230063 15.7064914 19.4263176"/> <polygon id="rd-icon-embrace-xl-Rectangle-5" transform="translate(7.342127, 8.205492) rotate(-181.000000) translate(-7.342127, -8.205492) " points="7.41575592 8.2057171 4.8479491 5.66234669 6.05802258 4.46379266 9.83630514 8.20611937 6.05927818 11.9471905 4.84880244 10.7482342"/> <polygon id="rd-icon-embrace-xl-Line" transform="translate(11.761134, 8.216066) rotate(-90.000000) translate(-11.761134, -8.216066) " points="10.9134882 2.8314511 12.608779 2.8314511 12.608779 13.6006819 10.9134882 13.6006819"/> </g> </g> </symbol><symbol viewBox="0 0 20 20" id="rd-icon-enter-m"><path d="m8.5 10h3.5v-6h2v8h-5.5v3.243l-4.692-4.241 4.692-4.246z"/></symbol><symbol viewBox="0 0 20 20" id="rd-icon-escape-m"><path d="m5.87 9.17v1.56h-2.23v1.49h2.64v1.59h-4.48v-7.51h4.47v1.6h-2.63v1.27zm4.44 2.57c0-.24-.06-.4-.16-.51a2.4 2.4 0 0 0 -.74-.42 3.95 3.95 0 0 1 -1.62-1 2.1 2.1 0 0 1 -.52-1.42 2 2 0 0 1 .71-1.6 2.6 2.6 0 0 1 1.75-.59c.47 0 .89.1 1.26.3.38.2.67.49.87.86.2.36.3.78.3 1.24v.2h-1.83v-.2c0-.3-.06-.5-.17-.64-.1-.12-.25-.18-.46-.18-.2 0-.34.05-.44.16-.1.1-.15.25-.15.46 0 .14.05.26.18.39s.39.28.75.44c.72.26 1.26.59 1.6.98.34.4.52.91.52 1.52 0 .68-.22 1.21-.66 1.6s-1.02.57-1.74.57a3 3 0 0 1 -1.35-.3c-.4-.2-.73-.5-.96-.89a2.55 2.55 0 0 1 -.35-1.34v-.2h1.84v.2c0 .36.07.62.19.76.12.13.32.2.63.2.39 0 .55-.17.55-.59zm8.22-.5a2.85 2.85 0 0 1 -.75 1.98 2.6 2.6 0 0 1 -1.91.68c-.87 0-1.54-.28-2-.86a3.7 3.7 0 0 1 -.7-2.4v-1.18c0-1.02.24-1.82.72-2.38a2.47 2.47 0 0 1 2-.87c.82 0 1.46.24 1.9.71s.69 1.14.75 2l.01.2h-1.85v-.19c-.02-.46-.09-.77-.2-.92-.1-.14-.3-.2-.61-.2-.32 0-.53.1-.65.3-.14.23-.21.64-.22 1.22v1.34c0 .68.07 1.13.2 1.36.12.2.33.3.65.3s.52-.08.62-.2c.11-.15.18-.45.2-.89v-.2h1.85l-.01.22z"/></symbol><symbol viewBox="0 0 20 20" id="rd-icon-exclamation-point-m"><path d="m10 2c4.418278 0 8 3.581722 8 8s-3.581722 8-8 8-8-3.581722-8-8 3.581722-8 8-8zm0 11c-.55228475 0-1 .4477153-1 1s.44771525 1 1 1c.5522847 0 1-.4477153 1-1s-.4477153-1-1-1zm1.5882568-7.51831055h-3.08691403l.49865723 6.51831055h2z" fill-rule="evenodd"/></symbol><symbol viewBox="0 0 24 24" id="rd-icon-expand-l"><path d="m19 5v6h-2v-2.586l-8.586 8.586h2.586v2h-6v-6h2v2.585l8.585-8.585h-2.585v-2z"/></symbol><symbol viewBox="0 0 20 20" id="rd-icon-failure-m-status"><g fill="none" fill-rule="evenodd"><circle cx="10" cy="10" r="8" fill="#de546b"/><path fill="#fff" d="M10 13a1 1 0 1 1 0 2 1 1 0 0 1 0-2zM8.5 5.48h3.09L11 12H9z"/></g></symbol><symbol viewBox="0 0 24 24" id="rd-icon-favorite-l"><path d="m9.49 8.74-4.54.23a1 1 0 0 0 -.57 1.78l3.51 2.76-1.16 4.22a1 1 0 0 0 1.5 1.12l3.81-2.41 3.82 2.4a1 1 0 0 0 1.5-1.1l-1.17-4.23 3.51-2.76a1 1 0 0 0 -.57-1.78l-4.54-.23-1.62-4.1a1 1 0 0 0 -1.86 0l-1.61 4.09zm2.55-1.02.93 2.35a1 1 0 0 0 .88.63l2.52.13-1.94 1.52a1 1 0 0 0 -.34 1.05l.65 2.38-2.16-1.37a1 1 0 0 0 -1.07 0l-2.17 1.37.66-2.38a1 1 0 0 0 -.35-1.05l-1.93-1.52 2.51-.13a1 1 0 0 0 .88-.63z"/></symbol><symbol viewBox="0 0 20 20" id="rd-icon-favorite-m"><path d="m7.32 7.1 1.75-4.46a1 1 0 0 1 1.86 0l1.75 4.46 4.87.25a1 1 0 0 1 .57 1.78l-3.78 3 1.26 4.6a1 1 0 0 1 -1.5 1.11l-4.1-2.61-4.1 2.61a1 1 0 0 1 -1.5-1.1l1.26-4.6-3.78-3a1 1 0 0 1 .57-1.8zm3.73 1.33-1.05-2.68-1.05 2.68a1 1 0 0 1 -.88.63l-2.88.15 2.23 1.77a1 1 0 0 1 .34 1.04l-.75 2.74 2.45-1.56a1 1 0 0 1 1.08 0l2.45 1.56-.75-2.74a1 1 0 0 1 .34-1.04l2.23-1.77-2.88-.15a1 1 0 0 1 -.88-.63z"/></symbol><symbol viewBox="0 0 24 24" id="rd-icon-favorite-undo-l"><path d="m9.59079497 9.37518886 1.47920303-3.74274327c.3332726-.84326079 1.5267314-.84326079 1.860004.00000001l1.479203 3.74274326 4.1413644.20969451c.9233447.04675278 1.2942065 1.21396223.5671841 1.78509233l-3.2004256 2.514172 1.0637526 3.8494994c.2433599.8806689-.7244713 1.5995773-1.4973007 1.1122002l-3.4837798-2.1970107-3.48377981 2.1970107c-.77282941.4873771-1.74066059-.2315313-1.49730068-1.1122002l1.06375259-3.8494994-3.20042557-2.514172c-.72702242-.5711301-.35616058-1.73833955.56718409-1.78509233z"/></symbol><symbol viewBox="0 0 24 24" id="rd-icon-filter-l"><path fill-rule="evenodd" d="M13.5 13v3.96l-3 2.1v-6.08L6 7.03h12.08z"/></symbol><symbol viewBox="0 0 20 20" id="rd-icon-filter-m"><path fill-rule="evenodd" d="M11.5 11.05v3.91l-3 2.1v-6L2.94 4H17z"/></symbol><symbol viewBox="0 0 16 16" id="rd-icon-filter-s"><path id="rd-icon-filter-s-a" d="M9.5 9v3.96l-3 2.1V8.97L2 3.03h12.08L9.5 9.01z"/></symbol><symbol viewBox="0 0 24 24" id="rd-icon-follow-l"><path fill="#000000" fill-rule="evenodd" d="M3.21 15.84a3.16 3.16 0 0 1 3.15 2.98V19H3v-3.15h.21zm0-3.95a7.1 7.1 0 0 1 7.1 6.87V19h-2a5.1 5.1 0 0 0-5.1-5.1H3v-2h.21zm0-3.94c6 0 10.9 4.79 11.05 10.76V19h-2c0-5-4.05-9.05-9.05-9.05H3v-2h.21zM4 4a15 15 0 0 1 15 15h-2A13 13 0 0 0 3 6.04v-2C3.33 4 3.66 4 4 4z"/></symbol><symbol viewBox="0 0 24 24" id="rd-icon-follow-undo-l"><path d="m16 9a6 6 0 1 1 0 12 6 6 0 0 1 0-12zm-12.79 2.9a7.1 7.1 0 0 1 5.8 2.98l-.01.12c0 1.49.46 2.87 1.26 4h-1.94a5.1 5.1 0 0 0 -5.1-5.1h-.22v-2zm0 3.94a3.16 3.16 0 0 1 3.15 2.98v.18h-3.36v-3.15h.21zm14.54-4.04-1.77 1.77-1.77-1.77-1.41 1.41 1.77 1.77-1.77 1.77 1.41 1.41 1.77-1.76 1.77 1.76 1.41-1.41-1.76-1.77 1.76-1.77zm-14.54-3.85c2.79 0 5.34 1.03 7.28 2.73a6.98 6.98 0 0 0 -1.02 1.78 9.02 9.02 0 0 0 -6.26-2.51h-.21v-2zm.79-3.95c4.04 0 7.7 1.6 10.4 4.18-.74.18-1.43.47-2.06.85a12.95 12.95 0 0 0 -9.34-3v-2c.33-.02.66-.03 1-.03z" fill-rule="evenodd"/></symbol><symbol viewBox="0 0 32 32" id="rd-icon-follow-undo-xl"><path d="m23 13a6 6 0 1 1 0 12 6 6 0 0 1 0-12zm-12.79 2.9a7.1 7.1 0 0 1 5.8 2.98l-.01.12c0 1.49.46 2.87 1.26 4h-1.94a5.1 5.1 0 0 0 -5.1-5.1h-.22v-2zm0 3.94a3.16 3.16 0 0 1 3.15 2.98v.18h-3.36v-3.15h.21zm14.54-4.04-1.77 1.77-1.77-1.77-1.41 1.41 1.77 1.77-1.77 1.77 1.41 1.41 1.77-1.76 1.77 1.76 1.41-1.41-1.76-1.77 1.76-1.77zm-14.54-3.85c2.79 0 5.34 1.03 7.28 2.73a6.98 6.98 0 0 0 -1.02 1.78 9.02 9.02 0 0 0 -6.26-2.51h-.21v-2zm.79-3.95c4.04 0 7.7 1.6 10.4 4.18-.74.18-1.43.47-2.06.85a12.95 12.95 0 0 0 -9.34-3v-2c.33-.02.66-.03 1-.03z"/></symbol><symbol viewBox="0 0 32 32" id="rd-icon-follow-xl"><path d="m10.21 19.84a3.16 3.16 0 0 1 3.16 3.16h-3.37v-3.15h.21zm0-3.95a7.1 7.1 0 0 1 7.1 7.11h-2a5.1 5.1 0 0 0 -5.1-5.1h-.21v-2h.21zm0-3.94c6.1 0 11.05 4.95 11.05 11.05h-2c0-5-4.05-9.05-9.05-9.05h-.21v-2zm.79-3.95a15 15 0 0 1 15 15h-2a13 13 0 0 0 -14-12.96v-2a11 11 0 0 1 1-.04z"/></symbol><symbol viewBox="0 0 24 24" id="rd-icon-following-l"><path fill="#000000" fill-rule="evenodd" d="M16 9a6 6 0 1 1 0 12 6 6 0 0 1 0-12zM3.21 11.9a7.1 7.1 0 0 1 5.8 2.98L9 15c0 1.49.46 2.87 1.26 4H8.32a5.1 5.1 0 0 0-5.1-5.1H3v-2h.21zm0 3.94a3.16 3.16 0 0 1 3.15 2.98V19H3v-3.15h.21zm15.6-4.06l-3.63 3.5-1.83-1.68-1.36 1.46 3.21 2.98 5-4.82-1.4-1.44zM3.2 7.95c2.79 0 5.34 1.03 7.28 2.73a6.98 6.98 0 0 0-1.02 1.78A9.02 9.02 0 0 0 3.2 9.95H3v-2h.21zM4 4c4.04 0 7.7 1.6 10.4 4.18-.74.18-1.43.47-2.06.85a12.95 12.95 0 0 0-9.34-3v-2c.33-.02.66-.03 1-.03z"/></symbol><symbol viewBox="0 0 32 32" id="rd-icon-following-xl"><path d="m23 13a6 6 0 1 1 0 12 6 6 0 0 1 0-12zm-12.79 2.9a7.1 7.1 0 0 1 5.8 2.98l-.01.12c0 1.49.46 2.87 1.26 4h-1.94a5.1 5.1 0 0 0 -5.1-5.1h-.22v-2zm0 3.94a3.16 3.16 0 0 1 3.15 2.98v.18h-3.36v-3.15h.21zm15.6-4.06-3.63 3.5-1.83-1.68-1.36 1.46 3.21 2.98 5-4.82-1.4-1.44zm-15.6-3.83c2.79 0 5.34 1.03 7.28 2.73a6.98 6.98 0 0 0 -1.02 1.78 9.02 9.02 0 0 0 -6.26-2.51h-.21v-2zm.79-3.95c4.04 0 7.7 1.6 10.4 4.18-.74.18-1.43.47-2.06.85a12.95 12.95 0 0 0 -9.34-3v-2c.33-.02.66-.03 1-.03z"/></symbol><symbol viewBox="0 0 20 20" id="rd-icon-formula-m"><path d="M15.28 14.87l1.77 1.77-1.41 1.41-1.77-1.77-1.77 1.77-1.41-1.41 1.76-1.77-1.76-1.77 1.41-1.41 1.77 1.76 1.77-1.76 1.41 1.41zM7.25 9H5V7h2.82l1.01-3.55A2 2 0 0 1 10.75 2H13v2h-2.25L9.9 7H12v2H9.33l-2.16 7.55A2 2 0 0 1 5.25 18H3v-2h2.25z"/></symbol><symbol viewBox="0 0 20 20" id="rd-icon-gear-s"><path d="m8.83 2.1c-.05 0-.1.03-.11.08-.13.33-.13.7-.24 1.03-.12.34-.33.65-.92.9-.6.24-.96.17-1.28.01-.32-.15-.58-.41-.9-.55a.14.14 0 0 0 -.14.01 8 8 0 0 0 -1.66 1.66.14.14 0 0 0 -.01.14c.14.32.4.58.56.9.15.32.22.69-.03 1.28-.24.59-.55.8-.89.92-.33.11-.7.11-1.03.24a.14.14 0 0 0 -.08.1 8 8 0 0 0 0 2.35c0 .05.03.1.08.11.33.13.7.12 1.03.24.34.12.65.33.9.92.24.6.17.96.01 1.28-.15.32-.41.58-.55.9-.02.05-.02.1.01.14a8 8 0 0 0 1.66 1.66c.04.03.1.03.14.01.32-.14.58-.4.9-.56.32-.15.69-.22 1.28.03.59.24.8.55.92.89.11.33.11.7.24 1.03.01.04.06.08.1.08a8 8 0 0 0 2.35 0c.05 0 .1-.03.11-.08.13-.33.12-.7.24-1.03.12-.34.33-.65.92-.9.6-.24.96-.17 1.28-.02.32.16.58.42.9.56.05.02.1.02.14-.01a8 8 0 0 0 1.66-1.66c.03-.04.03-.1.01-.14-.14-.32-.4-.58-.56-.9-.15-.32-.22-.69.03-1.28.24-.59.55-.8.89-.92.33-.12.7-.11 1.03-.24a.14.14 0 0 0 .08-.1 8 8 0 0 0 0-2.35c0-.05-.03-.1-.08-.11-.33-.13-.7-.13-1.03-.24-.34-.12-.65-.33-.9-.92-.24-.6-.17-.96-.02-1.28.16-.32.42-.58.56-.9a.14.14 0 0 0 -.01-.14 8 8 0 0 0 -1.66-1.66.14.14 0 0 0 -.14-.01c-.32.14-.58.4-.9.56-.32.15-.69.22-1.28-.03-.59-.24-.8-.55-.92-.89-.11-.33-.11-.7-.24-1.03a.14.14 0 0 0 -.1-.08 8 8 0 0 0 -2.35 0zm1.17 3.9a4 4 0 1 1 0 8 4 4 0 0 1 0-8z"/></symbol><symbol viewBox="0 0 32 32" id="rd-icon-hamburger"><path id="rd-icon-hamburger-a" d="M10 10h12v2H10v-2zm0 5h12v2H10v-2zm0 5h12v2H10v-2z"/></symbol><symbol viewBox="0 0 20 20" id="rd-icon-help-m"><path d="M9 13v2h2v-2zm1.98-1c.06-.69.37-.98 1.07-1.55l.12-.1c.87-.7 1.36-1.5 1.36-2.54 0-1.56-1.2-2.81-3.4-2.81-2.21 0-3.5 1.26-3.53 3.28h2.2c-.02-.96.4-1.52 1.27-1.52.74 0 1.2.48 1.2 1.1 0 .56-.27.98-.65 1.31l-.53.5c-.8.7-1.07 1.2-1.1 2.33h1.99zM10 18a8 8 0 1 1 0-16 8 8 0 0 1 0 16z"/></symbol><symbol viewBox="0 0 16 16" id="rd-icon-help-s"><path d="M7 11v2h2v-2zm1.98-1c.06-.69.37-.98 1.07-1.55l.12-.1c.87-.7 1.36-1.5 1.36-2.54 0-1.56-1.2-2.81-3.4-2.81-2.21 0-3.5 1.26-3.53 3.28h2.2c-.02-.96.4-1.52 1.27-1.52.74 0 1.2.48 1.2 1.1 0 .56-.27.98-.65 1.31l-.53.5c-.8.7-1.07 1.2-1.1 2.33h1.99zM8 15A7 7 0 1 1 8 1a7 7 0 0 1 0 14z"/></symbol><symbol viewBox="0 0 32 32" id="rd-icon-help-xl"><path d="M14.553 21.082h2.919V24h-2.919v-2.918zM11 13.34c0-.803.12-1.533.361-2.19a4.648 4.648 0 0 1 1.05-1.685 4.73 4.73 0 0 1 1.664-1.083c.65-.255 1.376-.383 2.178-.383a5.75 5.75 0 0 1 1.871.295c.577.197 1.08.482 1.51.854.431.372.77.835 1.019 1.39.248.554.372 1.182.372 1.882 0 .511-.055.952-.165 1.325-.109.372-.255.693-.437.963-.183.27-.39.51-.624.722-.234.211-.467.42-.7.624-.278.233-.533.46-.767.678a3.94 3.94 0 0 0-.612.733c-.176.27-.31.588-.405.953-.095.364-.143.81-.143 1.335h-2.364c0-.642.033-1.186.099-1.63.066-.446.171-.836.317-1.172.146-.335.325-.631.537-.886.211-.256.463-.507.755-.755.233-.205.456-.394.667-.57.212-.175.402-.368.57-.58.167-.211.299-.448.393-.71.095-.264.143-.577.143-.942 0-.438-.077-.814-.23-1.127a2.341 2.341 0 0 0-.558-.755 2.171 2.171 0 0 0-.7-.416 2.01 2.01 0 0 0-.657-.132c-.905 0-1.573.296-2.003.887-.43.59-.646 1.382-.646 2.375H11z"/></symbol><symbol viewBox="0 0 20 20" id="rd-icon-hidden-m"><path fill-rule="evenodd" d="M7.67 9.09L6.55 7.97a4 4 0 0 0 5.48 5.48l-1.12-1.12a2.5 2.5 0 0 1-3.24-3.24zM9.1 7.67a2.5 2.5 0 0 1 3.24 3.24L17.4 16 16 17.41l-2.32-2.31c-1.07.57-2.3.9-3.68.9-3.97 0-6.74-2.78-8-6a10.4 10.4 0 0 1 2.65-3.94L2.59 4 4 2.59zm4.83 3.13a4.01 4.01 0 0 0-4.74-4.72L7.48 4.4C8.26 4.14 9.1 4 10 4c4.02 0 6.74 2.78 8 6a10.75 10.75 0 0 1-1.8 3.05z"/></symbol><symbol viewBox="0 0 24 24" id="rd-icon-information-l"><path d="M11.12 11L9 11.03l-.02-2 4.75-.03-2.2 8.01H14v2h-2.45a2 2 0 0 1-1.93-2.53zm2.38-4a1.5 1.5 0 1 1 0-3 1.5 1.5 0 0 1 0 3z"/></symbol><symbol viewBox="0 0 20 20" id="rd-icon-information-m"><path d="m12 7v7h2v2h-7v-2h3v-5h-2v-2zm0-4v3h-2v-3z" fill-rule="evenodd"/></symbol><symbol viewBox="0 0 32 32" id="rd-icon-information-xl"><path d="m17 12v10h3v2h-8v-2h3v-8h-2v-2zm0-5v3h-2v-3z" fill-rule="evenodd"/></symbol><symbol viewBox="0 0 20 20" id="rd-icon-keywords-m"><path d="M6 12a2 2 0 1 0 0-4 2 2 0 0 0 0 4zm8-1H9.87a4 4 0 1 1 0-2H18v4h-4z"/></symbol><symbol viewBox="0 0 20 20" id="rd-icon-learn-m"><path fill-rule="evenodd" d="M9.43 5.86v10.03l-6.68-1.72A1 1 0 0 1 2 13.2V5.28a1 1 0 0 1 1.24-.97zm1.14 0l6.19-1.55a1 1 0 0 1 1.24.97v7.93a1 1 0 0 1-.75.96l-6.68 1.75zM10.25 16h-.4a1 1 0 0 0 .4 0z"/></symbol><symbol viewBox="0 0 24 24" id="rd-icon-like-l"><path d="m4 10h3v8h-3zm13.99-2a2 2 0 0 1 1.99 2.22l-.66 6a2 2 0 0 1 -1.99 1.78h-9.33v-7.99l2.17-1.69 2.1-3.38a2 2 0 0 1 1.7-.94h.24c.99 0 1.79.8 1.79 1.8v2.2zm-.66 8 .66-6h-3.99v-4h-.03l-2.3 3.68-1.67 1.3v5.02z" fill-rule="evenodd"/></symbol><symbol viewBox="0 0 24 24" id="rd-icon-like-undo-l"><path d="m15.98 9h2.9a1 1 0 0 1 .99 1.1l-.77 7a1 1 0 0 1 -1 .9h-9.1v-7l2.23-1.62 2.62-4.85a1 1 0 0 1 .88-.53h.33c.5 0 .92.41.92.92zm-10.98 1h3v8h-3z" fill-rule="evenodd"/></symbol><symbol viewBox="0 0 24 24" id="rd-icon-lock-l"><path fill-rule="evenodd" d="M17 9.99h2v3.13c.27 5.25-2.06 7.88-7 7.88-4.94 0-7.27-2.63-7-7.9V10h2V8a5 5 0 1 1 10 0zm-2 0V8a3 3 0 0 0-6 0v1.99zm-3 3.51a1.5 1.5 0 1 0 0 3 1.5 1.5 0 0 0 0-3z"/></symbol><symbol viewBox="0 0 20 20" id="rd-icon-lock-m"><path fill-rule="evenodd" d="M14 8.01h1.98v2.84c.23 4.78-1.76 7.16-5.98 7.16-4.22 0-6.21-2.39-5.98-7.16V8H6V6a4 4 0 1 1 8 0zm-2 0V6a2 2 0 1 0-4 0v2.01zM10 11a1.5 1.5 0 1 0 0 3 1.5 1.5 0 0 0 0-3z"/></symbol><symbol viewBox="0 0 20 20" id="rd-icon-measure-m"><path d="m5.66592828 12 .66592828-4h-1.33185656v-2h1.6648207l.3351793-2.01330566h2l-.3351793 2.01330566h4.005397l.3365853-2.01330566h1.993197l-.3353123 2.01330566h1.3353123v2h-1.6684085l-.6661925 4h1.334601v2h-1.6676972l-.3330963 2h-2.0007934l.3343609-2h-3.99980986l-.33296414 2h-2l.33296414-2h-1.33296414v-2zm2 0h4.00120662l.6687219-4h-4.00400024z"/></symbol><symbol viewBox="0 0 16 16" id="rd-icon-measure-s"><path id="rd-icon-measure-s-a" d="M3.67 10l.66-4H3V4h1.66L5 1.99h2L6.66 4h4.01l.34-2.01H13L12.66 4H14v2h-1.67l-.66 4H13v2h-1.67L11 14H9l.33-2h-4L5 14H3l.33-2H2v-2h1.67zm2 0h4l.67-4h-4l-.67 4z"/></symbol><symbol viewBox="0 0 24 24" id="rd-icon-minus-l"><path d="m6 13v-2h12v2z"/></symbol><symbol viewBox="0 0 20 20" id="rd-icon-minus-s"><path d="m15 9v2h-10v-2z" fill-rule="evenodd"/></symbol><symbol viewBox="0 0 24 24" id="rd-icon-more-grey-l"><desc>Created with Sketch.</desc> <!-- Generator: Sketch 52.5 (67469) - http://www.bohemiancoding.com/sketch -->    <g id="rd-icon-more-grey-l-Icons/More" stroke="none" stroke-width="1" fill="none" fill-rule="evenodd"> <g id="rd-icon-more-grey-l-More"> <g transform="translate(4.000000, 10.000000)"> <mask id="rd-icon-more-grey-l-mask-2" fill="white"> <use xlink:href="#rd-icon-more-grey-l-path-1"/> </mask>  <g id="rd-icon-more-grey-l-Colors/Icons/Default" mask="url(#rd-icon-more-grey-l-mask-2)"> <g transform="translate(-4.000000, -10.000000)" id="rd-icon-more-grey-l-Colors/Basic/Toned-Gray/Shade-4"> <g> <g id="rd-icon-more-grey-l-Colors/Basic/Black" fill="#000000"> <rect id="rd-icon-more-grey-l-Color" x="0" y="0" width="24" height="24"/> </g> <g id="rd-icon-more-grey-l-Colors/Basic/White" opacity="0.2" fill="#FFFFFF"> <rect id="rd-icon-more-grey-l-Color" x="0" y="0" width="24" height="24"/> </g> <g id="rd-icon-more-grey-l-Colors/Accent/Default" opacity="0.1" fill="#0D74FF"> <rect id="rd-icon-more-grey-l-teenage-blue" x="0" y="0" width="24" height="24"/> </g> </g> </g> </g> </g> </g> </g> </symbol><symbol viewBox="0 0 24 24" id="rd-icon-more-l"><path fill-rule="evenodd" d="M18 14a2 2 0 1 1 0-4 2 2 0 0 1 0 4zm-6 0a2 2 0 1 1 0-4 2 2 0 0 1 0 4zm-6 0a2 2 0 1 1 0-4 2 2 0 0 1 0 4z"/></symbol><symbol viewBox="0 0 24 24" id="rd-icon-more-light-l"><path fill="#FFF" fill-rule="evenodd" d="M18 14a2 2 0 1 1 0-4 2 2 0 0 1 0 4zm-6 0a2 2 0 1 1 0-4 2 2 0 0 1 0 4zm-6 0a2 2 0 1 1 0-4 2 2 0 0 1 0 4z"/></symbol><symbol viewBox="0 0 20 20" id="rd-icon-more-m"><path fill-rule="evenodd" d="M15 11.5a1.5 1.5 0 1 1 0-3 1.5 1.5 0 0 1 0 3zm-5 0a1.5 1.5 0 1 1 0-3 1.5 1.5 0 0 1 0 3zm-5 0a1.5 1.5 0 1 1 0-3 1.5 1.5 0 0 1 0 3z"/></symbol><symbol viewBox="0 0 32 32" id="rd-icon-more-xl"><path fill-rule="evenodd" d="M24 18a2 2 0 1 1 0-4 2 2 0 0 1 0 4zm-8 0a2 2 0 1 1 0-4 2 2 0 0 1 0 4zm-8 0a2 2 0 1 1 0-4 2 2 0 0 1 0 4z"/></symbol><symbol viewBox="0 0 20 20" id="rd-icon-navigate-m"><path d="m5.76 11h8.48l-4.24 4.7zm8.48-2.5h-8.48l4.24-4.7z" fill-rule="evenodd"/></symbol><symbol viewBox="0 0 20 20" id="rd-icon-neutral-loading-m-status"> <g id="rd-icon-neutral-loading-m-status-loader" stroke="none" stroke-width="1" fill="none" fill-rule="evenodd"> <circle id="rd-icon-neutral-loading-m-status-Oval" fill="#6C7889" cx="10" cy="10" r="10"/> <path d="M10,17.25 C9.30964406,17.25 8.75,16.6903559 8.75,16 C8.75,15.3096441 9.30964406,14.75 10,14.75 C12.6233526,14.75 14.75,12.6233526 14.75,10 C14.75,7.37664744 12.6233526,5.25 10,5.25 C7.37664744,5.25 5.25,7.37664744 5.25,10 C5.25,10.6903559 4.69035594,11.25 4,11.25 C3.30964406,11.25 2.75,10.6903559 2.75,10 C2.75,5.99593556 5.99593556,2.75 10,2.75 C14.0040644,2.75 17.25,5.99593556 17.25,10 C17.25,14.0040644 14.0040644,17.25 10,17.25 Z" id="rd-icon-neutral-loading-m-status-Shape" fill="#FFFFFF" fill-rule="nonzero"/> </g> </symbol><symbol viewBox="0 0 20 20" id="rd-icon-neutral-m-status"><g fill="none" fill-rule="evenodd"><circle cx="10" cy="10" r="8" fill="#778294"/><path fill="#fff" d="M10 13a1 1 0 1 1 0 2 1 1 0 0 1 0-2zM8.5 5.48h3.09L11 12H9z"/></g></symbol><symbol viewBox="0 0 24 24" id="rd-icon-pause-l"><path fill-rule="evenodd" d="M8 6h3v12H8zm5 0h3v12h-3z"/></symbol><symbol viewBox="0 0 24 24" id="rd-icon-pin-l"><path fill-rule="evenodd" d="M13.52 8.15c2.46.52 3.62 2.48 3.48 5.85h-4v5l-1 3-1-3v-5H7c-.13-3.37 1.03-5.32 3.49-5.85V5.87C8.75 5.55 7.93 4.6 8.04 3h8c.09 1.6-.75 2.56-2.52 2.88z"/></symbol><symbol viewBox="0 0 20 20" id="rd-icon-pin-m"><path d="m11 12v4.8l-.99 1.2-1.01-1.2v-4.8zm3.04-10c.11 1.75-.9 2.74-3.04 2.95v1.08c3.52.25 5.18 1.9 5 4.97h-11.98c-.16-3.05 1.5-4.7 4.98-4.96v-1.1c-2.1-.21-3.07-1.19-2.96-2.94z" fill-rule="evenodd"/></symbol><symbol viewBox="0 0 32 32" id="rd-icon-pin-xl"><path fill-rule="evenodd" d="M18 13.18c2.83.58 4.17 2.52 4 5.82H10c-.15-3.3 1.18-5.23 4-5.81v-2.52c-1.4-.54-2.05-1.77-1.96-3.67h8c.1 1.94-.59 3.17-2.04 3.7zM15 20h2v5.6l-.99 2.4L15 25.6z"/></symbol><symbol viewBox="0 0 20 20" id="rd-icon-pinboard-m"><path d="M2 14h16v4H2zm0-6h7v4H2zm9 0h7v4h-7zM2 2h4v4H2zm6 0h4v4H8zm6 0h4v4h-4z"/></symbol><symbol viewBox="0 0 16 16" id="rd-icon-pinboard-s"><path id="rd-icon-pinboard-s-a" d="M2 11h12v3H2v-3zm0-4.5h5.25v3H2v-3zm6.75 0H14v3H8.75v-3zM2 2h3v3H2V2zm4.5 0h3v3h-3V2zM11 2h3v3h-3V2z"/></symbol><symbol viewBox="0 0 24 24" id="rd-icon-play-l"><path fill-rule="evenodd" d="M9 6l8.6 6.5L9 18z"/></symbol><symbol viewBox="0 0 24 24" id="rd-icon-plus-l"><path d="m11 11v-5h2v5h5v2h-5v5h-2v-5h-5v-2z"/></symbol><symbol viewBox="0 0 20 20" id="rd-icon-plus-s"><path d="m11 9h4v2h-4v4h-2v-4h-4v-2h4v-4h2z" fill-rule="evenodd"/></symbol><symbol viewBox="0 0 20 20" id="rd-icon-present-m"><path fill-rule="evenodd" d="M9 14.55V13H3a1 1 0 0 1-1-1V3a1 1 0 0 1 1-1h14a1 1 0 0 1 1 1v9a1 1 0 0 1-1 1h-6v1.44l3.56 1.78-.9 1.79-3.55-1.78-3.55 1.78-.9-1.8zM8.5 4.5v6l4.5-3z"/></symbol><symbol viewBox="0 0 32 32" id="rd-icon-present-xl"><path fill-rule="evenodd" d="M15 23.5V20H7a1 1 0 0 1-1-1V8a1 1 0 0 1 1-1h18a1 1 0 0 1 1 1v11a1 1 0 0 1-1 1h-8v3.49l3.45 1.73-.89 1.79-3.55-1.78-3.56 1.78-.89-1.8zm-.5-13v6l4.5-3z"/></symbol><symbol viewBox="0 0 20 20" id="rd-icon-profile-m"><path fill-rule="evenodd" d="M10.03 3a3 3 0 1 1 0 6 3 3 0 0 1 0-6zM10 10c4 0 6 2.67 5.99 8H4c.01-5.33 2.01-8 6.01-8z"/></symbol><symbol viewBox="0 0 32 32" id="rd-icon-r-analysis-xl"><path fill-rule="evenodd" d="M12 22.76c-5.2-1.04-9-4.33-9-8.24 0-4.74 5.59-8.58 12.49-8.58s12.48 3.84 12.48 8.58c0 1.7-.72 3.3-1.97 4.63v-1.68c.33-.67.5-1.44.5-2.31 0-4.07-3.86-5.87-9.1-5.87s-9.5 2.63-9.5 5.87c0 2 1.63 3.77 4.1 4.83v2.77zm9.73-4.07s.67.21 1.05.41a1.73 1.73 0 0 1 .78.75l2.62 4.54h-4.24l-1.98-3.82s-.4-.71-.65-.92c-.2-.17-.3-.24-.5-.24H17.8v4.97h-3.75v-12.7h7.53S25 11.76 25 15.1s-3.28 3.6-3.28 3.6zm-1.63-4.25h-2.27v2.16h2.27s1.05 0 1.05-1.1c0-1.12-1.05-1.06-1.05-1.06z"/></symbol><symbol viewBox="0 0 20 20" id="rd-icon-release-notes-m"><path fill-rule="evenodd" d="M7 3V2h6v1h2a1 1 0 0 1 1 1v13a1 1 0 0 1-1 1H5a1 1 0 0 1-1-1V4a1 1 0 0 1 1-1zm2 3H6v2h8V6h-3zm-3 4v2h8v-2zm0 4v2h6v-2z"/></symbol><symbol viewBox="0 0 24 24" id="rd-icon-remove-grey-l"><path d="m17.18 8-1.29 11h-7.73l-1.28-11zm-.15-3v2h-10v-2z" fill="#354559" fill-rule="evenodd"/></symbol><symbol viewBox="0 0 24 24" id="rd-icon-remove-l"><path d="M12 10.67L14.67 8 16 9.33 13.33 12 16 14.67 14.67 16 12 13.33 9.33 16 8 14.67 10.67 12 8 9.33 9.33 8z"/></symbol><symbol viewBox="0 0 20 20" id="rd-icon-remove-m"><path d="m14.95 6.464-3.536 3.536 3.536 3.536-1.414 1.414-3.536-3.536-3.536 3.536-1.414-1.414 3.536-3.536-3.536-3.536 1.414-1.414 3.536 3.536 3.536-3.536z" fill-rule="evenodd"/></symbol><symbol viewBox="0 0 20 20" id="rd-icon-remove-solid-m"><path fill-rule="evenodd" d="M11.41 9.98l2.28-2.27-1.4-1.42-2.3 2.28L7.71 6.3 6.29 7.71l2.29 2.27-2.29 2.28 1.42 1.42 2.28-2.28 2.3 2.28 1.4-1.42zM10 18a8 8 0 1 1 0-16 8 8 0 0 1 0 16z"/></symbol><symbol viewBox="0 0 32 32" id="rd-icon-remove-xl"><path d="M16 14.59l3.3-3.3 1.4 1.42L17.42 16l3.3 3.3-1.42 1.4L16 17.42l-3.3 3.3-1.4-1.42L14.58 16l-3.3-3.3 1.42-1.4z"/></symbol><symbol viewBox="0 0 20 20" id="rd-icon-replay-search-m"><path d="M14.73 6.3A5.99 5.99 0 1 0 16 10h2a8 8 0 1 1-1.85-5.12L18.04 3v5.1h-5.1zM9 7l3 3-3 3z"/></symbol><symbol viewBox="0 0 24 24" id="rd-icon-reset-l"><g fill="none" fill-rule="evenodd" transform="translate(5 2)"><mask id="rd-icon-reset-l-b" fill="white"><use xlink:href="#rd-icon-reset-l-a"/></mask><use fill="#A2ACBA" fill-rule="nonzero" xlink:href="#rd-icon-reset-l-a"/><g mask="url(#rd-icon-reset-l-b)"><g transform="translate(-5 -2)"><rect width="24" height="24" fill="#000000"/><rect width="24" height="24" fill="#FFFFFF" opacity=".2"/><rect width="24" height="24" fill="#2E75F0" opacity=".1"/></g></g></g></symbol><symbol viewBox="0 0 20 20" id="rd-icon-reset-m"><path fill="#000000" d="M5.4 11.97l.01.02.03.06v.02l.01.01.05.1v.01l.05.08.05.1.13.23.14.22.07.1-.01-.01.01.01.03.04.02.02.04.06.04.05.02.02.02.03.06.07.07.08.07.08.15.17.17.15.02.02.02.02.04.04.07.05.05.04-.04-.03.1.08.07.06.08.06.03.02.03.02.04.03.1.06-.06-.03.17.11-.09-.05.1.06a5 5 0 0 0 .13.08l.12.06.02.01.09.05.07.04.1.05h.03l.03.02.04.02h.02l.04.03.04.01.05.02.06.02.07.03.2.07a5 5 0 0 0 .7.17l.1.02h.04l.07.01.1.01h-.1.11l.14.02h-.05.73-.01.1-.04l.13-.01h.04l.08-.02h.08l.04-.01.1-.02-.11.02.12-.02.1-.02h.04l.23-.06c.17-.04.33-.09.49-.15l.05-.02-.02.01.06-.02h.01l.06-.03h.02l.03-.02-.03.01.1-.04H12l.07-.04.02-.01.05-.02.06-.03.1-.06-.03.02.1-.05-.06.03.07-.04h-.01a5 5 0 0 0 .39-.23l.1-.06.02-.02.03-.02.04-.03a5 5 0 0 0 .15-.12l.06-.05.05-.04.07-.05.08-.08.17-.15.15-.17.08-.08.06-.08.06-.07-.06.07.08-.1.02-.02.04-.05.04-.06.02-.02.01-.02.02-.02v-.01.01l.12-.18a5 5 0 0 0 .15-.23l.03-.07.02-.04-.02.04.04-.06v-.02l.05-.09.04-.08.02-.02-.01.02.05-.1v-.02l.01-.02.03-.06.03-.08.02-.05.03-.06v-.03l.01-.02.02-.04v.02l.06-.2a5 5 0 0 0 .13-.48l.02-.1v-.04l.02-.08.02-.1v-.01l.01-.1.01-.1v.1-.12l.01-.08v-.08l.02-.2v-.4l-.01-.05v-.06.02-.07l-.01-.04v-.06l-.02-.1v-.06l-.01-.05-.01-.07v-.03l-.01-.02-.02-.07-.01-.09a4.97 4.97 0 0 0-.2-.69v-.03l-.04-.07-.02-.06v-.02l-.05-.1.02.05-.02-.05V8l-.03-.04-.02-.05-.05-.11-.04-.07-.04-.08-.03-.06-.04-.06.04.06-.11-.18a5 5 0 0 0-.14-.22l-.07-.1v.01-.01l-.03-.03-.02-.03-.02-.03-.02-.03a5 5 0 0 0-.06-.07v-.01l-.03-.04-.05-.05-.05-.06-.02-.02a5.03 5.03 0 0 0-.07-.08l-.15-.17-.15-.14a4.98 4.98 0 0 0-3.13-1.31L10 5v3L6 4l4-4v3c2.11 0 4.01.94 5.3 2.42l.04.05a8.47 8.47 0 0 1 .16.2l.08.1.34.48v.02a7 7 0 0 1 .41.75l.03.06a6.74 6.74 0 0 1 .2.47l.03.09.2.63.05.21.04.22.02.1a6.75 6.75 0 0 1 0 2.4l-.01.06-.1.42v.05l-.2.63-.03.09a5.7 5.7 0 0 1-.19.46l-.04.07-.05.1-.02.06a6.99 6.99 0 0 1-.68 1.09l-.08.1a3.58 3.58 0 0 1-.2.25c-.23.25-.47.5-.72.71l-.05.05a8.47 8.47 0 0 1-.2.16l-.1.08-.48.34h-.02a7 7 0 0 1-.75.41l-.07.04-.16.07-.04.02a6.8 6.8 0 0 1-.13.05l-.13.05-.09.03-.63.2h-.05l-.19.05-.05.01-.14.03-.1.02a6.77 6.77 0 0 1-.97.1H10a7.13 7.13 0 0 1-1.2-.1l-.1-.02c-.05 0-.1-.02-.14-.03l-.05-.01a5.22 5.22 0 0 1-.2-.04l-.04-.02a6.76 6.76 0 0 1-.63-.19l-.09-.03a5.74 5.74 0 0 1-.46-.19l-.07-.04a6.7 6.7 0 0 1-.75-.4l-.02-.01c-.16-.1-.32-.22-.48-.34l-.1-.08a3.58 3.58 0 0 1-.07-.06l-.13-.1-.05-.05a7.07 7.07 0 0 1-.92-.96l-.08-.1a6.83 6.83 0 0 1-.68-1.1l-.02-.04a6.95 6.95 0 0 1-.05-.1l-.04-.08a6.75 6.75 0 0 1-.19-.46l-.03-.09-.2-.63v-.05a6.52 6.52 0 0 1-.1-.42v-.06a6.99 6.99 0 0 1 1.74-5.93l.2-.22 1.41 1.41A4.98 4.98 0 0 0 5 9.8v.47l.01.05v.06-.03.08l.01.07.02.13-.01-.1v.1l.02.1.02.11.01.08v.03l.01.01.02.1V11l.04.2a5 5 0 0 0 .06.25l.09.25.02.07v.01h.01v.02l.03.06.05.11z"/></symbol><symbol viewBox="0 0 32 32" id="rd-icon-reset-xl"><path d="m16 13-4-4 4-4v3c4.418278 0 8 3.581722 8 8s-3.581722 8-8 8-8-3.581722-8-8c0-2.1604797.86177329-4.1868418 2.3649203-5.6785457l1.4087997 1.4196068c-1.1285255 1.1199343-1.77372 2.6370359-1.77372 4.2589389 0 3.3137085 2.6862915 6 6 6s6-2.6862915 6-6-2.6862915-6-6-6z"/></symbol><symbol viewBox="0 0 20 20" id="rd-icon-save-m"><path d="M4 4v12h12V4zM3 2h14a1 1 0 0 1 1 1v14a1 1 0 0 1-1 1H3a1 1 0 0 1-1-1V3a1 1 0 0 1 1-1zm3 9V9h8v2zm3-5h2v8H9z"/></symbol><symbol viewBox="0 0 20 20" id="rd-icon-save-worksheet-m"><path d="M4 4v12h12V4zM3 2h14a1 1 0 0 1 1 1v14a1 1 0 0 1-1 1H3a1 1 0 0 1-1-1V3a1 1 0 0 1 1-1zM2 9V7h16v2zm5-7h2v16H7z"/></symbol><symbol viewBox="0 0 20 20" id="rd-icon-schedule-m"><path d="M4 5v11h12V5zm0-2V1h2v2h11a1 1 0 0 1 1 1v13a1 1 0 0 1-1 1H3a1 1 0 0 1-1-1V4a1 1 0 0 1 1-1zm6 7h4v4h-4zm4-9h2v2h-2z"/></symbol><symbol viewBox="0 0 32 32" id="rd-icon-schedule-xl"><g fill="#747E8C" fill-rule="nonzero"><path d="M24.4 7.6a1.2 1.2 0 0 1 1.2 1.2v15.6a1.2 1.2 0 0 1-1.2 1.2H7.6a1.2 1.2 0 0 1-1.2-1.2V8.8a1.2 1.2 0 0 1 1.2-1.2h16.8zM23.2 10H8.8v13.2h14.4V10zM8.8 5.2h2.4v2.4H8.8z"/><path d="M16 16h4.8v4.8H16zM20.8 5.2h2.4v2.4h-2.4z"/></g></symbol><symbol viewBox="0 0 20 20" id="rd-icon-schema-m"><path fill-rule="evenodd" d="M16 9h1v6h1v3h-4v-3h1v-4h-4v4h1v3H8v-3h1v-4H5v4h1v3H2v-3h1V9h6V5H8V2h4v3h-1v4z"/></symbol><symbol viewBox="0 0 24 24" id="rd-icon-search-l"><path d="M16.3 14.94l5.39 5.34-1.4 1.42-5.42-5.35a8 8 0 1 1 1.42-1.4zM10 16a6 6 0 1 0 0-12 6 6 0 0 0 0 12z"/></symbol><symbol viewBox="0 0 20 20" id="rd-icon-search-m-gray"><path fill="#747e8c" d="M14.6 13.2l2.81 2.8L16 17.41l-2.8-2.8a7 7 0 1 1 1.41-1.41zM9 14A5 5 0 1 0 9 4a5 5 0 0 0 0 10z"/></symbol><symbol viewBox="0 0 20 20" id="rd-icon-search-m"><path d="M14.6 13.2l2.81 2.8L16 17.41l-2.8-2.8a7 7 0 1 1 1.41-1.41zM9 14A5 5 0 1 0 9 4a5 5 0 0 0 0 10z"/></symbol><symbol viewBox="0 0 20 20" id="rd-icon-send-m"><path fill-rule="evenodd" d="M2.94 8.6l14.51-5.68-5.67 14.51a1 1 0 0 1-1.75.22l-2.1-2.94a1 1 0 0 1-.08-1.03l1.14-2.3-2.28 1.15a1 1 0 0 1-1.03-.08l-2.96-2.1a1 1 0 0 1 .22-1.75z"/></symbol><symbol viewBox="0 0 24 24" id="rd-icon-share-l"><g fill="#000"><path clip-rule="evenodd" d="m5 14c0-.5523.44772-1 1-1h2.57143v2h-1.57143v4h10v-4h-1.5714v-2h2.5714c.5523 0 1 .4477 1 1v6c0 .5523-.4477 1-1 1h-12c-.55228 0-1-.4477-1-1z" fill-rule="evenodd"/><path d="m10.9806 17 .0004-8.175-2.0393 1.9971-1.4417-1.41271 4.5-4.40939 4.5 4.40939-1.4417 1.41271-2.0383-1.9971-.0006 8.175z"/></g></symbol><symbol viewBox="0 0 20 20" id="rd-icon-share-m"><g fill="#000"><path clip-rule="evenodd" d="m2 10c0-.55228.44772-1 1-1h3.5v2h-2.5v5h12v-5h-2.5v-2h3.5c.5523 0 1 .44772 1 1v7c0 .5523-.4477 1-1 1h-14c-.55228 0-1-.4477-1-1z" fill-rule="evenodd"/><path d="m8.98057 14 .00043-8.175-2.0393 1.99706-1.4417-1.41267 4.5-4.40939 4.5 4.40939-1.4417 1.41267-2.0383-1.99706-.0006 8.175z"/></g></symbol><symbol viewBox="0 0 16 16" id="rd-icon-share-s"><g clip-rule="evenodd" fill-rule="evenodd"><path d="m2 8.93665c0-.55229.44772-1 1-1h2v2h-1v1.99995h8v-1.99995h-.5v-2h1.5c.5523 0 1 .44771 1 1v3.99995c0 .5523-.4477 1-1 1h-10c-.55228 0-1-.4477-1-1z"/><path d="m9 3.93665v6.99995h-2v-6.99995z"/><path d="m8.00001 1.40002 3.75929 4.3858-1.5185 1.30159-2.24079-2.6142-2.24074 2.6142-1.51852-1.30159z"/></g></symbol><symbol viewBox="0 0 32 32" id="rd-icon-share-xl"><g fill="#000"><path clip-rule="evenodd" d="m8 17c0-.5523.44772-1 1-1h3v2h-2v5h12v-5h-2v-2h3c.5523 0 1 .4477 1 1v7c0 .5523-.4477 1-1 1h-14c-.55228 0-1-.4477-1-1z" fill-rule="evenodd"/><path d="m14.9806 21 .0004-9.175-2.0393 1.9971-1.4417-1.4127 4.5-4.4094 4.5 4.4094-1.4417 1.4127-2.0383-1.9971-.0006 9.175z"/></g></symbol><symbol viewBox="0 0 20 20" id="rd-icon-show-m"><path d="m10 4c4.02 0 6.74 2.78 8 6-1.26 3.22-4.03 6-8 6s-6.74-2.78-8-6c1.26-3.22 3.98-6 8-6zm0 2a4 4 0 1 0 0 8 4 4 0 0 0 0-8zm0 1.5a2.5 2.5 0 1 1 0 5 2.5 2.5 0 0 1 0-5z" fill-rule="evenodd"/></symbol><symbol viewBox="0 0 20 20" id="rd-icon-show-underlying-data-m"><path fill-rule="evenodd" d="M14.62 10.71L18 12l-7.89 4-7.89-4 3.38-1.29L10.11 13zM10.12 4L18 7l-7.86 4-7.92-4z"/></symbol><symbol viewBox="0 0 20 20" id="rd-icon-show-undo-m"><path d="m4.7 3.78 4.05 4.05a2.5 2.5 0 0 1 3.75 2.17c0 .46-.12.88-.33 1.25l3.83 3.85-1.4 1.4-1.25-1.25-.04.02a7.8 7.8 0 0 1 -3.31.73c-3.97 0-6.74-2.78-8-6a10.53 10.53 0 0 1 2.4-3.7l-1.13-1.1zm1.68 4.52a4 4 0 0 0 5.32 5.32l-1.17-1.18a2.5 2.5 0 0 1 -2.97-2.97zm3.62-4.3c4.02 0 6.74 2.78 8 6a10.76 10.76 0 0 1 -1.79 3.03l-2.28-2.26a4.02 4.02 0 0 0 -4.73-4.69l-1.7-1.68c.75-.26 1.6-.4 2.5-.4z" fill-rule="evenodd"/></symbol><symbol viewBox="0 0 20 20" id="rd-icon-sign-out-m"><path d="M5.82 9H14v2H5.82l1.29 1.3-1.42 1.4L2 10l3.69-3.7L7.1 7.7zM16 4h-3V2h5v16h-5v-2h3z"/></symbol><symbol viewBox="0 0 20 20" id="rd-icon-snapshots-m"><path d="m10 16c3.3137085 0 6-2.6862915 6-6s-2.6862915-6-6-6-6 2.6862915-6 6 2.6862915 6 6 6zm0 2c-4.418278 0-8-3.581722-8-8s3.581722-8 8-8 8 3.581722 8 8-3.581722 8-8 8zm-1-12h2v5h-2zm0 4h4v2h-4z"/></symbol><symbol viewBox="0 0 20 20" id="rd-icon-sort-m"><path fill-rule="evenodd" d="M4 4h12v2H4zm0 5h9v2H4zm0 5h6v2H4z"/></symbol><symbol viewBox="0 0 16 16" id="rd-icon-sort-s"><path id="rd-icon-sort-s-a" d="M2 2h12v2H2V2zm0 5h9v2H2V7zm0 5h6v2H2v-2z"/></symbol><symbol viewBox="0 0 32 32" id="rd-icon-style-xl"><path fill-rule="evenodd" d="M10.52 12h11.03l-.46 2.55a1 1 0 0 1-.51.7L17.9 16.7a1 1 0 0 0-.53.94l.57 9.31a1 1 0 0 1-1 1.06h-1.89a1 1 0 0 1-1-1.05l.5-9.33a1 1 0 0 0-.51-.93l-2.61-1.43a1 1 0 0 1-.5-.72zM9 5h2.53l1.03 2 .99-2H23l-1.45 6H10.52z"/></symbol><symbol viewBox="0 0 20 20" id="rd-icon-success-m-status"><g fill="none" fill-rule="evenodd"><circle cx="10" cy="10" r="8" fill="#38b070"/><path fill="#fff" fill-rule="nonzero" d="M13.3 6.3l1.4 1.4L9 13.42l-3.7-3.7 1.4-1.42L9 10.6z"/></g></symbol><symbol viewBox="0 0 32 32" id="rd-icon-sync-xl"><g fill="#747E8C" fill-rule="nonzero"><path d="M25.04 18.58l-5.054-3.557 3.212-.628a10.5 10.5 0 0 1-.062-.448c-.436-3.674-3.51-6.531-7.229-6.531-2.478 0-4.765 1.268-6.116 3.393l-.644 1.014-1.987-1.314.644-1.014C9.594 6.68 12.623 5 15.907 5c4.888 0 8.937 3.726 9.565 8.54.018.138.033.272.045.402l2.817-.552-3.294 5.19zM6.295 12.28l5.053 3.558-3.212.627c.023.144.044.293.063.449.436 3.674 3.51 6.531 7.228 6.531 2.479 0 4.765-1.269 6.116-3.394l.644-1.013 1.987 1.314-.644 1.014c-1.79 2.814-4.818 4.495-8.103 4.495-4.888 0-8.936-3.727-9.564-8.54a10.644 10.644 0 0 1-.045-.402L3 17.47l3.295-5.19z"/></g></symbol><symbol viewBox="0 0 24 24" id="rd-icon-tag-l"><path fill-rule="evenodd" d="M11.79 5.22l7.28-.2-.2 7.27-7.9 7.88a1 1 0 0 1-1.4 0L3.9 14.52a1 1 0 0 1 0-1.42zm2.55 4.52a1.5 1.5 0 1 0 2.12-2.12 1.5 1.5 0 0 0-2.12 2.12z"/></symbol><symbol viewBox="0 0 20 20" id="rd-icon-tag-m"><path fill-rule="evenodd" d="M10.34 3H17v6.66a1 1 0 0 1-.3.7L9.6 17.5a1 1 0 0 1-1.42 0l-5.66-5.66a1 1 0 0 1 0-1.42L9.63 3.3a1 1 0 0 1 .71-.3zm2.07 4.59a1.5 1.5 0 1 0 2.13-2.13A1.5 1.5 0 0 0 12.4 7.6z"/></symbol><symbol viewBox="0 0 32 32" id="rd-icon-tag-xl"><path fill-rule="evenodd" d="M15.79 9.22l7.28-.2-.2 7.27-7.9 7.88a1 1 0 0 1-1.4 0L7.9 18.52a1 1 0 0 1 0-1.42zm2.55 4.52a1.5 1.5 0 1 0 2.12-2.12 1.5 1.5 0 0 0-2.12 2.12z"/></symbol><symbol viewBox="0 0 20 20" id="rd-icon-time-m"><path d="m10 16c3.3137085 0 6-2.6862915 6-6s-2.6862915-6-6-6-6 2.6862915-6 6 2.6862915 6 6 6zm0 2c-4.418278 0-8-3.581722-8-8s3.581722-8 8-8 8 3.581722 8 8-3.581722 8-8 8zm-1-12h2v5h-2zm0 4h4v2h-4z"/></symbol><symbol viewBox="0 0 16 16" id="rd-icon-time-s"><path id="rd-icon-time-s-a" d="M8 12.5a4.5 4.5 0 1 0 0-9 4.5 4.5 0 0 0 0 9zm0 2a6.5 6.5 0 1 1 0-13 6.5 6.5 0 0 1 0 13zm-1-10h2v4H7v-4zm0 3h3.5v2H7v-2z"/></symbol><symbol viewBox="0 0 24 24" id="rd-icon-trend-down-l"><path d="m12.718 11.56-3.536 3.535-7.778-7.778 1.414-1.414 6.364 6.364 3.536-3.536 6.316 6.316 2.837-2.837-.033 7.104-7.038-.033 2.819-2.819z" class="color-primary"/></symbol><symbol viewBox="0 0 24 24" id="rd-icon-trend-up-l"><path d="m12.718 13.657 4.901-4.902-2.819-2.819 7.038-.033.033 7.104-2.837-2.838-6.316 6.316-3.536-3.535-6.364 6.364-1.414-1.415 7.778-7.778z" class="color-primary"/></symbol><symbol viewBox="0 0 24 24" id="rd-icon-trend-zero-l"><path d="m16.6 12.5h-15v-2h15v-4l5 5.046-5 4.954z" class="color-primary"/></symbol><symbol viewBox="0 0 20 20" id="rd-icon-ungroup-m"><path fill-rule="evenodd" d="M13.2 5.5H6.8a2.5 2.5 0 0 1-1.3 1.3v6.4a2.5 2.5 0 0 1 1.3 1.3H10v2H6.8a2.5 2.5 0 1 1-3.3-3.3V6.8a2.5 2.5 0 1 1 3.3-3.3h6.4a2.5 2.5 0 1 1 3.3 3.3V10h-2V6.8a2.5 2.5 0 0 1-1.3-1.3zM15.5 18a2.5 2.5 0 1 1 0-5 2.5 2.5 0 0 1 0 5z"/></symbol><symbol viewBox="0 0 24 24" id="rd-icon-unlock-l"><path fill-rule="evenodd" d="M7.21 9.99a4.51 4.51 0 0 1 .65-5.65 4.48 4.48 0 0 1 6.33-.08l.7.7-1.4 1.41-.71-.7a2.49 2.49 0 0 0-3.51.08c-1 1-1.03 2.57-.08 3.51l.72.73H19v3.13c.27 5.25-2.06 7.88-7 7.88-4.94 0-7.27-2.63-7-7.9V10zM12 13.5a1.5 1.5 0 1 0 0 3 1.5 1.5 0 0 0 0-3z"/></symbol><symbol viewBox="0 0 20 20" id="rd-icon-unlock-m"><path fill-rule="evenodd" d="M5.2 8.01a4.44 4.44 0 0 1 1.04-4.68 4.38 4.38 0 0 1 6.2-.07l-1.42 1.42c-.9-.9-2.42-.89-3.37.07A2.39 2.39 0 0 0 7.5 8H16v2.84c.22 4.78-1.77 7.16-5.99 7.16-4.22 0-6.21-2.39-5.98-7.16V8zM10 11a1.5 1.5 0 1 0 0 3 1.5 1.5 0 0 0 0-3z"/></symbol><symbol viewBox="0 0 20 20" id="rd-icon-up-m"><g fill="none" fill-rule="evenodd"><circle cx="10" cy="10" fill="#06bf7f" r="8"/><path d="m10.037 4 3.963 4h-3v8h-2v-8h-3z" fill="#fff"/></g></symbol><symbol viewBox="0 0 24 24" id="rd-icon-upload-data-l"><path fill-rule="evenodd" d="M16 6V4h2v2h2v2h-2v2h-2V8h-2V6zm1 6v2.45c-.83.76-2.77 1.38-5 1.38s-4.17-.62-5-1.38v-2.93c1.24.73 3.03 1.15 5 1.15 1.48 0 2.86-.24 3.99-.67zm-5-7v6c-2.23 0-4.17-.63-5-1.38V6.67h.1C7.56 5.72 9.58 5 12 5zm5 11.35v1.66c-.12 1.1-2.31 1.99-5 1.99s-4.88-.89-5-2v-1.65c1.24.73 3.03 1.15 5 1.15s3.76-.42 5-1.15z"/></symbol><symbol viewBox="0 0 20 20" id="rd-icon-upload-data-m"><path fill-rule="evenodd" d="M14 4V2h2v2h2v2h-2v2h-2V6h-2V4zm1 6v2.45c-.83.76-2.77 1.38-5 1.38s-4.17-.62-5-1.38V9.52c1.24.73 3.03 1.15 5 1.15 1.48 0 2.86-.24 3.99-.67zm-5-7v6c-2.23 0-4.17-.63-5-1.38V4.67h.1C5.56 3.72 7.58 3 10 3zm5 11.35v1.66c-.12 1.1-2.31 1.99-5 1.99s-4.88-.89-5-2v-1.65c1.24.73 3.03 1.15 5 1.15 1.97 0 3.76-.42 5-1.15z"/></symbol><symbol viewBox="0 0 20 20" id="rd-icon-upload-m"><path d="M9 8.81l-2 2L5.59 9.4 10 4.99l4.41 4.41L13 10.81l-2-2V18H9zM16 2v2H4V2z"/></symbol><symbol viewBox="0 0 20 20" id="rd-icon-video-m"><path fill-rule="evenodd" d="M3 4h14a1 1 0 0 1 1 1v10a1 1 0 0 1-1 1H3a1 1 0 0 1-1-1V5a1 1 0 0 1 1-1zm6 3v6l4-3z"/></symbol><symbol viewBox="0 0 20 20" id="rd-icon-visible-m"><path fill-rule="evenodd" d="M2 10c1.26 3.22 4.03 6 8 6 3.97 0 6.74-2.78 8-6-1.26-3.22-3.98-6-8-6s-6.74 2.78-8 6zm8 4a4 4 0 1 1 0-8 4 4 0 0 1 0 8zm0-6.5a2.5 2.5 0 1 0 0 5 2.5 2.5 0 0 0 0-5z"/></symbol><symbol viewBox="0 0 20 20" id="rd-icon-warning-m-status"><g fill="none" fill-rule="evenodd"><circle cx="10" cy="10" r="8" fill="#f5cb4e"/><path fill="#fff" d="M10 13a1 1 0 1 1 0 2 1 1 0 0 1 0-2zM8.5 5.48h3.09L11 12H9z"/></g></symbol><symbol viewBox="0 0 20 20" id="rd-icon-watch-m"><path fill-rule="evenodd" d="M2 10c1.26 3.22 4.03 6 8 6 3.97 0 6.74-2.78 8-6-1.26-3.22-3.98-6-8-6s-6.74 2.78-8 6zm8 4a4 4 0 1 1 0-8 4 4 0 0 1 0 8zm0-6.5a2.5 2.5 0 1 0 0 5 2.5 2.5 0 0 0 0-5z"/></symbol><symbol viewBox="0 0 20 20" id="rd-icon-zoom-area-m"><path fill-rule="evenodd" d="M12 4H4v12h8v2H2V2h16v2zm2.17 8.76l3.54 3.53-1.42 1.42-3.53-3.54a5 5 0 1 1 1.41-1.41zM10 13a3 3 0 1 0 0-6 3 3 0 0 0 0 6z"/></symbol><script xmlns=""/></svg>