<svg width="15" height="8" viewBox="0 0 15 8" fill="none" xmlns="http://www.w3.org/2000/svg">
<path d="M14.4502 0.200704C14.3231 0.0566735 14.1415 -0.0153417 13.9416 0.0026621L10.5086 0.308726C10.2725 0.32673 10.0727 0.47076 10 0.686805C9.90918 0.902851 9.96367 1.1369 10.1272 1.31694L10.8356 2.0911L8.0888 4.39129L5.98175 2.12281C5.80011 1.92477 5.58213 1.81675 5.32783 1.79874C5.03721 1.76274 4.72841 1.85276 4.49228 2.0688L0.327576 5.77332C-0.090202 6.1514 -0.108366 6.79954 0.273083 7.23163C0.382069 7.33965 0.509218 7.42967 0.636368 7.48368C0.690861 7.50168 0.763518 7.51969 0.836175 7.53769C0.890668 7.5557 0.94516 7.5557 0.999653 7.5557C1.27212 7.5737 1.54458 7.46568 1.74439 7.28564L5.14619 4.26526L7.25324 6.55174C7.63469 6.96583 8.30677 7.00183 8.72455 6.60575L12.2342 3.60342L12.9426 4.37758C13.1061 4.53961 13.3422 4.61163 13.5602 4.55762C13.7782 4.4856 13.9416 4.30556 13.978 4.08952L14.5774 0.722813C14.6319 0.524772 14.5774 0.32673 14.4502 0.200704Z" fill="black"/>
</svg>
