<svg width="38" height="59" viewBox="0 0 38 59" fill="none" xmlns="http://www.w3.org/2000/svg">
<path d="M32.42 7.33C32.42 7.33 38.75 11.22 36.23 14.33C33.96 17.12 36.42 18.85 37.08 20.21C38.07 22.25 37.65 23.71 37.08 24.6C36.63 25.3 35.8 25.65 34.98 25.54L23.66 23.8C22.39 23.61 21.3 22.69 21 21.43C20.34 18.65 24.43 18.39 22.91 16.95C21.07 15.21 21.35 13.02 23.97 11.11C26.59 9.2 27.19 9.57 27.79 7.61C28.87 4.1 32.42 7.33 32.42 7.33Z" fill="#002D4B"/>
<path d="M15.26 25.72C15.26 25.72 16.88 23.39 19.21 19.03C21.54 14.67 24.63 20.54 24.63 20.54L23.22 31.2C23.22 31.21 18.9 33.14 15.26 25.72Z" fill="#2B59A4"/>
<path d="M26.9832 22.1622C31.3863 20.8285 33.7254 15.685 32.2076 10.674C30.6897 5.66294 25.8898 2.68186 21.4867 4.01555C17.0835 5.34925 14.7445 10.4927 16.2623 15.5037C17.7801 20.5148 22.58 23.4959 26.9832 22.1622Z" fill="#2B59A4"/>
<path d="M15.89 25.09C8.63 30.66 1.47 40.67 1.2 58.06C1.2 58.06 29.23 58.1 29.9 58.06C29.54 49.17 29.4 39.55 23.81 28.95C19.63 29.18 15.89 25.09 15.89 25.09Z" fill="url(#paint0_linear)"/>
<path d="M11.14 31.18C5.9 31.18 1.2 43.98 0.379997 58.05H16.11C14.73 42.88 16.38 31.18 11.14 31.18Z" fill="url(#paint1_linear)"/>
<path d="M31.13 10.67L23.23 8.71C23.23 8.71 25.06 13.09 21.72 14.32C18.38 15.56 19.89 17.42 20.57 18.87C21.59 21.04 20 23.85 17.46 23.28L7.99 21.59C6.68 21.26 5.55 20.23 5.24 18.92C4.56 16.04 8.79 16.19 7.22 14.58C5.32 12.63 5.61001 10.45 8.33001 8.78C11.04 7.11 11.67 7.55 12.29 5.62C13.4 2.19 18.67 -0.069999 24.11 0.950001C28.65 1.8 31.42 3.27 33.18 5.85C34.38 7.63 33.16 11.18 31.13 10.67Z" fill="#002D4B"/>
<defs>
<linearGradient id="paint0_linear" x1="19.1715" y1="10.8568" x2="14.4503" y2="71.4463" gradientUnits="userSpaceOnUse">
<stop offset="0.00545934" stop-color="#ED7E23"/>
<stop offset="0.1001" stop-color="#EE832B"/>
<stop offset="0.2463" stop-color="#EF8F41"/>
<stop offset="0.4258" stop-color="#F2A464"/>
<stop offset="0.6315" stop-color="#F6C195"/>
<stop offset="0.8565" stop-color="#FBE5D3"/>
<stop offset="1" stop-color="white"/>
</linearGradient>
<linearGradient id="paint1_linear" x1="11.3593" y1="29.0208" x2="5.7717" y2="80.2406" gradientUnits="userSpaceOnUse">
<stop offset="0.00545934" stop-color="#ED7E23"/>
<stop offset="0.1001" stop-color="#EE832B"/>
<stop offset="0.2463" stop-color="#EF8F41"/>
<stop offset="0.4258" stop-color="#F2A464"/>
<stop offset="0.6315" stop-color="#F6C195"/>
<stop offset="0.8565" stop-color="#FBE5D3"/>
<stop offset="1" stop-color="white"/>
</linearGradient>
</defs>
</svg>
