<svg width="33" height="57" viewBox="0 0 33 57" fill="none" xmlns="http://www.w3.org/2000/svg">
<path d="M24.72 2.54C30.24 5.31 27.63 19.29 32.71 19.96C32.71 19.96 28.29 25.37 22.84 22.18C16.26 18.31 24.72 2.54 24.72 2.54Z" fill="#ED7E23"/>
<path d="M16.62 22.7C9.36 28.27 1.53 35.5 0.719999 56.06C0.719999 56.06 30.32 56.57 30.99 56.53C31.14 51.21 30.45 41.52 24.69 26.26C20.5 26.49 16.62 22.7 16.62 22.7Z" fill="url(#paint0_linear)"/>
<path d="M16.03 23.46C16.03 23.46 15.96 22.14 17.24 17.37C18.52 12.6 23.1 17.1 23.1 17.1L25.03 27C25.03 27 21.25 29.86 16.03 23.46Z" fill="#F2D041"/>
<path d="M22.8542 20.1463C27.4138 19.5331 30.5443 14.8294 29.8464 9.64029C29.1485 4.45123 24.8864 0.741799 20.3268 1.35505C15.7673 1.9683 12.6367 6.672 13.3347 11.8611C14.0326 17.0501 18.2946 20.7596 22.8542 20.1463Z" fill="#F2D041"/>
<path d="M11.32 30.17C6.08 30.17 1.54 41.45 0.719999 55.52L14.04 55.73C12.66 40.56 16.56 30.17 11.32 30.17Z" fill="url(#paint1_linear)"/>
<path d="M28.13 2.13C24.55 8.16 18.87 6.67 17.95 9.52C17.03 12.37 17.57 19.54 21 22.24C19.6 24.97 11.33 28.57 8.71 20.69C8.71 20.69 7.64 6.18 15.48 2.24C23.32 -1.7 28.13 2.13 28.13 2.13Z" fill="#ED7E23"/>
<defs>
<linearGradient id="paint0_linear" x1="19.5685" y1="8.2373" x2="14.7803" y2="69.6849" gradientUnits="userSpaceOnUse">
<stop offset="0.000376506" stop-color="#3757A6"/>
<stop offset="0.998" stop-color="#7EC2E4"/>
</linearGradient>
<linearGradient id="paint1_linear" x1="10.3452" y1="27.997" x2="5.0632" y2="76.4157" gradientUnits="userSpaceOnUse">
<stop offset="0.000376506" stop-color="#3757A6"/>
<stop offset="0.998" stop-color="#7EC2E4"/>
</linearGradient>
</defs>
</svg>
