<?xml version="1.0" encoding="UTF-8" standalone="no"?>
<svg width="400px" height="207px" viewBox="0 0 400 207" version="1.1" xmlns="http://www.w3.org/2000/svg" xmlns:xlink="http://www.w3.org/1999/xlink">
    <!-- Generator: Sketch 42 (36781) - http://www.bohemiancoding.com/sketch -->
    <title>Group 2</title>
    <desc>Created with Sketch.</desc>
    <defs>
        <path d="M17.8062827,142.117647 L17.8062827,58.1530857 C17.8062827,56.7065668 18.9859524,55.5294118 20.4355613,55.5294118 L159.501611,55.5294118 C160.95122,55.5294118 162.13089,56.7065668 162.13089,58.1530857 L162.13089,142.117647 L17.8062827,142.117647 Z" id="path-1"></path>
        <mask id="mask-2" maskContentUnits="userSpaceOnUse" maskUnits="objectBoundingBox" x="0" y="0" width="144.324607" height="86.5882353" fill="white">
            <use xlink:href="#path-1"></use>
        </mask>
        <path d="M23.0191205,23.5294118 L23.0121561,23.5294118 L23.0121561,23.5294118 L6.1218103,23.4791361 C5.49153454,23.4791361 4.89608064,23.2572295 4.44861967,22.8602249 C3.99593541,22.4562857 3.74695908,21.9188558 3.74870017,21.346753 L3.78003985,8.71021646 C3.78352204,7.53827262 4.84907112,6.58823529 6.15837326,6.58823529 L6.16359654,6.58823529 L23.0556835,6.63677735 C23.6720305,6.63851099 24.2570378,6.85001565 24.7010166,7.23315114 L31.1448028,13.5401507 C31.6044514,13.9371554 31.8621333,14.4815198 31.8638743,15.0657581 C31.8638743,15.6482627 31.6061925,16.1908935 31.1378385,16.5965664 L24.6801235,22.9243697 C24.2256982,23.3179071 23.6389497,23.5294118 23.0191205,23.5294118 Z" id="path-3"></path>
        <mask id="mask-4" maskContentUnits="userSpaceOnUse" maskUnits="objectBoundingBox" x="0" y="0" width="28.1151832" height="16.9411765" fill="white">
            <use xlink:href="#path-3"></use>
        </mask>
        <path d="M7.4973822,23.5294118 L22.9326189,23.5294118 L22.7258646,22.2935174 C22.0068337,19.6551145 19.9054529,17.8823529 17.4976569,17.8823529 L12.8683515,17.8823529 C10.4605555,17.8823529 8.36091567,19.6551145 7.64188478,22.2935174 L7.4973822,23.5294118 Z" id="path-5"></path>
        <mask id="mask-6" maskContentUnits="userSpaceOnUse" maskUnits="objectBoundingBox" x="0" y="0" width="15.4352367" height="5.64705882" fill="white">
            <use xlink:href="#path-5"></use>
        </mask>
        <path d="M13.9073097,141.903614 C12.8692265,141.903614 12.0276938,141.073839 12.0276938,140.034989 L12.0276938,58.0655057 C12.0276938,56.6211653 12.5911555,55.4457831 13.2835519,55.4457831 L79.707561,55.4457831 C80.3999574,55.4457831 80.9634191,56.6211653 80.9634191,58.0655057 L80.9634191,140.034989 C80.9634191,141.067002 80.1166872,141.903614 79.0838031,141.903614 L13.9073097,141.903614 Z" id="path-7"></path>
        <mask id="mask-8" maskContentUnits="userSpaceOnUse" maskUnits="objectBoundingBox" x="0" y="0" width="68.9357253" height="86.4578313" fill="white">
            <use xlink:href="#path-7"></use>
        </mask>
        <path d="M22.9604125,23.4939759 L22.9534659,23.4939759 L22.9534659,23.4939759 L6.10619723,23.4437759 C5.47752892,23.4437759 4.88359367,23.2222036 4.4372739,22.8257968 C3.98574418,22.422466 3.73740283,21.8858455 3.73913948,21.3146043 L3.77039923,8.69709867 C3.77387254,7.5269198 4.83670404,6.57831325 6.14266694,6.57831325 L6.1478769,6.57831325 L22.9968822,6.6267822 C23.6116573,6.62851323 24.1951727,6.83969936 24.6380191,7.22225784 L31.0653711,13.5197589 C31.5238474,13.9161657 31.780872,14.4597103 31.7826087,15.0430687 C31.7826087,15.6246961 31.5255841,16.1665097 31.0584245,16.5715716 L24.6171793,22.8898451 C24.1639129,23.2827898 23.5786609,23.4939759 22.9604125,23.4939759 Z" id="path-9"></path>
        <mask id="mask-10" maskContentUnits="userSpaceOnUse" maskUnits="objectBoundingBox" x="0" y="0" width="28.0434783" height="16.9156627" fill="white">
            <use xlink:href="#path-9"></use>
        </mask>
        <path d="M7.47826087,23.4939759 L22.8741316,23.4939759 L22.6679046,22.2599429 C21.9507075,19.6255134 19.854686,17.8554217 17.4530309,17.8554217 L12.835532,17.8554217 C10.4338769,17.8554217 8.33959199,19.6255134 7.62239491,22.2599429 L7.47826087,23.4939759 Z" id="path-11"></path>
        <mask id="mask-12" maskContentUnits="userSpaceOnUse" maskUnits="objectBoundingBox" x="0" y="0" width="15.3958707" height="5.63855422" fill="white">
            <use xlink:href="#path-11"></use>
        </mask>
    </defs>
    <g id="New-Prototype-Flow" stroke="none" stroke-width="1" fill="none" fill-rule="evenodd">
        <g id="0-Welcome" transform="translate(-552.000000, -283.000000)">
            <g id="modal" transform="translate(552.000000, 283.000000)">
                <g id="Group-2" transform="translate(0.000000, -1.000000)">
                    <polygon id="Rectangle-8" fill="#85D8EB" points="0 0 400 0.898488121 400 208 0 208"></polygon>
                    <g id="illustration-2-morph" transform="translate(77.000000, 26.000000)">
                        <path d="M6.56020942,149.647059 L172.439791,149.647059 L172.439791,47.6969452 C172.439791,45.2665844 170.476584,43.2941176 168.053716,43.2941176 L10.9462839,43.2941176 C8.52341635,43.2941176 6.56020942,45.2665844 6.56020942,47.6969452 L6.56020942,149.647059 Z" id="Fill-1" fill="#E8E8E8"></path>
                        <use id="Fill-5" stroke="#777777" mask="url(#mask-2)" stroke-width="1.875" fill="#F5F5F5" xlink:href="#path-1"></use>
                        <path d="M176.424334,159.11905 L2.57566562,159.11905 C1.15291699,159.11905 0,157.90365 0,156.403795 L0,152.362314 C0,150.862459 1.15291699,149.647059 2.57566562,149.647059 L176.424334,149.647059 C177.847083,149.647059 179,150.862459 179,152.362314 L179,156.403795 C179,157.90365 177.847083,159.11905 176.424334,159.11905" id="Fill-9" fill="#F5F5F5"></path>
                        <path d="M101.095303,152.470588 L78.84187,152.470588 C77.7295299,152.470588 76.7249426,151.736581 76.2823274,150.602374 L75.9109948,149.647059 L104.026178,149.647059 L103.654845,150.602374 C103.21223,151.736581 102.207643,152.470588 101.095303,152.470588" id="Fill-13" fill="#777777"></path>
                        <polygon id="Fill-16" fill="#E3E3E3" style="mix-blend-mode: multiply;" opacity="0.9" points="24.3664921 141.176471 29.9895288 141.176471 29.9895288 43.2941176 24.3664921 43.2941176"></polygon>
                        <polygon id="Fill-16" fill="#E3E3E3" style="mix-blend-mode: multiply;" opacity="0.9" transform="translate(89.500000, 57.411765) rotate(-90.000000) translate(-89.500000, -57.411765) " points="86.6884817 117.176471 92.3115183 117.176471 92.3115183 -2.35294118 86.6884817 -2.35294118"></polygon>
                        <polygon id="Fill-16-Copy" fill="#E3E3E3" style="mix-blend-mode: multiply;" opacity="0.9" transform="translate(89.500000, 116.705882) rotate(-90.000000) translate(-89.500000, -116.705882) " points="86.6884817 176.470588 92.3115183 176.470588 92.3115183 56.9411765 86.6884817 56.9411765"></polygon>
                        <polygon id="Fill-18" fill="#FEFEFE" points="29.9895288 54.5882353 149.010471 54.5882353 149.010471 0 29.9895288 0"></polygon>
                        <polygon id="Fill-18-Copy" fill="#FEFEFE" points="29.9895288 113.882353 149.010471 113.882353 149.010471 59.2941176 29.9895288 59.2941176"></polygon>
                        <polygon id="Fill-18-Copy-2" fill="#FEFEFE" points="29.9895288 141.127044 149.010471 141.127044 149.010471 119.529412 29.9895288 119.529412"></polygon>
                        <polygon id="Fill-21" fill="#BFBEBD" points="44.9842932 131.764706 134.015707 131.764706 134.015707 126.117647 44.9842932 126.117647"></polygon>
                        <polygon id="Fill-28" fill="#BFBEBD" points="44.9842932 17.8823529 134.015707 17.8823529 134.015707 12.2352941 44.9842932 12.2352941"></polygon>
                        <polygon id="Fill-28-Copy" fill="#BFBEBD" points="44.9842932 30.1176471 134.015707 30.1176471 134.015707 24.4705882 44.9842932 24.4705882"></polygon>
                        <polygon id="Fill-28-Copy-2" fill="#BFBEBD" points="44.9842932 41.4117647 134.015707 41.4117647 134.015707 35.7647059 44.9842932 35.7647059"></polygon>
                        <polygon id="Fill-28-Copy-3" fill="#BFBEBD" points="44.9842932 71.5294118 134.015707 71.5294118 134.015707 65.8823529 44.9842932 65.8823529"></polygon>
                        <polygon id="Fill-28-Copy-4" fill="#BFBEBD" points="44.9842932 82.8235294 134.015707 82.8235294 134.015707 77.1764706 44.9842932 77.1764706"></polygon>
                        <polygon id="Fill-28-Copy-5" fill="#BFBEBD" points="44.9842932 94.1176471 134.015707 94.1176471 134.015707 88.4705882 44.9842932 88.4705882"></polygon>
                        <polygon id="Fill-28-Copy-6" fill="#BFBEBD" points="44.9842932 105.411765 134.015707 105.411765 134.015707 99.7647059 44.9842932 99.7647059"></polygon>
                        <polygon id="Fill-29" fill="#BFBEBD" points="44.9842932 26.3529412 82.4712042 26.3529412 82.4712042 25.4117647 44.9842932 25.4117647"></polygon>
                        <polygon id="Fill-29-Copy" fill="#BFBEBD" points="96.5287958 82.8235294 134.015707 82.8235294 134.015707 81.8823529 96.5287958 81.8823529"></polygon>
                        <g id="Group" transform="translate(10.308901, 113.882353)">
                            <path d="M14.0146513,26.3529412 L2.0826149,26.3034831 C0.930383459,26.3017167 -0.0035681101,25.4079377 1.02483972e-05,24.3092608 L0.0322154749,11.3971577 C0.0340046542,10.2984808 0.971534582,9.41000097 2.12376602,9.41176734 L14.0575916,9.46122546 L14.0146513,26.3529412 Z" id="Fill-78" fill="#E3E3E3" style="mix-blend-mode: multiply;" opacity="0.9"></path>
                            <use id="Stroke-84" stroke="#FFC820" mask="url(#mask-4)" fill="#FFE490" xlink:href="#path-3"></use>
                            <path d="M21.2491159,9.70875142 C21.2491159,14.5512562 18.380995,18.4763264 14.8418354,18.4763264 C11.3026759,18.4763264 8.43455497,14.5512562 8.43455497,9.70875142 C8.43455497,4.86624668 11.3026759,0.941176471 14.8418354,0.941176471 C18.380995,0.941176471 21.2491159,4.86624668 21.2491159,9.70875142" id="Fill-86" stroke="#FFC820" stroke-width="0.5" fill="#FFF0C3"></path>
                            <use id="Fill-92" stroke="#FFC820" mask="url(#mask-6)" fill="#FFF1C4" xlink:href="#path-5"></use>
                            <path d="M14.3594825,21.0114915 C12.6424645,21.0114915 11.2460733,19.6080455 11.2460733,17.8823529 L11.9749299,17.8823529 C11.9749299,19.204797 13.043686,20.2789526 14.3594825,20.2789526 C15.6752789,20.2789526 16.744035,19.204797 16.744035,17.8823529 L17.4728917,17.8823529 C17.4728917,19.6080455 16.0765005,21.0114915 14.3594825,21.0114915" id="Fill-94" fill="#FFC820"></path>
                            <path d="M11.741906,10.2896091 L11.7016087,10.2896091 C11.4510642,10.2896091 11.2460733,10.0853435 11.2460733,9.8317723 L11.2460733,8.92666414 C11.2460733,8.67485389 11.4510642,8.47058824 11.7016087,8.47058824 L11.741906,8.47058824 C11.9924505,8.47058824 12.1974414,8.67485389 12.1974414,8.92666414 L12.1974414,9.8317723 C12.1974414,10.0853435 11.9924505,10.2896091 11.741906,10.2896091" id="Fill-96" fill="#FFC820"></path>
                            <path d="M17.3649427,10.2896091 L17.3246453,10.2896091 C17.0741009,10.2896091 16.8691099,10.0853435 16.8691099,9.8317723 L16.8691099,8.92666414 C16.8691099,8.67485389 17.0741009,8.47058824 17.3246453,8.47058824 L17.3649427,8.47058824 C17.6154872,8.47058824 17.8204781,8.67485389 17.8204781,8.92666414 L17.8204781,9.8317723 C17.8204781,10.0853435 17.6154872,10.2896091 17.3649427,10.2896091" id="Fill-98" fill="#FFC820"></path>
                            <path d="M19.8747461,15.6462391 C20.1585797,15.2007287 20.403868,14.7164782 20.6053548,14.2005313 C20.9470063,13.2936622 21.264129,11.9888273 21.1957987,10.3529412 L21.1940467,10.3529412 L20.5545451,10.3529412 C20.5545451,10.3529412 20.2917362,12.1772448 19.7556061,13.0946793 C19.6189454,13.3271195 19.3035748,13.4257306 19.0302536,13.3253586 C18.2243063,13.0295256 16.379388,12.3797495 14.8200553,12.3797495 C13.2589706,12.3797495 11.4158043,13.0295256 10.6098571,13.3253586 C10.3365359,13.4257306 10.0211652,13.3271195 9.8845046,13.0946793 C9.34662243,12.1772448 9.08381355,10.3529412 9.08381355,10.3529412 L8.44431195,10.3529412 L8.44431195,10.3529412 C8.37422958,11.9888273 8.69310435,13.2954231 9.0347559,14.2022922 C9.23449064,14.7164782 9.47977893,15.2007287 9.76361252,15.6462391 C9.76536458,15.6462391 9.77062075,15.6374345 9.78113311,15.6233472 C9.78288517,15.6444782 9.78814135,15.6638482 9.7898934,15.6849791 C10.9602689,17.4969564 12.7771543,18.6609184 14.8200553,18.6609184 C16.8612043,18.6609184 18.6798417,17.4969564 19.8502173,15.6849791 C19.8519693,15.6638482 19.8554734,15.6444782 19.8572255,15.6233472 C19.8677379,15.6374345 19.8747461,15.6462391 19.8747461,15.6462391" id="Fill-100" fill="#FFC820"></path>
                            <path d="M16.2444037,17.2749602 L13.6198191,17.2749602 C13.0433916,17.2749602 12.5387985,16.8857989 12.3881215,16.3275901 L12.2286841,15.737685 C12.0079246,14.9206224 12.6193933,14.1176471 13.4603817,14.1176471 L16.4038411,14.1176471 C17.2448295,14.1176471 17.8562982,14.9206224 17.6355387,15.737685 L17.4761013,16.3275901 C17.3254242,16.8857989 16.8208312,17.2749602 16.2444037,17.2749602" id="Fill-102" fill="#FFF0C3"></path>
                            <path d="M8.65392015,12.2847211 L8.18261623,12.2847211 C7.28731399,12.2847211 6.56020942,11.5521822 6.56020942,10.6523567 L6.56020942,10.1011917 C6.56020942,9.20312713 7.28731399,8.47058824 8.18261623,8.47058824 L8.59259808,8.47058824 L8.57157337,8.67309298 C8.51550748,9.19432258 8.51725954,9.73316129 8.52076366,10.3019355 L8.52076366,10.6224213 C8.52076366,11.1049108 8.55580484,11.594444 8.62413515,12.0751727 L8.65392015,12.2847211 Z" id="Fill-104" fill="#FFF0C3"></path>
                            <path d="M8.18261623,8.83685769 C7.48880079,8.83685769 6.92463774,9.40387097 6.92463774,10.1011917 L6.92463774,10.6523567 C6.92463774,11.3514383 7.48880079,11.9184516 8.18261623,11.9184516 L8.23693007,11.9184516 C8.18261623,11.4887894 8.15633534,11.0538444 8.15633534,10.6224213 L8.15633534,10.3036964 C8.15458328,9.79479317 8.15283123,9.31230361 8.19137653,8.83685769 L8.18261623,8.83685769 Z M8.65392015,12.2847211 L8.18261623,12.2847211 C7.28731399,12.2847211 6.56020942,11.5521822 6.56020942,10.6523567 L6.56020942,10.1011917 C6.56020942,9.20312713 7.28731399,8.47058824 8.18261623,8.47058824 L8.59259808,8.47058824 L8.57157337,8.67309298 C8.51550748,9.19432258 8.51725954,9.73316129 8.52076366,10.3019355 L8.52076366,10.6224213 C8.52076366,11.1049108 8.55580484,11.594444 8.62413515,12.0751727 L8.65392015,12.2847211 Z" id="Fill-104" fill="#FFC820"></path>
                            <path d="M21.090857,12.2847211 L20.617801,12.2847211 L20.6475861,12.0751727 C20.7176684,11.594444 20.7527096,11.1066717 20.7527096,10.6224213 C20.7527096,10.4480911 20.7544617,10.2772827 20.7562137,10.1099962 C20.7614699,9.62750664 20.7667261,9.16966983 20.7246767,8.66957116 L20.7089081,8.47058824 L21.090857,8.47058824 C21.9844072,8.47058824 22.7132638,9.20312713 22.7132638,10.1029526 L22.7132638,10.6541176 C22.7132638,11.5521822 21.9844072,12.2847211 21.090857,12.2847211" id="Path" fill="#FFF0C3"></path>
                            <path d="M21.0365432,11.9184516 L21.090857,11.9184516 C21.7846725,11.9184516 22.3488355,11.3514383 22.3488355,10.6541176 L22.3488355,10.1029526 C22.3488355,9.4091537 21.7899286,8.84390133 21.1031214,8.83685769 C21.1294023,9.27708539 21.1241462,9.6856167 21.120642,10.113518 C21.1171379,10.2808046 21.1153859,10.4480911 21.1153859,10.6224213 C21.1153859,11.0538444 21.089105,11.4887894 21.0365432,11.9184516 M21.090857,12.2847211 L20.617801,12.2847211 L20.6475861,12.0751727 C20.7176684,11.594444 20.7527096,11.1066717 20.7527096,10.6224213 C20.7527096,10.4480911 20.7544617,10.2772827 20.7562137,10.1099962 C20.7614699,9.62750664 20.7667261,9.16966983 20.7246767,8.66957116 L20.7089081,8.47058824 L21.090857,8.47058824 C21.9844072,8.47058824 22.7132638,9.20312713 22.7132638,10.1029526 L22.7132638,10.6541176 C22.7132638,11.5521822 21.9844072,12.2847211 21.090857,12.2847211" id="Fill-106" fill="#FFC820"></path>
                            <path d="M14.6480378,0.550275387 C11.2931623,0.847008965 9.92813102,3.95234879 9.48609691,5.32289318 C9.3893939,5.34909416 9.30679902,5.37251866 9.2391581,5.3922611 C9.10249748,5.43276205 8.99562187,5.54898216 8.95882863,5.69865958 L8.4489794,7.76596888 C8.3718888,8.07941101 8.61542503,8.3717222 8.90276273,8.30832941 C10.0118162,8.0618019 12.4559388,7.59868235 15.127829,7.59868235 C17.7997193,7.59868235 20.2438419,8.0618019 21.3528953,8.30832941 C21.640233,8.3717222 21.8855213,8.07941101 21.8084307,7.76596888 L21.2968294,5.69865958 C21.2600362,5.54898216 21.1531606,5.43276205 21.0165,5.3922611 C20.9576784,5.37509277 20.8875481,5.35513995 20.8066655,5.33299818 C20.3843601,3.96745679 19.0579723,0.846731815 15.698386,0.550131355 C15.6986778,0.542882559 15.6988251,0.535595581 15.6988251,0.528273245 C15.6988251,0.235962049 15.4640492,0 15.1732074,0 C14.8841176,0 14.6475896,0.235962049 14.6475896,0.528273245 C14.6475896,0.535644081 14.64774,0.542979088 14.6480378,0.550275387 L14.6480378,0.550275387 Z" id="Combined-Shape" fill="#FFC820"></path>
                            <polygon id="Fill-112" fill="#FFC820" points="8.43455497 10.7350588 9.07931275 10.7350588 9.07931275 10.3529412 8.43455497 10.3529412"></polygon>
                            <polygon id="Fill-114" fill="#FFC820" points="20.617801 10.7350588 21.2625588 10.7350588 21.2625588 10.3529412 20.617801 10.3529412"></polygon>
                            <path d="M14.7074826,15.4250647 C14.2361787,15.4250647 14.0890057,15.2243209 14.0732372,15.2014291 C14.0452043,15.1591672 14.0557166,15.1028181 14.097766,15.0746435 C14.1398155,15.0464689 14.1958814,15.0570344 14.2239143,15.0975353 C14.2274184,15.1028181 14.3395502,15.24193 14.7074826,15.24193 C15.0789192,15.24193 15.191051,15.0992962 15.191051,15.0975353 C15.220836,15.0570344 15.2786539,15.0482298 15.3171992,15.0764044 C15.3574966,15.1063399 15.369761,15.1609281 15.3417281,15.2014291 C15.3259595,15.2243209 15.1787866,15.4250647 14.7074826,15.4250647" id="Fill-115" fill="#FFC820"></path>
                        </g>
                    </g>
                    <g id="Illustration-3-phone" transform="translate(235.000000, 35.000000)">
                        <path d="M6.65607883,151.309391 C6.65607883,153.899943 8.75491632,156 11.3457808,156 L81.1976974,156 C83.7877483,156 85.8873994,153.90117 85.8873994,151.309391 L85.8873994,46.0179252 C85.8873994,43.4408979 84.9496862,43.2289157 83.792419,43.2289157 L8.75105923,43.2289157 C7.59379206,43.2289157 6.65607883,43.4408979 6.65607883,46.0179252 L6.65607883,151.309391 Z" id="Fill-1" fill="#666666"></path>
                        <ellipse id="Oval" stroke="#555555" stroke-width="0.9375" fill="#777777" cx="46.7391304" cy="148.481928" rx="4.67391304" ry="4.69879518"></ellipse>
                        <use id="Fill-5" stroke="#777777" mask="url(#mask-8)" stroke-width="1.875" fill="#F5F5F5" xlink:href="#path-7"></use>
                        <path d="M52.3343753,150.361446 L51.4264942,150.361446 C51.4190643,150.361446 51.4130435,150.24086 51.4130435,150.092053 L51.4130435,149.691079 C51.4130435,149.542272 51.4190643,149.421687 51.4264942,149.421687 L52.3343753,149.421687 C52.3418053,149.421687 52.3478261,149.542272 52.3478261,149.691079 L52.3478261,150.092053 C52.3478261,150.24086 52.3418053,150.361446 52.3343753,150.361446" id="Fill-9" fill="#F5F5F5" opacity="0"></path>
                        <path d="M52.2503794,150.361446 L51.5104902,150.361446 C51.4735067,150.361446 51.4401059,150.117145 51.4253897,149.739646 L51.4130435,149.421687 L52.3478261,149.421687 L52.3354799,149.739646 C52.3207637,150.117145 52.2873628,150.361446 52.2503794,150.361446" id="Fill-13" fill="#777777" opacity="0"></path>
                        <polygon id="Fill-16" fill="#E3E3E3" style="mix-blend-mode: multiply;" opacity="0.9" points="14.0217391 140.963855 19.6304348 140.963855 19.6304348 43.2289157 14.0217391 43.2289157"></polygon>
                        <polyline id="Fill-16" fill="#E3E3E3" style="mix-blend-mode: multiply;" opacity="0.9" points="71.9782609 60.1445783 71.9782609 54.5060241 19.6304348 54.5060241 19.6304348 60.1445783"></polyline>
                        <polyline id="Fill-16-Copy" fill="#E3E3E3" style="mix-blend-mode: multiply;" opacity="0.9" points="71.9782609 119.349398 71.9782609 113.710843 19.6304348 113.710843 19.6304348 119.349398"></polyline>
                        <polygon id="Fill-18" fill="#FEFEFE" points="19.6304348 54.5060241 71.9782609 54.5060241 71.9782609 0 19.6304348 0"></polygon>
                        <polygon id="Fill-18-Copy" fill="#FEFEFE" points="19.6304348 113.710843 71.9782609 113.710843 71.9782609 59.2048193 19.6304348 59.2048193"></polygon>
                        <polygon id="Fill-18-Copy-2" fill="#FEFEFE" points="19.6304348 140.914503 71.9782609 140.914503 71.9782609 119.349398 19.6304348 119.349398"></polygon>
                        <polygon id="Fill-21" fill="#BFBEBD" points="26.6528985 131.566265 65.8905798 131.566265 65.8905798 125.927711 26.6528985 125.927711"></polygon>
                        <polygon id="Fill-28" fill="#BFBEBD" points="26.6528985 17.8554217 65.8905798 17.8554217 65.8905798 12.2168675 26.6528985 12.2168675"></polygon>
                        <polygon id="Fill-28-Copy" fill="#BFBEBD" points="26.6528985 30.0722892 65.8905798 30.0722892 65.8905798 24.4337349 26.6528985 24.4337349"></polygon>
                        <polygon id="Fill-28-Copy-2" fill="#BFBEBD" points="26.6528985 41.3493976 65.8905798 41.3493976 65.8905798 35.7108434 26.6528985 35.7108434"></polygon>
                        <polygon id="Fill-28-Copy-3" fill="#BFBEBD" points="26.6528985 71.4216867 65.8905798 71.4216867 65.8905798 65.7831325 26.6528985 65.7831325"></polygon>
                        <polygon id="Fill-28-Copy-4" fill="#BFBEBD" points="26.6528985 82.6987952 65.8905798 82.6987952 65.8905798 77.060241 26.6528985 77.060241"></polygon>
                        <polygon id="Fill-28-Copy-5" fill="#BFBEBD" points="26.6528985 93.9759036 65.8905798 93.9759036 65.8905798 88.3373494 26.6528985 88.3373494"></polygon>
                        <polygon id="Fill-28-Copy-6" fill="#BFBEBD" points="26.6528985 105.253012 65.8905798 105.253012 65.8905798 99.6144578 26.6528985 99.6144578"></polygon>
                        <g id="Group" transform="translate(0.000000, 113.710843)">
                            <path d="M13.9789083,26.313253 L2.07730339,26.2638694 C0.928010608,26.2621057 -0.00355900999,25.3696728 1.02222597e-05,24.2726505 L0.0321333125,11.3799933 C0.0339179287,10.2829711 0.969056779,9.39582929 2.11834956,9.39759299 L14.0217391,9.44697663 L13.9789083,26.313253 Z" id="Fill-78" fill="#E3E3E3" style="mix-blend-mode: multiply;" opacity="0.9"></path>
                            <use id="Stroke-84" stroke="#FFC820" mask="url(#mask-10)" fill="#FFE490" xlink:href="#path-9"></use>
                            <path d="M21.1949221,9.69412981 C21.1949221,14.5293416 18.3341161,18.4485006 14.8039828,18.4485006 C11.2738495,18.4485006 8.41304348,14.5293416 8.41304348,9.69412981 C8.41304348,4.85891799 11.2738495,0.939759036 14.8039828,0.939759036 C18.3341161,0.939759036 21.1949221,4.85891799 21.1949221,9.69412981" id="Fill-86" stroke="#FFC820" stroke-width="0.5" fill="#FFF0C3"></path>
                            <use id="Fill-92" stroke="#FFC820" mask="url(#mask-12)" fill="#FFF1C4" xlink:href="#path-11"></use>
                            <path d="M14.32286,20.9798476 C12.6102211,20.9798476 11.2173913,19.5785154 11.2173913,17.8554217 L11.944389,17.8554217 C11.944389,19.1758741 13.0104194,20.248412 14.32286,20.248412 C15.6353007,20.248412 16.701331,19.1758741 16.701331,17.8554217 L17.4283288,17.8554217 C17.4283288,19.5785154 16.035499,20.9798476 14.32286,20.9798476" id="Fill-94" fill="#FFC820"></path>
                            <path d="M11.7119595,10.2741127 L11.6717649,10.2741127 C11.4218594,10.2741127 11.2173913,10.0701547 11.2173913,9.81696541 L11.2173913,8.91322037 C11.2173913,8.66178935 11.4218594,8.45783133 11.6717649,8.45783133 L11.7119595,8.45783133 C11.961865,8.45783133 12.1663331,8.66178935 12.1663331,8.91322037 L12.1663331,9.81696541 C12.1663331,10.0701547 11.961865,10.2741127 11.7119595,10.2741127" id="Fill-96" fill="#FFC820"></path>
                            <path d="M17.3206551,10.2741127 L17.2804605,10.2741127 C17.0305551,10.2741127 16.826087,10.0701547 16.826087,9.81696541 L16.826087,8.91322037 C16.826087,8.66178935 17.0305551,8.45783133 17.2804605,8.45783133 L17.3206551,8.45783133 C17.5705606,8.45783133 17.7750287,8.66178935 17.7750287,8.91322037 L17.7750287,9.81696541 C17.7750287,10.0701547 17.5705606,10.2741127 17.3206551,10.2741127" id="Fill-98" fill="#FFC820"></path>
                            <path d="M19.8240575,15.6226755 C20.1071672,15.177836 20.3518299,14.6943148 20.5528029,14.179145 C20.8935831,13.2736417 21.209897,11.9707719 21.1417409,10.3373494 L21.1399933,10.3373494 L20.5021227,10.3373494 C20.5021227,10.3373494 20.2399841,12.1589056 19.7052214,13.0749584 C19.5689093,13.3070486 19.2543429,13.4055111 18.9817188,13.3052903 C18.177827,13.0099028 16.337614,12.3611053 14.7822583,12.3611053 C13.2251549,12.3611053 11.3866895,13.0099028 10.5827977,13.3052903 C10.3101736,13.4055111 9.99560723,13.3070486 9.85929515,13.0749584 C9.3227848,12.1589056 9.06064619,10.3373494 9.06064619,10.3373494 L8.42277557,10.3373494 L8.42277557,10.3373494 C8.35287194,11.9707719 8.67093345,13.2753999 9.01171365,14.1809032 C9.21093899,14.6943148 9.45560169,15.177836 9.73871139,15.6226755 C9.74045898,15.6226755 9.74570176,15.6138842 9.7561873,15.5998181 C9.75793489,15.6209172 9.76317766,15.6402581 9.76492525,15.6613572 C10.9323159,17.4706055 12.7445675,18.6328146 14.7822583,18.6328146 C16.8182015,18.6328146 18.6322006,17.4706055 19.7995913,15.6613572 C19.8013388,15.6402581 19.804834,15.6209172 19.8065816,15.5998181 C19.8170672,15.6138842 19.8240575,15.6226755 19.8240575,15.6226755" id="Fill-100" fill="#FFC820"></path>
                            <path d="M16.202974,17.2489436 L13.5850831,17.2489436 C13.0101257,17.2489436 12.5068196,16.8603684 12.3565268,16.3030004 L12.197496,15.7139837 C11.9772996,14.8981516 12.5872088,14.0963855 13.4260523,14.0963855 L16.3620047,14.0963855 C17.2008483,14.0963855 17.8107575,14.8981516 17.590561,15.7139837 L17.4315303,16.3030004 C17.2812375,16.8603684 16.7779313,17.2489436 16.202974,17.2489436" id="Fill-102" fill="#FFF0C3"></path>
                            <path d="M8.63184919,12.26622 L8.16174728,12.26622 C7.26872842,12.26622 6.54347826,11.5347843 6.54347826,10.636314 L6.54347826,10.085979 C6.54347826,9.189267 7.26872842,8.45783133 8.16174728,8.45783133 L8.57068351,8.45783133 L8.54971242,8.66003109 C8.49378952,9.18047571 8.49553711,9.71850291 8.49903229,10.2864205 L8.49903229,10.6064236 C8.49903229,11.0881866 8.53398411,11.5769825 8.60214015,12.0569872 L8.63184919,12.26622 Z" id="Fill-104" fill="#FFF0C3"></path>
                            <path d="M8.16174728,8.82354916 C7.46970135,8.82354916 6.90697713,9.38970851 6.90697713,10.085979 L6.90697713,10.636314 C6.90697713,11.3343428 7.46970135,11.9005021 8.16174728,11.9005021 L8.21592259,11.9005021 C8.16174728,11.471487 8.13553342,11.037197 8.13553342,10.6064236 L8.13553342,10.2881788 C8.13378583,9.78004197 8.13203824,9.29827905 8.17048523,8.82354916 L8.16174728,8.82354916 Z M8.63184919,12.26622 L8.16174728,12.26622 C7.26872842,12.26622 6.54347826,11.5347843 6.54347826,10.636314 L6.54347826,10.085979 C6.54347826,9.189267 7.26872842,8.45783133 8.16174728,8.45783133 L8.57068351,8.45783133 L8.54971242,8.66003109 C8.49378952,9.18047571 8.49553711,9.71850291 8.49903229,10.2864205 L8.49903229,10.6064236 C8.49903229,11.0881866 8.53398411,11.5769825 8.60214015,12.0569872 L8.63184919,12.26622 Z" id="Fill-104" fill="#FFC820"></path>
                            <path d="M21.0370669,12.26622 L20.5652174,12.26622 L20.5949264,12.0569872 C20.6648301,11.5769825 20.6997819,11.0899448 20.6997819,10.6064236 C20.6997819,10.432356 20.7015295,10.2618049 20.7032771,10.0947703 C20.7085198,9.61300738 20.7137626,9.15586009 20.6718204,8.65651457 L20.6560921,8.45783133 L21.0370669,8.45783133 C21.9283382,8.45783133 22.6553359,9.189267 22.6553359,10.0877373 L22.6553359,10.6380723 C22.6553359,11.5347843 21.9283382,12.26622 21.0370669,12.26622" id="Path" fill="#FFF0C3"></path>
                            <path d="M20.9828916,11.9005021 L21.0370669,11.9005021 C21.7291128,11.9005021 22.291837,11.3343428 22.291837,10.6380723 L22.291837,10.0877373 C22.291837,9.39498329 21.7343556,8.8305822 21.0493,8.82354916 C21.0755139,9.26311387 21.0702711,9.67102993 21.0667759,10.0982868 C21.0632808,10.2653214 21.0615332,10.432356 21.0615332,10.6064236 C21.0615332,11.037197 21.0353193,11.471487 20.9828916,11.9005021 M21.0370669,12.26622 L20.5652174,12.26622 L20.5949264,12.0569872 C20.6648301,11.5769825 20.6997819,11.0899448 20.6997819,10.6064236 C20.6997819,10.432356 20.7015295,10.2618049 20.7032771,10.0947703 C20.7085198,9.61300738 20.7137626,9.15586009 20.6718204,8.65651457 L20.6560921,8.45783133 L21.0370669,8.45783133 C21.9283382,8.45783133 22.6553359,9.189267 22.6553359,10.0877373 L22.6553359,10.6380723 C22.6553359,11.5347843 21.9283382,12.26622 21.0370669,12.26622" id="Fill-106" fill="#FFC820"></path>
                            <path d="M14.6106795,0.549446659 C11.2643602,0.845733349 9.90281031,3.94639646 9.46190356,5.31487678 C9.36544718,5.3410383 9.28306295,5.36442752 9.21559454,5.38414023 C9.07928246,5.42458018 8.97267943,5.54062526 8.93598002,5.69007726 L8.42743112,7.75427314 C8.35053713,8.06724322 8.59345224,8.35911419 8.88005712,8.29581687 C9.98628206,8.04966063 12.4241711,7.58723855 15.089247,7.58723855 C17.7543229,7.58723855 20.1922119,8.04966063 21.2984369,8.29581687 C21.5850418,8.35911419 21.8297045,8.06724322 21.7528105,7.75427314 L21.242514,5.69007726 C21.2058146,5.54062526 21.0992115,5.42458018 20.9628995,5.38414023 C20.9042279,5.36699775 20.8342765,5.34707498 20.7536001,5.32496656 C20.3323718,3.96148171 19.0093668,0.845456616 15.6583488,0.549302843 C15.6586399,0.542064965 15.6587868,0.534788961 15.6587868,0.527477653 C15.6587868,0.235606685 15.4246097,0 15.1345096,0 C14.8461571,0 14.6102324,0.235606685 14.6102324,0.527477653 C14.6102324,0.534837388 14.6103824,0.542161349 14.6106795,0.549446659 L14.6106795,0.549446659 Z" id="Combined-Shape" fill="#FFC820"></path>
                            <polygon id="Fill-112" fill="#FFC820" points="8.41304348 10.7188916 9.05615687 10.7188916 9.05615687 10.3373494 8.41304348 10.3373494"></polygon>
                            <polygon id="Fill-114" fill="#FFC820" points="20.5652174 10.7188916 21.2083308 10.7188916 21.2083308 10.3373494 20.5652174 10.3373494"></polygon>
                            <path d="M14.6699727,15.4018342 C14.1998708,15.4018342 14.0530731,15.2013927 14.0373448,15.1785353 C14.0093834,15.1363371 14.0198689,15.0800728 14.0618111,15.0519407 C14.1037533,15.0238086 14.1596762,15.0343581 14.1876376,15.0747981 C14.1911328,15.0800728 14.3029786,15.2189753 14.6699727,15.2189753 C15.0404619,15.2189753 15.1523077,15.0765563 15.1523077,15.0747981 C15.1820168,15.0343581 15.2396872,15.0255668 15.2781342,15.053699 C15.3183288,15.0835894 15.330562,15.1380954 15.3026005,15.1785353 C15.2868722,15.2013927 15.1400746,15.4018342 14.6699727,15.4018342" id="Fill-115" fill="#FFC820"></path>
                        </g>
                    </g>
                </g>
            </g>
        </g>
    </g>
</svg>