<?xml version="1.0" encoding="UTF-8"?>
<svg width="33px" height="40px" viewBox="0 0 33 40" version="1.1" xmlns="http://www.w3.org/2000/svg" xmlns:xlink="http://www.w3.org/1999/xlink">
    <!-- Generator: Sketch 50.2 (55047) - http://www.bohemiancoding.com/sketch -->
    <title>File</title>
    <desc>Created with Sketch.</desc>
    <defs></defs>
    <g id="Page-1" stroke="none" stroke-width="1" fill="none" fill-rule="evenodd" opacity="1">
        <g id="Documents-A-Copy-60" transform="translate(-562.000000, -1250.000000)" fill="#626262">
            <g id="Group" transform="translate(0.000000, 1226.000000)">
                <g id="Group-9" transform="translate(536.000000, 24.000000)">
                    <path d="M49.9611339,26.4459224 C49.9611339,27.0723079 49.4536107,27.5779444 48.8291118,27.5779444 L35.6221876,27.5779444 C34.9976888,27.5779444 34.4901656,27.0723079 34.4901656,26.4459224 C34.4901656,25.8195368 34.9976888,25.3139003 35.6221876,25.3139003 L48.8291118,25.3139003 C49.4536107,25.3139003 49.9611339,25.8195368 49.9611339,26.4459224 Z M49.9611339,18.1123532 C49.9611339,18.7387387 49.4536107,19.246262 48.8291118,19.246262 L35.6221876,19.246262 C34.9976888,19.246262 34.4901656,18.7387387 34.4901656,18.1123532 C34.4901656,17.4878543 34.9976888,16.9803311 35.6221876,16.9803311 L48.8291118,16.9803311 C49.4536107,16.9803311 49.9611339,17.4878543 49.9611339,18.1123532 Z M56.189142,33.2059808 C56.189142,35.7039762 54.1571624,37.7340691 51.659167,37.7340691 L32.7921324,37.7340691 C30.2960238,37.7340691 28.2640441,35.7039762 28.2640441,33.2059808 L28.2640441,6.79213245 C28.2640441,4.29602377 30.2960238,2.26593085 32.7921324,2.26593085 L45.8141597,2.26593085 C46.5084666,2.26593085 47.1895665,2.54704967 47.6819961,3.03947927 L55.4155936,10.77119 C55.9117966,11.2711665 56.189142,11.9333994 56.189142,12.6390265 L56.189142,33.2059808 Z M57.0136314,9.1693788 L49.2819207,1.43766803 C48.3536626,0.511296637 47.1235319,0 45.8141597,0 L32.7921324,0 C29.0489128,0 26,3.04891279 26,6.79213245 L26,33.2059808 C26,36.9510872 29.0489128,40 32.7921324,40 L51.659167,40 C55.4061601,40 58.4512995,36.9510872 58.4512995,33.2059808 L58.4512995,12.6390265 C58.4512995,11.3277676 57.9400028,10.0957502 57.0136314,9.1693788 Z" id="File"></path>
                </g>
            </g>
        </g>
    </g>
</svg>
