<?xml version="1.0" encoding="UTF-8"?>
<svg width="45px" height="40px" viewBox="0 0 45 40" version="1.1" xmlns="http://www.w3.org/2000/svg" xmlns:xlink="http://www.w3.org/1999/xlink">
    <!-- Generator: Sketch 50.2 (55047) - http://www.bohemiancoding.com/sketch -->
    <title>Home</title>
    <desc>Created with Sketch.</desc>
    <defs></defs>
    <g id="Page-1" stroke="none" stroke-width="1" fill="#333333" fill-rule="evenodd">
        <g id="Documents-A-Copy-60" transform="translate(-149.000000, -1250.000000)" fill="#333333">
            <g id="Group" transform="translate(0.000000, 1226.000000)">
                <g id="Group-8" transform="translate(143.000000, 24.000000)">
                    <path d="M42.0916874,33.7658818 C42.0916874,35.8237663 40.3152765,37.4980127 38.1302076,37.4980127 L33.5223811,37.4980127 L33.5223811,26.1556705 C33.5223811,25.465539 32.9636039,24.9046769 32.2713874,24.9046769 L23.9314299,24.9046769 C23.2392134,24.9046769 22.6804363,25.465539 22.6804363,26.1556705 L22.6804363,37.4980127 L17.2803138,37.4980127 C15.0952449,37.4980127 13.318834,35.8237663 13.318834,33.7658818 L13.318834,16.9087426 L27.5113567,2.71413492 C27.8387,2.38887658 28.3662023,2.38887658 28.6914607,2.71413492 L42.0916874,16.1164467 L42.0916874,33.7658818 Z M25.1824235,37.4146132 L31.0203938,37.4146132 L31.0203938,27.4066641 L25.1824235,27.4066641 L25.1824235,37.4146132 Z M49.835338,20.3218702 L30.4595317,0.946063931 C29.2001981,-0.315354644 27.0026193,-0.315354644 25.7432857,0.946063931 L6.36747938,20.3218702 C5.87750687,20.8118427 5.87750687,21.6041387 6.36747938,22.0920262 C6.85536689,22.5799137 7.64766286,22.5799137 8.13555037,22.0920262 L10.8168467,19.4107299 L10.8168467,33.7658818 C10.8168467,37.2040292 13.7170669,40 17.2803138,40 L38.1302076,40 C41.6955394,40 44.5936747,37.2040292 44.5936747,33.7658818 L44.5936747,18.6184339 L48.067267,22.0920262 C48.3112107,22.33597 48.6302141,22.4589843 48.9513025,22.4589843 C49.2703058,22.4589843 49.5913942,22.33597 49.835338,22.0920262 C50.3253105,21.6041387 50.3253105,20.8118427 49.835338,20.3218702 Z" id="Home"></path>
                </g>
            </g>
        </g>
    </g>
</svg>
