<?xml version="1.0" encoding="UTF-8"?>
<svg width="28px" height="32px" viewBox="0 0 28 32" version="1.1" xmlns="http://www.w3.org/2000/svg" xmlns:xlink="http://www.w3.org/1999/xlink">
    <!-- Generator: Sketch 51.2 (57519) - http://www.bohemiancoding.com/sketch -->
    <title>templates</title>
    <desc>Created with Sketch.</desc>
    <defs>
        <path d="M2,4.0042577 C2,1.79276724 3.79412025,0 5.99683887,0 L26.0031611,0 C28.2105543,0 30,1.78902751 30,4.0042577 L30,27.9957423 C30,30.2072328 28.2058797,32 26.0031611,32 L5.99683887,32 C3.78944571,32 2,30.2109725 2,27.9957423 L2,4.0042577 Z M6,4 L6,10 L26,10 L26,4 L6,4 Z M6,14 L6,28 L12,28 L12,14 L6,14 Z M16,14 L16,28 L26,28 L26,14 L16,14 Z" id="path-1"></path>
    </defs>
    <g id="for-samrat" stroke="none" stroke-width="1" fill="none" fill-rule="evenodd">
        <g id="Documents-A-Copy-60" transform="translate(-217.000000, -1107.000000)">
            <g id="Group-14" transform="translate(167.000000, 778.000000)">
                <g id="Group-11" transform="translate(0.000000, 297.000000)">
                    <g id="Icon/templates" transform="translate(48.000000, 32.000000)">
                        <mask id="mask-2" fill="white">
                            <use xlink:href="#path-1"></use>
                        </mask>
                        <use id="Combined-Shape" fill="#777777" fill-rule="evenodd" xlink:href="#path-1"></use>
                        <g id="Color/Default" mask="url(#mask-2)" fill="#4186EC" fill-rule="evenodd">
                            <rect id="Fill" x="0" y="0" width="32" height="32"></rect>
                        </g>
                    </g>
                </g>
            </g>
        </g>
    </g>
</svg>