<?xml version="1.0" encoding="UTF-8"?>
<svg width="33px" height="32px" viewBox="0 0 33 32" version="1.1" xmlns="http://www.w3.org/2000/svg" xmlns:xlink="http://www.w3.org/1999/xlink">
    <!-- Generator: Sketch 51.2 (57519) - http://www.bohemiancoding.com/sketch -->
    <title>Group</title>
    <desc>Created with Sketch.</desc>
    <defs></defs>
    <g id="for-samrat" stroke="none" stroke-width="1" fill="none" fill-rule="evenodd">
        <g id="Documents-A-Copy-60" transform="translate(-504.000000, -910.000000)">
            <g id="Group-14" transform="translate(167.000000, 778.000000)">
                <g id="Group-8" transform="translate(297.000000, 100.000000)">
                    <g id="Group" transform="translate(33.000000, 24.000000)">
                        <g transform="translate(7.922330, 10.252427)" id="Shape">
                            <path d="M11.913036,0.010367702 L5.36032911,0.010367702 C3.6129406,0.010367702 2.19318743,1.43903703 2.19318743,3.19739929 L2.19318743,6.93391908" stroke="#4186EC" stroke-width="3" stroke-linecap="round" stroke-linejoin="round"></path>
                            <path d="M29.496133,6.93391908 L29.496133,3.19739929 C29.496133,1.43903703 28.0763798,0.010367702 26.3289913,0.010367702 L19.7762844,0.010367702" stroke="#4186EC" stroke-width="3" stroke-linecap="round" stroke-linejoin="round"></path>
                            <path d="M2.19318743,20.5612266 L2.19318743,24.2977463 C2.19318743,26.0561086 3.6129406,27.4847779 5.36032911,27.4847779 L11.913036,27.4847779" stroke="#4186EC" stroke-width="3" stroke-linecap="round" stroke-linejoin="round"></path>
                            <path d="M19.7762844,27.4847779 L26.3289913,27.4847779 C28.0763798,27.4847779 29.496133,26.0561086 29.496133,24.2977463 L29.496133,20.5612266" stroke="#4186EC" stroke-width="3" stroke-linecap="round" stroke-linejoin="round"></path>
                            <path d="M30.0421919,15.3960374 L1.64712852,15.3960374 C0.77343426,15.3960374 0.00895178542,14.6267539 0.00895178542,13.7475728 C0.00895178542,12.8683917 0.77343426,12.0991082 1.64712852,12.0991082 L30.0421919,12.0991082 C30.9158861,12.0991082 31.6803686,12.8683917 31.6803686,13.7475728 C31.6803686,14.6267539 30.9158861,15.3960374 30.0421919,15.3960374 Z" fill="#4186EC" fill-rule="nonzero"></path>
                        </g>
                    </g>
                </g>
            </g>
        </g>
    </g>
</svg>