<?xml version="1.0" encoding="UTF-8"?>
<svg width="32px" height="28px" viewBox="0 0 32 28" version="1.1" xmlns="http://www.w3.org/2000/svg" xmlns:xlink="http://www.w3.org/1999/xlink">
    <!-- Generator: Sketch 51.2 (57519) - http://www.bohemiancoding.com/sketch -->
    <title>email</title>
    <desc>Created with Sketch.</desc>
    <defs>
        <path d="M16,15.6 L0,6.2 L0,6 C0,3.8 1.8,2 4,2 L28,2 C30.2,2 32,3.8 32,6 L16,15.6 Z M16,20.4 L32,10.6 L32,26 C32,28.2 30.2,30 28,30 L4,30 C1.8,30 0,28.2 0,26 L0,10.8 L16,20.4 Z" id="path-1"></path>
    </defs>
    <g id="for-samrat" stroke="none" stroke-width="1" fill="none" fill-rule="evenodd">
        <g id="Documents-A-Copy-60" transform="translate(-215.000000, -912.000000)">
            <g id="Group-14" transform="translate(167.000000, 778.000000)">
                <g id="Group-9" transform="translate(16.000000, 100.000000)">
                    <g id="Icon/email" transform="translate(32.000000, 32.000000)">
                        <mask id="mask-2" fill="white">
                            <use xlink:href="#path-1"></use>
                        </mask>
                        <use id="Combined-Shape" fill="#777777" fill-rule="evenodd" xlink:href="#path-1"></use>
                        <g id="Color/Default" mask="url(#mask-2)" fill="#4186EC" fill-rule="evenodd">
                            <rect id="Fill" x="0" y="0" width="32" height="32"></rect>
                        </g>
                    </g>
                </g>
            </g>
        </g>
    </g>
</svg>