<?xml version="1.0" encoding="UTF-8"?>
<svg width="32px" height="28px" viewBox="0 0 32 28" version="1.1" xmlns="http://www.w3.org/2000/svg" xmlns:xlink="http://www.w3.org/1999/xlink">
    <!-- Generator: Sketch 51.2 (57519) - http://www.bohemiancoding.com/sketch -->
    <title>folder</title>
    <desc>Created with Sketch.</desc>
    <defs>
        <path d="M28,6 L16,6 C16,3.8 14.2,2 12,2 L4,2 C1.8,2 0,3.8 0,6 L0,10 L0,14 L0,26 C0,28.2 1.8,30 4,30 L4.4,30 L19.84,30 L28,30 C30.2,30 32,28.2 32,26 L32,10 C32,7.8 30.2,6 28,6 Z" id="path-1"></path>
    </defs>
    <g id="for-samrat" stroke="none" stroke-width="1" fill="none" fill-rule="evenodd">
        <g id="Documents-A-Copy-60" transform="translate(-507.000000, -1109.000000)">
            <g id="Group-14" transform="translate(167.000000, 778.000000)">
                <g id="Group-12" transform="translate(298.000000, 297.000000)">
                    <g id="Icon/folder" transform="translate(42.000000, 32.000000)">
                        <mask id="mask-2" fill="white">
                            <use xlink:href="#path-1"></use>
                        </mask>
                        <use id="Shape" fill="#777777" fill-rule="evenodd" xlink:href="#path-1"></use>
                        <g id="Color/Default" mask="url(#mask-2)" fill="#4186EC" fill-rule="evenodd">
                            <rect id="Fill" x="0" y="0" width="32" height="32"></rect>
                        </g>
                    </g>
                </g>
            </g>
        </g>
    </g>
</svg>