<svg width="30" height="32" viewBox="0 0 30 32" fill="none" xmlns="http://www.w3.org/2000/svg">
<rect width="30" height="32" rx="15" fill="#4A515E"/>
<path d="M14.1897 21.2646H16.8103V24H14.1897V21.2646ZM11 14.007C11 13.2543 11.1077 12.5699 11.3241 11.9541C11.5257 11.3628 11.8472 10.824 12.2667 10.3745C12.6903 9.92954 13.1995 9.5835 13.7606 9.35926C14.3441 9.12021 14.9959 9.00022 15.7159 9.00022C16.2866 8.99481 16.8542 9.08826 17.3956 9.27676C17.9136 9.46144 18.3652 9.7286 18.7512 10.0773C19.1382 10.426 19.4425 10.8601 19.666 11.3804C19.8887 11.8997 20 12.4884 20 13.1446C20 13.6236 19.9506 14.037 19.8519 14.3867C19.754 14.7354 19.6229 15.0363 19.4596 15.2894C19.2953 15.5425 19.1094 15.7675 18.8994 15.9662C18.6893 16.164 18.4801 16.36 18.2709 16.5512C18.0213 16.7696 17.7924 16.9824 17.5823 17.1868C17.3732 17.3917 17.1887 17.6225 17.0329 17.8739C16.8749 18.127 16.7546 18.4251 16.6693 18.7673C16.584 19.1085 16.5409 19.5266 16.5409 20.0187H14.4187C14.4187 19.4169 14.4483 18.907 14.5075 18.4907C14.5668 18.0726 14.661 17.707 14.7921 17.3921C14.9232 17.078 15.0839 16.8006 15.2742 16.5615C15.4636 16.3215 15.6899 16.0862 15.952 15.8538C16.1612 15.6616 16.3614 15.4844 16.5508 15.3194C16.7411 15.1554 16.9117 14.9744 17.0625 14.7757C17.2125 14.5779 17.331 14.3557 17.4154 14.1101C17.5006 13.8627 17.5437 13.5692 17.5437 13.2271C17.5437 12.8165 17.4746 12.464 17.3373 12.1706C17.2178 11.9018 17.0473 11.661 16.8363 11.4628C16.6523 11.2926 16.439 11.1603 16.2079 11.0729C16.0193 10.9975 15.8199 10.9556 15.6181 10.9491C14.8056 10.9491 14.2059 11.2266 13.8199 11.7806C13.4338 12.3337 13.2399 13.0762 13.2399 14.007H11Z" fill="white"/>
</svg>
